<?xml version="1.0" encoding="UTF-8" standalone="no"?>
<!-- Created with Inkscape (http://www.inkscape.org/) -->

<svg
   xmlns:dc="http://purl.org/dc/elements/1.1/"
   xmlns:cc="http://creativecommons.org/ns#"
   xmlns:rdf="http://www.w3.org/1999/02/22-rdf-syntax-ns#"
   xmlns:svg="http://www.w3.org/2000/svg"
   xmlns="http://www.w3.org/2000/svg"
   xmlns:sodipodi="http://sodipodi.sourceforge.net/DTD/sodipodi-0.dtd"
   xmlns:inkscape="http://www.inkscape.org/namespaces/inkscape"
   width="17"
   height="17"
   viewBox="0 0 17 17"
   id="svg4412"
   version="1.1"
   inkscape:version="0.91 r13725"
   sodipodi:docname="surface.svg">
  <defs
     id="defs4414" />
  <sodipodi:namedview
     id="base"
     pagecolor="#ffffff"
     bordercolor="#666666"
     borderopacity="1.0"
     inkscape:pageopacity="0.0"
     inkscape:pageshadow="2"
     inkscape:zoom="5.6"
     inkscape:cx="-37.496508"
     inkscape:cy="5.2381984"
     inkscape:document-units="px"
     inkscape:current-layer="layer1"
     showgrid="false"
     showborder="true"
     inkscape:showpageshadow="false"
     units="px"
     inkscape:window-width="1385"
     inkscape:window-height="648"
     inkscape:window-x="66"
     inkscape:window-y="69"
     inkscape:window-maximized="0" />
  <metadata
     id="metadata4417">
    <rdf:RDF>
      <cc:Work
         rdf:about="">
        <dc:format>image/svg+xml</dc:format>
        <dc:type
           rdf:resource="http://purl.org/dc/dcmitype/StillImage" />
        <dc:title></dc:title>
      </cc:Work>
    </rdf:RDF>
  </metadata>
  <g
     inkscape:label="Layer 1"
     inkscape:groupmode="layer"
     id="layer1"
     transform="translate(0,-1035.3622)">
    <g
       transform="matrix(0.20356843,0,0,0.20356843,-1.6784215,1033.683)"
       id="g4398">
      <path
         inkscape:connector-curvature="0"
         d="m 91.74,44.964 c 0.009,-0.021 0.014,-0.044 0.015,-0.067 0,-0.003 0,-0.006 0,-0.009 0,-0.022 -0.003,-0.046 -0.012,-0.068 -10e-4,-0.003 -0.002,-0.005 -0.003,-0.008 -0.008,-0.02 -0.018,-0.038 -0.031,-0.055 l -2.075,-2.485 c -0.002,-0.002 -0.003,-0.003 -0.005,-0.005 -0.001,-0.002 -0.002,-0.003 -0.003,-0.004 0,-10e-4 0,-10e-4 -0.001,-10e-4 l 0,0 c -0.004,-0.004 -0.008,-0.007 -0.012,-0.01 -0.005,-0.005 -0.01,-0.01 -0.016,-0.014 -0.002,-0.002 -0.003,-0.004 -0.005,-0.005 l -2.433,-1.662 c -0.003,-0.002 -0.007,-0.003 -0.01,-0.005 -0.006,-0.004 -0.012,-0.007 -0.019,-0.01 -10e-4,-10e-4 -0.002,-10e-4 -0.003,-0.002 -10e-4,0 -0.002,-0.001 -0.003,-0.002 C 87.119,40.55 87.115,40.549 87.11,40.548 87.106,40.546 87.103,40.545 87.1,40.543 l -2.729,-0.797 c -0.005,-0.001 -0.01,-0.001 -0.015,-0.002 -0.005,-10e-4 -0.01,-0.002 -0.015,-0.003 -0.007,-10e-4 -0.013,-0.002 -0.02,-0.002 -0.002,0 -0.004,0 -0.007,0 -0.002,0 -0.005,-10e-4 -0.008,-10e-4 l -2.959,0.088 c -0.002,0 -0.004,10e-4 -0.007,10e-4 -0.007,0 -0.013,0.002 -0.02,0.003 -0.008,0.001 -0.015,0.002 -0.021,0.004 -0.002,10e-4 -0.004,10e-4 -0.006,0.002 l -3.115,0.97 c -10e-4,0 -10e-4,0 -0.002,0.001 -0.002,0 -0.004,0.002 -0.007,0.002 -0.002,0.001 -0.004,0.003 -0.007,0.004 -0.002,0 -0.003,10e-4 -0.005,0.002 -0.007,0.003 -0.014,0.005 -0.02,0.009 0,0 0,0 -0.001,0 l -3.194,1.829 c -0.005,0.003 -0.009,0.007 -0.013,0.01 -0.006,0.003 -0.011,0.006 -0.016,0.01 l -3.194,2.643 c -0.002,0.002 -0.004,0.005 -0.007,0.007 -0.001,10e-4 -0.002,10e-4 -0.003,0.002 l -0.965,0.913 -0.982,0.344 -2.654,0.365 -2.97,-0.143 -3.257,-0.717 -3.648,-1.414 -3.89,-2.178 -2.852,-2.126 -3.986,-3.815 -1.74,-2.113 -3.142,-4.885 c -0.002,-0.004 -0.005,-0.007 -0.008,-0.01 -0.002,-0.004 -0.004,-0.008 -0.007,-0.011 L 39.533,27.05 C 39.532,27.048 39.53,27.046 39.528,27.045 39.527,27.043 39.525,27.04 39.523,27.038 39.52,27.035 39.516,27.032 39.512,27.029 39.507,27.024 39.502,27.02 39.497,27.016 39.495,27.014 39.493,27.012 39.491,27.011 L 37.06,25.35 C 37.057,25.348 37.053,25.346 37.049,25.344 37.044,25.34 37.038,25.337 37.032,25.334 37.03,25.333 37.027,25.331 37.024,25.33 37.02,25.328 37.016,25.327 37.011,25.326 37.008,25.324 37.005,25.323 37.001,25.321 l -2.729,-0.797 c -0.002,0 -0.005,0 -0.007,-0.001 -0.003,-0.001 -0.006,-0.002 -0.009,-0.002 -0.005,-0.001 -0.01,-0.002 -0.016,-0.003 -0.005,0 -0.01,-0.001 -0.015,-0.001 -0.003,0 -0.007,0 -0.01,0 -0.002,0 -0.004,-0.001 -0.005,-0.001 l -2.959,0.088 c -0.002,0 -0.004,0.001 -0.007,0.001 -0.005,0 -0.01,0.001 -0.015,0.002 -0.004,0 -0.009,0.001 -0.013,0.002 -0.005,10e-4 -0.009,0.002 -0.013,0.003 -0.002,0.001 -0.004,0.001 -0.007,0.002 l -3.115,0.97 c 0,0 0,0.001 -0.001,0.001 -0.002,0 -0.004,0.002 -0.006,0.002 -0.006,0.003 -0.012,0.005 -0.018,0.008 -0.005,0.002 -0.01,0.004 -0.014,0.007 0,0 -0.001,0 -0.001,0 l -3.194,1.829 c -0.001,10e-4 -0.003,0.002 -0.004,0.003 -0.001,10e-4 -0.003,0.002 -0.005,0.003 -0.003,0.002 -0.006,0.005 -0.01,0.008 -0.003,0.002 -0.007,0.004 -0.01,0.006 l -3.194,2.643 c -0.002,0.002 -0.003,0.004 -0.005,0.006 -0.004,0.004 -0.008,0.007 -0.012,0.012 0,0 -0.002,0.001 -0.002,0.001 l -3.115,3.391 c -10e-4,0.001 -10e-4,0.002 -0.002,0.004 -0.001,10e-4 -0.002,0.002 -0.003,0.004 -0.003,0.003 -0.006,0.006 -0.009,0.01 l -2.959,4.054 c 0,0 -10e-4,10e-4 -10e-4,0.002 -0.002,0.003 -0.004,0.006 -0.006,0.009 -10e-4,0.002 -0.002,0.004 -0.003,0.005 l -2.729,4.617 c -0.001,0.003 -0.002,0.006 -0.004,0.009 -10e-4,0.002 -0.003,0.005 -0.004,0.007 l -2.432,5.066 c 0,0.001 0,0.002 -10e-4,0.004 -10e-4,0.002 -0.002,0.005 -0.003,0.008 0,0.001 -10e-4,0.002 -10e-4,0.003 l -2.075,5.39 c -0.002,0.005 -0.002,0.01 -0.004,0.014 -0.002,0.008 -0.004,0.015 -0.006,0.021 -10e-4,0.007 -10e-4,0.014 -0.002,0.02 -0.001,0.007 -0.001,0.014 -0.001,0.021 0,0.006 0,0.013 0.001,0.02 0,0.006 10e-4,0.013 0.002,0.02 0.001,0.006 0.003,0.013 0.005,0.019 0.002,0.007 0.003,0.013 0.006,0.019 0.002,0.007 0.006,0.014 0.01,0.02 0.002,0.005 0.004,0.009 0.006,0.013 l 3.149,4.895 c 0,0.001 0.001,0.002 0.002,0.003 0.002,0.003 0.005,0.007 0.008,0.01 0.001,0.002 0.003,0.005 0.004,0.007 l 3.691,4.485 c 0.002,0.003 0.005,0.004 0.007,0.007 0.003,0.003 0.006,0.008 0.01,0.011 l 0,0 4.141,3.965 c 0,0 0,0 0,0 l 0,10e-4 c 0,0 0,0 0,0 0.003,0.003 0.007,0.006 0.01,0.009 0.003,0.002 0.005,0.005 0.008,0.007 l 4.49,3.348 c 10e-4,0.001 0.003,0.001 0.004,0.002 0.004,0.003 0.009,0.007 0.014,0.009 0.002,0.002 0.003,0.003 0.005,0.004 l 4.728,2.646 c 0.003,0.002 0.006,0.003 0.009,0.004 0.005,0.003 0.011,0.007 0.017,0.009 l 4.848,1.88 0,0 c 0,0 0,0 0,0 10e-4,0.001 0.003,0 0.005,0.001 0.008,0.003 0.016,0.006 0.024,0.008 l 4.848,1.066 c 0.005,10e-4 0.009,10e-4 0.014,10e-4 0.007,0.001 0.014,0.003 0.021,0.004 l 4.728,0.227 c 0.003,0 0.006,0 0.009,0 l 0,0 c 0,0 0,0 0,0 l 0,0 0,0 0,0 0,0 c 0,0 0,0 10e-4,0 0.009,0 0.018,-0.001 0.027,-0.002 l 4.49,-0.618 c 0.009,-0.001 0.017,-0.004 0.026,-0.007 0.003,0 0.006,-10e-4 0.009,-0.002 10e-4,0 0.003,0 0.005,-0.001 l 0,0 0,0 c 0,0 10e-4,0 10e-4,0 l 4.141,-1.448 c 0.014,-0.005 0.026,-0.011 0.039,-0.019 l 0,0 3.691,-2.242 c 10e-4,-0.001 0.003,-0.002 0.004,-0.003 0.004,-0.003 0.007,-0.006 0.01,-0.008 0.007,-0.005 0.014,-0.01 0.02,-0.015 0,-10e-4 10e-4,-10e-4 10e-4,-10e-4 l 3.148,-2.98 c 0.003,-0.003 0.004,-0.006 0.006,-0.009 0.013,-0.013 0.023,-0.028 0.033,-0.046 0.002,-0.006 0.006,-0.01 0.009,-0.016 0,-0.002 0.002,-0.003 0.002,-0.005 l 2.071,-5.381 2.426,-5.052 2.72,-4.601 1.294,-1.772 4.064,0.894 0,0 c 0.005,10e-4 0.01,10e-4 0.015,0.002 0.006,0.001 0.013,0.003 0.019,0.003 l 4.728,0.227 c 0.004,0 0.007,10e-4 0.01,10e-4 l 0,0 0,0 c 0,0 0,0 0.001,0 l 0,-10e-4 c 0.01,0 0.019,0 0.027,-10e-4 l 4.49,-0.619 c 0.015,-0.002 0.028,-0.005 0.041,-0.01 l 0,0 0,0 4.141,-1.448 c 0,0 0,0 0.001,0 0,0 0.001,0 0.002,-10e-4 0.013,-0.005 0.024,-0.01 0.035,-0.017 l 0,0 3.691,-2.243 c 0.007,-0.004 0.014,-0.01 0.02,-0.015 0.002,-0.001 0.004,-0.001 0.006,-0.003 10e-4,-0.001 0.002,-0.002 0.003,-0.004 0.002,-0.001 0.004,-0.002 0.006,-0.004 l 0,0 3.149,-2.981 c 0.001,-10e-4 0.002,-0.003 0.003,-0.005 0.018,-0.018 0.031,-0.037 0.041,-0.058 0.002,-0.011 0.003,-0.014 0.004,-0.017 z m -20.289,6.788 -1.72,-2.062 4.174,0.2 1.721,2.062 -4.175,-0.2 z m -5.825,1.029 -1.516,1.435 1.634,-2.238 1.515,-1.435 -1.633,2.238 z m -7.256,15.091 -2.462,2.331 1.735,-4.507 2.461,-2.331 -1.734,4.507 z m -4.111,-0.58 2.109,-4.394 3.053,-1.854 -2.109,4.394 -3.053,1.854 z m -11.867,-35.065 2.763,3.357 -1.227,-0.838 -2.763,-3.357 1.227,0.838 z m 10.135,31.601 2.408,-4.073 3.545,-1.239 -2.407,4.072 -3.546,1.24 z m -11.546,-29.52 3.729,3.57 -2.387,0.07 -3.729,-3.569 2.387,-0.071 z m 17.476,20.765 2.53,-2.754 3.326,-1.163 -2.53,2.754 -3.326,1.163 z m -7.702,4.865 2.625,-3.596 3.93,-0.542 -2.625,3.597 -3.93,0.541 z m -8.55,-21.558 4.087,3.047 -2.634,0.82 -4.086,-3.046 2.633,-0.821 z m 6.778,17.363 2.756,-2.999 4.197,0.201 -2.756,2.999 -4.197,-0.201 z m -8.536,-11.196 4.346,2.434 -2.857,2.363 -4.346,-2.433 2.857,-2.364 z m 1.909,4.978 2.834,-2.345 4.412,1.711 -2.834,2.345 -4.412,-1.711 z M 37.272,47.2 41.634,49.641 38.802,52.722 34.44,50.281 37.272,47.2 Z m 4.743,2.63 4.439,1.722 -2.819,3.067 -4.44,-1.722 2.82,-3.067 z m 4.862,1.863 4.387,0.965 -2.796,3.043 -4.387,-0.965 2.796,-3.043 z m 0.381,-0.333 2.796,-2.313 4.343,0.955 -2.796,2.313 -4.343,-0.955 z m -1.633,-4.448 2.739,-1.568 4.359,1.69 -2.739,1.567 -4.359,-1.689 z m -0.474,-0.199 -4.313,-2.414 2.782,-1.592 4.313,2.414 -2.782,1.592 z m -6.037,-7.345 4.134,3.082 -2.808,1.607 -4.134,-3.081 2.808,-1.608 z m -3.173,1.845 4.154,3.097 -2.871,2.375 -4.154,-3.097 2.871,-2.375 z m -3.175,2.656 4.162,3.103 -2.838,3.089 -4.162,-3.104 2.838,-3.088 z m -3.098,3.403 4.164,3.104 -2.718,3.725 -4.164,-3.104 2.718,-3.725 z m 4.506,3.328 4.37,2.445 -2.717,3.723 -4.369,-2.446 2.716,-3.722 z m 4.742,2.627 4.455,1.727 -2.71,3.713 -4.454,-1.727 2.709,-3.713 z m 4.861,1.86 4.413,0.971 -2.696,3.694 -4.413,-0.971 2.696,-3.694 z m 4.862,1.048 4.24,0.203 -2.672,3.659 -4.24,-0.203 2.672,-3.659 z m 9.017,-0.793 -3.856,0.531 2.682,-2.919 3.856,-0.53 -2.682,2.918 z m -5.468,-2.985 2.729,-2.257 4.123,0.198 -2.728,2.257 -4.124,-0.198 z m -1.628,-3.616 2.668,-1.527 4.255,0.937 -2.668,1.527 -4.255,-0.937 z m -1.596,-3.601 2.49,-0.775 4.237,1.643 -2.489,0.775 -4.238,-1.643 z m -0.594,-0.242 -4.237,-2.372 2.579,-0.804 4.238,2.372 -2.58,0.804 z m -5.535,-6.557 2.303,-0.068 3.964,2.955 -2.303,0.068 -3.964,-2.955 z m -4.787,-3.921 3.806,3.643 -2.671,0.832 -3.806,-3.644 2.671,-0.831 z m -3.092,0.992 3.835,3.672 -2.826,1.617 -3.835,-3.671 2.826,-1.618 z m -3.173,1.849 3.846,3.682 -2.878,2.381 -3.846,-3.682 2.878,-2.381 z m -3.175,2.661 3.847,3.684 -2.839,3.09 -3.848,-3.685 2.84,-3.089 z m -3.097,3.406 3.845,3.682 -2.716,3.722 -3.845,-3.682 2.716,-3.722 z m -2.942,4.07 3.839,3.677 -2.516,4.257 -3.84,-3.676 2.517,-4.258 z m 4.158,3.941 4.162,3.103 -2.521,4.264 -4.162,-3.103 2.521,-4.264 z m 4.504,3.323 4.372,2.447 -2.522,4.266 -4.372,-2.447 2.522,-4.266 z m 4.741,2.624 4.462,1.729 -2.519,4.262 -4.462,-1.73 2.519,-4.261 z m 4.861,1.858 4.429,0.974 -2.511,4.248 -4.429,-0.974 2.511,-4.248 z m 4.86,1.044 4.267,0.205 -2.495,4.22 -4.267,-0.204 2.495,-4.221 z m 4.74,0.207 3.975,-0.548 -2.464,4.169 -3.975,0.548 2.464,-4.169 z m 4.916,-1.216 2.535,-3.474 3.465,-1.211 -2.536,3.474 -3.464,1.211 z m 9.795,-8.324 2.438,-1.481 -2.122,2.31 -2.438,1.481 2.122,-2.31 z m 8.152,-4.443 -1.609,0.048 2.868,-1.003 1.609,-0.048 -2.868,1.003 z m -1.708,1.41 -1.275,-0.372 0.226,-0.245 2.78,-0.383 1.772,0.518 -3.503,0.482 z m 4.47,-0.625 -2.057,-0.6 3.48,-1.218 2.057,0.601 -3.48,1.217 z m 4.118,-1.455 -2.199,-0.642 3.22,-1.956 2.199,0.643 -3.22,1.955 z m -2.76,-0.778 -2.134,0.063 2.986,-1.813 2.133,-0.063 -2.985,1.813 z m -2.983,0.103 -1.504,0.469 2.249,-1.367 1.504,-0.468 -2.249,1.366 z m -5.853,3.223 -1.276,0.776 1.022,-0.847 0.917,-0.557 -0.663,0.628 z m -3.668,2.226 -3.034,1.061 2.29,-1.895 3.034,-1.061 -2.29,1.895 z m -4.126,1.434 -3.723,0.513 2.597,-2.148 3.724,-0.513 -2.598,2.148 z m -5.231,-2.226 2.537,-1.453 3.971,0.191 -2.537,1.452 -3.971,-0.19 z m -1.567,-2.76 2.33,-0.726 4.045,0.89 -2.33,0.726 -4.045,-0.89 z m -1.514,-2.642 1.912,-0.057 3.871,1.501 -1.912,0.057 -3.871,-1.501 z m -0.962,-0.379 -4.035,-2.26 2.166,-0.064 4.036,2.26 -2.167,0.064 z m -5.281,-5.364 1.609,0.47 3.554,2.649 -1.608,-0.47 -3.555,-2.649 z m -0.923,-0.694 -3.504,-3.354 1.881,0.55 3.504,3.354 -1.881,-0.55 z m -5.327,-7.294 3.231,3.927 -2.034,-0.594 -3.231,-3.927 2.034,0.594 z m -2.706,-0.769 3.364,4.088 -2.444,0.072 -3.363,-4.087 2.443,-0.073 z m -2.935,0.117 3.412,4.146 -2.695,0.839 -3.412,-4.146 2.695,-0.839 z m -3.092,0.998 3.428,4.166 -2.835,1.624 -3.428,-4.167 2.835,-1.623 z m -3.174,1.853 3.432,4.171 -2.88,2.383 -3.432,-4.171 2.88,-2.383 z m -3.175,2.665 3.43,4.168 -2.837,3.087 -3.43,-4.168 2.837,-3.087 z m -3.097,3.412 3.424,4.16 -2.711,3.714 -3.424,-4.16 2.711,-3.714 z m -2.941,4.075 3.416,4.15 -2.509,4.244 -3.416,-4.15 2.509,-4.244 z m -2.712,4.639 3.406,4.14 -2.238,4.66 -3.405,-4.139 2.237,-4.661 z m 3.708,4.452 3.832,3.669 -2.247,4.679 -3.832,-3.669 2.247,-4.679 z m 4.157,3.935 4.158,3.1 -2.252,4.691 -4.158,-3.099 2.252,-4.692 z m 4.504,3.32 4.371,2.446 -2.255,4.698 -4.371,-2.446 2.255,-4.698 z m 4.739,2.62 4.467,1.732 -2.255,4.697 -4.467,-1.732 2.255,-4.697 z m 4.86,1.856 4.439,0.977 -2.251,4.688 -4.439,-0.977 2.251,-4.688 z m 4.859,1.042 4.286,0.206 -2.241,4.667 -4.286,-0.205 2.241,-4.668 z m 4.738,0.204 4.006,-0.552 -2.22,4.626 -4.006,0.552 2.22,-4.626 z m 4.502,-0.641 3.599,-1.259 -2.183,4.548 -3.6,1.258 2.184,-4.547 z m 4.584,-2.209 2.289,-3.873 2.953,-1.794 -2.29,3.873 -2.952,1.794 z m 2.906,-4.724 2.333,-3.197 2.784,-1.691 -2.333,3.197 -2.784,1.691 z m 9.639,-8.171 -0.43,-0.294 0.761,-0.828 1.83,0.088 1.789,1.224 -3.95,-0.19 z m 4.71,0.214 -1.931,-1.319 3.889,-0.536 1.932,1.319 -3.89,0.536 z m 4.47,-0.632 -2.015,-1.376 3.664,-1.281 2.015,1.376 -3.664,1.281 z m 4.119,-1.464 -2.063,-1.409 3.309,-2.011 2.063,1.409 -3.309,2.011 z m 3.664,-2.261 -2.088,-1.427 2.846,-2.694 2.088,1.427 -2.846,2.694 z m -2.467,-1.63 -2.275,-0.664 2.806,-2.656 2.276,0.664 -2.807,2.656 z m -2.758,-0.769 -2.347,0.069 2.704,-2.56 2.347,-0.069 -2.704,2.56 z m -2.98,0.108 -2.231,0.695 2.477,-2.345 2.231,-0.695 -2.477,2.345 z m -3.132,0.986 -1.694,0.97 1.894,-1.792 1.694,-0.97 -1.894,1.792 z m -6.85,4.051 -2.033,0.711 1.257,-0.72 1.863,-0.651 -1.087,0.66 z m -4.122,1.438 -3.41,0.47 2.248,-1.287 3.41,-0.47 -2.248,1.287 z m -4.796,-1.39 1.98,-0.616 3.54,0.169 -1.98,0.617 -3.54,-0.17 z m 1.973,-1.026 -3.214,-0.707 1.287,-0.038 3.215,0.707 -1.288,0.038 z M 54.5,43.871 51.357,42.112 52.342,42.4 55.485,44.159 54.5,43.871 Z m -6.439,-5.166 -2.341,-2.242 0.374,0.256 2.342,2.242 -0.375,-0.256 z m -8.828,-11.38 2.583,4.014 -1.567,-1.071 -2.583,-4.014 1.567,1.071 z m 0.399,2.739 -2.132,-0.623 -2.813,-4.371 2.133,0.622 2.812,4.372 z m -5.52,-5.135 2.891,4.494 -2.483,0.074 -2.891,-4.495 2.483,-0.073 z m -2.938,0.121 2.92,4.539 -2.711,0.845 -2.92,-4.539 2.711,-0.845 z m -3.094,1.003 2.928,4.551 -2.84,1.626 -2.928,-4.551 2.84,-1.626 z m -3.174,1.859 2.926,4.549 -2.878,2.381 -2.927,-4.55 2.879,-2.38 z m -3.176,2.671 2.921,4.54 -2.83,3.079 -2.921,-4.54 2.83,-3.079 z m -3.097,3.418 2.912,4.526 -2.701,3.701 -2.912,-4.527 2.701,-3.7 z m -2.941,4.081 2.902,4.511 -2.497,4.225 -2.902,-4.511 2.497,-4.225 z m -2.711,4.646 2.89,4.492 -2.225,4.635 -2.89,-4.492 2.225,-4.635 z m -2.412,5.097 2.876,4.47 -1.894,4.918 -2.875,-4.469 1.893,-4.919 z m 3.168,4.846 3.394,4.124 -1.907,4.953 -3.394,-4.124 1.907,-4.953 z m 3.706,4.445 3.823,3.66 -1.916,4.978 -3.823,-3.66 1.916,-4.978 z m 4.156,3.931 4.151,3.094 -1.923,4.995 -4.151,-3.095 1.923,-4.994 z m 4.502,3.315 4.369,2.445 -1.927,5.006 -4.368,-2.445 1.926,-5.006 z m 4.739,2.618 4.468,1.731 -1.929,5.01 -4.467,-1.732 1.928,-5.009 z m 4.858,1.853 4.445,0.978 -1.927,5.005 -4.445,-0.978 1.927,-5.005 z m 4.858,1.04 4.299,0.206 -1.92,4.989 -4.299,-0.206 1.92,-4.989 z m 4.737,0.201 4.029,-0.555 -1.908,4.955 -4.029,0.555 1.908,-4.955 z m 4.499,-0.642 3.638,-1.271 -1.883,4.891 -3.638,1.271 1.883,-4.891 z m 4.151,-1.472 3.121,-1.896 -1.835,4.767 -3.121,1.896 1.835,-4.767 z m 6.508,-5.483 -2.32,2.196 1.938,-4.037 2.32,-2.196 -1.938,4.037 z m 2.439,-5.072 -2.074,1.963 1.977,-3.344 2.073,-1.963 -1.976,3.344 z m 13.273,-5.445 -1.767,-2.116 4.015,-0.553 1.767,2.116 -4.015,0.553 z m 4.473,-0.64 -1.796,-2.151 3.731,-1.305 1.796,2.151 -3.731,1.305 z m 4.12,-1.474 -1.811,-2.17 3.339,-2.028 1.811,2.17 -3.339,2.028 z m 3.665,-2.275 -1.813,-2.172 2.853,-2.7 1.813,2.172 -2.853,2.7 z m -21.209,-0.097 -2.031,0.28 0.748,-0.233 1.896,-0.261 -0.613,0.214 z m 1.309,2.033 0.645,0.143 1.648,1.975 -3.308,-0.728 1.015,-1.39 z"
         id="path4400" />
    </g>
  </g>
</svg>
