<?xml version="1.0" encoding="utf-8"?>
<!-- Generator: Adobe Illustrator 15.1.0, SVG Export Plug-In . SVG Version: 6.00 Build 0)  -->
<!DOCTYPE svg PUBLIC "-//W3C//DTD SVG 1.1//EN" "http://www.w3.org/Graphics/SVG/1.1/DTD/svg11.dtd">
<svg version="1.1" id="Layer_1" xmlns="http://www.w3.org/2000/svg" xmlns:xlink="http://www.w3.org/1999/xlink" x="0px" y="0px"
	 width="16px" height="16px" viewBox="0 0 16 16" enable-background="new 0 0 16 16" xml:space="preserve">
<g>
	<path fill="#010101" d="M8,6.85c-0.636,0-1.15,0.515-1.15,1.149c0,0.636,0.515,1.15,1.15,1.15c0.635,0,1.151-0.515,1.151-1.15
		C9.15,7.364,8.634,6.85,8,6.85z"/>
	<path fill="#010101" d="M13.992,7.453c-0.26-2.884-2.563-5.187-5.446-5.447V0.5H7.453v1.506C4.569,2.267,2.267,4.569,2.005,7.453
		H0.5v1.093h1.506c0.262,2.884,2.563,5.186,5.448,5.447V15.5h1.093v-1.507c2.883-0.262,5.186-2.563,5.446-5.447H15.5V7.453H13.992z
		 M12.895,8.546c-0.254,2.281-2.068,4.096-4.348,4.349v-1.971H7.453v1.971c-2.28-0.253-4.096-2.067-4.349-4.349h1.971V7.453H3.104
		c0.253-2.28,2.069-4.096,4.349-4.349v1.971h1.093V3.104c2.28,0.253,4.094,2.068,4.348,4.349h-1.971v1.093H12.895z"/>
</g>
</svg>
