<?xml version="1.0" encoding="utf-8"?>
<!-- Generator: Adobe Illustrator 15.1.0, SVG Export Plug-In . SVG Version: 6.00 Build 0)  -->
<!DOCTYPE svg PUBLIC "-//W3C//DTD SVG 1.1//EN" "http://www.w3.org/Graphics/SVG/1.1/DTD/svg11.dtd">
<svg version="1.1" id="Layer_1" xmlns="http://www.w3.org/2000/svg" xmlns:xlink="http://www.w3.org/1999/xlink" x="0px" y="0px"
	 width="16px" height="16px" viewBox="0 0 16 16" enable-background="new 0 0 16 16" xml:space="preserve">
<g>
	<path fill="#010101" d="M12.059,3.542l0.363-0.543l0.274,0.179c0.063,0.041,0.133,0.06,0.203,0.06c0.123,0,0.242-0.06,0.313-0.171
		c0.11-0.172,0.063-0.403-0.11-0.516l-1.168-0.755c-0.173-0.111-0.404-0.062-0.516,0.11c-0.112,0.174-0.063,0.405,0.109,0.517
		l0.267,0.171l-0.353,0.528c-0.805-0.486-1.719-0.808-2.697-0.917V1.61c0-0.052-0.006-0.106-0.015-0.162h0.117
		c0.391,0,0.708-0.565,0.739-0.948H6.412c0.031,0.383,0.349,0.948,0.74,0.948h0.116c-0.01,0.056-0.015,0.11-0.015,0.162v0.595
		C3.921,2.576,1.332,5.399,1.331,8.831c0,3.683,2.985,6.668,6.668,6.669c3.684-0.001,6.668-2.986,6.67-6.669
		C14.667,6.675,13.646,4.761,12.059,3.542z M7.999,14.007c-2.858-0.006-5.171-2.317-5.176-5.176
		c0.005-2.858,2.318-5.172,5.176-5.177c2.857,0.005,5.171,2.318,5.175,5.177C13.17,11.689,10.856,14.001,7.999,14.007z"/>
	<path fill="#010101" d="M7.939,4.925C7.617,4.928,7.359,5.149,7.361,5.42L7.004,9.784c0.003,0.268,0.679,0.48,1.001,0.476
		c0.322-0.005,0.993-0.23,0.989-0.502L8.528,5.405C8.525,5.136,8.261,4.92,7.939,4.925z"/>
</g>
</svg>
