<?xml version="1.0" encoding="utf-8"?>
<!-- Generator: Adobe Illustrator 15.1.0, SVG Export Plug-In . SVG Version: 6.00 Build 0)  -->
<!DOCTYPE svg PUBLIC "-//W3C//DTD SVG 1.1//EN" "http://www.w3.org/Graphics/SVG/1.1/DTD/svg11.dtd">
<svg version="1.1" id="Layer_1" xmlns="http://www.w3.org/2000/svg" xmlns:xlink="http://www.w3.org/1999/xlink" x="0px" y="0px"
	 width="16px" height="16px" viewBox="0 0 16 16" enable-background="new 0 0 16 16" xml:space="preserve">
<path fill="#010101" d="M15.5,3.123c0-0.814-0.66-1.474-1.474-1.474c-0.814,0-1.475,0.66-1.475,1.474
	c0,0.639,0.407,1.181,0.976,1.385v1.985V6.5c0,0.522-0.478,1-1,1H8.498V4.508c0.568-0.205,0.976-0.747,0.976-1.385
	c0-0.814-0.66-1.474-1.474-1.474c-0.814,0-1.474,0.66-1.474,1.474c0,0.639,0.407,1.181,0.976,1.385V7.5h-5.03V4.508
	C3.04,4.304,3.448,3.762,3.448,3.123c0-0.814-0.66-1.474-1.474-1.474S0.5,2.309,0.5,3.123c0,0.639,0.407,1.181,0.976,1.385v6.982
	C0.907,11.695,0.5,12.238,0.5,12.877c0,0.814,0.66,1.475,1.474,1.475c0.813,0,1.474-0.66,1.474-1.475
	c0-0.639-0.407-1.182-0.976-1.387V8.5h5.029v2.99c-0.568,0.205-0.976,0.748-0.976,1.387c0,0.814,0.66,1.475,1.474,1.475
	c0.813,0,1.474-0.66,1.474-1.475c0-0.639-0.407-1.182-0.976-1.387V8.5h4.029c1.092,0,2-0.915,2-2.007h-0.003V4.508
	C15.093,4.304,15.5,3.762,15.5,3.123z M8,2.459c0.366,0,0.663,0.297,0.663,0.664c0,0.366-0.297,0.663-0.663,0.663
	c-0.367,0-0.664-0.297-0.664-0.663C7.336,2.756,7.633,2.459,8,2.459z M1.974,2.459c0.366,0,0.663,0.297,0.663,0.664
	c0,0.366-0.297,0.663-0.663,0.663c-0.367,0-0.664-0.297-0.664-0.663C1.31,2.756,1.607,2.459,1.974,2.459z M1.974,13.541
	c-0.367,0-0.664-0.299-0.664-0.664c0-0.367,0.297-0.664,0.664-0.664c0.366,0,0.663,0.297,0.663,0.664
	C2.637,13.242,2.34,13.541,1.974,13.541z M8,13.541c-0.367,0-0.664-0.299-0.664-0.664c0-0.367,0.297-0.664,0.664-0.664
	c0.366,0,0.663,0.297,0.663,0.664C8.663,13.242,8.366,13.541,8,13.541z M14.026,2.459c0.366,0,0.663,0.297,0.663,0.664
	c0,0.366-0.297,0.663-0.663,0.663c-0.367,0-0.664-0.297-0.664-0.663C13.362,2.756,13.659,2.459,14.026,2.459z"/>
</svg>
