<?xml version="1.0" encoding="utf-8"?>
<!-- Generator: Adobe Illustrator 15.1.0, SVG Export Plug-In . SVG Version: 6.00 Build 0)  -->
<!DOCTYPE svg PUBLIC "-//W3C//DTD SVG 1.1//EN" "http://www.w3.org/Graphics/SVG/1.1/DTD/svg11.dtd">
<svg version="1.1" id="Layer_1" xmlns="http://www.w3.org/2000/svg" xmlns:xlink="http://www.w3.org/1999/xlink" x="0px" y="0px"
	 width="16px" height="16px" viewBox="0 0 16 16" enable-background="new 0 0 16 16" xml:space="preserve">
<path fill="#010101" d="M13.008,0.625c-0.167-0.166-0.435-0.166-0.584,0L0.831,12.235l0,0l0,0l-0.2,0.2
	c-0.1,0.1-0.15,0.267-0.1,0.398l0.5,1.866c0.017,0.134,0.133,0.251,0.267,0.284l1.866,0.498C3.196,15.5,3.229,15.5,3.262,15.5
	c0.117,0,0.217-0.051,0.3-0.116l2.465-2.466l0,0l0,0l9.344-9.345c0.084-0.083,0.117-0.183,0.117-0.3c0-0.116-0.05-0.216-0.117-0.3
	L13.008,0.625z M7.793,8.454c0.383,0.134,0.784,0.266,1.166,0.35l-1.282,1.283c-0.35,0.35-0.966,0.166-1.882-0.15
	C5.412,9.803,5.012,9.67,4.628,9.587l1.282-1.283C6.277,7.954,6.894,8.138,7.793,8.454z M5.428,12.336
	c-0.35,0.349-0.966,0.165-1.865-0.15c-0.383-0.134-0.783-0.267-1.166-0.351l1.282-1.282c0.35-0.35,0.966-0.166,1.883,0.15
	c0.383,0.133,0.783,0.266,1.166,0.35L5.428,12.336z M3.146,14.617l-1.399-0.366L1.38,12.852l0.033-0.032l0,0
	c0.351-0.352,0.967-0.168,1.866,0.149c0.383,0.132,0.783,0.266,1.166,0.35L3.146,14.617z M9.958,7.821
	c-0.348,0.35-0.966,0.166-1.882-0.15C7.693,7.538,7.293,7.405,6.91,7.321l5.813-5.813l1.767,1.766L9.958,7.821z"/>
</svg>
