<?xml version="1.0" encoding="utf-8"?><!DOCTYPE svg PUBLIC "-//W3C//DTD SVG 1.1//EN" "http://www.w3.org/Graphics/SVG/1.1/DTD/svg11.dtd"><svg width="54" height="1659" viewBox="0 0 54 1659" xmlns="http://www.w3.org/2000/svg" xmlns:xlink="http://www.w3.org/1999/xlink"><svg width="22" height="22" viewBox="-3 -3 22 22" id="cancel"><path fill="#010202" d="M13.5 4.857L11.144 2.5 8 5.644 4.857 2.5 2.5 4.856 5.644 8 2.5 11.143 4.857 13.5l3.144-3.144 3.143 3.144 2.356-2.357L10.357 8z"/></svg><svg width="22" height="22" viewBox="-3 -3 22 22" id="carving" y="22"><path d="M15.453 4.087c-.952-1.904-3.692-2.74-5.597-2.276-1.904.465-3.785.28-5.225-1.81 0 0-.58 1.392.326 2.786 0 0-1.162.093-1.742.023 0 0 .255 1.608 2.244 2.482a4.186 4.186 0 0 0-1.85.304C1.358 6.526-.732 8.22.336 11.96c0 0 .767 2.601 3.878 2.206 3.112-.394 3.971.302 4.46 1.835 0 0 1.16-1.347.162-2.694 0 0 .487-.302 1.37-.255 0 0-2.183-2.346-4.39-2.067-2.205.279-3.924 1.068-4.342.371 0 0 1.603-1.95 5.597-.557 3.994 1.393 7.106.232 7.942-1.347.836-1.579 1.393-3.46.44-5.364zm-4.356 0l1.624-1.624c.122.063.235.132.34.206l-1.475 1.475a3.61 3.61 0 0 0-.49-.057zm-.192-.01a5.5 5.5 0 0 0-.795.051l1.93-1.93c.197.053.38.118.549.195l-1.684 1.684zm-1.034.094a4.93 4.93 0 0 0-1.044.358l2.455-2.455c.212.016.411.046.599.087l-2.01 2.01zm1.1.38c1.765.255 2.23 1.649 2.23 1.649s-.976.929-3.09.394c-.91-.23-1.824-.619-2.75-.913 1.494-.113 2.207-1.333 3.61-1.13zm1.843.137L13.87 3.63c.077.168.132.342.165.52l-.873.874a2.59 2.59 0 0 0-.348-.337zm-.112-.085a2.56 2.56 0 0 0-.372-.221l1.24-1.24c.09.113.17.233.235.357l-1.103 1.104zm1.36-.28c.02.19.018.384-.008.576l-.578.578a2.698 2.698 0 0 0-.225-.344l.81-.81zm-.052.817c-.066.274-.18.541-.341.79 0 0-.034-.13-.126-.323l.467-.467zm-.53-2.105L12.194 4.32a2.866 2.866 0 0 0-.447-.146l1.426-1.425c.112.089.214.185.305.286zm-2.384-.972L8.478 4.681c-.28.116-.571.211-.94.244l2.844-2.845c.251-.02.489-.026.714-.017zm-.933.04L7.329 4.934a4.63 4.63 0 0 1-.903-.084l2.577-2.576c.218-.025.446-.058.685-.102.163-.03.321-.053.475-.07zm-4.668.591l.684-.684c.173.067.366.127.579.177l-.903.902a2.591 2.591 0 0 1-.36-.395zm-.523-1.01l.241-.24c.091.078.2.16.326.243l-.405.404a3.84 3.84 0 0 1-.162-.406zm.228.54l.461-.462c.113.066.239.13.379.19l-.627.627a3.422 3.422 0 0 1-.213-.356zm1.72 0c.185.036.385.065.601.083L5.314 4.514a3.048 3.048 0 0 1-.44-.246L6.92 2.223zM5.11 1.35l-.186.186A4.375 4.375 0 0 1 4.8.974s.089.163.311.377zm-1.1 1.904s.263.055.669.06l-.394.394c-.139-.188-.217-.353-.275-.453zm.362.563l.506-.505c.256-.01.553-.039.867-.113l-.985.986a2.385 2.385 0 0 1-.388-.368zm1.079.756L7.705 2.32c.326.018.684.013 1.079-.022L6.262 4.82a4.664 4.664 0 0 1-.811-.246zM.958 11.618c.101.106.203.194.306.267l-.135.135a2.48 2.48 0 0 1-.17-.402zm1.257 1.591a2.778 2.778 0 0 1-.344-.248l.842-.842c.271-.057.551-.148.842-.25l-1.34 1.34zm1.644-1.447a9.285 9.285 0 0 1 1.081-.325l-2.065 2.065a2.84 2.84 0 0 1-.534-.221l1.518-1.519zm.703 1.806l2.136-2.137c.216.05.421.113.615.187l-1.797 1.797a5.4 5.4 0 0 0-.712.107 4.732 4.732 0 0 1-.242.046zm1.163-.165l1.73-1.729c.147.061.287.128.419.196l-1.556 1.556a3.892 3.892 0 0 0-.593-.024zm2.698.147l-.54.54a2.722 2.722 0 0 0-.285-.214l.607-.607c.085.091.157.185.218.281zm-.947.251a2.836 2.836 0 0 0-.419-.197l.7-.7c.133.084.249.173.35.267l-.631.63zm.34-.955l.632-.633c.14.095.259.184.355.26l-.19.191c-.433-.01-.685.111-.798.182zm-.905.707a3.061 3.061 0 0 0-.422-.101l1.513-1.513c.117.065.226.131.327.196l-1.418 1.418zm1.077.63l.508-.508c.08.15.133.3.17.446l-.386.385a2.825 2.825 0 0 0-.292-.323zm.677 1.003s-.082-.252-.301-.567l.335-.335c.081.5-.034.902-.034.902zm.134-2.511l.113-.113c.112.094.173.153.173.153a3.052 3.052 0 0 0-.286-.04zm-2.264-1.277L4.331 13.6c-.22.027-.428.036-.622.03l2.294-2.294c.182.01.36.029.532.06zm-.725-.064l-2.288 2.288a3.163 3.163 0 0 1-.491-.078l2.154-2.155c.159-.027.32-.045.486-.053h.139zm-3.334.826l-.71.709a2.958 2.958 0 0 1-.274-.295l.42-.419c.183.031.371.029.564 0zm-.726-.041l-.345.344a3.209 3.209 0 0 1-.207-.315l.186-.186c.12.071.242.122.366.157zm5.863-1.71c-4.667-1.612-6.949.687-6.949.687-.12-.618-.12-1.459-.12-1.459C.58 8.06 2.57 4.594 8.367 6.584c5.8 1.99 6.863-1.853 6.863-1.853.188.309.309 1.475.309 1.475.617 3.225-3.26 5.816-7.926 4.203z"/></svg><svg width="22" height="22" viewBox="-3 -3 22 22" id="command" y="44"><g fill="#010101"><path d="M12.999 2.5H3A1.5 1.5 0 0 0 1.5 4v8.002A1.5 1.5 0 0 0 3 13.501h10c.828 0 1.501-.673 1.501-1.499V4a1.503 1.503 0 0 0-1.502-1.5zm.501 9.502a.503.503 0 0 1-.501.499H3a.503.503 0 0 1-.5-.499V5.001h11v7.001z"/><path d="M7.999 10a.501.501 0 0 1 0-1h2.5c.274 0 .501.226.501.499a.503.503 0 0 1-.502.501H7.999zM4.975 6.5H3.699L5.45 8.25 3.699 10h1.276l1.75-1.75z"/></g></svg><svg width="54" height="54" viewBox="-3 -3 54 54" id="device" y="66"><path fill="#010202" d="M47 24.747l-10.11-4.394v3.142H16.747l4.989-6.635h3.181c.54 1.634 2.048 2.819 3.857 2.819 2.266 0 4.096-1.834 4.096-4.071a4.082 4.082 0 0 0-4.096-4.085c-1.809 0-3.317 1.185-3.857 2.818h-4.449l-6.875 9.153H12.11a5.631 5.631 0 0 0-5.501-4.383C3.535 19.112 1 21.634 1 24.747a5.622 5.622 0 0 0 5.608 5.62 5.616 5.616 0 0 0 5.501-4.365h6.686l5.878 8.504h3.883v1.971h6.475v-6.445h-6.475v1.953h-2.535l-4.152-5.969H36.89v3.142L47 24.747z"/></svg><svg width="22" height="22" viewBox="-3 -3 22 22" id="devices" y="120"><path fill="#010202" d="M16 8.26l-3.517-1.528v1.093H5.477l1.735-2.308h1.106c.188.568.712.98 1.341.98.788 0 1.425-.638 1.425-1.416A1.42 1.42 0 0 0 9.659 3.66c-.629 0-1.154.412-1.341.98H6.771L4.38 7.824h-.516A1.958 1.958 0 0 0 1.951 6.3 1.96 1.96 0 0 0 0 8.26c0 1.084.882 1.955 1.951 1.955.938 0 1.716-.646 1.914-1.519H6.19l2.044 2.958h1.351v.686h2.252v-2.242H9.585v.68h-.882L7.259 8.701h5.225v1.093L16 8.26z"/></svg><svg viewBox="-3 -3 42 42" width="42" height="42" id="down" y="142"><path stroke="#000" stroke-width="1.8771754299999999" d="M18 26.481L2.247 11.414l1.786-1.867L18 22.905 31.967 9.547l1.786 1.867z"/></svg><svg width="22" height="22" viewBox="629 389 22 22" id="edit" y="184"><title>pencil</title><path fill="#010101" d="M645.121 394.879c-.586-.586-1.353-.879-2.121-.879s-1.535.293-2.121.879l-6.867 6.867L634 406h4.242l6.879-6.879a2.998 2.998 0 0 0 0-4.242zm-7.5 9.621h-.016a1.514 1.514 0 0 0 0-2.133 1.49 1.49 0 0 0-2.037-.055l6.359-6.358 2.121 2.121-6.427 6.425z"/></svg><svg width="22" height="22" viewBox="-3 -3 22 22" id="engrave" y="206"><g transform="matrix(.17391 0 0 .17391 -.696 -.904)"><path d="M75 38.5c6.1 3.6 8.8 9.2 9.6 16.3 0 .4-.5.6-.8.4-2.6-1.9-4.3-4.9-6.8-6.9-2.4-2-4.8-4.6-8-5.1.9 4.7 1.3 9.6 1.2 14.4-.1 3.1-.7 5.9-1.9 8.6 7.5.6 13.9 1.5 18.6 2.7V27.3H13.1v44.4c3.7-2.8 15.4-5 30.2-5.7-.3-1.1-.5-2.2-.5-3.3-.1-3 .2-6.1.7-9.1-2 .3-3.5 1.9-5 3.2-1.5 1.3-2.6 3.2-4.2 4.4-.2.1-.5-.1-.5-.3.5-4.5 2.2-8 6-10.2-1.2-.7-2.4-.7-3.8-.6-.6 0-1.9.4-2.4 0-.2-.1-.2-.4 0-.5 3.3-1.8 7.1-2.6 10.6-1.2.4-.9.3-2.1.3-3 0-.2.2-.4.5-.3 1.3.6 2.1 2 2.3 3.4.5-.2 1.1-.3 1.7-.4 2.1-3.3 4.8-6.2 8.1-8.1-3.9-.3-7.3 1.2-10.4 3.7-.4.3-1 0-.8-.5 1.9-6.6 11-10.3 17.3-8.1.3-2.2 1.5-4.3 3.6-5.4.4-.2.7 0 .8.4.1 1.5 0 3.4.5 4.8 5.6-2.2 11.7-.9 17 1.9.2.1.2.3.2.4 0 .2-.1.4-.2.4-.9.6-2.9.1-3.9 0-2.3 0-4.3 0-6.2.9zm-23.9 13c3 1.7 5.3 4.8 6.6 8 .1.3-.3.5-.5.3-1.3-1.1-2.7-2.1-4.1-3.1-1.7-1.2-3.9-2.9-6.1-3.1h-.3c-.5 2.9-.4 6 .3 8.8.3 1.1.8 2.2 1.4 3.3 1.6 0 3.3-.1 5-.1 2.1 0 4.2 0 6.3.1 1.7-2.6 3.3-5.3 4.1-8.3 1.1-4.6 1.2-9.4.5-14.1-3.6 0-7.4 3-10.2 4.9-.2.1-.4.3-.6.4 2.2.9 4.2 2.6 4.8 4.8.1.3-.3.5-.5.3-2.1-1.4-4.3-2.4-6.7-2.2zM96 73.6v9.6H4v-64h92v54.4z"/><path d="M26.6 33.4c3.6 0 6.6 3 6.6 6.6 0 3.6-2.9 6.6-6.6 6.6-3.7 0-6.6-3-6.6-6.6 0-3.7 3-6.6 6.6-6.6z"/></g></svg><svg width="22" height="22" viewBox="-3 -3 22 22" id="engrave-halftone" y="228"><g transform="matrix(.16028 0 0 .16028 5.882 -160.984)"><path d="M-2.542 1059.148c-4.865-3.952 3.366-10.003 5.36-6.366 3.805 4.638-3.4 9.942-5.36 6.366zM-5.225 1069.968c-4.423-3.802 3.195-9.312 5.073-5.885 3.585 4.311-3.215 9.274-5.073 5.885zM5.258 1067.418c-5.47-4.306 3.649-11.016 5.8-7.091 4.188 5.143-3.705 10.935-5.8 7.09zM2.864 1077.412c-4.198-3.67 3.084-8.951 4.914-5.62 3.439 4.133-3.096 8.93-4.914 5.62zM6.519 1082.505c2.982 3.415-2.71 7.502-4.3 4.603-3.287-3.214 2.703-7.516 4.3-4.603zM6.567 1092.066c1.346 2.377-1.941 5.26-3.248 2.89-2.16-2.09 1.998-5.168 3.248-2.89zM15.58 1088.357c1.851 2.547-2.096 5.498-3.402 3.134-2.187-2.407 2.129-5.472 3.402-3.134zM17.343 1095.356c.663 1.711-1.531 3.858-2.63 1.868-.45-1.565 1.45-4.008 2.63-1.868zM16.113 1078.634c3.16 3.572-2.811 7.841-4.446 4.858-3.505-3.343 2.796-7.866 4.446-4.858zM23.343 1083.734c2.176 2.872-2.305 6.217-3.712 3.651-2.611-2.633 2.31-6.21 3.712-3.65zM26.661 1090.806c1.847 2.549-2.1 5.52-3.407 3.153-2.206-2.408 2.134-5.49 3.407-3.153zM-3.874 1087.198c1.23 2.26-1.876 4.977-3.136 2.684-1.935-2.078 1.945-4.854 3.136-2.684zM-12.057 1080.048c2.145 2.853-2.303 6.193-3.704 3.64-2.626-2.632 2.308-6.187 3.704-3.64zM-18.802 1070.687c2.54 2.99-2.44 6.567-3.876 3.929-2.759-2.843 2.423-6.58 3.876-3.929zM-24.203 1063.08c1.218 2.24-1.853 4.943-3.109 2.665-1.92-2.06 1.932-4.813 3.11-2.666zM-14.111 1072.712c-3.186-3.1 2.619-7.271 4.18-4.423 2.867 3.286-2.617 7.258-4.18 4.423zM-6.362 1080.326c-3.306-3.22 2.7-7.516 4.299-4.604 2.982 3.413-2.704 7.507-4.299 4.604zM-12.142 1061.783c-3.531-3.356 2.816-7.88 4.452-4.877 3.158 3.58-2.815 7.864-4.452 4.877zM-20.231 1063.956c-2.505-2.57 2.27-6.014 3.627-3.519 2.078 2.785-2.265 6.022-3.627 3.52zM-26.49 1056.11c-2.186-2.394 2.12-5.473 3.399-3.14 1.84 2.54-2.102 5.494-3.4 3.14zM-27.2 1047.497c.98 1.983-1.725 4.342-2.862 2.255-1.535-1.93 1.787-4.217 2.862-2.255zM-18.756 1052.7c-2.63-2.628 2.304-6.198 3.704-3.644 2.14 2.847-2.292 6.204-3.704 3.644zM-20.992 1042.259c1.947 2.642-2.165 5.708-3.492 3.287-2.302-2.462 2.166-5.694 3.492-3.287zM-5.217 1045.184c3.37 4.029-3.042 8.704-4.813 5.474-4.07-3.581 3.023-8.74 4.813-5.474zM13.699 1074.675c-4.849-3.936 3.355-9.956 5.34-6.337 3.789 4.62-3.39 9.897-5.34 6.337zM22.367 1079.771c-3.518-3.35 2.8-7.887 4.453-4.872 3.178 3.587-2.829 7.853-4.453 4.872zM33.61 1081.915c3.008 3.432-2.713 7.545-4.304 4.643-3.328-3.226 2.702-7.567 4.304-4.643zM37.19 1089.615c.958 1.955-1.684 4.248-2.823 2.184-1.468-1.903 1.775-4.106 2.823-2.184zM-22.1 1027.257c-.763-.244 1.049-3.665 2.311-1.346.057 1.08-1.185 3.4-2.311 1.346zM-27.776 1038.362c-.469-1.583 1.47-4.03 2.636-1.888.662 1.713-1.54 3.888-2.636 1.888zM-12.199 1037.816c2.67 3.11-2.517 6.864-4.013 4.134-2.929-2.953 2.513-6.872 4.013-4.134zM-21.274 1034.72c-2.18-2.395 2.12-5.472 3.398-3.14 1.857 2.55-2.119 5.49-3.398 3.14zM-2.498 1035.123c2.987 3.416-2.71 7.513-4.295 4.621-3.31-3.216 2.705-7.522 4.295-4.62zM-.148 1048c-4.4-3.793 3.184-9.303 5.065-5.871 3.595 4.302-3.21 9.257-5.065 5.872zM13.119 1049.582c3.767 4.558-3.352 9.762-5.282 6.24-4.76-3.891 3.313-9.833 5.282-6.24zM21.642 1057.478c3.948 4.807-3.505 10.286-5.513 6.619-5.085-4.075 3.459-10.367 5.513-6.619zM30.054 1065.336c3.444 4.121-3.097 8.9-4.905 5.607-4.184-3.661 3.086-8.926 4.905-5.607zM37.563 1072.783c3.156 3.567-2.8 7.855-4.444 4.86-3.513-3.348 2.796-7.866 4.444-4.86zM42.987 1080.91c1.446 2.493-2.025 5.5-3.355 3.058-2.3-2.17 2.072-5.413 3.355-3.058zM51.24 1076.056c1.457 2.507-2.041 5.524-3.365 3.08-2.323-2.174 2.064-5.453 3.366-3.08zM42.871 1073.857c-2.932-2.952 2.505-6.859 4.002-4.124 2.671 3.109-2.508 6.85-4.002 4.124zM41.283 1062.305c3.22 3.638-2.882 7.95-4.507 4.945-3.578-3.39 2.83-8.001 4.507-4.945zM32.655 1054.814c3.577 4.306-3.23 9.214-5.056 5.844-4.387-3.788 3.183-9.264 5.056-5.844zM23.484 1047.138c3.933 4.786-3.51 10.188-5.475 6.558-5.024-4.047 3.444-10.267 5.475-6.558zM16.076 1037.75c1.72 3.151 2.002 3.864.118 6.97-.778 1.282-5.19 1.937-6.063.337-5.636-4.436 3.748-11.314 5.945-7.306zM6.574 1033.59c2.989 3.427-2.71 7.567-4.316 4.654-3.357-3.246 2.738-7.57 4.316-4.653zM-12.24 1031.88c-2.722-2.823 2.409-6.504 3.85-3.873 2.491 2.95-2.409 6.503-3.85 3.873zM-16.029 1024.584c-1.915-2.06 1.94-4.81 3.113-2.657 1.207 2.238-1.877 4.928-3.113 2.657zM2.77 1025.594c3.306 3.958-2.994 8.563-4.75 5.36-3.966-3.53 2.986-8.58 4.75-5.36zM9.37 1033.065c-4.92-3.993 3.398-10.117 5.412-6.442 3.87 4.718-3.464 10.038-5.412 6.442zM25.664 1038.556c3.16 3.78-2.898 8.213-4.597 5.114-3.785-3.402 2.88-8.245 4.597-5.114zM19.835 1034.325c-4.461-3.836 3.229-9.385 5.107-5.937 3.637 4.362-3.266 9.337-5.107 5.937zM34.294 1044.23c3.333 4.006-3.065 8.558-4.77 5.378-4-3.55 3.008-8.61 4.77-5.379zM38.486 1056.76c-4.242-3.701 3.117-8.999 4.939-5.652 3.465 4.172-3.132 8.97-4.939 5.653zM50.964 1059.126c2.674 3.116-2.511 6.865-4.008 4.135-2.943-2.962 2.519-6.867 4.008-4.135zM54.98 1066.607c1.835 2.54-2.104 5.483-3.391 3.135-2.182-2.393 2.123-5.462 3.391-3.135zM52.986 1047.103c3.33 4.006-3.053 8.599-4.778 5.4-4.022-3.557 3.01-8.626 4.778-5.4zM54.454 1057.483c-.861-.175 1.059-4.065 2.43-1.549.096 1.115-1.245 3.75-2.43 1.549zM50.306 1041.95c-3.022-3.01 2.549-7.029 4.073-4.248 2.782 3.205-2.596 7.008-4.073 4.248zM39.028 1045.915c-4.922-3.99 3.423-10.066 5.395-6.422 3.862 4.715-3.475 9.986-5.395 6.422zM29.832 1038.864c-3.802-3.416 2.915-8.234 4.605-5.113 3.174 3.809-2.934 8.2-4.605 5.113zM27.921 1028.622c-4.246-3.692 3.105-9.039 4.944-5.684 3.495 4.177-3.145 8.985-4.944 5.684zM38.623 1034.243c-3.317-3.229 2.716-7.544 4.305-4.628 3.017 3.43-2.716 7.527-4.305 4.628zM48.077 1034.032c-2.175-2.103 2.024-5.198 3.267-2.906 1.357 2.403-1.987 5.28-3.267 2.906zM44.758 1026.951c-.844-.175 1.06-4.032 2.41-1.521.091 1.11-1.223 3.702-2.41 1.521zM37.018 1024.432c-3.786-3.41 2.9-8.241 4.61-5.12 3.157 3.803-2.921 8.22-4.61 5.12zM26.949 1017.739c-3.162-3.095 2.629-7.218 4.158-4.39 2.86 3.277-2.623 7.208-4.158 4.39zM16.602 1024.323c-4.018-3.554 3.015-8.646 4.783-5.4 3.31 3.978-3.026 8.605-4.783 5.4zM17.53 1015.32c-2.66-2.781 2.378-6.393 3.802-3.796 2.457 2.911-2.401 6.382-3.801 3.796zM5.755 1023.25c-3.928-3.496 2.967-8.47 4.702-5.287 3.26 3.914-2.979 8.452-4.702 5.288zM-5.242 1022.907c-2.396-2.508 2.213-5.825 3.543-3.384 1.992 2.702-2.218 5.83-3.543 3.384zM-7.757 1016.434c-1.77-1.975 1.878-4.534 2.989-2.47 1.11 2.127-1.816 4.651-2.99 2.47zM1.489 1015.197c-2.309-2.472 2.192-5.694 3.494-3.289 1.955 2.662-2.207 5.698-3.494 3.29z"/></g></svg><svg width="23" height="23" viewBox="-3 -3 23 23" id="engrave-surface" y="250"><path d="M16.997 7.474A.04.04 0 0 0 17 7.46V7.46c0-.005 0-.01-.002-.014l-.001-.002a.047.047 0 0 0-.006-.011l-.423-.506v-.001h-.001v-.001l-.003-.002-.003-.003h-.001l-.496-.34h-.002a.023.023 0 0 0-.004-.002v-.001h-.004l-.002-.002-.555-.162h-.003l-.003-.001h-.004-.002-.001l-.603.017h-.005l-.005.002-.635.198h-.002l-.001.001h-.001l-.004.002-.65.373c-.002 0-.002.001-.003.002a.018.018 0 0 0-.003.002l-.65.538-.002.001-.197.186-.2.07-.54.075-.605-.03-.663-.145-.743-.288-.791-.444L8.6 6.54l-.811-.777-.355-.43-.64-.995v-.002l-.002-.002-.423-.506-.002-.002-.002-.002a.035.035 0 0 0-.003-.003H6.36l-.495-.339-.002-.001a.02.02 0 0 0-.004-.002h-.002l-.002-.002h-.002l-.556-.163h-.001-.002l-.003-.001h-.003-.002-.001l-.603.017h-.001l-.003.001h-.003l-.002.001h-.002l-.634.198h-.001l-.004.002c-.001 0-.002 0-.003.002l-.65.372h-.001l-.001.001-.002.002-.002.001-.65.538-.001.001-.003.003-.634.69v.001h-.001l-.002.003-.603.825-.001.002v.001l-.556.94-.001.002v.001L.425 7.948v.002L.002 9.049l-.001.003L0 9.055v.004L0 9.064v.004a.03.03 0 0 0 .002.008v.003l.003.004.001.003.641.997.002.002.001.002.751.913.002.001.002.002.843.807.002.003h.001l.914.682h.001l.003.003h.001l.963.54h.001l.004.002.987.383.006.001.987.217h.002l.005.001.962.047h.008l.914-.127.005-.001h.003l.843-.295a.04.04 0 0 0 .008-.004l.751-.457h.001l.002-.002a.07.07 0 0 0 .004-.003l.641-.607.002-.002a.04.04 0 0 0 .006-.009l.002-.003v-.001l.422-1.096.494-1.028.554-.937.263-.36.827.182h.007l.963.047h.008l.914-.126a.036.036 0 0 0 .008-.002l.843-.295a.039.039 0 0 0 .008-.004l.751-.457.004-.003h.001v-.001h.002l.641-.608a.042.042 0 0 0 .01-.012v-.004zm-4.13 1.382l-.35-.42.85.04.35.42-.85-.04zm-1.186.21l-.309.291.333-.455.308-.292-.332.455zm-1.477 3.071l-.501.475.353-.918.5-.474-.352.917zm-.837-.118l.43-.894.62-.378-.429.895-.621.377zM6.951 4.881l.563.684-.25-.171-.563-.683.25.17zm2.063 6.433l.49-.829.722-.252-.49.829-.722.252zm-2.35-6.01l.76.728-.487.014-.759-.727.486-.014zm3.558 4.228l.515-.56.677-.237-.515.56-.677.237zm-1.568.99l.534-.732.8-.11-.534.732-.8.11zm-1.74-4.388l.831.62-.536.167-.832-.62.536-.167zm1.379 3.534l.561-.61.854.04-.56.611-.855-.04zM6.555 7.39l.885.496-.582.48-.884-.495.581-.48zm.389 1.014l.577-.478.898.348-.577.478-.898-.348zm-1.035-.474l.888.497-.577.627-.888-.497.577-.627zm.966.536l.903.35-.574.625-.904-.351.575-.624zm.99.379l.892.196-.569.62-.893-.197.57-.62zm.077-.068l.569-.47.884.194-.57.47-.883-.194zm-.333-.905l.558-.32.887.344-.557.32-.888-.344zm-.096-.04l-.878-.492.566-.324.878.491-.566.324zM6.284 6.334l.842.627-.572.327-.842-.627.572-.327zm-.646.375l.846.63-.585.484-.845-.63.584-.484zm-.646.541l.847.632-.578.629-.847-.632.578-.629zm-.631.693l.848.632-.554.758-.847-.632.553-.758zm.917.677l.89.498-.553.758-.89-.498.553-.758zm.966.535l.907.352-.552.756-.907-.352.552-.756zm.99.379l.898.197-.55.752-.898-.197.55-.752zm.989.213l.863.041-.544.745-.863-.041.544-.745zm1.836-.161l-.785.108.546-.594.784-.108-.545.594zm-1.114-.608l.556-.46.84.04-.556.46-.84-.04zm-.331-.736l.543-.31.866.19-.543.31-.866-.19zm-.325-.733l.507-.158.863.335-.507.157-.863-.334zm-.12-.05l-.863-.482.525-.164.862.483-.525.164zM7.04 6.127l.47-.014.806.602-.469.013-.807-.601zm-.974-.798l.775.741-.544.17-.775-.742.544-.17zm-.63.202l.781.747-.575.33-.78-.748.575-.33zm-.645.376l.783.75-.586.484-.783-.75.586-.484zm-.647.542l.783.75-.578.629-.783-.75.578-.63zm-.63.693l.783.75-.553.757-.783-.75.553-.757zm-.6.829l.782.748-.512.867-.781-.749.512-.866zm.847.802l.848.631-.514.868-.847-.631.513-.868zm.917.676l.89.498-.513.869-.89-.498.513-.869zm.965.534l.909.352-.513.868-.908-.352.512-.868zm.99.379l.901.198-.51.865-.902-.199.51-.864zm.99.212l.868.042-.508.859-.869-.042.508-.859zm.964.042l.81-.111-.502.848-.81.112.502-.849zm1-.247l.517-.707.705-.247-.516.707-.705.247zm1.995-1.695l.496-.301-.432.47-.496.302.432-.47zm1.66-.904l-.328.01.584-.205.327-.01-.584.205zm-.348.287l-.26-.076.046-.05.566-.078.36.106-.712.098zm.91-.127l-.42-.123.71-.247.418.122-.708.248zm.838-.297l-.448-.13.656-.398.447.13-.655.398zm-.562-.158l-.434.013.607-.37.435-.012-.608.37zm-.607.021l-.306.095.457-.278.307-.095-.458.278zm-1.192.656l-.26.158.209-.172.186-.114-.135.128zm-.746.453l-.618.216.466-.386.618-.215-.466.385zm-.84.292l-.758.105.528-.438.759-.104-.53.437zM9.63 8.443l.516-.296.809.04-.517.295-.808-.039zm-.32-.562l.475-.148.824.182-.475.147-.823-.18zm-.307-.538l.389-.011.788.305-.39.012-.787-.306zm-.196-.077l-.822-.46.441-.013.822.46-.441.013zM7.733 6.174l.327.096.724.54-.328-.096-.723-.54zm-.188-.141l-.713-.683.382.112.714.683-.383-.112zM6.46 4.548l.658.8-.414-.121-.658-.8.414.121zm-.55-.156l.684.832-.497.014-.685-.832.498-.014zm-.598.023l.695.844-.549.171-.694-.844.548-.17zm-.63.204l.699.848-.578.33-.697-.848.577-.33zm-.645.377l.698.849-.586.485-.699-.85.587-.484zm-.647.542l.698.849-.577.628-.698-.848.577-.629zm-.63.695l.697.847-.552.756-.697-.847.552-.756zm-.599.83l.695.844-.51.864-.696-.845.511-.864zm-.552.944l.693.843-.455.948-.693-.842.455-.95zm.755.906l.78.747-.458.952-.78-.746.458-.953zm.846.801l.847.631-.459.955-.846-.63.458-.956zm.917.676l.89.498-.46.956-.89-.498.46-.956zm.965.533l.909.353-.46.956-.908-.353.459-.956zm.989.378l.904.199-.459.954-.903-.199.458-.954zm.99.212l.872.042-.457.95-.872-.041.456-.95zm.964.042l.815-.113-.452.942-.815.112.452-.941zm.916-.13l.733-.257-.445.926-.732.256.444-.926zm.933-.45l.466-.789.601-.365-.466.788-.6.366zm.592-.962l.475-.65.566-.345-.474.65-.567.345zm1.962-1.663l-.088-.06.155-.169.373.018.364.25-.804-.04zm.959.043l-.393-.268.791-.11.394.269-.792.11zm.91-.128l-.41-.28.745-.261.41.28-.745.26zm.838-.299l-.42-.286.674-.41.42.287-.674.41zm.746-.46l-.425-.29.58-.549.425.29-.58.55zm-.502-.332l-.463-.135.571-.54.463.135-.571.54zm-.561-.156l-.478.014.55-.521.478-.014-.55.52zm-.607.022l-.454.141.504-.477.454-.142-.504.478zm-.638.2l-.345.198.386-.365.345-.197-.386.365zm-1.394.825l-.414.145.256-.147.38-.132-.222.134zm-.84.293l-.693.096.457-.262.694-.096-.457.262zm-.976-.283l.404-.125.72.034-.403.126-.72-.035zm.402-.209l-.654-.144.262-.008.654.144-.262.008zm-1.359-.614l-.64-.359.2.06.64.357-.2-.058zM8.106 6.2l-.477-.456.076.052.477.456-.077-.052zM6.307 3.883l.526.817-.319-.218-.526-.817.32.218zm.081.558l-.434-.127-.572-.89.434.127.572.89zM5.266 3.396l.588.914-.505.015-.589-.915.506-.014zm-.598.024l.594.924-.552.172-.594-.924.552-.172zm-.63.204l.596.927-.578.33-.596-.926.578-.33zm-.646.379l.595.926-.586.485-.595-.927.586-.484zm-.647.544l.595.924-.576.627-.595-.925.576-.626zm-.63.695l.592.922-.55.753-.592-.921.55-.754zm-.599.831l.59.918-.508.86-.59-.918.508-.86zm-.552.946l.588.914-.453.944-.588-.915.453-.943zm-.49 1.037l.585.91-.386 1.002-.585-.91.385-1.002zm.644.987l.69.84-.387 1.008-.691-.84.388-1.008zm.754.905l.779.745-.39 1.013-.779-.745.39-1.013zm.846.8l.845.63-.391 1.017-.845-.63.391-1.017zm.917.675l.89.498-.393 1.019-.89-.498.393-1.02zm.965.533l.91.352-.394 1.02-.909-.353.393-1.02zm.989.377l.904.2-.392 1.018-.905-.2.393-1.018zm.988.212l.876.042-.391 1.015-.875-.042.39-1.015zm.965.04l.82-.112-.388 1.008-.82.113.388-1.008zm.916-.13l.74-.259-.383.996-.74.259.383-.996zm.845-.3l.635-.386-.374.97-.635.387.374-.97zm1.324-1.116l-.472.447.395-.822.472-.447-.395.822zm.497-1.032l-.422.4.402-.681.422-.4-.402.68zm2.702-1.109l-.36-.43.818-.113.36.43-.818.113zm.91-.13l-.365-.438.76-.266.365.438-.76.266zm.84-.3l-.37-.442.68-.413.369.442-.68.413zm.745-.463l-.369-.442.581-.55.37.442-.582.55zm-4.317-.02l-.414.057.153-.047.386-.054-.125.044zm.266.414l.132.029.335.402-.673-.148.206-.283z"/></svg><svg width="30" height="30" viewBox="1 1 30 30" id="file-24" y="273"><path fill="none" d="M-1-1h18v18H-1V-1z"/><path d="M7.033 27H22.31V7.741H7.033V27zm1.33-17.931h12.616v16.602H8.363V9.069z"/><path d="M11.932 6.33h11.706v10.067h1.329V5H11.932v1.33zM15.335 10.608H9.691v5.644h5.644v-5.644zm-1.327 4.317h-2.986v-2.987h2.986v2.987z"/><path d="M16.583 10.608h3.153v1.33h-3.153v-1.33zM16.583 12.766h3.153v1.33h-3.153v-1.33zM16.583 15.09h3.153v1.328h-3.153V15.09zM9.608 17.869h10.128v1.326H9.608v-1.326zM9.608 20.31h10.128v1.329H9.608V20.31zM9.608 22.602h10.128v1.329H9.608v-1.329z"/></svg><svg width="54" height="54" viewBox="5 5 54 54" id="file-new" y="303"><path d="M53.56 40.625h-5.747v-5.75H42.06v5.75h-5.747v5.75h5.748v5.748h5.753v-5.747h5.748zm-20.12 8.622H16.187V14.75h16.06l1.193 1.194v7.43h7.43l1.19 1.192V32h5.753v-9.815L34.63 9H10.44v46h28.746v-5.753h-2.873z" fill="#010101"/></svg><svg width="22" height="22" viewBox="-3 -3 22 22" id="file-new-16" y="357"><path fill="#010101" d="M14.092 10.438h-1.623V8.813h-1.627v1.625H9.219v1.625h1.623v1.625h1.627v-1.625h1.625l-.002-1.625zm-5.688 2.436H3.529V3.125h4.539l.336.338v2.1h2.104l.334.337V8h1.627V5.227L8.742 1.5H1.906v13h8.123v-1.626H8.404z"/></svg><svg width="22" height="22" viewBox="13 13 22 22" id="file-open-16" y="379"><path fill="#010101" d="M16.5 21.656l1.875 8.438h11.25l1.875-8.438h-15zm14.063-1.875h-8.438l-1.875-1.875h-2.813v2.813h13.125v-.938z"/></svg><svg width="54" height="54" viewBox="5 5 54 54" id="file-open-48" y="401"><path d="M9 24.813l5.75 25.874h34.5L55 24.813zm43.125-5.75H26.25l-5.75-5.75h-8.625v8.625h40.25z" fill="#010101"/></svg><svg width="22" height="22" viewBox="-3 -3 22 22" id="fixer" y="455"><path fill="#010101" d="M9.851 5.864V2.227C11.296 1.41 11.186.5 11.186.5h-6.37s-.112.91 1.333 1.727v3.637S4.07 6.682 4.07 9.41h3.215l.784 6.09.786-6.09h3.074c.001-2.728-2.078-3.546-2.078-3.546z"/></svg><svg viewBox="-3 -3 26 26" width="26" height="26" id="icon-cart" y="477"><path style="text-indent:0;text-transform:none;block-progression:tb;marker:none" d="M1.052 1.478a.64.64 0 1 0 0 1.278h2.124c1.057 2.62 2.1 5.245 3.149 7.87l-.966 2.324a.651.651 0 0 0 .059.601.651.651 0 0 0 .534.284h10.653a.665.665 0 0 0 .648-.64.665.665 0 0 0-.648-.638H6.91l.552-1.319 10.26-.819a.657.657 0 0 0 .573-.492l1.278-5.54c.084-.373-.243-.78-.625-.779H4.893l-.692-1.73a.655.655 0 0 0-.593-.4zm4.354 3.409h3.955v1.917H6.17zm5.233 0h2.557v1.917h-2.557zm3.835 0h3.669l-.44 1.917h-3.229zm-7.79 3.195h2.677v1.725l-1.924.153zm3.955 0h2.557v1.419l-2.557.206zm3.835 0h2.93l-.253 1.106-2.677.213zm-6.391 6.18a2.14 2.14 0 0 0-2.131 2.13c0 1.169.961 2.13 2.13 2.13a2.14 2.14 0 0 0 2.131-2.13 2.14 2.14 0 0 0-2.13-2.13zm6.391 0a2.14 2.14 0 0 0-2.13 2.13c0 1.169.961 2.13 2.13 2.13a2.14 2.14 0 0 0 2.13-2.13 2.14 2.14 0 0 0-2.13-2.13zM8.083 15.54c.478 0 .852.373.852.852a.843.843 0 0 1-.852.852.843.843 0 0 1-.853-.852c0-.478.374-.852.853-.852zm6.391 0c.479 0 .853.374.853.852a.843.843 0 0 1-.853.852.843.843 0 0 1-.852-.852c0-.479.374-.852.852-.852z" overflow="visible" color="#000"/></svg><svg width="30" height="30" viewBox="-3 -3 30 30" id="idea-24" y="503"><path d="M12.079 3.789a5.728 5.728 0 0 0-5.723 5.72c0 1.61.838 2.856 1.515 3.861.382.566.778 1.151.778 1.49h1.679c0-.853-.517-1.619-1.066-2.432-.604-.896-1.226-1.821-1.226-2.919a4.047 4.047 0 0 1 4.043-4.041 4.046 4.046 0 0 1 4.042 4.041c0 1.096-.623 2.022-1.226 2.918-.549.812-1.067 1.58-1.067 2.433h1.68c0-.34.396-.926.781-1.497.673-1 1.511-2.245 1.511-3.854a5.727 5.727 0 0 0-5.721-5.72zM8.695 19.953c0-.035-.003.034 0 0z"/><path d="M12.024 6.474a2.971 2.971 0 0 0-2.967 2.968h1.501c0-.809.657-1.467 1.466-1.467V6.474zM12.083 23.5c.728 0 1.333-.521 1.468-1.209h-2.935c.134.689.74 1.209 1.467 1.209zM11.152.5h1.376v2.354h-1.376zM2.699 7.86h2.354v1.376H2.699zM18.947 7.861h2.354v1.375h-2.354zM17.295 4.891l-.976-.97 1.66-1.67.976.971zM6.605 4.645l-1.66-1.669.975-.971 1.661 1.668zM8.768 16.797h3.316l-3.269 1.142v1.094l6.741-2.357v-.911H8.768zM9.337 20.502c.042.052.99 1.175 2.849 1.332v-1.038a3.576 3.576 0 0 1-1.388-.434l4.757-1.6v-1.088l-6.695 2.25.477.578z"/></svg><svg width="34" height="34" viewBox="-5 -5 34 34" id="idea-28" y="533"><path d="M12.093 2.361c-3.705 0-6.718 3.012-6.718 6.715 0 1.89.983 3.353 1.778 4.533.448.664.913 1.352.913 1.748h1.972c0-1.001-.607-1.899-1.252-2.854-.709-1.052-1.439-2.138-1.439-3.427a4.752 4.752 0 0 1 4.746-4.744 4.75 4.75 0 0 1 4.745 4.744c0 1.287-.731 2.374-1.44 3.425-.644.954-1.251 1.854-1.251 2.855h1.972c0-.398.465-1.087.917-1.756.79-1.175 1.773-2.636 1.773-4.525 0-3.702-3.014-6.714-6.716-6.714zM8.12 21.336c0-.041-.003.039 0 0z"/><path d="M12.028 5.513a3.487 3.487 0 0 0-3.482 3.484h1.762c0-.95.771-1.722 1.721-1.722V5.513zM12.098 25.5a1.76 1.76 0 0 0 1.723-1.419h-3.444a1.753 1.753 0 0 0 1.721 1.419zM11.005-1.5h1.614v2.763h-1.614zM1.082 7.14h2.764v1.615H1.082zM20.155 7.141h2.763v1.614h-2.763zM19.018.556l1.147 1.14-1.949 1.96-1.147-1.14zM4.863.267l1.95 1.958-1.146 1.141-1.95-1.958zM8.206 17.631h3.893l-3.837 1.342v1.284l7.913-2.768v-1.068H8.206zM8.874 21.98c.049.062 1.162 1.379 3.345 1.563v-1.219a4.192 4.192 0 0 1-1.63-.51l5.584-1.878V18.66l-7.858 2.642.559.678z"/></svg><svg width="54" height="54" viewBox="-14.5 -14.5 54 54" id="learning-group" y="567"><g fill="#010101"><path d="M25.1 22.594H36c0-5.217-4.069-9.965-9.128-9.965a8.622 8.622 0 0 0-5.686 2.14c2.086 1.984 3.497 4.696 3.914 7.825z"/><circle cx="26.872" cy="7.309" r="4.851"/><path d="M3.867 14.821c-1.564-1.409-3.548-2.293-5.739-2.293-5.008 0-9.128 4.797-9.128 10.014H-.098a13.014 13.014 0 0 1 3.965-7.721z"/><circle cx="-1.872" cy="7.309" r="4.851"/><circle cx="12.528" cy="5.796" r="6.102"/><path d="M.999 25.306c0-6.988 5.165-12.677 11.474-12.677 6.314 0 11.479 5.688 11.479 12.677H.999z"/></g></svg><svg width="36" height="36" viewBox="6 6 36 36" id="learning-group-30" y="621"><g fill="#010101"><path d="M31.774 30.228H38.5c0-3.218-2.51-6.148-5.631-6.148a5.323 5.323 0 0 0-3.509 1.32c1.286 1.223 2.159 2.897 2.414 4.828z"/><circle cx="32.869" cy="20.797" r="2.993"/><path d="M18.673 25.433c-.965-.871-2.189-1.416-3.542-1.416-3.09 0-5.632 2.96-5.632 6.18h6.727a8.029 8.029 0 0 1 2.447-4.764z"/><circle cx="15.132" cy="20.797" r="2.993"/><circle cx="24.017" cy="19.864" r="3.765"/><path d="M16.903 31.901c0-4.313 3.187-7.822 7.08-7.822 3.895 0 7.082 3.51 7.082 7.822H16.903z"/></g></svg><svg width="54" height="54" viewBox="-3 -3 54 54" id="learning-video" y="657"><path fill="#010101" d="M42.693 5.262H5.309C4.489 5.262 4 5.75 4 6.571v27.493c0 .818.817 1.31 1.637 1.31h23.254l-.081-1.864H6.174V12.965h35.373v20.544h-1.43a1.688 1.688 0 0 1-.798.933l-1.663.902.017.031h5.019c.815 0 1.309-.49 1.309-1.31V6.571c.001-.821-.492-1.309-1.308-1.309zm-30.568.846c.522 0 .943.421.943.941 0 .521-.422.948-.943.948s-.945-.426-.945-.948a.944.944 0 0 1 .945-.941zm-2.576 0c.521 0 .944.421.944.941a.947.947 0 0 1-.944.948.952.952 0 0 1-.949-.948c0-.52.429-.941.949-.941zm-3.524.941a.947.947 0 0 1 1.892 0c0 .521-.427.948-.949.948s-.943-.424-.943-.948zm35.518 4.404H6.174V9.184h35.373v2.269h-.004zm-3.7 26.795l1.594 2.966a.487.487 0 0 1-.197.659l-1.498.804a.476.476 0 0 1-.233.062.492.492 0 0 1-.43-.256L34.8 38.246l-1.15-2.13-2.744 1.481a.497.497 0 0 1-.472-.008.487.487 0 0 1-.245-.402l-.423-9.883a.497.497 0 0 1 .248-.443.416.416 0 0 1 .23-.075c.102 0 .196.037.282.1l8.262 5.652c.141.1.219.26.212.43a.478.478 0 0 1-.255.402l-2.738 1.476 1.836 3.402zm-9.205-15.225l-8.088 4.602c-.621.354-1.129.06-1.129-.656v-9.177c0-.715.509-1.009 1.129-.657l8.088 4.604c.62.353.62.931 0 1.284z"/></svg><svg width="22" height="22" viewBox="-3 -3 22 22" id="milling" y="711"><g fill="#010101"><path d="M3 1h2l.5 6.5H2.499z"/><path d="M1.5 8h4.444l4.277-4.279V8L14.5 3.721V15h-13V8zm6 2.562v2.001h2v-2.001h-2zm2.999 0v2.001h2.002v-2.001h-2.002z"/></g></svg><svg width="22" height="22" viewBox="-3 -3 22 22" id="milling-cut" y="733"><g fill="#010101"><path d="M8.584 10.348l3.31 2.817a2.543 2.543 0 0 0 3.585-.288l-4.933-4.199-1.962 1.67z"/><path d="M15.5 3.147a2.543 2.543 0 0 0-3.585-.287L7.813 6.352 6.119 4.91a2.854 2.854 0 0 0-.903-2.904 2.852 2.852 0 0 0-1.854-.682 2.86 2.86 0 1 0-.002 5.722c.371 0 .738-.081 1.084-.222l1.407 1.197-1.366 1.163a2.861 2.861 0 1 0 1.736 2.631c0-.238-.038-.468-.093-.688l9.372-7.98zM7.812 7.046a.954.954 0 1 1 0 1.908.954.954 0 0 1 0-1.908zM2.331 5.395a1.58 1.58 0 0 1-.554-1.082 1.588 1.588 0 0 1 3.169-.257 1.588 1.588 0 0 1-2.615 1.339zm1.03 8.009a1.59 1.59 0 0 1 0-3.179 1.59 1.59 0 0 1 0 3.179z"/></g></svg><svg width="22" height="22" viewBox="-3 -3 22 22" id="milling-cut-corners-snap" y="755"><path fill="#010101" d="M6.239 12.662c0-.115.054-.225.146-.295a.362.362 0 0 1 .323-.066l2.304.602V9.744l-2.299.635a.367.367 0 0 1-.326-.061.379.379 0 0 1-.147-.301v-4.09a.37.37 0 0 1 .146-.296.37.37 0 0 1 .323-.065l2.304.603V3.003l-2.303.619a.376.376 0 0 1-.471-.362V.516H2.621A2.128 2.128 0 0 0 .5 2.637v10.724c0 1.168.955 2.123 2.121 2.123h3.618v-2.822zM13.379.516H6.988v2.256l2.301-.618a.375.375 0 0 1 .471.361v4.137a.375.375 0 0 1-.468.363l-2.305-.604v3.116l2.299-.637a.375.375 0 0 1 .474.361v4.138a.375.375 0 0 1-.468.361l-2.305-.602v2.336h6.392a2.128 2.128 0 0 0 2.121-2.123V2.637A2.127 2.127 0 0 0 13.379.516z"/></svg><svg width="22" height="22" viewBox="-3 -3 22 22" id="milling-cut-in" y="777"><path fill="#010101" d="M10.43 10.256l-1.669-1.67.468-.468 3.75-3.75.645-.675-1.318-1.317-.675.645L7.882 6.77l-.469.469-1.67-1.669v4.687h4.688z"/><path fill="#010101" d="M.501 2.376V15.5h13.123V8H11.75v5.626H2.376V4.251H8V2.376z"/></svg><svg width="22" height="22" viewBox="-3 -3 22 22" id="milling-cut-out" y="799"><path fill="#010101" d="M9.813 1.501l1.668 1.67-.467.468-3.75 3.75-.646.674 1.319 1.318.674-.645 3.749-3.749.469-.469 1.67 1.669V1.5H9.812z"/><path fill="#010101" d="M.501 2.376V15.5h13.123V8H11.75v5.626H2.376V4.251H8V2.376z"/></svg><svg width="22" height="22" viewBox="-3 -3 22 22" id="milling-cut-start-point" y="821"><g fill="#010101"><path d="M8 6.85a1.15 1.15 0 1 0-.001 2.299A1.15 1.15 0 0 0 8 6.85z"/><path d="M13.992 7.453a6.026 6.026 0 0 0-5.446-5.447V.5H7.453v1.506a6.03 6.03 0 0 0-5.448 5.447H.5v1.093h1.506a6.029 6.029 0 0 0 5.448 5.447V15.5h1.093v-1.507a6.028 6.028 0 0 0 5.446-5.447H15.5V7.453h-1.508zm-1.097 1.093a4.935 4.935 0 0 1-4.348 4.349v-1.971H7.453v1.971a4.934 4.934 0 0 1-4.349-4.349h1.971V7.453H3.104a4.936 4.936 0 0 1 4.349-4.349v1.971h1.093V3.104a4.935 4.935 0 0 1 4.348 4.349h-1.971v1.093h1.972z"/></g></svg><svg width="11" height="22" viewBox="-3 -3 11 22" id="milling-cut-type" y="843"><path fill="#53B9A1" d="M0 0h5v16H0z"/></svg><svg width="11" height="22" viewBox="-3 -3 11 22" id="milling-deepen-type" y="865"><path fill="#90AFD5" d="M0 0h5v16H0z"/></svg><svg width="11" height="22" viewBox="-3 -3 11 22" id="milling-drill-type" y="887"><path fill="#DA8DE2" d="M0 0h5v16H0z"/></svg><svg width="11" height="22" viewBox="-3 -3 11 22" id="milling-engrave-type" y="909"><path fill="#D3CE90" d="M0 0h5v16H0z"/></svg><svg width="11" height="22" viewBox="-3 -3 11 22" id="move-vertical" y="931"><path d="M0 14h5v2H0zM0 10.5h5v2H0zM0 7h5v2H0zM0 3.5h5v2H0zM0 0h5v2H0z"/></svg><svg width="22" height="22" viewBox="-3 -3 22 22" id="object-fit" y="953"><g fill="#010202"><path d="M3 4.5h3v-1H2v4h1zM13 3.5h-3v1h3v3h1v-4zM3 8.5H2v4h4v-1H3zM13 11.5h-3v1h4v-4h-1z"/><path d="M4 5.5h8v5H4z"/></g></svg><svg width="22" height="22" viewBox="-3 -3 22 22" id="probe-automatic-mode" y="975"><defs><path id="bia" d="M1.101 8.801l6.987-.735L5.23 1.653C2.394 2.914.775 5.715 1.101 8.801"/></defs><clipPath id="bib"><use xlink:href="#bia" overflow="visible"/></clipPath><g clip-path="url(#bib)"><path fill="#010101" d="M6.017 11.477a.196.196 0 0 1-.132-.055L-1.62 3.915a.182.182 0 0 1 0-.263.185.185 0 0 1 .263 0l7.506 7.504a.19.19 0 0 1 0 .266.207.207 0 0 1-.132.055z"/></g><defs><path id="bic" d="M1.101 8.801l6.987-.735L5.23 1.653C2.394 2.914.775 5.715 1.101 8.801"/></defs><clipPath id="bid"><use xlink:href="#bic" overflow="visible"/></clipPath><g clip-path="url(#bid)"><path fill="#010101" d="M5.356 12.139a.191.191 0 0 1-.132-.057l-7.506-7.507a.187.187 0 0 1 .265-.263l7.505 7.504a.19.19 0 0 1-.132.323z"/></g><defs><path id="bie" d="M1.101 8.801l6.987-.735L5.23 1.653C2.394 2.914.775 5.715 1.101 8.801"/></defs><clipPath id="bif"><use xlink:href="#bie" overflow="visible"/></clipPath><g clip-path="url(#bif)"><path fill="#010101" d="M5.329 8.149a.182.182 0 0 1-.132-.056L-2.308.588a.19.19 0 0 1 0-.265.188.188 0 0 1 .264 0L5.46 7.83a.185.185 0 0 1 0 .263.185.185 0 0 1-.131.056z"/></g><defs><path id="big" d="M1.101 8.801l6.987-.735L5.23 1.653C2.394 2.914.775 5.715 1.101 8.801"/></defs><clipPath id="bih"><use xlink:href="#big" overflow="visible"/></clipPath><g clip-path="url(#bih)"><path fill="#010101" d="M6.677 10.814a.197.197 0 0 1-.132-.051L-.961 3.255a.186.186 0 0 1 .264-.263l7.507 7.506a.188.188 0 0 1 0 .264.196.196 0 0 1-.133.052z"/></g><defs><path id="bii" d="M1.101 8.801l6.987-.735L5.23 1.653C2.394 2.914.775 5.715 1.101 8.801"/></defs><clipPath id="bij"><use xlink:href="#bii" overflow="visible"/></clipPath><g clip-path="url(#bij)"><path fill="#010101" d="M6.032 6.214a.184.184 0 0 1-.13-.056l-7.506-7.505a.186.186 0 0 1 0-.264.19.19 0 0 1 .265 0l7.505 7.506a.187.187 0 0 1-.134.319z"/></g><g><defs><path id="bik" d="M1.101 8.801l6.987-.735L5.23 1.653C2.394 2.914.775 5.715 1.101 8.801"/></defs><clipPath id="bil"><use xlink:href="#bik" overflow="visible"/></clipPath><g clip-path="url(#bil)"><path fill="#010101" d="M5.311 6.811a.192.192 0 0 1-.132-.053L-2.327-.75a.185.185 0 0 1 0-.263.184.184 0 0 1 .263 0l7.506 7.504a.189.189 0 0 1 0 .266.19.19 0 0 1-.131.054z"/></g></g><g><defs><path id="bim" d="M1.101 8.801l6.987-.735L5.23 1.653C2.394 2.914.775 5.715 1.101 8.801"/></defs><clipPath id="bin"><use xlink:href="#bim" overflow="visible"/></clipPath><g clip-path="url(#bin)"><path fill="#010101" d="M9.976 7.516a.191.191 0 0 1-.132-.053L2.338-.043a.188.188 0 0 1 0-.265.19.19 0 0 1 .265 0l7.504 7.506a.19.19 0 0 1 0 .265.186.186 0 0 1-.131.053z"/></g></g><g><defs><path id="bio" d="M1.101 8.801l6.987-.735L5.23 1.653C2.394 2.914.775 5.715 1.101 8.801"/></defs><clipPath id="bip"><use xlink:href="#bio" overflow="visible"/></clipPath><g clip-path="url(#bip)"><path fill="#010101" d="M6.373 5.234a.185.185 0 0 1-.132-.055l-7.506-7.506a.185.185 0 0 1 0-.263.186.186 0 0 1 .265 0l7.505 7.504a.19.19 0 0 1 0 .265.18.18 0 0 1-.132.055z"/></g></g><g><defs><path id="biq" d="M1.101 8.801l6.987-.735L5.23 1.653C2.394 2.914.775 5.715 1.101 8.801"/></defs><clipPath id="bir"><use xlink:href="#biq" overflow="visible"/></clipPath><g clip-path="url(#bir)"><path fill="#010101" d="M11.296 6.197a.185.185 0 0 1-.132-.055L3.659-1.364a.185.185 0 0 1 0-.264.188.188 0 0 1 .264 0l7.505 7.506a.186.186 0 1 1-.132.319z"/></g></g><g><defs><path id="bis" d="M1.101 8.801l6.987-.735L5.23 1.653C2.394 2.914.775 5.715 1.101 8.801"/></defs><clipPath id="bit"><use xlink:href="#bis" overflow="visible"/></clipPath><g clip-path="url(#bit)"><path fill="#010101" d="M10.636 6.857a.185.185 0 0 1-.132-.055L2.999-.704a.188.188 0 0 1 .265-.265l7.504 7.506a.19.19 0 0 1 0 .265.193.193 0 0 1-.132.055z"/></g></g><g><defs><path id="biu" d="M8.058 7.913l-6.959.734c.027.256.061.476.115.726.804 3.795 4.519 6.217 8.298 5.412"/></defs><clipPath id="biv"><use xlink:href="#biu" overflow="visible"/></clipPath><g clip-path="url(#biv)"><path fill="#010101" d="M10.008 14.693a.28.28 0 0 1 .282-.277.277.277 0 0 1 0 .554.278.278 0 0 1-.282-.277zm-1.108 0a.28.28 0 0 1 .283-.277.277.277 0 0 1 0 .554.278.278 0 0 1-.283-.277zm-1.106 0a.279.279 0 1 1 .559 0 .278.278 0 0 1-.28.277.277.277 0 0 1-.279-.277zm-1.107 0a.28.28 0 1 1 .56 0 .278.278 0 0 1-.281.277.276.276 0 0 1-.279-.277zm-1.107 0c0-.152.125-.277.28-.277a.277.277 0 0 1 0 .554.276.276 0 0 1-.28-.277zm-1.106 0a.28.28 0 1 1 .559 0 .278.278 0 0 1-.279.277.276.276 0 0 1-.28-.277zm-1.108 0a.28.28 0 0 1 .559 0 .278.278 0 0 1-.281.277.276.276 0 0 1-.278-.277zm-1.109 0c0-.152.125-.277.28-.277a.278.278 0 0 1 0 .554.276.276 0 0 1-.28-.277zm-1.107 0c0-.152.125-.277.279-.277a.278.278 0 0 1 0 .554.276.276 0 0 1-.279-.277zm-1.107 0a.28.28 0 0 1 .281-.277c.155 0 .28.125.28.277a.278.278 0 0 1-.28.277.277.277 0 0 1-.281-.277z"/></g><defs><path id="biw" d="M8.058 7.913l-6.959.734c.027.256.061.476.115.726.804 3.795 4.519 6.217 8.298 5.412"/></defs><clipPath id="bix"><use xlink:href="#biw" overflow="visible"/></clipPath><g clip-path="url(#bix)"><path fill="#010101" d="M11.396 14.971H-.782a.277.277 0 0 1-.279-.277c0-.152.125-.281.279-.281h12.177c.153 0 .279.129.279.281a.276.276 0 0 1-.278.277z"/></g><defs><path id="biy" d="M8.058 7.913l-6.959.734c.027.256.061.476.115.726.804 3.795 4.519 6.217 8.298 5.412"/></defs><clipPath id="biz"><use xlink:href="#biy" overflow="visible"/></clipPath><g clip-path="url(#biz)"><path fill="#010101" d="M10.008 15.627a.28.28 0 1 1 .56 0c0 .15-.125.281-.278.281a.285.285 0 0 1-.282-.281zm-1.106 0a.28.28 0 0 1 .558 0c0 .15-.125.281-.278.281a.284.284 0 0 1-.28-.281zm-1.108 0a.28.28 0 0 1 .559 0c0 .15-.125.281-.28.281a.284.284 0 0 1-.279-.281zm-1.107 0a.28.28 0 0 1 .56 0c0 .15-.126.281-.281.281a.283.283 0 0 1-.279-.281zm-1.107 0a.28.28 0 0 1 .559 0c0 .15-.125.281-.279.281a.284.284 0 0 1-.28-.281zm-1.106 0a.28.28 0 0 1 .559 0c0 .15-.126.281-.279.281a.284.284 0 0 1-.28-.281zm-1.111 0c0-.156.128-.281.281-.281.155 0 .279.125.279.281 0 .15-.125.281-.279.281a.286.286 0 0 1-.281-.281zm-1.106 0a.28.28 0 0 1 .28-.281c.157 0 .28.125.28.281 0 .15-.125.281-.28.281a.284.284 0 0 1-.28-.281zm-1.107 0a.28.28 0 0 1 .279-.281c.157 0 .28.125.28.281 0 .15-.125.281-.28.281a.283.283 0 0 1-.279-.281zm-1.107 0a.28.28 0 0 1 .281-.281.28.28 0 0 1 .28.281c0 .15-.125.281-.28.281a.285.285 0 0 1-.281-.281z"/></g><defs><path id="biA" d="M8.058 7.913l-6.959.734c.027.256.061.476.115.726.804 3.795 4.519 6.217 8.298 5.412"/></defs><clipPath id="biB"><use xlink:href="#biA" overflow="visible"/></clipPath><g clip-path="url(#biB)"><path fill="#010101" d="M11.396 15.906H-.782a.279.279 0 0 1-.279-.281.28.28 0 0 1 .279-.279h12.177a.28.28 0 0 1 .001.56z"/></g><g><defs><path id="biC" d="M8.058 7.913l-6.959.734c.027.256.061.476.115.726.804 3.795 4.519 6.217 8.298 5.412"/></defs><clipPath id="biD"><use xlink:href="#biC" overflow="visible"/></clipPath><g clip-path="url(#biD)"><path fill="#010101" d="M10.008 12.824a.28.28 0 0 1 .282-.277c.153 0 .278.125.278.277a.284.284 0 0 1-.278.285.286.286 0 0 1-.282-.285zm-1.106 0a.279.279 0 1 1 .558 0 .284.284 0 0 1-.28.285.283.283 0 0 1-.278-.285zm-1.108 0c0-.152.124-.277.279-.277.155 0 .28.125.28.277a.284.284 0 0 1-.28.285.283.283 0 0 1-.279-.285zm-1.107 0a.28.28 0 1 1 .56 0 .285.285 0 0 1-.281.285.283.283 0 0 1-.279-.285zm-1.107 0c0-.152.125-.277.28-.277.154 0 .279.125.279.277a.284.284 0 0 1-.279.285.284.284 0 0 1-.28-.285zm-1.106 0a.28.28 0 1 1 .559 0 .285.285 0 0 1-.279.285.284.284 0 0 1-.28-.285zm-1.108 0a.28.28 0 0 1 .559 0 .285.285 0 0 1-.281.285.283.283 0 0 1-.278-.285zm-1.109 0c0-.152.125-.277.28-.277.157 0 .28.125.28.277a.284.284 0 0 1-.28.285.284.284 0 0 1-.28-.285zm-1.107 0c0-.152.125-.277.279-.277.157 0 .28.125.28.277a.284.284 0 0 1-.28.285.284.284 0 0 1-.279-.285zm-1.107 0a.28.28 0 0 1 .281-.277c.155 0 .28.125.28.277a.284.284 0 0 1-.28.285.285.285 0 0 1-.281-.285z"/></g></g><g><defs><path id="biE" d="M8.058 7.913l-6.959.734c.027.256.061.476.115.726.804 3.795 4.519 6.217 8.298 5.412"/></defs><clipPath id="biF"><use xlink:href="#biE" overflow="visible"/></clipPath><g clip-path="url(#biF)"><path fill="#010101" d="M10.008 13.762a.28.28 0 1 1 .56 0 .28.28 0 0 1-.56 0zm-1.106 0a.28.28 0 0 1 .558 0 .279.279 0 1 1-.558 0zm-1.108 0a.28.28 0 0 1 .559 0 .28.28 0 1 1-.559 0zm-1.107 0a.28.28 0 0 1 .56 0 .28.28 0 0 1-.281.277.278.278 0 0 1-.279-.277zm-1.107 0a.28.28 0 0 1 .559 0 .279.279 0 0 1-.279.277.279.279 0 0 1-.28-.277zm-1.106 0a.28.28 0 0 1 .559 0 .279.279 0 1 1-.559 0zm-1.108 0a.279.279 0 0 1 .557 0 .278.278 0 1 1-.557 0zm-1.109 0a.28.28 0 0 1 .28-.281.279.279 0 1 1 0 .558.279.279 0 0 1-.28-.277zm-1.107 0a.28.28 0 0 1 .279-.281.279.279 0 1 1 0 .558.279.279 0 0 1-.279-.277zm-1.107 0a.28.28 0 0 1 .281-.281.279.279 0 1 1 0 .558.28.28 0 0 1-.281-.277z"/></g></g><g><defs><path id="biG" d="M8.058 7.913l-6.959.734c.027.256.061.476.115.726.804 3.795 4.519 6.217 8.298 5.412"/></defs><clipPath id="biH"><use xlink:href="#biG" overflow="visible"/></clipPath><g clip-path="url(#biH)"><path fill="#010101" d="M10.008 10.961c0-.156.127-.283.282-.283.153 0 .278.127.278.283a.28.28 0 0 1-.278.279.282.282 0 0 1-.282-.279zm-1.108 0c0-.156.127-.283.281-.283a.28.28 0 1 1 0 .562.282.282 0 0 1-.281-.279zm-1.106 0a.28.28 0 0 1 .279-.283.28.28 0 1 1 0 .562.28.28 0 0 1-.279-.279zm-1.107 0a.28.28 0 0 1 .279-.283.281.281 0 0 1 0 .562.28.28 0 0 1-.279-.279zm-1.107 0c0-.156.125-.283.28-.283a.28.28 0 1 1 0 .562.28.28 0 0 1-.28-.279zm-1.106 0c0-.156.125-.283.28-.283a.28.28 0 1 1 0 .562.28.28 0 0 1-.28-.279zm-1.111 0c0-.156.128-.283.283-.283.153 0 .278.127.278.283a.28.28 0 0 1-.278.279.283.283 0 0 1-.283-.279zm-1.106 0a.28.28 0 0 1 .56 0 .28.28 0 0 1-.56 0zm-1.107 0c0-.156.125-.283.279-.283a.28.28 0 1 1 0 .562.28.28 0 0 1-.279-.279zm-1.107 0c0-.156.126-.283.281-.283a.28.28 0 1 1 0 .562.281.281 0 0 1-.281-.279z"/></g></g><g><defs><path id="biI" d="M8.058 7.913l-6.959.734c.027.256.061.476.115.726.804 3.795 4.519 6.217 8.298 5.412"/></defs><clipPath id="biJ"><use xlink:href="#biI" overflow="visible"/></clipPath><g clip-path="url(#biJ)"><path fill="#010101" d="M10.008 11.895c0-.154.127-.279.282-.279a.278.278 0 0 1 0 .556.28.28 0 0 1-.282-.277zm-1.108 0a.28.28 0 0 1 .281-.279.28.28 0 0 1 .28.279.28.28 0 1 1-.561 0zm-1.106 0a.28.28 0 1 1 .559 0 .279.279 0 0 1-.28.277.278.278 0 0 1-.279-.277zm-1.107 0a.28.28 0 0 1 .56 0 .28.28 0 0 1-.281.277.278.278 0 0 1-.279-.277zm-1.107 0a.28.28 0 1 1 .559 0 .279.279 0 0 1-.279.277.279.279 0 0 1-.28-.277zm-1.106 0a.28.28 0 1 1 .559 0 .279.279 0 0 1-.279.277.279.279 0 0 1-.28-.277zm-1.111 0c0-.154.128-.279.283-.279a.278.278 0 0 1 0 .556.282.282 0 0 1-.283-.277zm-1.106 0a.28.28 0 0 1 .28-.279c.157 0 .28.125.28.279a.279.279 0 0 1-.28.277.279.279 0 0 1-.28-.277zm-1.107 0a.28.28 0 0 1 .279-.279c.157 0 .28.125.28.279a.279.279 0 0 1-.28.277.279.279 0 0 1-.279-.277zm-1.107 0a.28.28 0 0 1 .281-.279.28.28 0 0 1 .28.279.279.279 0 0 1-.28.277.28.28 0 0 1-.281-.277z"/></g></g><g><defs><path id="biK" d="M8.058 7.913l-6.959.734c.027.256.061.476.115.726.804 3.795 4.519 6.217 8.298 5.412"/></defs><clipPath id="biL"><use xlink:href="#biK" overflow="visible"/></clipPath><g clip-path="url(#biL)"><path fill="#010101" d="M10.008 9.094a.28.28 0 1 1 .56 0 .28.28 0 0 1-.278.281.283.283 0 0 1-.282-.281zm-1.108 0a.28.28 0 1 1 .561 0 .281.281 0 0 1-.28.281.283.283 0 0 1-.281-.281zm-3.041.281a.281.281 0 0 1-.28-.281m-1.105 0a.28.28 0 0 1 .559 0 .28.28 0 0 1-.279.281.281.281 0 0 1-.28-.281zm-1.111 0a.28.28 0 1 1 .561 0 .28.28 0 0 1-.278.281.284.284 0 0 1-.283-.281zm-1.106 0a.28.28 0 0 1 .28-.281.281.281 0 0 1 0 .562.281.281 0 0 1-.28-.281zm-1.107 0a.28.28 0 1 1 .559 0 .281.281 0 0 1-.28.281.28.28 0 0 1-.279-.281zm-1.107 0a.28.28 0 1 1 .561 0 .281.281 0 0 1-.28.281.282.282 0 0 1-.281-.281z"/></g></g><g><defs><path id="biM" d="M8.058 7.913l-6.959.734c.027.256.061.476.115.726.804 3.795 4.519 6.217 8.298 5.412"/></defs><clipPath id="biN"><use xlink:href="#biM" overflow="visible"/></clipPath><g clip-path="url(#biN)"><path fill="#010101" d="M10.008 10.025a.28.28 0 0 1 .282-.277c.153 0 .278.123.278.277a.282.282 0 0 1-.278.281.283.283 0 0 1-.282-.281zm-1.108 0a.28.28 0 0 1 .281-.277c.155 0 .28.123.28.277a.282.282 0 0 1-.28.281.283.283 0 0 1-.281-.281zm-1.934.282a.281.281 0 0 1-.279-.281m-1.107-.001c0-.154.125-.277.28-.277.154 0 .279.123.279.277a.282.282 0 0 1-.279.281.281.281 0 0 1-.28-.281zm-1.106 0c0-.154.125-.277.28-.277.154 0 .279.123.279.277a.282.282 0 0 1-.279.281.281.281 0 0 1-.28-.281zm-1.111 0a.28.28 0 0 1 .283-.277c.153 0 .278.123.278.277a.282.282 0 0 1-.278.281.284.284 0 0 1-.283-.281zm-1.106 0c0-.154.125-.277.28-.277.157 0 .28.123.28.277a.282.282 0 0 1-.28.281.281.281 0 0 1-.28-.281zm-1.107 0c0-.154.125-.277.279-.277.157 0 .28.123.28.277a.282.282 0 0 1-.28.281.28.28 0 0 1-.279-.281zm-1.107 0c0-.154.126-.277.281-.277.155 0 .28.123.28.277a.282.282 0 0 1-.28.281.282.282 0 0 1-.281-.281z"/></g></g><g><defs><path id="biO" d="M8.058 7.913l-6.959.734c.027.256.061.476.115.726.804 3.795 4.519 6.217 8.298 5.412"/></defs><clipPath id="biP"><use xlink:href="#biO" overflow="visible"/></clipPath><g clip-path="url(#biP)"><path fill="#010101" d="M10.008 7.228c0-.155.127-.28.282-.28a.28.28 0 0 1 0 .56.283.283 0 0 1-.282-.28zm-1.108 0c0-.155.127-.28.281-.28a.28.28 0 0 1 .28.28.28.28 0 0 1-.28.28.282.282 0 0 1-.281-.28zm-1.106 0a.28.28 0 0 1 .559 0 .28.28 0 0 1-.559 0zm-1.107 0a.28.28 0 0 1 .56 0 .28.28 0 1 1-.56 0zm-1.107 0a.28.28 0 1 1 .559 0 .28.28 0 0 1-.279.28.28.28 0 0 1-.28-.28zm-1.106 0a.28.28 0 1 1 .559 0 .28.28 0 0 1-.279.28.28.28 0 0 1-.28-.28zm-1.111 0c0-.155.128-.28.283-.28a.28.28 0 0 1 0 .56.283.283 0 0 1-.283-.28zm-1.106 0a.28.28 0 0 1 .28-.28c.157 0 .28.125.28.28a.28.28 0 0 1-.28.28.28.28 0 0 1-.28-.28zm-1.107 0a.28.28 0 0 1 .279-.28c.157 0 .28.125.28.28a.28.28 0 0 1-.28.28.28.28 0 0 1-.279-.28zm-1.107 0a.28.28 0 0 1 .281-.28.28.28 0 0 1 .28.28.28.28 0 0 1-.28.28.282.282 0 0 1-.281-.28z"/></g></g><g><defs><path id="biQ" d="M8.058 7.913l-6.959.734c.027.256.061.476.115.726.804 3.795 4.519 6.217 8.298 5.412"/></defs><clipPath id="biR"><use xlink:href="#biQ" overflow="visible"/></clipPath><g clip-path="url(#biR)"><path fill="#010101" d="M11.396 7.508H-.782c-.155 0-.279-.127-.279-.282s.125-.28.279-.28h12.177a.28.28 0 0 1 .279.28.278.278 0 0 1-.278.282z"/></g></g></g><path fill="#010101" d="M8.145.505C8.126.505 8.106.5 8.087.5l-.092.002L7.915.5c-.017 0-.033.003-.05.005a7.668 7.668 0 0 0-2.958.646.617.617 0 0 0-.162.11C1.846 2.675.204 5.626.544 8.86a.52.52 0 0 0 .036.142c.023.162.05.318.087.488.737 3.482 3.842 6.01 7.384 6.01.527 0 1.059-.057 1.579-.168a.569.569 0 0 0 .162-.066c3.378-.846 5.708-3.793 5.708-7.265C15.5 3.94 12.222.627 8.145.505zm-.79 1.153v3.39l-1.381-3.1a6.22 6.22 0 0 1 1.381-.29zm2.577 12.405l-.706-3.333a3.032 3.032 0 0 1-1.089.254c-.046.004-.09.008-.137.008h-.014l.721 3.348a6.278 6.278 0 0 1-.656.041c-3.004 0-5.639-2.139-6.28-5.086l3.389-.357a3.001 3.001 0 0 1-.153-.937c0-.113.008-.222.021-.332l-3.404.36a6.333 6.333 0 0 1 3.253-5.57l1.421 3.082a2.987 2.987 0 0 1 1.704-.535c.221 0 .438.028.647.074V1.661c3.222.361 5.731 3.066 5.731 6.34 0 2.808-1.796 5.21-4.448 6.062z"/><g><path fill="#010101" d="M8 11.553a3.56 3.56 0 0 1-3.554-3.552c0-1.96 1.595-3.554 3.554-3.554s3.553 1.594 3.553 3.554A3.558 3.558 0 0 1 8 11.553zm0-5.986a2.436 2.436 0 0 0-2.433 2.434A2.438 2.438 0 0 0 8 10.436a2.438 2.438 0 0 0 2.433-2.435A2.437 2.437 0 0 0 8 5.567z"/></g></svg><svg width="22" height="22" viewBox="-3 -3 22 22" id="probe-collect" y="997"><g fill="#010101"><path d="M10.344 11.679l-.389.622c1.963.191 3.354.664 3.354 1.219 0 .725-2.373 1.31-5.298 1.31-2.927 0-5.299-.585-5.299-1.31 0-.551 1.37-1.02 3.309-1.215l-.391-.624c-2.352.293-4.016 1.006-4.016 1.839 0 1.094 2.859 1.98 6.387 1.98 3.529 0 6.386-.887 6.386-1.98 0-.838-1.676-1.551-4.043-1.841z"/><path d="M7.961.5c-2.419 0-4.38 2.066-4.38 4.615 0 1.094.363 2.024.961 2.894l3.405 5.43v.008l.003-.002.011.018.005-.045 3.337-5.323c.619-.871 1.037-1.842 1.037-2.979C12.34 2.566 10.379.5 7.961.5zM7.96 6.656a1.953 1.953 0 1 1 0-3.905 1.953 1.953 0 0 1 0 3.905z"/></g></svg><svg width="22" height="22" viewBox="-3 -3 22 22" id="probe-manual-mode" y="1019"><path fill="#010101" d="M15.5 3.123a1.474 1.474 0 1 0-1.973 1.385V6.5c0 .522-.478 1-1 1H8.498V4.508c.568-.205.976-.747.976-1.385a1.474 1.474 0 1 0-1.972 1.385V7.5h-5.03V4.508a1.472 1.472 0 0 0-.498-2.859 1.474 1.474 0 0 0-.498 2.859v6.982a1.475 1.475 0 1 0 .996 0V8.5h5.029v2.99a1.475 1.475 0 1 0 .996 0V8.5h4.029c1.092 0 2-.915 2-2.007h-.003V4.508a1.47 1.47 0 0 0 .977-1.385zM8 2.459a.663.663 0 1 1 0 1.327.663.663 0 0 1 0-1.327zm-6.026 0a.663.663 0 1 1 0 1.327.663.663 0 0 1 0-1.327zm0 11.082a.665.665 0 0 1 0-1.328.663.663 0 0 1 0 1.328zm6.026 0a.665.665 0 0 1 0-1.328.663.663 0 0 1 0 1.328zm6.026-11.082a.663.663 0 1 1 0 1.327.663.663 0 0 1 0-1.327z"/></svg><svg width="22" height="22" viewBox="-3 -3 22 22" id="probe-mode-grid-points" y="1041"><path fill="#010101" d="M1.702 1.5c-.121 0-.202.081-.202.203v1.625c0 .122.081.203.202.203h1.626c.122 0 .203-.081.203-.203V1.703c0-.122-.081-.203-.203-.203H1.702zm3.657 0c-.123 0-.203.081-.203.203v1.625c0 .122.08.203.203.203h1.625c.122 0 .203-.081.203-.203V1.703c0-.122-.081-.203-.203-.203H5.359zm3.657 0c-.122 0-.203.081-.203.203v1.625c0 .122.081.203.203.203h1.625c.121 0 .203-.081.203-.203V1.703c0-.122-.082-.203-.203-.203H9.016zm3.656 0c-.121 0-.203.081-.203.203v1.625c0 .122.082.203.203.203h1.625c.121 0 .203-.081.203-.203V1.703c0-.122-.082-.203-.203-.203h-1.625zM1.702 5.156c-.121 0-.202.081-.202.203v1.625c0 .122.081.203.202.203h1.626c.122 0 .203-.081.203-.203V5.359c0-.122-.081-.203-.203-.203H1.702zm3.657 0c-.123 0-.203.081-.203.203v1.625c0 .122.08.203.203.203h1.625c.122 0 .203-.081.203-.203V5.359c0-.122-.081-.203-.203-.203H5.359zm3.657 0c-.122 0-.203.081-.203.203v1.625c0 .122.081.203.203.203h1.625c.121 0 .203-.081.203-.203V5.359c0-.122-.082-.203-.203-.203H9.016zm3.656 0c-.121 0-.203.081-.203.203v1.625c0 .122.082.203.203.203h1.625c.121 0 .203-.081.203-.203V5.359c0-.122-.082-.203-.203-.203h-1.625zM1.702 8.813c-.121 0-.202.081-.202.203v1.625c0 .121.081.203.202.203h1.626c.122 0 .203-.082.203-.203V9.016c0-.122-.081-.203-.203-.203H1.702zm3.657 0c-.123 0-.203.081-.203.203v1.625c0 .121.08.203.203.203h1.625c.122 0 .203-.082.203-.203V9.016c0-.122-.081-.203-.203-.203H5.359zm3.657 0c-.122 0-.203.081-.203.203v1.625c0 .121.081.203.203.203h1.625a.193.193 0 0 0 .203-.203V9.016c0-.122-.082-.203-.203-.203H9.016zm3.656 0c-.121 0-.203.081-.203.203v1.625c0 .121.082.203.203.203h1.625a.193.193 0 0 0 .203-.203V9.016c0-.122-.082-.203-.203-.203h-1.625zm-10.97 3.655c-.121 0-.202.083-.202.204v1.624c0 .123.081.204.202.204h1.626c.122 0 .203-.081.203-.204v-1.624c0-.121-.081-.204-.203-.204H1.702zm3.657 0c-.123 0-.203.083-.203.204v1.624c0 .123.08.204.203.204h1.625c.122 0 .203-.081.203-.204v-1.624c0-.121-.081-.204-.203-.204H5.359zm3.657 0c-.122 0-.203.083-.203.204v1.624c0 .123.081.204.203.204h1.625c.121 0 .203-.081.203-.204v-1.624c0-.121-.082-.204-.203-.204H9.016zm3.656 0c-.121 0-.203.083-.203.204v1.624c0 .123.082.204.203.204h1.625c.121 0 .203-.081.203-.204v-1.624c0-.121-.082-.204-.203-.204h-1.625z"/></svg><svg width="22" height="22" viewBox="-3 -3 22 22" id="probe-mode-three-points" y="1063"><path fill="#010101" d="M13 5.5c-.799 0-1.508.375-1.966.958L5.412 3.646A2.5 2.5 0 0 0 5.5 3a2.5 2.5 0 1 0-3 2.449v5.101A2.499 2.499 0 0 0 3 15.5 2.5 2.5 0 0 0 5.5 13c0-.219-.03-.43-.084-.631l5.653-2.779A2.5 2.5 0 1 0 13 5.5zM1.5 3c0-.827.673-1.5 1.5-1.5.826 0 1.501.673 1.501 1.5S3.826 4.499 3 4.499c-.827 0-1.5-.672-1.5-1.499zM3 14.5c-.827 0-1.5-.674-1.5-1.5 0-.828.673-1.501 1.5-1.501.826 0 1.501.673 1.501 1.501 0 .826-.675 1.5-1.501 1.5zm1.977-3.028A2.493 2.493 0 0 0 3.5 10.55V5.449a2.501 2.501 0 0 0 1.466-.908l5.622 2.811A2.52 2.52 0 0 0 10.5 8c0 .244.037.48.102.704l-5.625 2.768zM13 9.499A1.502 1.502 0 0 1 11.499 8c0-.828.674-1.5 1.501-1.5.826 0 1.5.672 1.5 1.5 0 .826-.674 1.499-1.5 1.499z"/></svg><svg width="22" height="22" viewBox="-3 -3 22 22" id="probe-start" y="1085"><g fill="#010101"><path d="M12.059 3.542l.363-.543.274.179a.37.37 0 0 0 .516-.111.375.375 0 0 0-.11-.516l-1.168-.755a.375.375 0 0 0-.407.627l.267.171-.353.528a6.632 6.632 0 0 0-2.697-.917V1.61c0-.052-.006-.106-.015-.162h.117c.391 0 .708-.565.739-.948H6.412c.031.383.349.948.74.948h.116a.921.921 0 0 0-.015.162v.595a6.669 6.669 0 1 0 4.806 1.337zm-4.06 10.465a5.183 5.183 0 0 1-5.176-5.176 5.184 5.184 0 0 1 5.176-5.177 5.183 5.183 0 0 1 5.175 5.177 5.183 5.183 0 0 1-5.175 5.176z"/><path d="M7.939 4.925c-.322.003-.58.224-.578.495l-.357 4.364c.003.268.679.48 1.001.476.322-.005.993-.23.989-.502l-.466-4.353c-.003-.269-.267-.485-.589-.48z"/></g></svg><svg width="22" height="22" viewBox="-3 -3 22 22" id="probe-stop" y="1107"><g fill="#010101"><path d="M12.059 3.542l.363-.543.274.179a.37.37 0 0 0 .516-.111.375.375 0 0 0-.11-.516l-1.168-.755a.375.375 0 0 0-.407.627l.267.171-.353.528a6.632 6.632 0 0 0-2.697-.917V1.61c0-.052-.006-.106-.015-.162h.117c.391 0 .708-.565.739-.948H6.412c.031.383.349.948.74.948h.116a.921.921 0 0 0-.015.162v.595a6.669 6.669 0 1 0 4.806 1.337zm-4.06 10.465a5.183 5.183 0 0 1-5.176-5.176 5.184 5.184 0 0 1 5.176-5.177 5.183 5.183 0 0 1 5.175 5.177 5.183 5.183 0 0 1-5.175 5.176z"/><path d="M7.939 4.925c-.322.003-.58.224-.578.495l-.357 4.364c.003.268.679.48 1.001.476.322-.005.993-.23.989-.502l-.466-4.353c-.003-.269-.267-.485-.589-.48z"/></g><path fill="#010101" d="M14.669 11.129c0-.55-.45-1-1-1h-3.371c-.55 0-1 .45-1 1V14.5c0 .55.45 1 1 1h3.371c.55 0 1-.45 1-1v-3.371z"/></svg><svg width="22" height="22" viewBox="-3 -3 22 22" id="refresh" y="1129"><g fill="#010101"><path d="M8 3.84a4.15 4.15 0 0 1 3.32 1.651L9.873 6.96h4.535v-4.6l-1.435 1.456A6.483 6.483 0 0 0 8 1.5a6.502 6.502 0 0 0-6.416 5.46h2.388A4.161 4.161 0 0 1 8 3.84zM8 12.16a4.154 4.154 0 0 1-3.271-1.59l1.528-1.531h-4.67v4.677l1.481-1.483a6.5 6.5 0 0 0 11.348-3.194h-2.387A4.162 4.162 0 0 1 8 12.16z"/></g></svg><svg width="22" height="22" viewBox="-3 -3 22 22" id="save" y="1151"><g fill="#010202"><path d="M11.793 2.287h-1.141V5.43H4.681V2.287h-2.2V13.6h11V4.289l-1.688-2.002zm-.197 9.429H4.052V7.001h7.543v4.715z"/><path d="M5.625 2.287H9.71v2.201H5.625z"/></g></svg><svg viewBox="-3 -3 54 54" width="54" height="54" id="search" y="1173"><path d="M20.08 1.002C9.586 1.002 1 9.568 1 20.062c0 10.494 8.586 19.08 19.08 19.08 4.034 0 7.77-1.292 10.851-3.438l10.315 10.295a3.347 3.347 0 0 0 4.77 0 3.359 3.359 0 0 0 0-4.75L35.701 30.934c2.167-3.1 3.439-6.837 3.439-10.872 0-10.494-8.586-19.06-19.06-19.06zm0 6.718a12.287 12.287 0 0 1 12.322 12.342A12.287 12.287 0 0 1 20.08 32.405 12.29 12.29 0 0 1 7.738 20.062 12.29 12.29 0 0 1 20.08 7.72z"/></svg><svg width="22" height="22" viewBox="-3 -3 22 22" id="setting" y="1227"><path d="M14.221 6.638h-1.95a4.796 4.796 0 0 0-.477-1.056l1.292-1.296a.774.774 0 0 0 0-1.1l-.549-.549a.78.78 0 0 0-1.099 0l-1.316 1.314a4.702 4.702 0 0 0-1.151-.463V1.779A.778.778 0 0 0 8.193 1h-.776a.779.779 0 0 0-.777.779v1.709a4.582 4.582 0 0 0-1.251.525L4.288 2.912a.782.782 0 0 0-1.101 0l-.551.55a.783.783 0 0 0 .002 1.102l1.121 1.121a4.626 4.626 0 0 0-.516 1.343H1.779A.778.778 0 0 0 1 7.806v.776c0 .43.349.777.779.777h1.563c.142.469.355.9.629 1.293l-1.057 1.059a.782.782 0 0 0-.002 1.102l.549.549a.78.78 0 0 0 1.102-.002l1.182-1.18c.398.197.829.34 1.284.414v1.627c0 .43.348.777.776.779h.778a.78.78 0 0 0 .777-.779v-1.826a4.675 4.675 0 0 0 1.1-.561l1.252 1.252a.777.777 0 0 0 1.101 0l.549-.549a.774.774 0 0 0-.002-1.102l-1.372-1.375c.169-.34.3-.705.381-1.09h1.853a.778.778 0 0 0 .779-.778v-.775a.783.783 0 0 0-.78-.779zM7.807 9.943a1.943 1.943 0 1 1 0-3.886 1.944 1.944 0 1 1 0 3.886z"/></svg><svg viewBox="-3 -3 54 54" width="54" height="54" id="social-facebook" y="1249"><g transform="matrix(.41 0 0 .41 1 1)"><circle cx="56.098" cy="56.098" r="56.098" fill="#3b5998"/><path d="M70.201 58.294h-10.01v36.672H45.025V58.294h-7.213V45.406h7.213v-8.34c0-5.964 2.833-15.303 15.301-15.303l11.234.047v12.51h-8.151c-1.337 0-3.217.668-3.217 3.513v7.585h11.334l-1.325 12.876z" fill="#fff"/></g></svg><svg viewBox="-3 -3 54 54" width="54" height="54" id="social-instagram" y="1303"><g transform="matrix(.08348 0 0 .08348 1 1)"><linearGradient id="bua" gradientUnits="userSpaceOnUse" x1="275.517" y1="4.571" x2="275.517" y2="549.72" gradientTransform="matrix(1 0 0 -1 0 554)"><stop offset="0" stop-color="#e09b3d"/><stop offset=".3" stop-color="#c74c4d"/><stop offset=".6" stop-color="#c21975"/><stop offset="1" stop-color="#7024c4"/></linearGradient><path d="M386.878 0H164.156C73.64 0 0 73.64 0 164.156v222.722c0 90.516 73.64 164.156 164.156 164.156h222.722c90.516 0 164.156-73.64 164.156-164.156V164.156C551.033 73.64 477.393 0 386.878 0zM495.6 386.878c0 60.045-48.677 108.722-108.722 108.722H164.156c-60.045 0-108.722-48.677-108.722-108.722V164.156c0-60.046 48.677-108.722 108.722-108.722h222.722c60.045 0 108.722 48.676 108.722 108.722v222.722z" fill="url(#bua)"/><linearGradient id="bub" gradientUnits="userSpaceOnUse" x1="275.517" y1="4.571" x2="275.517" y2="549.72" gradientTransform="matrix(1 0 0 -1 0 554)"><stop offset="0" stop-color="#e09b3d"/><stop offset=".3" stop-color="#c74c4d"/><stop offset=".6" stop-color="#c21975"/><stop offset="1" stop-color="#7024c4"/></linearGradient><path d="M275.517 133C196.933 133 133 196.933 133 275.516s63.933 142.517 142.517 142.517S418.034 354.1 418.034 275.516 354.101 133 275.517 133zm0 229.6c-48.095 0-87.083-38.988-87.083-87.083s38.989-87.083 87.083-87.083c48.095 0 87.083 38.988 87.083 87.083 0 48.094-38.989 87.083-87.083 87.083z" fill="url(#bub)"/><linearGradient id="buc" gradientUnits="userSpaceOnUse" x1="418.306" y1="4.571" x2="418.306" y2="549.72" gradientTransform="matrix(1 0 0 -1 0 554)"><stop offset="0" stop-color="#e09b3d"/><stop offset=".3" stop-color="#c74c4d"/><stop offset=".6" stop-color="#c21975"/><stop offset="1" stop-color="#7024c4"/></linearGradient><circle cx="418.306" cy="134.072" r="34.149" fill="url(#buc)"/></g></svg><svg viewBox="-3 -3 54 54" width="54" height="54" id="social-pinterest" y="1357"><g transform="matrix(.1579 0 0 .1579 1 1)"><path d="M145.659 0c80.45 0 145.66 65.219 145.66 145.66 0 80.45-65.21 145.659-145.66 145.659S0 226.109 0 145.66C0 65.219 65.21 0 145.659 0z" fill="#c8232c"/><path d="M150.066 63.781c-51.327 0-77.19 35.632-77.19 65.337 0 17.989 7.028 33.993 22.122 39.956 2.467.974 4.698.036 5.408-2.613l2.203-8.403c.728-2.613.446-3.541-1.548-5.826-4.361-4.962-7.128-11.398-7.128-20.511 0-26.428 20.42-50.089 53.175-50.089 29.014 0 44.945 17.161 44.945 40.075 0 30.152-13.783 55.606-34.248 55.606-11.289 0-19.755-9.04-17.042-20.156 3.241-13.237 9.541-27.539 9.541-37.107 0-8.548-4.743-15.704-14.575-15.704-11.553 0-20.829 11.571-20.829 27.074 0 9.878 3.45 16.551 3.45 16.551l-13.901 56.998c-4.124 16.906-.61 37.644-.319 39.738.182 1.238 1.821 1.529 2.567.601 1.065-1.347 14.821-17.798 19.5-34.239 1.329-4.652 7.602-28.75 7.602-28.75 3.751 6.946 14.721 13.046 26.383 13.046 34.712 0 58.273-30.652 58.273-71.674-.011-31.015-27.14-59.91-68.389-59.91z" fill="#fff"/></g></svg><svg viewBox="-3 -3 54 54" width="54" height="54" id="social-youtube" y="1411"><g transform="translate(1 42.341) scale(.09706)"><circle r="236.966" cy="-188.965" cx="236.966" fill="#d42428"/><path d="M404.518-356.551c92.541 92.549 92.549 242.593 0 335.142-92.541 92.541-242.593 92.545-335.142 0l335.142-335.142z" fill="#cc202d"/><path d="M469.168-141.505L351.886-258.783l-138.322 15.749-83.669 129.532L286.237 42.836c91.92-19.445 164.185-92.155 182.931-184.341z" fill="#ba202e"/><path d="M360.971-234.693c0-19.865-16.093-35.966-35.947-35.966H156.372c-19.85 0-35.94 16.105-35.94 35.966v96.444c0 19.865 16.093 35.966 35.94 35.966h168.649c19.858 0 35.947-16.105 35.947-35.966v-96.444h.003zM216.64-145.785v-90.584l68.695 45.294-68.695 45.29z" fill="#fff"/></g></svg><svg width="54" height="54" viewBox="-3 -3 54 54" id="start-up" y="1465"><path d="M12.094 10.834a5.223 5.223 0 0 0 0 7.412 5.22 5.22 0 0 0 7.414 0 5.22 5.22 0 0 0 0-7.412 5.329 5.329 0 0 0-7.414 0zm5.9 5.953a3.104 3.104 0 0 1-4.438 0 3.102 3.102 0 0 1 0-4.437c1.246-1.245 3.192-1.192 4.438 0 1.244 1.19 1.244 3.192 0 4.437zm13.53-1.624a22.15 22.15 0 0 0-1.46-1.784c-3.52-4.063-7.634-6.929-12.288-8.5-3.896-1.3-7.306-1.459-9.525-1.35a3.607 3.607 0 0 0-2.437 1.082 3.751 3.751 0 0 0-1.082 2.435c-.107 2.167 0 5.63 1.354 9.525 1.568 4.656 4.437 8.769 8.496 12.288.379.324.76.648 1.139.918l.053.056c.217.163.38.323.595.435.596 3.246 2.003 7.685 5.413 10.982.541.545 1.246.761 2.002.597.486-.052.918-.324 1.244-.649.162-.16.323-.375.435-.598l2.921-5.844c.761-.106 1.409-.27 2.003-.432l9.851 9.85c.436.435 1.081.435 1.52 0a1.045 1.045 0 0 0 0-1.513l-9.368-9.364c.599-.378.923-.758 1.137-.978l.057-.051.053-.056c.218-.218.649-.647 1.137-1.353l5.739 5.735c.435.437 1.085.437 1.516 0a1.05 1.05 0 0 0 0-1.515l-6.226-6.223c.162-.541.271-1.083.382-1.732l5.846-2.92c.215-.112.43-.274.593-.435.325-.325.595-.759.651-1.244a2.438 2.438 0 0 0-.595-2.005c-3.526-3.353-7.909-4.761-11.156-5.357zm9.526 7.091c0 .055-.054.108-.104.16l-6.389 3.195c-.11.054-.217.107-.273.215-.163.163-.27.434-.324.706-.106 2.651-1.515 4.006-1.783 4.274-.058.056-.11.11-.11.11-.052.053-.108.053-.108.104-.269.274-1.622 1.68-4.274 1.789-.271 0-.541.108-.705.325-.052.054-.162.16-.214.269l-3.194 6.39c-.057.052-.11.105-.163.105-.057 0-.11 0-.163-.054-2.438-2.383-3.736-5.359-4.439-8.009 1.03.54 2.112 1.082 3.032 1.353a1.038 1.038 0 0 0 1.299-.759c.162-.541-.163-1.135-.756-1.299-1.625-.435-4.384-2.219-5.358-2.924-.378-.27-.704-.594-1.083-.918-8.5-7.306-9.365-15.697-9.148-20.08 0-.435.215-.813.485-1.085.272-.27.651-.43 1.083-.485 4.331-.217 12.721.651 20.081 9.145.596.651 1.138 1.356 1.626 2.005.161.216.432.379.648.434 2.977.486 7.145 1.73 10.232 4.925.102.001.102.055.102.109z"/></svg><svg width="22" height="22" viewBox="-3 -3 22 22" id="target" y="1519"><g fill="#010101"><path d="M1.5 1.5h5.688v5.688H1.5zM8.813 1.5h5.688v5.688H8.813zM1.5 8.813h5.688v5.688H1.5zM8.813 8.813h5.688v5.688H8.813z"/></g></svg><svg width="22" height="22" viewBox="-3 -3 22 22" id="tool" y="1541"><path fill="#010101" d="M13.008.625c-.167-.166-.435-.166-.584 0L.831 12.235l-.2.2c-.1.1-.15.267-.1.398l.5 1.866a.357.357 0 0 0 .267.284l1.866.498a.18.18 0 0 0 .098.019.487.487 0 0 0 .3-.116l2.465-2.466 9.344-9.345a.398.398 0 0 0 .117-.3.48.48 0 0 0-.117-.3L13.008.625zM7.793 8.454c.383.134.784.266 1.166.35l-1.282 1.283c-.35.35-.966.166-1.882-.15a10.078 10.078 0 0 0-1.167-.35L5.91 8.304c.367-.35.984-.166 1.883.15zm-2.365 3.882c-.35.349-.966.165-1.865-.15a10.331 10.331 0 0 0-1.166-.351l1.282-1.282c.35-.35.966-.166 1.883.15.383.133.783.266 1.166.35l-1.3 1.283zm-2.282 2.281l-1.399-.366-.367-1.399.033-.032c.351-.352.967-.168 1.866.149.383.132.783.266 1.166.35l-1.299 1.298zm6.812-6.796c-.348.35-.966.166-1.882-.15a10.534 10.534 0 0 0-1.166-.35l5.813-5.813 1.767 1.766-4.532 4.547z"/></svg><svg viewBox="-3 -3 26 26" width="26" height="26" id="user" y="1563"><g transform="matrix(.21752 0 0 .21752 -.876 -1.315)"><path d="M49.999 50.06c8.56 0 15.421-9.707 15.421-18.35s-6.94-15.65-15.5-15.65c-8.56 0-15.5 7.007-15.5 15.65.001 8.643 7.019 18.35 15.579 18.35zM55.737 56.979H44.21c-12.266 0-22.21 9.93-22.21 22.18l.053 2.623a6.201 6.201 0 0 0 6.206 6.197h43.536a6.202 6.202 0 0 0 6.206-6.197l-.053-2.623c-.001-12.25-9.944-22.18-22.211-22.18z"/></g></svg><svg width="22" height="22" viewBox="-3 -3 22 22" id="user-help" y="1589"><g fill="#010101"><path d="M8.338 11.732c-1.043-.436-1.291-.586-1.291-.586l-.011-1s.392-.303.513-1.245c.245.073.501-.362.515-.593.014-.221-.034-.835-.332-.772.062-.462.105-.877.083-1.097-.077-.805-.868-1.652-2.086-1.652s-2.008.847-2.086 1.652c-.022.22.022.635.083 1.097-.299-.063-.347.551-.333.772.016.23.271.666.516.594.121.942.514 1.245.514 1.245l-.012 1s-.248.15-1.29.586c-1.044.436-2.099.738-2.412 1.229-.282.438-.197 2.547-.197 2.547h10.434s.084-2.109-.196-2.547c-.314-.491-1.369-.794-2.412-1.23z"/><path d="M6.13.492v2.815h.938V1.43h7.495v4.687l-.912-.014-.32-.005-.257.191-2.266 1.695V6.095l-.946.008-.917.007v.938l.925-.006v2.813l3.767-2.813 1.863.028V.492z"/></g></svg><svg width="30" height="30" viewBox="-7 -7 30 30" id="user-help-24" y="1611"><g fill="#010101"><path d="M8.518 13.717c-1.598-.669-1.978-.898-1.978-.898l-.016-1.532s.6-.465.785-1.908c.375.113.767-.554.789-.907.022-.339-.053-1.28-.509-1.183.096-.708.161-1.343.127-1.681-.118-1.233-1.33-2.53-3.195-2.53s-3.075 1.297-3.195 2.53c-.033.338.034.973.128 1.681-.458-.097-.532.844-.51 1.183.025.353.415 1.021.791.91.185 1.441.787 1.905.787 1.905l-.018 1.532s-.38.23-1.976.897c-1.599.668-3.215 1.131-3.694 1.883-.433.672-.302 3.9-.302 3.9h15.979s.129-3.229-.299-3.9c-.482-.751-2.097-1.215-3.694-1.882z"/><path d="M5.136-3.5V.812h1.436v-2.875h11.48v7.178l-1.398-.021-.489-.007-.394.292-3.469 2.596V5.081l-1.451.013-1.403.01v1.437l1.416-.009v4.31l5.77-4.31 2.853.043V-3.5z"/></g></svg><svg width="18" height="18" viewBox="-3 -3 18 18" id="window-minimize" y="1641"><circle cx="6" cy="6" r="6" fill="#FEBE11"/></svg></svg>