<?xml version="1.0" encoding="UTF-8" standalone="no"?>
<!-- Generator: Adobe Illustrator 15.1.0, SVG Export Plug-In . SVG Version: 6.00 Build 0)  -->

<svg
   xmlns:dc="http://purl.org/dc/elements/1.1/"
   xmlns:cc="http://creativecommons.org/ns#"
   xmlns:rdf="http://www.w3.org/1999/02/22-rdf-syntax-ns#"
   xmlns:svg="http://www.w3.org/2000/svg"
   xmlns="http://www.w3.org/2000/svg"
   xmlns:sodipodi="http://sodipodi.sourceforge.net/DTD/sodipodi-0.dtd"
   xmlns:inkscape="http://www.inkscape.org/namespaces/inkscape"
   version="1.1"
   id="Layer_1"
   x="0px"
   y="0px"
   width="300"
   height="200"
   viewBox="0 0 300 200"
   enable-background="new 0 0 128 128"
   xml:space="preserve"
   inkscape:version="0.91 r13725"
   sodipodi:docname="logo.svg"
   inkscape:export-filename="/home/ciro-maciel/Documentos/C37/Infrastructure/account/src/img/logo.png"
   inkscape:export-xdpi="90"
   inkscape:export-ydpi="90"><metadata
     id="metadata4222"><rdf:RDF><cc:Work
         rdf:about=""><dc:format>image/svg+xml</dc:format><dc:type
           rdf:resource="http://purl.org/dc/dcmitype/StillImage" /><dc:title></dc:title></cc:Work></rdf:RDF></metadata><defs
     id="defs4220" /><sodipodi:namedview
     pagecolor="#ffffff"
     bordercolor="#666666"
     borderopacity="1"
     objecttolerance="10"
     gridtolerance="10"
     guidetolerance="10"
     inkscape:pageopacity="0"
     inkscape:pageshadow="2"
     inkscape:window-width="1792"
     inkscape:window-height="1071"
     id="namedview4218"
     showgrid="false"
     inkscape:zoom="1.6894531"
     inkscape:cx="134.81738"
     inkscape:cy="176.25178"
     inkscape:window-x="0"
     inkscape:window-y="0"
     inkscape:window-maximized="1"
     inkscape:current-layer="Layer_1" /><rect
     width="128"
     height="128"
     id="rect4200"
     x="0"
     y="72"
     style="fill:#ffffff;fill-opacity:0" /><g
     id="g4227"
     transform="matrix(2.1763985,0,0,2.1763985,10.710496,-413.63113)"><g
       transform="translate(0,172)"
       id="g4202"><path
         style="opacity:0.6;fill:#ffffff"
         inkscape:connector-curvature="0"
         id="path4204"
         d="M 71.525,101.637 C 64.671,105.77 56.827,107.95 48.833,107.95 24.574,107.95 4.884,88.264 4.884,64 c 0,-24.26 19.69,-43.949 43.949,-43.949 7.995,0 15.712,2.338 22.562,6.466 L 54.936,53.878 c -1.842,-1.109 -3.954,-1.697 -6.103,-1.697 -6.524,0 -11.821,5.295 -11.821,11.818 0,6.526 5.296,11.821 11.821,11.821 2.149,0 4.261,-0.59 6.103,-1.697 l 16.589,27.514 z"
         enable-background="new    " /><polyline
         style="fill:#ffffff"
         id="polyline4206"
         points="123.116,38.546 123.116,89.867 123.116,38.546 99.461,32.934 99.461,46.563 110.285,49.37    110.285,93.076 123.116,89.867  " /><polygon
         style="opacity:0.6;fill:#ffffff"
         id="polygon4208"
         points="73.402,69.414 73.402,58.995 84.227,58.995 84.227,40.146 73.402,40.146 73.402,26.917 97.057,32.529 97.057,95.879 73.402,101.494 73.402,88.268 84.227,88.268 84.227,69.414 "
         enable-background="new    " /></g><path
       enable-background="new    "
       d="M 71.525,273.637 C 64.671,277.77 56.827,279.95 48.833,279.95 24.574,279.949 4.884,260.264 4.884,236 c 0,-24.26 19.69,-43.949 43.949,-43.949 7.995,0 15.712,2.338 22.562,6.466 l -16.459,27.362 c -1.842,-1.109 -3.954,-1.697 -6.103,-1.697 -6.524,0 -11.821,5.295 -11.821,11.818 0,6.525 5.296,11.82 11.821,11.82 2.149,0 4.261,-0.59 6.103,-1.697 l 16.589,27.514 z"
       id="path4212"
       inkscape:connector-curvature="0"
       style="opacity:1;fill:#698b71" /><polyline
       transform="translate(0,172)"
       points="123.116,38.547 123.116,89.867 123.116,38.547 99.461,32.934 99.461,46.563 110.285,49.37    110.285,93.076 123.116,89.867  "
       id="polyline4214"
       style="fill:#2aa3b4" /><polygon
       transform="translate(0,172)"
       enable-background="new    "
       points="84.227,58.995 84.227,40.146 73.402,40.146 73.402,26.918 97.057,32.529 97.057,95.879 73.402,101.494 73.402,88.268 84.227,88.268 84.227,69.414 73.402,69.414 73.402,58.995 "
       id="polygon4216"
       style="opacity:1;fill:#f1615f" /></g></svg>