<?xml version="1.0" encoding="UTF-8" standalone="no"?>
<!-- Created with Inkscape (http://www.inkscape.org/) -->

<svg
   xmlns:dc="http://purl.org/dc/elements/1.1/"
   xmlns:cc="http://creativecommons.org/ns#"
   xmlns:rdf="http://www.w3.org/1999/02/22-rdf-syntax-ns#"
   xmlns:svg="http://www.w3.org/2000/svg"
   xmlns="http://www.w3.org/2000/svg"
   xmlns:sodipodi="http://sodipodi.sourceforge.net/DTD/sodipodi-0.dtd"
   xmlns:inkscape="http://www.inkscape.org/namespaces/inkscape"
   width="16"
   height="16"
   viewBox="0 0 16 16"
   id="svg4169"
   version="1.1"
   inkscape:version="0.91 r13725"
   sodipodi:docname="carving.svg">
  <defs
     id="defs4171" />
  <sodipodi:namedview
     id="base"
     pagecolor="#ffffff"
     bordercolor="#666666"
     borderopacity="1.0"
     inkscape:pageopacity="0.0"
     inkscape:pageshadow="2"
     inkscape:zoom="2.8"
     inkscape:cx="-44.977092"
     inkscape:cy="25.290018"
     inkscape:document-units="px"
     inkscape:current-layer="layer1"
     showgrid="false"
     units="px"
     inkscape:window-width="1920"
     inkscape:window-height="1031"
     inkscape:window-x="0"
     inkscape:window-y="0"
     inkscape:window-maximized="1" />
  <metadata
     id="metadata4174">
    <rdf:RDF>
      <cc:Work
         rdf:about="">
        <dc:format>image/svg+xml</dc:format>
        <dc:type
           rdf:resource="http://purl.org/dc/dcmitype/StillImage" />
        <dc:title></dc:title>
      </cc:Work>
    </rdf:RDF>
  </metadata>
  <g
     inkscape:label="Layer 1"
     inkscape:groupmode="layer"
     id="layer1"
     transform="translate(0,-1036.3622)">
    <path
       inkscape:connector-curvature="0"
       d="m 15.45293,1040.4495 c -0.952105,-1.9042 -3.692307,-2.7402 -5.5965181,-2.2758 -1.90421,0.4645 -3.785194,0.2787 -5.224962,-1.8113 0,0 -0.580552,1.3933 0.325108,2.7866 0,0 -1.161102,0.093 -1.741654,0.023 0,0 0.255284,1.6087 2.24424,2.4819 -0.608877,-0.032 -1.224691,0.047 -1.849465,0.3046 -2.252541,0.929 -4.34252596,2.6241 -3.27431096,6.363 0,0 0.76632896,2.6007 3.87808396,2.2061 3.111755,-0.3948 3.970973,0.3018 4.458636,1.8345 0,0 1.161102,-1.3469 0.162554,-2.6938 0,0 0.487663,-0.3019 1.3701011,-0.2554 0,0 -2.1828741,-2.3454 -4.3889691,-2.0669 -2.206095,0.2788 -3.924528,1.0682 -4.342524,0.3716 0,0 1.602322,-1.9507 5.596516,-0.5573 3.9941931,1.3933 7.1059501,0.2322 7.9419441,-1.3469 0.835994,-1.579 1.393323,-3.4601 0.44122,-5.3642 z m -4.356088,0 1.624456,-1.6245 c 0.121486,0.063 0.23476,0.1318 0.339782,0.2063 l -1.475077,1.4751 c -0.152235,-0.029 -0.315063,-0.048 -0.489161,-0.057 z m -0.191875,-0.01 c -0.301207,0 -0.56284,0.017 -0.794948,0.051 l 1.929562,-1.9295 c 0.197545,0.052 0.380602,0.1174 0.549142,0.1943 l -1.683756,1.6838 z m -1.0344491,0.094 c -0.421127,0.088 -0.741881,0.224 -1.043133,0.3577 l 2.4547821,-2.4547 c 0.211788,0.016 0.411306,0.046 0.598739,0.087 l -2.0103881,2.0104 z m 1.1005541,0.3797 c 1.764876,0.2554 2.229317,1.6487 2.229317,1.6487 0,0 -0.975326,0.9289 -3.088533,0.3948 -0.9100821,-0.23 -1.8244961,-0.6193 -2.7506131,-0.9139 1.493469,-0.1124 2.206821,-1.3327 3.6098291,-1.1296 z m 1.842798,0.1367 1.056558,-1.0566 c 0.07617,0.1678 0.131123,0.3424 0.164845,0.5206 l -0.87287,0.8729 c -0.09797,-0.1142 -0.213328,-0.2288 -0.348533,-0.3369 z m -0.112211,-0.085 c -0.111507,-0.08 -0.234964,-0.1543 -0.371599,-0.2209 l 1.239841,-1.2399 c 0.09076,0.1135 0.169177,0.2331 0.235397,0.3571 l -1.103639,1.1036 z m 1.359534,-0.2801 c 0.02145,0.1906 0.01896,0.384 -0.0067,0.576 l -0.578467,0.5785 c -0.05839,-0.1061 -0.132504,-0.2236 -0.225257,-0.3441 l 0.810458,-0.8104 z m -0.05134,0.8176 c -0.0654,0.2738 -0.179337,0.5412 -0.341303,0.7902 0,0 -0.03343,-0.131 -0.125611,-0.3232 l 0.466914,-0.467 z m -0.530367,-2.1049 -1.284947,1.2849 c -0.136474,-0.058 -0.285082,-0.107 -0.446344,-0.1461 l 1.425412,-1.4254 c 0.112506,0.089 0.214533,0.1851 0.305879,0.2866 z m -2.383685,-0.9719 -2.6178111,2.6178 c -0.280093,0.1159 -0.571389,0.2113 -0.940561,0.2435 l 2.8446331,-2.8446 c 0.251043,-0.021 0.48864,-0.026 0.713739,-0.017 z m -0.933214,0.039 -2.8331821,2.8331 c -0.209384,0 -0.443282,-0.011 -0.711879,-0.052 -0.06554,-0.01 -0.129217,-0.021 -0.191378,-0.032 l 2.576673,-2.5766 c 0.217958,-0.025 0.4463,-0.058 0.685595,-0.1018 0.162781,-0.03 0.3205731,-0.053 0.4741711,-0.071 z m -4.6677021,0.5918 0.684438,-0.6844 c 0.172873,0.067 0.365203,0.127 0.578193,0.1769 l -0.902303,0.9022 c -0.07937,-0.069 -0.212651,-0.1984 -0.360328,-0.3948 z m -0.523108,-1.0095 0.241359,-0.2414 c 0.09105,0.079 0.19893,0.1613 0.325993,0.2433 l -0.404685,0.4047 c -0.05803,-0.1236 -0.113003,-0.2591 -0.162667,-0.4066 z m 0.227843,0.5384 0.461583,-0.4615 c 0.112822,0.066 0.23882,0.1303 0.378515,0.1908 l -0.627198,0.6271 c -0.07089,-0.1034 -0.143144,-0.2222 -0.2129,-0.3564 z m 1.720042,0 c 0.185528,0.037 0.385636,0.066 0.601438,0.084 l -2.207434,2.2074 c -0.167384,-0.077 -0.312999,-0.1604 -0.439223,-0.2461 l 2.045219,-2.0453 z m -1.809709,-0.872 -0.185483,0.1855 c -0.05071,-0.1724 -0.09384,-0.3596 -0.125476,-0.5629 0,0 0.08867,0.1638 0.310959,0.3774 z m -1.1001,1.9044 c 0,0 0.263402,0.055 0.668677,0.06 l -0.393279,0.3932 c -0.139172,-0.1881 -0.217185,-0.3524 -0.275398,-0.4529 z m 0.362323,0.563 0.505532,-0.5055 c 0.256236,-0.01 0.552999,-0.039 0.867608,-0.1125 l -0.985487,0.9855 c -0.161352,-0.1226 -0.287463,-0.248 -0.387653,-0.3675 z m 1.078578,0.756 2.254468,-2.2545 c 0.325357,0.018 0.684052,0.013 1.078759,-0.022 l -2.522383,2.5225 c -0.313451,-0.067 -0.5808,-0.151 -0.810844,-0.2462 z m -4.49228896,7.0431 c 0.10075596,0.106 0.20264796,0.1942 0.30576396,0.2671 l -0.135612,0.1357 c -0.122143,-0.2367 -0.17015196,-0.4028 -0.17015196,-0.4028 z m 1.25702896,1.5916 c -0.125952,-0.077 -0.240294,-0.1607 -0.344112,-0.2484 l 0.841595,-0.8416 c 0.271022,-0.057 0.551388,-0.1484 0.842458,-0.2499 l -1.339941,1.3399 z m 1.6438,-1.4467 c 0.344681,-0.1211 0.704259,-0.2429 1.080848,-0.3258 l -2.064996,2.065 c -0.196231,-0.059 -0.373797,-0.1339 -0.534401,-0.2207 l 1.518549,-1.5185 z m 0.702286,1.8057 2.13686,-2.1369 c 0.215394,0.049 0.42106,0.1129 0.614886,0.1866 l -1.796966,1.797 c -0.222491,0.018 -0.459407,0.052 -0.71215,0.1069 -0.08266,0.018 -0.163279,0.033 -0.24263,0.046 z m 1.163756,-0.1652 1.728978,-1.729 c 0.14786,0.061 0.287759,0.1279 0.419267,0.1965 l -1.55606,1.556 c -0.183734,-0.022 -0.380918,-0.031 -0.592185,-0.024 z m 2.69766,0.1474 -0.53921,0.5392 c -0.08658,-0.074 -0.181512,-0.146 -0.285876,-0.2138 l 0.606767,-0.6068 c 0.08534,0.091 0.157565,0.1855 0.218319,0.2814 z m -0.947343,0.2506 c -0.126859,-0.073 -0.26601,-0.1401 -0.418382,-0.1973 l 0.698908,-0.6989 c 0.133798,0.083 0.249341,0.1722 0.349873,0.2658 l -0.630399,0.6304 z m 0.339555,-0.9553 0.632553,-0.6325 c 0.13974,0.095 0.259252,0.1836 0.355701,0.26 l -0.191129,0.1912 c -0.432013,-0.01 -0.684779,0.1107 -0.797125,0.1813 z m -0.904276,0.7073 c -0.13126,-0.042 -0.27168,-0.076 -0.42149,-0.1014 l 1.512269,-1.5122 c 0.117222,0.065 0.226686,0.1308 0.327354,0.1955 l -1.418133,1.4181 z m 1.076628,0.6298 0.508073,-0.5081 c 0.07944,0.1497 0.133618,0.3005 0.169493,0.4463 l -0.384955,0.3849 c -0.08178,-0.1056 -0.178679,-0.2154 -0.292611,-0.3231 z m 0.677543,1.0028 c 0,0 -0.08173,-0.2518 -0.301319,-0.5662 l 0.334906,-0.3349 c 0.08166,0.5 -0.03359,0.9011 -0.03359,0.9011 z m 0.133982,-2.511 0.113049,-0.113 c 0.111869,0.094 0.1731,0.1532 0.1731,0.1532 -0.102006,-0.019 -0.197026,-0.032 -0.286149,-0.04 z m -2.264107,-1.2769 -2.203782,2.2038 c -0.22079,0.027 -0.428044,0.036 -0.622414,0.03 l 2.29463,-2.2946 c 0.18208,0.01 0.359692,0.029 0.531566,0.061 z m -0.72519,-0.064 -2.287961,2.2879 c -0.174756,-0.014 -0.338105,-0.041 -0.49127,-0.078 l 2.154119,-2.1541 c 0.158948,-0.027 0.3208,-0.045 0.48587,-0.053 0.04674,0 0.09303,0 0.139242,0 z m -3.333885,0.8259 -0.709021,0.709 c -0.103252,-0.096 -0.19453,-0.1955 -0.275171,-0.2941 l 0.419448,-0.4195 c 0.183894,0.031 0.371984,0.029 0.564744,0 z m -0.725621,-0.041 -0.344952,0.3449 c -0.0816,-0.1096 -0.150285,-0.2166 -0.207229,-0.3156 l 0.185844,-0.1858 c 0.120329,0.071 0.242403,0.1218 0.366337,0.1565 z m 5.862278,-1.7092 c -4.666387,-1.6126 -6.94809096,0.6863 -6.94809096,0.6863 -0.120101,-0.6176 -0.120101,-1.4583 -0.120101,-1.4583 0.03431,-1.5783 2.02437796,-5.0438 7.82304396,-3.0537 5.7986671,1.9901 6.8623241,-1.8528 6.8623241,-1.8528 0.188725,0.3088 0.308802,1.4754 0.308802,1.4754 0.617607,3.2252 -3.259592,5.8158 -7.9259781,4.2031 z"
       id="path4" />
  </g>
</svg>
