<?xml version="1.0" encoding="utf-8"?>
<!-- Generator: Adobe Illustrator 15.1.0, SVG Export Plug-In . SVG Version: 6.00 Build 0)  -->
<!DOCTYPE svg PUBLIC "-//W3C//DTD SVG 1.1//EN" "http://www.w3.org/Graphics/SVG/1.1/DTD/svg11.dtd">
<svg version="1.1" id="Layer_1" xmlns="http://www.w3.org/2000/svg" xmlns:xlink="http://www.w3.org/1999/xlink" x="0px" y="0px"
	 width="16px" height="16px" viewBox="0 0 16 16" enable-background="new 0 0 16 16" xml:space="preserve">
<g>
	<path fill="#010101" d="M12.999,2.5H3C2.17,2.5,1.5,3.172,1.5,4v8.002c0,0.826,0.67,1.499,1.5,1.499h10
		c0.828,0,1.501-0.673,1.501-1.499V4C14.5,3.172,13.827,2.5,12.999,2.5z M13.5,12.002c0,0.272-0.225,0.499-0.501,0.499H3
		c-0.275,0-0.5-0.227-0.5-0.499V5.001h11V12.002z"/>
	<path fill="#010101" d="M7.999,10C7.724,10,7.5,9.775,7.5,9.499l0,0C7.5,9.226,7.724,9,7.999,9h2.5C10.773,9,11,9.226,11,9.499l0,0
		C11,9.775,10.773,10,10.498,10H7.999z"/>
	<polygon fill="#010101" points="4.975,6.5 3.699,6.5 5.45,8.25 3.699,10 4.975,10 6.725,8.25 	"/>
</g>
</svg>
