<?xml version="1.0" encoding="UTF-8" standalone="no"?>
<!-- Created with Inkscape (http://www.inkscape.org/) -->

<svg
   xmlns:dc="http://purl.org/dc/elements/1.1/"
   xmlns:cc="http://creativecommons.org/ns#"
   xmlns:rdf="http://www.w3.org/1999/02/22-rdf-syntax-ns#"
   xmlns:svg="http://www.w3.org/2000/svg"
   xmlns="http://www.w3.org/2000/svg"
   xmlns:sodipodi="http://sodipodi.sourceforge.net/DTD/sodipodi-0.dtd"
   xmlns:inkscape="http://www.inkscape.org/namespaces/inkscape"
   width="16"
   height="16"
   viewBox="0 0 16 16"
   id="svg4148"
   version="1.1"
   inkscape:version="0.91 r13725"
   sodipodi:docname="engrave.svg">
  <defs
     id="defs4150" />
  <sodipodi:namedview
     id="base"
     pagecolor="#ffffff"
     bordercolor="#666666"
     borderopacity="1.0"
     inkscape:pageopacity="0.0"
     inkscape:pageshadow="2"
     inkscape:zoom="5.6"
     inkscape:cx="-36.830808"
     inkscape:cy="11.419488"
     inkscape:document-units="px"
     inkscape:current-layer="layer1"
     showgrid="false"
     units="px"
     inkscape:window-width="1542"
     inkscape:window-height="620"
     inkscape:window-x="0"
     inkscape:window-y="389"
     inkscape:window-maximized="0" />
  <metadata
     id="metadata4153">
    <rdf:RDF>
      <cc:Work
         rdf:about="">
        <dc:format>image/svg+xml</dc:format>
        <dc:type
           rdf:resource="http://purl.org/dc/dcmitype/StillImage" />
        <dc:title></dc:title>
      </cc:Work>
    </rdf:RDF>
  </metadata>
  <g
     inkscape:label="Layer 1"
     inkscape:groupmode="layer"
     id="layer1"
     transform="translate(0,-1036.3622)">
    <g
       transform="matrix(0.17391304,0,0,0.17391304,-0.695652,1035.4579)"
       id="g4">
      <g
         id="g6">
        <g
           id="g8">
          <g
             id="g10">
            <g
               id="g12">
              <g
                 id="g14">
                <path
                   style="fill:#000000"
                   inkscape:connector-curvature="0"
                   d="m 75,38.5 c 6.1,3.6 8.8,9.2 9.6,16.3 0,0.4 -0.5,0.6 -0.8,0.4 -2.6,-1.9 -4.3,-4.9 -6.8,-6.9 -2.4,-2 -4.8,-4.6 -8,-5.1 0.9,4.7 1.3,9.6 1.2,14.4 -0.1,3.1 -0.7,5.9 -1.9,8.6 7.5,0.6 13.9,1.5 18.6,2.7 l 0,-31.6 0,-10 -73.8,0 0,44.4 c 3.7,-2.8 15.4,-5 30.2,-5.7 -0.3,-1.1 -0.5,-2.2 -0.5,-3.3 -0.1,-3 0.2,-6.1 0.7,-9.1 -2,0.3 -3.5,1.9 -5,3.2 -1.5,1.3 -2.6,3.2 -4.2,4.4 -0.2,0.1 -0.5,-0.1 -0.5,-0.3 0.5,-4.5 2.2,-8 6,-10.2 C 38.6,50 37.4,50 36,50.1 c -0.6,0 -1.9,0.4 -2.4,0 -0.2,-0.1 -0.2,-0.4 0,-0.5 3.3,-1.8 7.1,-2.6 10.6,-1.2 0.4,-0.9 0.3,-2.1 0.3,-3 0,-0.2 0.2,-0.4 0.5,-0.3 1.3,0.6 2.1,2 2.3,3.4 0.5,-0.2 1.1,-0.3 1.7,-0.4 2.1,-3.3 4.8,-6.2 8.1,-8.1 -3.9,-0.3 -7.3,1.2 -10.4,3.7 -0.4,0.3 -1,0 -0.8,-0.5 1.9,-6.6 11,-10.3 17.3,-8.1 0.3,-2.2 1.5,-4.3 3.6,-5.4 0.4,-0.2 0.7,0 0.8,0.4 0.1,1.5 0,3.4 0.5,4.8 5.6,-2.2 11.7,-0.9 17,1.9 0.2,0.1 0.2,0.3 0.2,0.4 0,0.2 -0.1,0.4 -0.2,0.4 -0.9,0.6 -2.9,0.1 -3.9,0 -2.3,0 -4.3,0 -6.2,0.9 z m -23.9,13 c 3,1.7 5.3,4.8 6.6,8 0.1,0.3 -0.3,0.5 -0.5,0.3 -1.3,-1.1 -2.7,-2.1 -4.1,-3.1 -1.7,-1.2 -3.9,-2.9 -6.1,-3.1 -0.1,0 -0.2,0 -0.3,0 -0.5,2.9 -0.4,6 0.3,8.8 0.3,1.1 0.8,2.2 1.4,3.3 1.6,0 3.3,-0.1 5,-0.1 2.1,0 4.2,0 6.3,0.1 1.7,-2.6 3.3,-5.3 4.1,-8.3 1.1,-4.6 1.2,-9.4 0.5,-14.1 -3.6,0 -7.4,3 -10.2,4.9 -0.2,0.1 -0.4,0.3 -0.6,0.4 2.2,0.9 4.2,2.6 4.8,4.8 0.1,0.3 -0.3,0.5 -0.5,0.3 -2.1,-1.4 -4.3,-2.4 -6.7,-2.2 z m 44.9,22.1 0,9.6 -42.7,0 -49.3,0 0,-64 92,0 0,54.4 z"
                   id="path16" />
                <path
                   style="fill:#000000"
                   inkscape:connector-curvature="0"
                   d="m 26.6,33.4 c 3.6,0 6.6,3 6.6,6.6 0,3.6 -2.9,6.6 -6.6,6.6 -3.7,0 -6.6,-3 -6.6,-6.6 0,-3.7 3,-6.6 6.6,-6.6 z"
                   id="path18" />
              </g>
            </g>
          </g>
        </g>
      </g>
    </g>
  </g>
</svg>
