<?xml version="1.0" encoding="utf-8"?>
<!-- Generator: Adobe Illustrator 15.1.0, SVG Export Plug-In . SVG Version: 6.00 Build 0)  -->
<!DOCTYPE svg PUBLIC "-//W3C//DTD SVG 1.1//EN" "http://www.w3.org/Graphics/SVG/1.1/DTD/svg11.dtd">
<svg version="1.1" id="Layer_1" xmlns="http://www.w3.org/2000/svg" xmlns:xlink="http://www.w3.org/1999/xlink" x="0px" y="0px"
	 width="24px" height="24px" viewBox="4 4 24 24" enable-background="new 4 4 24 24" xml:space="preserve">
<path fill="none" d="M-1-1h18v18H-1V-1z"/>
<g>
	<path d="M7.033,27H22.31V7.741H7.033V27z M8.363,9.069h12.616v16.602H8.363V9.069z"/>
	<path d="M11.932,6.33h11.706v10.067h1.329V5H11.932V6.33z"/>
	<path d="M15.335,10.608H9.691v5.644h5.644V10.608z M14.008,14.925h-2.986v-2.987h2.986V14.925z"/>
	<path d="M16.583,10.608h3.153v1.33h-3.153V10.608z"/>
	<path d="M16.583,12.766h3.153v1.33h-3.153V12.766z"/>
	<path d="M16.583,15.09h3.153v1.328h-3.153V15.09z"/>
	<path d="M9.608,17.869h10.128v1.326H9.608V17.869z"/>
	<path d="M9.608,20.31h10.128v1.329H9.608V20.31z"/>
	<path d="M9.608,22.602h10.128v1.329H9.608V22.602z"/>
</g>
</svg>
