<?xml version="1.0" encoding="UTF-8" standalone="no"?>
<svg
   xmlns:dc="http://purl.org/dc/elements/1.1/"
   xmlns:cc="http://creativecommons.org/ns#"
   xmlns:rdf="http://www.w3.org/1999/02/22-rdf-syntax-ns#"
   xmlns:svg="http://www.w3.org/2000/svg"
   xmlns="http://www.w3.org/2000/svg"
   xmlns:sodipodi="http://sodipodi.sourceforge.net/DTD/sodipodi-0.dtd"
   xmlns:inkscape="http://www.inkscape.org/namespaces/inkscape"
   version="1.1"
   x="0px"
   y="0px"
   viewBox="0 0 20 20"
   id="svg4379"
   inkscape:version="0.91 r13725"
   sodipodi:docname="icon-cart.svg"
   width="20"
   height="20">
  <metadata
     id="metadata4393">
    <rdf:RDF>
      <cc:Work
         rdf:about="">
        <dc:format>image/svg+xml</dc:format>
        <dc:type
           rdf:resource="http://purl.org/dc/dcmitype/StillImage" />
        <dc:title></dc:title>
      </cc:Work>
    </rdf:RDF>
  </metadata>
  <defs
     id="defs4391" />
  <sodipodi:namedview
     pagecolor="#ffffff"
     bordercolor="#666666"
     borderopacity="1"
     objecttolerance="10"
     gridtolerance="10"
     guidetolerance="10"
     inkscape:pageopacity="0"
     inkscape:pageshadow="2"
     inkscape:window-width="1792"
     inkscape:window-height="1071"
     id="namedview4389"
     showgrid="false"
     inkscape:zoom="27.68"
     inkscape:cx="8.015946"
     inkscape:cy="7.0141065"
     inkscape:window-x="0"
     inkscape:window-y="0"
     inkscape:window-maximized="1"
     inkscape:current-layer="svg4379" />
  <g
     transform="matrix(0.21305792,0,0,0.21305792,-0.65289602,-203.5612)"
     id="g4594">
    <path
       inkscape:connector-curvature="0"
       style="color:#000000;text-indent:0;text-transform:none;direction:ltr;block-progression:tb;baseline-shift:baseline;display:inline;overflow:visible;visibility:visible;fill:#000000;fill-opacity:1;stroke:none;marker:none;enable-background:accumulate"
       d="m 8.0003532,962.36219 c -1.6569,0 -3,1.34315 -3,3 0,1.65685 1.3431,3 3,3 l 9.9687998,0 c 4.9652,12.29749 9.8559,24.61749 14.7812,36.93751 l -4.5312,10.9062 c -0.3796,0.9093 -0.2728,2.0057 0.2751,2.8246 0.548,0.8189 1.5208,1.3358 2.5061,1.3317 l 50,0 c 1.5849,0.022 3.0427,-1.4149 3.0427,-3 0,-1.5851 -1.4578,-3.0224 -3.0427,-3 l -45.5,0 2.5938,-6.1875 48.1562,-3.8438 c 1.2605,-0.099 2.4015,-1.0809 2.6875,-2.3125 l 6,-25.99996 c 0.3924,-1.75123 -1.1429,-3.6621 -2.9375,-3.65625 l -65.9688,0 -3.25,-8.125 c -0.445,-1.09982 -1.5948,-1.87497 -2.7812,-1.875 z m 20.4374998,16 18.5625,0 0,9 -14.9688,0 z m 24.5625,0 12,0 0,9 -12,0 z m 18,0 17.2188,0 -2.0626,9 -15.1562,0 z m -36.5625,15 12.5625,0 0,8.09371 -9.0312,0.7188 z m 18.5625,0 12,0 0,6.65621 -12,0.9688 z m 18,0 13.75,0 -1.1875,5.1875 -12.5625,1 z m -30,29.00001 c -5.4873,0 -10,4.5126 -10,10 0,5.4873 4.5127,10 10,10 5.4873,0 10,-4.5127 10,-10 0,-5.4873 -4.5127,-10 -10,-10 z m 30,0 c -5.4873,0 -10,4.5127 -10,10 0,5.4873 4.5127,10 10,10 5.4873,0 10,-4.5127 10,-10 0,-5.4874 -4.5127,-10 -10,-10 z m -30,6 c 2.2447,0 4,1.7553 4,4 0,2.2447 -1.7553,4 -4,4 -2.2445,0 -4,-1.7554 -4,-4 0,-2.2446 1.7555,-4 4,-4 z m 30,0 c 2.2445,0 4,1.7554 4,4 0,2.2446 -1.7555,4 -4,4 -2.2447,0 -4,-1.7553 -4,-4 0,-2.2447 1.7553,-4 4,-4 z"
       visibility="visible"
       display="inline"
       overflow="visible"
       id="path4596" />
  </g>
</svg>
