<?xml version="1.0" encoding="utf-8"?>
<!-- Generator: Adobe Illustrator 15.1.0, SVG Export Plug-In . SVG Version: 6.00 Build 0)  -->
<!DOCTYPE svg PUBLIC "-//W3C//DTD SVG 1.1//EN" "http://www.w3.org/Graphics/SVG/1.1/DTD/svg11.dtd">
<svg version="1.1" id="Layer_1" xmlns="http://www.w3.org/2000/svg" xmlns:xlink="http://www.w3.org/1999/xlink" x="0px" y="0px"
	 width="28px" height="28px" viewBox="-2 -2 28 28" enable-background="new -2 -2 28 28" xml:space="preserve">
<g>
	<path d="M12.093,2.361c-3.705,0-6.718,3.012-6.718,6.715c0,1.89,0.983,3.353,1.778,4.533c0.448,0.664,0.913,1.352,0.913,1.748
		h1.972c0-1.001-0.607-1.899-1.252-2.854c-0.709-1.052-1.439-2.138-1.439-3.427c0-2.615,2.13-4.744,4.746-4.744
		c2.617,0,4.745,2.129,4.745,4.744c0,1.287-0.731,2.374-1.44,3.425c-0.644,0.954-1.251,1.854-1.251,2.855h1.972
		c0-0.398,0.465-1.087,0.917-1.756c0.79-1.175,1.773-2.636,1.773-4.525C18.809,5.373,15.795,2.361,12.093,2.361z"/>
	<path d="M8.12,21.336C8.12,21.295,8.117,21.375,8.12,21.336L8.12,21.336z"/>
	<path d="M12.028,5.513c-1.92,0-3.482,1.563-3.482,3.484h1.762c0-0.95,0.771-1.722,1.721-1.722V5.513z"/>
	<path d="M12.098,25.5c0.854,0,1.564-0.612,1.723-1.419h-3.444C10.533,24.89,11.244,25.5,12.098,25.5z"/>
	<rect x="11.005" y="-1.5" width="1.614" height="2.763"/>
	<rect x="1.082" y="7.14" width="2.764" height="1.615"/>
	<rect x="20.155" y="7.141" width="2.763" height="1.614"/>
	<rect x="17.809" y="0.724" transform="matrix(0.7092 0.705 -0.705 0.7092 6.8982 -12.513)" width="1.617" height="2.764"/>
	<rect x="3.884" y="1.008" transform="matrix(0.7055 0.7087 -0.7087 0.7055 2.8374 -3.1966)" width="2.763" height="1.617"/>
	<polygon points="8.206,17.631 12.099,17.631 8.262,18.973 8.262,20.257 16.175,17.489 16.175,16.421 8.206,16.421 	"/>
	<path d="M8.874,21.98c0.049,0.062,1.162,1.379,3.345,1.563v-1.219c-0.693-0.074-1.237-0.287-1.63-0.51l5.584-1.878V18.66
		l-7.858,2.642L8.874,21.98z"/>
</g>
</svg>
