<?xml version="1.0" encoding="utf-8"?>
<!-- Generator: Adobe Illustrator 15.1.0, SVG Export Plug-In . SVG Version: 6.00 Build 0)  -->
<!DOCTYPE svg PUBLIC "-//W3C//DTD SVG 1.1//EN" "http://www.w3.org/Graphics/SVG/1.1/DTD/svg11.dtd">
<svg version="1.1" id="Layer_1" xmlns="http://www.w3.org/2000/svg" xmlns:xlink="http://www.w3.org/1999/xlink" x="0px" y="0px"
	 width="48px" height="48px" viewBox="0 0 48 48" enable-background="new 0 0 48 48" xml:space="preserve">
<path fill="#010101" d="M42.693,5.262H5.309C4.489,5.262,4,5.75,4,6.571v27.493c0,0.818,0.817,1.31,1.637,1.31h23.254L28.81,33.51
	H6.174V12.965h35.373v20.544h-1.43c-0.139,0.396-0.421,0.733-0.798,0.933l-1.663,0.902l0.017,0.031h5.019
	c0.815,0,1.309-0.49,1.309-1.31V6.571C44.002,5.75,43.509,5.262,42.693,5.262z M12.125,6.108c0.522,0,0.943,0.421,0.943,0.941
	c0,0.521-0.422,0.948-0.943,0.948s-0.945-0.426-0.945-0.948C11.181,6.529,11.604,6.108,12.125,6.108z M9.549,6.108
	c0.521,0,0.944,0.421,0.944,0.941c0,0.521-0.422,0.948-0.944,0.948C9.028,7.997,8.6,7.571,8.6,7.049
	C8.6,6.529,9.029,6.108,9.549,6.108z M6.025,7.049C6.03,6.527,6.447,6.108,6.968,6.108s0.949,0.421,0.949,0.941
	c0,0.521-0.427,0.948-0.949,0.948S6.025,7.573,6.025,7.049z M41.543,11.453H6.174V9.184h35.373v2.269H41.543z M37.843,38.248
	L37.843,38.248l1.594,2.966c0.127,0.235,0.04,0.532-0.197,0.659l-1.498,0.804c-0.074,0.042-0.156,0.062-0.233,0.062
	c-0.174,0-0.342-0.095-0.43-0.256l-2.279-4.237l-1.15-2.13l-2.744,1.481c-0.067,0.037-0.149,0.056-0.228,0.056
	c-0.085,0-0.17-0.022-0.244-0.064c-0.144-0.082-0.24-0.237-0.245-0.402l-0.423-9.883c-0.006-0.18,0.092-0.354,0.248-0.443
	c0.074-0.05,0.155-0.075,0.23-0.075c0.102,0,0.196,0.037,0.282,0.1l8.262,5.652c0.141,0.1,0.219,0.26,0.212,0.43
	c-0.009,0.172-0.105,0.324-0.255,0.402l-2.738,1.476L37.843,38.248z M28.638,23.023l-8.088,4.602
	c-0.621,0.354-1.129,0.06-1.129-0.656v-9.177c0-0.715,0.509-1.009,1.129-0.657l8.088,4.604
	C29.258,22.092,29.258,22.67,28.638,23.023z"/>
</svg>
