<?xml version="1.0" encoding="utf-8"?>
<!-- Generator: Adobe Illustrator 15.1.0, SVG Export Plug-In . SVG Version: 6.00 Build 0)  -->
<!DOCTYPE svg PUBLIC "-//W3C//DTD SVG 1.1//EN" "http://www.w3.org/Graphics/SVG/1.1/DTD/svg11.dtd">
<svg version="1.1" id="Layer_1" xmlns="http://www.w3.org/2000/svg" xmlns:xlink="http://www.w3.org/1999/xlink" x="0px" y="0px"
	 width="30px" height="30px" viewBox="9 9 30 30" enable-background="new 9 9 30 30" xml:space="preserve">
<g>
	<path fill="#010101" d="M31.774,30.228H38.5c0-3.218-2.51-6.148-5.631-6.148c-1.321,0-2.543,0.482-3.509,1.32
		C30.646,26.623,31.519,28.297,31.774,30.228z"/>
	<circle fill="#010101" cx="32.869" cy="20.797" r="2.993"/>
	<path fill="#010101" d="M18.673,25.433c-0.965-0.871-2.189-1.416-3.542-1.416c-3.09,0-5.632,2.96-5.632,6.18h6.727
		C16.484,28.297,17.386,26.654,18.673,25.433z"/>
	<circle fill="#010101" cx="15.132" cy="20.797" r="2.993"/>
	<circle fill="#010101" cx="24.017" cy="19.864" r="3.765"/>
	<path fill="#010101" d="M16.903,31.901c0-4.313,3.187-7.822,7.08-7.822c3.895,0,7.082,3.51,7.082,7.822H16.903z"/>
</g>
</svg>
