<?xml version="1.0" encoding="utf-8"?>
<!-- Generator: Adobe Illustrator 15.1.0, SVG Export Plug-In . SVG Version: 6.00 Build 0)  -->
<!DOCTYPE svg PUBLIC "-//W3C//DTD SVG 1.1//EN" "http://www.w3.org/Graphics/SVG/1.1/DTD/svg11.dtd">
<svg version="1.1" id="Layer_1" xmlns="http://www.w3.org/2000/svg" xmlns:xlink="http://www.w3.org/1999/xlink" x="0px" y="0px"
	 width="16px" height="16px" viewBox="0 0 16 16" enable-background="new 0 0 16 16" xml:space="preserve">
<g>
	<path fill="#010101" d="M8.584,10.348l3.31,2.817c1.068,0.911,2.674,0.781,3.585-0.288l-4.933-4.199L8.584,10.348z"/>
	<path fill="#010101" d="M15.5,3.147c-0.91-1.069-2.516-1.198-3.585-0.287L7.813,6.352L6.119,4.91
		c0.27-1.03-0.039-2.168-0.903-2.904C4.677,1.548,4.019,1.324,3.362,1.324c-0.809,0-1.613,0.341-2.179,1.006
		c-1.025,1.203-0.88,3.01,0.324,4.034c0.538,0.457,1.197,0.682,1.853,0.682c0.371,0,0.738-0.081,1.084-0.222l1.407,1.197
		L4.485,9.184c-0.345-0.146-0.725-0.23-1.125-0.23c-1.58,0-2.861,1.281-2.861,2.861s1.281,2.861,2.861,2.861
		c1.58,0,2.861-1.281,2.861-2.861c0-0.238-0.038-0.468-0.093-0.688L15.5,3.147z M7.812,7.046c0.527,0,0.954,0.427,0.954,0.954
		c0,0.526-0.427,0.953-0.954,0.953S6.858,8.526,6.858,8C6.858,7.473,7.285,7.046,7.812,7.046z M2.331,5.395
		C2.008,5.12,1.811,4.735,1.777,4.313C1.743,3.889,1.875,3.478,2.151,3.154c0.302-0.355,0.744-0.559,1.211-0.559
		c0.267,0,0.661,0.065,1.029,0.379c0.324,0.275,0.52,0.66,0.555,1.082C4.979,4.48,4.847,4.892,4.571,5.215
		C4.269,5.57,3.827,5.774,3.36,5.774C3.094,5.774,2.699,5.709,2.331,5.395z M3.361,13.404c-0.877,0-1.589-0.713-1.589-1.59
		s0.712-1.589,1.589-1.589c0.876,0,1.589,0.712,1.589,1.589S4.237,13.404,3.361,13.404z"/>
</g>
</svg>
