<?xml version="1.0" encoding="utf-8"?>
<!-- Generator: Adobe Illustrator 15.0.0, SVG Export Plug-In . SVG Version: 6.00 Build 0)  -->
<!DOCTYPE svg PUBLIC "-//W3C//DTD SVG 1.1//EN" "http://www.w3.org/Graphics/SVG/1.1/DTD/svg11.dtd">
<svg version="1.1" id="Layer_1" xmlns="http://www.w3.org/2000/svg" xmlns:xlink="http://www.w3.org/1999/xlink" x="0px" y="0px"
	 width="16px" height="16px" viewBox="0 0 16 16" enable-background="new 0 0 16 16" xml:space="preserve">
<g>
	<polygon fill="#010202" points="3,4.5 6,4.5 6,3.5 3,3.5 2,3.5 2,4.5 2,7.5 3,7.5 	"/>
	<polygon fill="#010202" points="13,3.5 10,3.5 10,4.5 13,4.5 13,7.5 14,7.5 14,4.5 14,3.5 	"/>
	<polygon fill="#010202" points="3,8.5 2,8.5 2,11.5 2,12.5 3,12.5 6,12.5 6,11.5 3,11.5 	"/>
	<polygon fill="#010202" points="13,11.5 10,11.5 10,12.5 13,12.5 14,12.5 14,11.5 14,8.5 13,8.5 	"/>
	<rect x="4" y="5.5" fill="#010202" width="8" height="5"/>
</g>
</svg>
