<?xml version="1.0" encoding="utf-8"?>
<!-- Generator: Adobe Illustrator 15.1.0, SVG Export Plug-In . SVG Version: 6.00 Build 0)  -->
<!DOCTYPE svg PUBLIC "-//W3C//DTD SVG 1.1//EN" "http://www.w3.org/Graphics/SVG/1.1/DTD/svg11.dtd">
<svg version="1.1" id="Layer_1" xmlns="http://www.w3.org/2000/svg" xmlns:xlink="http://www.w3.org/1999/xlink" x="0px" y="0px"
	 width="16px" height="16px" viewBox="0 0 16 16" enable-background="new 0 0 16 16" xml:space="preserve">
<g>
	<path fill="#010101" d="M1.702,1.5C1.581,1.5,1.5,1.581,1.5,1.703v1.625c0,0.122,0.081,0.203,0.202,0.203h1.626
		c0.122,0,0.203-0.081,0.203-0.203V1.703C3.531,1.581,3.45,1.5,3.328,1.5H1.702z M5.359,1.5c-0.123,0-0.203,0.081-0.203,0.203v1.625
		c0,0.122,0.08,0.203,0.203,0.203h1.625c0.122,0,0.203-0.081,0.203-0.203V1.703c0-0.122-0.081-0.203-0.203-0.203H5.359z M9.016,1.5
		c-0.122,0-0.203,0.081-0.203,0.203v1.625c0,0.122,0.081,0.203,0.203,0.203h1.625c0.121,0,0.203-0.081,0.203-0.203V1.703
		c0-0.122-0.082-0.203-0.203-0.203H9.016z M12.672,1.5c-0.121,0-0.203,0.081-0.203,0.203v1.625c0,0.122,0.082,0.203,0.203,0.203
		h1.625c0.121,0,0.203-0.081,0.203-0.203V1.703c0-0.122-0.082-0.203-0.203-0.203H12.672z M1.702,5.156
		C1.581,5.156,1.5,5.237,1.5,5.359v1.625c0,0.122,0.081,0.203,0.202,0.203h1.626c0.122,0,0.203-0.081,0.203-0.203V5.359
		c0-0.122-0.081-0.203-0.203-0.203H1.702z M5.359,5.156c-0.123,0-0.203,0.081-0.203,0.203v1.625c0,0.122,0.08,0.203,0.203,0.203
		h1.625c0.122,0,0.203-0.081,0.203-0.203V5.359c0-0.122-0.081-0.203-0.203-0.203H5.359z M9.016,5.156
		c-0.122,0-0.203,0.081-0.203,0.203v1.625c0,0.122,0.081,0.203,0.203,0.203h1.625c0.121,0,0.203-0.081,0.203-0.203V5.359
		c0-0.122-0.082-0.203-0.203-0.203H9.016z M12.672,5.156c-0.121,0-0.203,0.081-0.203,0.203v1.625c0,0.122,0.082,0.203,0.203,0.203
		h1.625c0.121,0,0.203-0.081,0.203-0.203V5.359c0-0.122-0.082-0.203-0.203-0.203H12.672z M1.702,8.813
		C1.581,8.813,1.5,8.894,1.5,9.016v1.625c0,0.121,0.081,0.203,0.202,0.203h1.626c0.122,0,0.203-0.082,0.203-0.203V9.016
		c0-0.122-0.081-0.203-0.203-0.203H1.702z M5.359,8.813c-0.123,0-0.203,0.081-0.203,0.203v1.625c0,0.121,0.08,0.203,0.203,0.203
		h1.625c0.122,0,0.203-0.082,0.203-0.203V9.016c0-0.122-0.081-0.203-0.203-0.203H5.359z M9.016,8.813
		c-0.122,0-0.203,0.081-0.203,0.203v1.625c0,0.121,0.081,0.203,0.203,0.203h1.625c0.121,0,0.203-0.082,0.203-0.203V9.016
		c0-0.122-0.082-0.203-0.203-0.203H9.016z M12.672,8.813c-0.121,0-0.203,0.081-0.203,0.203v1.625c0,0.121,0.082,0.203,0.203,0.203
		h1.625c0.121,0,0.203-0.082,0.203-0.203V9.016c0-0.122-0.082-0.203-0.203-0.203H12.672z M1.702,12.468
		c-0.121,0-0.202,0.083-0.202,0.204v1.624c0,0.123,0.081,0.204,0.202,0.204h1.626c0.122,0,0.203-0.081,0.203-0.204v-1.624
		c0-0.121-0.081-0.204-0.203-0.204H1.702z M5.359,12.468c-0.123,0-0.203,0.083-0.203,0.204v1.624c0,0.123,0.08,0.204,0.203,0.204
		h1.625c0.122,0,0.203-0.081,0.203-0.204v-1.624c0-0.121-0.081-0.204-0.203-0.204H5.359z M9.016,12.468
		c-0.122,0-0.203,0.083-0.203,0.204v1.624c0,0.123,0.081,0.204,0.203,0.204h1.625c0.121,0,0.203-0.081,0.203-0.204v-1.624
		c0-0.121-0.082-0.204-0.203-0.204H9.016z M12.672,12.468c-0.121,0-0.203,0.083-0.203,0.204v1.624c0,0.123,0.082,0.204,0.203,0.204
		h1.625c0.121,0,0.203-0.081,0.203-0.204v-1.624c0-0.121-0.082-0.204-0.203-0.204H12.672z"/>
</g>
</svg>
