<?xml version="1.0" encoding="utf-8"?>
<!-- Generator: Adobe Illustrator 15.1.0, SVG Export Plug-In . SVG Version: 6.00 Build 0)  -->
<!DOCTYPE svg PUBLIC "-//W3C//DTD SVG 1.1//EN" "http://www.w3.org/Graphics/SVG/1.1/DTD/svg11.dtd">
<svg version="1.1" id="Layer_1" xmlns="http://www.w3.org/2000/svg" xmlns:xlink="http://www.w3.org/1999/xlink" x="0px" y="0px"
	 width="16px" height="16px" viewBox="0 0 16 16" enable-background="new 0 0 16 16" xml:space="preserve">
<g>
	<g>
		<g>
			<g>
				<g>
					<g>
						<defs>
							<path id="SVGID_1_" d="M1.101,8.801l6.987-0.735L5.23,1.653C2.394,2.914,0.775,5.715,1.101,8.801"/>
						</defs>
						<clipPath id="SVGID_2_">
							<use xlink:href="#SVGID_1_"  overflow="visible"/>
						</clipPath>
						<g clip-path="url(#SVGID_2_)">
							<path fill="#010101" d="M6.017,11.477c-0.048,0-0.096-0.021-0.132-0.055L-1.62,3.915c-0.075-0.072-0.075-0.189,0-0.263
								c0.072-0.073,0.19-0.073,0.263,0l7.506,7.504c0.072,0.072,0.072,0.191,0,0.266C6.112,11.455,6.063,11.477,6.017,11.477z"/>
						</g>
					</g>
				</g>
			</g>
		</g>
	</g>
	<g>
		<g>
			<g>
				<g>
					<g>
						<defs>
							<path id="SVGID_3_" d="M1.101,8.801l6.987-0.735L5.23,1.653C2.394,2.914,0.775,5.715,1.101,8.801"/>
						</defs>
						<clipPath id="SVGID_4_">
							<use xlink:href="#SVGID_3_"  overflow="visible"/>
						</clipPath>
						<g clip-path="url(#SVGID_4_)">
							<path fill="#010101" d="M5.356,12.139c-0.048,0-0.095-0.021-0.132-0.057l-7.506-7.507c-0.072-0.072-0.072-0.191,0-0.263
								c0.073-0.075,0.192-0.075,0.265,0l7.505,7.504c0.072,0.074,0.072,0.189,0,0.266C5.452,12.117,5.405,12.139,5.356,12.139z"/>
						</g>
					</g>
				</g>
			</g>
		</g>
	</g>
	<g>
		<g>
			<g>
				<g>
					<g>
						<defs>
							<path id="SVGID_5_" d="M1.101,8.801l6.987-0.735L5.23,1.653C2.394,2.914,0.775,5.715,1.101,8.801"/>
						</defs>
						<clipPath id="SVGID_6_">
							<use xlink:href="#SVGID_5_"  overflow="visible"/>
						</clipPath>
						<g clip-path="url(#SVGID_6_)">
							<path fill="#010101" d="M5.329,8.149c-0.049,0-0.096-0.019-0.132-0.056l-7.505-7.505c-0.072-0.074-0.072-0.191,0-0.265
								c0.073-0.072,0.19-0.072,0.264,0L5.46,7.83c0.073,0.072,0.073,0.191,0,0.263C5.423,8.13,5.376,8.149,5.329,8.149z"/>
						</g>
					</g>
				</g>
			</g>
		</g>
	</g>
	<g>
		<g>
			<g>
				<g>
					<g>
						<defs>
							<path id="SVGID_7_" d="M1.101,8.801l6.987-0.735L5.23,1.653C2.394,2.914,0.775,5.715,1.101,8.801"/>
						</defs>
						<clipPath id="SVGID_8_">
							<use xlink:href="#SVGID_7_"  overflow="visible"/>
						</clipPath>
						<g clip-path="url(#SVGID_8_)">
							<path fill="#010101" d="M6.677,10.814c-0.048,0-0.096-0.018-0.132-0.051l-7.506-7.508c-0.073-0.072-0.073-0.191,0-0.263
								c0.074-0.073,0.192-0.073,0.264,0l7.507,7.506c0.072,0.072,0.072,0.191,0,0.264C6.772,10.797,6.724,10.814,6.677,10.814z"/>
						</g>
					</g>
				</g>
			</g>
		</g>
	</g>
	<g>
		<g>
			<g>
				<g>
					<defs>
						<path id="SVGID_9_" d="M1.101,8.801l6.987-0.735L5.23,1.653C2.394,2.914,0.775,5.715,1.101,8.801"/>
					</defs>
					<clipPath id="SVGID_10_">
						<use xlink:href="#SVGID_9_"  overflow="visible"/>
					</clipPath>
					<g clip-path="url(#SVGID_10_)">
						<path fill="#010101" d="M6.032,6.214c-0.047,0-0.095-0.02-0.13-0.056l-7.506-7.505c-0.073-0.072-0.073-0.191,0-0.264
							c0.073-0.072,0.191-0.072,0.265,0l7.505,7.506c0.072,0.073,0.072,0.189,0,0.263C6.128,6.196,6.081,6.214,6.032,6.214z"/>
					</g>
				</g>
			</g>
		</g>
	</g>
	<g>
		<g>
			<g>
				<g>
					<g>
						<defs>
							<path id="SVGID_11_" d="M1.101,8.801l6.987-0.735L5.23,1.653C2.394,2.914,0.775,5.715,1.101,8.801"/>
						</defs>
						<clipPath id="SVGID_12_">
							<use xlink:href="#SVGID_11_"  overflow="visible"/>
						</clipPath>
						<g clip-path="url(#SVGID_12_)">
							<path fill="#010101" d="M5.311,6.811c-0.048,0-0.097-0.019-0.132-0.053L-2.327-0.75C-2.4-0.823-2.4-0.94-2.327-1.013
								c0.073-0.074,0.191-0.074,0.263,0l7.506,7.504c0.073,0.074,0.073,0.191,0,0.266C5.406,6.792,5.358,6.811,5.311,6.811z"/>
						</g>
					</g>
				</g>
			</g>
		</g>
	</g>
	<g>
		<g>
			<g>
				<g>
					<g>
						<defs>
							<path id="SVGID_13_" d="M1.101,8.801l6.987-0.735L5.23,1.653C2.394,2.914,0.775,5.715,1.101,8.801"/>
						</defs>
						<clipPath id="SVGID_14_">
							<use xlink:href="#SVGID_13_"  overflow="visible"/>
						</clipPath>
						<g clip-path="url(#SVGID_14_)">
							<path fill="#010101" d="M9.976,7.516c-0.048,0-0.095-0.018-0.132-0.053L2.338-0.043c-0.073-0.072-0.073-0.191,0-0.265
								c0.073-0.072,0.19-0.072,0.265,0l7.504,7.506c0.072,0.072,0.072,0.191,0,0.265C10.07,7.499,10.023,7.516,9.976,7.516z"/>
						</g>
					</g>
				</g>
			</g>
		</g>
	</g>
	<g>
		<g>
			<g>
				<g>
					<g>
						<defs>
							<path id="SVGID_15_" d="M1.101,8.801l6.987-0.735L5.23,1.653C2.394,2.914,0.775,5.715,1.101,8.801"/>
						</defs>
						<clipPath id="SVGID_16_">
							<use xlink:href="#SVGID_15_"  overflow="visible"/>
						</clipPath>
						<g clip-path="url(#SVGID_16_)">
							<path fill="#010101" d="M6.373,5.234c-0.048,0-0.097-0.019-0.132-0.055l-7.506-7.506c-0.073-0.072-0.073-0.191,0-0.263
								c0.073-0.074,0.19-0.074,0.265,0l7.505,7.504c0.072,0.074,0.072,0.191,0,0.265C6.468,5.217,6.421,5.234,6.373,5.234z"/>
						</g>
					</g>
				</g>
			</g>
		</g>
	</g>
	<g>
		<g>
			<g>
				<g>
					<g>
						<defs>
							<path id="SVGID_17_" d="M1.101,8.801l6.987-0.735L5.23,1.653C2.394,2.914,0.775,5.715,1.101,8.801"/>
						</defs>
						<clipPath id="SVGID_18_">
							<use xlink:href="#SVGID_17_"  overflow="visible"/>
						</clipPath>
						<g clip-path="url(#SVGID_18_)">
							<path fill="#010101" d="M11.296,6.197c-0.048,0-0.097-0.019-0.132-0.055L3.659-1.364c-0.074-0.072-0.074-0.191,0-0.264
								c0.073-0.072,0.19-0.072,0.264,0l7.505,7.506c0.072,0.073,0.072,0.19,0,0.264C11.391,6.179,11.343,6.197,11.296,6.197z"/>
						</g>
					</g>
				</g>
			</g>
		</g>
	</g>
	<g>
		<g>
			<g>
				<g>
					<g>
						<defs>
							<path id="SVGID_19_" d="M1.101,8.801l6.987-0.735L5.23,1.653C2.394,2.914,0.775,5.715,1.101,8.801"/>
						</defs>
						<clipPath id="SVGID_20_">
							<use xlink:href="#SVGID_19_"  overflow="visible"/>
						</clipPath>
						<g clip-path="url(#SVGID_20_)">
							<path fill="#010101" d="M10.636,6.857c-0.048,0-0.097-0.019-0.132-0.055L2.999-0.704c-0.073-0.074-0.073-0.191,0-0.265
								c0.073-0.073,0.19-0.073,0.265,0l7.504,7.506c0.072,0.072,0.072,0.191,0,0.265C10.73,6.838,10.683,6.857,10.636,6.857z"/>
						</g>
					</g>
				</g>
			</g>
		</g>
	</g>
	<g>
		<g>
			<g>
				<g>
					<g>
						<g>
							<defs>
								<path id="SVGID_21_" d="M8.058,7.913L1.099,8.647C1.126,8.903,1.16,9.123,1.214,9.373c0.804,3.795,4.519,6.217,8.298,5.412"
									/>
							</defs>
							<clipPath id="SVGID_22_">
								<use xlink:href="#SVGID_21_"  overflow="visible"/>
							</clipPath>
							<g clip-path="url(#SVGID_22_)">
								<path fill="#010101" d="M10.008,14.693c0-0.152,0.127-0.277,0.282-0.277l0,0c0.153,0,0.278,0.125,0.278,0.277l0,0
									c0,0.154-0.125,0.277-0.278,0.277l0,0C10.135,14.971,10.008,14.848,10.008,14.693z M8.9,14.693
									c0-0.152,0.127-0.277,0.283-0.277l0,0c0.153,0,0.278,0.125,0.278,0.277l0,0c0,0.154-0.125,0.277-0.278,0.277l0,0
									C9.027,14.971,8.9,14.848,8.9,14.693z M7.794,14.693c0-0.152,0.127-0.277,0.279-0.277l0,0c0.155,0,0.28,0.125,0.28,0.277
									l0,0c0,0.154-0.125,0.277-0.28,0.277l0,0C7.92,14.971,7.794,14.848,7.794,14.693z M6.687,14.693
									c0-0.152,0.124-0.277,0.279-0.277l0,0c0.155,0,0.281,0.125,0.281,0.277l0,0c0,0.154-0.126,0.277-0.281,0.277l0,0
									C6.811,14.971,6.687,14.848,6.687,14.693z M5.58,14.693c0-0.152,0.125-0.277,0.28-0.277l0,0
									c0.154,0,0.279,0.125,0.279,0.277l0,0c0,0.154-0.125,0.277-0.279,0.277l0,0C5.705,14.971,5.58,14.848,5.58,14.693z
									 M4.474,14.693c0-0.152,0.125-0.277,0.28-0.277l0,0c0.153,0,0.279,0.125,0.279,0.277l0,0c0,0.154-0.126,0.277-0.279,0.277
									l0,0C4.599,14.971,4.474,14.848,4.474,14.693z M3.366,14.693c0-0.152,0.125-0.277,0.278-0.277l0,0
									c0.155,0,0.281,0.125,0.281,0.277l0,0c0,0.154-0.126,0.277-0.281,0.277l0,0C3.491,14.971,3.366,14.848,3.366,14.693z
									 M2.257,14.693c0-0.152,0.125-0.277,0.28-0.277l0,0c0.157,0,0.28,0.125,0.28,0.277l0,0c0,0.154-0.125,0.277-0.28,0.277l0,0
									C2.382,14.971,2.257,14.848,2.257,14.693z M1.15,14.693c0-0.152,0.125-0.277,0.279-0.277l0,0c0.157,0,0.28,0.125,0.28,0.277
									l0,0c0,0.154-0.125,0.277-0.28,0.277l0,0C1.275,14.971,1.15,14.848,1.15,14.693z M0.043,14.693
									c0-0.152,0.126-0.277,0.281-0.277l0,0c0.155,0,0.28,0.125,0.28,0.277l0,0c0,0.154-0.125,0.277-0.28,0.277l0,0
									C0.169,14.971,0.043,14.848,0.043,14.693z"/>
							</g>
						</g>
					</g>
				</g>
			</g>
		</g>
		<g>
			<g>
				<g>
					<g>
						<g>
							<defs>
								<path id="SVGID_23_" d="M8.058,7.913L1.099,8.647C1.126,8.903,1.16,9.123,1.214,9.373c0.804,3.795,4.519,6.217,8.298,5.412"
									/>
							</defs>
							<clipPath id="SVGID_24_">
								<use xlink:href="#SVGID_23_"  overflow="visible"/>
							</clipPath>
							<g clip-path="url(#SVGID_24_)">
								<path fill="#010101" d="M11.396,14.971H-0.782c-0.155,0-0.279-0.123-0.279-0.277c0-0.152,0.125-0.281,0.279-0.281h12.177
									c0.153,0,0.279,0.129,0.279,0.281C11.675,14.848,11.55,14.971,11.396,14.971z"/>
							</g>
						</g>
					</g>
				</g>
			</g>
		</g>
		<g>
			<g>
				<g>
					<g>
						<g>
							<defs>
								<path id="SVGID_25_" d="M8.058,7.913L1.099,8.647C1.126,8.903,1.16,9.123,1.214,9.373c0.804,3.795,4.519,6.217,8.298,5.412"
									/>
							</defs>
							<clipPath id="SVGID_26_">
								<use xlink:href="#SVGID_25_"  overflow="visible"/>
							</clipPath>
							<g clip-path="url(#SVGID_26_)">
								<path fill="#010101" d="M10.008,15.627c0-0.156,0.127-0.281,0.282-0.281l0,0c0.153,0,0.278,0.125,0.278,0.281l0,0
									c0,0.15-0.125,0.281-0.278,0.281l0,0C10.135,15.908,10.008,15.777,10.008,15.627z M8.902,15.627
									c0-0.156,0.125-0.281,0.28-0.281l0,0c0.153,0,0.278,0.125,0.278,0.281l0,0c0,0.15-0.125,0.281-0.278,0.281l0,0
									C9.027,15.908,8.902,15.777,8.902,15.627z M7.794,15.627c0-0.156,0.127-0.281,0.279-0.281l0,0
									c0.155,0,0.28,0.125,0.28,0.281l0,0c0,0.15-0.125,0.281-0.28,0.281l0,0C7.92,15.908,7.794,15.777,7.794,15.627z
									 M6.687,15.627c0-0.156,0.124-0.281,0.279-0.281l0,0c0.155,0,0.281,0.125,0.281,0.281l0,0c0,0.15-0.126,0.281-0.281,0.281
									l0,0C6.811,15.908,6.687,15.777,6.687,15.627z M5.58,15.627c0-0.156,0.125-0.281,0.28-0.281l0,0
									c0.154,0,0.279,0.125,0.279,0.281l0,0c0,0.15-0.125,0.281-0.279,0.281l0,0C5.705,15.908,5.58,15.777,5.58,15.627z
									 M4.474,15.627c0-0.156,0.125-0.281,0.28-0.281l0,0c0.153,0,0.279,0.125,0.279,0.281l0,0c0,0.15-0.126,0.281-0.279,0.281
									l0,0C4.599,15.908,4.474,15.777,4.474,15.627z M3.363,15.627c0-0.156,0.128-0.281,0.281-0.281l0,0
									c0.155,0,0.279,0.125,0.279,0.281l0,0c0,0.15-0.125,0.281-0.279,0.281l0,0C3.491,15.908,3.363,15.777,3.363,15.627z
									 M2.257,15.627c0-0.156,0.125-0.281,0.28-0.281l0,0c0.157,0,0.28,0.125,0.28,0.281l0,0c0,0.15-0.125,0.281-0.28,0.281l0,0
									C2.382,15.908,2.257,15.777,2.257,15.627z M1.15,15.627c0-0.156,0.125-0.281,0.279-0.281l0,0c0.157,0,0.28,0.125,0.28,0.281
									l0,0c0,0.15-0.125,0.281-0.28,0.281l0,0C1.275,15.908,1.15,15.777,1.15,15.627z M0.043,15.627
									c0-0.156,0.126-0.281,0.281-0.281l0,0c0.155,0,0.28,0.125,0.28,0.281l0,0c0,0.15-0.125,0.281-0.28,0.281l0,0
									C0.169,15.908,0.043,15.777,0.043,15.627z"/>
							</g>
						</g>
					</g>
				</g>
			</g>
		</g>
		<g>
			<g>
				<g>
					<g>
						<g>
							<defs>
								<path id="SVGID_27_" d="M8.058,7.913L1.099,8.647C1.126,8.903,1.16,9.123,1.214,9.373c0.804,3.795,4.519,6.217,8.298,5.412"
									/>
							</defs>
							<clipPath id="SVGID_28_">
								<use xlink:href="#SVGID_27_"  overflow="visible"/>
							</clipPath>
							<g clip-path="url(#SVGID_28_)">
								<path fill="#010101" d="M11.396,15.906H-0.782c-0.155,0-0.279-0.125-0.279-0.281c0-0.154,0.125-0.279,0.279-0.279h12.177
									c0.153,0,0.279,0.125,0.279,0.279C11.675,15.781,11.55,15.906,11.396,15.906z"/>
							</g>
						</g>
					</g>
				</g>
			</g>
		</g>
		<g>
			<g>
				<g>
					<g>
						<g>
							<defs>
								<path id="SVGID_29_" d="M8.058,7.913L1.099,8.647C1.126,8.903,1.16,9.123,1.214,9.373c0.804,3.795,4.519,6.217,8.298,5.412"
									/>
							</defs>
							<clipPath id="SVGID_30_">
								<use xlink:href="#SVGID_29_"  overflow="visible"/>
							</clipPath>
							<g clip-path="url(#SVGID_30_)">
								<path fill="#010101" d="M10.008,12.824c0-0.152,0.127-0.277,0.282-0.277l0,0c0.153,0,0.278,0.125,0.278,0.277l0,0
									c0,0.154-0.125,0.285-0.278,0.285l0,0C10.135,13.109,10.008,12.979,10.008,12.824z M8.902,12.824
									c0-0.152,0.125-0.277,0.278-0.277l0,0c0.155,0,0.28,0.125,0.28,0.277l0,0c0,0.154-0.125,0.285-0.28,0.285l0,0
									C9.027,13.109,8.902,12.979,8.902,12.824z M7.794,12.824c0-0.152,0.124-0.277,0.279-0.277l0,0
									c0.155,0,0.28,0.125,0.28,0.277l0,0c0,0.154-0.125,0.285-0.28,0.285l0,0C7.918,13.109,7.794,12.979,7.794,12.824z
									 M6.687,12.824c0-0.152,0.124-0.277,0.279-0.277l0,0c0.155,0,0.281,0.125,0.281,0.277l0,0c0,0.154-0.126,0.285-0.281,0.285
									l0,0C6.811,13.109,6.687,12.979,6.687,12.824z M5.58,12.824c0-0.152,0.125-0.277,0.28-0.277l0,0
									c0.154,0,0.279,0.125,0.279,0.277l0,0c0,0.154-0.125,0.285-0.279,0.285l0,0C5.705,13.109,5.58,12.979,5.58,12.824z
									 M4.474,12.824c0-0.152,0.125-0.277,0.28-0.277l0,0c0.153,0,0.279,0.125,0.279,0.277l0,0c0,0.154-0.126,0.285-0.279,0.285
									l0,0C4.599,13.109,4.474,12.979,4.474,12.824z M3.366,12.824c0-0.152,0.125-0.277,0.278-0.277l0,0
									c0.155,0,0.281,0.125,0.281,0.277l0,0c0,0.154-0.126,0.285-0.281,0.285l0,0C3.491,13.109,3.366,12.979,3.366,12.824z
									 M2.257,12.824c0-0.152,0.125-0.277,0.28-0.277l0,0c0.157,0,0.28,0.125,0.28,0.277l0,0c0,0.154-0.125,0.285-0.28,0.285l0,0
									C2.382,13.109,2.257,12.979,2.257,12.824z M1.15,12.824c0-0.152,0.125-0.277,0.279-0.277l0,0c0.157,0,0.28,0.125,0.28,0.277
									l0,0c0,0.154-0.125,0.285-0.28,0.285l0,0C1.275,13.109,1.15,12.979,1.15,12.824z M0.043,12.824
									c0-0.152,0.126-0.277,0.281-0.277l0,0c0.155,0,0.28,0.125,0.28,0.277l0,0c0,0.154-0.125,0.285-0.28,0.285l0,0
									C0.169,13.109,0.043,12.979,0.043,12.824z"/>
							</g>
						</g>
					</g>
				</g>
			</g>
		</g>
		<g>
			<g>
				<g>
					<g>
						<g>
							<defs>
								<path id="SVGID_31_" d="M8.058,7.913L1.099,8.647C1.126,8.903,1.16,9.123,1.214,9.373c0.804,3.795,4.519,6.217,8.298,5.412"
									/>
							</defs>
							<clipPath id="SVGID_32_">
								<use xlink:href="#SVGID_31_"  overflow="visible"/>
							</clipPath>
							<g clip-path="url(#SVGID_32_)">
								<path fill="#010101" d="M10.008,13.762c0-0.156,0.127-0.281,0.282-0.281l0,0c0.153,0,0.278,0.125,0.278,0.281l0,0
									c0,0.152-0.125,0.277-0.278,0.277l0,0C10.135,14.039,10.008,13.914,10.008,13.762z M8.902,13.762
									c0-0.156,0.125-0.281,0.28-0.281l0,0c0.153,0,0.278,0.125,0.278,0.281l0,0c0,0.152-0.125,0.277-0.278,0.277l0,0
									C9.027,14.039,8.902,13.914,8.902,13.762z M7.794,13.762c0-0.156,0.127-0.281,0.279-0.281l0,0
									c0.155,0,0.28,0.125,0.28,0.281l0,0c0,0.152-0.125,0.277-0.28,0.277l0,0C7.92,14.039,7.794,13.914,7.794,13.762z
									 M6.687,13.762c0-0.156,0.124-0.281,0.279-0.281l0,0c0.155,0,0.281,0.125,0.281,0.281l0,0c0,0.152-0.126,0.277-0.281,0.277
									l0,0C6.811,14.039,6.687,13.914,6.687,13.762z M5.58,13.762c0-0.156,0.125-0.281,0.28-0.281l0,0
									c0.154,0,0.279,0.125,0.279,0.281l0,0c0,0.152-0.125,0.277-0.279,0.277l0,0C5.705,14.039,5.58,13.914,5.58,13.762z
									 M4.474,13.762c0-0.156,0.125-0.281,0.28-0.281l0,0c0.153,0,0.279,0.125,0.279,0.281l0,0c0,0.152-0.126,0.277-0.279,0.277
									l0,0C4.599,14.039,4.474,13.914,4.474,13.762z M3.366,13.762c0-0.156,0.125-0.281,0.278-0.281l0,0
									c0.155,0,0.279,0.125,0.279,0.281l0,0c0,0.152-0.125,0.277-0.279,0.277l0,0C3.491,14.039,3.366,13.914,3.366,13.762z
									 M2.257,13.762c0-0.156,0.125-0.281,0.28-0.281l0,0c0.157,0,0.28,0.125,0.28,0.281l0,0c0,0.152-0.125,0.277-0.28,0.277l0,0
									C2.382,14.039,2.257,13.914,2.257,13.762z M1.15,13.762c0-0.156,0.125-0.281,0.279-0.281l0,0c0.157,0,0.28,0.125,0.28,0.281
									l0,0c0,0.152-0.125,0.277-0.28,0.277l0,0C1.275,14.039,1.15,13.914,1.15,13.762z M0.043,13.762
									c0-0.156,0.126-0.281,0.281-0.281l0,0c0.155,0,0.28,0.125,0.28,0.281l0,0c0,0.152-0.125,0.277-0.28,0.277l0,0
									C0.169,14.039,0.043,13.914,0.043,13.762z"/>
							</g>
						</g>
					</g>
				</g>
			</g>
		</g>
		<g>
			<g>
				<g>
					<g>
						<g>
							<defs>
								<path id="SVGID_33_" d="M8.058,7.913L1.099,8.647C1.126,8.903,1.16,9.123,1.214,9.373c0.804,3.795,4.519,6.217,8.298,5.412"
									/>
							</defs>
							<clipPath id="SVGID_34_">
								<use xlink:href="#SVGID_33_"  overflow="visible"/>
							</clipPath>
							<g clip-path="url(#SVGID_34_)">
								<path fill="#010101" d="M10.008,10.961c0-0.156,0.127-0.283,0.282-0.283l0,0c0.153,0,0.278,0.127,0.278,0.283l0,0
									c0,0.152-0.125,0.279-0.278,0.279l0,0C10.135,11.24,10.008,11.113,10.008,10.961z M8.9,10.961
									c0-0.156,0.127-0.283,0.281-0.283l0,0c0.155,0,0.28,0.127,0.28,0.283l0,0c0,0.152-0.125,0.279-0.28,0.279l0,0
									C9.027,11.24,8.9,11.113,8.9,10.961z M7.794,10.961c0-0.156,0.124-0.283,0.279-0.283l0,0c0.155,0,0.28,0.127,0.28,0.283l0,0
									c0,0.152-0.125,0.279-0.28,0.279l0,0C7.918,11.24,7.794,11.113,7.794,10.961z M6.687,10.961
									c0-0.156,0.124-0.283,0.279-0.283l0,0c0.155,0,0.281,0.127,0.281,0.283l0,0c0,0.152-0.126,0.279-0.281,0.279l0,0
									C6.811,11.24,6.687,11.113,6.687,10.961z M5.58,10.961c0-0.156,0.125-0.283,0.28-0.283l0,0c0.154,0,0.279,0.127,0.279,0.283
									l0,0c0,0.152-0.125,0.279-0.279,0.279l0,0C5.705,11.24,5.58,11.113,5.58,10.961z M4.474,10.961
									c0-0.156,0.125-0.283,0.28-0.283l0,0c0.154,0,0.279,0.127,0.279,0.283l0,0c0,0.152-0.125,0.279-0.279,0.279l0,0
									C4.599,11.24,4.474,11.113,4.474,10.961z M3.363,10.961c0-0.156,0.128-0.283,0.283-0.283l0,0
									c0.153,0,0.278,0.127,0.278,0.283l0,0c0,0.152-0.125,0.279-0.278,0.279l0,0C3.491,11.24,3.363,11.113,3.363,10.961z
									 M2.257,10.961c0-0.156,0.125-0.283,0.28-0.283l0,0c0.157,0,0.28,0.127,0.28,0.283l0,0c0,0.152-0.125,0.279-0.28,0.279l0,0
									C2.382,11.24,2.257,11.113,2.257,10.961z M1.15,10.961c0-0.156,0.125-0.283,0.279-0.283l0,0c0.157,0,0.28,0.127,0.28,0.283
									l0,0c0,0.152-0.125,0.279-0.28,0.279l0,0C1.275,11.24,1.15,11.113,1.15,10.961z M0.043,10.961
									c0-0.156,0.126-0.283,0.281-0.283l0,0c0.155,0,0.28,0.127,0.28,0.283l0,0c0,0.152-0.125,0.279-0.28,0.279l0,0
									C0.169,11.24,0.043,11.113,0.043,10.961z"/>
							</g>
						</g>
					</g>
				</g>
			</g>
		</g>
		<g>
			<g>
				<g>
					<g>
						<g>
							<defs>
								<path id="SVGID_35_" d="M8.058,7.913L1.099,8.647C1.126,8.903,1.16,9.123,1.214,9.373c0.804,3.795,4.519,6.217,8.298,5.412"
									/>
							</defs>
							<clipPath id="SVGID_36_">
								<use xlink:href="#SVGID_35_"  overflow="visible"/>
							</clipPath>
							<g clip-path="url(#SVGID_36_)">
								<path fill="#010101" d="M10.008,11.895c0-0.154,0.127-0.279,0.282-0.279l0,0c0.153,0,0.278,0.125,0.278,0.279l0,0
									c0,0.152-0.125,0.277-0.278,0.277l0,0C10.135,12.172,10.008,12.047,10.008,11.895z M8.9,11.895
									c0-0.154,0.127-0.279,0.281-0.279l0,0c0.155,0,0.28,0.125,0.28,0.279l0,0c0,0.152-0.125,0.277-0.28,0.277l0,0
									C9.027,12.172,8.9,12.047,8.9,11.895z M7.794,11.895c0-0.154,0.124-0.279,0.279-0.279l0,0c0.155,0,0.28,0.125,0.28,0.279
									l0,0c0,0.152-0.125,0.277-0.28,0.277l0,0C7.918,12.172,7.794,12.047,7.794,11.895z M6.687,11.895
									c0-0.154,0.124-0.279,0.279-0.279l0,0c0.155,0,0.281,0.125,0.281,0.279l0,0c0,0.152-0.126,0.277-0.281,0.277l0,0
									C6.811,12.172,6.687,12.047,6.687,11.895z M5.58,11.895c0-0.154,0.125-0.279,0.28-0.279l0,0
									c0.154,0,0.279,0.125,0.279,0.279l0,0c0,0.152-0.125,0.277-0.279,0.277l0,0C5.705,12.172,5.58,12.047,5.58,11.895z
									 M4.474,11.895c0-0.154,0.125-0.279,0.28-0.279l0,0c0.154,0,0.279,0.125,0.279,0.279l0,0c0,0.152-0.125,0.277-0.279,0.277
									l0,0C4.599,12.172,4.474,12.047,4.474,11.895z M3.363,11.895c0-0.154,0.128-0.279,0.283-0.279l0,0
									c0.153,0,0.278,0.125,0.278,0.279l0,0c0,0.152-0.125,0.277-0.278,0.277l0,0C3.491,12.172,3.363,12.047,3.363,11.895z
									 M2.257,11.895c0-0.154,0.125-0.279,0.28-0.279l0,0c0.157,0,0.28,0.125,0.28,0.279l0,0c0,0.152-0.125,0.277-0.28,0.277l0,0
									C2.382,12.172,2.257,12.047,2.257,11.895z M1.15,11.895c0-0.154,0.125-0.279,0.279-0.279l0,0c0.157,0,0.28,0.125,0.28,0.279
									l0,0c0,0.152-0.125,0.277-0.28,0.277l0,0C1.275,12.172,1.15,12.047,1.15,11.895z M0.043,11.895
									c0-0.154,0.126-0.279,0.281-0.279l0,0c0.155,0,0.28,0.125,0.28,0.279l0,0c0,0.152-0.125,0.277-0.28,0.277l0,0
									C0.169,12.172,0.043,12.047,0.043,11.895z"/>
							</g>
						</g>
					</g>
				</g>
			</g>
		</g>
		<g>
			<g>
				<g>
					<g>
						<g>
							<defs>
								<path id="SVGID_37_" d="M8.058,7.913L1.099,8.647C1.126,8.903,1.16,9.123,1.214,9.373c0.804,3.795,4.519,6.217,8.298,5.412"
									/>
							</defs>
							<clipPath id="SVGID_38_">
								<use xlink:href="#SVGID_37_"  overflow="visible"/>
							</clipPath>
							<g clip-path="url(#SVGID_38_)">
								<path fill="#010101" d="M10.008,9.094c0-0.155,0.127-0.281,0.282-0.281l0,0c0.153,0,0.278,0.126,0.278,0.281l0,0
									c0,0.154-0.125,0.281-0.278,0.281l0,0C10.135,9.375,10.008,9.248,10.008,9.094z M8.9,9.094c0-0.155,0.127-0.281,0.281-0.281
									l0,0c0.155,0,0.28,0.126,0.28,0.281l0,0c0,0.154-0.125,0.281-0.28,0.281l0,0C9.027,9.375,8.9,9.248,8.9,9.094z M6.966,9.375
									L6.966,9.375 M5.859,9.375L5.859,9.375c-0.155,0-0.28-0.127-0.28-0.281 M4.474,9.094c0-0.155,0.125-0.281,0.28-0.281l0,0
									c0.154,0,0.279,0.126,0.279,0.281l0,0c0,0.154-0.125,0.281-0.279,0.281l0,0C4.599,9.375,4.474,9.248,4.474,9.094z
									 M3.363,9.094c0-0.155,0.128-0.281,0.283-0.281l0,0c0.153,0,0.278,0.126,0.278,0.281l0,0c0,0.154-0.125,0.281-0.278,0.281
									l0,0C3.491,9.375,3.363,9.248,3.363,9.094z M2.257,9.094c0-0.155,0.125-0.281,0.28-0.281l0,0c0.157,0,0.28,0.126,0.28,0.281
									l0,0c0,0.154-0.125,0.281-0.28,0.281l0,0C2.382,9.375,2.257,9.248,2.257,9.094z M1.15,9.094
									c0-0.155,0.125-0.281,0.279-0.281l0,0c0.157,0,0.28,0.126,0.28,0.281l0,0c0,0.154-0.125,0.281-0.28,0.281l0,0
									C1.275,9.375,1.15,9.248,1.15,9.094z M0.043,9.094c0-0.155,0.126-0.281,0.281-0.281l0,0c0.155,0,0.28,0.126,0.28,0.281l0,0
									c0,0.154-0.125,0.281-0.28,0.281l0,0C0.169,9.375,0.043,9.248,0.043,9.094z"/>
							</g>
						</g>
					</g>
				</g>
			</g>
		</g>
		<g>
			<g>
				<g>
					<g>
						<g>
							<defs>
								<path id="SVGID_39_" d="M8.058,7.913L1.099,8.647C1.126,8.903,1.16,9.123,1.214,9.373c0.804,3.795,4.519,6.217,8.298,5.412"
									/>
							</defs>
							<clipPath id="SVGID_40_">
								<use xlink:href="#SVGID_39_"  overflow="visible"/>
							</clipPath>
							<g clip-path="url(#SVGID_40_)">
								<path fill="#010101" d="M10.008,10.025c0-0.154,0.127-0.277,0.282-0.277l0,0c0.153,0,0.278,0.123,0.278,0.277l0,0
									c0,0.152-0.125,0.281-0.278,0.281l0,0C10.135,10.307,10.008,10.178,10.008,10.025z M8.9,10.025
									c0-0.154,0.127-0.277,0.281-0.277l0,0c0.155,0,0.28,0.123,0.28,0.277l0,0c0,0.152-0.125,0.281-0.28,0.281l0,0
									C9.027,10.307,8.9,10.178,8.9,10.025z M6.966,10.307L6.966,10.307c-0.155,0-0.279-0.129-0.279-0.281 M5.58,10.025
									c0-0.154,0.125-0.277,0.28-0.277l0,0c0.154,0,0.279,0.123,0.279,0.277l0,0c0,0.152-0.125,0.281-0.279,0.281l0,0
									C5.705,10.307,5.58,10.178,5.58,10.025z M4.474,10.025c0-0.154,0.125-0.277,0.28-0.277l0,0c0.154,0,0.279,0.123,0.279,0.277
									l0,0c0,0.152-0.125,0.281-0.279,0.281l0,0C4.599,10.307,4.474,10.178,4.474,10.025z M3.363,10.025
									c0-0.154,0.128-0.277,0.283-0.277l0,0c0.153,0,0.278,0.123,0.278,0.277l0,0c0,0.152-0.125,0.281-0.278,0.281l0,0
									C3.491,10.307,3.363,10.178,3.363,10.025z M2.257,10.025c0-0.154,0.125-0.277,0.28-0.277l0,0c0.157,0,0.28,0.123,0.28,0.277
									l0,0c0,0.152-0.125,0.281-0.28,0.281l0,0C2.382,10.307,2.257,10.178,2.257,10.025z M1.15,10.025
									c0-0.154,0.125-0.277,0.279-0.277l0,0c0.157,0,0.28,0.123,0.28,0.277l0,0c0,0.152-0.125,0.281-0.28,0.281l0,0
									C1.275,10.307,1.15,10.178,1.15,10.025z M0.043,10.025c0-0.154,0.126-0.277,0.281-0.277l0,0c0.155,0,0.28,0.123,0.28,0.277
									l0,0c0,0.152-0.125,0.281-0.28,0.281l0,0C0.169,10.307,0.043,10.178,0.043,10.025z"/>
							</g>
						</g>
					</g>
				</g>
			</g>
		</g>
		<g>
			<g>
				<g>
					<g>
						<g>
							<defs>
								<path id="SVGID_41_" d="M8.058,7.913L1.099,8.647C1.126,8.903,1.16,9.123,1.214,9.373c0.804,3.795,4.519,6.217,8.298,5.412"
									/>
							</defs>
							<clipPath id="SVGID_42_">
								<use xlink:href="#SVGID_41_"  overflow="visible"/>
							</clipPath>
							<g clip-path="url(#SVGID_42_)">
								<path fill="#010101" d="M10.008,7.228c0-0.155,0.127-0.28,0.282-0.28l0,0c0.153,0,0.278,0.125,0.278,0.28l0,0
									c0,0.153-0.125,0.28-0.278,0.28l0,0C10.135,7.508,10.008,7.381,10.008,7.228z M8.9,7.228c0-0.155,0.127-0.28,0.281-0.28l0,0
									c0.155,0,0.28,0.125,0.28,0.28l0,0c0,0.153-0.125,0.28-0.28,0.28l0,0C9.027,7.508,8.9,7.381,8.9,7.228z M7.794,7.228
									c0-0.155,0.124-0.28,0.279-0.28l0,0c0.155,0,0.28,0.125,0.28,0.28l0,0c0,0.153-0.125,0.28-0.28,0.28l0,0
									C7.918,7.508,7.794,7.381,7.794,7.228z M6.687,7.228c0-0.155,0.124-0.28,0.279-0.28l0,0c0.155,0,0.281,0.125,0.281,0.28l0,0
									c0,0.153-0.126,0.28-0.281,0.28l0,0C6.811,7.508,6.687,7.381,6.687,7.228z M5.58,7.228c0-0.155,0.125-0.28,0.28-0.28l0,0
									c0.154,0,0.279,0.125,0.279,0.28l0,0c0,0.153-0.125,0.28-0.279,0.28l0,0C5.705,7.508,5.58,7.381,5.58,7.228z M4.474,7.228
									c0-0.155,0.125-0.28,0.28-0.28l0,0c0.154,0,0.279,0.125,0.279,0.28l0,0c0,0.153-0.125,0.28-0.279,0.28l0,0
									C4.599,7.508,4.474,7.381,4.474,7.228z M3.363,7.228c0-0.155,0.128-0.28,0.283-0.28l0,0c0.153,0,0.278,0.125,0.278,0.28l0,0
									c0,0.153-0.125,0.28-0.278,0.28l0,0C3.491,7.508,3.363,7.381,3.363,7.228z M2.257,7.228c0-0.155,0.125-0.28,0.28-0.28l0,0
									c0.157,0,0.28,0.125,0.28,0.28l0,0c0,0.153-0.125,0.28-0.28,0.28l0,0C2.382,7.508,2.257,7.381,2.257,7.228z M1.15,7.228
									c0-0.155,0.125-0.28,0.279-0.28l0,0c0.157,0,0.28,0.125,0.28,0.28l0,0c0,0.153-0.125,0.28-0.28,0.28l0,0
									C1.275,7.508,1.15,7.381,1.15,7.228z M0.043,7.228c0-0.155,0.126-0.28,0.281-0.28l0,0c0.155,0,0.28,0.125,0.28,0.28l0,0
									c0,0.153-0.125,0.28-0.28,0.28l0,0C0.169,7.508,0.043,7.381,0.043,7.228z"/>
							</g>
						</g>
					</g>
				</g>
			</g>
		</g>
		<g>
			<g>
				<g>
					<g>
						<g>
							<defs>
								<path id="SVGID_43_" d="M8.058,7.913L1.099,8.647C1.126,8.903,1.16,9.123,1.214,9.373c0.804,3.795,4.519,6.217,8.298,5.412"
									/>
							</defs>
							<clipPath id="SVGID_44_">
								<use xlink:href="#SVGID_43_"  overflow="visible"/>
							</clipPath>
							<g clip-path="url(#SVGID_44_)">
								<path fill="#010101" d="M11.396,7.508H-0.782c-0.155,0-0.279-0.127-0.279-0.282s0.125-0.28,0.279-0.28h12.177
									c0.153,0,0.279,0.125,0.279,0.28C11.675,7.383,11.55,7.508,11.396,7.508z"/>
							</g>
						</g>
					</g>
				</g>
			</g>
		</g>
	</g>
	<path fill="none" d="M4.474,13.762"/>
	<path fill="#010101" d="M8.145,0.505C8.126,0.505,8.106,0.5,8.087,0.5c-0.031,0-0.061,0.002-0.092,0.002
		C7.969,0.502,7.941,0.5,7.915,0.5c-0.017,0-0.033,0.003-0.05,0.005C6.811,0.53,5.888,0.73,4.907,1.151
		C4.845,1.18,4.792,1.217,4.745,1.261C1.846,2.675,0.204,5.626,0.544,8.86C0.548,8.91,0.563,8.957,0.58,9.002
		C0.603,9.164,0.63,9.32,0.667,9.49c0.737,3.482,3.842,6.01,7.384,6.01c0.527,0,1.059-0.057,1.579-0.168
		c0.06-0.014,0.113-0.037,0.162-0.066C13.17,14.42,15.5,11.473,15.5,8.001C15.5,3.94,12.222,0.627,8.145,0.505z M7.355,1.658v3.39
		l-1.381-3.1C6.428,1.797,6.88,1.704,7.355,1.658z M9.932,14.063L9.226,10.73c-0.334,0.146-0.702,0.238-1.089,0.254l0,0
		C8.091,10.988,8.047,10.992,8,10.992c-0.005,0-0.009,0-0.014,0l0.721,3.348c-0.219,0.023-0.437,0.041-0.656,0.041
		c-3.004,0-5.639-2.139-6.28-5.086L5.16,8.938c-0.097-0.296-0.153-0.61-0.153-0.937c0-0.113,0.008-0.222,0.021-0.332l-3.404,0.36
		c0.001-2.333,1.217-4.42,3.253-5.57l1.421,3.082c0.484-0.335,1.071-0.535,1.704-0.535c0.221,0,0.438,0.028,0.647,0.074V1.661
		c3.222,0.361,5.731,3.066,5.731,6.34C14.38,10.809,12.584,13.211,9.932,14.063z"/>
	<g>
		<path fill="#010101" d="M8,11.553c-1.959,0-3.554-1.596-3.554-3.552c0-1.96,1.595-3.554,3.554-3.554s3.553,1.594,3.553,3.554
			C11.553,9.957,9.959,11.553,8,11.553z M8,5.567c-1.342,0-2.433,1.092-2.433,2.434c0,1.341,1.091,2.435,2.433,2.435
			c1.341,0,2.433-1.094,2.433-2.435C10.433,6.659,9.341,5.567,8,5.567z"/>
	</g>
</g>
</svg>
