<?xml version="1.0" encoding="utf-8"?>
<!-- Generator: Adobe Illustrator 15.1.0, SVG Export Plug-In . SVG Version: 6.00 Build 0)  -->
<!DOCTYPE svg PUBLIC "-//W3C//DTD SVG 1.1//EN" "http://www.w3.org/Graphics/SVG/1.1/DTD/svg11.dtd">
<svg version="1.1" id="Layer_1" xmlns="http://www.w3.org/2000/svg" xmlns:xlink="http://www.w3.org/1999/xlink" x="0px" y="0px"
	 width="16px" height="16px" viewBox="0 0 16 16" enable-background="new 0 0 16 16" xml:space="preserve">
<g>
	<path fill="#010101" d="M10.344,11.679l-0.389,0.622c1.963,0.191,3.354,0.664,3.354,1.219c0,0.725-2.373,1.31-5.298,1.31
		c-2.927,0-5.299-0.585-5.299-1.31c0-0.551,1.37-1.02,3.309-1.215l-0.391-0.624c-2.352,0.293-4.016,1.006-4.016,1.839
		c0,1.094,2.859,1.98,6.387,1.98c3.529,0,6.386-0.887,6.386-1.98C14.387,12.682,12.711,11.969,10.344,11.679z"/>
	<path fill="#010101" d="M7.961,0.5c-2.419,0-4.38,2.066-4.38,4.615c0,1.094,0.363,2.024,0.961,2.894l3.405,5.43v0.008l0.003-0.002
		l0.011,0.018l0.005-0.045l3.337-5.323c0.619-0.871,1.037-1.842,1.037-2.979C12.34,2.566,10.379,0.5,7.961,0.5z M7.96,6.656
		c-1.079,0-1.953-0.873-1.953-1.952S6.881,2.75,7.96,2.75c1.079,0,1.952,0.875,1.952,1.954S9.039,6.656,7.96,6.656z"/>
</g>
</svg>
