<?xml version="1.0" encoding="utf-8"?>
<!-- Generator: Adobe Illustrator 15.1.0, SVG Export Plug-In . SVG Version: 6.00 Build 0)  -->
<!DOCTYPE svg PUBLIC "-//W3C//DTD SVG 1.1//EN" "http://www.w3.org/Graphics/SVG/1.1/DTD/svg11.dtd">
<svg version="1.1" id="Layer_1" xmlns="http://www.w3.org/2000/svg" xmlns:xlink="http://www.w3.org/1999/xlink" x="0px" y="0px"
	 width="16px" height="16px" viewBox="0 0 16 16" enable-background="new 0 0 16 16" xml:space="preserve">
<g>
	<path fill="#010101" d="M13,5.5c-0.799,0-1.508,0.375-1.966,0.958L5.412,3.646C5.467,3.44,5.5,3.224,5.5,3
		c0-1.381-1.119-2.5-2.5-2.5S0.5,1.619,0.5,3c0,1.208,0.858,2.218,2,2.449v5.101c-1.142,0.232-2,1.239-2,2.45
		c0,1.381,1.119,2.5,2.5,2.5s2.5-1.119,2.5-2.5c0-0.219-0.03-0.43-0.084-0.631l5.653-2.779c0.459,0.556,1.153,0.91,1.931,0.91
		c1.381,0,2.5-1.119,2.5-2.5S14.381,5.5,13,5.5z M1.5,3c0-0.827,0.673-1.5,1.5-1.5c0.826,0,1.501,0.673,1.501,1.5
		S3.826,4.499,3,4.499C2.173,4.499,1.5,3.827,1.5,3z M3,14.5c-0.827,0-1.5-0.674-1.5-1.5c0-0.828,0.673-1.501,1.5-1.501
		c0.826,0,1.501,0.673,1.501,1.501C4.501,13.826,3.826,14.5,3,14.5z M4.977,11.472C4.615,11.006,4.098,10.67,3.5,10.55V5.449
		c0.591-0.119,1.104-0.45,1.466-0.908l5.622,2.811C10.533,7.559,10.5,7.776,10.5,8c0,0.244,0.037,0.48,0.102,0.704L4.977,11.472z
		 M13,9.499c-0.827,0-1.501-0.673-1.501-1.499c0-0.828,0.674-1.5,1.501-1.5c0.826,0,1.5,0.672,1.5,1.5
		C14.5,8.826,13.826,9.499,13,9.499z"/>
</g>
</svg>
