<?xml version="1.0" encoding="utf-8"?>
<!-- Generator: Adobe Illustrator 15.1.0, SVG Export Plug-In . SVG Version: 6.00 Build 0)  -->
<!DOCTYPE svg PUBLIC "-//W3C//DTD SVG 1.1//EN" "http://www.w3.org/Graphics/SVG/1.1/DTD/svg11.dtd">
<svg version="1.1" id="Layer_1" xmlns="http://www.w3.org/2000/svg" xmlns:xlink="http://www.w3.org/1999/xlink" x="0px" y="0px"
	 width="16px" height="16px" viewBox="0 0 16 16" enable-background="new 0 0 16 16" xml:space="preserve">
<g>
	<path fill="#010101" d="M8,3.84c1.357,0,2.561,0.647,3.32,1.651L9.873,6.96h4.535v-4.6l-1.435,1.456C11.781,2.4,9.996,1.5,8,1.5
		c-3.235,0-5.918,2.365-6.416,5.46h2.388C4.434,5.166,6.062,3.84,8,3.84z"/>
	<path fill="#010101" d="M8,12.16c-1.327,0-2.509-0.622-3.271-1.59l1.528-1.531h-4.67v4.677l1.481-1.483
		C4.261,13.621,6.027,14.5,8,14.5c3.236,0,5.918-2.365,6.416-5.461h-2.387C11.567,10.834,9.938,12.16,8,12.16z"/>
</g>
</svg>
