<?xml version="1.0" encoding="utf-8"?>
<!-- Generator: Adobe Illustrator 15.1.0, SVG Export Plug-In . SVG Version: 6.00 Build 0)  -->
<!DOCTYPE svg PUBLIC "-//W3C//DTD SVG 1.1//EN" "http://www.w3.org/Graphics/SVG/1.1/DTD/svg11.dtd">
<svg version="1.1" id="Layer_1" xmlns="http://www.w3.org/2000/svg" xmlns:xlink="http://www.w3.org/1999/xlink" x="0px" y="0px"
	 width="24px" height="24px" viewBox="-4 -4 24 24" enable-background="new -4 -4 24 24" xml:space="preserve">
<g>
	<path fill="#010101" d="M8.518,13.717C6.92,13.048,6.54,12.819,6.54,12.819l-0.016-1.532c0,0,0.6-0.465,0.785-1.908
		c0.375,0.113,0.767-0.554,0.789-0.907C8.12,8.133,8.045,7.192,7.589,7.289C7.685,6.581,7.75,5.946,7.716,5.608
		c-0.118-1.233-1.33-2.53-3.195-2.53s-3.075,1.297-3.195,2.53C1.293,5.946,1.36,6.581,1.454,7.289
		c-0.458-0.097-0.532,0.844-0.51,1.183c0.025,0.353,0.415,1.021,0.791,0.91c0.185,1.441,0.787,1.905,0.787,1.905l-0.018,1.532
		c0,0-0.38,0.23-1.976,0.897c-1.599,0.668-3.215,1.131-3.694,1.883c-0.433,0.672-0.302,3.9-0.302,3.9h7.99h7.989
		c0,0,0.129-3.229-0.299-3.9C11.73,14.848,10.115,14.384,8.518,13.717z"/>
	<polygon fill="#010101" points="5.136,-3.5 5.136,0.812 6.572,0.812 6.572,-2.063 18.052,-2.063 18.052,5.115 16.654,5.094 
		16.165,5.087 15.771,5.379 12.302,7.975 12.302,6.532 12.302,5.081 10.851,5.094 9.448,5.104 9.448,6.541 10.864,6.532 
		10.864,10.842 16.634,6.532 19.487,6.575 19.487,-3.5 	"/>
</g>
</svg>
