<?xml version="1.0" encoding="UTF-8" standalone="no"?>
<!-- Created with Inkscape (http://www.inkscape.org/) -->

<svg
   xmlns:dc="http://purl.org/dc/elements/1.1/"
   xmlns:cc="http://creativecommons.org/ns#"
   xmlns:rdf="http://www.w3.org/1999/02/22-rdf-syntax-ns#"
   xmlns:svg="http://www.w3.org/2000/svg"
   xmlns="http://www.w3.org/2000/svg"
   xmlns:sodipodi="http://sodipodi.sourceforge.net/DTD/sodipodi-0.dtd"
   xmlns:inkscape="http://www.inkscape.org/namespaces/inkscape"
   width="48"
   height="48"
   viewBox="0 0 48.000001 48.000001"
   id="svg77671"
   version="1.1"
   inkscape:version="0.91 r13725"
   sodipodi:docname="BR.svg">
  <defs
     id="defs77673">
    <clipPath
       id="clipPath8370"
       clipPathUnits="userSpaceOnUse">
      <path
         inkscape:connector-curvature="0"
         id="path8368"
         d="m 6690.08,4294.77 335.62,0 0,-195.82 -335.62,0 z" />
    </clipPath>
    <clipPath
       id="clipPath35762"
       clipPathUnits="userSpaceOnUse">
      <path
         inkscape:connector-curvature="0"
         id="path35760"
         d="m 4605.06,6583.13 335.62,0 0,-195.77 -335.62,0 z" />
    </clipPath>
  </defs>
  <sodipodi:namedview
     id="base"
     pagecolor="#ffffff"
     bordercolor="#666666"
     borderopacity="1.0"
     inkscape:pageopacity="0.0"
     inkscape:pageshadow="2"
     inkscape:zoom="18.020833"
     inkscape:cx="24"
     inkscape:cy="24"
     inkscape:document-units="px"
     inkscape:current-layer="layer1"
     showgrid="false"
     units="px"
     inkscape:window-width="1792"
     inkscape:window-height="1071"
     inkscape:window-x="0"
     inkscape:window-y="0"
     inkscape:window-maximized="1" />
  <metadata
     id="metadata77676">
    <rdf:RDF>
      <cc:Work
         rdf:about="">
        <dc:format>image/svg+xml</dc:format>
        <dc:type
           rdf:resource="http://purl.org/dc/dcmitype/StillImage" />
        <dc:title></dc:title>
      </cc:Work>
    </rdf:RDF>
  </metadata>
  <g
     inkscape:label="Camada 1"
     inkscape:groupmode="layer"
     id="layer1"
     transform="translate(0,-1004.3622)">
    <path
       id="path35764"
       style="fill:#3b953a;fill-opacity:1;fill-rule:nonzero;stroke:none"
       d="m 1.6253346,1041.4135 44.7493324,0 0,-26.1026 -44.7493324,0 0,26.1026"
       inkscape:connector-curvature="0" />
    <path
       id="path35766"
       style="fill:#e8bf13;fill-opacity:1;fill-rule:nonzero;stroke:none"
       d="m 8.5266678,1028.3615 15.4733332,9.8827 15.481333,-9.8827 -15.481333,-9.8826 -15.4733332,9.8826"
       inkscape:connector-curvature="0" />
    <path
       id="path35768"
       style="fill:#2c2869;fill-opacity:1;fill-rule:nonzero;stroke:none"
       d="m 30.524001,1028.3615 c 0,3.6027 -2.92,6.524 -6.524,6.524 -3.601333,0 -6.521333,-2.9213 -6.521333,-6.524 0,-3.6013 2.92,-6.528 6.521333,-6.528 3.604,0 6.524,2.9267 6.524,6.528"
       inkscape:connector-curvature="0" />
    <path
       id="path35770"
       style="fill:#ffffff;fill-opacity:1;fill-rule:nonzero;stroke:none"
       d="m 20.273334,1025.5629 c -0.765333,0 -1.513333,0.057 -2.244,0.1586 -0.141333,0.32 -0.256,0.6534 -0.346666,0.9974 0.841333,-0.144 1.705333,-0.2227 2.590666,-0.2227 3.822667,0 7.317333,1.4427 9.956,3.8147 0.106667,-0.3347 0.185333,-0.6814 0.232,-1.0334 -2.756,-2.3173 -6.308,-3.7146 -10.188,-3.7146"
       inkscape:connector-curvature="0" />
    <path
       id="path35772"
       style="fill:#3b953a;fill-opacity:1;fill-rule:evenodd;stroke:none"
       d="m 18.422668,1026.3389 c 0.08533,-0.012 0.148,-0.108 0.137333,-0.2147 -0.01333,-0.108 -0.09333,-0.1853 -0.188,-0.1733 -0.09067,0.011 -0.153333,0.1053 -0.14,0.2133 0.016,0.108 0.09867,0.1853 0.190667,0.1747 m 0.012,0.1133 c 0.152,-0.019 0.261333,-0.1707 0.237333,-0.3413 -0.01867,-0.1694 -0.158667,-0.2934 -0.312,-0.2734 -0.157333,0.016 -0.264,0.172 -0.237333,0.3414 0.01867,0.1706 0.158666,0.2933 0.312,0.2733"
       inkscape:connector-curvature="0" />
    <path
       id="path35774"
       style="fill:#3b953a;fill-opacity:1;fill-rule:evenodd;stroke:none"
       d="m 19.032001,1026.0442 0.238667,-0.015 c 0.044,-0.01 0.07333,-0.044 0.07333,-0.088 -0.0053,-0.045 -0.03867,-0.077 -0.08133,-0.073 l -0.241334,0.013 z m -0.08933,0.3547 0.112,-0.011 -0.016,-0.2293 0.253333,-0.016 c 0.101333,-0.01 0.182667,-0.1027 0.18,-0.2107 -0.01067,-0.1067 -0.104,-0.188 -0.209333,-0.18 l -0.358667,0.024 0.03867,0.6227"
       inkscape:connector-curvature="0" />
    <path
       id="path35776"
       style="fill:#3b953a;fill-opacity:1;fill-rule:nonzero;stroke:none"
       d="m 19.466668,1026.3615 c -0.0053,-0.089 -0.016,-0.2826 -0.152,-0.276 l -0.169334,0.011 c 0.193334,-0.011 0.209334,0.1853 0.22,0.2707"
       inkscape:connector-curvature="0" />
    <path
       id="path35778"
       style="fill:#3b953a;fill-opacity:1;fill-rule:evenodd;stroke:none"
       d="m 19.841334,1026.2309 0.169334,-0 c 0.09333,-0 0.169333,-0.08 0.164,-0.1707 l 0,-0.056 c 0,-0.088 -0.076,-0.1627 -0.166667,-0.1627 l -0.172,0 z m -0.109333,0.1186 0.289333,-0.01 c 0.150667,-0 0.265334,-0.1227 0.265334,-0.272 l -0.0053,-0.089 c -0.0027,-0.144 -0.125333,-0.264 -0.270666,-0.2613 l -0.289334,0.01 0.01067,0.6226"
       inkscape:connector-curvature="0" />
    <path
       id="path35780"
       style="fill:#3b953a;fill-opacity:1;fill-rule:nonzero;stroke:none"
       d="m 20.513334,1026.3415 0.562667,0.02 0.0053,-0.1173 -0.450666,-0.016 0.0053,-0.1573 0.356,0.01 0,-0.1053 -0.350667,-0.013 0,-0.1226 0.429333,0.015 0,-0.1173 -0.531999,-0.019 -0.02533,0.624"
       inkscape:connector-curvature="0" />
    <path
       id="path35782"
       style="fill:#3b953a;fill-opacity:1;fill-rule:nonzero;stroke:none"
       d="m 21.308001,1026.3735 0.106666,0.01 0.036,-0.424 0.084,0.4346 0.101334,0.01 0.158666,-0.4147 -0.03733,0.4253 0.105333,0.01 0.05467,-0.62 -0.152,-0.013 -0.164,0.4134 -0.08533,-0.436 -0.156,-0.012 -0.052,0.6186"
       inkscape:connector-curvature="0" />
    <path
       id="path35784"
       style="fill:#3b953a;fill-opacity:1;fill-rule:nonzero;stroke:none"
       d="m 22.590667,1026.5189 0.466667,0.077 0.01333,-0.104 -0.352,-0.06 0.024,-0.1387 0.292,0.049 0.012,-0.1067 -0.284,-0.048 0.01333,-0.099 0.344,0.06 0.01333,-0.1053 -0.442667,-0.077 -0.1,0.552"
       inkscape:connector-curvature="0" />
    <path
       id="path35786"
       style="fill:#3b953a;fill-opacity:1;fill-rule:evenodd;stroke:none"
       d="m 23.977334,1026.4429 0.228,0.061 c 0.04533,0.012 0.084,-0.015 0.09467,-0.057 0.012,-0.043 -0.016,-0.085 -0.05467,-0.097 l -0.232,-0.06 z m -0.204,0.308 0.109333,0.029 0.06267,-0.2227 0.237333,0.06 c 0.106667,0.028 0.213334,-0.035 0.241334,-0.1386 0.024,-0.1054 -0.03867,-0.2107 -0.14,-0.24 l -0.344,-0.089 -0.166667,0.6014"
       inkscape:connector-curvature="0" />
    <path
       id="path35788"
       style="fill:#3b953a;fill-opacity:1;fill-rule:evenodd;stroke:none"
       d="m 24.753334,1026.6575 0.228,0.073 c 0.03733,0.012 0.08667,-0.01 0.1,-0.053 0.01467,-0.043 -0.008,-0.085 -0.052,-0.099 l -0.226667,-0.073 z m -0.217333,0.296 0.112,0.033 0.07067,-0.2187 0.232,0.075 c 0.106667,0.032 0.213334,-0.025 0.248,-0.1267 0.03333,-0.1027 -0.024,-0.212 -0.125333,-0.244 l -0.344,-0.108 -0.193333,0.5893"
       inkscape:connector-curvature="0" />
    <path
       id="path35790"
       style="fill:#3b953a;fill-opacity:1;fill-rule:nonzero;stroke:none"
       d="m 25.038667,1027.1122 c 0.02933,-0.084 0.08667,-0.2693 -0.03867,-0.3093 l -0.158667,-0.052 c 0.182667,0.06 0.125333,0.244 0.096,0.3306"
       inkscape:connector-curvature="0" />
    <path
       id="path35792"
       style="fill:#3b953a;fill-opacity:1;fill-rule:evenodd;stroke:none"
       d="m 25.589334,1027.1869 c 0.088,0.035 0.184,-0.025 0.222667,-0.1254 0.04,-0.1013 0,-0.208 -0.08267,-0.2413 -0.08533,-0.029 -0.188,0.025 -0.226667,0.1267 -0.03867,0.1 0.0053,0.208 0.08667,0.24 m -0.04,0.1093 c 0.146667,0.052 0.310667,-0.033 0.370667,-0.1933 0.06133,-0.1614 -0.0053,-0.336 -0.152,-0.3894 -0.145334,-0.056 -0.314667,0.032 -0.372,0.1907 -0.06267,0.1627 0.01067,0.336 0.153333,0.392"
       inkscape:connector-curvature="0" />
    <path
       id="path35794"
       style="fill:#3b953a;fill-opacity:1;fill-rule:evenodd;stroke:none"
       d="m 26.328001,1027.4842 c 0.084,0.04 0.185333,-0.013 0.226666,-0.1133 0.044,-0.099 0.01067,-0.2094 -0.07067,-0.2454 -0.08267,-0.036 -0.184,0.015 -0.226667,0.1147 -0.044,0.099 -0.01467,0.2093 0.07067,0.244 m -0.04667,0.1067 c 0.141333,0.061 0.314667,-0.017 0.382667,-0.172 0.06533,-0.16 0.008,-0.3347 -0.134667,-0.3974 -0.141333,-0.061 -0.310667,0.013 -0.378667,0.1734 -0.06667,0.1573 -0.0093,0.336 0.130667,0.396"
       inkscape:connector-curvature="0" />
    <path
       id="path35796"
       style="fill:#3b953a;fill-opacity:1;fill-rule:nonzero;stroke:none"
       d="m 26.445334,1027.3229 0.218667,0.096 -0.04133,0.08 -0.210666,-0.096 0.03333,-0.08"
       inkscape:connector-curvature="0" />
    <path
       id="path35798"
       style="fill:#3b953a;fill-opacity:1;fill-rule:nonzero;stroke:none"
       d="m 26.581334,1027.3802 0.08267,0.039 -0.128,0.2826 -0.07467,-0.036 0.12,-0.2853"
       inkscape:connector-curvature="0" />
    <path
       id="path35800"
       style="fill:#3b953a;fill-opacity:1;fill-rule:evenodd;stroke:none"
       d="m 27.005334,1027.5415 0.213333,0.1054 c 0.03867,0.021 0.08667,0.01 0.106667,-0.035 0.01867,-0.039 0.0053,-0.087 -0.03333,-0.1067 l -0.218667,-0.1066 z m -0.254667,0.2587 0.101334,0.051 0.101333,-0.208 0.221333,0.1133 c 0.096,0.048 0.213334,0.01 0.26,-0.088 0.04933,-0.097 0.01067,-0.2147 -0.08533,-0.2613 l -0.314667,-0.1587 -0.284,0.552"
       inkscape:connector-curvature="0" />
    <path
       id="path35802"
       style="fill:#3b953a;fill-opacity:1;fill-rule:nonzero;stroke:none"
       d="m 27.218667,1028.0349 c 0.03867,-0.079 0.125334,-0.2534 0.008,-0.3134 l -0.153333,-0.077 c 0.18,0.089 0.09067,0.264 0.05467,0.3413"
       inkscape:connector-curvature="0" />
    <path
       id="path35804"
       style="fill:#3b953a;fill-opacity:1;fill-rule:nonzero;stroke:none"
       d="m 27.450667,1028.1575 0.489334,0.2747 0.052,-0.1 -0.390667,-0.2227 0.076,-0.1386 0.309333,0.1746 0.052,-0.096 -0.306666,-0.172 0.06267,-0.1106 0.366667,0.212 0.06267,-0.1014 -0.468,-0.2626 -0.305334,0.5426"
       inkscape:connector-curvature="0" />
    <path
       id="path35806"
       style="fill:#3b953a;fill-opacity:1;fill-rule:nonzero;stroke:none"
       d="m 28.360001,1028.4615 c -0.03467,0.051 0,0.1107 0.072,0.1587 0.076,0.047 0.125333,0.044 0.149333,0.013 0.06667,-0.1093 -0.324,-0.2653 -0.204,-0.4493 0.101333,-0.16 0.281333,-0.037 0.349333,0.01 0.068,0.043 0.174667,0.1546 0.09067,0.2826 l -0.114667,-0.075 c 0.04,-0.053 0,-0.1094 -0.064,-0.1427 -0.05733,-0.043 -0.104,-0.059 -0.138666,0 -0.06,0.084 0.328,0.2453 0.205333,0.4333 -0.08,0.136 -0.233333,0.075 -0.333333,0.012 -0.09067,-0.056 -0.216,-0.1853 -0.134667,-0.3146 l 0.122667,0.075"
       inkscape:connector-curvature="0" />
    <path
       id="path35808"
       style="fill:#3b953a;fill-opacity:1;fill-rule:nonzero;stroke:none"
       d="m 29.026667,1028.9015 c -0.04,0.049 -0.01067,0.1107 0.06267,0.1627 0.072,0.052 0.126667,0.055 0.150667,0.021 0.07067,-0.1026 -0.316,-0.28 -0.18,-0.4586 0.112,-0.1547 0.286666,-0.021 0.349333,0.023 0.068,0.049 0.164,0.1654 0.072,0.288 l -0.106667,-0.079 c 0.03467,-0.053 0,-0.108 -0.06,-0.152 -0.05733,-0.04 -0.096,-0.059 -0.134666,-0.01 -0.06267,0.083 0.309333,0.268 0.185333,0.4454 -0.09733,0.1333 -0.248,0.065 -0.338667,-0 -0.08667,-0.06 -0.209333,-0.196 -0.117333,-0.3227 l 0.117333,0.081"
       inkscape:connector-curvature="0" />
    <path
       id="path35810"
       style="fill:#3b953a;fill-opacity:1;fill-rule:evenodd;stroke:none"
       d="m 29.726667,1029.5255 c 0.07333,0.06 0.185334,0.036 0.252,-0.049 0.068,-0.085 0.05733,-0.1987 -0.0093,-0.2547 -0.07333,-0.059 -0.18,-0.036 -0.248,0.049 -0.07333,0.085 -0.068,0.2 0.0053,0.2546 m -0.07333,0.092 c 0.122667,0.096 0.305333,0.065 0.412,-0.069 0.106667,-0.1347 0.096,-0.3213 -0.024,-0.416 -0.121333,-0.099 -0.304,-0.067 -0.410667,0.068 -0.106666,0.1347 -0.096,0.3213 0.02267,0.4173"
       inkscape:connector-curvature="0" />
  </g>
</svg>
