<?xml version="1.0" encoding="UTF-8" standalone="no"?>
<!-- Created with Inkscape (http://www.inkscape.org/) -->

<svg
   xmlns:dc="http://purl.org/dc/elements/1.1/"
   xmlns:cc="http://creativecommons.org/ns#"
   xmlns:rdf="http://www.w3.org/1999/02/22-rdf-syntax-ns#"
   xmlns:svg="http://www.w3.org/2000/svg"
   xmlns="http://www.w3.org/2000/svg"
   xmlns:sodipodi="http://sodipodi.sourceforge.net/DTD/sodipodi-0.dtd"
   xmlns:inkscape="http://www.inkscape.org/namespaces/inkscape"
   width="48"
   height="48"
   viewBox="0 0 48.000001 48.000001"
   id="svg77671"
   version="1.1"
   inkscape:version="0.91 r13725"
   sodipodi:docname="i18n-CN.svg">
  <defs
     id="defs77673">
    <clipPath
       id="clipPath8370"
       clipPathUnits="userSpaceOnUse">
      <path
         inkscape:connector-curvature="0"
         id="path8368"
         d="m 6690.08,4294.77 335.62,0 0,-195.82 -335.62,0 z" />
    </clipPath>
    <clipPath
       id="clipPath35762"
       clipPathUnits="userSpaceOnUse">
      <path
         inkscape:connector-curvature="0"
         id="path35760"
         d="m 4605.06,6583.13 335.62,0 0,-195.77 -335.62,0 z" />
    </clipPath>
    <clipPath
       id="clipPath7654"
       clipPathUnits="userSpaceOnUse">
      <path
         inkscape:connector-curvature="0"
         id="path7652"
         d="m 435.145,3913.36 335.625,0 0,-195.82 -335.625,0 z" />
    </clipPath>
    <clipPath
       id="clipPath5716"
       clipPathUnits="userSpaceOnUse">
      <path
         inkscape:connector-curvature="0"
         id="path5714"
         d="m 956.395,3150.55 335.625,0 0,-195.75 -335.625,0 z" />
    </clipPath>
  </defs>
  <sodipodi:namedview
     id="base"
     pagecolor="#ffffff"
     bordercolor="#666666"
     borderopacity="1.0"
     inkscape:pageopacity="0.0"
     inkscape:pageshadow="2"
     inkscape:zoom="1.979899"
     inkscape:cx="96.272007"
     inkscape:cy="44.246371"
     inkscape:document-units="px"
     inkscape:current-layer="layer1"
     showgrid="false"
     units="px"
     inkscape:window-width="1792"
     inkscape:window-height="1071"
     inkscape:window-x="0"
     inkscape:window-y="0"
     inkscape:window-maximized="1" />
  <metadata
     id="metadata77676">
    <rdf:RDF>
      <cc:Work
         rdf:about="">
        <dc:format>image/svg+xml</dc:format>
        <dc:type
           rdf:resource="http://purl.org/dc/dcmitype/StillImage" />
        <dc:title></dc:title>
      </cc:Work>
    </rdf:RDF>
  </metadata>
  <g
     inkscape:label="Camada 1"
     inkscape:groupmode="layer"
     id="layer1"
     transform="translate(0,-1004.3622)">
    <g
       id="g5710"
       transform="matrix(0.13333333,0,0,-0.13333333,-125.89433,1435.3855)">
      <g
         clip-path="url(#clipPath5716)"
         id="g5712">
        <path
           id="path5718"
           style="fill:#cd1e25;fill-opacity:1;fill-rule:nonzero;stroke:none"
           d="m 956.395,2954.8 335.625,0 0,195.75 -335.625,0 0,-195.75"
           inkscape:connector-curvature="0" />
        <path
           id="path5720"
           style="fill:#f1e016;fill-opacity:1;fill-rule:nonzero;stroke:none"
           d="m 988.672,3079.69 6.301,19.53 -16.555,12.15 20.52,0.04 6.402,19.49 6.38,-19.49 20.53,-0.08 -16.59,-12.11 6.27,-19.53 -16.61,12.07 -16.648,-12.07"
           inkscape:connector-curvature="0" />
        <path
           id="path5722"
           style="fill:#f1e016;fill-opacity:1;fill-rule:nonzero;stroke:none"
           d="m 1045.9,3069.14 6.94,-2.81 4.82,5.74 -0.52,-7.46 6.93,-2.81 -7.25,-1.84 -0.54,-7.38 -3.98,6.29 -7.23,-1.76 4.77,5.7 -3.94,6.33"
           inkscape:connector-curvature="0" />
        <path
           id="path5724"
           style="fill:#f1e016;fill-opacity:1;fill-rule:nonzero;stroke:none"
           d="m 1083.42,3106.68 -7.37,1.29 -3.52,-6.6 -1.04,7.38 -7.37,1.37 6.71,3.24 -1.02,7.42 5.21,-5.35 6.71,3.24 -3.51,-6.6 5.2,-5.39"
           inkscape:connector-curvature="0" />
        <path
           id="path5726"
           style="fill:#f1e016;fill-opacity:1;fill-rule:nonzero;stroke:none"
           d="m 1067.8,3073.24 2.28,7.11 -6.03,4.42 7.48,0 2.31,7.1 2.32,-7.1 7.48,0 -6.02,-4.42 2.26,-7.11 -6.04,4.38 -6.04,-4.38"
           inkscape:connector-curvature="0" />
        <path
           id="path5728"
           style="fill:#f1e016;fill-opacity:1;fill-rule:nonzero;stroke:none"
           d="m 1046.28,3138.12 6.77,-3.16 5.1,5.47 -0.88,-7.42 6.74,-3.21 -7.31,-1.4 -0.93,-7.42 -3.64,6.52 -7.33,-1.37 5.08,5.47 -3.6,6.52"
           inkscape:connector-curvature="0" />
      </g>
    </g>
  </g>
</svg>
