<?xml version="1.0" encoding="UTF-8" standalone="no"?>
<!-- Created with Inkscape (http://www.inkscape.org/) -->

<svg
   xmlns:dc="http://purl.org/dc/elements/1.1/"
   xmlns:cc="http://creativecommons.org/ns#"
   xmlns:rdf="http://www.w3.org/1999/02/22-rdf-syntax-ns#"
   xmlns:svg="http://www.w3.org/2000/svg"
   xmlns="http://www.w3.org/2000/svg"
   xmlns:sodipodi="http://sodipodi.sourceforge.net/DTD/sodipodi-0.dtd"
   xmlns:inkscape="http://www.inkscape.org/namespaces/inkscape"
   width="48"
   height="48"
   viewBox="0 0 48.000001 48.000001"
   id="svg77671"
   version="1.1"
   inkscape:version="0.91 r13725"
   sodipodi:docname="i18n-DE.svg">
  <defs
     id="defs77673">
    <clipPath
       id="clipPath8370"
       clipPathUnits="userSpaceOnUse">
      <path
         inkscape:connector-curvature="0"
         id="path8368"
         d="m 6690.08,4294.77 335.62,0 0,-195.82 -335.62,0 z" />
    </clipPath>
    <clipPath
       id="clipPath35762"
       clipPathUnits="userSpaceOnUse">
      <path
         inkscape:connector-curvature="0"
         id="path35760"
         d="m 4605.06,6583.13 335.62,0 0,-195.77 -335.62,0 z" />
    </clipPath>
    <clipPath
       id="clipPath7654"
       clipPathUnits="userSpaceOnUse">
      <path
         inkscape:connector-curvature="0"
         id="path7652"
         d="m 435.145,3913.36 335.625,0 0,-195.82 -335.625,0 z" />
    </clipPath>
    <clipPath
       id="clipPath5716"
       clipPathUnits="userSpaceOnUse">
      <path
         inkscape:connector-curvature="0"
         id="path5714"
         d="m 956.395,3150.55 335.625,0 0,-195.75 -335.625,0 z" />
    </clipPath>
    <clipPath
       id="clipPath9892"
       clipPathUnits="userSpaceOnUse">
      <path
         inkscape:connector-curvature="0"
         id="path9890"
         d="m 3562.58,4676.14 335.63,0 0,-195.78 -335.63,0 z" />
    </clipPath>
  </defs>
  <sodipodi:namedview
     id="base"
     pagecolor="#ffffff"
     bordercolor="#666666"
     borderopacity="1.0"
     inkscape:pageopacity="0.0"
     inkscape:pageshadow="2"
     inkscape:zoom="1.979899"
     inkscape:cx="96.272007"
     inkscape:cy="44.246371"
     inkscape:document-units="px"
     inkscape:current-layer="layer1"
     showgrid="false"
     units="px"
     inkscape:window-width="1792"
     inkscape:window-height="1071"
     inkscape:window-x="0"
     inkscape:window-y="0"
     inkscape:window-maximized="1" />
  <metadata
     id="metadata77676">
    <rdf:RDF>
      <cc:Work
         rdf:about="">
        <dc:format>image/svg+xml</dc:format>
        <dc:type
           rdf:resource="http://purl.org/dc/dcmitype/StillImage" />
        <dc:title></dc:title>
      </cc:Work>
    </rdf:RDF>
  </metadata>
  <g
     inkscape:label="Camada 1"
     inkscape:groupmode="layer"
     id="layer1"
     transform="translate(0,-1004.3622)">
    <g
       id="g9886"
       transform="matrix(0.13333333,0,0,-0.13333333,-473.38599,1638.7955)">
      <g
         clip-path="url(#clipPath9892)"
         id="g9888">
        <path
           id="path9894"
           style="fill:#100f0d;fill-opacity:1;fill-rule:nonzero;stroke:none"
           d="m 3562.58,4610.91 335.63,0 0,65.23 -335.63,0 0,-65.23"
           inkscape:connector-curvature="0" />
        <path
           id="path9896"
           style="fill:#e21d25;fill-opacity:1;fill-rule:nonzero;stroke:none"
           d="m 3562.58,4545.63 335.63,0 0,65.28 -335.63,0 0,-65.28"
           inkscape:connector-curvature="0" />
        <path
           id="path9898"
           style="fill:#f1da16;fill-opacity:1;fill-rule:nonzero;stroke:none"
           d="m 3562.58,4480.36 335.63,0 0,65.27 -335.63,0 0,-65.27"
           inkscape:connector-curvature="0" />
        <path
           id="path9900"
           style="fill:#f1d817;fill-opacity:1;fill-rule:nonzero;stroke:none"
           d="m 3683.95,4629.81 0,-78.35 c 0,-29.36 39.4,-25.83 46.44,-37.54 7.04,11.71 46.48,8.18 46.48,37.54 l 0,78.35 -92.92,0"
           inkscape:connector-curvature="0" />
        <path
           id="path9902"
           style="fill:#100f0d;fill-opacity:1;fill-rule:nonzero;stroke:none"
           d="m 3684.22,4629.52 0,-78.06 c 0,-18.52 15.59,-23.72 29.34,-28.27 7.52,-2.52 14.07,-4.66 16.83,-8.75 2.76,4.09 9.31,6.23 16.86,8.75 13.72,4.55 29.31,9.75 29.31,28.27 l 0,78.06 -92.34,0 z m 46.17,-116.19 -0.24,0.43 c -2.5,4.14 -9.12,6.33 -16.79,8.89 -13.22,4.37 -29.72,9.86 -29.72,28.81 l 0,78.63 93.51,0 0,-78.63 c 0,-18.95 -16.48,-24.44 -29.73,-28.81 -7.66,-2.56 -14.29,-4.75 -16.78,-8.89 l -0.25,-0.43 0,0"
           inkscape:connector-curvature="0" />
        <path
           id="path9904"
           style="fill:#100f0d;fill-opacity:1;fill-rule:nonzero;stroke:none"
           d="m 3727.34,4618.53 c 0.47,-2.31 -0.46,-7.93 -1.64,-9.85 -1.17,-1.85 -4.23,-5.37 -4.45,-8.89 -1.18,-17.63 5.4,-43.18 9.14,-61.48 3.76,18.3 10.32,43.85 9.15,61.48 -1.15,17.58 -3.51,22.29 -3.51,22.29 l -8.69,-3.55"
           inkscape:connector-curvature="0" />
        <path
           id="path9906"
           style="fill:#cc1e25;fill-opacity:1;fill-rule:nonzero;stroke:none"
           d="m 3728.27,4615.95 c -4.36,0.33 -8.04,1.21 -11.02,2.58 1.25,-1.55 4.09,-2.8 8.45,-3.74 l 2.57,1.16"
           inkscape:connector-curvature="0" />
        <path
           id="path9908"
           style="fill:#100f0d;fill-opacity:1;fill-rule:nonzero;stroke:none"
           d="m 3725.74,4614.93 c -4.46,0.67 -7.33,1.94 -8.6,3.52 3.12,-1.16 6.82,-2.03 11.15,-2.33 l -0.02,-0.31 c -4.38,0.33 -8.09,1.19 -11.07,2.62 1.39,-1.31 4.21,-2.58 8.54,-3.5 l 0,0"
           inkscape:connector-curvature="0" />
        <path
           id="path9910"
           style="fill:#cc1e25;fill-opacity:1;fill-rule:nonzero;stroke:none"
           d="m 3726.88,4625.6 c -7.04,3.51 -11.27,-0.49 -6.58,-6.82 0.48,1.17 4.92,2.83 7.04,-2.83 -1.08,-0.61 -3.68,-0.69 -7.73,-0.22 2.1,-1.62 8.45,-1.87 9.6,-1.17 1.18,0.7 -2.1,6.56 -2.1,6.56 l -0.23,4.48"
           inkscape:connector-curvature="0" />
        <path
           id="path9912"
           style="fill:#100f0d;fill-opacity:1;fill-rule:nonzero;stroke:none"
           d="m 3726.54,4614.05 c -2.4,0 -5.61,0.47 -7.03,1.58 4.14,-0.21 6.71,-0.15 7.77,0.47 -1.33,3.15 -3.34,3.68 -4.43,3.69 0,0 0,0 -0.02,0 -1.27,0 -2.2,-0.6 -2.39,-1.07 -2.38,2.83 -2.84,5.51 -1.53,7.07 1.44,1.72 4.51,1.7 8.02,-0.08 l -0.12,-0.25 c -3.33,1.66 -6.35,1.74 -7.67,0.14 -1.23,-1.45 -0.75,-3.99 1.28,-6.7 -0.02,0.56 1.18,1.19 2.45,1.19 1.15,-0.02 3.3,-0.55 4.62,-4.06 -1.2,-0.82 -3.77,-0.9 -7.9,-0.43 2.14,-1.33 8.42,-1.61 9.55,-0.9 0.77,0.47 -0.93,4.12 -2.16,6.36 0.81,-0.85 3.56,-5.89 2.33,-6.64 -0.43,-0.23 -1.49,-0.37 -2.77,-0.37 l 0,0"
           inkscape:connector-curvature="0" />
        <path
           id="path9914"
           style="fill:#100f0d;fill-opacity:1;fill-rule:nonzero;stroke:none"
           d="m 3735.57,4620.67 c 1.18,0.24 3.04,0.94 4.45,2.31 -2.59,0 -7.29,1.44 -9.17,2.36 -1.87,0.96 -5.15,3.05 -5.15,-0.92 0,-4 4.23,-7.05 3.51,-10.31 l 6.36,6.56"
           inkscape:connector-curvature="0" />
        <path
           id="path9916"
           style="fill:#f4fafd;fill-opacity:1;fill-rule:nonzero;stroke:none"
           d="m 3729.71,4623.25 c 0,0 -2.37,1.17 -2.83,1.62 -0.45,0.47 -1.18,-2.58 0.93,-3.51 0.32,0.8 0.94,1.4 1.9,1.89 l 0,0"
           inkscape:connector-curvature="0" />
        <path
           id="path9918"
           style="fill:#100f0d;fill-opacity:1;fill-rule:nonzero;stroke:none"
           d="m 3728.06,4624.66 c -1.12,-0.33 -1.34,-1.17 -0.72,-2.58 0.17,1.07 0.93,1.78 2.37,2.11 l -1.65,0.47"
           inkscape:connector-curvature="0" />
        <path
           id="path9920"
           style="fill:#100f0d;fill-opacity:1;fill-rule:nonzero;stroke:none"
           d="m 3740.71,4592.74 0,-27.69 31.44,-25.8 0,68.75 c 0,5.31 -1.09,8.9 -3.27,10.78 l 0,-14.32 -28.17,-11.72"
           inkscape:connector-curvature="0" />
        <path
           id="path9922"
           style="fill:#f1d817;fill-opacity:1;fill-rule:nonzero;stroke:none"
           d="m 3747.03,4542.29 -0.89,0 0,58.66 0.89,0 0,-58.66 0,0"
           inkscape:connector-curvature="0" />
        <path
           id="path9924"
           style="fill:#f1d817;fill-opacity:1;fill-rule:nonzero;stroke:none"
           d="m 3753.61,4542.29 -0.89,0 0,58.66 0.89,0 0,-58.66 0,0"
           inkscape:connector-curvature="0" />
        <path
           id="path9926"
           style="fill:#f1d817;fill-opacity:1;fill-rule:nonzero;stroke:none"
           d="m 3760.18,4542.29 -0.89,0 0,58.66 0.89,0 0,-58.66 0,0"
           inkscape:connector-curvature="0" />
        <path
           id="path9928"
           style="fill:#f1d817;fill-opacity:1;fill-rule:nonzero;stroke:none"
           d="m 3766.74,4542.29 -0.88,0 0,58.66 0.88,0 0,-58.66 0,0"
           inkscape:connector-curvature="0" />
        <path
           id="path9930"
           style="fill:#100f0d;fill-opacity:1;fill-rule:nonzero;stroke:none"
           d="m 3734.61,4587.57 c 21.12,0 30.04,6.81 34.51,11.97 l 0,18.99 c 2.32,0.66 3.59,2.38 3.75,5.19 -6.58,-5.41 -16.9,7.27 -23.01,-5.88 3.3,-6.56 9.87,-5.88 12.21,-2.11 4.7,-3.98 0.94,-19 -27.46,-18.77 l 0,-9.39"
           inkscape:connector-curvature="0" />
        <path
           id="path9932"
           style="fill:#cc1e25;fill-opacity:1;fill-rule:nonzero;stroke:none"
           d="m 3742.35,4541.61 c -1.64,-2.13 -0.22,-4.02 1.19,-4.73 -0.49,1.43 -0.24,2.74 0.71,3.99 l -1.9,0.74"
           inkscape:connector-curvature="0" />
        <path
           id="path9934"
           style="fill:#100f0d;fill-opacity:1;fill-rule:nonzero;stroke:none"
           d="m 3743.67,4536.92 c -0.96,0.22 -1.87,1.02 -2.13,2.15 -0.2,0.84 0.05,1.76 0.7,2.6 l 0.22,-0.18 c -0.6,-0.78 -0.81,-1.58 -0.64,-2.38 0.25,-0.99 1.07,-1.76 1.78,-2.07 -0.69,1.27 -0.44,2.64 0.52,3.95 -0.68,-1.41 -0.89,-2.68 -0.45,-4.07 l 0,0"
           inkscape:connector-curvature="0" />
        <path
           id="path9936"
           style="fill:#cc1e25;fill-opacity:1;fill-rule:nonzero;stroke:none"
           d="m 3750.58,4533.6 c 0.14,-0.93 -0.33,-2.11 -1.41,-3.53 2.82,0.72 3.99,1.68 3.05,3.3 l -1.64,0.23"
           inkscape:connector-curvature="0" />
        <path
           id="path9938"
           style="fill:#100f0d;fill-opacity:1;fill-rule:nonzero;stroke:none"
           d="m 3749.21,4529.95 c 0.91,1.58 1.37,2.74 1.21,3.63 l 0.3,0.04 c 0.16,-0.97 -0.32,-2.2 -1.44,-3.61 1.73,0.7 2.73,1.23 3.01,1.91 0.18,0.39 0.1,0.84 -0.21,1.37 0.63,-0.47 0.68,-1.01 0.5,-1.48 -0.34,-0.78 -1.42,-1.37 -3.37,-1.86 l 0,0"
           inkscape:connector-curvature="0" />
        <path
           id="path9940"
           style="fill:#cc1e25;fill-opacity:1;fill-rule:nonzero;stroke:none"
           d="m 3759.95,4537.14 c 0.48,-1.11 0.56,-2.36 0.26,-3.77 2.1,1.89 2.8,4.45 1.16,4.94 l -1.42,-1.17"
           inkscape:connector-curvature="0" />
        <path
           id="path9942"
           style="fill:#100f0d;fill-opacity:1;fill-rule:nonzero;stroke:none"
           d="m 3760.3,4533.27 c 0.05,1.51 -0.02,2.76 -0.5,3.81 l 0.3,0.1 c 0.48,-1.12 0.55,-2.4 0.23,-3.85 1.14,1.39 1.99,3.01 1.76,4.02 -0.09,0.43 -0.35,0.71 -0.76,0.8 0.61,0.16 0.93,-0.21 1.05,-0.72 0.27,-1.13 -0.6,-2.83 -2.08,-4.16 l 0,0"
           inkscape:connector-curvature="0" />
        <path
           id="path9944"
           style="fill:#cc1e25;fill-opacity:1;fill-rule:nonzero;stroke:none"
           d="m 3759.73,4545.58 c 0.78,-0.18 1.55,-0.92 2.34,-2.35 0.24,2.58 -0.23,3.99 -2.58,4.46 l 0.24,-2.11"
           inkscape:connector-curvature="0" />
        <path
           id="path9946"
           style="fill:#100f0d;fill-opacity:1;fill-rule:nonzero;stroke:none"
           d="m 3762.21,4543.21 c -1.02,1.29 -1.78,2.07 -2.52,2.23 l 0.06,0.27 c 0.83,-0.15 1.66,-0.97 2.46,-2.4 -0.02,2.7 -0.69,3.83 -2.76,4.24 2.62,-0.22 2.99,-1.86 2.76,-4.34 l 0,0"
           inkscape:connector-curvature="0" />
        <path
           id="path9948"
           style="fill:#cc1e25;fill-opacity:1;fill-rule:nonzero;stroke:none"
           d="m 3739.07,4553.31 11.05,-10.08 c 0,0 -4.23,-0.94 -5.87,-0.94 -1.66,0 -3.06,-0.46 -2.59,-0.95 0.47,-0.47 1.39,-0.47 1.88,-1.15 0.45,-0.71 1.17,-1.66 2.09,-0.71 0.95,0.92 4.23,1.86 4.23,1.86 0,0 0,-5.39 -0.23,-6.08 -0.23,-0.72 -0.94,-2.11 -0.46,-2.11 0.46,0 0.46,0.22 2.35,0 1.86,-0.25 1.64,-0.72 1.17,2.11 -0.47,2.8 -0.24,5.84 -0.24,5.84 0,0 4.22,-2.79 5.64,-4.68 1.4,-1.88 1.18,-0.47 1.86,0.25 0.72,0.68 1.64,0.92 2.36,1.15 0.7,0.24 -1.88,0.96 -2.58,1.43 -0.72,0.47 -6.1,3.51 -6.1,3.51 0,0 3.04,0.94 4.92,1.2 1.88,0.21 1.88,0.21 1.66,1.15 -0.26,0.93 0,1.89 0,2.34 0,0.45 -0.26,0.94 -1.43,0 -1.16,-0.94 -6.56,-3.28 -6.56,-3.28 l -9.17,12.19 -3.98,-3.05"
           inkscape:connector-curvature="0" />
        <path
           id="path9950"
           style="fill:#100f0d;fill-opacity:1;fill-rule:nonzero;stroke:none"
           d="m 3752.75,4532.82 c -0.13,0 -0.3,0.02 -0.53,0.06 l -0.72,0.1 c -1.33,0.17 -1.71,0.1 -1.98,0.08 l -0.6,0.06 c -0.16,0.23 0.04,0.76 0.36,1.58 l 0.21,0.58 c 0.2,0.55 0.24,4.53 0.24,6.06 -0.15,-0.24 -3.11,-1.12 -3.99,-1.99 -0.29,-0.28 -0.6,-0.45 -0.97,-0.39 -0.56,0.03 -0.96,0.58 -1.36,1.13 -0.23,0.37 -0.64,0.54 -1.02,0.7 -0.32,0.12 -0.61,0.24 -0.84,0.45 l -0.07,0.08 -0.03,0.35 c 0.2,0.51 1.59,0.76 2.8,0.76 1.6,0 5.77,0.94 5.83,0.94 l -11.1,9.84 0.2,0.22 11.03,-10.08 c -0.24,-0.29 -4.34,-1.21 -5.96,-1.21 -1.41,0 -2.43,-0.35 -2.53,-0.57 0.22,-0.29 0.48,-0.41 0.78,-0.51 0.39,-0.17 0.86,-0.35 1.16,-0.8 0.33,-0.5 0.72,-0.97 1.14,-1.01 0.26,-0.04 0.5,0.08 0.74,0.33 0.95,0.98 4.15,1.88 4.29,1.91 0.17,-0.37 0.17,-5.56 -0.05,-6.3 l -0.24,-0.59 c -0.16,-0.39 -0.46,-1.19 -0.37,-1.31 0.59,0.08 1,0.16 2.35,0 l 0.75,-0.14 c 0.25,-0.03 0.51,-0.09 0.57,-0.03 0.07,0.07 0,0.5 -0.1,1.05 l -0.2,1.05 c -0.46,2.8 -0.25,5.88 -0.24,5.9 0.41,0 4.48,-2.75 5.91,-4.59 0.53,-0.74 0.66,-0.84 0.89,-0.9 0.09,0 0.2,0.2 0.28,0.43 0.13,0.22 0.26,0.49 0.46,0.71 0.65,0.62 1.49,0.92 2.15,1.11 0.22,0.14 -0.52,0.45 -1,0.65 -0.52,0.21 -1.07,0.41 -1.33,0.58 -0.72,0.47 -6.11,3.52 -6.11,3.52 0.06,0.27 3.12,1.21 4.99,1.44 0.95,0.12 1.47,0.2 1.6,0.35 0.07,0.08 0,0.32 -0.09,0.67 -0.17,0.68 -0.1,1.37 -0.04,1.87 0.02,0.22 0.04,0.37 0.04,0.49 -0.23,0.43 -0.47,0.45 -1.16,-0.12 -1.18,-0.95 -6.39,-3.18 -6.62,-3.3 l -9.33,12.25 9.38,-12.01 c -0.02,0.11 5.23,2.38 6.37,3.3 0.61,0.49 1.06,0.66 1.36,0.53 0.13,-0.08 0.28,-0.22 0.28,-0.65 0,-0.12 -0.02,-0.29 -0.03,-0.53 -0.06,-0.46 -0.12,-1.13 0.03,-1.79 0.1,-0.41 0.18,-0.67 0.04,-0.88 -0.17,-0.26 -0.62,-0.29 -1.81,-0.43 -1.7,-0.24 -4.43,-1.06 -4.84,-1.19 0.56,-0.04 5.42,-2.82 6.08,-3.28 0.26,-0.14 0.8,-0.38 1.29,-0.57 1.12,-0.45 1.49,-0.61 1.49,-0.84 l -0.51,-0.35 c -0.66,-0.2 -1.42,-0.43 -2.01,-1.02 -0.18,-0.19 -0.29,-0.45 -0.38,-0.66 -0.17,-0.28 -0.3,-0.55 -0.54,-0.57 -0.29,-0.02 -0.62,0.28 -1.18,1 -1.3,1.76 -5.12,4.31 -5.55,4.63 0.15,-0.32 -0.02,-3.15 0.43,-5.69 l 0.18,-1.05 c 0.16,-0.82 0.21,-1.15 0.04,-1.31 -0.07,-0.08 -0.19,-0.1 -0.31,-0.1 l 0,0"
           inkscape:connector-curvature="0" />
        <path
           id="path9952"
           style="fill:#100f0d;fill-opacity:1;fill-rule:nonzero;stroke:none"
           d="m 3730.39,4522.82 4.94,5.88 c 5.64,-3.46 9.77,-2.5 12.42,2.79 -8.44,-1.42 -12.42,6.27 -11.96,22.99 l 6.34,-9.82 0,9.12 7.73,-0.94 -20.41,21.82 0.94,-51.84"
           inkscape:connector-curvature="0" />
        <path
           id="path9954"
           style="fill:#100f0d;fill-opacity:1;fill-rule:nonzero;stroke:none"
           d="m 3720.07,4592.74 0,-27.69 -31.44,-25.8 0,68.75 c 0,5.31 1.11,8.9 3.28,10.78 l 0,-14.32 28.16,-11.72"
           inkscape:connector-curvature="0" />
        <path
           id="path9956"
           style="fill:#f1d817;fill-opacity:1;fill-rule:nonzero;stroke:none"
           d="m 3714.65,4542.29 -0.88,0 0,58.66 0.88,0 0,-58.66 0,0"
           inkscape:connector-curvature="0" />
        <path
           id="path9958"
           style="fill:#f1d817;fill-opacity:1;fill-rule:nonzero;stroke:none"
           d="m 3708.07,4542.29 -0.87,0 0,58.66 0.87,0 0,-58.66 0,0"
           inkscape:connector-curvature="0" />
        <path
           id="path9960"
           style="fill:#f1d817;fill-opacity:1;fill-rule:nonzero;stroke:none"
           d="m 3701.5,4542.29 -0.87,0 0,58.66 0.87,0 0,-58.66 0,0"
           inkscape:connector-curvature="0" />
        <path
           id="path9962"
           style="fill:#f1d817;fill-opacity:1;fill-rule:nonzero;stroke:none"
           d="m 3694.94,4542.29 -0.9,0 0,58.66 0.9,0 0,-58.66 0,0"
           inkscape:connector-curvature="0" />
        <path
           id="path9964"
           style="fill:#100f0d;fill-opacity:1;fill-rule:nonzero;stroke:none"
           d="m 3726.18,4587.57 c -21.13,0 -30.04,6.81 -34.5,11.97 l 0,18.99 c -2.35,0.66 -3.59,2.38 -3.74,5.19 6.56,-5.41 16.88,7.27 22.98,-5.88 -3.27,-6.56 -9.86,-5.88 -12.2,-2.11 -4.68,-3.98 -0.94,-19 27.46,-18.77 l 0,-9.39"
           inkscape:connector-curvature="0" />
        <path
           id="path9966"
           style="fill:#cc1e25;fill-opacity:1;fill-rule:nonzero;stroke:none"
           d="m 3718.43,4541.61 c 1.64,-2.13 0.25,-4.02 -1.18,-4.73 0.48,1.43 0.23,2.74 -0.69,3.99 l 1.87,0.74"
           inkscape:connector-curvature="0" />
        <path
           id="path9968"
           style="fill:#100f0d;fill-opacity:1;fill-rule:nonzero;stroke:none"
           d="m 3717.32,4536.77 c 0.26,1.54 0.04,2.81 -0.88,4.02 1.19,-1.11 1.43,-2.48 0.95,-3.94 0.5,0.5 1.34,1.27 1.57,2.26 0.18,0.8 -0.03,1.6 -0.66,2.38 l 0.24,0.18 c 0.66,-0.84 0.9,-1.76 0.71,-2.6 -0.25,-1.13 -1.15,-1.93 -1.93,-2.3 l 0,0"
           inkscape:connector-curvature="0" />
        <path
           id="path9970"
           style="fill:#cc1e25;fill-opacity:1;fill-rule:nonzero;stroke:none"
           d="m 3710.21,4533.6 c -0.15,-0.93 0.32,-2.11 1.4,-3.53 -2.81,0.72 -3.96,1.68 -3.05,3.3 l 1.65,0.23"
           inkscape:connector-curvature="0" />
        <path
           id="path9972"
           style="fill:#100f0d;fill-opacity:1;fill-rule:nonzero;stroke:none"
           d="m 3711.76,4530.19 c -2.14,0.25 -3.22,0.84 -3.53,1.62 -0.21,0.47 -0.14,1.01 0.21,1.64 -0.05,-0.69 -0.13,-1.14 0.04,-1.53 0.31,-0.68 1.32,-1.21 3.17,-1.68 -1.26,1.18 -1.74,2.41 -1.59,3.38 l 0.31,-0.04 c -0.16,-0.89 0.29,-2.05 1.39,-3.39 l 0,0"
           inkscape:connector-curvature="0" />
        <path
           id="path9974"
           style="fill:#cc1e25;fill-opacity:1;fill-rule:nonzero;stroke:none"
           d="m 3700.83,4537.14 c -0.47,-1.11 -0.54,-2.36 -0.22,-3.77 -2.12,1.89 -2.83,4.45 -1.19,4.94 l 1.41,-1.17"
           inkscape:connector-curvature="0" />
        <path
           id="path9976"
           style="fill:#100f0d;fill-opacity:1;fill-rule:nonzero;stroke:none"
           d="m 3700.73,4533.41 c -1.72,1.19 -2.58,2.89 -2.3,4.02 0.1,0.51 0.44,0.88 0.95,1.02 -0.32,-0.39 -0.58,-0.67 -0.67,-1.1 -0.24,-1.01 0.61,-2.63 1.99,-3.86 -0.56,1.29 -0.49,2.57 0,3.69 l 0.28,-0.1 c -0.47,-1.05 -0.54,-2.3 -0.25,-3.67 l 0,0"
           inkscape:connector-curvature="0" />
        <path
           id="path9978"
           style="fill:#cc1e25;fill-opacity:1;fill-rule:nonzero;stroke:none"
           d="m 3701.06,4545.58 c -0.77,-0.18 -1.57,-0.92 -2.34,-2.35 -0.23,2.58 0.24,3.99 2.59,4.46 l -0.25,-2.11"
           inkscape:connector-curvature="0" />
        <path
           id="path9980"
           style="fill:#100f0d;fill-opacity:1;fill-rule:nonzero;stroke:none"
           d="m 3698.85,4543.15 c -0.5,2.54 -0.13,4.18 2.42,4.69 -2.01,-0.7 -2.66,-1.83 -2.4,-4.59 0.53,1.51 1.34,2.31 2.16,2.46 l 0.06,-0.27 c -0.73,-0.16 -1.48,-0.94 -2.24,-2.29 l 0,0"
           inkscape:connector-curvature="0" />
        <path
           id="path9982"
           style="fill:#cc1e25;fill-opacity:1;fill-rule:nonzero;stroke:none"
           d="m 3721.71,4553.31 -11.03,-10.08 c 0,0 4.23,-0.94 5.88,-0.94 1.63,0 3.05,-0.46 2.58,-0.95 -0.46,-0.47 -1.41,-0.47 -1.89,-1.15 -0.46,-0.71 -1.16,-1.66 -2.1,-0.71 -0.95,0.92 -4.23,1.86 -4.23,1.86 0,0 0,-5.39 0.23,-6.08 0.24,-0.72 0.95,-2.11 0.46,-2.11 -0.46,0 -0.46,0.22 -2.32,0 -1.89,-0.25 -1.64,-0.72 -1.18,2.11 0.45,2.8 0.22,5.84 0.22,5.84 0,0 -4.22,-2.79 -5.61,-4.68 -1.41,-1.88 -1.18,-0.47 -1.89,0.25 -0.69,0.68 -1.64,0.92 -2.34,1.15 -0.71,0.24 1.87,0.96 2.57,1.43 0.71,0.47 6.1,3.51 6.1,3.51 0,0 -3.05,0.94 -4.91,1.2 -1.89,0.21 -1.89,0.21 -1.64,1.15 0.22,0.93 0,1.89 0,2.34 0,0.45 0.22,0.94 1.39,0 1.18,-0.94 6.56,-3.28 6.56,-3.28 l 9.17,12.19 3.98,-3.05"
           inkscape:connector-curvature="0" />
        <path
           id="path9984"
           style="fill:#100f0d;fill-opacity:1;fill-rule:nonzero;stroke:none"
           d="m 3708.03,4532.82 c -0.12,0 -0.22,0.02 -0.3,0.1 -0.16,0.16 -0.1,0.49 0.05,1.31 l 0.18,1.05 c 0.44,2.62 0.27,5.49 0.23,5.82 -0.14,-0.37 -4.05,-3 -5.37,-4.76 -0.54,-0.72 -0.89,-1.02 -1.17,-1 -0.25,0.02 -0.38,0.29 -0.52,0.57 -0.1,0.21 -0.21,0.47 -0.41,0.64 -0.58,0.61 -1.34,0.84 -2,1.04 l -0.5,0.35 c -0.02,0.23 0.35,0.39 1.47,0.84 0.52,0.19 1.04,0.43 1.3,0.57 0.64,0.46 5.37,3.12 6.02,3.49 -0.49,0 -3.11,0.74 -4.78,0.98 -1.19,0.14 -1.61,0.17 -1.81,0.43 -0.13,0.21 -0.07,0.47 0.04,0.88 0.16,0.66 0.09,1.33 0.03,1.79 -0.02,0.24 -0.03,0.41 -0.03,0.53 0,0.43 0.16,0.57 0.27,0.65 0.31,0.13 0.75,-0.04 1.37,-0.53 1.14,-0.92 6.46,-3.24 6.54,-3.26 l 8.98,12.15 -8.93,-12.39 c -0.4,0.08 -5.59,2.31 -6.78,3.26 -0.68,0.57 -0.95,0.55 -1.03,0.51 -0.15,-0.51 -0.11,-0.66 -0.11,-0.88 0.07,-0.5 0.15,-1.19 -0.04,-1.87 -0.09,-0.35 -0.12,-0.59 -0.07,-0.67 0.11,-0.15 0.65,-0.23 1.6,-0.35 1.86,-0.23 4.92,-1.17 4.95,-1.17 0.04,-0.27 -5.36,-3.32 -6.06,-3.79 -0.29,-0.17 -0.84,-0.37 -1.36,-0.58 -0.47,-0.2 -1.22,-0.51 -1.28,-0.63 0.94,-0.21 1.78,-0.51 2.43,-1.13 0.21,-0.22 0.35,-0.49 0.46,-0.71 0.08,-0.23 0.2,-0.43 0.29,-0.43 0.16,0.06 0.35,0.16 0.91,0.9 1.4,1.84 5.49,4.59 5.67,4.71 0.21,-0.14 0.44,-3.22 -0.02,-6.02 l -0.18,-1.05 c -0.11,-0.55 -0.2,-0.98 -0.13,-1.05 0.04,-0.06 0.33,0 0.6,0.03 l 0.73,0.14 c 1.36,0.16 1.77,0.08 2.04,0.04 0.39,0.08 0.1,0.9 -0.07,1.27 l -0.22,0.59 c -0.24,0.74 -0.24,5.93 -0.24,6.15 0.33,0.12 3.52,-0.78 4.47,-1.76 0.25,-0.25 0.52,-0.37 0.73,-0.33 0.44,0.04 0.83,0.51 1.14,1.01 0.31,0.45 0.77,0.63 1.18,0.8 0.29,0.1 0.56,0.22 0.73,0.4 -0.05,0.33 -1.06,0.68 -2.47,0.68 -1.65,0 -5.73,0.92 -5.91,0.96 l 10.97,10.33 0.2,-0.22 -11.01,-10.08 c 0.38,0.14 4.21,-0.7 5.75,-0.7 1.18,0 2.58,-0.25 2.78,-0.76 l 0.04,-0.06 -0.14,-0.37 c -0.23,-0.21 -0.51,-0.33 -0.83,-0.45 -0.39,-0.16 -0.78,-0.33 -1.04,-0.7 -0.37,-0.55 -0.79,-1.1 -1.35,-1.13 -0.34,-0.06 -0.66,0.11 -0.98,0.39 -0.91,0.91 -4.13,1.85 -4.15,1.85 0.17,-1.35 0.22,-5.37 0.41,-5.92 l 0.21,-0.56 c 0.34,-0.84 0.52,-1.37 0.36,-1.6 l -0.61,-0.06 c -0.26,0.02 -0.64,0.09 -1.96,-0.08 l -0.74,-0.1 c -0.23,-0.04 -0.39,-0.06 -0.53,-0.06 l 0,0"
           inkscape:connector-curvature="0" />
        <path
           id="path9986"
           style="fill:#100f0d;fill-opacity:1;fill-rule:nonzero;stroke:none"
           d="m 3730.39,4522.82 -4.92,5.88 c -5.63,-3.46 -9.77,-2.5 -12.42,2.79 8.42,-1.42 12.42,6.27 11.94,22.99 l -6.31,-9.82 0,9.12 -7.76,-0.94 20.41,21.82 -0.94,-51.84"
           inkscape:connector-curvature="0" />
      </g>
    </g>
  </g>
</svg>
