<?xml version="1.0" encoding="UTF-8" standalone="no"?>
<!-- Created with Inkscape (http://www.inkscape.org/) -->

<svg
   xmlns:dc="http://purl.org/dc/elements/1.1/"
   xmlns:cc="http://creativecommons.org/ns#"
   xmlns:rdf="http://www.w3.org/1999/02/22-rdf-syntax-ns#"
   xmlns:svg="http://www.w3.org/2000/svg"
   xmlns="http://www.w3.org/2000/svg"
   xmlns:sodipodi="http://sodipodi.sourceforge.net/DTD/sodipodi-0.dtd"
   xmlns:inkscape="http://www.inkscape.org/namespaces/inkscape"
   width="48"
   height="48"
   viewBox="0 0 48.000001 48.000001"
   id="svg77671"
   version="1.1"
   inkscape:version="0.91 r13725"
   sodipodi:docname="i18n-ES.svg">
  <defs
     id="defs77673">
    <clipPath
       id="clipPath8370"
       clipPathUnits="userSpaceOnUse">
      <path
         inkscape:connector-curvature="0"
         id="path8368"
         d="m 6690.08,4294.77 335.62,0 0,-195.82 -335.62,0 z" />
    </clipPath>
    <clipPath
       id="clipPath35762"
       clipPathUnits="userSpaceOnUse">
      <path
         inkscape:connector-curvature="0"
         id="path35760"
         d="m 4605.06,6583.13 335.62,0 0,-195.77 -335.62,0 z" />
    </clipPath>
    <clipPath
       id="clipPath7654"
       clipPathUnits="userSpaceOnUse">
      <path
         inkscape:connector-curvature="0"
         id="path7652"
         d="m 435.145,3913.36 335.625,0 0,-195.82 -335.625,0 z" />
    </clipPath>
    <clipPath
       id="clipPath5716"
       clipPathUnits="userSpaceOnUse">
      <path
         inkscape:connector-curvature="0"
         id="path5714"
         d="m 956.395,3150.55 335.625,0 0,-195.75 -335.625,0 z" />
    </clipPath>
    <clipPath
       id="clipPath9892"
       clipPathUnits="userSpaceOnUse">
      <path
         inkscape:connector-curvature="0"
         id="path9890"
         d="m 3562.58,4676.14 335.63,0 0,-195.78 -335.63,0 z" />
    </clipPath>
    <clipPath
       id="clipPath13494"
       clipPathUnits="userSpaceOnUse">
      <path
         inkscape:connector-curvature="0"
         id="path13492"
         d="m 5647.54,5243.17 335.62,0 0,195.78 -335.62,0 z" />
    </clipPath>
    <clipPath
       id="clipPath13506"
       clipPathUnits="userSpaceOnUse">
      <path
         inkscape:connector-curvature="0"
         id="path13504"
         d="m 5647.54,5438.95 335.62,0 0,-195.78 -335.62,0 z" />
    </clipPath>
    <clipPath
       id="clipPath14518"
       clipPathUnits="userSpaceOnUse">
      <path
         inkscape:connector-curvature="0"
         id="path14516"
         d="m 3562.59,5438.95 335.62,0 0,-195.78 -335.62,0 z" />
    </clipPath>
  </defs>
  <sodipodi:namedview
     id="base"
     pagecolor="#ffffff"
     bordercolor="#666666"
     borderopacity="1.0"
     inkscape:pageopacity="0.0"
     inkscape:pageshadow="2"
     inkscape:zoom="18.020833"
     inkscape:cx="24"
     inkscape:cy="24"
     inkscape:document-units="px"
     inkscape:current-layer="layer1"
     showgrid="false"
     units="px"
     inkscape:window-width="1792"
     inkscape:window-height="1071"
     inkscape:window-x="0"
     inkscape:window-y="0"
     inkscape:window-maximized="1" />
  <metadata
     id="metadata77676">
    <rdf:RDF>
      <cc:Work
         rdf:about="">
        <dc:format>image/svg+xml</dc:format>
        <dc:type
           rdf:resource="http://purl.org/dc/dcmitype/StillImage" />
        <dc:title></dc:title>
      </cc:Work>
    </rdf:RDF>
  </metadata>
  <g
     inkscape:label="Camada 1"
     inkscape:groupmode="layer"
     id="layer1"
     transform="translate(0,-1004.3622)">
    <g
       id="g14512"
       transform="matrix(0.13333333,0,0,-0.13333333,-473.38665,1740.5035)">
      <g
         clip-path="url(#clipPath14518)"
         id="g14514">
        <path
           id="path14520"
           style="fill:#ffffff;fill-opacity:1;fill-rule:nonzero;stroke:none"
           d="m 3562.59,5243.17 335.62,0 0,195.78 -335.62,0 0,-195.78"
           inkscape:connector-curvature="0" />
        <path
           id="path14522"
           style="fill:#be1a36;fill-opacity:1;fill-rule:nonzero;stroke:none"
           d="m 3787.31,5368.16 110.9,62.08 0,8.71 -7.64,0 -126.45,-70.79 23.19,0"
           inkscape:connector-curvature="0" />
        <path
           id="path14524"
           style="fill:#be1a36;fill-opacity:1;fill-rule:nonzero;stroke:none"
           d="m 3782.08,5310.03 116.13,-64.99 0,12.99 -92.93,52 -23.2,0"
           inkscape:connector-curvature="0" />
        <path
           id="path14526"
           style="fill:#be1a36;fill-opacity:1;fill-rule:nonzero;stroke:none"
           d="m 3562.59,5424.04 99.34,-55.88 23.22,0 -122.56,68.88 0,-13"
           inkscape:connector-curvature="0" />
        <path
           id="path14528"
           style="fill:#be1a36;fill-opacity:1;fill-rule:nonzero;stroke:none"
           d="m 3679.88,5310.03 -117.29,-65.72 0,-1.14 21.19,0 119.33,66.86 -23.23,0"
           inkscape:connector-curvature="0" />
        <path
           id="path14530"
           style="fill:#2b3076;fill-opacity:1;fill-rule:nonzero;stroke:none"
           d="m 3875.24,5438.95 -117.51,0 0,-65.82 z"
           inkscape:connector-curvature="0" />
        <path
           id="path14532"
           style="fill:#2b3076;fill-opacity:1;fill-rule:nonzero;stroke:none"
           d="m 3705.85,5438.95 -117.04,0 117.04,-65.82 z"
           inkscape:connector-curvature="0" />
        <path
           id="path14534"
           style="fill:#2b3076;fill-opacity:1;fill-rule:nonzero;stroke:none"
           d="m 3898.21,5368.16 0,44.92 -79.71,-44.92 z"
           inkscape:connector-curvature="0" />
        <path
           id="path14536"
           style="fill:#2b3076;fill-opacity:1;fill-rule:nonzero;stroke:none"
           d="m 3898.21,5265.6 0,44.43 -79.71,0 z"
           inkscape:connector-curvature="0" />
        <path
           id="path14538"
           style="fill:#2b3076;fill-opacity:1;fill-rule:nonzero;stroke:none"
           d="m 3595.45,5243.17 110.4,0 0,61.87 z"
           inkscape:connector-curvature="0" />
        <path
           id="path14540"
           style="fill:#2b3076;fill-opacity:1;fill-rule:nonzero;stroke:none"
           d="m 3757.73,5243.17 110.76,0 -110.76,61.87 z"
           inkscape:connector-curvature="0" />
        <path
           id="path14542"
           style="fill:#2b3076;fill-opacity:1;fill-rule:nonzero;stroke:none"
           d="m 3562.59,5310.03 0,-46.44 82.49,46.44 z"
           inkscape:connector-curvature="0" />
        <path
           id="path14544"
           style="fill:#2b3076;fill-opacity:1;fill-rule:nonzero;stroke:none"
           d="m 3562.59,5368.16 82.49,0 -82.49,46.51 z"
           inkscape:connector-curvature="0" />
        <path
           id="path14546"
           style="fill:#be1a36;fill-opacity:1;fill-rule:nonzero;stroke:none"
           d="m 3716.23,5438.95 0,-82.42 -153.64,0 0,-34.9 153.64,0 0,-78.46 31.12,0 0,78.46 150.86,0 0,34.9 -150.86,0 0,82.42 -31.12,0"
           inkscape:connector-curvature="0" />
      </g>
    </g>
  </g>
</svg>
