<?xml version="1.0" encoding="UTF-8" standalone="no"?>
<!-- Created with Inkscape (http://www.inkscape.org/) -->

<svg
   xmlns:dc="http://purl.org/dc/elements/1.1/"
   xmlns:cc="http://creativecommons.org/ns#"
   xmlns:rdf="http://www.w3.org/1999/02/22-rdf-syntax-ns#"
   xmlns:svg="http://www.w3.org/2000/svg"
   xmlns="http://www.w3.org/2000/svg"
   xmlns:sodipodi="http://sodipodi.sourceforge.net/DTD/sodipodi-0.dtd"
   xmlns:inkscape="http://www.inkscape.org/namespaces/inkscape"
   width="48"
   height="48"
   viewBox="0 0 48.000001 48.000001"
   id="svg77671"
   version="1.1"
   inkscape:version="0.91 r13725"
   sodipodi:docname="i18n-ES.svg">
  <defs
     id="defs77673">
    <clipPath
       id="clipPath8370"
       clipPathUnits="userSpaceOnUse">
      <path
         inkscape:connector-curvature="0"
         id="path8368"
         d="m 6690.08,4294.77 335.62,0 0,-195.82 -335.62,0 z" />
    </clipPath>
    <clipPath
       id="clipPath35762"
       clipPathUnits="userSpaceOnUse">
      <path
         inkscape:connector-curvature="0"
         id="path35760"
         d="m 4605.06,6583.13 335.62,0 0,-195.77 -335.62,0 z" />
    </clipPath>
    <clipPath
       id="clipPath7654"
       clipPathUnits="userSpaceOnUse">
      <path
         inkscape:connector-curvature="0"
         id="path7652"
         d="m 435.145,3913.36 335.625,0 0,-195.82 -335.625,0 z" />
    </clipPath>
    <clipPath
       id="clipPath5716"
       clipPathUnits="userSpaceOnUse">
      <path
         inkscape:connector-curvature="0"
         id="path5714"
         d="m 956.395,3150.55 335.625,0 0,-195.75 -335.625,0 z" />
    </clipPath>
    <clipPath
       id="clipPath9892"
       clipPathUnits="userSpaceOnUse">
      <path
         inkscape:connector-curvature="0"
         id="path9890"
         d="m 3562.58,4676.14 335.63,0 0,-195.78 -335.63,0 z" />
    </clipPath>
    <clipPath
       id="clipPath13494"
       clipPathUnits="userSpaceOnUse">
      <path
         inkscape:connector-curvature="0"
         id="path13492"
         d="m 5647.54,5243.17 335.62,0 0,195.78 -335.62,0 z" />
    </clipPath>
    <clipPath
       id="clipPath13506"
       clipPathUnits="userSpaceOnUse">
      <path
         inkscape:connector-curvature="0"
         id="path13504"
         d="m 5647.54,5438.95 335.62,0 0,-195.78 -335.62,0 z" />
    </clipPath>
    <clipPath
       id="clipPath14518"
       clipPathUnits="userSpaceOnUse">
      <path
         inkscape:connector-curvature="0"
         id="path14516"
         d="m 3562.59,5438.95 335.62,0 0,-195.78 -335.62,0 z" />
    </clipPath>
    <clipPath
       id="clipPath5752"
       clipPathUnits="userSpaceOnUse">
      <path
         inkscape:connector-curvature="0"
         id="path5750"
         d="m 7211.17,3531.95 335.63,0 0,-195.78 -335.63,0 z" />
    </clipPath>
  </defs>
  <sodipodi:namedview
     id="base"
     pagecolor="#ffffff"
     bordercolor="#666666"
     borderopacity="1.0"
     inkscape:pageopacity="0.0"
     inkscape:pageshadow="2"
     inkscape:zoom="18.020833"
     inkscape:cx="24"
     inkscape:cy="24"
     inkscape:document-units="px"
     inkscape:current-layer="layer1"
     showgrid="false"
     units="px"
     inkscape:window-width="1792"
     inkscape:window-height="1071"
     inkscape:window-x="0"
     inkscape:window-y="0"
     inkscape:window-maximized="1" />
  <metadata
     id="metadata77676">
    <rdf:RDF>
      <cc:Work
         rdf:about="">
        <dc:format>image/svg+xml</dc:format>
        <dc:type
           rdf:resource="http://purl.org/dc/dcmitype/StillImage" />
        <dc:title></dc:title>
      </cc:Work>
    </rdf:RDF>
  </metadata>
  <g
     inkscape:label="Camada 1"
     inkscape:groupmode="layer"
     id="layer1"
     transform="translate(0,-1004.3622)">
    <g
       id="g5746"
       transform="matrix(0.13333333,0,0,-0.13333333,-959.86464,1486.2369)">
      <g
         clip-path="url(#clipPath5752)"
         id="g5748">
        <path
           id="path5754"
           style="fill:#ffffff;fill-opacity:1;fill-rule:nonzero;stroke:none"
           d="m 7211.17,3336.17 335.63,0 0,195.78 -335.63,0 0,-195.78"
           inkscape:connector-curvature="0" />
        <path
           id="path5756"
           style="fill:#f0882c;fill-opacity:1;fill-rule:nonzero;stroke:none"
           d="m 7211.17,3466.68 335.63,0 0,65.27 -335.63,0 0,-65.27"
           inkscape:connector-curvature="0" />
        <path
           id="path5758"
           style="fill:#3a8b37;fill-opacity:1;fill-rule:nonzero;stroke:none"
           d="m 7211.17,3336.17 335.63,0 0,65.24 -335.63,0 0,-65.24"
           inkscape:connector-curvature="0" />
        <path
           id="path5760"
           style="fill:#282a71;fill-opacity:1;fill-rule:nonzero;stroke:none"
           d="m 7378.96,3460.55 -0.74,-14.77 0.8,-8.4 0.75,8.4 -0.75,14.77 c 0.78,0 1.53,-0.04 2.27,-0.12 0,-0.04 -0.04,-0.04 -0.04,-0.08 0,-0.7 0.55,-1.29 1.21,-1.29 0.63,0 1.13,0.51 1.19,1.1 0.74,-0.16 1.45,-0.28 2.17,-0.51 l -4.53,-14.06 -1.45,-8.32 2.93,7.96 3.13,14.42 c 0.7,-0.24 1.4,-0.43 2.11,-0.7 -0.04,-0.12 -0.1,-0.28 -0.1,-0.43 0,-0.67 0.55,-1.22 1.23,-1.22 0.47,0 0.94,0.32 1.11,0.75 0.67,-0.32 1.31,-0.67 1.98,-1.06 l -8.03,-12.34 -3.56,-7.74 4.91,6.92 6.74,13.12 c 0.6,-0.35 1.23,-0.74 1.85,-1.13 -0.18,-0.23 -0.27,-0.47 -0.27,-0.78 0,-0.67 0.54,-1.21 1.23,-1.21 0.39,0 0.74,0.15 0.95,0.51 0.59,-0.51 1.14,-1.02 1.65,-1.53 l -10.94,-9.88 -5.41,-6.52 6.5,5.39 9.9,10.97 c 0.51,-0.54 1.02,-1.05 1.49,-1.64 -0.29,-0.23 -0.43,-0.58 -0.43,-0.93 0,-0.67 0.55,-1.22 1.19,-1.22 0.29,0 0.51,0.08 0.72,0.24 0.45,-0.63 0.84,-1.25 1.19,-1.88 l -13.12,-6.72 -6.91,-4.92 7.67,3.52 12.4,8.08 c 0.41,-0.7 0.75,-1.44 1.08,-2.07 -0.41,-0.19 -0.74,-0.66 -0.74,-1.17 0,-0.66 0.54,-1.21 1.19,-1.21 0.19,0 0.33,0.04 0.47,0.12 0.23,-0.7 0.44,-1.37 0.62,-2.07 l -14.43,-3.05 -7.91,-2.93 8.32,1.41 14.06,4.49 c 0.18,-0.62 0.35,-1.41 0.49,-2.11 -0.61,-0.08 -1.06,-0.55 -1.06,-1.21 0,-0.66 0.57,-1.21 1.23,-1.21 0.04,0 0.08,0 0.12,0 0.08,-0.7 0.08,-1.49 0.08,-2.19 l -14.73,0.7 -8.44,-0.74 8.44,-0.82 14.73,0.78 c 0,-0.78 0,-1.52 -0.08,-2.22 -0.04,0 -0.08,0 -0.12,0 -0.66,0 -1.23,-0.59 -1.23,-1.21 0,-0.63 0.45,-1.1 1.04,-1.22 -0.14,-0.74 -0.29,-1.44 -0.47,-2.14 l -5.02,1.6 -9.04,2.93 -8.32,1.4 0.04,0 -0.04,0 7.91,-2.93 14.43,-3.08 c -0.18,-0.7 -0.39,-1.45 -0.66,-2.07 -0.04,0 -0.12,0.04 -0.16,0.04 l 0,0 c -0.12,0 -0.2,0 -0.27,0 -0.69,0 -1.23,-0.51 -1.23,-1.21 0,-0.2 0.04,-0.32 0.11,-0.47 l 0,0 c 0.06,-0.2 0.18,-0.35 0.34,-0.47 l 0,0 c 0.03,0 0.05,-0.04 0.09,-0.04 l 0,0 c 0.04,-0.04 0.08,-0.08 0.12,-0.08 l 0,0 c 0.02,0 0.06,-0.04 0.08,-0.08 -0.31,-0.66 -0.67,-1.32 -1.04,-1.95 l -12.38,8.01 -0.02,0 -7.67,3.51 0.03,0 4.03,-2.81 2.85,-2.03 0,0 13.12,-6.72 c -0.39,-0.66 -0.78,-1.33 -1.21,-1.91 -0.19,0.11 -0.45,0.19 -0.7,0.19 -0.68,0 -1.21,-0.51 -1.21,-1.17 0,-0.39 0.16,-0.74 0.45,-0.94 -0.49,-0.54 -0.98,-1.09 -1.49,-1.6 l -9.9,10.94 -6.48,5.39 5.39,-6.52 10.94,-9.89 c -0.51,-0.54 -1.02,-0.97 -1.59,-1.44 -0.23,0.19 -0.48,0.27 -0.76,0.27 -0.66,0 -1.21,-0.58 -1.21,-1.21 0,-0.23 0.04,-0.39 0.1,-0.55 -0.65,-0.39 -1.31,-0.82 -1.95,-1.25 l -6.74,13.13 -4.91,6.95 0,0 3.54,-7.69 8.03,-12.43 c -0.65,-0.35 -1.29,-0.7 -1.96,-1.01 -0.17,0.47 -0.6,0.74 -1.09,0.74 -0.68,0 -1.23,-0.58 -1.23,-1.21 0,-0.16 0.04,-0.31 0.08,-0.47 -0.71,-0.23 -1.39,-0.47 -2.11,-0.62 l -3.13,14.45 -2.93,7.85 0,0.04 1.45,-8.32 4.53,-14.06 c -0.72,-0.2 -1.44,-0.39 -2.17,-0.47 -0.1,0.55 -0.6,1.01 -1.19,1.01 -0.7,0 -1.21,-0.54 -1.21,-1.17 0,-0.08 0,-0.11 0,-0.15 -0.74,-0.08 -1.48,-0.12 -2.23,-0.12 l 0.75,14.73 -0.79,8.43 -0.76,-8.43 0.74,-14.73 c -0.78,0 -1.5,0.04 -2.26,0.12 0,0.04 0,0.07 0,0.15 0,0.63 -0.55,1.17 -1.23,1.17 -0.59,0 -1.09,-0.46 -1.19,-1.01 -0.73,0.12 -1.43,0.27 -2.11,0.47 l 4.53,14.06 1.41,8.28 -2.93,-7.85 -3.09,-14.45 c -0.7,0.15 -1.41,0.39 -2.13,0.62 0.06,0.16 0.1,0.31 0.1,0.47 0,0.63 -0.55,1.21 -1.19,1.21 -0.51,0 -0.94,-0.31 -1.16,-0.74 -0.64,0.31 -1.3,0.66 -1.95,1.01 l 8.03,12.43 3.51,7.69 -4.88,-6.91 -6.72,-13.17 c -0.64,0.43 -1.29,0.82 -1.89,1.25 0.14,0.16 0.23,0.39 0.23,0.67 0,0.7 -0.54,1.25 -1.19,1.25 -0.41,0 -0.74,-0.2 -0.94,-0.47 -0.58,0.51 -1.13,0.94 -1.64,1.48 l 10.98,9.89 5.39,6.52 0,0 -6.5,-5.39 -9.91,-10.94 c -0.54,0.51 -1.03,1.1 -1.52,1.6 0.27,0.24 0.47,0.59 0.47,0.98 0,0.66 -0.55,1.17 -1.21,1.17 -0.27,0 -0.53,-0.08 -0.72,-0.19 -0.43,0.58 -0.82,1.21 -1.2,1.87 l 13.17,6.76 6.85,4.8 -7.67,-3.51 -12.38,-8.01 c -0.38,0.63 -0.67,1.25 -1,1.95 0.47,0.16 0.78,0.59 0.78,1.1 0,0.7 -0.53,1.25 -1.23,1.25 -0.18,0 -0.35,-0.04 -0.51,-0.12 -0.23,0.66 -0.47,1.41 -0.68,2.15 l 14.45,3.08 7.95,2.93 -8.36,-1.4 -14.06,-4.53 c -0.2,0.7 -0.33,1.4 -0.49,2.18 0.61,0.08 1.06,0.55 1.06,1.18 0,0.66 -0.55,1.21 -1.22,1.21 -0.03,0 -0.09,0 -0.13,0 -0.04,0.7 -0.1,1.44 -0.1,2.22 l 14.75,-0.78 8.41,0.82 -8.41,0.74 -14.75,-0.7 c 0,0.7 0.06,1.49 0.1,2.19 0.08,0 0.13,0 0.21,0 0.67,0 1.21,0.51 1.21,1.21 0,0.66 -0.48,1.13 -1.13,1.21 0.16,0.7 0.29,1.49 0.49,2.11 l 14.06,-4.49 8.36,-1.41 -7.95,2.93 -14.45,3.09 c 0.21,0.74 0.45,1.44 0.68,2.11 0.12,-0.04 0.32,-0.08 0.45,-0.08 0.69,0 1.21,0.55 1.21,1.21 0,0.51 -0.31,0.94 -0.72,1.09 0.31,0.71 0.64,1.37 1.02,2.03 l 12.38,-8.08 7.71,-3.52 -6.89,4.92 -13.17,6.72 c 0.38,0.63 0.79,1.25 1.22,1.92 0.17,-0.2 0.46,-0.28 0.72,-0.28 0.64,0 1.21,0.55 1.21,1.22 0,0.35 -0.2,0.7 -0.45,0.97 0.45,0.55 0.94,1.06 1.46,1.6 l 9.91,-10.97 6.52,-5.39 -5.39,6.52 -10.98,9.88 c 0.55,0.51 1.08,1.02 1.64,1.49 0.2,-0.28 0.55,-0.47 0.94,-0.47 0.69,0 1.23,0.54 1.23,1.25 0,0.27 -0.12,0.51 -0.25,0.74 0.62,0.35 1.23,0.78 1.87,1.13 l 6.72,-13.12 4.88,-6.88 -3.51,7.7 -8.03,12.34 c 0.65,0.39 1.29,0.74 1.94,1.06 0.19,-0.47 0.62,-0.78 1.13,-0.78 0.68,0 1.21,0.54 1.21,1.17 0,0.19 -0.04,0.39 -0.08,0.51 0.68,0.27 1.43,0.46 2.13,0.7 l 3.12,-14.42 2.93,-7.96 -1.42,8.32 -4.53,14.06 c 0.7,0.23 1.4,0.35 2.15,0.51 0.07,-0.59 0.58,-1.06 1.19,-1.06 0.68,0 1.23,0.55 1.23,1.25 0,0.04 0,0.08 0,0.12 0.72,0.08 1.46,0.08 2.2,0.08 m 0.02,2.85 c -16.21,0 -29.37,-13.13 -29.37,-29.34 0,-16.21 13.16,-29.37 29.37,-29.37 16.22,0 29.38,13.16 29.38,29.37 -0.02,16.21 -13.16,29.34 -29.38,29.34"
           inkscape:connector-curvature="0" />
        <path
           id="path5762"
           style="fill:#ffffff;fill-opacity:1;fill-rule:nonzero;stroke:none"
           d="m 7379.02,3438.44 c 2.43,0 4.38,-1.99 4.38,-4.38 0,-2.42 -1.95,-4.41 -4.38,-4.41 -2.46,0 -4.41,1.99 -4.41,4.41 0,2.39 1.95,4.38 4.41,4.38"
           inkscape:connector-curvature="0" />
        <path
           id="path5764"
           style="fill:#282a71;fill-opacity:1;fill-rule:nonzero;stroke:none"
           d="m 7379.02,3437.42 c 1.86,0 3.38,-1.48 3.38,-3.36 0,-1.91 -1.52,-3.44 -3.38,-3.44 -1.89,0 -3.43,1.53 -3.43,3.44 0,1.88 1.54,3.36 3.43,3.36"
           inkscape:connector-curvature="0" />
      </g>
    </g>
  </g>
</svg>
