<?xml version="1.0" encoding="UTF-8" standalone="no"?>
<!-- Created with Inkscape (http://www.inkscape.org/) -->

<svg
   xmlns:dc="http://purl.org/dc/elements/1.1/"
   xmlns:cc="http://creativecommons.org/ns#"
   xmlns:rdf="http://www.w3.org/1999/02/22-rdf-syntax-ns#"
   xmlns:svg="http://www.w3.org/2000/svg"
   xmlns="http://www.w3.org/2000/svg"
   xmlns:sodipodi="http://sodipodi.sourceforge.net/DTD/sodipodi-0.dtd"
   xmlns:inkscape="http://www.inkscape.org/namespaces/inkscape"
   width="48"
   height="48"
   viewBox="0 0 48.000001 48.000001"
   id="svg77671"
   version="1.1"
   inkscape:version="0.91 r13725"
   sodipodi:docname="i18n-TR.svg">
  <defs
     id="defs77673">
    <clipPath
       id="clipPath8370"
       clipPathUnits="userSpaceOnUse">
      <path
         inkscape:connector-curvature="0"
         id="path8368"
         d="m 6690.08,4294.77 335.62,0 0,-195.82 -335.62,0 z" />
    </clipPath>
    <clipPath
       id="clipPath35762"
       clipPathUnits="userSpaceOnUse">
      <path
         inkscape:connector-curvature="0"
         id="path35760"
         d="m 4605.06,6583.13 335.62,0 0,-195.77 -335.62,0 z" />
    </clipPath>
    <clipPath
       id="clipPath7654"
       clipPathUnits="userSpaceOnUse">
      <path
         inkscape:connector-curvature="0"
         id="path7652"
         d="m 435.145,3913.36 335.625,0 0,-195.82 -335.625,0 z" />
    </clipPath>
    <clipPath
       id="clipPath5716"
       clipPathUnits="userSpaceOnUse">
      <path
         inkscape:connector-curvature="0"
         id="path5714"
         d="m 956.395,3150.55 335.625,0 0,-195.75 -335.625,0 z" />
    </clipPath>
    <clipPath
       id="clipPath9892"
       clipPathUnits="userSpaceOnUse">
      <path
         inkscape:connector-curvature="0"
         id="path9890"
         d="m 3562.58,4676.14 335.63,0 0,-195.78 -335.63,0 z" />
    </clipPath>
    <clipPath
       id="clipPath13494"
       clipPathUnits="userSpaceOnUse">
      <path
         inkscape:connector-curvature="0"
         id="path13492"
         d="m 5647.54,5243.17 335.62,0 0,195.78 -335.62,0 z" />
    </clipPath>
    <clipPath
       id="clipPath13506"
       clipPathUnits="userSpaceOnUse">
      <path
         inkscape:connector-curvature="0"
         id="path13504"
         d="m 5647.54,5438.95 335.62,0 0,-195.78 -335.62,0 z" />
    </clipPath>
    <clipPath
       id="clipPath14518"
       clipPathUnits="userSpaceOnUse">
      <path
         inkscape:connector-curvature="0"
         id="path14516"
         d="m 3562.59,5438.95 335.62,0 0,-195.78 -335.62,0 z" />
    </clipPath>
    <clipPath
       id="clipPath5752"
       clipPathUnits="userSpaceOnUse">
      <path
         inkscape:connector-curvature="0"
         id="path5750"
         d="m 7211.17,3531.95 335.63,0 0,-195.78 -335.63,0 z" />
    </clipPath>
    <clipPath
       id="clipPath5926"
       clipPathUnits="userSpaceOnUse">
      <path
         inkscape:connector-curvature="0"
         id="path5924"
         d="m 5126.25,3531.95 335.63,0 0,-195.78 -335.63,0 z" />
    </clipPath>
    <clipPath
       id="clipPath5772"
       clipPathUnits="userSpaceOnUse">
      <path
         inkscape:connector-curvature="0"
         id="path5770"
         d="m 6689.96,3531.95 335.61,0 0,-195.78 -335.61,0 z" />
    </clipPath>
    <clipPath
       id="clipPath11830"
       clipPathUnits="userSpaceOnUse">
      <path
         inkscape:connector-curvature="0"
         id="path11828"
         d="m 956.387,5057.56 335.623,0 0,-195.79 -335.623,0 z" />
    </clipPath>
    <clipPath
       id="clipPath7308"
       clipPathUnits="userSpaceOnUse">
      <path
         inkscape:connector-curvature="0"
         id="path7306"
         d="m 4083.81,3913.36 335.62,0 0,-195.82 -335.62,0 z" />
    </clipPath>
    <clipPath
       id="clipPath7654-0"
       clipPathUnits="userSpaceOnUse">
      <path
         inkscape:connector-curvature="0"
         id="path7652-3"
         d="m 435.145,3913.36 335.625,0 0,-195.82 -335.625,0 z" />
    </clipPath>
  </defs>
  <sodipodi:namedview
     id="base"
     pagecolor="#ffffff"
     bordercolor="#666666"
     borderopacity="1.0"
     inkscape:pageopacity="0.0"
     inkscape:pageshadow="2"
     inkscape:zoom="18.020833"
     inkscape:cx="24"
     inkscape:cy="24"
     inkscape:document-units="px"
     inkscape:current-layer="layer1"
     showgrid="false"
     units="px"
     inkscape:window-width="1792"
     inkscape:window-height="1071"
     inkscape:window-x="0"
     inkscape:window-y="0"
     inkscape:window-maximized="1" />
  <metadata
     id="metadata77676">
    <rdf:RDF>
      <cc:Work
         rdf:about="">
        <dc:format>image/svg+xml</dc:format>
        <dc:type
           rdf:resource="http://purl.org/dc/dcmitype/StillImage" />
        <dc:title></dc:title>
      </cc:Work>
    </rdf:RDF>
  </metadata>
  <g
     inkscape:label="Camada 1"
     inkscape:groupmode="layer"
     id="layer1"
     transform="translate(0,-1004.3622)">
    <g
       id="g7648"
       transform="matrix(0.13333333,0,0,-0.13333333,-56.394331,1537.0889)">
      <g
         clip-path="url(#clipPath7654-0)"
         id="g7650">
        <path
           id="path7656"
           style="fill:#d21d29;fill-opacity:1;fill-rule:nonzero;stroke:none"
           d="m 435.145,3717.54 335.625,0 0,195.82 -335.625,0 0,-195.82"
           inkscape:connector-curvature="0" />
        <path
           id="path7658"
           style="fill:#ffffff;fill-opacity:1;fill-rule:nonzero;stroke:none"
           d="m 533.035,3864.41 c 27.031,0 48.969,-21.91 48.969,-48.94 0,-27.03 -21.938,-48.95 -48.969,-48.95 -27.019,0 -48.926,21.92 -48.926,48.95 0,27.03 21.907,48.94 48.926,48.94"
           inkscape:connector-curvature="0" />
        <path
           id="path7660"
           style="fill:#d21d29;fill-opacity:1;fill-rule:nonzero;stroke:none"
           d="m 545.273,3854.65 c 21.653,0 39.161,-17.58 39.161,-39.18 0,-21.64 -17.508,-39.18 -39.161,-39.18 -21.621,0 -39.16,17.54 -39.16,39.18 0,21.6 17.539,39.18 39.16,39.18"
           inkscape:connector-curvature="0" />
        <path
           id="path7662"
           style="fill:#ffffff;fill-opacity:1;fill-rule:nonzero;stroke:none"
           d="m 574.414,3815.47 23.242,-7.58 3.782,11.68 z"
           inkscape:connector-curvature="0" />
        <path
           id="path7664"
           style="fill:#ffffff;fill-opacity:1;fill-rule:nonzero;stroke:none"
           d="m 574.414,3815.47 23.242,7.54 3.782,-11.64 z"
           inkscape:connector-curvature="0" />
        <path
           id="path7666"
           style="fill:#ffffff;fill-opacity:1;fill-rule:nonzero;stroke:none"
           d="m 591.309,3838.75 0,-24.49 12.238,0 z"
           inkscape:connector-curvature="0" />
        <path
           id="path7668"
           style="fill:#ffffff;fill-opacity:1;fill-rule:nonzero;stroke:none"
           d="m 591.309,3838.75 14.375,-19.8 -9.871,-7.19 z"
           inkscape:connector-curvature="0" />
        <path
           id="path7670"
           style="fill:#ffffff;fill-opacity:1;fill-rule:nonzero;stroke:none"
           d="m 591.309,3792.15 14.375,19.84 -9.871,7.19 z"
           inkscape:connector-curvature="0" />
        <path
           id="path7672"
           style="fill:#ffffff;fill-opacity:1;fill-rule:nonzero;stroke:none"
           d="m 591.309,3792.15 0,24.53 12.238,0 z"
           inkscape:connector-curvature="0" />
        <path
           id="path7674"
           style="fill:#ffffff;fill-opacity:1;fill-rule:nonzero;stroke:none"
           d="m 618.66,3829.8 -23.238,-7.5 3.777,-11.64 z"
           inkscape:connector-curvature="0" />
        <path
           id="path7676"
           style="fill:#ffffff;fill-opacity:1;fill-rule:nonzero;stroke:none"
           d="m 618.66,3829.8 -14.375,-19.76 -9.91,7.19 z"
           inkscape:connector-curvature="0" />
        <path
           id="path7678"
           style="fill:#ffffff;fill-opacity:1;fill-rule:nonzero;stroke:none"
           d="m 618.66,3801.05 -14.375,19.81 -9.91,-7.19 z"
           inkscape:connector-curvature="0" />
        <path
           id="path7680"
           style="fill:#ffffff;fill-opacity:1;fill-rule:nonzero;stroke:none"
           d="m 618.66,3801.05 -23.238,7.58 3.777,11.64 z"
           inkscape:connector-curvature="0" />
      </g>
    </g>
  </g>
</svg>
