<?xml version="1.0" encoding="UTF-8" standalone="no"?>
<svg
   xmlns:dc="http://purl.org/dc/elements/1.1/"
   xmlns:cc="http://creativecommons.org/ns#"
   xmlns:rdf="http://www.w3.org/1999/02/22-rdf-syntax-ns#"
   xmlns:svg="http://www.w3.org/2000/svg"
   xmlns="http://www.w3.org/2000/svg"
   version="1.1"
   id="svg77671"
   viewBox="0 0 48.000001 48.000001"
   height="48"
   width="48">
  <defs
     id="defs77673">
    <clipPath
       clipPathUnits="userSpaceOnUse"
       id="clipPath8370">
      <path
         d="m 6690.08,4294.77 335.62,0 0,-195.82 -335.62,0 z"
         id="path8368" />
    </clipPath>
    <clipPath
       clipPathUnits="userSpaceOnUse"
       id="clipPath35762">
      <path
         d="m 4605.06,6583.13 335.62,0 0,-195.77 -335.62,0 z"
         id="path35760" />
    </clipPath>
    <clipPath
       clipPathUnits="userSpaceOnUse"
       id="clipPath7654">
      <path
         d="m 435.145,3913.36 335.625,0 0,-195.82 -335.625,0 z"
         id="path7652" />
    </clipPath>
    <clipPath
       clipPathUnits="userSpaceOnUse"
       id="clipPath5716">
      <path
         d="m 956.395,3150.55 335.625,0 0,-195.75 -335.625,0 z"
         id="path5714" />
    </clipPath>
    <clipPath
       clipPathUnits="userSpaceOnUse"
       id="clipPath9892">
      <path
         d="m 3562.58,4676.14 335.63,0 0,-195.78 -335.63,0 z"
         id="path9890" />
    </clipPath>
    <clipPath
       clipPathUnits="userSpaceOnUse"
       id="clipPath13494">
      <path
         d="m 5647.54,5243.17 335.62,0 0,195.78 -335.62,0 z"
         id="path13492" />
    </clipPath>
    <clipPath
       clipPathUnits="userSpaceOnUse"
       id="clipPath13506">
      <path
         d="m 5647.54,5438.95 335.62,0 0,-195.78 -335.62,0 z"
         id="path13504" />
    </clipPath>
    <clipPath
       clipPathUnits="userSpaceOnUse"
       id="clipPath14518">
      <path
         d="m 3562.59,5438.95 335.62,0 0,-195.78 -335.62,0 z"
         id="path14516" />
    </clipPath>
    <clipPath
       clipPathUnits="userSpaceOnUse"
       id="clipPath5752">
      <path
         d="m 7211.17,3531.95 335.63,0 0,-195.78 -335.63,0 z"
         id="path5750" />
    </clipPath>
    <clipPath
       clipPathUnits="userSpaceOnUse"
       id="clipPath5926">
      <path
         d="m 5126.25,3531.95 335.63,0 0,-195.78 -335.63,0 z"
         id="path5924" />
    </clipPath>
    <clipPath
       clipPathUnits="userSpaceOnUse"
       id="clipPath5772">
      <path
         d="m 6689.96,3531.95 335.61,0 0,-195.78 -335.61,0 z"
         id="path5770" />
    </clipPath>
    <clipPath
       clipPathUnits="userSpaceOnUse"
       id="clipPath11830">
      <path
         d="m 956.387,5057.56 335.623,0 0,-195.79 -335.623,0 z"
         id="path11828" />
    </clipPath>
    <clipPath
       clipPathUnits="userSpaceOnUse"
       id="clipPath7308">
      <path
         d="m 4083.81,3913.36 335.62,0 0,-195.82 -335.62,0 z"
         id="path7306" />
    </clipPath>
    <clipPath
       clipPathUnits="userSpaceOnUse"
       id="clipPath7654-0">
      <path
         d="m 435.145,3913.36 335.625,0 0,-195.82 -335.625,0 z"
         id="path7652-3" />
    </clipPath>
    <clipPath
       clipPathUnits="userSpaceOnUse"
       id="clipPath14506">
      <path
         d="m 4083.81,5438.95 335.62,0 0,-195.78 -335.62,0 z"
         id="path14504" />
    </clipPath>
    <clipPath
       clipPathUnits="userSpaceOnUse"
       id="clipPath34258">
      <path
         d="m 6168.69,6201.76 335.65,0 0,-195.78 -335.65,0 z"
         id="path34256" />
    </clipPath>
  </defs>
  <metadata
     id="metadata77676">
    <rdf:RDF>
      <cc:Work
         rdf:about="">
        <dc:format>image/svg+xml</dc:format>
        <dc:type
           rdf:resource="http://purl.org/dc/dcmitype/StillImage" />
        <dc:title></dc:title>
      </cc:Work>
    </rdf:RDF>
  </metadata>
  <g
     transform="translate(0,-1004.3622)"
     id="layer1">
    <g
       transform="matrix(0.13333333,0,0,-0.13333333,-820.86865,1842.2115)"
       id="g34252">
      <g
         id="g34254"
         clip-path="url(#clipPath34258)">
        <path
           d="m 6168.69,6005.98 335.65,0 0,15.06 -335.65,0 0,-15.06"
           style="fill:#cd1e25;fill-opacity:1;fill-rule:nonzero;stroke:none"
           id="path34260" />
        <path
           d="m 6168.69,6021.04 335.65,0 0,15.05 -335.65,0 0,-15.05"
           style="fill:#ffffff;fill-opacity:1;fill-rule:nonzero;stroke:none"
           id="path34262" />
        <path
           d="m 6168.69,6036.09 335.65,0 0,15.05 -335.65,0 0,-15.05"
           style="fill:#cd1e25;fill-opacity:1;fill-rule:nonzero;stroke:none"
           id="path34264" />
        <path
           d="m 6168.69,6051.14 335.65,0 0,15.06 -335.65,0 0,-15.06"
           style="fill:#ffffff;fill-opacity:1;fill-rule:nonzero;stroke:none"
           id="path34266" />
        <path
           d="m 6168.69,6066.2 335.65,0 0,15.07 -335.65,0 0,-15.07"
           style="fill:#cd1e25;fill-opacity:1;fill-rule:nonzero;stroke:none"
           id="path34268" />
        <path
           d="m 6168.69,6081.27 335.65,0 0,15.05 -335.65,0 0,-15.05"
           style="fill:#ffffff;fill-opacity:1;fill-rule:nonzero;stroke:none"
           id="path34270" />
        <path
           d="m 6168.69,6096.32 335.65,0 0,15.08 -335.65,0 0,-15.08"
           style="fill:#cd1e25;fill-opacity:1;fill-rule:nonzero;stroke:none"
           id="path34272" />
        <path
           d="m 6168.69,6111.4 335.65,0 0,15.05 -335.65,0 0,-15.05"
           style="fill:#ffffff;fill-opacity:1;fill-rule:nonzero;stroke:none"
           id="path34274" />
        <path
           d="m 6168.69,6126.45 335.65,0 0,15.05 -335.65,0 0,-15.05"
           style="fill:#cd1e25;fill-opacity:1;fill-rule:nonzero;stroke:none"
           id="path34276" />
        <path
           d="m 6168.69,6141.5 335.65,0 0,15.07 -335.65,0 0,-15.07"
           style="fill:#ffffff;fill-opacity:1;fill-rule:nonzero;stroke:none"
           id="path34278" />
        <path
           d="m 6168.69,6156.57 335.65,0 0,15.06 -335.65,0 0,-15.06"
           style="fill:#cd1e25;fill-opacity:1;fill-rule:nonzero;stroke:none"
           id="path34280" />
        <path
           d="m 6168.69,6171.63 335.65,0 0,15.06 -335.65,0 0,-15.06"
           style="fill:#ffffff;fill-opacity:1;fill-rule:nonzero;stroke:none"
           id="path34282" />
        <path
           d="m 6168.69,6186.69 335.65,0 0,15.07 -335.65,0 0,-15.07"
           style="fill:#cd1e25;fill-opacity:1;fill-rule:nonzero;stroke:none"
           id="path34284" />
        <path
           d="m 6168.69,6096.32 153.28,0 0,105.44 -153.28,0 0,-105.44"
           style="fill:#29325d;fill-opacity:1;fill-rule:nonzero;stroke:none"
           id="path34286" />
        <path
           d="m 6182.54,6190.14 1.31,-4 4.2,0 -3.4,-2.46 1.29,-3.98 -3.4,2.46 -3.4,-2.46 1.33,3.98 -3.4,2.46 4.16,0 1.31,4"
           style="fill:#ffffff;fill-opacity:1;fill-rule:nonzero;stroke:none"
           id="path34288" />
        <path
           d="m 6182.54,6172.53 1.31,-3.98 4.2,0 -3.4,-2.45 1.29,-4 -3.4,2.47 -3.4,-2.47 1.33,4 -3.4,2.45 4.16,0 1.31,3.98"
           style="fill:#ffffff;fill-opacity:1;fill-rule:nonzero;stroke:none"
           id="path34290" />
        <path
           d="m 6182.54,6154.93 1.31,-3.97 4.2,0 -3.4,-2.46 1.29,-4 -3.4,2.47 -3.4,-2.47 1.33,4 -3.4,2.46 4.16,0 1.31,3.97"
           style="fill:#ffffff;fill-opacity:1;fill-rule:nonzero;stroke:none"
           id="path34292" />
        <path
           d="m 6182.54,6137.34 1.31,-3.99 4.2,0 -3.4,-2.46 1.29,-3.98 -3.4,2.46 -3.4,-2.46 1.33,3.98 -3.4,2.46 4.16,0 1.31,3.99"
           style="fill:#ffffff;fill-opacity:1;fill-rule:nonzero;stroke:none"
           id="path34294" />
        <path
           d="m 6182.54,6119.75 1.31,-4.01 4.2,0 -3.4,-2.44 1.29,-3.98 -3.4,2.46 -3.4,-2.46 1.33,3.98 -3.4,2.44 4.16,0 1.31,4.01"
           style="fill:#ffffff;fill-opacity:1;fill-rule:nonzero;stroke:none"
           id="path34296" />
        <path
           d="m 6194.8,6180.87 1.25,-4 4.22,0 -3.38,-2.47 1.27,-3.97 -3.36,2.45 -3.37,-2.45 1.27,3.97 -3.38,2.47 4.2,0 1.28,4"
           style="fill:#ffffff;fill-opacity:1;fill-rule:nonzero;stroke:none"
           id="path34298" />
        <path
           d="m 6194.8,6163.26 1.25,-3.97 4.22,0 -3.38,-2.47 1.27,-3.98 -3.36,2.44 -3.37,-2.44 1.27,3.98 -3.38,2.47 4.2,0 1.28,3.97"
           style="fill:#ffffff;fill-opacity:1;fill-rule:nonzero;stroke:none"
           id="path34300" />
        <path
           d="m 6194.8,6145.66 1.25,-3.98 4.22,0 -3.38,-2.46 1.27,-3.99 -3.36,2.47 -3.37,-2.47 1.27,3.99 -3.38,2.46 4.2,0 1.28,3.98"
           style="fill:#ffffff;fill-opacity:1;fill-rule:nonzero;stroke:none"
           id="path34302" />
        <path
           d="m 6194.8,6128.06 1.25,-3.98 4.22,0 -3.38,-2.46 1.27,-3.97 -3.36,2.47 -3.37,-2.47 1.27,3.97 -3.38,2.46 4.2,0 1.28,3.98"
           style="fill:#ffffff;fill-opacity:1;fill-rule:nonzero;stroke:none"
           id="path34304" />
        <path
           d="m 6207.19,6190.14 1.31,-4 4.2,0 -3.4,-2.46 1.31,-3.98 -3.42,2.46 -3.36,-2.46 1.29,3.98 -3.4,2.46 4.18,0 1.29,4"
           style="fill:#ffffff;fill-opacity:1;fill-rule:nonzero;stroke:none"
           id="path34306" />
        <path
           d="m 6207.19,6172.53 1.31,-3.98 4.2,0 -3.4,-2.45 1.31,-4 -3.42,2.47 -3.36,-2.47 1.29,4 -3.4,2.45 4.18,0 1.29,3.98"
           style="fill:#ffffff;fill-opacity:1;fill-rule:nonzero;stroke:none"
           id="path34308" />
        <path
           d="m 6207.19,6154.93 1.31,-3.97 4.2,0 -3.4,-2.46 1.31,-4 -3.42,2.47 -3.36,-2.47 1.29,4 -3.4,2.46 4.18,0 1.29,3.97"
           style="fill:#ffffff;fill-opacity:1;fill-rule:nonzero;stroke:none"
           id="path34310" />
        <path
           d="m 6207.19,6137.34 1.31,-3.99 4.2,0 -3.4,-2.46 1.31,-3.98 -3.42,2.46 -3.36,-2.46 1.29,3.98 -3.4,2.46 4.18,0 1.29,3.99"
           style="fill:#ffffff;fill-opacity:1;fill-rule:nonzero;stroke:none"
           id="path34312" />
        <path
           d="m 6207.19,6119.75 1.31,-4.01 4.2,0 -3.4,-2.44 1.31,-3.98 -3.42,2.46 -3.36,-2.46 1.29,3.98 -3.4,2.44 4.18,0 1.29,4.01"
           style="fill:#ffffff;fill-opacity:1;fill-rule:nonzero;stroke:none"
           id="path34314" />
        <path
           d="m 6219.45,6180.87 1.29,-4 4.22,0 -3.42,-2.47 1.31,-3.97 -3.4,2.45 -3.38,-2.45 1.31,3.97 -3.42,2.47 4.2,0 1.29,4"
           style="fill:#ffffff;fill-opacity:1;fill-rule:nonzero;stroke:none"
           id="path34316" />
        <path
           d="m 6219.45,6163.26 1.29,-3.97 4.22,0 -3.42,-2.47 1.31,-3.98 -3.4,2.44 -3.38,-2.44 1.31,3.98 -3.42,2.47 4.2,0 1.29,3.97"
           style="fill:#ffffff;fill-opacity:1;fill-rule:nonzero;stroke:none"
           id="path34318" />
        <path
           d="m 6219.45,6145.66 1.29,-3.98 4.22,0 -3.42,-2.46 1.31,-3.99 -3.4,2.47 -3.38,-2.47 1.31,3.99 -3.42,2.46 4.2,0 1.29,3.98"
           style="fill:#ffffff;fill-opacity:1;fill-rule:nonzero;stroke:none"
           id="path34320" />
        <path
           d="m 6219.45,6128.06 1.29,-3.98 4.22,0 -3.42,-2.46 1.31,-3.97 -3.4,2.47 -3.38,-2.47 1.31,3.97 -3.42,2.46 4.2,0 1.29,3.98"
           style="fill:#ffffff;fill-opacity:1;fill-rule:nonzero;stroke:none"
           id="path34322" />
        <path
           d="m 6231.88,6190.14 1.3,-4 4.16,0 -3.39,-2.46 1.34,-3.98 -3.41,2.46 -3.4,-2.46 1.29,3.98 -3.36,2.46 4.18,0 1.29,4"
           style="fill:#ffffff;fill-opacity:1;fill-rule:nonzero;stroke:none"
           id="path34324" />
        <path
           d="m 6231.88,6172.53 1.3,-3.98 4.16,0 -3.39,-2.45 1.34,-4 -3.41,2.47 -3.4,-2.47 1.29,4 -3.36,2.45 4.18,0 1.29,3.98"
           style="fill:#ffffff;fill-opacity:1;fill-rule:nonzero;stroke:none"
           id="path34326" />
        <path
           d="m 6231.88,6154.93 1.3,-3.97 4.16,0 -3.39,-2.46 1.34,-4 -3.41,2.47 -3.4,-2.47 1.29,4 -3.36,2.46 4.18,0 1.29,3.97"
           style="fill:#ffffff;fill-opacity:1;fill-rule:nonzero;stroke:none"
           id="path34328" />
        <path
           d="m 6231.88,6137.34 1.3,-3.99 4.16,0 -3.39,-2.46 1.34,-3.98 -3.41,2.46 -3.4,-2.46 1.29,3.98 -3.36,2.46 4.18,0 1.29,3.99"
           style="fill:#ffffff;fill-opacity:1;fill-rule:nonzero;stroke:none"
           id="path34330" />
        <path
           d="m 6231.88,6119.75 1.3,-4.01 4.16,0 -3.39,-2.44 1.34,-3.98 -3.41,2.46 -3.4,-2.46 1.29,3.98 -3.36,2.44 4.18,0 1.29,4.01"
           style="fill:#ffffff;fill-opacity:1;fill-rule:nonzero;stroke:none"
           id="path34332" />
        <path
           d="m 6244.14,6180.87 1.29,-4 4.18,0 -3.38,-2.47 1.27,-3.97 -3.36,2.45 -3.38,-2.45 1.27,3.97 -3.38,2.47 4.18,0 1.31,4"
           style="fill:#ffffff;fill-opacity:1;fill-rule:nonzero;stroke:none"
           id="path34334" />
        <path
           d="m 6244.14,6163.26 1.29,-3.97 4.18,0 -3.38,-2.47 1.27,-3.98 -3.36,2.44 -3.38,-2.44 1.27,3.98 -3.38,2.47 4.18,0 1.31,3.97"
           style="fill:#ffffff;fill-opacity:1;fill-rule:nonzero;stroke:none"
           id="path34336" />
        <path
           d="m 6244.14,6145.66 1.29,-3.98 4.18,0 -3.38,-2.46 1.27,-3.99 -3.36,2.47 -3.38,-2.47 1.27,3.99 -3.38,2.46 4.18,0 1.31,3.98"
           style="fill:#ffffff;fill-opacity:1;fill-rule:nonzero;stroke:none"
           id="path34338" />
        <path
           d="m 6244.14,6128.06 1.29,-3.98 4.18,0 -3.38,-2.46 1.27,-3.97 -3.36,2.47 -3.38,-2.47 1.27,3.97 -3.38,2.46 4.18,0 1.31,3.98"
           style="fill:#ffffff;fill-opacity:1;fill-rule:nonzero;stroke:none"
           id="path34340" />
        <path
           d="m 6256.52,6190.14 1.31,-4 4.18,0 -3.38,-2.46 1.31,-3.98 -3.42,2.46 -3.36,-2.46 1.27,3.98 -3.38,2.46 4.18,0 1.29,4"
           style="fill:#ffffff;fill-opacity:1;fill-rule:nonzero;stroke:none"
           id="path34342" />
        <path
           d="m 6256.52,6172.53 1.31,-3.98 4.18,0 -3.38,-2.45 1.31,-4 -3.42,2.47 -3.36,-2.47 1.27,4 -3.38,2.45 4.18,0 1.29,3.98"
           style="fill:#ffffff;fill-opacity:1;fill-rule:nonzero;stroke:none"
           id="path34344" />
        <path
           d="m 6256.52,6154.93 1.31,-3.97 4.18,0 -3.38,-2.46 1.31,-4 -3.42,2.47 -3.36,-2.47 1.27,4 -3.38,2.46 4.18,0 1.29,3.97"
           style="fill:#ffffff;fill-opacity:1;fill-rule:nonzero;stroke:none"
           id="path34346" />
        <path
           d="m 6256.52,6137.34 1.31,-3.99 4.18,0 -3.38,-2.46 1.31,-3.98 -3.42,2.46 -3.36,-2.46 1.27,3.98 -3.38,2.46 4.18,0 1.29,3.99"
           style="fill:#ffffff;fill-opacity:1;fill-rule:nonzero;stroke:none"
           id="path34348" />
        <path
           d="m 6256.52,6119.75 1.31,-4.01 4.18,0 -3.38,-2.44 1.31,-3.98 -3.42,2.46 -3.36,-2.46 1.27,3.98 -3.38,2.44 4.18,0 1.29,4.01"
           style="fill:#ffffff;fill-opacity:1;fill-rule:nonzero;stroke:none"
           id="path34350" />
        <path
           d="m 6268.79,6180.87 1.29,-4 4.22,0 -3.4,-2.47 1.29,-3.97 -3.4,2.45 -3.38,-2.45 1.31,3.97 -3.4,2.47 4.2,0 1.27,4"
           style="fill:#ffffff;fill-opacity:1;fill-rule:nonzero;stroke:none"
           id="path34352" />
        <path
           d="m 6268.79,6163.26 1.29,-3.97 4.22,0 -3.4,-2.47 1.29,-3.98 -3.4,2.44 -3.38,-2.44 1.31,3.98 -3.4,2.47 4.2,0 1.27,3.97"
           style="fill:#ffffff;fill-opacity:1;fill-rule:nonzero;stroke:none"
           id="path34354" />
        <path
           d="m 6268.79,6145.66 1.29,-3.98 4.22,0 -3.4,-2.46 1.29,-3.99 -3.4,2.47 -3.38,-2.47 1.31,3.99 -3.4,2.46 4.2,0 1.27,3.98"
           style="fill:#ffffff;fill-opacity:1;fill-rule:nonzero;stroke:none"
           id="path34356" />
        <path
           d="m 6268.79,6128.06 1.29,-3.98 4.22,0 -3.4,-2.46 1.29,-3.97 -3.4,2.47 -3.38,-2.47 1.31,3.97 -3.4,2.46 4.2,0 1.27,3.98"
           style="fill:#ffffff;fill-opacity:1;fill-rule:nonzero;stroke:none"
           id="path34358" />
        <path
           d="m 6281.21,6190.14 1.31,-4 4.18,0 -3.38,-2.46 1.27,-3.98 -3.38,2.46 -3.36,-2.46 1.27,3.98 -3.38,2.46 4.18,0 1.29,4"
           style="fill:#ffffff;fill-opacity:1;fill-rule:nonzero;stroke:none"
           id="path34360" />
        <path
           d="m 6281.21,6172.53 1.31,-3.98 4.18,0 -3.38,-2.45 1.27,-4 -3.38,2.47 -3.36,-2.47 1.27,4 -3.38,2.45 4.18,0 1.29,3.98"
           style="fill:#ffffff;fill-opacity:1;fill-rule:nonzero;stroke:none"
           id="path34362" />
        <path
           d="m 6281.21,6154.93 1.31,-3.97 4.18,0 -3.38,-2.46 1.27,-4 -3.38,2.47 -3.36,-2.47 1.27,4 -3.38,2.46 4.18,0 1.29,3.97"
           style="fill:#ffffff;fill-opacity:1;fill-rule:nonzero;stroke:none"
           id="path34364" />
        <path
           d="m 6281.21,6137.34 1.31,-3.99 4.18,0 -3.38,-2.46 1.27,-3.98 -3.38,2.46 -3.36,-2.46 1.27,3.98 -3.38,2.46 4.18,0 1.29,3.99"
           style="fill:#ffffff;fill-opacity:1;fill-rule:nonzero;stroke:none"
           id="path34366" />
        <path
           d="m 6281.21,6119.75 1.31,-4.01 4.18,0 -3.38,-2.44 1.27,-3.98 -3.38,2.46 -3.36,-2.46 1.27,3.98 -3.38,2.44 4.18,0 1.29,4.01"
           style="fill:#ffffff;fill-opacity:1;fill-rule:nonzero;stroke:none"
           id="path34368" />
        <path
           d="m 6293.48,6180.87 1.27,-4 4.2,0 -3.36,-2.47 1.25,-3.97 -3.36,2.45 -3.42,-2.45 1.31,3.97 -3.36,2.47 4.16,0 1.31,4"
           style="fill:#ffffff;fill-opacity:1;fill-rule:nonzero;stroke:none"
           id="path34370" />
        <path
           d="m 6293.48,6163.26 1.27,-3.97 4.2,0 -3.36,-2.47 1.25,-3.98 -3.36,2.44 -3.42,-2.44 1.31,3.98 -3.36,2.47 4.16,0 1.31,3.97"
           style="fill:#ffffff;fill-opacity:1;fill-rule:nonzero;stroke:none"
           id="path34372" />
        <path
           d="m 6293.48,6145.66 1.27,-3.98 4.2,0 -3.36,-2.46 1.25,-3.99 -3.36,2.47 -3.42,-2.47 1.31,3.99 -3.36,2.46 4.16,0 1.31,3.98"
           style="fill:#ffffff;fill-opacity:1;fill-rule:nonzero;stroke:none"
           id="path34374" />
        <path
           d="m 6293.48,6128.06 1.27,-3.98 4.2,0 -3.36,-2.46 1.25,-3.97 -3.36,2.47 -3.42,-2.47 1.31,3.97 -3.36,2.46 4.16,0 1.31,3.98"
           style="fill:#ffffff;fill-opacity:1;fill-rule:nonzero;stroke:none"
           id="path34376" />
        <path
           d="m 6305.86,6190.14 1.33,-4 4.16,0 -3.38,-2.46 1.31,-3.98 -3.42,2.46 -3.36,-2.46 1.27,3.98 -3.38,2.46 4.18,0 1.29,4"
           style="fill:#ffffff;fill-opacity:1;fill-rule:nonzero;stroke:none"
           id="path34378" />
        <path
           d="m 6305.86,6172.53 1.33,-3.98 4.16,0 -3.38,-2.45 1.31,-4 -3.42,2.47 -3.36,-2.47 1.27,4 -3.38,2.45 4.18,0 1.29,3.98"
           style="fill:#ffffff;fill-opacity:1;fill-rule:nonzero;stroke:none"
           id="path34380" />
        <path
           d="m 6305.86,6154.93 1.33,-3.97 4.16,0 -3.38,-2.46 1.31,-4 -3.42,2.47 -3.36,-2.47 1.27,4 -3.38,2.46 4.18,0 1.29,3.97"
           style="fill:#ffffff;fill-opacity:1;fill-rule:nonzero;stroke:none"
           id="path34382" />
        <path
           d="m 6305.86,6137.34 1.33,-3.99 4.16,0 -3.38,-2.46 1.31,-3.98 -3.42,2.46 -3.36,-2.46 1.27,3.98 -3.38,2.46 4.18,0 1.29,3.99"
           style="fill:#ffffff;fill-opacity:1;fill-rule:nonzero;stroke:none"
           id="path34384" />
        <path
           d="m 6305.86,6119.75 1.33,-4.01 4.16,0 -3.38,-2.44 1.31,-3.98 -3.42,2.46 -3.36,-2.46 1.27,3.98 -3.38,2.44 4.18,0 1.29,4.01"
           style="fill:#ffffff;fill-opacity:1;fill-rule:nonzero;stroke:none"
           id="path34386" />
      </g>
    </g>
  </g>
</svg>
