<?xml version="1.0" encoding="UTF-8" standalone="no"?>
<svg
   xmlns:dc="http://purl.org/dc/elements/1.1/"
   xmlns:cc="http://creativecommons.org/ns#"
   xmlns:rdf="http://www.w3.org/1999/02/22-rdf-syntax-ns#"
   xmlns:svg="http://www.w3.org/2000/svg"
   xmlns="http://www.w3.org/2000/svg"
   xmlns:sodipodi="http://sodipodi.sourceforge.net/DTD/sodipodi-0.dtd"
   xmlns:inkscape="http://www.inkscape.org/namespaces/inkscape"
   version="1.1"
   x="0px"
   y="0px"
   viewBox="0 0 84 84"
   enable-background="new 0 0 100 100"
   xml:space="preserve"
   id="svg31"
   sodipodi:docname="approve.svg"
   width="84"
   height="84"
   inkscape:version="0.92.1 r15371"><metadata
     id="metadata37"><rdf:RDF><cc:Work
         rdf:about=""><dc:format>image/svg+xml</dc:format><dc:type
           rdf:resource="http://purl.org/dc/dcmitype/StillImage" /><dc:title></dc:title></cc:Work></rdf:RDF></metadata><defs
     id="defs35" /><sodipodi:namedview
     pagecolor="#ffffff"
     bordercolor="#666666"
     borderopacity="1"
     objecttolerance="10"
     gridtolerance="10"
     guidetolerance="10"
     inkscape:pageopacity="0"
     inkscape:pageshadow="2"
     inkscape:window-width="1366"
     inkscape:window-height="716"
     id="namedview33"
     showgrid="false"
     inkscape:zoom="4.376"
     inkscape:cx="50"
     inkscape:cy="53.359232"
     inkscape:window-x="-8"
     inkscape:window-y="-8"
     inkscape:window-maximized="1"
     inkscape:current-layer="svg31" /><path
     d="m 49.097,52.891 c 0,0.77 0,1.434 0,1.952 0.446,0.016 0.895,0.025 1.345,0.028 0,-0.51 0,-1.17 0,-1.951 -0.45,-0.003 -0.899,-0.013 -1.345,-0.029 z"
     id="path23"
     inkscape:connector-curvature="0"
     style="fill:none" /><path
     d="m 76.999819,40.15135 c -0.02174,-2.493855 -1.730129,-5.179168 -5.433743,-5.179168 -5.099218,0 -14.901415,-0.236341 -18.126034,-0.317693 0.979028,-4.586561 1.375267,-10.788237 1.3928,-11.070865 0.007,-0.100988 -0.0056,-0.201275 -0.03296,-0.297355 -2.147409,-7.258548 -4.943528,-10.938317 -8.308409,-10.938317 -2.521907,0 -4.273076,2.160733 -4.347415,2.251202 -0.121326,0.152885 -0.187249,0.34294 -0.187249,0.537904 v 9.048991 c -0.08486,0.126236 -0.181639,0.277718 -0.296654,0.459357 -0.266497,0.419383 -0.6431,1.0176 -1.09264,1.737143 -0.899078,1.434177 -2.089901,3.346647 -3.280022,5.259818 -2.06816,3.327711 -4.13071,6.654722 -4.631445,7.46263 l -2.658663,1.528853 v -0.08556 c 0,-0.476189 -0.38572,-0.861909 -0.861909,-0.861909 H 7.8626681 c -0.2412503,0 -0.4712797,0.10169 -0.6346847,0.27842 -0.1627037,0.177431 -0.2447569,0.415175 -0.2251202,0.655724 L 9.532485,70.860971 c 0.037871,0.446734 0.4109671,0.791077 0.859805,0.791077 h 18.742484 c 0.476189,0 0.861909,-0.386421 0.861909,-0.861208 v -3.623663 h 2.354294 l 3.938552,2.298189 c 0.131145,0.07574 0.281225,0.115716 0.43411,0.115716 h 27.138557 c 2.724586,0 4.314454,-1.191524 5.170752,-2.193694 0.995859,-1.164875 1.566724,-2.748431 1.566724,-4.343207 0,-1.035834 -0.232834,-1.934211 -0.639593,-2.607468 1.995925,-0.819129 2.918848,-2.736508 2.913237,-4.544482 -0.0042,-1.213966 -0.39694,-2.279255 -1.04495,-3.039474 1.946133,-0.892766 2.858536,-2.817158 2.878874,-4.726823 0.01262,-1.19503 -0.300161,-2.252605 -0.83035,-3.019837 2.075875,-0.880143 3.139059,-2.935679 3.122929,-4.954747 z M 22.696056,66.995357 c -1.206953,0 -2.185279,-0.977625 -2.185279,-2.183877 0,-1.207654 0.978326,-2.183876 2.185279,-2.183876 1.206251,0 2.183876,0.976923 2.183876,2.183876 7.01e-4,1.206252 -0.977625,2.183877 -2.183876,2.183877 z M 71.661454,43.826209 h -0.03296 c -0.03156,0 -0.06452,0 -0.09748,7.02e-4 -0.468475,0.01893 -0.838064,0.408863 -0.828947,0.87874 0.0091,0.469877 0.392031,0.84648 0.86261,0.84648 0.03156,0 0.06171,0 0.09327,-0.0014 0.720244,0.03016 1.338098,1.218875 1.32337,2.556973 -0.01894,1.710493 -1.005677,3.539507 -3.716237,3.539507 -0.47689,0 -0.86261,0.38572 -0.86261,0.861207 0,0.477592 0.386421,0.862611 0.86261,0.862611 1.230096,0 1.880911,1.271473 1.883716,2.527518 0.0042,1.475554 -0.873831,3.202878 -3.383114,3.222515 v 0 c -0.0014,0 -0.0014,0 -0.0028,0 -0.475487,0.0035 -0.850688,0.392031 -0.84648,0.864714 0.0014,0.475487 0.393435,0.859103 0.868221,0.859103 0.61084,0 1.089133,0.967106 1.089133,2.200708 0,1.190122 -0.419383,2.364814 -1.152251,3.222515 -0.902585,1.056873 -2.201409,1.591271 -3.860005,1.591271 H 36.95718 l -3.937149,-2.296086 c -0.131846,-0.07785 -0.282627,-0.11782 -0.434811,-0.11782 h -2.587836 v -22.8206 l 3.707821,-2.133382 c 0.123431,-0.07153 0.227224,-0.171821 0.302966,-0.293147 3.567559,-5.759852 8.964132,-14.446967 9.469776,-15.189653 0.127638,-0.150081 0.202678,-0.344343 0.202678,-0.556139 v -8.983769 c 0.422188,-0.432707 1.506412,-1.396306 2.810847,-1.396306 2.42162,0 4.766798,3.392232 6.610539,9.555336 -0.07364,1.068795 -0.547722,7.539774 -1.576542,11.65225 -0.06312,0.253874 -0.007,0.523177 0.150781,0.730764 0.159197,0.207588 0.402551,0.333823 0.66414,0.340135 0.129041,0.0035 13.075907,0.345745 19.225686,0.345745 2.542246,0 3.694497,1.742052 3.709224,3.467974 0.01332,1.732934 -1.110874,3.614547 -3.613846,3.661534 z"
     id="path25"
     inkscape:connector-curvature="0"
     style="fill:#666666;stroke-width:0.70130908" /></svg>