<?xml version="1.0" encoding="UTF-8" standalone="no"?>
<svg
   xmlns:dc="http://purl.org/dc/elements/1.1/"
   xmlns:cc="http://creativecommons.org/ns#"
   xmlns:rdf="http://www.w3.org/1999/02/22-rdf-syntax-ns#"
   xmlns:svg="http://www.w3.org/2000/svg"
   xmlns="http://www.w3.org/2000/svg"
   xmlns:sodipodi="http://sodipodi.sourceforge.net/DTD/sodipodi-0.dtd"
   xmlns:inkscape="http://www.inkscape.org/namespaces/inkscape"
   version="1.1"
   x="0px"
   y="0px"
   viewBox="0 0 84 84"
   xml:space="preserve"
   id="svg24"
   sodipodi:docname="envelope.svg"
   width="84"
   height="84"
   inkscape:version="0.92.1 r15371"><metadata
     id="metadata30"><rdf:RDF><cc:Work
         rdf:about=""><dc:format>image/svg+xml</dc:format><dc:type
           rdf:resource="http://purl.org/dc/dcmitype/StillImage" /><dc:title /></cc:Work></rdf:RDF></metadata><defs
     id="defs28" /><sodipodi:namedview
     pagecolor="#ffffff"
     bordercolor="#666666"
     borderopacity="1"
     objecttolerance="10"
     gridtolerance="10"
     guidetolerance="10"
     inkscape:pageopacity="0"
     inkscape:pageshadow="2"
     inkscape:window-width="1366"
     inkscape:window-height="716"
     id="namedview26"
     showgrid="false"
     inkscape:zoom="5.47"
     inkscape:cx="10.167772"
     inkscape:cy="30.8843"
     inkscape:window-x="-8"
     inkscape:window-y="-8"
     inkscape:window-maximized="1"
     inkscape:current-layer="svg24" /><path
     d="m 66.5,14 h -49 C 11.55,14 7,18.55 7,24.5 v 35 C 7,65.45 11.55,70 17.5,70 h 49 C 72.45,70 77,65.45 77,59.5 v -35 C 77,18.55 72.45,14 66.5,14 Z M 14,25.9 30.1,42 14,58.1 Z m 30.45,15.75 c -1.4,1.4 -3.5,1.4 -4.9,0 L 18.9,21 H 65.1 Z M 35,46.9 c 3.85,3.5 9.8,3.5 14,0 L 65.1,63 H 18.9 Z M 53.9,42 70,25.9 v 32.2 z"
     id="path18"
     inkscape:connector-curvature="0"
     style="stroke-width:3.5;fill:#666666" /></svg>