<?xml version="1.0" encoding="UTF-8" standalone="no"?>
<svg
   xmlns:dc="http://purl.org/dc/elements/1.1/"
   xmlns:cc="http://creativecommons.org/ns#"
   xmlns:rdf="http://www.w3.org/1999/02/22-rdf-syntax-ns#"
   xmlns:svg="http://www.w3.org/2000/svg"
   xmlns="http://www.w3.org/2000/svg"
   xmlns:sodipodi="http://sodipodi.sourceforge.net/DTD/sodipodi-0.dtd"
   xmlns:inkscape="http://www.inkscape.org/namespaces/inkscape"
   version="1.1"
   x="0px"
   y="0px"
   viewBox="0 0 84 84"
   enable-background="new 0 0 100 100"
   xml:space="preserve"
   id="svg22"
   sodipodi:docname="timing.svg"
   width="84"
   height="84"
   inkscape:version="0.92.1 r15371"><metadata
     id="metadata28"><rdf:RDF><cc:Work
         rdf:about=""><dc:format>image/svg+xml</dc:format><dc:type
           rdf:resource="http://purl.org/dc/dcmitype/StillImage" /><dc:title></dc:title></cc:Work></rdf:RDF></metadata><defs
     id="defs26" /><sodipodi:namedview
     pagecolor="#ffffff"
     bordercolor="#666666"
     borderopacity="1"
     objecttolerance="10"
     gridtolerance="10"
     guidetolerance="10"
     inkscape:pageopacity="0"
     inkscape:pageshadow="2"
     inkscape:window-width="1366"
     inkscape:window-height="716"
     id="namedview24"
     showgrid="false"
     inkscape:zoom="4.376"
     inkscape:cx="50"
     inkscape:cy="44.218464"
     inkscape:window-x="-8"
     inkscape:window-y="-8"
     inkscape:window-maximized="1"
     inkscape:current-layer="svg22" /><path
     d="M 68.447856,72.591805 H 67.301621 V 64.21641 c 0,-5.61393 -1.800728,-10.928614 -5.20531,-15.373558 -2.156847,-2.81484 -4.900813,-5.151061 -7.993025,-6.842415 3.091336,-1.692228 5.837052,-4.028449 7.993025,-6.842414 3.405457,-4.444944 5.20531,-9.761378 5.20531,-15.374433 v -8.375395 h 1.146235 c 1.217111,0 2.204099,-0.986113 2.204973,-2.204098 C 70.651029,7.986113 69.664091,7 68.447856,7 H 65.097523 18.901601 15.551267 c -1.217109,0 -2.204097,0.986113 -2.204097,2.204097 0,1.217985 0.986988,2.204098 2.204097,2.204098 h 1.147111 v 8.375395 c 0,5.613055 1.799853,10.929489 5.204435,15.374433 2.155973,2.813965 4.901689,5.150186 7.9939,6.84154 -3.092211,1.692228 -5.837052,4.028449 -7.993025,6.841539 -3.406332,4.446694 -5.20531,9.763128 -5.20531,15.375308 v 8.375395 h -1.147111 c -1.217109,0 -2.204097,0.986113 -2.204097,2.203223 0,1.218859 0.986988,2.204972 2.204097,2.204972 h 3.350334 46.195923 3.350333 c 1.21711,0 2.204098,-0.986113 2.204098,-2.204972 -8.75e-4,-1.21711 -0.987863,-2.203223 -2.204099,-2.203223 z m -5.555305,0 H 58.168486 C 58.154485,65.41602 47.71324,59.337471 43.620042,57.227872 43.116048,54.948526 42.793177,51.446819 42.793177,47.515494 42.794052,42.896426 43.239421,38.867977 43.900914,36.720753 51.935063,35.779265 58.16936,28.950851 58.16936,20.663829 H 25.830639 c 0,8.286147 6.233422,15.115436 14.267572,16.056924 0.661491,2.147224 1.107736,6.175673 1.107736,10.794741 0,3.93045 -0.32287,7.432157 -0.826864,9.712378 -4.093199,2.108724 -14.533569,8.189023 -14.547568,15.363933 H 21.104823 V 64.21641 c 8.75e-4,-4.634817 1.485731,-9.024637 4.296196,-12.694342 2.723841,-3.554205 6.580793,-6.182672 10.860365,-7.403282 0.946739,-0.270372 1.600355,-1.134861 1.600355,-2.119223 0,-0.984363 -0.653616,-1.849727 -1.600355,-2.120099 C 31.980937,38.659729 28.12486,36.031262 25.401019,32.476181 22.590554,28.807352 21.104823,24.418407 21.104823,19.782715 V 11.40732 h 41.788604 l -8.75e-4,8.375395 c 8.75e-4,4.634817 -1.484857,9.024637 -4.295322,12.693466 -2.722966,3.555081 -6.580792,6.183548 -10.860364,7.403283 -0.946738,0.270372 -1.59948,1.134861 -1.59948,2.120099 0,0.984362 0.652742,1.848851 1.59948,2.119223 4.280447,1.22061 8.137398,3.848202 10.860364,7.403282 2.810465,3.66883 4.296197,8.059525 4.296197,12.694342 z"
     id="path16"
     inkscape:connector-curvature="0"
     style="fill:#666666;stroke-width:0.87498909" /></svg>