<?xml version="1.0" encoding="utf-8"?>
<!-- Generator: Adobe Illustrator 15.0.0, SVG Export Plug-In . SVG Version: 6.00 Build 0)  -->
<!DOCTYPE svg PUBLIC "-//W3C//DTD SVG 1.1//EN" "http://www.w3.org/Graphics/SVG/1.1/DTD/svg11.dtd">
<svg version="1.1" id="Layer_1" xmlns="http://www.w3.org/2000/svg" xmlns:xlink="http://www.w3.org/1999/xlink" x="0px" y="0px"
	 width="16px" height="16px" viewBox="0 0 16 16" enable-background="new 0 0 16 16" xml:space="preserve">
<path fill="#010202" d="M16,8.26l-3.517-1.528v1.093H5.477l1.735-2.308h1.106c0.188,0.568,0.712,0.98,1.341,0.98
	c0.788,0,1.425-0.638,1.425-1.416c0-0.788-0.637-1.421-1.425-1.421c-0.629,0-1.154,0.412-1.341,0.98H6.771L4.38,7.824H3.864
	C3.667,6.952,2.889,6.3,1.951,6.3C0.882,6.3,0,7.177,0,8.26c0,1.084,0.882,1.955,1.951,1.955c0.938,0,1.716-0.646,1.914-1.519H6.19
	l2.044,2.958h1.351v0.686h2.252v-2.242H9.585v0.68H8.703L7.259,8.701h5.225v1.093L16,8.26z"/>
</svg>
