<?xml version="1.0" encoding="utf-8"?>
<!-- Generator: Adobe Illustrator 15.0.0, SVG Export Plug-In . SVG Version: 6.00 Build 0)  -->
<!DOCTYPE svg PUBLIC "-//W3C//DTD SVG 1.1//EN" "http://www.w3.org/Graphics/SVG/1.1/DTD/svg11.dtd">
<svg version="1.1" id="Layer_1" xmlns="http://www.w3.org/2000/svg" xmlns:xlink="http://www.w3.org/1999/xlink" x="0px" y="0px"
	 width="5px" height="16px" viewBox="0 0 5 16" enable-background="new 0 0 5 16" xml:space="preserve">
<g>
	<rect x="37.834" y="7.5" fill="#010202" width="1" height="1"/>
	<rect x="37.834" y="13.5" fill="#010202" width="1" height="1"/>
	<rect x="37.834" y="5.5" fill="#010202" width="1" height="1"/>
	<rect x="37.834" y="15.5" fill="#010202" width="1" height="1"/>
	<rect x="37.834" y="11.5" fill="#010202" width="1" height="1"/>
	<rect x="37.834" y="9.5" fill="#010202" width="1" height="1"/>
	<rect x="37.834" y="1.5" fill="#010202" width="1" height="1"/>
	<rect x="37.834" y="3.5" fill="#010202" width="1" height="1"/>
	<rect x="35.834" y="11.5" fill="#010202" width="1" height="1"/>
	<rect x="35.834" y="15.5" fill="#010202" width="1" height="1"/>
	<rect x="35.834" y="9.5" fill="#010202" width="1" height="1"/>
	<rect x="35.834" y="13.5" fill="#010202" width="1" height="1"/>
	<rect x="35.834" y="7.5" fill="#010202" width="1" height="1"/>
	<rect x="35.834" y="5.5" fill="#010202" width="1" height="1"/>
	<rect x="35.834" y="3.5" fill="#010202" width="1" height="1"/>
	<rect x="35.834" y="1.5" fill="#010202" width="1" height="1"/>
	<rect x="39.834" y="7.5" fill="#010202" width="1" height="1"/>
	<rect x="39.834" y="13.5" fill="#010202" width="1" height="1"/>
	<rect x="39.834" y="5.5" fill="#010202" width="1" height="1"/>
	<rect x="39.834" y="15.5" fill="#010202" width="1" height="1"/>
	<rect x="39.834" y="11.5" fill="#010202" width="1" height="1"/>
	<rect x="39.834" y="9.5" fill="#010202" width="1" height="1"/>
	<rect x="39.834" y="1.5" fill="#010202" width="1" height="1"/>
	<rect x="39.834" y="3.5" fill="#010202" width="1" height="1"/>
</g>
<rect x="45.167" y="32.5" width="3" height="1"/>
<rect x="45.167" y="30.5" width="3" height="1"/>
<rect x="45.167" y="28.5" width="3" height="1"/>
<rect x="45.167" y="26.5" width="3" height="1"/>
<rect x="45.167" y="24.5" width="3" height="1"/>
<rect y="14" width="5" height="2"/>
<rect y="10.5" width="5" height="2"/>
<rect y="7" width="5" height="2"/>
<rect y="3.5" width="5" height="2"/>
<rect x="53.167" y="32.5" width="3" height="1"/>
<rect x="53.167" y="30.5" width="3" height="1"/>
<rect x="53.167" y="28.5" width="3" height="1"/>
<rect x="53.167" y="26.5" width="3" height="1"/>
<rect x="53.167" y="24.5" width="3" height="1"/>
<rect x="53.167" y="22.5" width="3" height="1"/>
<rect x="57.167" y="32.5" width="3" height="1"/>
<rect x="57.167" y="30.5" width="3" height="1"/>
<rect x="57.167" y="28.5" width="3" height="1"/>
<rect width="5" height="2"/>
</svg>
