<?xml version="1.0" encoding="UTF-8" standalone="no"?>
<svg
   xmlns:dc="http://purl.org/dc/elements/1.1/"
   xmlns:cc="http://creativecommons.org/ns#"
   xmlns:rdf="http://www.w3.org/1999/02/22-rdf-syntax-ns#"
   xmlns:svg="http://www.w3.org/2000/svg"
   xmlns="http://www.w3.org/2000/svg"
   xmlns:sodipodi="http://sodipodi.sourceforge.net/DTD/sodipodi-0.dtd"
   xmlns:inkscape="http://www.inkscape.org/namespaces/inkscape"
   width="48"
   height="48"
   id="svg5451"
   version="1.1"
   inkscape:version="0.91 r13725"
   sodipodi:docname="remove.svg">
  <metadata
     id="metadata5465">
    <rdf:RDF>
      <cc:Work
         rdf:about="">
        <dc:format>image/svg+xml</dc:format>
        <dc:type
           rdf:resource="http://purl.org/dc/dcmitype/StillImage" />
        <dc:title></dc:title>
      </cc:Work>
    </rdf:RDF>
  </metadata>
  <defs
     id="defs5463" />
  <sodipodi:namedview
     pagecolor="#ffffff"
     bordercolor="#666666"
     borderopacity="1"
     objecttolerance="10"
     gridtolerance="10"
     guidetolerance="10"
     inkscape:pageopacity="0"
     inkscape:pageshadow="2"
     inkscape:window-width="1792"
     inkscape:window-height="1071"
     id="namedview5461"
     showgrid="false"
     inkscape:zoom="14.75"
     inkscape:cx="8"
     inkscape:cy="8"
     inkscape:window-x="0"
     inkscape:window-y="0"
     inkscape:window-maximized="1"
     inkscape:current-layer="svg5451" />
  <path
     d="m -1,31 4.165,0 0,4.165 -4.165,0 z"
     id="path5453"
     inkscape:connector-curvature="0"
     style="fill:none" />
  <g
     id="g5455"
     style="fill:#010101"
     transform="matrix(3.8323752,0,0,3.8323752,-6.6590016,-6.6647502)">
    <path
       d="m 13.248,4.25 -2.624,0 0,-0.75 C 10.624,2 9.874,2 9.124,2 l -2.25,0 c 0,0 -1.5,0.75 -1.5,1.5 l 0,0.75 -2.624,0 c -0.206,0 -0.375,0.17 -0.375,0.375 l 0,0.75 c 0,0.206 0.168,0.375 0.375,0.375 l 10.498,0 c 0.208,0 0.377,-0.17 0.377,-0.375 l 0,-0.75 c 0,-0.206 -0.17,-0.375 -0.377,-0.375 z M 6.875,3.5 l 2.25,0 0,0.75 -2.25,0 0,-0.75 z"
       id="path5457"
       inkscape:connector-curvature="0" />
    <path
       d="m 10.624,6.565 0,5.56 c 0,0.208 -0.17,0.376 -0.375,0.376 -0.206,0 -0.376,-0.168 -0.376,-0.374 l 0,-5.56 c 0,-0.024 0.01,-0.044 0.014,-0.066 l -1.527,0 c 0.005,0.022 0.014,0.04 0.014,0.065 l 0,5.56 c 0,0.208 -0.168,0.376 -0.375,0.376 -0.207,0 -0.376,-0.168 -0.376,-0.374 l 0,-5.56 c 0,-0.024 0.01,-0.044 0.013,-0.066 l -1.526,0 c 0.005,0.022 0.014,0.04 0.014,0.065 l 0,5.56 c 0,0.208 -0.17,0.376 -0.375,0.376 -0.205,0 -0.376,-0.168 -0.376,-0.374 l 0,-5.56 c 0,-0.024 0.01,-0.044 0.013,-0.066 l -1.511,0 0,7.125 c 0,0.208 0.17,0.375 0.375,0.375 l 7.5,0 c 0.207,0 0.374,-0.17 0.374,-0.375 l 0,-7.128 -1.512,0 c 0.003,0.022 0.012,0.042 0.012,0.065 z"
       id="path5459"
       inkscape:connector-curvature="0" />
  </g>
</svg>
