<?xml version="1.0" encoding="UTF-8" standalone="no"?>
<!-- Generator: Adobe Illustrator 15.1.0, SVG Export Plug-In . SVG Version: 6.00 Build 0)  -->

<svg
   xmlns:dc="http://purl.org/dc/elements/1.1/"
   xmlns:cc="http://creativecommons.org/ns#"
   xmlns:rdf="http://www.w3.org/1999/02/22-rdf-syntax-ns#"
   xmlns:svg="http://www.w3.org/2000/svg"
   xmlns="http://www.w3.org/2000/svg"
   xmlns:sodipodi="http://sodipodi.sourceforge.net/DTD/sodipodi-0.dtd"
   xmlns:inkscape="http://www.inkscape.org/namespaces/inkscape"
   version="1.1"
   id="Layer_1"
   x="0px"
   y="0px"
   width="48"
   height="48"
   viewBox="0 0 48 48"
   enable-background="new 0 0 16 16"
   xml:space="preserve"
   inkscape:version="0.91 r13725"
   sodipodi:docname="refresh.svg"><metadata
     id="metadata6085"><rdf:RDF><cc:Work
         rdf:about=""><dc:format>image/svg+xml</dc:format><dc:type
           rdf:resource="http://purl.org/dc/dcmitype/StillImage" /><dc:title /></cc:Work></rdf:RDF></metadata><defs
     id="defs6083" /><sodipodi:namedview
     pagecolor="#ffffff"
     bordercolor="#666666"
     borderopacity="1"
     objecttolerance="10"
     gridtolerance="10"
     guidetolerance="10"
     inkscape:pageopacity="0"
     inkscape:pageshadow="2"
     inkscape:window-width="1792"
     inkscape:window-height="1071"
     id="namedview6081"
     showgrid="false"
     inkscape:zoom="7.375"
     inkscape:cx="-0.27993735"
     inkscape:cy="36.429501"
     inkscape:window-x="0"
     inkscape:window-y="0"
     inkscape:window-maximized="1"
     inkscape:current-layer="Layer_1" /><g
     id="g6075"
     transform="matrix(3.5384615,0,0,3.5384615,-4.307692,-4.307692)"><path
       d="m 8,3.84 c 1.357,0 2.561,0.647 3.32,1.651 l -1.447,1.469 4.535,0 0,-4.6 -1.435,1.456 C 11.781,2.4 9.996,1.5 8,1.5 4.765,1.5 2.082,3.865 1.584,6.96 l 2.388,0 C 4.434,5.166 6.062,3.84 8,3.84 Z"
       id="path6077"
       inkscape:connector-curvature="0"
       style="fill:#010101" /><path
       d="m 8,12.16 c -1.327,0 -2.509,-0.622 -3.271,-1.59 l 1.528,-1.531 -4.67,0 0,4.677 1.481,-1.483 C 4.261,13.621 6.027,14.5 8,14.5 c 3.236,0 5.918,-2.365 6.416,-5.461 l -2.387,0 C 11.567,10.834 9.938,12.16 8,12.16 Z"
       id="path6079"
       inkscape:connector-curvature="0"
       style="fill:#010101" /></g></svg>