<?xml version="1.0" encoding="UTF-8" standalone="no"?>
<!-- Generator: Adobe Illustrator 15.0.0, SVG Export Plug-In . SVG Version: 6.00 Build 0)  -->

<svg
   xmlns:dc="http://purl.org/dc/elements/1.1/"
   xmlns:cc="http://creativecommons.org/ns#"
   xmlns:rdf="http://www.w3.org/1999/02/22-rdf-syntax-ns#"
   xmlns:svg="http://www.w3.org/2000/svg"
   xmlns="http://www.w3.org/2000/svg"
   xmlns:sodipodi="http://sodipodi.sourceforge.net/DTD/sodipodi-0.dtd"
   xmlns:inkscape="http://www.inkscape.org/namespaces/inkscape"
   version="1.1"
   id="Layer_1"
   x="0px"
   y="0px"
   width="48"
   height="48"
   viewBox="0 0 48 48"
   enable-background="new 0 0 16 16"
   xml:space="preserve"
   inkscape:version="0.91 r13725"
   sodipodi:docname="setting.svg"><metadata
     id="metadata7849"><rdf:RDF><cc:Work
         rdf:about=""><dc:format>image/svg+xml</dc:format><dc:type
           rdf:resource="http://purl.org/dc/dcmitype/StillImage" /><dc:title /></cc:Work></rdf:RDF></metadata><defs
     id="defs7847" /><sodipodi:namedview
     pagecolor="#ffffff"
     bordercolor="#666666"
     borderopacity="1"
     objecttolerance="10"
     gridtolerance="10"
     guidetolerance="10"
     inkscape:pageopacity="0"
     inkscape:pageshadow="2"
     inkscape:window-width="1792"
     inkscape:window-height="1071"
     id="namedview7845"
     showgrid="false"
     inkscape:zoom="14.75"
     inkscape:cx="36.745763"
     inkscape:cy="21.559322"
     inkscape:window-x="0"
     inkscape:window-y="0"
     inkscape:window-maximized="1"
     inkscape:current-layer="Layer_1" /><path
     inkscape:connector-curvature="0"
     d="m 47,28.2228 0,-8.4456 -7.591972,0 c -0.3542,-1.305086 -0.866771,-2.541828 -1.521943,-3.691171 l 5.364258,-5.364257 -5.972115,-5.972114 -5.366885,5.364257 C 30.762,9.458743 29.525257,8.946172 28.2228,8.589343 l 0,-7.589343 -8.4456,0 0,7.589343 c -1.302457,0.356829 -2.541829,0.8694 -3.691829,1.524572 L 10.721114,4.749658 4.7489998,10.721772 10.113257,16.086029 C 9.4574284,17.235372 8.9455141,18.472114 8.5886855,19.7772 l -7.58868565,0 0,8.4456 7.58934275,0 c 0.3568286,1.305086 0.8694001,2.541829 1.5245714,3.691171 l -5.364257,5.364258 5.972114,5.969485 5.364257,-5.361628 c 1.15,0.655171 2.386086,1.167743 3.691829,1.524571 l 0,7.589343 8.4456,0 0,-7.589343 c 1.302457,-0.356828 2.541828,-0.8694 3.691828,-1.524571 l 5.364258,5.361628 5.972114,-5.969485 -5.364257,-5.364258 c 0.655828,-1.149342 1.167743,-2.386085 1.521943,-3.691171 l 7.590657,0 z m -23,4.130143 c -4.6138,0 -8.352943,-3.739143 -8.352943,-8.352943 0,-4.6138 3.739143,-8.352943 8.352943,-8.352943 4.611171,0 8.352943,3.739143 8.352943,8.352943 0,4.6138 -3.741772,8.352943 -8.352943,8.352943 z"
     id="path7357" /></svg>