<?xml version="1.0" encoding="UTF-8" standalone="no"?>
<svg
   xmlns:dc="http://purl.org/dc/elements/1.1/"
   xmlns:cc="http://creativecommons.org/ns#"
   xmlns:rdf="http://www.w3.org/1999/02/22-rdf-syntax-ns#"
   xmlns:svg="http://www.w3.org/2000/svg"
   xmlns="http://www.w3.org/2000/svg"
   xmlns:sodipodi="http://sodipodi.sourceforge.net/DTD/sodipodi-0.dtd"
   xmlns:inkscape="http://www.inkscape.org/namespaces/inkscape"
   width="48"
   height="48"
   viewBox="5 5 48 48"
   enable-background="new 5 5 25 25"
   id="svg11098"
   version="1.1"
   inkscape:version="0.91 r13725"
   sodipodi:docname="cad-trace-polyline.svg">
  <metadata
     id="metadata11114">
    <rdf:RDF>
      <cc:Work
         rdf:about="">
        <dc:format>image/svg+xml</dc:format>
        <dc:type
           rdf:resource="http://purl.org/dc/dcmitype/StillImage" />
        <dc:title></dc:title>
      </cc:Work>
    </rdf:RDF>
  </metadata>
  <defs
     id="defs11112" />
  <sodipodi:namedview
     pagecolor="#ffffff"
     bordercolor="#666666"
     borderopacity="1"
     objecttolerance="10"
     gridtolerance="10"
     guidetolerance="10"
     inkscape:pageopacity="0"
     inkscape:pageshadow="2"
     inkscape:window-width="1792"
     inkscape:window-height="1071"
     id="namedview11110"
     showgrid="false"
     inkscape:zoom="18.020833"
     inkscape:cx="24"
     inkscape:cy="24"
     inkscape:window-x="0"
     inkscape:window-y="0"
     inkscape:window-maximized="1"
     inkscape:current-layer="svg11098" />
  <g
     id="g11656"
     transform="matrix(2.4621313,0,0,2.4621313,-14.153775,-71.047474)">
    <path
       style="fill:none;stroke:#010101;stroke-miterlimit:10"
       inkscape:connector-curvature="0"
       id="path11100"
       d="m 10.508,47.933 2.316,-8.57 m 0,10e-4 6.715,2.51 m 10e-4,-0.001 4.94,-8.53"
       stroke-miterlimit="10" />
    <path
       style="fill:#ffffff;stroke:#020202;stroke-width:1.10000002;stroke-miterlimit:10"
       inkscape:connector-curvature="0"
       id="path11102"
       d="m 19.966,40.035 c 0.828,0 1.498,0.67 1.498,1.5 0,0.828 -0.67,1.5 -1.498,1.5 -0.83,0 -1.502,-0.672 -1.502,-1.5 0,-0.83 0.672,-1.5 1.502,-1.5 z"
       stroke-miterlimit="10" />
    <path
       style="fill:#ffffff;stroke:#020202;stroke-width:1.10000002;stroke-miterlimit:10"
       inkscape:connector-curvature="0"
       id="path11104"
       d="m 12.678,37.864 c 0.828,0 1.498,0.67 1.498,1.5 0,0.828 -0.67,1.5 -1.498,1.5 -0.83,0 -1.502,-0.672 -1.502,-1.5 0,-0.83 0.672,-1.5 1.502,-1.5 z"
       stroke-miterlimit="10" />
    <path
       style="fill:#ffffff;stroke:#020202;stroke-width:1.10000002;stroke-miterlimit:10"
       inkscape:connector-curvature="0"
       id="path11106"
       d="m 10.576,46.426 c 0.828,0 1.498,0.67 1.498,1.5 0,0.83 -0.67,1.5 -1.498,1.5 -0.83,0 -1.502,-0.67 -1.502,-1.5 0,-0.83 0.672,-1.5 1.502,-1.5 z"
       stroke-miterlimit="10" />
    <path
       style="fill:#ffffff;stroke:#020202;stroke-width:1.10000002;stroke-miterlimit:10"
       inkscape:connector-curvature="0"
       id="path11108"
       d="m 24.48,31.843 c 0.83,0 1.5,0.67 1.5,1.5 0,0.83 -0.67,1.5 -1.5,1.5 -0.83,0 -1.5,-0.67 -1.5,-1.5 0,-0.83 0.67,-1.5 1.5,-1.5 z"
       stroke-miterlimit="10" />
  </g>
</svg>
