<?xml version="1.0" encoding="UTF-8" standalone="no"?>
<svg
   xmlns:dc="http://purl.org/dc/elements/1.1/"
   xmlns:cc="http://creativecommons.org/ns#"
   xmlns:rdf="http://www.w3.org/1999/02/22-rdf-syntax-ns#"
   xmlns:svg="http://www.w3.org/2000/svg"
   xmlns="http://www.w3.org/2000/svg"
   xmlns:sodipodi="http://sodipodi.sourceforge.net/DTD/sodipodi-0.dtd"
   xmlns:inkscape="http://www.inkscape.org/namespaces/inkscape"
   width="48"
   height="48"
   id="svg17124"
   version="1.1"
   inkscape:version="0.91 r13725"
   sodipodi:docname="cad-form-rectangle.svg">
  <metadata
     id="metadata17136">
    <rdf:RDF>
      <cc:Work
         rdf:about="">
        <dc:format>image/svg+xml</dc:format>
        <dc:type
           rdf:resource="http://purl.org/dc/dcmitype/StillImage" />
        <dc:title></dc:title>
      </cc:Work>
    </rdf:RDF>
  </metadata>
  <defs
     id="defs17134" />
  <sodipodi:namedview
     pagecolor="#ffffff"
     bordercolor="#666666"
     borderopacity="1"
     objecttolerance="10"
     gridtolerance="10"
     guidetolerance="10"
     inkscape:pageopacity="0"
     inkscape:pageshadow="2"
     inkscape:window-width="1792"
     inkscape:window-height="1071"
     id="namedview17132"
     showgrid="false"
     inkscape:zoom="18.020833"
     inkscape:cx="24"
     inkscape:cy="24"
     inkscape:window-x="0"
     inkscape:window-y="0"
     inkscape:window-maximized="1"
     inkscape:current-layer="svg17124" />
  <g
     id="g17678"
     transform="matrix(2.408377,0,0,2.408377,-6.1047125,-61.497383)">
    <path
       style="fill:none;stroke:#010101;stroke-width:1.10000002;stroke-miterlimit:10"
       inkscape:connector-curvature="0"
       id="path17126"
       d="m 5,28.81 15,0 0,13.38 -15,0 z"
       stroke-miterlimit="10" />
    <path
       style="fill:#ffffff;stroke:#020202;stroke-width:1.10000002;stroke-miterlimit:10"
       inkscape:connector-curvature="0"
       id="path17128"
       d="m 20.002,27.31 c 0.828,0 1.498,0.67 1.498,1.5 0,0.827 -0.67,1.5 -1.498,1.5 -0.83,0 -1.502,-0.673 -1.502,-1.5 0,-0.83 0.672,-1.5 1.502,-1.5 z"
       stroke-miterlimit="10" />
    <path
       style="fill:#ffffff;stroke:#020202;stroke-width:1.10000002;stroke-miterlimit:10"
       inkscape:connector-curvature="0"
       id="path17130"
       d="m 5.002,40.69 c 0.828,0 1.498,0.67 1.498,1.5 0,0.83 -0.67,1.5 -1.498,1.5 -0.83,0 -1.502,-0.67 -1.502,-1.5 0,-0.83 0.672,-1.5 1.502,-1.5 z"
       stroke-miterlimit="10" />
  </g>
</svg>
