<?xml version="1.0" encoding="UTF-8" standalone="no"?>
<!-- Generator: Adobe Illustrator 16.0.0, SVG Export Plug-In . SVG Version: 6.00 Build 0)  -->

<svg
   xmlns:dc="http://purl.org/dc/elements/1.1/"
   xmlns:cc="http://creativecommons.org/ns#"
   xmlns:rdf="http://www.w3.org/1999/02/22-rdf-syntax-ns#"
   xmlns:svg="http://www.w3.org/2000/svg"
   xmlns="http://www.w3.org/2000/svg"
   xmlns:sodipodi="http://sodipodi.sourceforge.net/DTD/sodipodi-0.dtd"
   xmlns:inkscape="http://www.inkscape.org/namespaces/inkscape"
   version="1.1"
   id="Layer_1"
   x="0px"
   y="0px"
   width="48"
   height="48"
   viewBox="70.866 70.866 48.000002 48.000002"
   enable-background="new 70.866 70.866 141.732 141.732"
   xml:space="preserve"
   inkscape:version="0.91 r13725"
   sodipodi:docname="cad-utility-quote.svg"><metadata
     id="metadata19541"><rdf:RDF><cc:Work
         rdf:about=""><dc:format>image/svg+xml</dc:format><dc:type
           rdf:resource="http://purl.org/dc/dcmitype/StillImage" /><dc:title></dc:title></cc:Work></rdf:RDF></metadata><defs
     id="defs19539" /><sodipodi:namedview
     pagecolor="#ffffff"
     bordercolor="#666666"
     borderopacity="1"
     objecttolerance="10"
     gridtolerance="10"
     guidetolerance="10"
     inkscape:pageopacity="0"
     inkscape:pageshadow="2"
     inkscape:window-width="1792"
     inkscape:window-height="1071"
     id="namedview19537"
     showgrid="false"
     inkscape:zoom="1.6651145"
     inkscape:cx="70.865997"
     inkscape:cy="70.865997"
     inkscape:window-x="0"
     inkscape:window-y="0"
     inkscape:window-maximized="1"
     inkscape:current-layer="Layer_1" /><g
     id="g19529"
     transform="matrix(0.3096295,0,0,0.3096295,50.96513,53.768101)"><path
       stroke-miterlimit="10"
       d="m 177.851,145.802 c -5.048,-1.734 -8.331,-3.333 -12.381,-5.188 l 0,7.013 -47.474,0 0,-7.054 c -1.449,0.785 -7.333,3.453 -12.386,5.186 -5.403,1.862 -10.304,3.13 -13.48,3.585 3.176,0.457 8.077,1.727 13.48,3.583 5.053,1.735 8.335,3.335 12.386,5.188 l 0,-7.013 47.474,0 0,7.055 c 1.447,-0.785 7.333,-3.452 12.381,-5.187 5.405,-1.86 10.304,-3.131 13.483,-3.585 -3.18,-0.455 -8.078,-1.727 -13.483,-3.583 z"
       id="path19531"
       inkscape:connector-curvature="0"
       style="stroke:#000000;stroke-width:7;stroke-miterlimit:10" /><rect
       x="73.702003"
       y="101.779"
       stroke-miterlimit="10"
       width="3.359"
       height="61.907001"
       id="rect19533"
       style="stroke:#000000;stroke-width:7;stroke-miterlimit:10" /><rect
       x="206.403"
       y="101.779"
       stroke-miterlimit="10"
       width="3.359"
       height="61.907001"
       id="rect19535"
       style="stroke:#000000;stroke-width:7;stroke-miterlimit:10" /></g></svg>