<?xml version="1.0" encoding="UTF-8" standalone="no"?>
<svg
   xmlns:dc="http://purl.org/dc/elements/1.1/"
   xmlns:cc="http://creativecommons.org/ns#"
   xmlns:rdf="http://www.w3.org/1999/02/22-rdf-syntax-ns#"
   xmlns:svg="http://www.w3.org/2000/svg"
   xmlns="http://www.w3.org/2000/svg"
   xmlns:sodipodi="http://sodipodi.sourceforge.net/DTD/sodipodi-0.dtd"
   xmlns:inkscape="http://www.inkscape.org/namespaces/inkscape"
   width="48"
   height="48"
   id="svg17721"
   version="1.1"
   inkscape:version="0.91 r13725"
   sodipodi:docname="cad-form-polygon.svg">
  <metadata
     id="metadata17733">
    <rdf:RDF>
      <cc:Work
         rdf:about="">
        <dc:format>image/svg+xml</dc:format>
        <dc:type
           rdf:resource="http://purl.org/dc/dcmitype/StillImage" />
        <dc:title></dc:title>
      </cc:Work>
    </rdf:RDF>
  </metadata>
  <defs
     id="defs17731" />
  <sodipodi:namedview
     pagecolor="#ffffff"
     bordercolor="#666666"
     borderopacity="1"
     objecttolerance="10"
     gridtolerance="10"
     guidetolerance="10"
     inkscape:pageopacity="0"
     inkscape:pageshadow="2"
     inkscape:window-width="1792"
     inkscape:window-height="1071"
     id="namedview17729"
     showgrid="false"
     inkscape:zoom="18.020833"
     inkscape:cx="24"
     inkscape:cy="24"
     inkscape:window-x="0"
     inkscape:window-y="0"
     inkscape:window-maximized="1"
     inkscape:current-layer="svg17721" />
  <g
     id="g18275"
     transform="matrix(2.4518803,0,0,2.4518803,-7.2503036,-63.041751)">
    <path
       style="fill:none;stroke:#000000;stroke-width:1.10000002;stroke-miterlimit:10"
       inkscape:connector-curvature="0"
       id="path17723"
       d="M 8.25,42.86 4,35.5 l 4.25,-7.36 8.498,0 4.252,7.36 -4.252,7.36 z"
       stroke-miterlimit="10" />
    <path
       style="fill:#ffffff;stroke:#030303;stroke-width:1.10000002;stroke-miterlimit:10"
       inkscape:connector-curvature="0"
       id="path17725"
       d="M 12.5,34 C 13.33,34 14,34.67 14,35.5 14,36.328 13.33,37 12.5,37 11.67,37 11,36.328 11,35.5 11,34.67 11.67,34 12.5,34 Z"
       stroke-miterlimit="10" />
    <path
       style="fill:#ffffff;stroke:#030303;stroke-width:1.10000002;stroke-miterlimit:10"
       inkscape:connector-curvature="0"
       id="path17727"
       d="m 20.076,34.002 c 0.828,0 1.5,0.67 1.5,1.5 0,0.826 -0.672,1.498 -1.5,1.498 -0.83,0 -1.502,-0.672 -1.502,-1.498 0,-0.83 0.672,-1.5 1.502,-1.5 z"
       stroke-miterlimit="10" />
  </g>
</svg>
