<?xml version="1.0" encoding="UTF-8" standalone="no"?>
<svg
   xmlns:dc="http://purl.org/dc/elements/1.1/"
   xmlns:cc="http://creativecommons.org/ns#"
   xmlns:rdf="http://www.w3.org/1999/02/22-rdf-syntax-ns#"
   xmlns:svg="http://www.w3.org/2000/svg"
   xmlns="http://www.w3.org/2000/svg"
   xmlns:sodipodi="http://sodipodi.sourceforge.net/DTD/sodipodi-0.dtd"
   xmlns:inkscape="http://www.inkscape.org/namespaces/inkscape"
   width="48"
   height="48"
   id="svg4258"
   version="1.1"
   inkscape:version="0.91 r13725"
   sodipodi:docname="cam-clock.svg">
  <metadata
     id="metadata4268">
    <rdf:RDF>
      <cc:Work
         rdf:about="">
        <dc:format>image/svg+xml</dc:format>
        <dc:type
           rdf:resource="http://purl.org/dc/dcmitype/StillImage" />
        <dc:title></dc:title>
      </cc:Work>
    </rdf:RDF>
  </metadata>
  <defs
     id="defs4266" />
  <sodipodi:namedview
     pagecolor="#ffffff"
     bordercolor="#666666"
     borderopacity="1"
     objecttolerance="10"
     gridtolerance="10"
     guidetolerance="10"
     inkscape:pageopacity="0"
     inkscape:pageshadow="2"
     inkscape:window-width="1792"
     inkscape:window-height="1071"
     id="namedview4264"
     showgrid="false"
     inkscape:zoom="18.020833"
     inkscape:cx="24"
     inkscape:cy="24"
     inkscape:window-x="0"
     inkscape:window-y="0"
     inkscape:window-maximized="1"
     inkscape:current-layer="svg4258" />
  <g
     id="g4260"
     style="fill:#010101"
     transform="matrix(3.5384615,0,0,3.5384615,-4.307692,-4.307692)">
    <path
       d="M 8,1.5 C 4.41,1.5 1.5,4.41 1.5,8 c 0,3.59 2.91,6.5 6.5,6.5 3.59,0 6.5,-2.91 6.5,-6.5 C 14.5,4.41 11.59,1.5 8,1.5 Z M 8,12.61 C 5.46,12.61 3.39,10.54 3.39,8 3.39,5.46 5.46,3.39 8,3.39 c 2.542,0 4.61,2.07 4.61,4.61 0,2.54 -2.07,4.61 -4.61,4.61 z m 0.564,-5.428 0,-1.664 c 0,-0.26 -0.21,-0.472 -0.472,-0.472 -0.262,0 -0.473,0.21 -0.473,0.472 l 0,1.89 c 0,0.01 0.004,0.018 0.004,0.027 0,0.032 0.01,0.06 0.02,0.09 0.007,0.03 0.013,0.06 0.026,0.087 0.013,0.026 0.03,0.047 0.046,0.07 0.02,0.027 0.04,0.054 0.064,0.077 0.006,0.005 0.01,0.013 0.017,0.02 l 2.363,1.89 c 0.087,0.07 0.19,0.104 0.295,0.104 0.14,0 0.276,-0.062 0.37,-0.178 0.163,-0.204 0.13,-0.502 -0.073,-0.665 L 8.564,7.183 Z"
       id="path4262"
       inkscape:connector-curvature="0" />
  </g>
</svg>
