<?xml version="1.0" encoding="UTF-8" standalone="no"?>
<svg
   xmlns:dc="http://purl.org/dc/elements/1.1/"
   xmlns:cc="http://creativecommons.org/ns#"
   xmlns:rdf="http://www.w3.org/1999/02/22-rdf-syntax-ns#"
   xmlns:svg="http://www.w3.org/2000/svg"
   xmlns="http://www.w3.org/2000/svg"
   xmlns:sodipodi="http://sodipodi.sourceforge.net/DTD/sodipodi-0.dtd"
   xmlns:inkscape="http://www.inkscape.org/namespaces/inkscape"
   width="48"
   height="48"
   id="svg15340"
   version="1.1"
   inkscape:version="0.91 r13725"
   sodipodi:docname="cad-curve-bezier-quadratic.svg">
  <metadata
     id="metadata15356">
    <rdf:RDF>
      <cc:Work
         rdf:about="">
        <dc:format>image/svg+xml</dc:format>
        <dc:type
           rdf:resource="http://purl.org/dc/dcmitype/StillImage" />
        <dc:title></dc:title>
      </cc:Work>
    </rdf:RDF>
  </metadata>
  <defs
     id="defs15354" />
  <sodipodi:namedview
     pagecolor="#ffffff"
     bordercolor="#666666"
     borderopacity="1"
     objecttolerance="10"
     gridtolerance="10"
     guidetolerance="10"
     inkscape:pageopacity="0"
     inkscape:pageshadow="2"
     inkscape:window-width="1792"
     inkscape:window-height="1071"
     id="namedview15352"
     showgrid="false"
     inkscape:zoom="9.44"
     inkscape:cx="12.5"
     inkscape:cy="12.5"
     inkscape:window-x="0"
     inkscape:window-y="0"
     inkscape:window-maximized="1"
     inkscape:current-layer="svg15340" />
  <g
     id="g15898"
     transform="matrix(2.1389375,0,0,2.1389375,-2.7367141,-52.119438)">
    <path
       style="fill:none;stroke:#020202;stroke-width:1.10000002;stroke-miterlimit:10"
       inkscape:connector-curvature="0"
       id="path15342"
       d="m 3.797,41.426 c 0,0 8.616,-11.81 17.406,0"
       stroke-miterlimit="10" />
    <path
       style="fill:none;stroke:#030303;stroke-width:0.25;stroke-miterlimit:10"
       inkscape:connector-curvature="0"
       id="path15344"
       d="M 3.797,41.426 12.5,29.574 m 0,0 8.703,11.852"
       stroke-miterlimit="10" />
    <path
       style="fill:#ffffff;stroke:#020202;stroke-width:0.75;stroke-miterlimit:10"
       inkscape:connector-curvature="0"
       id="path15346"
       d="m 12.473,28.074 c 0.828,0 1.5,0.67 1.5,1.5 0,0.828 -0.67,1.5 -1.5,1.5 -0.828,0 -1.5,-0.672 -1.5,-1.5 0,-0.83 0.672,-1.5 1.5,-1.5 z"
       stroke-miterlimit="10" />
    <path
       style="fill:#ffffff;stroke:#020202;stroke-width:1.10000002;stroke-miterlimit:10"
       inkscape:connector-curvature="0"
       id="path15348"
       d="m 3.797,39.926 c 0.828,0 1.5,0.672 1.5,1.5 0,0.828 -0.67,1.5 -1.5,1.5 -0.828,0 -1.5,-0.672 -1.5,-1.5 -0.002,-0.83 0.672,-1.5 1.5,-1.5 z"
       stroke-miterlimit="10" />
    <path
       style="fill:#ffffff;stroke:#020202;stroke-width:1.10000002;stroke-miterlimit:10"
       inkscape:connector-curvature="0"
       id="path15350"
       d="m 21.203,39.752 c 0.828,0 1.5,0.67 1.5,1.5 0,0.828 -0.672,1.5 -1.5,1.5 -0.828,0 -1.5,-0.672 -1.5,-1.5 -0.002,-0.83 0.672,-1.5 1.5,-1.5 z"
       stroke-miterlimit="10" />
  </g>
</svg>
