<?xml version="1.0" encoding="UTF-8" standalone="no"?>
<svg
   xmlns:dc="http://purl.org/dc/elements/1.1/"
   xmlns:cc="http://creativecommons.org/ns#"
   xmlns:rdf="http://www.w3.org/1999/02/22-rdf-syntax-ns#"
   xmlns:svg="http://www.w3.org/2000/svg"
   xmlns="http://www.w3.org/2000/svg"
   xmlns:sodipodi="http://sodipodi.sourceforge.net/DTD/sodipodi-0.dtd"
   xmlns:inkscape="http://www.inkscape.org/namespaces/inkscape"
   width="48"
   height="48"
   viewBox="5 5 48 48"
   enable-background="new 5 5 25 25"
   id="svg16527"
   version="1.1"
   inkscape:version="0.91 r13725"
   sodipodi:docname="cad-form-circle.svg">
  <metadata
     id="metadata16539">
    <rdf:RDF>
      <cc:Work
         rdf:about="">
        <dc:format>image/svg+xml</dc:format>
        <dc:type
           rdf:resource="http://purl.org/dc/dcmitype/StillImage" />
        <dc:title></dc:title>
      </cc:Work>
    </rdf:RDF>
  </metadata>
  <defs
     id="defs16537" />
  <sodipodi:namedview
     pagecolor="#ffffff"
     bordercolor="#666666"
     borderopacity="1"
     objecttolerance="10"
     gridtolerance="10"
     guidetolerance="10"
     inkscape:pageopacity="0"
     inkscape:pageshadow="2"
     inkscape:window-width="1792"
     inkscape:window-height="1071"
     id="namedview16535"
     showgrid="false"
     inkscape:zoom="9.44"
     inkscape:cx="12.5"
     inkscape:cy="12.5"
     inkscape:window-x="0"
     inkscape:window-y="0"
     inkscape:window-maximized="1"
     inkscape:current-layer="svg16527" />
  <g
     id="g17081"
     transform="matrix(2.6136364,0,0,2.6136364,-16.738637,-74.892047)">
    <circle
       style="fill:none;stroke:#000000;stroke-width:1.10000002;stroke-miterlimit:10"
       id="circle16529"
       stroke-miterlimit="10"
       r="7.5"
       cy="40.5"
       cx="17.5" />
    <path
       style="fill:#ffffff;stroke:#020202;stroke-width:1.10000002;stroke-miterlimit:10"
       inkscape:connector-curvature="0"
       id="path16531"
       d="m 17.502,39.035 c 0.828,0 1.498,0.67 1.498,1.5 0,0.828 -0.67,1.5 -1.498,1.5 -0.83,0 -1.502,-0.672 -1.502,-1.5 0,-0.83 0.672,-1.5 1.502,-1.5 z"
       stroke-miterlimit="10" />
    <path
       style="fill:#ffffff;stroke:#020202;stroke-width:1.10000002;stroke-miterlimit:10"
       inkscape:connector-curvature="0"
       id="path16533"
       d="M 17.502,31.5 C 18.33,31.5 19,32.17 19,33 19,33.828 18.33,34.5 17.502,34.5 16.672,34.5 16,33.83 16,33 c 0,-0.83 0.672,-1.5 1.502,-1.5 z"
       stroke-miterlimit="10" />
  </g>
</svg>
