<?xml version="1.0" encoding="UTF-8" standalone="no"?>
<!-- Generator: Adobe Illustrator 15.0.0, SVG Export Plug-In . SVG Version: 6.00 Build 0)  -->

<svg
   xmlns:dc="http://purl.org/dc/elements/1.1/"
   xmlns:cc="http://creativecommons.org/ns#"
   xmlns:rdf="http://www.w3.org/1999/02/22-rdf-syntax-ns#"
   xmlns:svg="http://www.w3.org/2000/svg"
   xmlns="http://www.w3.org/2000/svg"
   xmlns:sodipodi="http://sodipodi.sourceforge.net/DTD/sodipodi-0.dtd"
   xmlns:inkscape="http://www.inkscape.org/namespaces/inkscape"
   version="1.1"
   id="Layer_1"
   x="0px"
   y="0px"
   width="48"
   height="48"
   viewBox="0 0 48 48"
   enable-background="new 0 0 16 16"
   xml:space="preserve"
   inkscape:version="0.91 r13725"
   sodipodi:docname="cad-object-fit.svg"><metadata
     id="metadata6668"><rdf:RDF><cc:Work
         rdf:about=""><dc:format>image/svg+xml</dc:format><dc:type
           rdf:resource="http://purl.org/dc/dcmitype/StillImage" /><dc:title></dc:title></cc:Work></rdf:RDF></metadata><defs
     id="defs6666" /><sodipodi:namedview
     pagecolor="#ffffff"
     bordercolor="#666666"
     borderopacity="1"
     objecttolerance="10"
     gridtolerance="10"
     guidetolerance="10"
     inkscape:pageopacity="0"
     inkscape:pageshadow="2"
     inkscape:window-width="1792"
     inkscape:window-height="1071"
     id="namedview6664"
     showgrid="false"
     inkscape:zoom="18.020833"
     inkscape:cx="24"
     inkscape:cy="24"
     inkscape:window-x="0"
     inkscape:window-y="0"
     inkscape:window-maximized="1"
     inkscape:current-layer="Layer_1" /><g
     id="g6652"
     transform="matrix(3.8333333,0,0,3.8333333,-6.6666664,-6.6666664)"><polygon
       points="6,4.5 6,3.5 3,3.5 2,3.5 2,4.5 2,7.5 3,7.5 3,4.5 "
       id="polygon6654"
       style="fill:#010202" /><polygon
       points="10,3.5 10,4.5 13,4.5 13,7.5 14,7.5 14,4.5 14,3.5 13,3.5 "
       id="polygon6656"
       style="fill:#010202" /><polygon
       points="2,8.5 2,11.5 2,12.5 3,12.5 6,12.5 6,11.5 3,11.5 3,8.5 "
       id="polygon6658"
       style="fill:#010202" /><polygon
       points="10,11.5 10,12.5 13,12.5 14,12.5 14,11.5 14,8.5 13,8.5 13,11.5 "
       id="polygon6660"
       style="fill:#010202" /><rect
       x="4"
       y="5.5"
       width="8"
       height="5"
       id="rect6662"
       style="fill:#010202" /></g></svg>