<?xml version="1.0" encoding="UTF-8" standalone="no"?>
<svg
   xmlns:dc="http://purl.org/dc/elements/1.1/"
   xmlns:cc="http://creativecommons.org/ns#"
   xmlns:rdf="http://www.w3.org/1999/02/22-rdf-syntax-ns#"
   xmlns:svg="http://www.w3.org/2000/svg"
   xmlns="http://www.w3.org/2000/svg"
   xmlns:sodipodi="http://sodipodi.sourceforge.net/DTD/sodipodi-0.dtd"
   xmlns:inkscape="http://www.inkscape.org/namespaces/inkscape"
   width="48"
   height="48"
   viewBox="0 0 48 48"
   id="svg28621"
   version="1.1"
   inkscape:version="0.91 r13725"
   sodipodi:docname="cad-object-group.svg">
  <metadata
     id="metadata28631">
    <rdf:RDF>
      <cc:Work
         rdf:about="">
        <dc:format>image/svg+xml</dc:format>
        <dc:type
           rdf:resource="http://purl.org/dc/dcmitype/StillImage" />
        <dc:title></dc:title>
      </cc:Work>
    </rdf:RDF>
  </metadata>
  <defs
     id="defs28629" />
  <sodipodi:namedview
     pagecolor="#ffffff"
     bordercolor="#666666"
     borderopacity="1"
     objecttolerance="10"
     gridtolerance="10"
     guidetolerance="10"
     inkscape:pageopacity="0"
     inkscape:pageshadow="2"
     inkscape:window-width="1792"
     inkscape:window-height="1071"
     id="namedview28627"
     showgrid="false"
     inkscape:zoom="18.020833"
     inkscape:cx="24"
     inkscape:cy="24"
     inkscape:window-x="0"
     inkscape:window-y="0"
     inkscape:window-maximized="1"
     inkscape:current-layer="svg28621" />
  <g
     id="g28623"
     style="fill:#010202"
     transform="matrix(3.5384615,0,0,3.5384615,-4.307692,-4.307692)">
    <path
       d="M 2.649,1.5 1.5,2.649 3.867,5.017 2.509,6.375 l 3.866,0 0,-3.866 -1.358,1.359 M 12.133,5.017 14.5,2.649 13.352,1.5 10.983,3.868 9.625,2.509 l 0,3.866 3.865,0 M 3.867,10.983 1.5,13.352 2.649,14.5 l 2.368,-2.367 1.358,1.357 0,-3.865 -3.866,0 m 10.981,0 -3.865,0 0,3.865 1.358,-1.357 2.369,2.367 1.148,-1.148 -2.367,-2.369"
       id="path28625"
       inkscape:connector-curvature="0" />
  </g>
</svg>
