<?xml version="1.0" encoding="UTF-8" standalone="no"?>
<svg
   xmlns:dc="http://purl.org/dc/elements/1.1/"
   xmlns:cc="http://creativecommons.org/ns#"
   xmlns:rdf="http://www.w3.org/1999/02/22-rdf-syntax-ns#"
   xmlns:svg="http://www.w3.org/2000/svg"
   xmlns="http://www.w3.org/2000/svg"
   xmlns:sodipodi="http://sodipodi.sourceforge.net/DTD/sodipodi-0.dtd"
   xmlns:inkscape="http://www.inkscape.org/namespaces/inkscape"
   width="48"
   height="48"
   viewBox="5 5 48 48"
   enable-background="new 5 5 25 25"
   id="svg10492"
   version="1.1"
   inkscape:version="0.91 r13725"
   sodipodi:docname="cad-trace-line.svg">
  <metadata
     id="metadata10504">
    <rdf:RDF>
      <cc:Work
         rdf:about="">
        <dc:format>image/svg+xml</dc:format>
        <dc:type
           rdf:resource="http://purl.org/dc/dcmitype/StillImage" />
        <dc:title></dc:title>
      </cc:Work>
    </rdf:RDF>
  </metadata>
  <defs
     id="defs10502" />
  <sodipodi:namedview
     pagecolor="#ffffff"
     bordercolor="#666666"
     borderopacity="1"
     objecttolerance="10"
     gridtolerance="10"
     guidetolerance="10"
     inkscape:pageopacity="0"
     inkscape:pageshadow="2"
     inkscape:window-width="1792"
     inkscape:window-height="1071"
     id="namedview10500"
     showgrid="false"
     inkscape:zoom="9.44"
     inkscape:cx="12.5"
     inkscape:cy="12.5"
     inkscape:window-x="0"
     inkscape:window-y="0"
     inkscape:window-maximized="1"
     inkscape:current-layer="svg10492" />
  <g
     id="g11046"
     transform="matrix(2.61959,0,0,2.61959,-16.832347,-77.279386)">
    <path
       style="fill:none;stroke:#010101;stroke-width:1.10000002;stroke-miterlimit:10"
       inkscape:connector-curvature="0"
       id="path10494"
       d="m 10.5,47.5 14,-14"
       stroke-miterlimit="10" />
    <path
       style="fill:#ffffff;stroke:#020202;stroke-width:1.10000002;stroke-miterlimit:10"
       inkscape:connector-curvature="0"
       id="path10496"
       d="m 24.226,32.348 c 0.83,0 1.5,0.67 1.5,1.5 0,0.828 -0.67,1.5 -1.5,1.5 -0.83,0 -1.5,-0.672 -1.5,-1.5 0,-0.83 0.67,-1.5 1.5,-1.5 z"
       stroke-miterlimit="10" />
    <path
       style="fill:#ffffff;stroke:#020202;stroke-width:1.10000002;stroke-miterlimit:10"
       inkscape:connector-curvature="0"
       id="path10498"
       d="m 10.766,45.794 c 0.83,0 1.5,0.67 1.5,1.5 0,0.828 -0.67,1.5 -1.5,1.5 -0.83,0 -1.5,-0.672 -1.5,-1.5 0,-0.83 0.67,-1.5 1.5,-1.5 z"
       stroke-miterlimit="10" />
  </g>
</svg>
