<?xml version="1.0" encoding="UTF-8" standalone="no"?>
<svg
   xmlns:dc="http://purl.org/dc/elements/1.1/"
   xmlns:cc="http://creativecommons.org/ns#"
   xmlns:rdf="http://www.w3.org/1999/02/22-rdf-syntax-ns#"
   xmlns:svg="http://www.w3.org/2000/svg"
   xmlns="http://www.w3.org/2000/svg"
   xmlns:sodipodi="http://sodipodi.sourceforge.net/DTD/sodipodi-0.dtd"
   xmlns:inkscape="http://www.inkscape.org/namespaces/inkscape"
   version="1.1"
   x="0px"
   y="0px"
   viewBox="0 0 48 48"
   enable-background="new 0 0 512 512"
   xml:space="preserve"
   id="svg4251"
   inkscape:version="0.91 r13725"
   sodipodi:docname="cad-revision.svg"
   width="48"
   height="48"><metadata
     id="metadata4267"><rdf:RDF><cc:Work
         rdf:about=""><dc:format>image/svg+xml</dc:format><dc:type
           rdf:resource="http://purl.org/dc/dcmitype/StillImage" /><dc:title></dc:title></cc:Work></rdf:RDF></metadata><defs
     id="defs4265" /><sodipodi:namedview
     pagecolor="#ffffff"
     bordercolor="#666666"
     borderopacity="1"
     objecttolerance="10"
     gridtolerance="10"
     guidetolerance="10"
     inkscape:pageopacity="0"
     inkscape:pageshadow="2"
     inkscape:window-width="1792"
     inkscape:window-height="1071"
     id="namedview4263"
     showgrid="false"
     inkscape:zoom="1.0429825"
     inkscape:cx="163.81302"
     inkscape:cy="218.44161"
     inkscape:window-x="0"
     inkscape:window-y="0"
     inkscape:window-maximized="1"
     inkscape:current-layer="svg4251" /><g
     id="g4253"
     transform="matrix(0.09055118,0,0,0.09055118,0.81889792,0.81889792)"><path
       d="m 164.6,129.6 182.6,0 c 5.6,0 10.2,-4.5 10.2,-10.2 l 0,-56.4 c 0,-5.6 -4.5,-10.2 -10.2,-10.2 l -40.3,0 0,0 C 306.8,24.7 284.1,2 256,2 227.9,2 205.2,24.7 205.2,52.8 l 0,0 -40.6,0 c -5.6,0 -10.2,4.5 -10.2,10.2 l 0,56.5 c 0,5.6 4.5,10.1 10.2,10.1 z"
       id="path4255"
       inkscape:connector-curvature="0" /><path
       d="m 433.8,103.6 -25.7,0 0,66.6 c 0,5.6 -4.5,10.2 -10.2,10.2 l -284.1,0 c -5.6,0 -10.2,-4.5 -10.2,-10.2 l 0,-66.6 -25.4,0 c -14,0 -25.4,11.4 -25.4,25.4 l 0,355.6 c 0,14 11.4,25.4 25.4,25.4 l 355.6,0 c 14,0 25.4,-11.4 25.4,-25.4 l 0,-355.6 c 0,-14 -11.4,-25.4 -25.4,-25.4 z m -83.6,195.8 -127,127 c -5,5 -11.5,7.4 -18,7.4 -6.5,0 -13,-2.5 -18,-7.4 l -50.8,-50.8 c -9.9,-9.9 -9.9,-26 0,-35.9 9.9,-9.9 26,-9.9 35.9,0 l 32.8,32.8 109,-109 c 9.9,-9.9 26,-9.9 35.9,0 10.1,9.9 10.1,25.9 0.2,35.9 z"
       id="path4257"
       inkscape:connector-curvature="0" /></g></svg>