<?xml version="1.0" encoding="UTF-8" standalone="no"?>
<svg
   xmlns:dc="http://purl.org/dc/elements/1.1/"
   xmlns:cc="http://creativecommons.org/ns#"
   xmlns:rdf="http://www.w3.org/1999/02/22-rdf-syntax-ns#"
   xmlns:svg="http://www.w3.org/2000/svg"
   xmlns="http://www.w3.org/2000/svg"
   xmlns:sodipodi="http://sodipodi.sourceforge.net/DTD/sodipodi-0.dtd"
   xmlns:inkscape="http://www.inkscape.org/namespaces/inkscape"
   width="48"
   height="48"
   viewBox="5 5 48 48"
   enable-background="new 5 5 25 25"
   id="svg11747"
   version="1.1"
   inkscape:version="0.91 r13725"
   sodipodi:docname="cad-trace-arc.svg">
  <metadata
     id="metadata11763">
    <rdf:RDF>
      <cc:Work
         rdf:about="">
        <dc:format>image/svg+xml</dc:format>
        <dc:type
           rdf:resource="http://purl.org/dc/dcmitype/StillImage" />
        <dc:title></dc:title>
      </cc:Work>
    </rdf:RDF>
  </metadata>
  <defs
     id="defs11761" />
  <sodipodi:namedview
     pagecolor="#ffffff"
     bordercolor="#666666"
     borderopacity="1"
     objecttolerance="10"
     gridtolerance="10"
     guidetolerance="10"
     inkscape:pageopacity="0"
     inkscape:pageshadow="2"
     inkscape:window-width="1792"
     inkscape:window-height="1071"
     id="namedview11759"
     showgrid="false"
     inkscape:zoom="18.020833"
     inkscape:cx="24"
     inkscape:cy="21.780347"
     inkscape:window-x="0"
     inkscape:window-y="0"
     inkscape:window-maximized="1"
     inkscape:current-layer="svg11747" />
  <path
     d="m -1,22 37,0 0,37 -37,0 z"
     id="path11749"
     inkscape:connector-curvature="0"
     style="fill:none" />
  <g
     id="g12305"
     transform="matrix(2.5414365,0,0,2.5414365,-15.475139,-73.928178)">
    <path
       style="fill:none;stroke:#000000;stroke-width:1.10000002;stroke-miterlimit:10"
       inkscape:connector-curvature="0"
       id="path11751"
       d="m 10.5,47.5 c 0,-7.738 6.262,-14 14,-14"
       stroke-miterlimit="10" />
    <path
       style="fill:#ffffff;stroke:#020202;stroke-width:1.10000002;stroke-miterlimit:10"
       inkscape:connector-curvature="0"
       id="path11753"
       d="M 24.5,32 C 25.328,32 26,32.67 26,33.5 26,34.328 25.328,35 24.5,35 23.672,35 23,34.328 23,33.5 23,32.67 23.672,32 24.5,32 Z"
       stroke-miterlimit="10" />
    <path
       style="fill:#ffffff;stroke:#020202;stroke-width:1.10000002;stroke-miterlimit:10"
       inkscape:connector-curvature="0"
       id="path11755"
       d="M 10.5,46 C 11.33,46 12,46.67 12,47.5 12,48.328 11.33,49 10.5,49 9.672,49 9,48.328 9,47.5 9,46.67 9.672,46 10.5,46 Z"
       stroke-miterlimit="10" />
    <path
       style="fill:#ffffff;stroke:#020202;stroke-width:1.10000002;stroke-miterlimit:10"
       inkscape:connector-curvature="0"
       id="path11757"
       d="m 14.472,36.04 c 0.83,0 1.5,0.67 1.5,1.5 0,0.827 -0.67,1.5 -1.5,1.5 -0.828,0 -1.5,-0.673 -1.5,-1.5 0,-0.83 0.672,-1.5 1.5,-1.5 z"
       stroke-miterlimit="10" />
  </g>
</svg>
