<?xml version="1.0" encoding="UTF-8" standalone="no"?>
<svg
   xmlns:dc="http://purl.org/dc/elements/1.1/"
   xmlns:cc="http://creativecommons.org/ns#"
   xmlns:rdf="http://www.w3.org/1999/02/22-rdf-syntax-ns#"
   xmlns:svg="http://www.w3.org/2000/svg"
   xmlns="http://www.w3.org/2000/svg"
   xmlns:sodipodi="http://sodipodi.sourceforge.net/DTD/sodipodi-0.dtd"
   xmlns:inkscape="http://www.inkscape.org/namespaces/inkscape"
   width="48"
   height="48"
   id="svg27992"
   version="1.1"
   inkscape:version="0.91 r13725"
   sodipodi:docname="cad-grid-snap.svg">
  <metadata
     id="metadata28002">
    <rdf:RDF>
      <cc:Work
         rdf:about="">
        <dc:format>image/svg+xml</dc:format>
        <dc:type
           rdf:resource="http://purl.org/dc/dcmitype/StillImage" />
        <dc:title></dc:title>
      </cc:Work>
    </rdf:RDF>
  </metadata>
  <defs
     id="defs28000" />
  <sodipodi:namedview
     pagecolor="#ffffff"
     bordercolor="#666666"
     borderopacity="1"
     objecttolerance="10"
     gridtolerance="10"
     guidetolerance="10"
     inkscape:pageopacity="0"
     inkscape:pageshadow="2"
     inkscape:window-width="1792"
     inkscape:window-height="1071"
     id="namedview27998"
     showgrid="false"
     inkscape:zoom="18.020833"
     inkscape:cx="24"
     inkscape:cy="24"
     inkscape:window-x="0"
     inkscape:window-y="0"
     inkscape:window-maximized="1"
     inkscape:current-layer="svg27992" />
  <g
     id="g27994"
     style="fill:#010101"
     transform="matrix(3.8336528,0,0,3.8336528,-6.6711392,-6.6443037)">
    <path
       d="m 10.39,8.277 -1.68,0 -1.035,-0.99 0,-1.57 c 0,-0.25 -0.215,-0.466 -0.47,-0.466 l -1.58,0 c -0.253,0 -0.47,0.215 -0.47,0.467 l 0,1.452 -1.05,1.107 -1.637,0 c -0.253,0 -0.467,0.21 -0.467,0.467 l 0,1.527 c 0,0.254 0.214,0.465 0.466,0.465 l 1.61,0 c 0.253,0 0.47,-0.21 0.47,-0.464 l 0,-1.482 1.023,-1.087 1.584,0 1.166,1.102 0,1.45 -0.992,1.056 c -0.03,0 -0.053,-0.012 -0.094,-0.012 l -1.61,0 c -0.252,0 -0.47,0.21 -0.47,0.47 l 0,1.526 c 0,0.254 0.217,0.465 0.47,0.465 l 1.61,0 c 0.253,0 0.464,-0.212 0.464,-0.466 l 0,-1.41 1.092,-1.148 1.6,0 c 0.252,0 0.463,-0.21 0.463,-0.464 l 0,-1.528 c 0,-0.256 -0.21,-0.467 -0.462,-0.467 z m 3.135,-3.027 -1.465,0 -1.206,-1.13 0,-1.427 c 0,-0.25 -0.21,-0.466 -0.463,-0.466 l -1.611,0 c -0.258,0 -0.47,0.214 -0.47,0.466 l 0,1.53 c 0,0.258 0.212,0.47 0.47,0.47 l 1.61,0 c 0.03,0 0.054,0 0.077,-0.013 l 0.986,0.93 0,1.637 c 0,0.257 0.22,0.468 0.467,0.468 l 1.617,0 C 13.783,7.715 14,7.505 14,7.249 l 0,-1.53 C 13.982,5.466 13.77,5.252 13.525,5.252 Z"
       id="path27996"
       inkscape:connector-curvature="0" />
  </g>
</svg>
