<?xml version="1.0" encoding="UTF-8" standalone="no"?>
<svg
   xmlns:dc="http://purl.org/dc/elements/1.1/"
   xmlns:cc="http://creativecommons.org/ns#"
   xmlns:rdf="http://www.w3.org/1999/02/22-rdf-syntax-ns#"
   xmlns:svg="http://www.w3.org/2000/svg"
   xmlns="http://www.w3.org/2000/svg"
   xmlns:sodipodi="http://sodipodi.sourceforge.net/DTD/sodipodi-0.dtd"
   xmlns:inkscape="http://www.inkscape.org/namespaces/inkscape"
   width="48"
   height="48"
   viewBox="0 0 48 48"
   id="svg30383"
   version="1.1"
   inkscape:version="0.91 r13725"
   sodipodi:docname="cad-object-scale.svg">
  <metadata
     id="metadata30393">
    <rdf:RDF>
      <cc:Work
         rdf:about="">
        <dc:format>image/svg+xml</dc:format>
        <dc:type
           rdf:resource="http://purl.org/dc/dcmitype/StillImage" />
        <dc:title></dc:title>
      </cc:Work>
    </rdf:RDF>
  </metadata>
  <defs
     id="defs30391" />
  <sodipodi:namedview
     pagecolor="#ffffff"
     bordercolor="#666666"
     borderopacity="1"
     objecttolerance="10"
     gridtolerance="10"
     guidetolerance="10"
     inkscape:pageopacity="0"
     inkscape:pageshadow="2"
     inkscape:window-width="1792"
     inkscape:window-height="1071"
     id="namedview30389"
     showgrid="false"
     inkscape:zoom="18.020833"
     inkscape:cx="24"
     inkscape:cy="24"
     inkscape:window-x="0"
     inkscape:window-y="0"
     inkscape:window-maximized="1"
     inkscape:current-layer="svg30383" />
  <g
     id="g30385"
     style="fill:#010202"
     transform="matrix(3.8333333,0,0,3.8333333,-6.6666664,-6.6666664)">
    <path
       d="m 10.097,6.896 1.504,1.504 0,-4.001 -4.001,0 L 9.131,5.931 6.662,8.4 2,8.4 2,14 7.6,14 7.6,9.394 10.097,6.896 Z M 6,12.4 l -2.4,0 0,-2.401 2.4,0 0,2.401 z m -4,-5.6 0.8,0 0,0.799 -0.8,0 z m 0,-1.6 0.8,0 0,0.799 -0.8,0 z m 0,-1.6 0.8,0 0,0.799 -0.8,0 z M 2,2 2.8,2 2.8,2.8 2,2.8 Z m 11.199,9.601 0.801,0 0,0.8 -0.801,0 z m 0,-1.602 0.801,0 0,0.801 -0.801,0 z m 0,-1.599 0.801,0 0,0.8 -0.801,0 z m 0,-1.6 0.801,0 0,0.799 -0.801,0 z m 0,-1.6 0.801,0 0,0.799 -0.801,0 z m 0,-1.6 0.801,0 0,0.799 -0.801,0 z m 0,-1.6 0.801,0 0,0.8 -0.801,0 z m -1.598,0 0.8,0 0,0.8 -0.8,0 z m -1.602,0 0.801,0 0,0.8 -0.801,0 z M 8.4,2 l 0.801,0 0,0.8 -0.801,0 z m -1.6,0 0.799,0 0,0.8 -0.799,0 z m -1.6,0 0.799,0 0,0.8 -0.799,0 z m -1.6,0 0.799,0 0,0.8 -0.799,0 z m 4.8,11.199 0.801,0 0,0.801 -0.801,0 z m 1.599,0 0.801,0 0,0.801 -0.801,0 z m 1.602,0 0.8,0 0,0.801 -0.8,0 z m 1.598,0 0.801,0 0,0.801 -0.801,0 z"
       id="path30387"
       inkscape:connector-curvature="0" />
  </g>
</svg>
