<?xml version="1.0" encoding="UTF-8" standalone="no"?>
<svg
   xmlns:dc="http://purl.org/dc/elements/1.1/"
   xmlns:cc="http://creativecommons.org/ns#"
   xmlns:rdf="http://www.w3.org/1999/02/22-rdf-syntax-ns#"
   xmlns:svg="http://www.w3.org/2000/svg"
   xmlns="http://www.w3.org/2000/svg"
   xmlns:sodipodi="http://sodipodi.sourceforge.net/DTD/sodipodi-0.dtd"
   xmlns:inkscape="http://www.inkscape.org/namespaces/inkscape"
   width="48"
   height="48"
   viewBox="-19.5 16.5 48 48"
   enable-background="new -19.5 16.5 20 20"
   id="svg12969"
   version="1.1"
   inkscape:version="0.91 r13725"
   sodipodi:docname="cad-curve.svg">
  <metadata
     id="metadata12977">
    <rdf:RDF>
      <cc:Work
         rdf:about="">
        <dc:format>image/svg+xml</dc:format>
        <dc:type
           rdf:resource="http://purl.org/dc/dcmitype/StillImage" />
        <dc:title />
      </cc:Work>
    </rdf:RDF>
  </metadata>
  <defs
     id="defs12975" />
  <sodipodi:namedview
     pagecolor="#ffffff"
     bordercolor="#666666"
     borderopacity="1"
     objecttolerance="10"
     gridtolerance="10"
     guidetolerance="10"
     inkscape:pageopacity="0"
     inkscape:pageshadow="2"
     inkscape:window-width="1792"
     inkscape:window-height="1071"
     id="namedview12973"
     showgrid="false"
     inkscape:zoom="18.020833"
     inkscape:cx="24"
     inkscape:cy="24"
     inkscape:window-x="0"
     inkscape:window-y="0"
     inkscape:window-maximized="1"
     inkscape:current-layer="svg12969" />
  <path
     d="m 8.8265556,30.647056 -8.75533338,0 c -0.598,0 -1.09377782,-0.493222 -1.09377782,-1.098889 l 0,-8.760444 c 0,-0.603112 0.4855556,-1.098889 1.07333338,-1.098889 l 8.74000002,0 c 0.6133333,0 1.0988889,0.493222 1.0988889,1.098889 l 0,8.760444 c 0,0.603111 -0.4983334,1.098889 -1.1091111,1.098889 z m -7.6666667,-2.190111 6.5754444,0 0,-6.572889 -6.5728889,0 0,6.572889 z m -15.3231109,-4.380222 13.143222,0 0,2.187555 -13.143222,0 0,-2.187555 z m 24.0937776,0 13.1508884,0 0,2.187555 -13.1355551,0 0,-2.187555 z m 14.2855554,4.380222 c -1.822111,0 -3.283889,-1.482222 -3.283889,-3.289 0,-1.84 1.461778,-3.296667 3.283889,-3.296667 1.804222,0 3.283889,1.456667 3.283889,3.271111 0,1.814445 -1.472,3.271111 -3.283889,3.271111 z m 0,-4.380222 c -0.608222,0 -1.104,0.493222 -1.104,1.093777 0,0.603111 0.493222,1.098889 1.104,1.098889 0.592889,0 1.093778,-0.493222 1.093778,-1.098889 0,-0.598 -0.495778,-1.093777 -1.093778,-1.093777 z m -39.432222,4.380222 c -1.809333,0 -3.283889,-1.482222 -3.283889,-3.289 0,-1.84 1.474556,-3.296667 3.283889,-3.296667 1.809333,0 3.289,1.456667 3.289,3.271111 0,1.814445 -1.474556,3.271111 -3.289,3.271111 z m 0,-4.380222 c -0.598,0 -1.091222,0.493222 -1.091222,1.093777 0,0.603111 0.493222,1.098889 1.091222,1.098889 0.600555,0 1.098889,-0.493222 1.098889,-1.098889 0,-0.598 -0.495778,-1.093777 -1.098889,-1.093777 z m 41.200667,21.221333 c -0.587778,0 -1.083556,-0.490667 -1.083556,-1.098889 0,-8.893333 -6.337778,-16.447556 -15.0726667,-17.980889 -0.6005555,-0.09456 -1.0068889,-0.669555 -0.8944444,-1.267556 0.1022222,-0.592888 0.6772222,-0.996666 1.2650001,-0.889333 9.792889,1.722445 16.892222,10.186445 16.892222,20.137778 0,0.613333 -0.490667,1.098889 -1.106555,1.098889 z m -43.071334,0 c -0.605666,0 -1.098889,-0.490667 -1.098889,-1.098889 0,-9.951333 7.112111,-18.425556 16.8973337,-20.137778 0.58777774,-0.107333 1.16022219,0.293889 1.2573333,0.889334 0.10733333,0.595444 -0.29388889,1.162777 -0.88422222,1.267555 C -9.6552222,27.751611 -15.993,35.310945 -15.993,44.199167 c 0,0.613333 -0.485556,1.098889 -1.073333,1.098889 z m 28.668222,14.515555 c -0.07667,0 -0.178888,-0.0077 -0.255555,-0.03833 -0.587778,-0.12778 -0.945556,-0.741113 -0.792222,-1.328891 l 2.606666,-10.35 L 4.477,34.858611 -4.1863333,48.121945 -1.5796667,58.4975 c 0.1533334,0.587778 -0.2044444,1.175556 -0.7922222,1.328888 -0.5877778,0.153334 -1.1755555,-0.204444 -1.3288889,-0.784554 L -6.4352222,48.213945 c -0.076667,-0.299 -0.025556,-0.618445 0.1533333,-0.874 L 3.5774444,32.287722 c 0.4037778,-0.613334 1.4311112,-0.613334 1.8323334,0 l 9.8567782,15.052223 c 0.171222,0.255555 0.224888,0.580111 0.143111,0.879111 l -2.76,10.817667 C 12.521889,59.532499 12.074667,59.8545 11.584,59.8545 l 0.01789,0 z M 4.477,53.654723 c -0.5877778,0 -1.0988889,-0.495778 -1.0988889,-1.106556 l 0,-17.518333 c 0,-0.608223 0.5111111,-1.098889 1.0988889,-1.098889 0.5877778,0 1.0988889,0.493222 1.0988889,1.098889 l 0,17.520889 c 0,0.605666 -0.4855556,1.098888 -1.0988889,1.098888 z m 0,4.237111 c -1.8144444,0 -3.2711111,-1.474556 -3.2711111,-3.283889 0,-1.809334 1.4822222,-3.296667 3.2915555,-3.296667 1.8144445,0 3.2864445,1.456667 3.2864445,3.27111 0,1.814445 -1.4822222,3.271111 -3.2966667,3.271111 z m 0,-4.375112 c -0.5877778,0 -1.0988889,0.493223 -1.0988889,1.083555 0,0.608222 0.5111111,1.098889 1.0988889,1.098889 0.5877778,0 1.0988889,-0.493222 1.0988889,-1.098889 0,-0.587778 -0.4855556,-1.081 -1.0988889,-1.083555 z m 9.864444,7.794444 -19.7033329,0 c -0.598,0 -1.0988889,-0.490667 -1.0988889,-1.091222 0,-0.608222 0.4983334,-1.088667 1.0988889,-1.088667 l 19.7135559,0 c 0.600555,0 1.098889,0.46 1.098889,1.073333 0,0.587778 -0.495778,1.098889 -1.109112,1.098889 z"
     id="path12971"
     inkscape:connector-curvature="0"
     style="fill:#010101" />
</svg>
