<?xml version="1.0" encoding="UTF-8" standalone="no"?>
<svg
   xmlns:dc="http://purl.org/dc/elements/1.1/"
   xmlns:cc="http://creativecommons.org/ns#"
   xmlns:rdf="http://www.w3.org/1999/02/22-rdf-syntax-ns#"
   xmlns:svg="http://www.w3.org/2000/svg"
   xmlns="http://www.w3.org/2000/svg"
   xmlns:sodipodi="http://sodipodi.sourceforge.net/DTD/sodipodi-0.dtd"
   xmlns:inkscape="http://www.inkscape.org/namespaces/inkscape"
   width="48"
   height="48"
   viewBox="-19.5 16.5 48 48"
   enable-background="new -19.5 16.5 20 20"
   id="svg9861"
   version="1.1"
   inkscape:version="0.91 r13725"
   sodipodi:docname="cad-trace.svg">
  <metadata
     id="metadata9869">
    <rdf:RDF>
      <cc:Work
         rdf:about="">
        <dc:format>image/svg+xml</dc:format>
        <dc:type
           rdf:resource="http://purl.org/dc/dcmitype/StillImage" />
        <dc:title></dc:title>
      </cc:Work>
    </rdf:RDF>
  </metadata>
  <defs
     id="defs9867" />
  <sodipodi:namedview
     pagecolor="#ffffff"
     bordercolor="#666666"
     borderopacity="1"
     objecttolerance="10"
     gridtolerance="10"
     guidetolerance="10"
     inkscape:pageopacity="0"
     inkscape:pageshadow="2"
     inkscape:window-width="1792"
     inkscape:window-height="1071"
     id="namedview9865"
     showgrid="false"
     inkscape:zoom="11.8"
     inkscape:cx="10"
     inkscape:cy="30.338983"
     inkscape:window-x="0"
     inkscape:window-y="0"
     inkscape:window-maximized="1"
     inkscape:current-layer="svg9861" />
  <path
     d="m -14.163222,22.979111 18.617222,0 0,2.187556 -18.617222,0 0,-2.187556 z m 18.6197776,0 18.6300004,0 0,2.187556 -18.6300004,0 0,-2.187556 z m 19.7595554,4.377667 c -1.809333,0 -3.283889,-1.482223 -3.283889,-3.283889 0,-1.814445 1.474556,-3.289 3.283889,-3.289 1.804222,0 3.283889,1.482222 3.283889,3.289 0,1.806778 -1.482222,3.283889 -3.283889,3.283889 z m 0,-4.377667 c -0.608222,0 -1.091222,0.490667 -1.091222,1.098889 0,0.595444 0.480444,1.088667 1.091222,1.088667 0.592889,0 1.093778,-0.490667 1.093778,-1.091223 0,-0.605666 -0.495778,-1.098889 -1.093778,-1.098889 z m -39.432222,4.377667 c -1.809333,0 -3.283889,-1.482223 -3.283889,-3.283889 0,-1.814445 1.482222,-3.289 3.283889,-3.289 1.809333,0 3.289,1.482222 3.289,3.289 0,1.806778 -1.474556,3.283889 -3.289,3.283889 z m 0,-4.377667 c -0.598,0 -1.091222,0.490667 -1.091222,1.098889 0,0.595444 0.493222,1.088667 1.091222,1.088667 0.603111,0 1.098889,-0.490667 1.098889,-1.091223 0,-0.605666 -0.495778,-1.098889 -1.098889,-1.098889 z m 26.782222,35.726667 c -0.07156,0 -0.161,-0.01022 -0.265778,-0.02556 -0.582666,-0.158444 -0.925111,-0.751333 -0.779444,-1.334 l 2.614333,-10.35 -8.6735553,-13.258222 -8.6735556,13.263333 2.6168889,10.35 c 0.1431111,0.587778 -0.2121111,1.175556 -0.7922222,1.328889 -0.6133334,0.153333 -1.1908889,-0.204444 -1.3288889,-0.792222 L -6.4607778,47.067778 C -6.5374444,46.761111 -6.4863333,46.459555 -6.3176667,46.204 L 3.5391111,31.139 c 0.4037778,-0.613333 1.4311111,-0.613333 1.8323333,0 l 9.8593336,15.065 c 0.168666,0.255555 0.23,0.575 0.145666,0.863778 l -2.739555,10.817666 c -0.127778,0.493223 -0.572445,0.817778 -1.065667,0.817778 z M 4.454,52.546889 c -0.6056667,0 -1.0988889,-0.495778 -1.0988889,-1.091222 l 0,-17.531112 c 0,-0.595444 0.4957778,-1.088666 1.0988889,-1.088666 0.6031111,0 1.0988889,0.493222 1.0988889,1.093778 l 0,17.531111 c 0,0.595444 -0.4957778,1.086111 -1.0988889,1.086111 z m 0,4.252444 c -1.8093333,0 -3.2838889,-1.482222 -3.2838889,-3.283889 0,-1.824666 1.4745556,-3.296666 3.2838889,-3.296666 1.8144444,0 3.2864444,1.472 3.2864444,3.281333 0,1.819556 -1.472,3.296667 -3.2864444,3.296667 z m 0,-4.390444 c -0.6056667,0 -1.0988889,0.498333 -1.0988889,1.104 0,0.598 0.4957778,1.091222 1.0988889,1.091222 0.6031111,0 1.0988889,-0.493222 1.0988889,-1.106556 0,-0.600555 -0.4957778,-1.098888 -1.0988889,-1.098888 l 0,0.0077 z m 9.854222,7.807222 -19.7109998,0 c -0.6056666,0 -1.0988889,-0.493222 -1.0988889,-1.091222 0,-0.613334 0.4957778,-1.098889 1.0988889,-1.098889 l 19.7109998,0 c 0.608222,0 1.098889,0.485555 1.098889,1.098889 0,0.600555 -0.490667,1.091222 -1.104,1.091222 l 0.0051,0 z"
     id="path9863"
     inkscape:connector-curvature="0"
     style="fill:#010101" />
</svg>
