<?xml version="1.0" encoding="UTF-8" standalone="no"?>
<svg
   xmlns:dc="http://purl.org/dc/elements/1.1/"
   xmlns:cc="http://creativecommons.org/ns#"
   xmlns:rdf="http://www.w3.org/1999/02/22-rdf-syntax-ns#"
   xmlns:svg="http://www.w3.org/2000/svg"
   xmlns="http://www.w3.org/2000/svg"
   xmlns:sodipodi="http://sodipodi.sourceforge.net/DTD/sodipodi-0.dtd"
   xmlns:inkscape="http://www.inkscape.org/namespaces/inkscape"
   width="48"
   height="48"
   viewBox="-19.5 16.5 48 48"
   enable-background="new -19.5 16.5 20 20"
   id="svg18314"
   version="1.1"
   inkscape:version="0.91 r13725"
   sodipodi:docname="cad-utility.svg">
  <metadata
     id="metadata18322">
    <rdf:RDF>
      <cc:Work
         rdf:about="">
        <dc:format>image/svg+xml</dc:format>
        <dc:type
           rdf:resource="http://purl.org/dc/dcmitype/StillImage" />
        <dc:title></dc:title>
      </cc:Work>
    </rdf:RDF>
  </metadata>
  <defs
     id="defs18320" />
  <sodipodi:namedview
     pagecolor="#ffffff"
     bordercolor="#666666"
     borderopacity="1"
     objecttolerance="10"
     gridtolerance="10"
     guidetolerance="10"
     inkscape:pageopacity="0"
     inkscape:pageshadow="2"
     inkscape:window-width="1792"
     inkscape:window-height="1071"
     id="namedview18318"
     showgrid="false"
     inkscape:zoom="18.020833"
     inkscape:cx="24"
     inkscape:cy="24"
     inkscape:window-x="0"
     inkscape:window-y="0"
     inkscape:window-maximized="1"
     inkscape:current-layer="svg18314" />
  <path
     d="M 27.116571,57.322272 19.8307,49.990385 18.419542,48.566956 c 0,0 0.533786,-2.322276 0,-2.85913 l -0.889644,-0.895778 c 0,0 -0.536853,-0.546057 -1.165739,0.07669 l -2.239447,2.22104 -6.0188958,-6.043438 3.2671378,-3.221122 c 1.454106,0.766934 3.110683,1.257772 4.893038,1.257772 5.94527,0.03068 10.776953,-4.785667 10.798427,-10.737074 0,-0.950998 -0.168725,-1.840641 -0.398805,-2.730284 l -5.663039,5.644633 -6.267383,-1.349804 -1.334465,-6.258179 5.644633,-5.644633 c -0.889644,-0.245419 -1.809964,-0.411077 -2.760962,-0.411077 -5.951406,-0.01841 -10.7677503,4.779532 -10.7984277,10.72787 0,1.963351 0.5521923,3.803992 1.5031902,5.399214 l -3.1597672,3.098413 -9.7860753,-9.84743 -2.1474146,-3.573912 -2.8529934,-2.8714 -5.521924,-3.049329 -0.92032,0.889644 -0.911118,0.889643 3.018652,5.5526 2.852993,2.868333 3.5708443,2.147414 9.7860753,9.856634 -3.1444286,3.122954 c -1.5952223,-0.926453 -3.4235925,-1.503187 -5.3992139,-1.509323 -5.9514061,-0.0092 -10.7861571,4.804074 -10.7984281,10.737074 0,0.950997 0.153387,1.859047 0.380399,2.745623 l 5.67531,-5.644633 6.2581803,1.371277 1.3191261,6.25818 -5.6845134,5.644633 c 0.8896433,0.245419 1.8099639,0.411076 2.7732327,0.411076 5.9360676,0.01534 10.7677505,-4.785666 10.7984279,-10.727869 0,-1.779287 -0.4601603,-3.435864 -1.2270941,-4.91758 l 3.267138,-3.236461 6.0127605,6.052642 -2.2547848,2.239447 c -0.6135471,0.613547 -0.07976,1.159604 -0.07976,1.159604 l 0.889643,0.889643 c 0.5337858,0.536853 2.8315198,0 2.8315198,0 l 1.441835,1.441835 7.292007,7.331887 c 0.561395,0.58287 2.313072,0.552193 2.852993,0 l 1.441836,-1.423429 1.441835,-1.4357 c 0.530719,-0.539921 0.58287,-2.285463 0,-2.865265 l 0.01227,0 z"
     id="path18316"
     inkscape:connector-curvature="0"
     style="fill:#010101" />
</svg>
