<?xml version="1.0" encoding="UTF-8" standalone="no"?>
<svg
   xmlns:dc="http://purl.org/dc/elements/1.1/"
   xmlns:cc="http://creativecommons.org/ns#"
   xmlns:rdf="http://www.w3.org/1999/02/22-rdf-syntax-ns#"
   xmlns:svg="http://www.w3.org/2000/svg"
   xmlns="http://www.w3.org/2000/svg"
   xmlns:sodipodi="http://sodipodi.sourceforge.net/DTD/sodipodi-0.dtd"
   xmlns:inkscape="http://www.inkscape.org/namespaces/inkscape"
   width="48"
   height="48"
   id="svg14112"
   version="1.1"
   inkscape:version="0.91 r13725"
   sodipodi:docname="cad-curve-spline.svg">
  <metadata
     id="metadata14134">
    <rdf:RDF>
      <cc:Work
         rdf:about="">
        <dc:format>image/svg+xml</dc:format>
        <dc:type
           rdf:resource="http://purl.org/dc/dcmitype/StillImage" />
        <dc:title></dc:title>
      </cc:Work>
    </rdf:RDF>
  </metadata>
  <defs
     id="defs14132" />
  <sodipodi:namedview
     pagecolor="#ffffff"
     bordercolor="#666666"
     borderopacity="1"
     objecttolerance="10"
     gridtolerance="10"
     guidetolerance="10"
     inkscape:pageopacity="0"
     inkscape:pageshadow="2"
     inkscape:window-width="1792"
     inkscape:window-height="1071"
     id="namedview14130"
     showgrid="false"
     inkscape:zoom="9.44"
     inkscape:cx="12.5"
     inkscape:cy="12.5"
     inkscape:window-x="0"
     inkscape:window-y="0"
     inkscape:window-maximized="1"
     inkscape:current-layer="svg14112" />
  <g
     id="g14676"
     transform="matrix(2.1402317,0,0,2.1402317,-3.1627506,-51.978225)">
    <path
       style="fill:none;stroke:#020202;stroke-width:0.25;stroke-miterlimit:10"
       inkscape:connector-curvature="0"
       id="path14114"
       d="M 3.82,30.27 13.848,27.5 M 3.82,30.27 12.88,35.5 m 8.683,5 -8.683,-5 m 8.683,5 -11.49,3"
       stroke-miterlimit="10" />
    <g
       transform="translate(0,23)"
       style="stroke-width:1.10000002;stroke-miterlimit:10"
       id="g14116"
       stroke-miterlimit="10">
      <path
         style="fill:none;stroke:#000000"
         inkscape:connector-curvature="0"
         id="path14118"
         d="m 13.847,4.5 c 0,0 -9.864,1.62 -0.967,8 8.895,6.382 -1.28,8.086 -2.806,7.998" />
      <path
         style="fill:#ffffff;stroke:#020202"
         inkscape:connector-curvature="0"
         id="path14120"
         d="m 10.015,19 c 0.828,0 1.5,0.672 1.5,1.5 0,0.828 -0.67,1.5 -1.5,1.5 -0.827,0 -1.5,-0.672 -1.5,-1.5 0,-0.83 0.673,-1.5 1.5,-1.5 z" />
      <path
         style="fill:#ffffff;stroke:#020202"
         inkscape:connector-curvature="0"
         id="path14122"
         d="m 12.823,11 c 0.83,0 1.5,0.67 1.5,1.5 0,0.828 -0.67,1.5 -1.5,1.5 -0.828,0 -1.5,-0.672 -1.5,-1.5 0,-0.83 0.67,-1.5 1.5,-1.5 z" />
      <path
         style="fill:#ffffff;stroke:#020202"
         inkscape:connector-curvature="0"
         id="path14124"
         d="m 13.854,3 c 0.828,0 1.5,0.67 1.5,1.5 0,0.828 -0.67,1.5 -1.5,1.5 -0.83,0 -1.5,-0.672 -1.5,-1.5 0,-0.83 0.672,-1.5 1.5,-1.5 z" />
    </g>
    <path
       style="fill:#ffffff;stroke:#020202;stroke-width:0.75;stroke-miterlimit:10"
       inkscape:connector-curvature="0"
       id="path14126"
       d="m 21.563,39 c 0.828,0 1.5,0.672 1.5,1.5 0,0.83 -0.67,1.5 -1.5,1.5 -0.828,0 -1.5,-0.67 -1.5,-1.5 0,-0.83 0.672,-1.5 1.5,-1.5 z"
       stroke-miterlimit="10" />
    <path
       style="fill:#ffffff;stroke:#020202;stroke-width:0.75;stroke-miterlimit:10"
       inkscape:connector-curvature="0"
       id="path14128"
       d="m 3.822,28.77 c 0.826,0 1.498,0.67 1.498,1.5 0,0.828 -0.67,1.5 -1.498,1.5 -0.828,0 -1.502,-0.672 -1.502,-1.5 0,-0.83 0.674,-1.5 1.502,-1.5 z"
       stroke-miterlimit="10" />
  </g>
</svg>
