<?xml version="1.0" encoding="UTF-8" standalone="no"?>
<svg
   xmlns:dc="http://purl.org/dc/elements/1.1/"
   xmlns:cc="http://creativecommons.org/ns#"
   xmlns:rdf="http://www.w3.org/1999/02/22-rdf-syntax-ns#"
   xmlns:svg="http://www.w3.org/2000/svg"
   xmlns="http://www.w3.org/2000/svg"
   xmlns:sodipodi="http://sodipodi.sourceforge.net/DTD/sodipodi-0.dtd"
   xmlns:inkscape="http://www.inkscape.org/namespaces/inkscape"
   width="48"
   height="48"
   id="svg14730"
   version="1.1"
   inkscape:version="0.91 r13725"
   sodipodi:docname="cad-curve-bezier-cubic.svg">
  <metadata
     id="metadata14748">
    <rdf:RDF>
      <cc:Work
         rdf:about="">
        <dc:format>image/svg+xml</dc:format>
        <dc:type
           rdf:resource="http://purl.org/dc/dcmitype/StillImage" />
        <dc:title></dc:title>
      </cc:Work>
    </rdf:RDF>
  </metadata>
  <defs
     id="defs14746" />
  <sodipodi:namedview
     pagecolor="#ffffff"
     bordercolor="#666666"
     borderopacity="1"
     objecttolerance="10"
     gridtolerance="10"
     guidetolerance="10"
     inkscape:pageopacity="0"
     inkscape:pageshadow="2"
     inkscape:window-width="1792"
     inkscape:window-height="1071"
     id="namedview14744"
     showgrid="false"
     inkscape:zoom="18.020833"
     inkscape:cx="24"
     inkscape:cy="24"
     inkscape:window-x="0"
     inkscape:window-y="0"
     inkscape:window-maximized="1"
     inkscape:current-layer="svg14730" />
  <g
     id="g15290"
     transform="matrix(1.9601991,0,0,1.9601991,-0.67204168,-45.759566)">
    <path
       style="fill:none;stroke:#000000;stroke-width:1.5;stroke-miterlimit:10"
       inkscape:connector-curvature="0"
       id="path14732"
       d="m 4.227,41.52 c 0,-10.078 9.645,-8.958 18,0"
       stroke-miterlimit="10" />
    <path
       style="fill:none;stroke:#020202;stroke-width:0.25;stroke-miterlimit:10"
       inkscape:connector-curvature="0"
       id="path14734"
       d="M 4.227,41.52 2.727,29.763 M 22.23,41.52 19.292,29.763"
       stroke-miterlimit="10" />
    <path
       style="fill:#ffffff;stroke:#020202;stroke-width:0.75;stroke-miterlimit:10"
       inkscape:connector-curvature="0"
       id="path14736"
       d="m 2.728,28.263 c 0.828,0 1.5,0.67 1.5,1.5 0,0.828 -0.67,1.5 -1.5,1.5 -0.828,0 -1.5,-0.672 -1.5,-1.5 -0.002,-0.83 0.672,-1.5 1.5,-1.5 z"
       stroke-miterlimit="10" />
    <path
       style="fill:#ffffff;stroke:#020202;stroke-width:0.75;stroke-miterlimit:10"
       inkscape:connector-curvature="0"
       id="path14738"
       d="m 19.294,28.063 c 0.826,0 1.5,0.67 1.5,1.5 0,0.828 -0.672,1.5 -1.5,1.5 -0.828,0 -1.5,-0.672 -1.5,-1.5 -0.002,-0.83 0.672,-1.5 1.5,-1.5 z"
       stroke-miterlimit="10" />
    <path
       style="fill:#ffffff;stroke:#020202;stroke-width:1.10000002;stroke-miterlimit:10"
       inkscape:connector-curvature="0"
       id="path14740"
       d="m 4.228,39.938 c 0.827,0 1.5,0.672 1.5,1.5 0,0.826 -0.67,1.5 -1.5,1.5 -0.828,0 -1.5,-0.674 -1.5,-1.5 -0.002,-0.833 0.672,-1.5 1.5,-1.5 z"
       stroke-miterlimit="10" />
    <path
       style="fill:#ffffff;stroke:#020202;stroke-width:1.10000002;stroke-miterlimit:10"
       inkscape:connector-curvature="0"
       id="path14742"
       d="m 22.27,39.936 c 0.83,0 1.5,0.672 1.5,1.5 0,0.828 -0.67,1.5 -1.5,1.5 -0.827,0 -1.5,-0.672 -1.5,-1.5 0,-0.832 0.673,-1.5 1.5,-1.5 z"
       stroke-miterlimit="10" />
  </g>
</svg>
