<?xml version="1.0" encoding="UTF-8" standalone="no"?>
<!-- Created with Inkscape (http://www.inkscape.org/) -->

<svg
   xmlns:dc="http://purl.org/dc/elements/1.1/"
   xmlns:cc="http://creativecommons.org/ns#"
   xmlns:rdf="http://www.w3.org/1999/02/22-rdf-syntax-ns#"
   xmlns:svg="http://www.w3.org/2000/svg"
   xmlns="http://www.w3.org/2000/svg"
   xmlns:sodipodi="http://sodipodi.sourceforge.net/DTD/sodipodi-0.dtd"
   xmlns:inkscape="http://www.inkscape.org/namespaces/inkscape"
   width="48"
   height="48"
   viewBox="0 0 48 48"
   id="svg4369"
   version="1.1"
   inkscape:version="0.91 r13725"
   sodipodi:docname="cam-halftone.svg">
  <defs
     id="defs4371" />
  <sodipodi:namedview
     id="base"
     pagecolor="#ffffff"
     bordercolor="#666666"
     borderopacity="1.0"
     inkscape:pageopacity="0.0"
     inkscape:pageshadow="2"
     inkscape:zoom="2.8"
     inkscape:cx="-84.682682"
     inkscape:cy="-28.192293"
     inkscape:document-units="px"
     inkscape:current-layer="layer1"
     showgrid="false"
     units="px"
     inkscape:window-width="1792"
     inkscape:window-height="1071"
     inkscape:window-x="0"
     inkscape:window-y="0"
     inkscape:window-maximized="1" />
  <metadata
     id="metadata4374">
    <rdf:RDF>
      <cc:Work
         rdf:about="">
        <dc:format>image/svg+xml</dc:format>
        <dc:type
           rdf:resource="http://purl.org/dc/dcmitype/StillImage" />
        <dc:title></dc:title>
      </cc:Work>
    </rdf:RDF>
  </metadata>
  <g
     inkscape:label="Layer 1"
     inkscape:groupmode="layer"
     id="layer1"
     transform="translate(0,-1004.3622)">
    <g
       id="g5067"
       transform="matrix(0.52635518,0,0,0.52635518,17.044592,473.41201)">
      <path
         id="path4"
         d="m -2.5419703,1059.1477 c -4.864921,-3.9515 3.36553598,-10.0029 5.359314,-6.3653 3.805451,4.6373 -3.39930302,9.9412 -5.359314,6.3653 z"
         inkscape:connector-curvature="0" />
      <path
         id="path6"
         d="m -5.2247763,1069.9677 c -4.423004,-3.8019 3.194311,-9.3119 5.07259998,-5.8851 3.58564002,4.3115 -3.21508398,9.274 -5.07259998,5.8851 z"
         inkscape:connector-curvature="0" />
      <path
         id="path8"
         d="m 5.2580137,1067.4179 c -5.46919202,-4.306 3.648819,-11.0164 5.8002053,-7.0914 4.188137,5.1438 -3.7056463,10.9358 -5.8002053,7.0914 z"
         inkscape:connector-curvature="0" />
      <path
         id="path10"
         d="m 2.8636997,1077.4121 c -4.197639,-3.6696 3.084031,-8.9511 4.914421,-5.6206 3.4387333,4.133 -3.095764,8.9299 -4.914421,5.6206 z"
         inkscape:connector-curvature="0" />
      <path
         id="path12"
         d="m 6.5185267,1082.5049 c 2.982167,3.415 -2.709133,7.5018 -4.299106,4.6035 -3.287766,-3.2144 2.702778,-7.5159 4.299106,-4.6035 z"
         inkscape:connector-curvature="0" />
      <path
         id="path14"
         d="m 6.5671107,1092.0664 c 1.345555,2.3767 -1.94141,5.2595 -3.24839,2.8892 -2.160141,-2.089 1.998699,-5.1673 3.24839,-2.8892 z"
         inkscape:connector-curvature="0" />
      <path
         id="path16"
         d="m 15.580055,1088.3565 c 1.85139,2.5476 -2.0957,5.4988 -3.401707,3.1343 -2.1878403,-2.4067 2.128433,-5.4714 3.401707,-3.1343 z"
         inkscape:connector-curvature="0" />
      <path
         id="path18"
         d="m 17.343257,1095.3558 c 0.662648,1.7112 -1.531314,3.8581 -2.629581,1.8682 -0.449875,-1.5655 1.449593,-4.0081 2.629581,-1.8682 z"
         inkscape:connector-curvature="0" />
      <path
         id="path20"
         d="m 16.113021,1078.6337 c 3.160775,3.5725 -2.811054,7.8417 -4.446296,4.8583 -3.5046583,-3.3431 2.796463,-7.8658 4.446296,-4.8583 z"
         inkscape:connector-curvature="0" />
      <path
         id="path22"
         d="m 23.343299,1083.7343 c 2.175476,2.8713 -2.305614,6.2164 -3.71194,3.6507 -2.611729,-2.6334 2.309333,-6.2097 3.71194,-3.6507 z"
         inkscape:connector-curvature="0" />
      <path
         id="path24"
         d="m 26.661453,1090.8063 c 1.846817,2.5485 -2.10125,5.5192 -3.407257,3.1528 -2.206379,-2.4085 2.133415,-5.491 3.407257,-3.1528 z"
         inkscape:connector-curvature="0" />
      <path
         id="path26"
         d="m -3.8742453,1087.1981 c 1.230865,2.2595 -1.875429,4.9767 -3.135481,2.6839 -1.93569,-2.0783 1.945188,-4.8535 3.135481,-2.6839 z"
         inkscape:connector-curvature="0" />
      <path
         id="path28"
         d="m -12.056803,1080.0477 c 2.1449737,2.8536 -2.303612,6.1935 -3.704502,3.6399 -2.62615,-2.6318 2.308416,-6.187 3.704502,-3.6399 z"
         inkscape:connector-curvature="0" />
      <path
         id="path30"
         d="m -18.801901,1070.687 c 2.539104,2.99 -2.439529,6.5669 -3.875673,3.9285 -2.759433,-2.8426 2.422302,-6.5801 3.875673,-3.9285 z"
         inkscape:connector-curvature="0" />
      <path
         id="path32"
         d="m -24.202822,1063.0794 c 1.217646,2.2401 -1.853051,4.9432 -3.109156,2.6653 -1.920409,-2.0588 1.932142,-4.8126 3.109156,-2.6653 z"
         inkscape:connector-curvature="0" />
      <path
         id="path34"
         d="m -14.110957,1072.7123 c -3.186298,-3.1001 2.618767,-7.2717 4.1799547,-4.4234 2.86708,3.2864 -2.6167067,7.2583 -4.1799547,4.4234 z"
         inkscape:connector-curvature="0" />
      <path
         id="path36"
         d="m -6.3619033,1080.3264 c -3.306421,-3.2212 2.700774,-7.5166 4.298418,-4.6043 2.98233798,3.4132 -2.703293,7.5068 -4.298418,4.6043 z"
         inkscape:connector-curvature="0" />
      <path
         id="path38"
         d="m -12.142073,1061.7825 c -3.53133,-3.3554 2.8160887,-7.8793 4.4518447,-4.8768 3.157913,3.5797 -2.8145447,7.8639 -4.4518447,4.8768 z"
         inkscape:connector-curvature="0" />
      <path
         id="path40"
         d="m -20.23135,1063.9564 c -2.504424,-2.5703 2.269502,-6.0145 3.627758,-3.5192 2.077961,2.785 -2.265324,6.0222 -3.627758,3.5192 z"
         inkscape:connector-curvature="0" />
      <path
         id="path42"
         d="m -26.490809,1056.1099 c -2.184747,-2.394 2.120251,-5.4729 3.399418,-3.1391 1.840176,2.5401 -2.101194,5.4935 -3.399418,3.1391 z"
         inkscape:connector-curvature="0" />
      <path
         id="path44"
         d="m -27.200154,1047.497 c 0.979406,1.9833 -1.724803,4.3422 -2.861815,2.2552 -1.534633,-1.9311 1.786668,-4.2168 2.861815,-2.2552 z"
         inkscape:connector-curvature="0" />
      <path
         id="path46"
         d="m -18.755776,1052.7003 c -2.630212,-2.6287 2.303724,-6.1986 3.703644,-3.6444 2.139536,2.8475 -2.29228,6.204 -3.703644,3.6444 z"
         inkscape:connector-curvature="0" />
      <path
         id="path48"
         d="m -20.991628,1042.2586 c 1.946677,2.6427 -2.165805,5.7087 -3.492643,3.2879 -2.301664,-2.4625 2.165805,-5.6941 3.492643,-3.2879 z"
         inkscape:connector-curvature="0" />
      <path
         id="path50"
         d="m -5.2171663,1045.1837 c 3.369433,4.0293 -3.042255,8.7044 -4.8126117,5.4744 -4.070591,-3.5816 3.0230267,-8.7393 4.8126117,-5.4744 z"
         inkscape:connector-curvature="0" />
      <path
         id="path52"
         d="m 13.69873,1074.6751 c -4.8486103,-3.9363 3.354782,-9.9561 5.339916,-6.3375 3.789372,4.6206 -3.388717,9.8974 -5.339916,6.3375 z"
         inkscape:connector-curvature="0" />
      <path
         id="path54"
         d="m 22.367042,1079.7714 c -3.518051,-3.3506 2.800068,-7.8874 4.452705,-4.8723 3.178055,3.5864 -2.828624,7.8532 -4.452705,4.8723 z"
         inkscape:connector-curvature="0" />
      <path
         id="path56"
         d="m 33.610168,1081.9149 c 3.008034,3.4322 -2.713593,7.5453 -4.304481,4.6428 -3.327538,-3.2255 2.702033,-7.5664 4.304481,-4.6428 z"
         inkscape:connector-curvature="0" />
      <path
         id="path58"
         d="m 37.190086,1089.6149 c 0.957489,1.9553 -1.684174,4.2478 -2.823074,2.1841 -1.467904,-1.9032 1.775337,-4.1055 2.823074,-2.1841 z"
         inkscape:connector-curvature="0" />
      <path
         id="path60"
         d="m -22.100026,1027.2571 c -0.762509,-0.2444 1.048595,-3.665 2.311051,-1.3456 0.05723,1.0802 -1.185312,3.3993 -2.311051,1.3456 z"
         inkscape:connector-curvature="0" />
      <path
         id="path62"
         d="m -27.775698,1038.3619 c -0.469273,-1.5831 1.469107,-4.0306 2.635305,-1.8882 0.662074,1.7131 -1.539269,3.8879 -2.635305,1.8882 z"
         inkscape:connector-curvature="0" />
      <path
         id="path64"
         d="m -12.198502,1037.8159 c 2.6695287,3.1104 -2.517128,6.8637 -4.013189,4.1342 -2.928889,-2.9529 2.51255,-6.8721 4.013189,-4.1342 z"
         inkscape:connector-curvature="0" />
      <path
         id="path66"
         d="m -21.273878,1034.7194 c -2.179654,-2.3946 2.11985,-5.4712 3.397987,-3.1393 1.857229,2.5493 -2.118935,5.4891 -3.397987,3.1393 z"
         inkscape:connector-curvature="0" />
      <path
         id="path68"
         d="m -2.4976773,1035.1231 c 2.98668598,3.4155 -2.709702,7.5132 -4.294869,4.6212 -3.3113417,-3.2159 2.704666,-7.5224 4.294869,-4.6212 z"
         inkscape:connector-curvature="0" />
      <path
         id="path70"
         d="m -0.14845732,1048.0007 c -4.39959498,-3.7934 3.18429902,-9.3042 5.06562002,-5.8719 3.595311,4.302 -3.210163,9.257 -5.06562002,5.8719 z"
         inkscape:connector-curvature="0" />
      <path
         id="path72"
         d="m 13.118778,1049.5815 c 3.766826,4.5585 -3.3514033,9.7621 -5.2813693,6.2411 -4.76065,-3.8916 3.3121463,-9.8338 5.2813693,-6.2411 z"
         inkscape:connector-curvature="0" />
      <path
         id="path74"
         d="m 21.64236,1057.4785 c 3.947952,4.8061 -3.504948,10.2853 -5.513031,6.6185 -5.085476,-4.0753 3.458592,-10.3667 5.513031,-6.6185 z"
         inkscape:connector-curvature="0" />
      <path
         id="path76"
         d="m 30.054176,1065.3363 c 3.443367,4.1211 -3.097595,8.8989 -4.905152,5.607 -4.184131,-3.6615 3.086091,-8.9258 4.905152,-5.607 z"
         inkscape:connector-curvature="0" />
      <path
         id="path78"
         d="m 37.563102,1072.7829 c 3.155625,3.5674 -2.800697,7.855 -4.443664,4.8602 -3.513764,-3.3485 2.796005,-7.8662 4.443664,-4.8602 z"
         inkscape:connector-curvature="0" />
      <path
         id="path80"
         d="m 42.987136,1080.9099 c 1.445816,2.4932 -2.025192,5.4992 -3.354889,3.0585 -2.300979,-2.1713 2.07206,-5.413 3.354889,-3.0585 z"
         inkscape:connector-curvature="0" />
      <path
         id="path82"
         d="m 51.240829,1076.0559 c 1.456123,2.5072 -2.042244,5.5245 -3.36599,3.08 -2.322845,-2.1737 2.064392,-5.4525 3.36599,-3.08 z"
         inkscape:connector-curvature="0" />
      <path
         id="path84"
         d="m 42.871254,1073.8574 c -2.932206,-2.9526 2.504768,-6.8591 4.002204,-4.1247 2.67067,3.109 -2.508606,6.8496 -4.002204,4.1247 z"
         inkscape:connector-curvature="0" />
      <path
         id="path86"
         d="m 41.282997,1062.3051 c 3.220062,3.6381 -2.881615,7.9494 -4.507241,4.9448 -3.5774,-3.3907 2.830681,-8.0009 4.507241,-4.9448 z"
         inkscape:connector-curvature="0" />
      <path
         id="path88"
         d="m 32.655029,1054.8143 c 3.577225,4.306 -3.230652,9.2138 -5.055775,5.8435 -4.38718,-3.788 3.182751,-9.2638 5.055775,-5.8435 z"
         inkscape:connector-curvature="0" />
      <path
         id="path90"
         d="m 23.483852,1047.1378 c 3.932957,4.7859 -3.50964,10.1877 -5.475029,6.5584 -5.0243,-4.0468 3.443939,-10.2673 5.475029,-6.5584 z"
         inkscape:connector-curvature="0" />
      <path
         id="path92"
         d="m 16.076339,1037.7508 c 1.719937,3.1505 2.001385,3.8636 0.117604,6.9685 -0.778363,1.283 -5.190777,1.9378 -6.062481,0.3379 -5.6360133,-4.436 3.747997,-11.3146 5.944877,-7.3064 z"
         inkscape:connector-curvature="0" />
      <path
         id="path94"
         d="m 6.5739237,1033.5909 c 2.988804,3.4262 -2.709762,7.5665 -4.31633,4.653 -3.356098,-3.2459 2.737973,-7.5703 4.31633,-4.653 z"
         inkscape:connector-curvature="0" />
      <path
         id="path96"
         d="m -12.240336,1031.8802 c -2.72172,-2.8232 2.4089107,-6.5043 3.8510077,-3.8732 2.490344,2.9505 -2.4096547,6.5029 -3.8510077,3.8732 z"
         inkscape:connector-curvature="0" />
      <path
         id="path98"
         d="m -16.028962,1024.5845 c -1.914802,-2.0596 1.940726,-4.8101 3.112532,-2.6573 1.207861,2.2379 -1.876574,4.9279 -3.112532,2.6573 z"
         inkscape:connector-curvature="0" />
      <path
         id="path100"
         d="m 2.7703577,1025.5937 c 3.30608,3.9585 -2.99469702,8.5638 -4.750804,5.3599 -3.965693,-3.5299 2.986171,-8.5793 4.750804,-5.3599 z"
         inkscape:connector-curvature="0" />
      <path
         id="path102"
         d="m 9.3701547,1033.0653 c -4.920033,-3.9935 3.3978733,-10.1169 5.4121933,-6.4418 3.870121,4.7177 -3.464657,10.038 -5.4121933,6.4418 z"
         inkscape:connector-curvature="0" />
      <path
         id="path104"
         d="m 25.663619,1038.5557 c 3.161293,3.7808 -2.897697,8.2138 -4.59663,5.1142 -3.784965,-3.402 2.880471,-8.2452 4.59663,-5.1142 z"
         inkscape:connector-curvature="0" />
      <path
         id="path106"
         d="m 19.835033,1034.3253 c -4.46146,-3.8366 3.228535,-9.3857 5.107284,-5.9373 3.636456,4.3622 -3.265964,9.3374 -5.107284,5.9373 z"
         inkscape:connector-curvature="0" />
      <path
         id="path108"
         d="m 34.294448,1044.2291 c 3.333031,4.0065 -3.065658,8.559 -4.770439,5.3786 -4.000599,-3.5492 3.008324,-8.61 4.770439,-5.3786 z"
         inkscape:connector-curvature="0" />
      <path
         id="path110"
         d="m 38.48648,1056.7606 c -4.242164,-3.7019 3.116425,-8.9996 4.938172,-5.6529 3.465171,4.1718 -3.131302,8.9694 -4.938172,5.6529 z"
         inkscape:connector-curvature="0" />
      <path
         id="path112"
         d="m 50.963561,1059.1259 c 2.674622,3.1164 -2.51078,6.8655 -4.007354,4.135 -2.94365,-2.9619 2.518791,-6.8671 4.007354,-4.135 z"
         inkscape:connector-curvature="0" />
      <path
         id="path114"
         d="m 54.980072,1066.6074 c 1.835197,2.5389 -2.103943,5.483 -3.391289,3.1343 -2.181603,-2.3929 2.123054,-5.4621 3.391289,-3.1343 z"
         inkscape:connector-curvature="0" />
      <path
         id="path116"
         d="m 52.985725,1047.1028 c 3.330627,4.0058 -3.052498,8.5989 -4.777245,5.4007 -4.022011,-3.5577 3.009232,-8.6263 4.777245,-5.4007 z"
         inkscape:connector-curvature="0" />
      <path
         id="path118"
         d="m 54.454261,1057.4829 c -0.861343,-0.1747 1.058495,-4.0654 2.429627,-1.5488 0.09563,1.1154 -1.245232,3.7492 -2.429627,1.5488 z"
         inkscape:connector-curvature="0" />
      <path
         id="path120"
         d="m 50.306297,1041.9505 c -3.02211,-3.0109 2.54837,-7.0294 4.072708,-4.2483 2.781692,3.2052 -2.59639,7.0077 -4.072708,4.2483 z"
         inkscape:connector-curvature="0" />
      <path
         id="path122"
         d="m 39.028488,1045.9154 c -4.922264,-3.9907 3.422706,-10.0667 5.394622,-6.422 3.862107,4.7143 -3.474845,9.9852 -5.394622,6.422 z"
         inkscape:connector-curvature="0" />
      <path
         id="path124"
         d="m 29.831672,1038.8643 c -3.801674,-3.4161 2.914864,-8.2347 4.605393,-5.1129 3.174164,3.8085 -2.933869,8.1995 -4.605393,5.1129 z"
         inkscape:connector-curvature="0" />
      <path
         id="path126"
         d="m 27.921333,1028.6219 c -4.246052,-3.692 3.104408,-9.0388 4.943207,-5.6841 3.495224,4.1776 -3.144921,8.9849 -4.943207,5.6841 z"
         inkscape:connector-curvature="0" />
      <path
         id="path128"
         d="m 38.622741,1034.2434 c -3.317184,-3.2291 2.716225,-7.5445 4.304764,-4.6287 3.017937,3.4296 -2.715767,7.5277 -4.304764,4.6287 z"
         inkscape:connector-curvature="0" />
      <path
         id="path130"
         d="m 48.07685,1034.0323 c -2.174499,-2.1038 2.024453,-5.1984 3.266991,-2.906 1.357346,2.4022 -1.986847,5.2798 -3.266991,2.906 z"
         inkscape:connector-curvature="0" />
      <path
         id="path132"
         d="m 44.758468,1026.9514 c -0.844231,-0.1755 1.05941,-4.0325 2.409538,-1.5218 0.0914,1.1103 -1.222908,3.702 -2.409538,1.5218 z"
         inkscape:connector-curvature="0" />
      <path
         id="path134"
         d="m 37.017768,1024.4319 c -3.785766,-3.4099 2.900162,-8.2413 4.609917,-5.1191 3.157112,3.8023 -2.920822,8.2193 -4.609917,5.1191 z"
         inkscape:connector-curvature="0" />
      <path
         id="path136"
         d="m 26.948856,1017.7386 c -3.161636,-3.095 2.628666,-7.2172 4.158321,-4.39 2.859986,3.2773 -2.622719,7.2086 -4.158321,4.39 z"
         inkscape:connector-curvature="0" />
      <path
         id="path138"
         d="m 16.602436,1024.3229 c -4.018227,-3.5535 3.014732,-8.6455 4.783027,-5.3999 3.308884,3.9782 -3.026119,8.6054 -4.783027,5.3999 z"
         inkscape:connector-curvature="0" />
      <path
         id="path140"
         d="m 17.530567,1015.32 c -2.660546,-2.781 2.37772,-6.3934 3.801674,-3.7955 2.456981,2.9108 -2.401528,6.3811 -3.801674,3.7955 z"
         inkscape:connector-curvature="0" />
      <path
         id="path144"
         d="m 5.7548137,1023.2509 c -3.927864,-3.4971 2.967575,-8.4718 4.7022783,-5.2879 3.26001,3.9142 -2.9786763,8.4516 -4.7022783,5.2879 z"
         inkscape:connector-curvature="0" />
      <path
         id="path146"
         d="m -5.2417153,1022.9068 c -2.39592,-2.5074 2.212788,-5.8245 3.542374,-3.3842 1.99274398,2.7029 -2.217713,5.8302 -3.542374,3.3842 z"
         inkscape:connector-curvature="0" />
      <path
         id="path148"
         d="m -7.7570713,1016.434 c -1.770243,-1.9752 1.87789,-4.5335 2.988691,-2.4698 1.110344,2.1273 -1.815683,4.651 -2.988691,2.4698 z"
         inkscape:connector-curvature="0" />
      <path
         id="path150"
         d="m 1.4887877,1015.1973 c -2.30881902,-2.4726 2.191902,-5.6943 3.494305,-3.2892 1.954918,2.6619 -2.207012,5.6976 -3.494305,3.2892 z"
         inkscape:connector-curvature="0" />
    </g>
  </g>
</svg>
