<?xml version="1.0" encoding="UTF-8" standalone="no"?>
<svg
   xmlns:dc="http://purl.org/dc/elements/1.1/"
   xmlns:cc="http://creativecommons.org/ns#"
   xmlns:rdf="http://www.w3.org/1999/02/22-rdf-syntax-ns#"
   xmlns:svg="http://www.w3.org/2000/svg"
   xmlns="http://www.w3.org/2000/svg"
   xmlns:sodipodi="http://sodipodi.sourceforge.net/DTD/sodipodi-0.dtd"
   xmlns:inkscape="http://www.inkscape.org/namespaces/inkscape"
   width="48"
   height="48"
   id="svg6222"
   version="1.1"
   inkscape:version="0.91 r13725"
   sodipodi:docname="cam-router.svg">
  <metadata
     id="metadata6236">
    <rdf:RDF>
      <cc:Work
         rdf:about="">
        <dc:format>image/svg+xml</dc:format>
        <dc:type
           rdf:resource="http://purl.org/dc/dcmitype/StillImage" />
        <dc:title></dc:title>
      </cc:Work>
    </rdf:RDF>
  </metadata>
  <defs
     id="defs6234" />
  <sodipodi:namedview
     pagecolor="#ffffff"
     bordercolor="#666666"
     borderopacity="1"
     objecttolerance="10"
     gridtolerance="10"
     guidetolerance="10"
     inkscape:pageopacity="0"
     inkscape:pageshadow="2"
     inkscape:window-width="1792"
     inkscape:window-height="1071"
     id="namedview6232"
     showgrid="false"
     inkscape:zoom="18.020833"
     inkscape:cx="24"
     inkscape:cy="24"
     inkscape:window-x="0"
     inkscape:window-y="0"
     inkscape:window-maximized="1"
     inkscape:current-layer="svg6222" />
  <path
     d="m -1,27 22,0 0,22 -22,0 z"
     id="path6224"
     inkscape:connector-curvature="0"
     style="fill:none" />
  <g
     stroke="null"
     id="g6226"
     transform="matrix(2.3726016,0,0,2.3726016,0.273984,0.273984)">
    <path
       d="m 18.43,0.295 -11.786,0 C 5.945,0.295 5.38,0.86 5.38,1.558 l 0,3.832 -3.784,0 c -0.712,0 -1.29,0.58 -1.29,1.29 l 0,11.735 c 0,0.712 0.578,1.29 1.29,1.29 l 11.734,0 c 0.712,0 1.29,-0.578 1.29,-1.29 l 0,-3.805 3.81,0 c 0.7,0 1.264,-0.566 1.264,-1.264 l 0,-11.788 c 0,-0.697 -0.566,-1.263 -1.263,-1.263 z M 17.364,1.57 13.526,5.407 C 13.462,5.397 13.398,5.391 13.331,5.391 l -2.077,0 3.823,-3.82 2.287,0 z m -10.71,0 2.218,0 -2.217,2.215 0,-2.215 z m 4.176,0 2.287,0 -3.822,3.82 -2.288,0 3.822,-3.82 z m -8.524,16.86 -0.726,0 0,-4.284 c 0.803,0.986 1.585,2.036 0.727,4.285 z m 2.387,0 -1.305,0 C 4.248,15.805 3.135,14.44 2.303,13.42 1.995,13.042 1.729,12.716 1.58,12.38 l 0,-5.716 2.768,0 C 4.268,7.554 4.025,8.1 3.788,8.63 3.53,9.21 3.263,9.807 3.263,10.727 c 0,1.18 0.68,1.972 1.28,2.67 0.426,0.496 0.83,0.964 0.952,1.518 0.21,0.94 -0.395,2.6 -0.8,3.516 z m 3.09,0 -1.98,0 C 6.209,17.44 6.743,15.833 6.489,14.693 6.309,13.89 5.804,13.303 5.315,12.733 4.76,12.087 4.281,11.53 4.281,10.727 c 0,-0.703 0.193,-1.134 0.437,-1.68 0.267,-0.6 0.566,-1.273 0.65,-2.382 l 1.793,0 c 0.128,1.638 0.733,2.576 1.19,3.282 0.28,0.435 0.485,0.75 0.485,1.077 0,0.38 -0.138,0.78 -0.312,1.288 -0.317,0.923 -0.75,2.186 -0.75,4.36 0,0.777 0.002,1.367 0.007,1.76 z m 5.562,0 -0.963,0 0.074,-0.027 C 11.876,16.87 11.81,16.426 11.81,14.08 c 0,-0.51 0.136,-0.867 0.413,-1.094 0.302,-0.248 0.754,-0.316 1.124,-0.318 l 0,5.763 z m 0,-6.78 c -0.523,0.002 -1.223,0.103 -1.765,0.544 -0.523,0.426 -0.79,1.06 -0.79,1.886 0,2.288 0.077,2.94 0.59,4.35 l -2.578,0 C 8.798,18.104 8.795,17.565 8.795,16.672 c 0,-2.004 0.385,-3.127 0.695,-4.03 0.197,-0.573 0.367,-1.068 0.367,-1.618 0,-0.627 -0.315,-1.114 -0.65,-1.63 -0.406,-0.63 -0.9,-1.395 -1.02,-2.73 l 2.178,0 c 0.194,0.992 0.843,2.915 2.98,3.85 l 0,1.136 z m 0,-2.276 c -1.278,-0.742 -1.76,-1.957 -1.94,-2.71 l 1.94,0 0,2.71 z m 5.074,3.96 -2.372,0 2.372,-2.37 0,2.37 z m 0,-4.33 -3.8,3.8 0,-2.287 3.8,-3.8 0,2.288 z m 0,-4.245 -3.8,3.798 0,-1.877 c 0,-0.123 -0.018,-0.244 -0.05,-0.358 l 3.85,-3.85 0,2.287 z"
       id="path6228"
       inkscape:connector-curvature="0" />
    <path
       d="M 6.47,9.658 C 6.43,9.658 6.39,9.66 6.35,9.666 5.8,9.744 5.444,10.318 5.537,10.972 5.622,11.572 6.052,12.008 6.56,12.008 6.6,12.008 6.64,12.005 6.68,12 7.23,11.922 7.587,11.348 7.494,10.694 7.409,10.094 6.979,9.658 6.47,9.658 Z"
       id="path6230"
       inkscape:connector-curvature="0" />
  </g>
</svg>
