<?xml version="1.0" encoding="UTF-8" standalone="no"?>
<svg
   xmlns:dc="http://purl.org/dc/elements/1.1/"
   xmlns:cc="http://creativecommons.org/ns#"
   xmlns:rdf="http://www.w3.org/1999/02/22-rdf-syntax-ns#"
   xmlns:svg="http://www.w3.org/2000/svg"
   xmlns="http://www.w3.org/2000/svg"
   xmlns:sodipodi="http://sodipodi.sourceforge.net/DTD/sodipodi-0.dtd"
   xmlns:inkscape="http://www.inkscape.org/namespaces/inkscape"
   width="48"
   height="48"
   id="svg3057"
   version="1.1"
   inkscape:version="0.91 r13725"
   sodipodi:docname="cam-change.svg">
  <defs
     id="defs3059" />
  <sodipodi:namedview
     id="base"
     pagecolor="#ffffff"
     bordercolor="#666666"
     borderopacity="1.0"
     inkscape:pageopacity="0.0"
     inkscape:pageshadow="2"
     inkscape:zoom="18.020833"
     inkscape:cx="24"
     inkscape:cy="24"
     inkscape:current-layer="layer1"
     showgrid="true"
     inkscape:grid-bbox="true"
     inkscape:document-units="px"
     inkscape:window-width="1792"
     inkscape:window-height="1071"
     inkscape:window-x="0"
     inkscape:window-y="0"
     inkscape:window-maximized="1" />
  <metadata
     id="metadata3062">
    <rdf:RDF>
      <cc:Work
         rdf:about="">
        <dc:format>image/svg+xml</dc:format>
        <dc:type
           rdf:resource="http://purl.org/dc/dcmitype/StillImage" />
        <dc:title></dc:title>
      </cc:Work>
    </rdf:RDF>
  </metadata>
  <g
     id="layer1"
     inkscape:label="Layer 1"
     inkscape:groupmode="layer"
     transform="translate(0,32)">
    <g
       transform="matrix(0.22178936,0,0,0.2317684,-7.2543348,-40.848535)"
       id="g3254">
      <path
         inkscape:connector-curvature="0"
         d="m 221.979,202.479 c 0,8.444 -5,15.847 -10.703,15.847 l -140.714,0 c -5.702,0 -10.703,-7.402 -10.703,-15.847 l 0,-65.566 39.788,0 -20.715,20.714 c -0.864,0.863 -1.122,2.162 -0.655,3.291 0.466,1.128 1.567,1.862 2.789,1.862 l 22.471,0 c 0.802,0 1.57,-0.318 2.136,-0.885 l 33.977,-34.021 c 1.176,-1.179 1.178,-3.086 0.001,-4.266 L 105.675,89.56 c -0.568,-0.569 -1.335,-0.887 -2.138,-0.887 l -22.516,0 c -1.221,0 -2.322,0.735 -2.789,1.863 -0.469,1.129 -0.211,2.426 0.654,3.29 l 20.574,20.56 -62.243,0 0,88.093 c 0,21.224 14.958,38.488 33.345,38.488 l 140.714,0 c 18.386,0 33.345,-17.265 33.345,-38.488 l -22.642,0 z"
         id="path3256" />
      <path
         inkscape:connector-curvature="0"
         d="m 211.276,42.493 -140.714,0 c -18.387,0 -33.345,17.264 -33.345,38.488 l 22.642,0 c 0,-8.443 5,-15.846 10.703,-15.846 l 140.714,0 c 5.701,0 10.703,7.403 10.703,15.846 l 0,66.195 -39.985,0 20.573,-20.561 c 0.862,-0.861 1.122,-2.161 0.654,-3.29 -0.467,-1.127 -1.568,-1.863 -2.789,-1.863 l -22.517,0 c -0.802,0 -1.569,0.318 -2.137,0.888 L 141.8,156.4 c -1.176,1.178 -1.175,3.086 0,4.266 l 33.979,34.02 c 0.566,0.566 1.334,0.887 2.136,0.887 l 22.471,0 c 1.221,0 2.322,-0.734 2.789,-1.863 0.469,-1.13 0.211,-2.425 -0.654,-3.29 l -20.715,-20.716 40.173,0 3.368,0 19.273,0 0,-88.724 C 244.621,59.76 229.662,42.493 211.276,42.493 Z"
         id="path3258" />
    </g>
  </g>
</svg>
