<?xml version="1.0" encoding="UTF-8" standalone="no"?>
<svg
   xmlns:dc="http://purl.org/dc/elements/1.1/"
   xmlns:cc="http://creativecommons.org/ns#"
   xmlns:rdf="http://www.w3.org/1999/02/22-rdf-syntax-ns#"
   xmlns:svg="http://www.w3.org/2000/svg"
   xmlns="http://www.w3.org/2000/svg"
   xmlns:sodipodi="http://sodipodi.sourceforge.net/DTD/sodipodi-0.dtd"
   xmlns:inkscape="http://www.inkscape.org/namespaces/inkscape"
   width="48"
   height="48"
   id="svg7428"
   version="1.1"
   inkscape:version="0.91 r13725"
   sodipodi:docname="cam-router-assistant.svg">
  <metadata
     id="metadata7438">
    <rdf:RDF>
      <cc:Work
         rdf:about="">
        <dc:format>image/svg+xml</dc:format>
        <dc:type
           rdf:resource="http://purl.org/dc/dcmitype/StillImage" />
        <dc:title></dc:title>
      </cc:Work>
    </rdf:RDF>
  </metadata>
  <defs
     id="defs7436" />
  <sodipodi:namedview
     pagecolor="#ffffff"
     bordercolor="#666666"
     borderopacity="1"
     objecttolerance="10"
     gridtolerance="10"
     guidetolerance="10"
     inkscape:pageopacity="0"
     inkscape:pageshadow="2"
     inkscape:window-width="1792"
     inkscape:window-height="1071"
     id="namedview7434"
     showgrid="false"
     inkscape:zoom="18.020833"
     inkscape:cx="24"
     inkscape:cy="24"
     inkscape:window-x="0"
     inkscape:window-y="0"
     inkscape:window-maximized="1"
     inkscape:current-layer="svg7428" />
  <path
     d="m -1,31 18,0 0,18 -18,0 z"
     id="path7430"
     inkscape:connector-curvature="0"
     style="fill:none" />
  <path
     stroke="null"
     d="m 19.136017,44.440825 1.036078,0 C 20.30238,45.873963 21.512172,47 22.97633,47 l 2.04734,0 c 1.46726,0 2.677052,-1.126037 2.807337,-2.559175 l 1.036078,0 c 1.504484,0 2.739092,-1.11673 2.810439,-2.605705 l -15.355048,0 c 0.06825,1.488975 1.302853,2.605705 2.810439,2.605705 z m -2.816643,-5.161777 15.361252,0 0,-2.562277 -15.361252,0 0,2.562277 z M 24,1 C 14.808686,1 7.354508,8.4448715 7.354508,17.636186 c 0,6.414997 3.638681,11.986243 8.964866,14.759458 l 0,1.758851 15.361252,0 0,-1.758851 C 37.006811,29.622429 40.645492,24.051183 40.645492,17.629982 40.645492,8.4572797 33.191314,1 24,1 Z m 7.308382,18.044507 -7.494504,7.491402 -7.491402,-7.491402 c -0.480814,-0.483916 -0.480814,-1.271832 0,-1.752646 l 0.05584,-0.05584 c 0.483916,-0.483917 1.271832,-0.483917 1.755749,0 l 5.676714,5.676715 5.682919,-5.676715 c 0.483916,-0.483917 1.271832,-0.483917 1.752647,0 l 0.06204,0.05584 c 0.480815,0.480814 0.480815,1.271832 0,1.752646 z"
     id="path7432"
     inkscape:connector-curvature="0" />
</svg>
