<?xml version="1.0" encoding="UTF-8" standalone="no"?>
<!-- Generator: Adobe Illustrator 15.1.0, SVG Export Plug-In . SVG Version: 6.00 Build 0)  -->

<svg
   xmlns:dc="http://purl.org/dc/elements/1.1/"
   xmlns:cc="http://creativecommons.org/ns#"
   xmlns:rdf="http://www.w3.org/1999/02/22-rdf-syntax-ns#"
   xmlns:svg="http://www.w3.org/2000/svg"
   xmlns="http://www.w3.org/2000/svg"
   xmlns:sodipodi="http://sodipodi.sourceforge.net/DTD/sodipodi-0.dtd"
   xmlns:inkscape="http://www.inkscape.org/namespaces/inkscape"
   version="1.1"
   id="Layer_1"
   x="0px"
   y="0px"
   width="48"
   height="48"
   viewBox="0 0 48 48"
   enable-background="new 0 0 16 16"
   xml:space="preserve"
   inkscape:version="0.91 r13725"
   sodipodi:docname="cam-milling-cut-corners.svg"><metadata
     id="metadata9843"><rdf:RDF><cc:Work
         rdf:about=""><dc:format>image/svg+xml</dc:format><dc:type
           rdf:resource="http://purl.org/dc/dcmitype/StillImage" /><dc:title></dc:title></cc:Work></rdf:RDF></metadata><defs
     id="defs9841" /><sodipodi:namedview
     pagecolor="#ffffff"
     bordercolor="#666666"
     borderopacity="1"
     objecttolerance="10"
     gridtolerance="10"
     guidetolerance="10"
     inkscape:pageopacity="0"
     inkscape:pageshadow="2"
     inkscape:window-width="1792"
     inkscape:window-height="1071"
     id="namedview9839"
     showgrid="false"
     inkscape:zoom="18.020833"
     inkscape:cx="24"
     inkscape:cy="24"
     inkscape:window-x="0"
     inkscape:window-y="0"
     inkscape:window-maximized="1"
     inkscape:current-layer="Layer_1" /><path
     d="m 18.5996,38.296801 c 0,-0.352667 0.1656,-0.69 0.447733,-0.904668 0.282134,-0.220799 0.647067,-0.300533 0.990534,-0.202399 l 7.0656,1.846133 0,-9.6876 -7.050267,1.947334 c -0.343467,0.1012 -0.711467,0.03067 -0.999733,-0.187067 -0.2852,-0.2208 -0.4508,-0.558133 -0.4508,-0.923067 l 0,-12.542667 c 0,-0.3588 0.1656,-0.693066 0.447733,-0.907733 0.282133,-0.217733 0.647067,-0.291333 0.990533,-0.199333 l 7.0656,1.8492 0,-9.7090672 L 20.044,10.574134 c -0.343467,0.092 -0.711467,0.0184 -0.9936,-0.196267 C 18.768267,10.1632 18.5996,9.8197335 18.5996,9.4640002 l 0,-8.4149337 -11.0952,0 C 3.928667,1.0490665 1,3.9777335 1,7.5534668 L 1,40.440401 c 0,3.581865 2.928667,6.510533 6.5044,6.510533 l 11.0952,0 0,-8.654133 z m 21.896,-37.2477345 -19.599067,0 0,6.9184003 7.0564,-1.8952 c 0.346534,-0.092 0.711467,-0.021467 0.996667,0.1962667 0.282133,0.2177333 0.447733,0.552 0.447733,0.9108 l 0,12.6868005 c 0,0.355733 -0.168666,0.693066 -0.447733,0.907733 -0.279067,0.2208 -0.644,0.291333 -0.987467,0.205467 l -7.068666,-1.852267 0,9.555733 7.050266,-1.953466 c 0.3496,-0.09507 0.7176,-0.02147 0.999734,0.193199 0.288266,0.214667 0.453866,0.558133 0.453866,0.913867 l 0,12.689866 c 0,0.352668 -0.168666,0.690001 -0.447733,0.904667 -0.279067,0.2208 -0.644,0.2944 -0.987467,0.2024 l -7.068666,-1.846133 0,7.163733 19.602133,0 C 44.0744,46.950933 47,44.022266 47,40.4404 L 47,7.5534668 C 47,3.9777335 44.0744,1.0490665 40.4956,1.0490665 Z"
     id="path9837"
     inkscape:connector-curvature="0"
     style="fill:#010101" /></svg>