<?xml version="1.0" encoding="UTF-8" standalone="no"?>
<svg
   xmlns:dc="http://purl.org/dc/elements/1.1/"
   xmlns:cc="http://creativecommons.org/ns#"
   xmlns:rdf="http://www.w3.org/1999/02/22-rdf-syntax-ns#"
   xmlns:svg="http://www.w3.org/2000/svg"
   xmlns="http://www.w3.org/2000/svg"
   xmlns:sodipodi="http://sodipodi.sourceforge.net/DTD/sodipodi-0.dtd"
   xmlns:inkscape="http://www.inkscape.org/namespaces/inkscape"
   width="48"
   height="48"
   id="svg5455"
   version="1.1"
   inkscape:version="0.91 r13725"
   sodipodi:docname="cam-workflow.svg">
  <metadata
     id="metadata5465">
    <rdf:RDF>
      <cc:Work
         rdf:about="">
        <dc:format>image/svg+xml</dc:format>
        <dc:type
           rdf:resource="http://purl.org/dc/dcmitype/StillImage" />
        <dc:title></dc:title>
      </cc:Work>
    </rdf:RDF>
  </metadata>
  <defs
     id="defs5463" />
  <sodipodi:namedview
     pagecolor="#ffffff"
     bordercolor="#666666"
     borderopacity="1"
     objecttolerance="10"
     gridtolerance="10"
     guidetolerance="10"
     inkscape:pageopacity="0"
     inkscape:pageshadow="2"
     inkscape:window-width="1792"
     inkscape:window-height="1071"
     id="namedview5461"
     showgrid="false"
     inkscape:zoom="18.020833"
     inkscape:cx="24"
     inkscape:cy="24"
     inkscape:window-x="0"
     inkscape:window-y="0"
     inkscape:window-maximized="1"
     inkscape:current-layer="svg5455" />
  <g
     id="g5457"
     style="fill:#010101"
     transform="matrix(3.2857143,0,0,3.2857143,-2.2857144,-2.2857144)">
    <path
       d="m 11.5,2.75 -1.75,0 C 9.75,1.783 8.966,1 8,1 7.033,1 6.25,1.783 6.25,2.75 l -1.75,0 0,1.75 7,0 0,-1.75 z M 8,3.625 C 7.517,3.625 7.125,3.233 7.125,2.75 7.125,2.267 7.517,1.875 8,1.875 8.483,1.875 8.875,2.267 8.875,2.75 8.875,3.233 8.483,3.625 8,3.625 Z m 4.375,-0.875 0,2.625 -8.75,0 0,-2.625 -1.75,0 0,12.25 12.25,0 0,-12.25 -1.75,0 z M 7.595,13.13 6.975,12.512 4.5,10.037 5.737,8.8 l 1.856,1.856 3.53,-3.53 1.24,1.236 -4.77,4.77 z"
       id="path5459"
       inkscape:connector-curvature="0" />
  </g>
</svg>
