<?xml version="1.0" encoding="UTF-8" standalone="no"?>
<svg
   xmlns:dc="http://purl.org/dc/elements/1.1/"
   xmlns:cc="http://creativecommons.org/ns#"
   xmlns:rdf="http://www.w3.org/1999/02/22-rdf-syntax-ns#"
   xmlns:svg="http://www.w3.org/2000/svg"
   xmlns="http://www.w3.org/2000/svg"
   xmlns:sodipodi="http://sodipodi.sourceforge.net/DTD/sodipodi-0.dtd"
   xmlns:inkscape="http://www.inkscape.org/namespaces/inkscape"
   width="48"
   height="48"
   id="svg6827"
   version="1.1"
   inkscape:version="0.91 r13725"
   sodipodi:docname="cam-router-export.svg">
  <metadata
     id="metadata6845">
    <rdf:RDF>
      <cc:Work
         rdf:about="">
        <dc:format>image/svg+xml</dc:format>
        <dc:type
           rdf:resource="http://purl.org/dc/dcmitype/StillImage" />
        <dc:title></dc:title>
      </cc:Work>
    </rdf:RDF>
  </metadata>
  <defs
     id="defs6843" />
  <sodipodi:namedview
     pagecolor="#ffffff"
     bordercolor="#666666"
     borderopacity="1"
     objecttolerance="10"
     gridtolerance="10"
     guidetolerance="10"
     inkscape:pageopacity="0"
     inkscape:pageshadow="2"
     inkscape:window-width="1792"
     inkscape:window-height="1071"
     id="namedview6841"
     showgrid="false"
     inkscape:zoom="11.8"
     inkscape:cx="12.5"
     inkscape:cy="23.559322"
     inkscape:window-x="0"
     inkscape:window-y="0"
     inkscape:window-maximized="1"
     inkscape:current-layer="svg6827" />
  <path
     d="m -1,27 27,0 0,22 -27,0 z"
     id="path6829"
     inkscape:connector-curvature="0"
     style="fill:none" />
  <g
     stroke="null"
     id="g6831"
     transform="matrix(2.0419528,0,0,2.0419528,-1.52441,3.580472)">
    <path
       d="M 22.904,4 2.096,4 C 1.893,4 1.726,4.22 1.726,4.485 l 0,11.03 c 0,0.268 0.17,0.485 0.37,0.485 l 20.808,0 c 0.2,0 0.37,-0.22 0.37,-0.486 l 0,-11.03 C 23.274,4.224 23.108,4 22.904,4 Z"
       id="path6833"
       inkscape:connector-curvature="0"
       style="fill:#231f20" />
    <g
       id="g6835"
       style="fill:#ffffff">
      <path
         d="m 18.32,13.338 c -0.532,0.405 -1.208,0.605 -2.027,0.605 -1.01,0 -1.844,-0.346 -2.497,-1.037 -0.65,-0.692 -0.978,-1.64 -0.978,-2.838 0,-1.27 0.33,-2.254 0.985,-2.958 0.656,-0.702 1.517,-1.053 2.587,-1.053 0.93,0 1.69,0.275 2.272,0.83 0.35,0.327 0.608,0.794 0.782,1.402 L 17.918,8.657 C 17.83,8.257 17.64,7.945 17.352,7.719 17.068,7.489 16.718,7.379 16.31,7.379 c -0.566,0 -1.024,0.2 -1.377,0.61 -0.35,0.407 -0.527,1.062 -0.527,1.97 0,0.966 0.173,1.65 0.52,2.062 0.347,0.405 0.797,0.614 1.352,0.614 0.41,0 0.76,-0.124 1.058,-0.39 0.295,-0.26 0.507,-0.67 0.635,-1.228 l 1.493,0.474 c -0.23,0.824 -0.61,1.444 -1.143,1.846 z"
         id="path6837"
         inkscape:connector-curvature="0" />
      <path
         d="m 5.54,13.834 1.43,0 0,-4.97 3.078,4.97 1.544,0 0,-7.626 -1.432,0 0,5.095 -3.126,-5.095 -1.5,0 0,7.626 z"
         id="path6839"
         inkscape:connector-curvature="0" />
    </g>
  </g>
</svg>
