<?xml version="1.0" encoding="UTF-8" standalone="no"?>
<!-- Created with Inkscape (http://www.inkscape.org/) -->

<svg
   xmlns:dc="http://purl.org/dc/elements/1.1/"
   xmlns:cc="http://creativecommons.org/ns#"
   xmlns:rdf="http://www.w3.org/1999/02/22-rdf-syntax-ns#"
   xmlns:svg="http://www.w3.org/2000/svg"
   xmlns="http://www.w3.org/2000/svg"
   xmlns:sodipodi="http://sodipodi.sourceforge.net/DTD/sodipodi-0.dtd"
   xmlns:inkscape="http://www.inkscape.org/namespaces/inkscape"
   width="48"
   height="48"
   viewBox="0 0 48 48"
   id="svg4169"
   version="1.1"
   inkscape:version="0.91 r13725"
   sodipodi:docname="carving.svg">
  <defs
     id="defs4171" />
  <sodipodi:namedview
     id="base"
     pagecolor="#ffffff"
     bordercolor="#666666"
     borderopacity="1.0"
     inkscape:pageopacity="0.0"
     inkscape:pageshadow="2"
     inkscape:zoom="2.8"
     inkscape:cx="-128.54852"
     inkscape:cy="25.290018"
     inkscape:document-units="px"
     inkscape:current-layer="layer1"
     showgrid="false"
     units="px"
     inkscape:window-width="1792"
     inkscape:window-height="1071"
     inkscape:window-x="0"
     inkscape:window-y="0"
     inkscape:window-maximized="1" />
  <metadata
     id="metadata4174">
    <rdf:RDF>
      <cc:Work
         rdf:about="">
        <dc:format>image/svg+xml</dc:format>
        <dc:type
           rdf:resource="http://purl.org/dc/dcmitype/StillImage" />
        <dc:title></dc:title>
      </cc:Work>
    </rdf:RDF>
  </metadata>
  <g
     inkscape:label="Layer 1"
     inkscape:groupmode="layer"
     id="layer1"
     transform="translate(0,-1004.3622)">
    <path
       inkscape:connector-curvature="0"
       d="m 45.42771,1017.1127 c -2.737371,-5.4746 -10.615649,-7.8783 -16.090392,-6.5429 -5.47474,1.3355 -10.882704,0.8012 -15.022141,-5.2077 0,0 -1.669129,4.0057 0.934709,8.0118 0,0 -3.338252,0.2685 -5.007381,0.066 0,0 0.73396,4.6252 6.452352,7.1357 -1.750565,-0.091 -3.521075,0.1343 -5.317345,0.8758 -6.4762172,2.6708 -12.4850739,7.5443 -9.4138791,18.2941 0,0 2.2032508,7.4772 11.1497701,6.3426 8.946519,-1.1352 11.416832,0.8677 12.818899,5.2743 0,0 3.338251,-3.8723 0.467354,-7.7449 0,0 1.402066,-0.868 3.939137,-0.7343 0,0 -6.275918,-6.7432 -12.618599,-5.9423 -6.342682,0.8014 -11.2833002,3.0711 -12.4850688,1.0683 0,0 4.6067909,-5.6083 16.0903858,-1.6023 11.483592,4.0057 20.430116,0.6674 22.83366,-3.8726 2.40354,-4.5398 4.005902,-9.9478 1.268539,-15.4224 z m -12.524066,0 4.670426,-4.6706 c 0.349282,0.18 0.674953,0.3792 0.976897,0.5932 l -4.240952,4.2412 c -0.437685,-0.083 -0.905828,-0.1372 -1.406371,-0.1629 z m -0.551655,-0.029 c -0.865991,0 -1.618204,0.048 -2.285531,0.1457 l 5.547628,-5.5475 c 0.567955,0.1486 1.094258,0.3375 1.578821,0.5586 l -4.840918,4.8412 z m -2.974115,0.2685 c -1.210771,0.2543 -2.132961,0.6443 -2.999083,1.0286 l 7.057676,-7.0574 c 0.608904,0.046 1.182533,0.1314 1.721416,0.2485 l -5.780009,5.7803 z m 3.16417,1.0918 c 5.074146,0.7343 6.409449,4.7403 6.409449,4.7403 0,0 -2.804132,2.6706 -8.879755,1.1348 -2.616551,-0.6611 -5.245557,-1.7803 -7.90821,-2.6274 4.293831,-0.3231 6.344769,-3.8315 10.378516,-3.2477 z m 5.298179,0.3931 3.037679,-3.0377 c 0.219001,0.4823 0.376988,0.9843 0.473943,1.4966 l -2.509564,2.5097 c -0.281659,-0.3283 -0.613336,-0.6577 -1.002058,-0.9686 z m -0.322616,-0.2457 c -0.320591,-0.2286 -0.675539,-0.4437 -1.068373,-0.6352 l 3.564631,-3.5648 c 0.260944,0.3263 0.486397,0.6703 0.676784,1.0265 l -3.173042,3.1732 z m 3.908758,-0.8054 c 0.06166,0.548 0.05452,1.104 -0.01914,1.656 l -1.663133,1.6631 c -0.167887,-0.3048 -0.380959,-0.6428 -0.64763,-0.9891 l 2.330123,-2.33 z m -0.147601,2.3505 c -0.188029,0.7872 -0.515606,1.5561 -0.981269,2.2721 0,0 -0.09611,-0.3766 -0.361142,-0.9295 l 1.342411,-1.3426 z m -1.524843,-6.0517 -3.694315,3.6943 c -0.392371,-0.1657 -0.819631,-0.3077 -1.283271,-0.42 l 4.098163,-4.0983 c 0.323462,0.2571 0.616798,0.5323 0.879423,0.824 z m -6.853266,-2.7943 -7.526393,7.5263 c -0.805288,0.3335 -1.642785,0.6077 -2.704181,0.7003 l 8.178524,-8.1786 c 0.721768,-0.06 1.404875,-0.074 2.05205,-0.049 z m -2.683057,0.1114 -8.145601,8.1452 c -0.601994,0 -1.274467,-0.031 -2.046703,-0.1486 -0.188433,-0.029 -0.371508,-0.06 -0.550225,-0.091 l 7.408119,-7.4077 c 0.626645,-0.072 1.283145,-0.1658 1.971135,-0.2929 0.468007,-0.086 0.92167,-0.1514 1.363275,-0.2029 z m -13.419977,1.7015 1.967808,-1.9678 c 0.497022,0.1915 1.049985,0.3652 1.662346,0.5086 l -2.594185,2.594 c -0.228196,-0.2 -0.611387,-0.5705 -1.035969,-1.1351 z m -1.503974,-2.9023 0.693925,-0.6943 c 0.261776,0.2285 0.571938,0.464 0.937253,0.6997 l -1.163498,1.1634 c -0.166841,-0.3554 -0.324892,-0.7448 -0.46768,-1.1688 z m 0.655065,1.5477 1.327085,-1.3269 c 0.324371,0.1914 0.686624,0.3749 1.088258,0.5486 l -1.80324,1.8031 c -0.203812,-0.2974 -0.411549,-0.6388 -0.612103,-1.0248 z m 4.945245,0 c 0.533406,0.1057 1.108731,0.1886 1.729177,0.2428 l -6.346531,6.3464 c -0.481241,-0.22 -0.899895,-0.4612 -1.262798,-0.7075 l 5.880152,-5.8806 z m -5.203044,-2.5069 -0.533277,0.5332 c -0.145795,-0.4955 -0.269796,-1.0338 -0.360752,-1.6183 0,0 0.254933,0.4708 0.894029,1.0851 z m -3.162866,5.4752 c 0,0 0.7573,0.1571 1.922494,0.1714 l -1.130705,1.1303 c -0.40013,-0.5406 -0.624422,-1.0131 -0.791789,-1.302 z m 1.041705,1.6186 1.45344,-1.4532 c 0.736697,-0.029 1.589912,-0.1114 2.494436,-0.3234 l -2.833346,2.8331 c -0.463899,-0.3522 -0.826477,-0.7128 -1.11453,-1.0565 z m 3.100989,2.1737 6.481757,-6.482 c 0.935425,0.051 1.966698,0.037 3.10151,-0.063 l -7.252033,7.2523 c -0.901194,-0.1914 -1.669841,-0.434 -2.331234,-0.7077 z m -12.9156538,20.2493 c 0.2896806,0.3048 0.5826275,0.5583 0.8790934,0.768 l -0.3898945,0.3903 c -0.3511698,-0.6806 -0.4891989,-1.1583 -0.4891989,-1.1583 z m 3.6140484,4.576 c -0.3621209,-0.2229 -0.6908623,-0.462 -0.9893468,-0.7143 l 2.4196462,-2.4194 c 0.7792077,-0.1629 1.58528,-0.4269 2.422127,-0.7186 l -3.8524264,3.8523 z m 4.7260434,-4.1595 c 0.990983,-0.348 2.024795,-0.6983 3.107516,-0.9365 l -5.9370125,5.9369 c -0.5641781,-0.1686 -1.0746933,-0.3849 -1.5364413,-0.6343 l 4.3659378,-4.3661 z m 2.019123,5.1918 6.143625,-6.1438 c 0.619274,0.14 1.210578,0.3246 1.767842,0.5363 l -5.166406,5.1666 c -0.639678,0.052 -1.320828,0.1486 -2.047483,0.3075 -0.237652,0.051 -0.469438,0.094 -0.697578,0.1314 z m 3.345882,-0.4752 4.970936,-4.9708 c 0.425108,0.1742 0.827327,0.3677 1.205422,0.5648 l -4.473784,4.4738 c -0.528248,-0.063 -1.095166,-0.089 -1.702574,-0.069 z m 7.755966,0.4238 -1.550268,1.5503 c -0.248924,-0.2115 -0.52186,-0.4198 -0.821914,-0.6146 l 1.744499,-1.7446 c 0.245359,0.2629 0.453011,0.5331 0.627683,0.8089 z m -2.723679,0.7205 c -0.364729,-0.2085 -0.764798,-0.4028 -1.202879,-0.5671 l 2.009411,-2.0095 c 0.384679,0.24 0.716873,0.4952 1.00591,0.7643 l -1.812442,1.8123 z m 0.976245,-2.7466 1.818635,-1.8183 c 0.401762,0.2743 0.745368,0.5278 1.022666,0.7475 l -0.54951,0.5497 c -1.242068,-0.029 -1.968788,0.3183 -2.291791,0.5211 z m -2.599859,2.0338 c -0.377382,-0.12 -0.781099,-0.2172 -1.211814,-0.2917 l 4.347882,-4.3478 c 0.337022,0.1857 0.651739,0.3763 0.941166,0.5623 l -4.077234,4.0772 z m 3.095383,1.8106 1.460746,-1.4609 c 0.228396,0.4306 0.384162,0.864 0.487305,1.2831 l -1.106773,1.1066 c -0.235125,-0.3034 -0.513715,-0.6191 -0.841278,-0.9288 z m 1.947985,2.8831 c 0,0 -0.234979,-0.724 -0.866314,-1.628 l 0.962879,-0.9629 c 0.234778,1.4378 -0.09657,2.5909 -0.09657,2.5909 z m 0.385208,-7.2192 0.325024,-0.3251 c 0.321631,0.2714 0.497674,0.4406 0.497674,0.4406 -0.293274,-0.054 -0.566463,-0.091 -0.822698,-0.1143 z m -6.50947,-3.6714 -6.336032,6.3363 c -0.634787,0.077 -1.230657,0.1029 -1.789485,0.086 l 6.597226,-6.5972 c 0.523493,0.029 1.034141,0.083 1.528291,0.1743 z m -2.084974,-0.1829 -6.578052,6.5781 c -0.502436,-0.04 -0.972076,-0.1172 -1.4124366,-0.2258 l 6.1932466,-6.1931 c 0.456987,-0.077 0.922323,-0.1286 1.396912,-0.1515 0.13438,0 0.267467,0 0.40033,0 z m -9.5851588,2.3746 -2.0384864,2.0386 c -0.2968567,-0.2772 -0.5592874,-0.5623 -0.7911363,-0.8457 l 1.2059432,-1.206 c 0.5287084,0.089 1.0694806,0.083 1.6236795,0 z m -2.0862124,-0.1171 -0.9917619,0.9914 c -0.2346043,-0.3152 -0.4320801,-0.6226 -0.5957982,-0.9072 l 0.534315,-0.5342 c 0.3459544,0.2028 0.6969261,0.3502 1.0532451,0.45 z m 16.8544702,-4.9141 c -13.4161977,-4.6366 -19.9762604,1.9732 -19.9762604,1.9732 -0.345299,-1.7757 -0.345299,-4.1929 -0.345299,-4.1929 0.098644,-4.5377 5.8202318,-14.5012 22.4918134,-8.7795 16.671585,5.7215 19.729673,-5.3269 19.729673,-5.3269 0.5426,0.8877 0.887828,4.2418 0.887828,4.2418 1.775665,9.2726 -9.371561,16.7209 -22.787755,12.0843 z"
       id="path4" />
  </g>
</svg>
