<?xml version="1.0" encoding="UTF-8" standalone="no"?>
<svg
   xmlns:dc="http://purl.org/dc/elements/1.1/"
   xmlns:cc="http://creativecommons.org/ns#"
   xmlns:rdf="http://www.w3.org/1999/02/22-rdf-syntax-ns#"
   xmlns:svg="http://www.w3.org/2000/svg"
   xmlns="http://www.w3.org/2000/svg"
   xmlns:sodipodi="http://sodipodi.sourceforge.net/DTD/sodipodi-0.dtd"
   xmlns:inkscape="http://www.inkscape.org/namespaces/inkscape"
   width="48"
   height="48"
   id="svg8021"
   version="1.1"
   inkscape:version="0.91 r13725"
   sodipodi:docname="cam-milling-deepen.svg">
  <metadata
     id="metadata8031">
    <rdf:RDF>
      <cc:Work
         rdf:about="">
        <dc:format>image/svg+xml</dc:format>
        <dc:type
           rdf:resource="http://purl.org/dc/dcmitype/StillImage" />
        <dc:title></dc:title>
      </cc:Work>
    </rdf:RDF>
  </metadata>
  <defs
     id="defs8029" />
  <sodipodi:namedview
     pagecolor="#ffffff"
     bordercolor="#666666"
     borderopacity="1"
     objecttolerance="10"
     gridtolerance="10"
     guidetolerance="10"
     inkscape:pageopacity="0"
     inkscape:pageshadow="2"
     inkscape:window-width="1792"
     inkscape:window-height="1071"
     id="namedview8027"
     showgrid="false"
     inkscape:zoom="18.020833"
     inkscape:cx="24"
     inkscape:cy="24"
     inkscape:window-x="0"
     inkscape:window-y="0"
     inkscape:window-maximized="1"
     inkscape:current-layer="svg8021" />
  <path
     d="m -1,31 18,0 0,18 -18,0 z"
     id="path8023"
     inkscape:connector-curvature="0"
     style="fill:none" />
  <path
     stroke="null"
     d="m 24.001645,19.504112 c -2.484349,0 -4.494234,2.009884 -4.494234,4.494234 0,2.481054 2.009885,4.494233 4.494234,4.494233 2.48435,0 4.494234,-2.009884 4.494234,-4.494233 0,-2.481055 -2.009884,-4.494234 -4.494234,-4.494234 z m 9.634267,-5.182867 c -2.46458,-2.481054 -5.864909,-4.019769 -9.630972,-4.019769 l 0,-0.0066 0,0.0099 c -3.766062,0 -7.169687,1.538715 -9.634267,4.019769 -2.45799,2.47117 -3.98023,5.897858 -3.98023,9.673806 l -0.0099,0 0.0099,0 c 0,3.779242 1.52224,7.202635 3.98023,9.6771 2.461285,2.481054 5.86491,4.019769 9.630972,4.019769 l 0,0.0066 0,-0.01318 c 3.766063,0 7.169687,-1.53542 9.630972,-4.01318 2.45799,-2.477759 3.986821,-5.897858 3.986821,-9.680395 l 0.0066,0 0,-0.0066 -0.0099,0 c 0,-3.775947 -1.525536,-7.196046 -3.980231,-9.670511 z m -1.093904,9.677101 c 0,2.385502 -0.955519,4.540362 -2.504119,6.102141 -1.5486,1.558485 -3.680395,2.520593 -6.029654,2.520593 l 0,-0.0099 -0.0066,0 0,0.0099 c -2.352553,0 -4.487644,-0.965403 -6.036244,-2.520593 -1.548599,-1.561779 -2.504118,-3.716639 -2.504118,-6.095552 l 0.0099,0 0,-0.0066 -0.0033,0 c 0,-2.382208 0.955519,-4.537068 2.504118,-6.095552 1.5486,-1.558485 3.680396,-2.523888 6.029654,-2.523888 l 0,0.0099 0,0 0,-0.0099 c 2.352554,0 4.481055,0.965403 6.029654,2.523888 1.5486,1.558484 2.510709,3.713344 2.510709,6.095552 l -0.0099,0 0.0066,0 z m 14.299835,0 c 0,-6.349259 -2.553542,-12.092257 -6.682043,-16.2504126 C 36.028004,3.5864836 30.31466,1.0098773 24.001645,1.0098773 l 0,-0.009885 0,0.009885 c -6.316309,0 -12.026359,2.5766063 -16.158155,6.7347612 C 3.7149892,11.906089 1.1548574,17.652382 1.1548574,23.998346 l -0.00659,0 0.00988,0 c 0,6.349258 2.5568369,12.092257 6.6886326,16.250411 4.128501,4.164745 9.838551,6.741351 16.151565,6.741351 l 0,0.0099 0,-0.0066 c 6.313015,0 12.02636,-2.576606 16.158155,-6.738056 4.128501,-4.158155 6.682043,-9.904448 6.688633,-16.250412 l 0.0066,0 -0.0099,0 z m -5.074135,0 c 0,4.948929 -1.990115,9.429983 -5.205931,12.675453 -3.21911,3.238879 -7.657331,5.238879 -12.553542,5.245469 l 0,-0.01647 -0.0066,0 0,0.01318 c -4.9028,0 -9.341021,-2.009884 -12.560132,-5.252059 C 8.2256976,33.421739 6.2355823,28.940685 6.2355823,23.995051 l 0.00659,0 -0.00988,0 c 0,-4.948929 1.9934102,-9.429984 5.2125207,-12.672158 C 14.657334,8.0840125 19.09226,6.0807176 24.00165,6.0807176 l 0,0.00988 0,-0.00988 c 4.899506,0 9.341022,2.0098847 12.553542,5.2454694 3.222406,3.242175 5.215816,7.723229 5.215816,12.668864 l -0.0099,0 0.0099,0 z"
     id="path8025"
     inkscape:connector-curvature="0"
     style="fill:#231f20" />
</svg>
