<?xml version="1.0" encoding="UTF-8" standalone="no"?>
<svg
   xmlns:dc="http://purl.org/dc/elements/1.1/"
   xmlns:cc="http://creativecommons.org/ns#"
   xmlns:rdf="http://www.w3.org/1999/02/22-rdf-syntax-ns#"
   xmlns:svg="http://www.w3.org/2000/svg"
   xmlns="http://www.w3.org/2000/svg"
   xmlns:sodipodi="http://sodipodi.sourceforge.net/DTD/sodipodi-0.dtd"
   xmlns:inkscape="http://www.inkscape.org/namespaces/inkscape"
   width="48"
   height="48"
   id="svg4944"
   version="1.1"
   inkscape:version="0.91 r13725"
   sodipodi:docname="controller-connection-in.svg">
  <metadata
     id="metadata4954">
    <rdf:RDF>
      <cc:Work
         rdf:about="">
        <dc:format>image/svg+xml</dc:format>
        <dc:type
           rdf:resource="http://purl.org/dc/dcmitype/StillImage" />
        <dc:title></dc:title>
      </cc:Work>
    </rdf:RDF>
  </metadata>
  <defs
     id="defs4952" />
  <sodipodi:namedview
     pagecolor="#ffffff"
     bordercolor="#666666"
     borderopacity="1"
     objecttolerance="10"
     gridtolerance="10"
     guidetolerance="10"
     inkscape:pageopacity="0"
     inkscape:pageshadow="2"
     inkscape:window-width="1792"
     inkscape:window-height="1071"
     id="namedview4950"
     showgrid="false"
     inkscape:zoom="18.020833"
     inkscape:cx="24"
     inkscape:cy="24"
     inkscape:window-x="0"
     inkscape:window-y="0"
     inkscape:window-maximized="1"
     inkscape:current-layer="svg4944" />
  <path
     d="m -1,31 18,0 0,18 -18,0 z"
     id="path4946"
     inkscape:connector-curvature="0"
     style="fill:none" />
  <path
     stroke="null"
     d="M 43.490329,1 36.301504,8.1888241 C 31.492478,5.0004605 24.953331,5.5230273 20.716303,9.7600553 l -4.671323,4.6713237 2.634019,2.634019 -1.613601,1.613601 -2.634019,-2.634019 -4.671324,4.671323 C 5.5230273,24.953331 5.0004605,31.492478 8.1888241,36.301504 L 1,43.490329 4.5096715,47 11.684372,39.811176 c 4.809027,3.188363 11.348173,2.665797 15.585201,-1.571231 l 4.685447,-4.671324 -2.634019,-2.634019 1.613601,-1.613601 2.634019,2.634019 4.671324,-4.685447 c 4.237028,-4.237028 4.759594,-10.776174 1.571231,-15.585201 L 47,4.5096715 43.490329,1 Z m -22.477434,18.395763 7.591342,7.591342 -1.617132,1.613601 -7.591342,-7.591342 1.617132,-1.61007 z"
     id="path4948"
     inkscape:connector-curvature="0" />
</svg>
