<?xml version="1.0" encoding="UTF-8" standalone="no"?>
<svg
   xmlns:dc="http://purl.org/dc/elements/1.1/"
   xmlns:cc="http://creativecommons.org/ns#"
   xmlns:rdf="http://www.w3.org/1999/02/22-rdf-syntax-ns#"
   xmlns:svg="http://www.w3.org/2000/svg"
   xmlns="http://www.w3.org/2000/svg"
   xmlns:sodipodi="http://sodipodi.sourceforge.net/DTD/sodipodi-0.dtd"
   xmlns:inkscape="http://www.inkscape.org/namespaces/inkscape"
   width="48"
   height="48"
   id="svg4212"
   version="1.1"
   inkscape:version="0.91 r13725"
   sodipodi:docname="controller-control.svg">
  <metadata
     id="metadata4232">
    <rdf:RDF>
      <cc:Work
         rdf:about="">
        <dc:format>image/svg+xml</dc:format>
        <dc:type
           rdf:resource="http://purl.org/dc/dcmitype/StillImage" />
        <dc:title></dc:title>
      </cc:Work>
    </rdf:RDF>
  </metadata>
  <defs
     id="defs4230" />
  <sodipodi:namedview
     pagecolor="#ffffff"
     bordercolor="#666666"
     borderopacity="1"
     objecttolerance="10"
     gridtolerance="10"
     guidetolerance="10"
     inkscape:pageopacity="0"
     inkscape:pageshadow="2"
     inkscape:window-width="1792"
     inkscape:window-height="1071"
     id="namedview4228"
     showgrid="false"
     inkscape:zoom="18.020833"
     inkscape:cx="24"
     inkscape:cy="24"
     inkscape:window-x="0"
     inkscape:window-y="0"
     inkscape:window-maximized="1"
     inkscape:current-layer="svg4212" />
  <path
     d="m -1,31 18,0 0,18 -18,0 z"
     id="path4214"
     inkscape:connector-curvature="0"
     style="fill:none" />
  <g
     id="g4216"
     transform="matrix(3.2857143,0,0,3.2857143,-2.2824373,-2.2857144)">
    <path
       d="m 6.887,4.34 2.227,0 L 8,2.59 Z"
       id="path4218"
       inkscape:connector-curvature="0" />
    <path
       d="m 8,13.408 1.114,-1.75 -2.227,0 z"
       id="path4220"
       inkscape:connector-curvature="0" />
    <path
       d="M 4.34,9.114 4.34,6.886 2.59,8 Z"
       id="path4222"
       inkscape:connector-curvature="0" />
    <path
       d="M 11.66,9.114 13.407,8 11.657,6.886 Z"
       id="path4224"
       inkscape:connector-curvature="0" />
    <path
       d="m 13.728,5.296 -3.023,0 0,-3.023 C 10.705,1.573 10.132,1 9.433,1 L 6.568,1 C 5.868,1 5.296,1.573 5.296,2.273 l 0,3.023 -3.023,0 C 1.573,5.296 1,5.868 1,6.568 L 1,9.43 c 0,0.7 0.573,1.273 1.273,1.273 l 3.023,0 0,3.023 c 0,0.7 0.572,1.274 1.272,1.274 l 2.862,0 c 0.7,0 1.273,-0.573 1.273,-1.272 l 0,-3.023 3.023,0 c 0.7,0 1.272,-0.573 1.272,-1.272 l 0,-2.865 C 15,5.868 14.428,5.296 13.728,5.296 Z m 0.635,4.136 c 0,0.352 -0.285,0.637 -0.636,0.637 l -3.66,0 0,3.658 c 0,0.35 -0.284,0.636 -0.636,0.636 l -2.861,0 c -0.35,0 -0.636,-0.285 -0.636,-0.636 l 0,-3.66 -3.66,0 c -0.35,0 -0.636,-0.284 -0.636,-0.636 l 0,-2.863 c 0,-0.35 0.286,-0.636 0.637,-0.636 l 3.66,0 0,-3.66 c 0,-0.35 0.284,-0.636 0.635,-0.636 l 2.86,0 c 0.353,0 0.638,0.286 0.638,0.637 l 0,3.66 3.66,0 c 0.35,0 0.635,0.284 0.635,0.635 l 0,2.864 z"
       id="path4226"
       inkscape:connector-curvature="0" />
  </g>
</svg>
