<?xml version="1.0" encoding="UTF-8" standalone="no"?>
<!-- Generator: Adobe Illustrator 15.1.0, SVG Export Plug-In . SVG Version: 6.00 Build 0)  -->

<svg
   xmlns:dc="http://purl.org/dc/elements/1.1/"
   xmlns:cc="http://creativecommons.org/ns#"
   xmlns:rdf="http://www.w3.org/1999/02/22-rdf-syntax-ns#"
   xmlns:svg="http://www.w3.org/2000/svg"
   xmlns="http://www.w3.org/2000/svg"
   xmlns:sodipodi="http://sodipodi.sourceforge.net/DTD/sodipodi-0.dtd"
   xmlns:inkscape="http://www.inkscape.org/namespaces/inkscape"
   version="1.1"
   id="Layer_1"
   x="0px"
   y="0px"
   width="48"
   height="48"
   viewBox="0 0 48 48"
   enable-background="new 0 0 16 16"
   xml:space="preserve"
   inkscape:version="0.91 r13725"
   sodipodi:docname="controller-probe-mode-grid.svg"><metadata
     id="metadata18434"><rdf:RDF><cc:Work
         rdf:about=""><dc:format>image/svg+xml</dc:format><dc:type
           rdf:resource="http://purl.org/dc/dcmitype/StillImage" /><dc:title></dc:title></cc:Work></rdf:RDF></metadata><defs
     id="defs18432" /><sodipodi:namedview
     pagecolor="#ffffff"
     bordercolor="#666666"
     borderopacity="1"
     objecttolerance="10"
     gridtolerance="10"
     guidetolerance="10"
     inkscape:pageopacity="0"
     inkscape:pageshadow="2"
     inkscape:window-width="1792"
     inkscape:window-height="1071"
     id="namedview18430"
     showgrid="false"
     inkscape:zoom="18.020833"
     inkscape:cx="24"
     inkscape:cy="24"
     inkscape:window-x="0"
     inkscape:window-y="0"
     inkscape:window-maximized="1"
     inkscape:current-layer="Layer_1" /><g
     id="g18426"
     transform="matrix(3.5384615,0,0,3.5384615,-4.307692,-4.307692)"><path
       d="M 1.702,1.5 C 1.581,1.5 1.5,1.581 1.5,1.703 l 0,1.625 c 0,0.122 0.081,0.203 0.202,0.203 l 1.626,0 c 0.122,0 0.203,-0.081 0.203,-0.203 l 0,-1.625 C 3.531,1.581 3.45,1.5 3.328,1.5 l -1.626,0 z m 3.657,0 C 5.236,1.5 5.156,1.581 5.156,1.703 l 0,1.625 c 0,0.122 0.08,0.203 0.203,0.203 l 1.625,0 c 0.122,0 0.203,-0.081 0.203,-0.203 l 0,-1.625 C 7.187,1.581 7.106,1.5 6.984,1.5 l -1.625,0 z m 3.657,0 C 8.894,1.5 8.813,1.581 8.813,1.703 l 0,1.625 c 0,0.122 0.081,0.203 0.203,0.203 l 1.625,0 c 0.121,0 0.203,-0.081 0.203,-0.203 l 0,-1.625 C 10.844,1.581 10.762,1.5 10.641,1.5 l -1.625,0 z m 3.656,0 c -0.121,0 -0.203,0.081 -0.203,0.203 l 0,1.625 c 0,0.122 0.082,0.203 0.203,0.203 l 1.625,0 c 0.121,0 0.203,-0.081 0.203,-0.203 l 0,-1.625 C 14.5,1.581 14.418,1.5 14.297,1.5 l -1.625,0 z M 1.702,5.156 C 1.581,5.156 1.5,5.237 1.5,5.359 l 0,1.625 c 0,0.122 0.081,0.203 0.202,0.203 l 1.626,0 c 0.122,0 0.203,-0.081 0.203,-0.203 l 0,-1.625 C 3.531,5.237 3.45,5.156 3.328,5.156 l -1.626,0 z m 3.657,0 c -0.123,0 -0.203,0.081 -0.203,0.203 l 0,1.625 c 0,0.122 0.08,0.203 0.203,0.203 l 1.625,0 c 0.122,0 0.203,-0.081 0.203,-0.203 l 0,-1.625 C 7.187,5.237 7.106,5.156 6.984,5.156 l -1.625,0 z m 3.657,0 c -0.122,0 -0.203,0.081 -0.203,0.203 l 0,1.625 c 0,0.122 0.081,0.203 0.203,0.203 l 1.625,0 c 0.121,0 0.203,-0.081 0.203,-0.203 l 0,-1.625 c 0,-0.122 -0.082,-0.203 -0.203,-0.203 l -1.625,0 z m 3.656,0 c -0.121,0 -0.203,0.081 -0.203,0.203 l 0,1.625 c 0,0.122 0.082,0.203 0.203,0.203 l 1.625,0 c 0.121,0 0.203,-0.081 0.203,-0.203 l 0,-1.625 c 0,-0.122 -0.082,-0.203 -0.203,-0.203 l -1.625,0 z M 1.702,8.813 C 1.581,8.813 1.5,8.894 1.5,9.016 l 0,1.625 c 0,0.121 0.081,0.203 0.202,0.203 l 1.626,0 c 0.122,0 0.203,-0.082 0.203,-0.203 l 0,-1.625 C 3.531,8.894 3.45,8.813 3.328,8.813 l -1.626,0 z m 3.657,0 c -0.123,0 -0.203,0.081 -0.203,0.203 l 0,1.625 c 0,0.121 0.08,0.203 0.203,0.203 l 1.625,0 c 0.122,0 0.203,-0.082 0.203,-0.203 l 0,-1.625 C 7.187,8.894 7.106,8.813 6.984,8.813 l -1.625,0 z m 3.657,0 c -0.122,0 -0.203,0.081 -0.203,0.203 l 0,1.625 c 0,0.121 0.081,0.203 0.203,0.203 l 1.625,0 c 0.121,0 0.203,-0.082 0.203,-0.203 l 0,-1.625 c 0,-0.122 -0.082,-0.203 -0.203,-0.203 l -1.625,0 z m 3.656,0 c -0.121,0 -0.203,0.081 -0.203,0.203 l 0,1.625 c 0,0.121 0.082,0.203 0.203,0.203 l 1.625,0 c 0.121,0 0.203,-0.082 0.203,-0.203 l 0,-1.625 c 0,-0.122 -0.082,-0.203 -0.203,-0.203 l -1.625,0 z m -10.97,3.655 c -0.121,0 -0.202,0.083 -0.202,0.204 l 0,1.624 c 0,0.123 0.081,0.204 0.202,0.204 l 1.626,0 c 0.122,0 0.203,-0.081 0.203,-0.204 l 0,-1.624 c 0,-0.121 -0.081,-0.204 -0.203,-0.204 l -1.626,0 z m 3.657,0 c -0.123,0 -0.203,0.083 -0.203,0.204 l 0,1.624 c 0,0.123 0.08,0.204 0.203,0.204 l 1.625,0 c 0.122,0 0.203,-0.081 0.203,-0.204 l 0,-1.624 c 0,-0.121 -0.081,-0.204 -0.203,-0.204 l -1.625,0 z m 3.657,0 c -0.122,0 -0.203,0.083 -0.203,0.204 l 0,1.624 c 0,0.123 0.081,0.204 0.203,0.204 l 1.625,0 c 0.121,0 0.203,-0.081 0.203,-0.204 l 0,-1.624 c 0,-0.121 -0.082,-0.204 -0.203,-0.204 l -1.625,0 z m 3.656,0 c -0.121,0 -0.203,0.083 -0.203,0.204 l 0,1.624 c 0,0.123 0.082,0.204 0.203,0.204 l 1.625,0 c 0.121,0 0.203,-0.081 0.203,-0.204 l 0,-1.624 c 0,-0.121 -0.082,-0.204 -0.203,-0.204 l -1.625,0 z"
       id="path18428"
       inkscape:connector-curvature="0"
       style="fill:#010101" /></g></svg>