<?xml version="1.0" encoding="UTF-8" standalone="no"?>
<svg
   xmlns:dc="http://purl.org/dc/elements/1.1/"
   xmlns:cc="http://creativecommons.org/ns#"
   xmlns:rdf="http://www.w3.org/1999/02/22-rdf-syntax-ns#"
   xmlns:svg="http://www.w3.org/2000/svg"
   xmlns="http://www.w3.org/2000/svg"
   xmlns:sodipodi="http://sodipodi.sourceforge.net/DTD/sodipodi-0.dtd"
   xmlns:inkscape="http://www.inkscape.org/namespaces/inkscape"
   width="48"
   height="48"
   id="svg6142"
   version="1.1"
   inkscape:version="0.91 r13725"
   sodipodi:docname="controller-connection-out.svg">
  <metadata
     id="metadata6156">
    <rdf:RDF>
      <cc:Work
         rdf:about="">
        <dc:format>image/svg+xml</dc:format>
        <dc:type
           rdf:resource="http://purl.org/dc/dcmitype/StillImage" />
        <dc:title></dc:title>
      </cc:Work>
    </rdf:RDF>
  </metadata>
  <defs
     id="defs6154" />
  <sodipodi:namedview
     pagecolor="#ffffff"
     bordercolor="#666666"
     borderopacity="1"
     objecttolerance="10"
     gridtolerance="10"
     guidetolerance="10"
     inkscape:pageopacity="0"
     inkscape:pageshadow="2"
     inkscape:window-width="1792"
     inkscape:window-height="1071"
     id="namedview6152"
     showgrid="false"
     inkscape:zoom="18.020833"
     inkscape:cx="24"
     inkscape:cy="24"
     inkscape:window-x="0"
     inkscape:window-y="0"
     inkscape:window-maximized="1"
     inkscape:current-layer="svg6142" />
  <path
     d="m -1,31 18,0 0,18 -18,0 z"
     id="path6144"
     inkscape:connector-curvature="0"
     style="fill:none" />
  <g
     stroke="null"
     id="g6146"
     transform="matrix(3.2380684,0,0,3.2380684,-1.9045472,-1.9061662)">
    <path
       d="m 8.092,11.023 1.93,-1.928 c 0.163,-0.164 0.163,-0.43 0,-0.594 -0.165,-0.163 -0.43,-0.163 -0.594,0 L 7.498,10.431 5.57,8.5 7.5,6.573 C 7.663,6.41 7.663,6.143 7.5,5.98 7.335,5.815 7.07,5.815 6.905,5.98 L 4.977,7.907 4.31,7.24 3.12,8.427 c -1.076,1.077 -1.21,2.74 -0.4,3.96 l -1.823,1.827 0.89,0.89 1.825,-1.825 c 1.222,0.81 2.884,0.676 3.96,-0.4 L 8.76,11.69 8.092,11.023 Z"
       id="path6148"
       inkscape:connector-curvature="0" />
    <path
       d="m 11.69,8.76 1.188,-1.187 c 1.076,-1.077 1.21,-2.74 0.4,-3.96 l 1.825,-1.826 -0.89,-0.89 -1.825,1.825 C 11.166,1.912 9.504,2.046 8.428,3.122 L 7.24,4.31 11.69,8.76 Z"
       id="path6150"
       inkscape:connector-curvature="0" />
  </g>
</svg>
