<?xml version="1.0" encoding="UTF-8" standalone="no"?>
<!-- Generator: Adobe Illustrator 15.1.0, SVG Export Plug-In . SVG Version: 6.00 Build 0)  -->

<svg
   xmlns:dc="http://purl.org/dc/elements/1.1/"
   xmlns:cc="http://creativecommons.org/ns#"
   xmlns:rdf="http://www.w3.org/1999/02/22-rdf-syntax-ns#"
   xmlns:svg="http://www.w3.org/2000/svg"
   xmlns="http://www.w3.org/2000/svg"
   xmlns:sodipodi="http://sodipodi.sourceforge.net/DTD/sodipodi-0.dtd"
   xmlns:inkscape="http://www.inkscape.org/namespaces/inkscape"
   version="1.1"
   id="Layer_1"
   x="0px"
   y="0px"
   width="48"
   height="48"
   viewBox="0 0 48 48"
   enable-background="new 0 0 16 16"
   xml:space="preserve"
   inkscape:version="0.91 r13725"
   sodipodi:docname="command.svg"><metadata
     id="metadata4872"><rdf:RDF><cc:Work
         rdf:about=""><dc:format>image/svg+xml</dc:format><dc:type
           rdf:resource="http://purl.org/dc/dcmitype/StillImage" /><dc:title></dc:title></cc:Work></rdf:RDF></metadata><defs
     id="defs4870" /><sodipodi:namedview
     pagecolor="#ffffff"
     bordercolor="#666666"
     borderopacity="1"
     objecttolerance="10"
     gridtolerance="10"
     guidetolerance="10"
     inkscape:pageopacity="0"
     inkscape:pageshadow="2"
     inkscape:window-width="1792"
     inkscape:window-height="1071"
     id="namedview4868"
     showgrid="false"
     inkscape:zoom="14.75"
     inkscape:cx="8"
     inkscape:cy="21.559322"
     inkscape:window-x="0"
     inkscape:window-y="0"
     inkscape:window-maximized="1"
     inkscape:current-layer="Layer_1" /><g
     id="g4860"
     transform="matrix(3.5381894,0,0,3.5381894,-4.3072843,-4.3072843)"><path
       d="M 12.999,2.5 3,2.5 C 2.17,2.5 1.5,3.172 1.5,4 l 0,8.002 c 0,0.826 0.67,1.499 1.5,1.499 l 10,0 c 0.828,0 1.501,-0.673 1.501,-1.499 L 14.501,4 C 14.5,3.172 13.827,2.5 12.999,2.5 Z m 0.501,9.502 c 0,0.272 -0.225,0.499 -0.501,0.499 l -9.999,0 c -0.275,0 -0.5,-0.227 -0.5,-0.499 l 0,-7.001 11,0 0,7.001 z"
       id="path4862"
       inkscape:connector-curvature="0"
       style="fill:#010101" /><path
       d="M 7.999,10 C 7.724,10 7.5,9.775 7.5,9.499 l 0,0 C 7.5,9.226 7.724,9 7.999,9 l 2.5,0 C 10.773,9 11,9.226 11,9.499 l 0,0 C 11,9.775 10.773,10 10.498,10 l -2.499,0 z"
       id="path4864"
       inkscape:connector-curvature="0"
       style="fill:#010101" /><polygon
       points="3.699,10 4.975,10 6.725,8.25 4.975,6.5 3.699,6.5 5.45,8.25 "
       id="polygon4866"
       style="fill:#010101" /></g></svg>