<?xml version="1.0" encoding="UTF-8" standalone="no"?>
<svg
   xmlns:dc="http://purl.org/dc/elements/1.1/"
   xmlns:cc="http://creativecommons.org/ns#"
   xmlns:rdf="http://www.w3.org/1999/02/22-rdf-syntax-ns#"
   xmlns:svg="http://www.w3.org/2000/svg"
   xmlns="http://www.w3.org/2000/svg"
   xmlns:sodipodi="http://sodipodi.sourceforge.net/DTD/sodipodi-0.dtd"
   xmlns:inkscape="http://www.inkscape.org/namespaces/inkscape"
   width="48"
   height="48"
   id="svg4274"
   version="1.1"
   inkscape:version="0.91 r13725"
   sodipodi:docname="controller-connection.svg">
  <metadata
     id="metadata4294">
    <rdf:RDF>
      <cc:Work
         rdf:about="">
        <dc:format>image/svg+xml</dc:format>
        <dc:type
           rdf:resource="http://purl.org/dc/dcmitype/StillImage" />
        <dc:title></dc:title>
      </cc:Work>
    </rdf:RDF>
  </metadata>
  <defs
     id="defs4292" />
  <sodipodi:namedview
     pagecolor="#ffffff"
     bordercolor="#666666"
     borderopacity="1"
     objecttolerance="10"
     gridtolerance="10"
     guidetolerance="10"
     inkscape:pageopacity="0"
     inkscape:pageshadow="2"
     inkscape:window-width="1792"
     inkscape:window-height="1071"
     id="namedview4290"
     showgrid="false"
     inkscape:zoom="9.5569901"
     inkscape:cx="36.459141"
     inkscape:cy="20.032341"
     inkscape:window-x="0"
     inkscape:window-y="0"
     inkscape:window-maximized="1"
     inkscape:current-layer="svg4274" />
  <path
     d="m -1,31 18,0 0,18 -18,0 z"
     id="path4276"
     inkscape:connector-curvature="0"
     style="fill:none" />
  <g
     stroke="null"
     id="g4278"
     transform="matrix(3.4487929,0,0,3.4487929,-3.5903432,-3.5868944)">
    <path
       d="m 12.928,1.33 -9.856,0 c -0.96,0 -1.74,0.782 -1.74,1.742 l 0,9.856 c 0,0.96 0.78,1.74 1.74,1.74 l 9.856,0 c 0.96,0 1.74,-0.78 1.74,-1.74 l 0,-9.856 c 0,-0.96 -0.78,-1.74 -1.74,-1.74 z m 0,12.596 -9.856,0 c -0.55,0 -0.998,-0.448 -0.998,-0.998 l 0,-9.856 c 0,-0.55 0.448,-0.997 0.998,-0.997 l 9.856,0 c 0.55,0 0.998,0.447 0.998,0.997 l 0,9.856 c 0,0.55 -0.448,0.998 -0.998,0.998 z"
       id="path4280"
       inkscape:connector-curvature="0" />
    <path
       d="m 8,8.997 c -0.516,0 -0.92,0.404 -0.92,0.92 l 0,0.547 c 0,0.22 0.154,0.372 0.372,0.372 l 1.096,0 c 0.218,0 0.37,-0.153 0.37,-0.372 l 0,-0.547 C 8.918,9.401 8.516,8.997 8,8.997 Z"
       id="path4282"
       inkscape:connector-curvature="0" />
    <path
       d="m 6.63,5.438 -0.547,0 c -0.218,0 -0.37,0.153 -0.37,0.372 l 0,1.643 c 0,0.218 0.152,0.37 0.37,0.37 l 0.548,0 c 0.22,0 0.372,-0.152 0.372,-0.37 l 0,-1.643 c 0,-0.22 -0.152,-0.372 -0.37,-0.372 z"
       id="path4284"
       inkscape:connector-curvature="0" />
    <path
       d="M 10.463,3.62 C 10.37,3.558 10.27,3.522 10.19,3.522 l -4.38,0 C 5.73,3.522 5.63,3.558 5.54,3.619 3.306,5 2.973,6.955 2.973,8 c 0,1.045 0.333,3.002 2.563,4.38 0.094,0.062 0.193,0.098 0.273,0.098 l 4.38,0 c 0.08,0 0.18,-0.036 0.27,-0.096 2.233,-1.38 2.566,-3.338 2.566,-4.382 0,-1.044 -0.333,-3 -2.563,-4.38 z M 12.283,8 c 0,1.563 -0.842,2.992 -2.2,3.735 l -4.166,0 C 4.559,10.992 3.717,9.563 3.717,8 c 0,-1.563 0.842,-2.992 2.2,-3.735 l 4.167,0 c 1.357,0.743 2.2,2.172 2.2,3.735 z"
       id="path4286"
       inkscape:connector-curvature="0" />
    <path
       d="m 9.917,5.438 -0.547,0 c -0.22,0 -0.372,0.153 -0.372,0.372 l 0,1.643 c 0,0.218 0.152,0.37 0.37,0.37 l 0.55,0 c 0.217,0 0.37,-0.152 0.37,-0.37 l 0,-1.643 c 0,-0.22 -0.153,-0.372 -0.37,-0.372 z"
       id="path4288"
       inkscape:connector-curvature="0" />
  </g>
</svg>
