<?xml version="1.0" encoding="UTF-8" standalone="no"?>
<svg
   xmlns:dc="http://purl.org/dc/elements/1.1/"
   xmlns:cc="http://creativecommons.org/ns#"
   xmlns:rdf="http://www.w3.org/1999/02/22-rdf-syntax-ns#"
   xmlns:svg="http://www.w3.org/2000/svg"
   xmlns="http://www.w3.org/2000/svg"
   xmlns:sodipodi="http://sodipodi.sourceforge.net/DTD/sodipodi-0.dtd"
   xmlns:inkscape="http://www.inkscape.org/namespaces/inkscape"
   version="1.1"
   id="Layer_1"
   x="0px"
   y="0px"
   width="48"
   height="48"
   viewBox="0 0 48 48"
   enable-background="new 0 0 16 16"
   xml:space="preserve"
   inkscape:version="0.91 r13725"
   sodipodi:docname="controller-probe-stop.svg"><metadata
     id="metadata8020"><rdf:RDF><cc:Work
         rdf:about=""><dc:format>image/svg+xml</dc:format><dc:type
           rdf:resource="http://purl.org/dc/dcmitype/StillImage" /><dc:title></dc:title></cc:Work></rdf:RDF></metadata><defs
     id="defs8018" /><sodipodi:namedview
     pagecolor="#ffffff"
     bordercolor="#666666"
     borderopacity="1"
     objecttolerance="10"
     gridtolerance="10"
     guidetolerance="10"
     inkscape:pageopacity="0"
     inkscape:pageshadow="2"
     inkscape:window-width="1792"
     inkscape:window-height="1071"
     id="namedview8016"
     showgrid="false"
     inkscape:zoom="18.020833"
     inkscape:cx="24"
     inkscape:cy="24"
     inkscape:window-x="0"
     inkscape:window-y="0"
     inkscape:window-maximized="1"
     inkscape:current-layer="Layer_1" /><g
     id="g8562"
     transform="matrix(3.0666667,0,0,3.0666667,-0.5333336,-98.666668)"><g
       transform="translate(0,32)"
       id="g8006"><path
         style="fill:#010101"
         inkscape:connector-curvature="0"
         id="path8008"
         d="m 12.059,3.542 0.363,-0.543 0.274,0.179 c 0.063,0.041 0.133,0.06 0.203,0.06 0.123,0 0.242,-0.06 0.313,-0.171 0.11,-0.172 0.063,-0.403 -0.11,-0.516 L 11.934,1.796 C 11.761,1.685 11.53,1.734 11.418,1.906 11.306,2.08 11.355,2.311 11.527,2.423 l 0.267,0.171 -0.353,0.528 C 10.636,2.636 9.722,2.314 8.744,2.205 l 0,-0.595 C 8.744,1.558 8.738,1.504 8.729,1.448 l 0.117,0 c 0.391,0 0.708,-0.565 0.739,-0.948 l -3.173,0 c 0.031,0.383 0.349,0.948 0.74,0.948 l 0.116,0 C 7.258,1.504 7.253,1.558 7.253,1.61 l 0,0.595 C 3.921,2.576 1.332,5.399 1.331,8.831 c 0,3.683 2.985,6.668 6.668,6.669 3.684,-10e-4 6.668,-2.986 6.67,-6.669 -0.002,-2.156 -1.023,-4.07 -2.61,-5.289 z M 7.999,14.007 C 5.141,14.001 2.828,11.69 2.823,8.831 2.828,5.973 5.141,3.659 7.999,3.654 c 2.857,0.005 5.171,2.318 5.175,5.177 -0.004,2.858 -2.318,5.17 -5.175,5.176 z" /><path
         style="fill:#010101"
         inkscape:connector-curvature="0"
         id="path8010"
         d="M 7.939,4.925 C 7.617,4.928 7.359,5.149 7.361,5.42 L 7.004,9.784 c 0.003,0.268 0.679,0.48 1.001,0.476 0.322,-0.005 0.993,-0.23 0.989,-0.502 L 8.528,5.405 C 8.525,5.136 8.261,4.92 7.939,4.925 Z" /></g><g
       transform="translate(0,32)"
       id="g8012"><path
         style="fill:#010101"
         inkscape:connector-curvature="0"
         id="path8014"
         d="m 14.669,11.129 c 0,-0.55 -0.45,-1 -1,-1 l -3.371,0 c -0.55,0 -1,0.45 -1,1 l 0,3.371 c 0,0.55 0.45,1 1,1 l 3.371,0 c 0.55,0 1,-0.45 1,-1 l 0,-3.371 z" /></g></g></svg>