<?xml version="1.0" encoding="utf-8"?>
<!-- Generator: Adobe Illustrator 15.0.0, SVG Export Plug-In . SVG Version: 6.00 Build 0)  -->
<!DOCTYPE svg PUBLIC "-//W3C//DTD SVG 1.1//EN" "http://www.w3.org/Graphics/SVG/1.1/DTD/svg11.dtd">
<svg version="1.1" id="Layer_1" xmlns="http://www.w3.org/2000/svg" xmlns:xlink="http://www.w3.org/1999/xlink" x="0px" y="0px"
	 width="48px" height="48px" viewBox="0 0 48 48" enable-background="new 0 0 48 48" xml:space="preserve">
<path fill="#010202" d="M47,24.747l-10.11-4.394v3.142H16.747l4.989-6.635h3.181c0.54,1.634,2.048,2.819,3.857,2.819
	c2.266,0,4.096-1.834,4.096-4.071c0-2.266-1.83-4.085-4.096-4.085c-1.809,0-3.317,1.185-3.857,2.818h-4.449l-6.875,9.153H12.11
	c-0.567-2.508-2.805-4.383-5.501-4.383C3.535,19.112,1,21.634,1,24.747c0,3.116,2.535,5.62,5.608,5.62
	c2.696,0,4.934-1.858,5.501-4.365h6.686l5.878,8.504h3.883v1.971h6.475v-6.445h-6.475v1.953h-2.535l-4.152-5.969H36.89v3.142
	L47,24.747z"/>
</svg>
