<?xml version="1.0" encoding="UTF-8" standalone="no"?>
<!-- Generator: Adobe Illustrator 15.1.0, SVG Export Plug-In . SVG Version: 6.00 Build 0)  -->

<svg
   xmlns:dc="http://purl.org/dc/elements/1.1/"
   xmlns:cc="http://creativecommons.org/ns#"
   xmlns:rdf="http://www.w3.org/1999/02/22-rdf-syntax-ns#"
   xmlns:svg="http://www.w3.org/2000/svg"
   xmlns="http://www.w3.org/2000/svg"
   xmlns:sodipodi="http://sodipodi.sourceforge.net/DTD/sodipodi-0.dtd"
   xmlns:inkscape="http://www.inkscape.org/namespaces/inkscape"
   version="1.1"
   id="Layer_1"
   x="0px"
   y="0px"
   width="48"
   height="48"
   viewBox="0 0 48 48"
   enable-background="new 0 0 16 16"
   xml:space="preserve"
   inkscape:version="0.91 r13725"
   sodipodi:docname="controller-probe-collect.svg"><metadata
     id="metadata17742"><rdf:RDF><cc:Work
         rdf:about=""><dc:format>image/svg+xml</dc:format><dc:type
           rdf:resource="http://purl.org/dc/dcmitype/StillImage" /><dc:title></dc:title></cc:Work></rdf:RDF></metadata><defs
     id="defs17740" /><sodipodi:namedview
     pagecolor="#ffffff"
     bordercolor="#666666"
     borderopacity="1"
     objecttolerance="10"
     gridtolerance="10"
     guidetolerance="10"
     inkscape:pageopacity="0"
     inkscape:pageshadow="2"
     inkscape:window-width="1792"
     inkscape:window-height="1071"
     id="namedview17738"
     showgrid="false"
     inkscape:zoom="18.020833"
     inkscape:cx="24"
     inkscape:cy="24"
     inkscape:window-x="0"
     inkscape:window-y="0"
     inkscape:window-maximized="1"
     inkscape:current-layer="Layer_1" /><g
     id="g17732"
     transform="matrix(3.0666667,0,0,3.0666667,-0.53486693,-0.5333336)"><path
       d="m 10.344,11.679 -0.389,0.622 c 1.963,0.191 3.354,0.664 3.354,1.219 0,0.725 -2.373,1.31 -5.298,1.31 -2.927,0 -5.299,-0.585 -5.299,-1.31 0,-0.551 1.37,-1.02 3.309,-1.215 L 5.63,11.681 c -2.352,0.293 -4.016,1.006 -4.016,1.839 0,1.094 2.859,1.98 6.387,1.98 3.529,0 6.386,-0.887 6.386,-1.98 0,-0.838 -1.676,-1.551 -4.043,-1.841 z"
       id="path17734"
       inkscape:connector-curvature="0"
       style="fill:#010101" /><path
       d="m 7.961,0.5 c -2.419,0 -4.38,2.066 -4.38,4.615 0,1.094 0.363,2.024 0.961,2.894 l 3.405,5.43 0,0.008 0.003,-0.002 0.011,0.018 0.005,-0.045 3.337,-5.323 C 11.922,7.224 12.34,6.253 12.34,5.116 12.34,2.566 10.379,0.5 7.961,0.5 Z M 7.96,6.656 C 6.881,6.656 6.007,5.783 6.007,4.704 6.007,3.625 6.881,2.75 7.96,2.75 c 1.079,0 1.952,0.875 1.952,1.954 0,1.079 -0.873,1.952 -1.952,1.952 z"
       id="path17736"
       inkscape:connector-curvature="0"
       style="fill:#010101" /></g></svg>