<?xml version="1.0" encoding="UTF-8" standalone="no"?>
<svg
   xmlns:dc="http://purl.org/dc/elements/1.1/"
   xmlns:cc="http://creativecommons.org/ns#"
   xmlns:rdf="http://www.w3.org/1999/02/22-rdf-syntax-ns#"
   xmlns:svg="http://www.w3.org/2000/svg"
   xmlns="http://www.w3.org/2000/svg"
   xmlns:sodipodi="http://sodipodi.sourceforge.net/DTD/sodipodi-0.dtd"
   xmlns:inkscape="http://www.inkscape.org/namespaces/inkscape"
   width="48"
   height="48"
   id="svg4207"
   version="1.1"
   inkscape:version="0.91 r13725"
   sodipodi:docname="controller-zero-define.svg">
  <metadata
     id="metadata4225">
    <rdf:RDF>
      <cc:Work
         rdf:about="">
        <dc:format>image/svg+xml</dc:format>
        <dc:type
           rdf:resource="http://purl.org/dc/dcmitype/StillImage" />
        <dc:title></dc:title>
      </cc:Work>
    </rdf:RDF>
  </metadata>
  <defs
     id="defs4223" />
  <sodipodi:namedview
     pagecolor="#ffffff"
     bordercolor="#666666"
     borderopacity="1"
     objecttolerance="10"
     gridtolerance="10"
     guidetolerance="10"
     inkscape:pageopacity="0"
     inkscape:pageshadow="2"
     inkscape:window-width="1792"
     inkscape:window-height="1071"
     id="namedview4221"
     showgrid="false"
     inkscape:zoom="18.020833"
     inkscape:cx="24"
     inkscape:cy="24"
     inkscape:window-x="0"
     inkscape:window-y="0"
     inkscape:window-maximized="1"
     inkscape:current-layer="svg4207" />
  <path
     d="m -1,31 18,0 0,18 -18,0 z"
     id="path4209"
     inkscape:connector-curvature="0"
     style="fill:none" />
  <g
     stroke="null"
     id="g4211"
     style="fill:#010101"
     transform="matrix(3.1534928,0,0,3.1534928,-1.2295191,-1.2295191)">
    <path
       d="m 11.914,13.203 2.09,2.09 1.29,-1.29 -2.09,-2.09 2.09,-2.09 -5.47,0 0,5.47 z"
       id="path4213"
       inkscape:connector-curvature="0" />
    <path
       d="m 0.707,14.004 1.29,1.29 2.09,-2.09 2.09,2.09 0,-5.47 -5.47,0 2.09,2.09 z"
       id="path4215"
       inkscape:connector-curvature="0" />
    <path
       d="m 0.707,6.177 5.47,0 0,-5.47 -2.09,2.09 -2.07,-2.07 -1.29,1.29 2.07,2.07 z"
       id="path4217"
       inkscape:connector-curvature="0" />
    <path
       d="m 9.823,6.177 5.47,0 -2.09,-2.09 2.072,-2.07 -1.29,-1.29 -2.07,2.07 -2.093,-2.09 z"
       id="path4219"
       inkscape:connector-curvature="0" />
  </g>
</svg>
