<?xml version="1.0" encoding="UTF-8" standalone="no"?>
<!-- Generator: Adobe Illustrator 19.0.0, SVG Export Plug-In . SVG Version: 6.00 Build 0)  -->

<svg
   xmlns:dc="http://purl.org/dc/elements/1.1/"
   xmlns:cc="http://creativecommons.org/ns#"
   xmlns:rdf="http://www.w3.org/1999/02/22-rdf-syntax-ns#"
   xmlns:svg="http://www.w3.org/2000/svg"
   xmlns="http://www.w3.org/2000/svg"
   xmlns:sodipodi="http://sodipodi.sourceforge.net/DTD/sodipodi-0.dtd"
   xmlns:inkscape="http://www.inkscape.org/namespaces/inkscape"
   version="1.1"
   id="Layer_1"
   x="0px"
   y="0px"
   viewBox="0 0 48 48"
   xml:space="preserve"
   inkscape:version="0.91 r13725"
   sodipodi:docname="social-pinterest.svg"
   width="48"
   height="48"><metadata
     id="metadata5913"><rdf:RDF><cc:Work
         rdf:about=""><dc:format>image/svg+xml</dc:format><dc:type
           rdf:resource="http://purl.org/dc/dcmitype/StillImage" /><dc:title></dc:title></cc:Work></rdf:RDF></metadata><defs
     id="defs5911" /><sodipodi:namedview
     pagecolor="#ffffff"
     bordercolor="#666666"
     borderopacity="1"
     objecttolerance="10"
     gridtolerance="10"
     guidetolerance="10"
     inkscape:pageopacity="0"
     inkscape:pageshadow="2"
     inkscape:window-width="1792"
     inkscape:window-height="1071"
     id="namedview5909"
     showgrid="false"
     inkscape:zoom="0.81010851"
     inkscape:cx="145.6595"
     inkscape:cy="145.6595"
     inkscape:window-x="0"
     inkscape:window-y="0"
     inkscape:window-maximized="1"
     inkscape:current-layer="Layer_1" /><g
     id="g5873"
     transform="matrix(0.15790251,0,0,0.15790251,0.99999934,0.99999934)"><path
       style="fill:#c8232c"
       d="m 145.659,0 c 80.45,0 145.66,65.219 145.66,145.66 0,80.45 -65.21,145.659 -145.66,145.659 C 65.209,291.319 0,226.109 0,145.66 0,65.219 65.21,0 145.659,0 Z"
       id="path5875"
       inkscape:connector-curvature="0" /><path
       style="fill:#ffffff"
       d="m 150.066,63.781 c -51.327,0 -77.19,35.632 -77.19,65.337 0,17.989 7.028,33.993 22.122,39.956 2.467,0.974 4.698,0.036 5.408,-2.613 l 2.203,-8.403 c 0.728,-2.613 0.446,-3.541 -1.548,-5.826 -4.361,-4.962 -7.128,-11.398 -7.128,-20.511 0,-26.428 20.42,-50.089 53.175,-50.089 29.014,0 44.945,17.161 44.945,40.075 0,30.152 -13.783,55.606 -34.248,55.606 -11.289,0 -19.755,-9.04 -17.042,-20.156 3.241,-13.237 9.541,-27.539 9.541,-37.107 0,-8.548 -4.743,-15.704 -14.575,-15.704 -11.553,0 -20.829,11.571 -20.829,27.074 0,9.878 3.45,16.551 3.45,16.551 l -13.901,56.998 c -4.124,16.906 -0.61,37.644 -0.319,39.738 0.182,1.238 1.821,1.529 2.567,0.601 1.065,-1.347 14.821,-17.798 19.5,-34.239 1.329,-4.652 7.602,-28.75 7.602,-28.75 3.751,6.946 14.721,13.046 26.383,13.046 34.712,0 58.273,-30.652 58.273,-71.674 -0.011,-31.015 -27.14,-59.91 -68.389,-59.91 z"
       id="path5877"
       inkscape:connector-curvature="0" /></g><g
     id="g5879"
     transform="translate(0,-243.319)" /><g
     id="g5881"
     transform="translate(0,-243.319)" /><g
     id="g5883"
     transform="translate(0,-243.319)" /><g
     id="g5885"
     transform="translate(0,-243.319)" /><g
     id="g5887"
     transform="translate(0,-243.319)" /><g
     id="g5889"
     transform="translate(0,-243.319)" /><g
     id="g5891"
     transform="translate(0,-243.319)" /><g
     id="g5893"
     transform="translate(0,-243.319)" /><g
     id="g5895"
     transform="translate(0,-243.319)" /><g
     id="g5897"
     transform="translate(0,-243.319)" /><g
     id="g5899"
     transform="translate(0,-243.319)" /><g
     id="g5901"
     transform="translate(0,-243.319)" /><g
     id="g5903"
     transform="translate(0,-243.319)" /><g
     id="g5905"
     transform="translate(0,-243.319)" /><g
     id="g5907"
     transform="translate(0,-243.319)" /></svg>