<?xml version="1.0" encoding="UTF-8" standalone="no"?>
<!-- Generator: Adobe Illustrator 16.0.0, SVG Export Plug-In . SVG Version: 6.00 Build 0)  -->

<svg
   xmlns:sketch="http://www.bohemiancoding.com/sketch/ns"
   xmlns:dc="http://purl.org/dc/elements/1.1/"
   xmlns:cc="http://creativecommons.org/ns#"
   xmlns:rdf="http://www.w3.org/1999/02/22-rdf-syntax-ns#"
   xmlns:svg="http://www.w3.org/2000/svg"
   xmlns="http://www.w3.org/2000/svg"
   xmlns:sodipodi="http://sodipodi.sourceforge.net/DTD/sodipodi-0.dtd"
   xmlns:inkscape="http://www.inkscape.org/namespaces/inkscape"
   version="1.1"
   id="Layer_1"
   x="0px"
   y="0px"
   width="48"
   height="48"
   viewBox="283.323 373.323 48 48"
   enable-background="new 283.323 373.323 45.354 45.354"
   xml:space="preserve"
   inkscape:version="0.91 r13725"
   sodipodi:docname="global-view-move.svg"><metadata
     id="metadata23760"><rdf:RDF><cc:Work
         rdf:about=""><dc:format>image/svg+xml</dc:format><dc:type
           rdf:resource="http://purl.org/dc/dcmitype/StillImage" /><dc:title>16</dc:title></cc:Work></rdf:RDF></metadata><defs
     id="defs23758" /><sodipodi:namedview
     pagecolor="#ffffff"
     bordercolor="#666666"
     borderopacity="1"
     objecttolerance="10"
     gridtolerance="10"
     guidetolerance="10"
     inkscape:pageopacity="0"
     inkscape:pageshadow="2"
     inkscape:window-width="1792"
     inkscape:window-height="1071"
     id="namedview23756"
     showgrid="false"
     inkscape:zoom="5.2035102"
     inkscape:cx="22.677"
     inkscape:cy="22.677"
     inkscape:window-x="0"
     inkscape:window-y="0"
     inkscape:window-maximized="1"
     inkscape:current-layer="Layer_1" /><title
     id="title23748">16</title><desc
     id="desc23750">Created with Sketch.</desc><g
     sketch:type="MSPage"
     id="g23752"
     transform="matrix(1.1192164,0,0,1.1192164,-35.156018,-45.885511)"><path
       sketch:type="MSShapeGroup"
       stroke-miterlimit="10"
       d="m 325.842,396.009 -5.974,5.974 -1.896,-1.894 2.75,-2.749 -13.384,0 0,13.375 2.741,-2.742 1.895,1.896 -5.974,5.973 -5.976,-5.974 1.895,-1.896 2.741,2.742 0,-13.374 -13.383,0 2.749,2.749 -1.894,1.894 -5.976,-5.974 5.976,-5.976 1.894,1.894 -2.733,2.734 13.367,0 0,-13.376 -2.741,2.742 -1.895,-1.895 5.976,-5.976 5.975,5.976 -1.895,1.895 -2.741,-2.742 0,13.376 13.366,0 -2.732,-2.734 1.896,-1.894 5.973,5.976 z"
       id="path23754"
       inkscape:connector-curvature="0"
       style="stroke:#000000;stroke-miterlimit:10" /></g></svg>