<?xml version="1.0" encoding="UTF-8" standalone="no"?>
<!-- Generator: Adobe Illustrator 16.0.0, SVG Export Plug-In . SVG Version: 6.00 Build 0)  -->

<svg
   xmlns:dc="http://purl.org/dc/elements/1.1/"
   xmlns:cc="http://creativecommons.org/ns#"
   xmlns:rdf="http://www.w3.org/1999/02/22-rdf-syntax-ns#"
   xmlns:svg="http://www.w3.org/2000/svg"
   xmlns="http://www.w3.org/2000/svg"
   xmlns:sodipodi="http://sodipodi.sourceforge.net/DTD/sodipodi-0.dtd"
   xmlns:inkscape="http://www.inkscape.org/namespaces/inkscape"
   version="1.1"
   id="Layer_1"
   x="0px"
   y="0px"
   width="48"
   height="48"
   viewBox="277.654 367.653 47.999999 47.999999"
   enable-background="new 277.654 367.653 56.693 56.693"
   xml:space="preserve"
   inkscape:version="0.91 r13725"
   sodipodi:docname="global-view-zoom-minus.svg"><metadata
     id="metadata24413"><rdf:RDF><cc:Work
         rdf:about=""><dc:format>image/svg+xml</dc:format><dc:type
           rdf:resource="http://purl.org/dc/dcmitype/StillImage" /><dc:title></dc:title></cc:Work></rdf:RDF></metadata><defs
     id="defs24411" /><sodipodi:namedview
     pagecolor="#ffffff"
     bordercolor="#666666"
     borderopacity="1"
     objecttolerance="10"
     gridtolerance="10"
     guidetolerance="10"
     inkscape:pageopacity="0"
     inkscape:pageshadow="2"
     inkscape:window-width="1792"
     inkscape:window-height="1071"
     id="namedview24409"
     showgrid="false"
     inkscape:zoom="4.1627714"
     inkscape:cx="28.3465"
     inkscape:cy="28.3465"
     inkscape:window-x="0"
     inkscape:window-y="0"
     inkscape:window-maximized="1"
     inkscape:current-layer="Layer_1" /><g
     id="g24403"
     transform="matrix(0.85410178,0,0,0.85410178,40.299434,53.429671)"><path
       d="M 332.001,416.945 318.477,403.48 c 2.573,-3.591 4.069,-7.959 4.069,-12.687 0,-12.028 -9.694,-21.723 -21.723,-21.723 -12.029,0 -21.723,9.694 -21.723,21.723 0,12.029 9.694,21.723 21.723,21.723 4.668,0 9.036,-1.496 12.567,-4.01 l 13.524,13.524 c 1.196,1.197 3.231,1.197 4.428,0 L 332,421.372 c 1.198,-1.195 1.198,-3.171 10e-4,-4.427 z m -31.178,-10.892 c -8.438,0 -15.26,-6.822 -15.26,-15.26 0,-8.438 6.822,-15.26 15.26,-15.26 8.438,0 15.26,6.822 15.26,15.26 0,8.438 -6.821,15.26 -15.26,15.26 z"
       id="path24405"
       inkscape:connector-curvature="0" /><path
       d="m 293.583,388.04 c -1.496,0 -2.693,1.197 -2.693,2.693 0,1.496 1.197,2.693 2.693,2.693 l 14.481,0 c 1.496,0 2.692,-1.197 2.692,-2.693 0,-1.496 -1.196,-2.693 -2.692,-2.693 l -14.481,0 z"
       id="path24407"
       inkscape:connector-curvature="0" /></g></svg>