<?xml version="1.0" encoding="UTF-8" standalone="no"?>
<!-- Generator: Adobe Illustrator 19.0.0, SVG Export Plug-In . SVG Version: 6.00 Build 0)  -->

<svg
   xmlns:dc="http://purl.org/dc/elements/1.1/"
   xmlns:cc="http://creativecommons.org/ns#"
   xmlns:rdf="http://www.w3.org/1999/02/22-rdf-syntax-ns#"
   xmlns:svg="http://www.w3.org/2000/svg"
   xmlns="http://www.w3.org/2000/svg"
   xmlns:sodipodi="http://sodipodi.sourceforge.net/DTD/sodipodi-0.dtd"
   xmlns:inkscape="http://www.inkscape.org/namespaces/inkscape"
   version="1.1"
   id="Layer_1"
   x="0px"
   y="0px"
   viewBox="0 0 48 48"
   xml:space="preserve"
   inkscape:version="0.91 r13725"
   sodipodi:docname="social-instagram.svg"
   width="48"
   height="48"><metadata
     id="metadata5242"><rdf:RDF><cc:Work
         rdf:about=""><dc:format>image/svg+xml</dc:format><dc:type
           rdf:resource="http://purl.org/dc/dcmitype/StillImage" /><dc:title></dc:title></cc:Work></rdf:RDF></metadata><defs
     id="defs5240" /><sodipodi:namedview
     pagecolor="#ffffff"
     bordercolor="#666666"
     borderopacity="1"
     objecttolerance="10"
     gridtolerance="10"
     guidetolerance="10"
     inkscape:pageopacity="0"
     inkscape:pageshadow="2"
     inkscape:window-width="1792"
     inkscape:window-height="1071"
     id="namedview5238"
     showgrid="false"
     inkscape:zoom="1.7131429"
     inkscape:cx="69.362821"
     inkscape:cy="-66.037203"
     inkscape:window-x="0"
     inkscape:window-y="0"
     inkscape:window-maximized="1"
     inkscape:current-layer="Layer_1" /><g
     id="XMLID_13_"
     transform="matrix(0.08347942,0,0,0.08347942,1.0000006,1.0000006)"><linearGradient
       id="XMLID_2_"
       gradientUnits="userSpaceOnUse"
       x1="275.517"
       y1="4.5714002"
       x2="275.517"
       y2="549.72021"
       gradientTransform="matrix(1,0,0,-1,0,554)"><stop
         offset="0"
         style="stop-color:#E09B3D"
         id="stop5179" /><stop
         offset="0.3"
         style="stop-color:#C74C4D"
         id="stop5181" /><stop
         offset="0.6"
         style="stop-color:#C21975"
         id="stop5183" /><stop
         offset="1"
         style="stop-color:#7024C4"
         id="stop5185" /></linearGradient><path
       id="XMLID_17_"
       style="fill:url(#XMLID_2_)"
       d="M 386.878,0 164.156,0 C 73.64,0 0,73.64 0,164.156 l 0,222.722 c 0,90.516 73.64,164.156 164.156,164.156 l 222.722,0 c 90.516,0 164.156,-73.64 164.156,-164.156 l 0,-222.722 C 551.033,73.64 477.393,0 386.878,0 Z M 495.6,386.878 c 0,60.045 -48.677,108.722 -108.722,108.722 l -222.722,0 C 104.111,495.6 55.434,446.923 55.434,386.878 l 0,-222.722 c 0,-60.046 48.677,-108.722 108.722,-108.722 l 222.722,0 c 60.045,0 108.722,48.676 108.722,108.722 l 0,222.722 0,0 z"
       inkscape:connector-curvature="0" /><linearGradient
       id="XMLID_3_"
       gradientUnits="userSpaceOnUse"
       x1="275.517"
       y1="4.5714002"
       x2="275.517"
       y2="549.72021"
       gradientTransform="matrix(1,0,0,-1,0,554)"><stop
         offset="0"
         style="stop-color:#E09B3D"
         id="stop5189" /><stop
         offset="0.3"
         style="stop-color:#C74C4D"
         id="stop5191" /><stop
         offset="0.6"
         style="stop-color:#C21975"
         id="stop5193" /><stop
         offset="1"
         style="stop-color:#7024C4"
         id="stop5195" /></linearGradient><path
       id="XMLID_81_"
       style="fill:url(#XMLID_3_)"
       d="M 275.517,133 C 196.933,133 133,196.933 133,275.516 c 0,78.583 63.933,142.517 142.517,142.517 78.584,0 142.517,-63.933 142.517,-142.517 C 418.034,196.932 354.101,133 275.517,133 Z m 0,229.6 c -48.095,0 -87.083,-38.988 -87.083,-87.083 0,-48.095 38.989,-87.083 87.083,-87.083 48.095,0 87.083,38.988 87.083,87.083 0,48.094 -38.989,87.083 -87.083,87.083 z"
       inkscape:connector-curvature="0" /><linearGradient
       id="XMLID_4_"
       gradientUnits="userSpaceOnUse"
       x1="418.306"
       y1="4.5714002"
       x2="418.306"
       y2="549.72021"
       gradientTransform="matrix(1,0,0,-1,0,554)"><stop
         offset="0"
         style="stop-color:#E09B3D"
         id="stop5199" /><stop
         offset="0.3"
         style="stop-color:#C74C4D"
         id="stop5201" /><stop
         offset="0.6"
         style="stop-color:#C21975"
         id="stop5203" /><stop
         offset="1"
         style="stop-color:#7024C4"
         id="stop5205" /></linearGradient><circle
       id="XMLID_83_"
       style="fill:url(#XMLID_4_)"
       cx="418.306"
       cy="134.07201"
       r="34.148998" /></g><g
     id="g5208"
     transform="translate(0,-503.034)" /><g
     id="g5210"
     transform="translate(0,-503.034)" /><g
     id="g5212"
     transform="translate(0,-503.034)" /><g
     id="g5214"
     transform="translate(0,-503.034)" /><g
     id="g5216"
     transform="translate(0,-503.034)" /><g
     id="g5218"
     transform="translate(0,-503.034)" /><g
     id="g5220"
     transform="translate(0,-503.034)" /><g
     id="g5222"
     transform="translate(0,-503.034)" /><g
     id="g5224"
     transform="translate(0,-503.034)" /><g
     id="g5226"
     transform="translate(0,-503.034)" /><g
     id="g5228"
     transform="translate(0,-503.034)" /><g
     id="g5230"
     transform="translate(0,-503.034)" /><g
     id="g5232"
     transform="translate(0,-503.034)" /><g
     id="g5234"
     transform="translate(0,-503.034)" /><g
     id="g5236"
     transform="translate(0,-503.034)" /></svg>