<?xml version="1.0" encoding="UTF-8" standalone="no"?>
<!-- Generator: Adobe Illustrator 16.0.0, SVG Export Plug-In . SVG Version: 6.00 Build 0)  -->

<svg
   xmlns:dc="http://purl.org/dc/elements/1.1/"
   xmlns:cc="http://creativecommons.org/ns#"
   xmlns:rdf="http://www.w3.org/1999/02/22-rdf-syntax-ns#"
   xmlns:svg="http://www.w3.org/2000/svg"
   xmlns="http://www.w3.org/2000/svg"
   xmlns:sodipodi="http://sodipodi.sourceforge.net/DTD/sodipodi-0.dtd"
   xmlns:inkscape="http://www.inkscape.org/namespaces/inkscape"
   version="1.1"
   id="Layer_1"
   x="0px"
   y="0px"
   width="48"
   height="48"
   viewBox="235.134 325.134 48.000002 48.000002"
   enable-background="new 235.134 325.134 141.732 141.732"
   xml:space="preserve"
   inkscape:version="0.91 r13725"
   sodipodi:docname="global-file-import.svg"><metadata
     id="metadata4189"><rdf:RDF><cc:Work
         rdf:about=""><dc:format>image/svg+xml</dc:format><dc:type
           rdf:resource="http://purl.org/dc/dcmitype/StillImage" /><dc:title></dc:title></cc:Work></rdf:RDF></metadata><defs
     id="defs4187" /><sodipodi:namedview
     pagecolor="#ffffff"
     bordercolor="#666666"
     borderopacity="1"
     objecttolerance="10"
     gridtolerance="10"
     guidetolerance="10"
     inkscape:pageopacity="0"
     inkscape:pageshadow="2"
     inkscape:window-width="1792"
     inkscape:window-height="1071"
     id="namedview4185"
     showgrid="false"
     inkscape:zoom="6.103068"
     inkscape:cx="70.865997"
     inkscape:cy="70.865997"
     inkscape:window-x="0"
     inkscape:window-y="0"
     inkscape:window-maximized="1"
     inkscape:current-layer="Layer_1" /><path
     d="m 254.53427,337.06205 5.13474,5.13271 16.11824,-16.06076 6.34675,6.34742 -16.05806,16.12196 5.12933,5.13069 -16.67134,0 0,-16.67202 z m 27.59973,12.07212 0,10.22215 c 0,7.15543 -5.62191,12.77768 -12.77768,12.77768 l -20.44464,0 c -7.15543,0 -12.77768,-5.62225 -12.77768,-12.77768 l 0,-20.44464 c 0,-7.15577 5.62225,-12.77768 12.77768,-12.77768 l 10.22249,0 0,6.6446 -10.22215,0 c -3.57788,0 -6.13342,2.55553 -6.13342,6.13342 l 0,20.44463 c 0,3.57755 2.55554,6.13343 6.13342,6.13343 l 20.44464,0 c 3.57755,0 6.13376,-2.55588 6.13376,-6.13343 l 0,-10.22248 6.64358,0 z"
     id="path4183"
     inkscape:connector-curvature="0" /></svg>