<?xml version="1.0" encoding="UTF-8" standalone="no"?>
<!-- Generator: Adobe Illustrator 19.0.0, SVG Export Plug-In . SVG Version: 6.00 Build 0)  -->

<svg
   xmlns:dc="http://purl.org/dc/elements/1.1/"
   xmlns:cc="http://creativecommons.org/ns#"
   xmlns:rdf="http://www.w3.org/1999/02/22-rdf-syntax-ns#"
   xmlns:svg="http://www.w3.org/2000/svg"
   xmlns="http://www.w3.org/2000/svg"
   xmlns:sodipodi="http://sodipodi.sourceforge.net/DTD/sodipodi-0.dtd"
   xmlns:inkscape="http://www.inkscape.org/namespaces/inkscape"
   version="1.1"
   id="Layer_1"
   x="0px"
   y="0px"
   viewBox="0 0 48 48"
   xml:space="preserve"
   inkscape:version="0.91 r13725"
   sodipodi:docname="global-social-instagram.svg"
   width="48"
   height="48"><metadata
     id="metadata5242"><rdf:RDF><cc:Work
         rdf:about=""><dc:format>image/svg+xml</dc:format><dc:type
           rdf:resource="http://purl.org/dc/dcmitype/StillImage" /><dc:title /></cc:Work></rdf:RDF></metadata><defs
     id="defs5240"><radialGradient
       cx="19.111099"
       cy="128.4444"
       gradientUnits="userSpaceOnUse"
       id="Instagram_2_"
       r="163.5519"><stop
         offset="0"
         style="stop-color:#FFB140"
         id="stop4244" /><stop
         offset="0.2559"
         style="stop-color:#FF5445"
         id="stop4246" /><stop
         offset="0.599"
         style="stop-color:#FC2B82"
         id="stop4248" /><stop
         offset="1"
         style="stop-color:#8E40B7"
         id="stop4250" /></radialGradient></defs><sodipodi:namedview
     pagecolor="#ffffff"
     bordercolor="#666666"
     borderopacity="1"
     objecttolerance="10"
     gridtolerance="10"
     guidetolerance="10"
     inkscape:pageopacity="0"
     inkscape:pageshadow="2"
     inkscape:window-width="1792"
     inkscape:window-height="1071"
     id="namedview5238"
     showgrid="false"
     inkscape:zoom="1.7131429"
     inkscape:cx="69.362821"
     inkscape:cy="-66.037203"
     inkscape:window-x="0"
     inkscape:window-y="0"
     inkscape:window-maximized="1"
     inkscape:current-layer="Layer_1" /><g
     id="g5208"
     transform="translate(0,-503.034)" /><g
     id="g5210"
     transform="translate(0,-503.034)" /><g
     id="g5212"
     transform="translate(0,-503.034)" /><g
     id="g5214"
     transform="translate(0,-503.034)" /><g
     id="g5216"
     transform="translate(0,-503.034)" /><g
     id="g5218"
     transform="translate(0,-503.034)" /><g
     id="g5220"
     transform="translate(0,-503.034)" /><g
     id="g5222"
     transform="translate(0,-503.034)" /><g
     id="g5224"
     transform="translate(0,-503.034)" /><g
     id="g5226"
     transform="translate(0,-503.034)" /><g
     id="g5228"
     transform="translate(0,-503.034)" /><g
     id="g5230"
     transform="translate(0,-503.034)" /><g
     id="g5232"
     transform="translate(0,-503.034)" /><g
     id="g5234"
     transform="translate(0,-503.034)" /><g
     id="g5236"
     transform="translate(0,-503.034)" /><g
     id="_x37__stroke"
     transform="matrix(0.34375,0,0,0.34375,2,2)"><g
       id="Instagram_1_"><rect
         style="clip-rule:evenodd;fill:none;fill-rule:evenodd"
         y="0"
         x="0"
         height="128"
         width="128"
         id="rect4241" /><radialGradient
         cx="19.111099"
         cy="128.4444"
         gradientUnits="userSpaceOnUse"
         id="radialGradient4842"
         r="163.5519"><stop
           offset="0"
           style="stop-color:#FFB140"
           id="stop4844" /><stop
           offset="0.2559"
           style="stop-color:#FF5445"
           id="stop4846" /><stop
           offset="0.599"
           style="stop-color:#FC2B82"
           id="stop4848" /><stop
           offset="1"
           style="stop-color:#8E40B7"
           id="stop4850" /></radialGradient><path
         style="clip-rule:evenodd;fill:url(#Instagram_2_);fill-rule:evenodd"
         inkscape:connector-curvature="0"
         d="m 105.843,29.837 c 0,4.242 -3.439,7.68 -7.68,7.68 -4.241,0 -7.68,-3.438 -7.68,-7.68 0,-4.242 3.439,-7.68 7.68,-7.68 4.242,0 7.68,3.438 7.68,7.68 z M 64,85.333 C 52.218,85.333 42.667,75.782 42.667,64 42.667,52.218 52.218,42.667 64,42.667 75.782,42.667 85.333,52.218 85.333,64 85.333,75.782 75.782,85.333 64,85.333 Z M 64,31.135 C 45.849,31.135 31.135,45.849 31.135,64 31.135,82.151 45.849,96.865 64,96.865 82.151,96.865 96.865,82.151 96.865,64 96.865,45.849 82.151,31.135 64,31.135 Z m 0,-19.603 c 17.089,0 19.113,0.065 25.861,0.373 6.24,0.285 9.629,1.327 11.884,2.204 2.987,1.161 5.119,2.548 7.359,4.788 2.24,2.239 3.627,4.371 4.788,7.359 0.876,2.255 1.919,5.644 2.204,11.884 0.308,6.749 0.373,8.773 0.373,25.862 0,17.089 -0.065,19.113 -0.373,25.861 -0.285,6.24 -1.327,9.629 -2.204,11.884 -1.161,2.987 -2.548,5.119 -4.788,7.359 -2.239,2.24 -4.371,3.627 -7.359,4.788 -2.255,0.876 -5.644,1.919 -11.884,2.204 -6.748,0.308 -8.772,0.373 -25.861,0.373 -17.09,0 -19.114,-0.065 -25.862,-0.373 -6.24,-0.285 -9.629,-1.327 -11.884,-2.204 -2.987,-1.161 -5.119,-2.548 -7.359,-4.788 -2.239,-2.239 -3.627,-4.371 -4.788,-7.359 C 13.231,99.492 12.188,96.103 11.903,89.863 11.595,83.114 11.53,81.09 11.53,64.002 c 0,-17.089 0.065,-19.113 0.373,-25.862 0.285,-6.24 1.327,-9.629 2.204,-11.884 1.161,-2.987 2.548,-5.119 4.788,-7.359 2.239,-2.24 4.371,-3.627 7.359,-4.788 2.255,-0.876 5.644,-1.919 11.884,-2.204 C 44.887,11.597 46.911,11.532 64,11.532 Z M 64,0 C 46.619,0 44.439,0.074 37.613,0.385 30.801,0.696 26.148,1.778 22.078,3.36 17.869,4.995 14.3,7.184 10.742,10.742 7.184,14.3 4.995,17.869 3.36,22.078 1.778,26.149 0.696,30.801 0.385,37.613 0.074,44.439 0,46.619 0,64 c 0,17.381 0.074,19.561 0.385,26.387 0.311,6.812 1.393,11.464 2.975,15.535 1.635,4.209 3.824,7.778 7.382,11.336 3.558,3.558 7.127,5.746 11.336,7.382 4.071,1.582 8.723,2.664 15.535,2.975 6.826,0.311 9.006,0.385 26.387,0.385 17.381,0 19.561,-0.074 26.387,-0.385 6.812,-0.311 11.464,-1.393 15.535,-2.975 4.209,-1.636 7.778,-3.824 11.336,-7.382 3.558,-3.558 5.746,-7.127 7.382,-11.336 1.582,-4.071 2.664,-8.723 2.975,-15.535 C 127.926,83.561 128,81.381 128,64 128,46.619 127.926,44.439 127.615,37.613 127.304,30.801 126.222,26.149 124.64,22.078 123.004,17.869 120.816,14.3 117.258,10.742 113.7,7.184 110.131,4.996 105.922,3.36 101.851,1.778 97.199,0.696 90.387,0.385 83.561,0.074 81.381,0 64,0 Z"
         id="Instagram" /></g></g></svg>