<?xml version="1.0" encoding="UTF-8" standalone="no"?>
<!-- Created with Inkscape (http://www.inkscape.org/) -->

<svg
   xmlns:dc="http://purl.org/dc/elements/1.1/"
   xmlns:cc="http://creativecommons.org/ns#"
   xmlns:rdf="http://www.w3.org/1999/02/22-rdf-syntax-ns#"
   xmlns:svg="http://www.w3.org/2000/svg"
   xmlns="http://www.w3.org/2000/svg"
   xmlns:sodipodi="http://sodipodi.sourceforge.net/DTD/sodipodi-0.dtd"
   xmlns:inkscape="http://www.inkscape.org/namespaces/inkscape"
   width="48"
   height="48"
   viewBox="0 0 48 48.000001"
   id="svg4145"
   version="1.1"
   inkscape:version="0.91 r13725"
   sodipodi:docname="drawing.svg">
  <defs
     id="defs4147" />
  <sodipodi:namedview
     id="base"
     pagecolor="#ffffff"
     bordercolor="#666666"
     borderopacity="1.0"
     inkscape:pageopacity="0.0"
     inkscape:pageshadow="2"
     inkscape:zoom="0.35"
     inkscape:cx="-293.57143"
     inkscape:cy="520"
     inkscape:document-units="px"
     inkscape:current-layer="layer1"
     showgrid="false"
     inkscape:window-width="1792"
     inkscape:window-height="1071"
     inkscape:window-x="0"
     inkscape:window-y="0"
     inkscape:window-maximized="1"
     units="px" />
  <metadata
     id="metadata4150">
    <rdf:RDF>
      <cc:Work
         rdf:about="">
        <dc:format>image/svg+xml</dc:format>
        <dc:type
           rdf:resource="http://purl.org/dc/dcmitype/StillImage" />
        <dc:title></dc:title>
      </cc:Work>
    </rdf:RDF>
  </metadata>
  <g
     inkscape:label="Camada 1"
     inkscape:groupmode="layer"
     id="layer1"
     transform="translate(0,-1004.3622)">
    <g
       id="g4758"
       transform="translate(104,847.42857)">
      <path
         style="fill:#000000"
         sodipodi:nodetypes="cssssssccsssssscc"
         inkscape:connector-curvature="0"
         id="path4249"
         d="m -57,180.96123 0,10.2222 c 0,7.1554 -5.62191,12.7777 -12.777684,12.7777 l -20.444632,0 c -7.155435,0 -12.777684,-5.6223 -12.777684,-12.7777 l 0,-20.4447 c 0,-7.1557 5.622249,-12.7776 12.777684,-12.7776 l 10.222485,0 0,6.6446 -10.222147,0 c -3.577887,0 -6.133424,2.5555 -6.133424,6.1334 l 0,20.4446 c 0,3.5776 2.555537,6.1334 6.133424,6.1334 l 20.444632,0 c 3.577549,0 6.133762,-2.5558 6.133762,-6.1334 l 0,-10.2225 z" />
      <path
         style="fill:#000000"
         sodipodi:nodetypes="ccccccccc"
         inkscape:connector-curvature="0"
         id="path4249-2"
         d="m -57.009557,174.57813 -5.13474,-5.1327 -16.118239,16.0608 -6.346751,-6.3475 16.058061,-16.1219 -5.12933,-5.1307 16.671337,0 0,16.672 z" />
    </g>
  </g>
</svg>
