<?xml version="1.0" encoding="UTF-8" standalone="no"?>
<svg
   xmlns:dc="http://purl.org/dc/elements/1.1/"
   xmlns:cc="http://creativecommons.org/ns#"
   xmlns:rdf="http://www.w3.org/1999/02/22-rdf-syntax-ns#"
   xmlns:svg="http://www.w3.org/2000/svg"
   xmlns="http://www.w3.org/2000/svg"
   xmlns:sodipodi="http://sodipodi.sourceforge.net/DTD/sodipodi-0.dtd"
   xmlns:inkscape="http://www.inkscape.org/namespaces/inkscape"
   version="1.1"
   x="0px"
   y="0px"
   viewBox="0 0 48 48"
   xml:space="preserve"
   id="svg4194"
   inkscape:version="0.91 r13725"
   sodipodi:docname="user.svg"
   width="48"
   height="48"><metadata
     id="metadata4212"><rdf:RDF><cc:Work
         rdf:about=""><dc:format>image/svg+xml</dc:format><dc:type
           rdf:resource="http://purl.org/dc/dcmitype/StillImage" /><dc:title></dc:title></cc:Work></rdf:RDF></metadata><defs
     id="defs4210" /><sodipodi:namedview
     pagecolor="#ffffff"
     bordercolor="#666666"
     borderopacity="1"
     objecttolerance="10"
     gridtolerance="10"
     guidetolerance="10"
     inkscape:pageopacity="0"
     inkscape:pageshadow="2"
     inkscape:window-width="1792"
     inkscape:window-height="1071"
     id="namedview4208"
     showgrid="false"
     inkscape:zoom="6.92"
     inkscape:cx="50"
     inkscape:cy="39.378613"
     inkscape:window-x="0"
     inkscape:window-y="0"
     inkscape:window-maximized="1"
     inkscape:current-layer="svg4194" /><g
     id="g4196"
     transform="matrix(0.63960845,0,0,0.63960845,-7.9807423,-9.2721118)"><g
       id="g4198"><path
         d="m 49.999,50.06 c 8.56,0 15.421,-9.707 15.421,-18.35 0,-8.643 -6.94,-15.65 -15.5,-15.65 -8.56,0 -15.5,7.007 -15.5,15.65 10e-4,8.643 7.019,18.35 15.579,18.35 z"
         id="path4200"
         inkscape:connector-curvature="0" /><path
         d="m 55.737,56.979 -11.527,0 C 31.944,56.979 22,66.909 22,79.159 l 0.053,2.623 c 0,3.422 2.778,6.197 6.206,6.197 l 43.536,0 c 3.427,0 6.206,-2.775 6.206,-6.197 L 77.948,79.159 C 77.947,66.909 68.004,56.979 55.737,56.979 Z"
         id="path4202"
         inkscape:connector-curvature="0" /></g></g></svg>