<?xml version="1.0" encoding="UTF-8" standalone="no"?>
<!-- Generator: Adobe Illustrator 15.1.0, SVG Export Plug-In . SVG Version: 6.00 Build 0)  -->

<svg
   xmlns:dc="http://purl.org/dc/elements/1.1/"
   xmlns:cc="http://creativecommons.org/ns#"
   xmlns:rdf="http://www.w3.org/1999/02/22-rdf-syntax-ns#"
   xmlns:svg="http://www.w3.org/2000/svg"
   xmlns="http://www.w3.org/2000/svg"
   xmlns:sodipodi="http://sodipodi.sourceforge.net/DTD/sodipodi-0.dtd"
   xmlns:inkscape="http://www.inkscape.org/namespaces/inkscape"
   version="1.1"
   id="Layer_1"
   x="0px"
   y="0px"
   width="48"
   height="48"
   viewBox="4 4 48 48"
   enable-background="new 4 4 24 24"
   xml:space="preserve"
   inkscape:version="0.91 r13725"
   sodipodi:docname="global-file.svg"><metadata
     id="metadata20294"><rdf:RDF><cc:Work
         rdf:about=""><dc:format>image/svg+xml</dc:format><dc:type
           rdf:resource="http://purl.org/dc/dcmitype/StillImage" /><dc:title></dc:title></cc:Work></rdf:RDF></metadata><defs
     id="defs20292" /><sodipodi:namedview
     pagecolor="#ffffff"
     bordercolor="#666666"
     borderopacity="1"
     objecttolerance="10"
     gridtolerance="10"
     guidetolerance="10"
     inkscape:pageopacity="0"
     inkscape:pageshadow="2"
     inkscape:window-width="1792"
     inkscape:window-height="1071"
     id="namedview20290"
     showgrid="false"
     inkscape:zoom="9.8333333"
     inkscape:cx="12"
     inkscape:cy="12"
     inkscape:window-x="0"
     inkscape:window-y="0"
     inkscape:window-maximized="1"
     inkscape:current-layer="Layer_1" /><path
     d="m -1,23 18,0 0,18 -18,0 0,-18 z"
     id="path20268"
     inkscape:connector-curvature="0"
     style="fill:none" /><g
     id="g20270"
     transform="matrix(2.0909091,0,0,2.0909091,-5.4545456,-5.4545456)"><path
       d="m 7.033,27 15.277,0 0,-19.259 -15.277,0 0,19.259 z m 1.33,-17.931 12.616,0 0,16.602 -12.616,0 0,-16.602 z"
       id="path20272"
       inkscape:connector-curvature="0" /><path
       d="m 11.932,6.33 11.706,0 0,10.067 1.329,0 0,-11.397 -13.035,0 0,1.33 z"
       id="path20274"
       inkscape:connector-curvature="0" /><path
       d="m 15.335,10.608 -5.644,0 0,5.644 5.644,0 0,-5.644 z m -1.327,4.317 -2.986,0 0,-2.987 2.986,0 0,2.987 z"
       id="path20276"
       inkscape:connector-curvature="0" /><path
       d="m 16.583,10.608 3.153,0 0,1.33 -3.153,0 0,-1.33 z"
       id="path20278"
       inkscape:connector-curvature="0" /><path
       d="m 16.583,12.766 3.153,0 0,1.33 -3.153,0 0,-1.33 z"
       id="path20280"
       inkscape:connector-curvature="0" /><path
       d="m 16.583,15.09 3.153,0 0,1.328 -3.153,0 0,-1.328 z"
       id="path20282"
       inkscape:connector-curvature="0" /><path
       d="m 9.608,17.869 10.128,0 0,1.326 -10.128,0 0,-1.326 z"
       id="path20284"
       inkscape:connector-curvature="0" /><path
       d="m 9.608,20.31 10.128,0 0,1.329 -10.128,0 0,-1.329 z"
       id="path20286"
       inkscape:connector-curvature="0" /><path
       d="m 9.608,22.602 10.128,0 0,1.329 -10.128,0 0,-1.329 z"
       id="path20288"
       inkscape:connector-curvature="0" /></g></svg>