<?xml version="1.0" encoding="UTF-8" standalone="no"?>
<svg
   xmlns:dc="http://purl.org/dc/elements/1.1/"
   xmlns:cc="http://creativecommons.org/ns#"
   xmlns:rdf="http://www.w3.org/1999/02/22-rdf-syntax-ns#"
   xmlns:svg="http://www.w3.org/2000/svg"
   xmlns="http://www.w3.org/2000/svg"
   xmlns:sodipodi="http://sodipodi.sourceforge.net/DTD/sodipodi-0.dtd"
   xmlns:inkscape="http://www.inkscape.org/namespaces/inkscape"
   version="1.1"
   x="0px"
   y="0px"
   viewBox="0 0 48 48"
   xml:space="preserve"
   id="svg6770"
   inkscape:version="0.91 r13725"
   sodipodi:docname="user-location.svg"
   width="48"
   height="48"><metadata
     id="metadata6790"><rdf:RDF><cc:Work
         rdf:about=""><dc:format>image/svg+xml</dc:format><dc:type
           rdf:resource="http://purl.org/dc/dcmitype/StillImage" /><dc:title></dc:title></cc:Work></rdf:RDF></metadata><defs
     id="defs6788" /><sodipodi:namedview
     pagecolor="#ffffff"
     bordercolor="#666666"
     borderopacity="1"
     objecttolerance="10"
     gridtolerance="10"
     guidetolerance="10"
     inkscape:pageopacity="0"
     inkscape:pageshadow="2"
     inkscape:window-width="1792"
     inkscape:window-height="1071"
     id="namedview6786"
     showgrid="false"
     inkscape:zoom="1.888"
     inkscape:cx="50"
     inkscape:cy="62.5"
     inkscape:window-x="0"
     inkscape:window-y="0"
     inkscape:window-maximized="1"
     inkscape:current-layer="svg6770" /><g
     id="g6772"
     transform="matrix(0.63888889,0,0,0.63888889,-6.6666667,-9.2346806)"><g
       id="g6774"><path
         d="m 39.999,50.06 c 8.56,0 15.421,-9.707 15.421,-18.35 0,-8.643 -6.94,-15.65 -15.5,-15.65 -8.56,0 -15.5,7.007 -15.5,15.65 10e-4,8.643 7.019,18.35 15.579,18.35 z"
         id="path6776"
         inkscape:connector-curvature="0" /><path
         d="m 45.737,56.979 -11.527,0 C 21.944,56.979 12,66.909 12,79.159 l 0.053,2.623 c 0,3.422 2.778,6.197 6.206,6.197 l 43.536,0 c 3.427,0 6.206,-2.775 6.206,-6.197 L 67.948,79.159 C 67.947,66.909 58.004,56.979 45.737,56.979 Z"
         id="path6778"
         inkscape:connector-curvature="0" /><path
         d="m 76,38 c -4.418,0 -8,3.582 -8,8 0,3.112 3.969,9.779 6.316,13.448 0.788,1.232 2.58,1.232 3.368,0 C 80.031,55.779 84,49.112 84,46 84,41.582 80.418,38 76,38 Z m 0,11 c -2.209,0 -4,-1.791 -4,-4 0,-2.209 1.791,-4 4,-4 2.209,0 4,1.791 4,4 0,2.209 -1.791,4 -4,4 z"
         id="path6780"
         inkscape:connector-curvature="0" /></g></g></svg>