<?xml version="1.0" encoding="utf-8"?>
<!-- Generator: Adobe Illustrator 15.1.0, SVG Export Plug-In . SVG Version: 6.00 Build 0)  -->
<!DOCTYPE svg PUBLIC "-//W3C//DTD SVG 1.1//EN" "http://www.w3.org/Graphics/SVG/1.1/DTD/svg11.dtd">
<svg version="1.1" id="Layer_1" xmlns="http://www.w3.org/2000/svg" xmlns:xlink="http://www.w3.org/1999/xlink" x="0px" y="0px"
	 width="24px" height="24px" viewBox="0 0 24 24" enable-background="new 0 0 24 24" xml:space="preserve">
<g>
	<path d="M12.079,3.789c-3.156,0-5.723,2.566-5.723,5.72c0,1.61,0.838,2.856,1.515,3.861c0.382,0.566,0.778,1.151,0.778,1.49h1.679
		c0-0.853-0.517-1.619-1.066-2.432c-0.604-0.896-1.226-1.821-1.226-2.919c0-2.228,1.814-4.041,4.043-4.041
		c2.229,0,4.042,1.813,4.042,4.041c0,1.096-0.623,2.022-1.226,2.918c-0.549,0.812-1.067,1.58-1.067,2.433h1.68
		c0-0.34,0.396-0.926,0.781-1.497c0.673-1,1.511-2.245,1.511-3.854C17.8,6.355,15.233,3.789,12.079,3.789z"/>
	<path d="M8.695,19.953C8.695,19.918,8.692,19.987,8.695,19.953L8.695,19.953z"/>
	<path d="M12.024,6.474c-1.636,0-2.967,1.332-2.967,2.968h1.501c0-0.809,0.657-1.467,1.466-1.467V6.474z"/>
	<path d="M12.083,23.5c0.728,0,1.333-0.521,1.468-1.209h-2.935C10.75,22.98,11.356,23.5,12.083,23.5z"/>
	<rect x="11.152" y="0.5" width="1.376" height="2.354"/>
	<rect x="2.699" y="7.86" width="2.354" height="1.376"/>
	<rect x="18.947" y="7.861" width="2.354" height="1.375"/>
	<rect x="16.95" y="2.394" transform="matrix(-0.7089 -0.7053 0.7053 -0.7089 27.6219 18.5429)" width="1.376" height="2.354"/>
	<rect x="5.084" y="2.637" transform="matrix(-0.7055 -0.7087 0.7087 -0.7055 8.323 10.1081)" width="2.354" height="1.377"/>
	<polygon points="8.768,16.797 12.084,16.797 8.815,17.939 8.815,19.033 15.556,16.676 15.556,15.765 8.768,15.765 	"/>
	<path d="M9.337,20.502c0.042,0.052,0.99,1.175,2.849,1.332v-1.038c-0.591-0.063-1.054-0.245-1.388-0.434l4.757-1.6v-1.088
		L8.86,19.924L9.337,20.502z"/>
</g>
</svg>
