<?xml version="1.0" encoding="utf-8"?>
<!-- Generator: Adobe Illustrator 15.1.0, SVG Export Plug-In . SVG Version: 6.00 Build 0)  -->
<!DOCTYPE svg PUBLIC "-//W3C//DTD SVG 1.1//EN" "http://www.w3.org/Graphics/SVG/1.1/DTD/svg11.dtd">
<svg version="1.1" id="Layer_1" xmlns="http://www.w3.org/2000/svg" xmlns:xlink="http://www.w3.org/1999/xlink" x="0px" y="0px"
	 width="48px" height="48px" viewBox="-11.5 -11.5 48 48" enable-background="new -11.5 -11.5 48 48" xml:space="preserve">
<g>
	<path fill="#010101" d="M25.1,22.594H36c0-5.217-4.069-9.965-9.128-9.965c-2.139,0-4.121,0.781-5.686,2.14
		C23.272,16.753,24.683,19.465,25.1,22.594z"/>
	<circle fill="#010101" cx="26.872" cy="7.309" r="4.851"/>
	<path fill="#010101" d="M3.867,14.821c-1.564-1.409-3.548-2.293-5.739-2.293C-6.88,12.528-11,17.325-11,22.542h10.902
		C0.319,19.465,1.78,16.803,3.867,14.821z"/>
	<circle fill="#010101" cx="-1.872" cy="7.309" r="4.851"/>
	<circle fill="#010101" cx="12.528" cy="5.796" r="6.102"/>
	<path fill="#010101" d="M0.999,25.306c0-6.988,5.165-12.677,11.474-12.677c6.314,0,11.479,5.688,11.479,12.677H0.999z"/>
</g>
</svg>
