<?xml version="1.0" encoding="utf-8"?>
<!-- Generator: Adobe Illustrator 15.1.0, SVG Export Plug-In . SVG Version: 6.00 Build 0)  -->
<!DOCTYPE svg PUBLIC "-//W3C//DTD SVG 1.1//EN" "http://www.w3.org/Graphics/SVG/1.1/DTD/svg11.dtd">
<svg version="1.1" id="Layer_1" xmlns="http://www.w3.org/2000/svg" xmlns:xlink="http://www.w3.org/1999/xlink" x="0px" y="0px"
	 width="16px" height="16px" viewBox="0 0 16 16" enable-background="new 0 0 16 16" xml:space="preserve">
<path fill="#010101" d="M6.239,12.662c0-0.115,0.054-0.225,0.146-0.295c0.092-0.072,0.211-0.098,0.323-0.066l2.304,0.602V9.744
	l-2.299,0.635c-0.112,0.033-0.232,0.01-0.326-0.061c-0.093-0.072-0.147-0.182-0.147-0.301V5.927c0-0.117,0.054-0.226,0.146-0.296
	c0.092-0.071,0.211-0.095,0.323-0.065l2.304,0.603V3.003L6.71,3.622c-0.112,0.03-0.232,0.006-0.324-0.064S6.239,3.376,6.239,3.26
	V0.516H2.621C1.455,0.516,0.5,1.471,0.5,2.637v10.724c0,1.168,0.955,2.123,2.121,2.123h3.618V12.662z M13.379,0.516H6.988v2.256
	l2.301-0.618c0.113-0.03,0.232-0.007,0.325,0.064c0.092,0.071,0.146,0.18,0.146,0.297v4.137c0,0.116-0.055,0.226-0.146,0.296
	C9.523,7.02,9.404,7.043,9.292,7.015L6.987,6.411v3.116L9.286,8.89C9.4,8.859,9.52,8.883,9.612,8.953
	c0.094,0.07,0.148,0.182,0.148,0.298v4.138c0,0.115-0.055,0.225-0.146,0.295c-0.091,0.072-0.21,0.096-0.322,0.066l-2.305-0.602
	v2.336h6.392c1.167,0,2.121-0.955,2.121-2.123V2.637C15.5,1.471,14.546,0.516,13.379,0.516z"/>
</svg>
