<?xml version="1.0" encoding="UTF-8" standalone="no"?>
<svg
   xmlns:dc="http://purl.org/dc/elements/1.1/"
   xmlns:cc="http://creativecommons.org/ns#"
   xmlns:rdf="http://www.w3.org/1999/02/22-rdf-syntax-ns#"
   xmlns:svg="http://www.w3.org/2000/svg"
   xmlns="http://www.w3.org/2000/svg"
   xmlns:sodipodi="http://sodipodi.sourceforge.net/DTD/sodipodi-0.dtd"
   xmlns:inkscape="http://www.inkscape.org/namespaces/inkscape"
   version="1.1"
   x="0px"
   y="0px"
   viewBox="0 0 48 48"
   id="svg4173"
   inkscape:version="0.91 r13725"
   sodipodi:docname="search.svg"
   width="48"
   height="48">
  <metadata
     id="metadata4189">
    <rdf:RDF>
      <cc:Work
         rdf:about="">
        <dc:format>image/svg+xml</dc:format>
        <dc:type
           rdf:resource="http://purl.org/dc/dcmitype/StillImage" />
        <dc:title></dc:title>
      </cc:Work>
    </rdf:RDF>
  </metadata>
  <defs
     id="defs4187" />
  <sodipodi:namedview
     pagecolor="#ffffff"
     bordercolor="#666666"
     borderopacity="1"
     objecttolerance="10"
     gridtolerance="10"
     guidetolerance="10"
     inkscape:pageopacity="0"
     inkscape:pageshadow="2"
     inkscape:window-width="1792"
     inkscape:window-height="1071"
     id="namedview4185"
     showgrid="false"
     inkscape:zoom="14.08"
     inkscape:cx="11.085013"
     inkscape:cy="3.0389973"
     inkscape:window-x="0"
     inkscape:window-y="0"
     inkscape:window-maximized="1"
     inkscape:current-layer="svg4173" />
  <g
     transform="matrix(0.5609083,0,0,0.5609083,-4.045415,-538.23327)"
     id="g4175">
    <g
       transform="translate(8.9950798,961.32626)"
       id="g4177">
      <path
         d="M 34.015747,0.03543307 C 15.307086,0.03543307 0,15.307086 0,34.015747 c 0,18.708661 15.307086,34.015748 34.015747,34.015748 7.192914,0 13.854331,-2.30315 19.346457,-6.129921 l 18.389763,18.35433 c 2.338583,2.374016 6.165354,2.374016 8.503937,0 2.338582,-2.338583 2.338582,-6.129921 0,-8.468504 L 61.86614,53.397637 c 3.862205,-5.527559 6.129922,-12.188976 6.129922,-19.38189 0,-18.708661 -15.307087,-33.98031393 -33.980315,-33.98031393 z m 0,11.97637793 c 12.188976,0 21.968504,9.779527 21.968504,22.003936 0,12.22441 -9.779528,22.003937 -21.968504,22.003937 -12.224409,0 -22.003936,-9.779527 -22.003936,-22.003937 0,-12.224409 9.779527,-22.003936 22.003936,-22.003936 z"
         style="fill:#000000;fill-opacity:1;fill-rule:nonzero;stroke:none"
         id="path4179"
         inkscape:connector-curvature="0" />
    </g>
  </g>
</svg>
