<?xml version="1.0" encoding="utf-8"?>
<!-- Generator: Adobe Illustrator 15.0.0, SVG Export Plug-In . SVG Version: 6.00 Build 0)  -->
<!DOCTYPE svg PUBLIC "-//W3C//DTD SVG 1.1//EN" "http://www.w3.org/Graphics/SVG/1.1/DTD/svg11.dtd">
<svg version="1.1" id="Layer_1" xmlns="http://www.w3.org/2000/svg" xmlns:xlink="http://www.w3.org/1999/xlink" x="0px" y="0px"
	 width="16px" height="16px" viewBox="0 0 16 16" enable-background="new 0 0 16 16" xml:space="preserve">
<path d="M14.221,6.638h-1.95c-0.116-0.374-0.279-0.728-0.477-1.056l1.292-1.296c0.306-0.302,0.306-0.795,0-1.1l-0.549-0.549
	c-0.305-0.303-0.797-0.301-1.099,0l-1.316,1.314C9.767,3.75,9.381,3.593,8.971,3.488V1.779C8.971,1.35,8.624,1,8.193,1H7.417
	C6.988,1,6.64,1.35,6.64,1.779v1.709C6.193,3.601,5.774,3.78,5.389,4.013L4.288,2.912c-0.303-0.301-0.797-0.303-1.101,0l-0.551,0.55
	c-0.303,0.304-0.3,0.798,0.002,1.102l1.121,1.121C3.522,6.098,3.345,6.548,3.243,7.028H1.779C1.349,7.028,1,7.375,1,7.806v0.776
	c0,0.43,0.349,0.777,0.779,0.777h1.563c0.142,0.469,0.355,0.9,0.629,1.293l-1.057,1.059C2.61,12.016,2.61,12.51,2.912,12.813
	l0.549,0.549c0.305,0.303,0.799,0.303,1.102-0.002l1.182-1.18c0.398,0.197,0.829,0.34,1.284,0.414v1.627
	c0,0.43,0.348,0.777,0.776,0.779h0.778c0.429-0.002,0.777-0.35,0.777-0.779v-1.826c0.392-0.141,0.764-0.326,1.1-0.561l1.252,1.252
	c0.304,0.305,0.795,0.305,1.101,0l0.549-0.549c0.306-0.305,0.306-0.797-0.002-1.102l-1.372-1.375c0.169-0.34,0.3-0.705,0.381-1.09
	h1.853c0.431,0,0.777-0.346,0.779-0.778V7.417C14.998,6.988,14.651,6.638,14.221,6.638z M7.807,9.943
	C6.733,9.943,5.863,9.074,5.863,8c0-1.074,0.871-1.943,1.944-1.943c1.074,0,1.945,0.869,1.945,1.943
	C9.752,9.074,8.881,9.943,7.807,9.943z"/>
</svg>
