<?xml version="1.0" encoding="UTF-8" standalone="no"?>
<svg
   xmlns:dc="http://purl.org/dc/elements/1.1/"
   xmlns:cc="http://creativecommons.org/ns#"
   xmlns:rdf="http://www.w3.org/1999/02/22-rdf-syntax-ns#"
   xmlns:svg="http://www.w3.org/2000/svg"
   xmlns="http://www.w3.org/2000/svg"
   xmlns:sodipodi="http://sodipodi.sourceforge.net/DTD/sodipodi-0.dtd"
   xmlns:inkscape="http://www.inkscape.org/namespaces/inkscape"
   viewBox="0 0 48 48"
   version="1.1"
   x="0px"
   y="0px"
   id="svg4210"
   inkscape:version="0.91 r13725"
   sodipodi:docname="order-success.svg"
   width="48"
   height="48">
  <metadata
     id="metadata4244">
    <rdf:RDF>
      <cc:Work
         rdf:about="">
        <dc:format>image/svg+xml</dc:format>
        <dc:type
           rdf:resource="http://purl.org/dc/dcmitype/StillImage" />
        <dc:title>197 - Success To Do List (interaction, communication, interface)</dc:title>
      </cc:Work>
    </rdf:RDF>
  </metadata>
  <defs
     id="defs4242" />
  <sodipodi:namedview
     pagecolor="#ffffff"
     bordercolor="#666666"
     borderopacity="1"
     objecttolerance="10"
     gridtolerance="10"
     guidetolerance="10"
     inkscape:pageopacity="0"
     inkscape:pageshadow="2"
     inkscape:window-width="1792"
     inkscape:window-height="1071"
     id="namedview4240"
     showgrid="false"
     inkscape:zoom="7.2083335"
     inkscape:cx="32.608467"
     inkscape:cy="25.326583"
     inkscape:window-x="0"
     inkscape:window-y="0"
     inkscape:window-maximized="1"
     inkscape:current-layer="svg4210" />
  <title
     id="title4212">197 - Success To Do List (interaction, communication, interface)</title>
  <desc
     id="desc4214">Created with Sketch.</desc>
  <g
     id="g4216"
     style="fill:none;fill-rule:evenodd;stroke:#000000;stroke-width:1;stroke-opacity:1"
     transform="matrix(1.9166667,0,0,1.9166667,1.0001913,0.9999996)">
    <g
       transform="translate(-244,-1987)"
       id="g4218"
       style="stroke:#000000;stroke-width:2;stroke-opacity:1">
      <g
         transform="translate(245,1988)"
         id="g4220"
         style="stroke:#000000;stroke-opacity:1">
        <polyline
           points="7.9999 15 5.8289 18.371 3.9999 17"
           id="polyline4222"
           style="stroke:#5d8a4a;stroke-linecap:round;stroke-linejoin:round;stroke-opacity:1" />
        <polyline
           points="7.9999 9 5.8289 12.371 3.9999 11"
           id="polyline4224"
           style="stroke:#5d8a4a;stroke-linecap:round;stroke-linejoin:round;stroke-opacity:1" />
        <path
           d="m 10.9999,5 6,0"
           id="path4226"
           style="stroke:#5d8a4a;stroke-linecap:round;stroke-linejoin:round;stroke-opacity:1"
           inkscape:connector-curvature="0" />
        <polyline
           points="7.9999 3 5.8289 6.371 3.9999 5"
           id="polyline4228"
           style="stroke:#5d8a4a;stroke-linecap:round;stroke-linejoin:round;stroke-opacity:1" />
        <path
           d="m 11.9999,17 c 0,-2.761 2.239,-5 5,-5 1.643,0 3.089,0.803 4,2.027 l 0,-11.023 C 20.9999,1.345 19.6549,0 17.9959,0 L 3.0039,0 C 1.3449,0 -1e-4,1.345 -1e-4,3.004 l 0,15.996 c 0,1.657 1.343,3 3,3 l 14,0 c -2.761,0 -5,-2.239 -5,-5 l 0,0 z"
           id="path4230"
           style="stroke:#5d8a4a;stroke-linecap:round;stroke-linejoin:round;stroke-opacity:1"
           inkscape:connector-curvature="0" />
        <path
           d="m 21.9999,17 c 0,2.761 -2.239,5 -5,5 -2.761,0 -5,-2.239 -5,-5 0,-2.761 2.239,-5 5,-5 2.761,0 5,2.239 5,5 l 0,0 z"
           id="path4232"
           style="stroke:#5d8a4a;stroke-opacity:1"
           inkscape:connector-curvature="0" />
        <polyline
           points="15.2499 17.3588 16.7499 18.8588 18.7499 15.8588"
           id="polyline4234"
           style="stroke:#5d8a4a;stroke-linecap:round;stroke-linejoin:round;stroke-opacity:1" />
      </g>
    </g>
  </g>
</svg>
