<?xml version="1.0" encoding="UTF-8" standalone="no"?>
<svg
   xmlns:dc="http://purl.org/dc/elements/1.1/"
   xmlns:cc="http://creativecommons.org/ns#"
   xmlns:rdf="http://www.w3.org/1999/02/22-rdf-syntax-ns#"
   xmlns:svg="http://www.w3.org/2000/svg"
   xmlns="http://www.w3.org/2000/svg"
   xmlns:sodipodi="http://sodipodi.sourceforge.net/DTD/sodipodi-0.dtd"
   xmlns:inkscape="http://www.inkscape.org/namespaces/inkscape"
   version="1.1"
   x="0px"
   y="0px"
   viewBox="0 0 48 48"
   enable-background="new 0 0 100 100"
   xml:space="preserve"
   id="svg2"
   inkscape:version="0.91 r13725"
   sodipodi:docname="site-search.svg"
   width="48"
   height="48"><metadata
     id="metadata28"><rdf:RDF><cc:Work
         rdf:about=""><dc:format>image/svg+xml</dc:format><dc:type
           rdf:resource="http://purl.org/dc/dcmitype/StillImage" /><dc:title /></cc:Work></rdf:RDF></metadata><defs
     id="defs26" /><sodipodi:namedview
     pagecolor="#ffffff"
     bordercolor="#666666"
     borderopacity="1"
     objecttolerance="10"
     gridtolerance="10"
     guidetolerance="10"
     inkscape:pageopacity="0"
     inkscape:pageshadow="2"
     inkscape:window-width="1792"
     inkscape:window-height="1071"
     id="namedview24"
     showgrid="false"
     inkscape:zoom="1.888"
     inkscape:cx="-73.940678"
     inkscape:cy="62.5"
     inkscape:window-x="0"
     inkscape:window-y="0"
     inkscape:window-maximized="1"
     inkscape:current-layer="svg2" /><g
     transform="matrix(1.4375,0,0,1.4375,1,1)"
     id="g8"><path
       inkscape:connector-curvature="0"
       d="M 0,29 32,29 32,3 0,3 0,29 Z M 1,4 31,4 31,28 1,28 1,4 Z"
       id="path10" /><path
       inkscape:connector-curvature="0"
       d="m 22.476,17.14 -18.476,0 0,6 18.476,0 5.519,0 0.005,0 0,-6 -0.005,0 -5.519,0 z m 0,5 -17.476,0 0,-4 17.476,0 0,4 z m 3.989,-0.515 -0.641,-0.641 c -0.215,0.149 -0.461,0.256 -0.741,0.256 -0.732,0 -1.329,-0.597 -1.329,-1.329 0,-0.732 0.597,-1.329 1.329,-1.329 0.732,0 1.329,0.597 1.329,1.329 0,0.269 -0.1,0.506 -0.239,0.715 l 0.645,0.645 -0.353,0.354 z"
       id="path12" /><circle
       cx="25.084"
       cy="19.910999"
       r="0.829"
       id="circle14" /><polygon
       points="14.663,13.378 12.938,11.653 12.231,12.36 14.702,14.831 19.774,9.195 19.03,8.525 "
       id="polygon16" /></g></svg>