<?xml version="1.0" encoding="UTF-8" standalone="no"?>
<svg
   xmlns:dc="http://purl.org/dc/elements/1.1/"
   xmlns:cc="http://creativecommons.org/ns#"
   xmlns:rdf="http://www.w3.org/1999/02/22-rdf-syntax-ns#"
   xmlns:svg="http://www.w3.org/2000/svg"
   xmlns="http://www.w3.org/2000/svg"
   xmlns:sodipodi="http://sodipodi.sourceforge.net/DTD/sodipodi-0.dtd"
   xmlns:inkscape="http://www.inkscape.org/namespaces/inkscape"
   version="1.1"
   x="0px"
   y="0px"
   viewBox="0 0 48 48"
   enable-background="new 0 0 65 65"
   xml:space="preserve"
   id="svg2"
   inkscape:version="0.91 r13725"
   sodipodi:docname="noun_986438_cc.svg"
   width="48"
   height="48"><metadata
     id="metadata22"><rdf:RDF><cc:Work
         rdf:about=""><dc:format>image/svg+xml</dc:format><dc:type
           rdf:resource="http://purl.org/dc/dcmitype/StillImage" /><dc:title></dc:title></cc:Work></rdf:RDF></metadata><defs
     id="defs20" /><sodipodi:namedview
     pagecolor="#ffffff"
     bordercolor="#666666"
     borderopacity="1"
     objecttolerance="10"
     gridtolerance="10"
     guidetolerance="10"
     inkscape:pageopacity="0"
     inkscape:pageshadow="2"
     inkscape:window-width="1792"
     inkscape:window-height="1071"
     id="namedview18"
     showgrid="false"
     inkscape:zoom="2.9046154"
     inkscape:cx="-48.061441"
     inkscape:cy="40.625"
     inkscape:window-x="0"
     inkscape:window-y="0"
     inkscape:window-maximized="1"
     inkscape:current-layer="svg2" /><g
     id="g4"
     transform="matrix(0.70229008,0,0,0.70229008,1.1404579,1.1404579)"><path
       d="m 4.9,57.1 36.9,0 -36.9,-32 0,32 z m 32.8,-1.5 -5.2,0 0,-2.6 -1.5,0 0,2.5 -3.9,0 0,-1.5 -1.5,0 0,1.5 -3.9,0 0,-2.5 -1.5,0 0,2.5 -3.9,0 0,-1.5 -1.5,0 0,1.5 -3.8,0 0,-2.5 -1.5,0 0,2.5 -3.1,0 0,-3.8 2.5,0 0,-1.5 -2.5,0 0,-3 1.5,0 0,-1.5 -1.5,0 0,-3 2.5,0 0,-1.5 -2.5,0 0,-3 1.5,0 0,-1.5 -1.5,0 0,-3 2.5,0 0,-1.5 -2.5,0 0,-3.7 31.3,27.1 z"
       id="path6"
       inkscape:connector-curvature="0" /><path
       d="m 10.7,36.9 0,13.9 16,0 -16,-13.9 z m 1.5,3.2 10.5,9.1 -10.5,0 0,-9.1 z"
       id="path8"
       inkscape:connector-curvature="0" /><path
       d="m 58.5,2.8 c -0.6,0 -2.3,0.1 -2.3,0.1 l -0.7,0 0,8.5 -55.7,0 0,50.9 58.1,0 c 4.1,0 7.4,-3.3 7.4,-7.4 0,0 0,0 0,-0.1 l 0,-45.7 c 0,-3.6 -3,-6.3 -6.8,-6.3 z m -0.6,57.9 -56.6,0 0,-47.9 54.2,0 0,35.4 0.2,1.1 0.8,-0.2 c 0.4,-0.1 1.1,-0.2 1.5,-0.2 3.2,0 5.9,2.6 5.9,5.9 -0.2,3.3 -2.8,5.9 -6,5.9 z m 5.9,-10.3 c -1.3,-1.8 -3.5,-2.9 -5.9,-2.9 -0.3,0 -0.6,0 -1,0.1 l 0,-43.3 c 0.5,0 1.2,0 1.6,0 3.1,0 5.3,2 5.3,4.9 l 0,41.2 z"
       id="path10"
       inkscape:connector-curvature="0" /><path
       d="m 42.7,22.7 0,25.5 c 0,1.6 1.3,3 3,3 1.6,0 3,-1.3 3,-3 l 0,-25.5 -3,-6 -3,6 z m 1.5,3.3 3,0 0,18.2 -3,0 0,-18.2 z m 1.5,23.7 c -0.8,0 -1.5,-0.7 -1.5,-1.5 l 0,-2.6 3,0 0,2.6 c -0.1,0.8 -0.7,1.5 -1.5,1.5 z m 1.4,-25.2 -3,0 0,-1.5 1.5,-3 1.5,3 0,1.5 z"
       id="path12"
       inkscape:connector-curvature="0" /></g></svg>