<?xml version="1.0" encoding="UTF-8" standalone="no"?>
<svg
   xmlns:dc="http://purl.org/dc/elements/1.1/"
   xmlns:cc="http://creativecommons.org/ns#"
   xmlns:rdf="http://www.w3.org/1999/02/22-rdf-syntax-ns#"
   xmlns:svg="http://www.w3.org/2000/svg"
   xmlns="http://www.w3.org/2000/svg"
   xmlns:sodipodi="http://sodipodi.sourceforge.net/DTD/sodipodi-0.dtd"
   xmlns:inkscape="http://www.inkscape.org/namespaces/inkscape"
   viewBox="0 0 48 48"
   version="1.1"
   x="0px"
   y="0px"
   id="svg4320"
   inkscape:version="0.91 r13725"
   sodipodi:docname="order-failure.svg"
   width="48"
   height="48">
  <metadata
     id="metadata4356">
    <rdf:RDF>
      <cc:Work
         rdf:about="">
        <dc:format>image/svg+xml</dc:format>
        <dc:type
           rdf:resource="http://purl.org/dc/dcmitype/StillImage" />
        <dc:title>196 - To Do List Warning (interaction, communication, interface)</dc:title>
      </cc:Work>
    </rdf:RDF>
  </metadata>
  <defs
     id="defs4354" />
  <sodipodi:namedview
     pagecolor="#ffffff"
     bordercolor="#666666"
     borderopacity="1"
     objecttolerance="10"
     gridtolerance="10"
     guidetolerance="10"
     inkscape:pageopacity="0"
     inkscape:pageshadow="2"
     inkscape:window-width="1792"
     inkscape:window-height="1071"
     id="namedview4352"
     showgrid="false"
     inkscape:zoom="7.8666667"
     inkscape:cx="-17.745763"
     inkscape:cy="15"
     inkscape:window-x="0"
     inkscape:window-y="0"
     inkscape:window-maximized="1"
     inkscape:current-layer="svg4320" />
  <title
     id="title4322">196 - To Do List Warning (interaction, communication, interface)</title>
  <desc
     id="desc4324">Created with Sketch.</desc>
  <g
     id="g4326"
     style="fill:none;fill-rule:evenodd;stroke:none;stroke-width:1"
     transform="matrix(1.916672,0,0,1.916672,1.0001923,0.99984017)">
    <g
       transform="translate(-292,-1987)"
       id="g4328">
      <g
         transform="translate(293,1988)"
         id="g4330">
        <polygon
           points="21.9999,22 7.9999,22 14.9999,9 "
           id="polygon4332"
           style="stroke:#ca534d;stroke-width:2;stroke-linecap:round;stroke-linejoin:round;stroke-opacity:1" />
        <path
           d="m 14.9999,15 0,1"
           id="path4334"
           inkscape:connector-curvature="0"
           style="stroke:#ca534d;stroke-width:2;stroke-linecap:round;stroke-linejoin:round;stroke-opacity:1" />
        <path
           d="m 15.9999,19 c 0,-0.552 -0.448,-1 -1,-1 -0.552,0 -1,0.448 -1,1 0,0.552 0.448,1 1,1 0.552,0 1,-0.448 1,-1"
           id="path4336"
           inkscape:connector-curvature="0"
           style="fill:#ca534d;fill-opacity:1" />
        <polyline
           points="7.9999 15 5.8289 18.371 3.9999 17"
           id="polyline4338"
           style="stroke:#ca534d;stroke-width:2;stroke-linecap:round;stroke-linejoin:round;stroke-opacity:1" />
        <polyline
           points="7.9999 9 5.8289 12.371 3.9999 11"
           id="polyline4340"
           style="stroke:#ca534d;stroke-width:2;stroke-linecap:round;stroke-linejoin:round;stroke-opacity:1" />
        <path
           d="m 10.9999,5 6,0"
           id="path4342"
           inkscape:connector-curvature="0"
           style="fill:#ca534d;fill-opacity:1;stroke:#ca534d;stroke-width:2;stroke-linecap:round;stroke-linejoin:round;stroke-opacity:1" />
        <polyline
           points="7.9999 3 5.8289 6.371 3.9999 5"
           id="polyline4344"
           style="stroke:#ca534d;stroke-width:2;stroke-linecap:round;stroke-linejoin:round;stroke-opacity:1" />
        <path
           d="m 20.9999,13 0,-9.996 C 20.9999,1.345 19.6549,0 17.9959,0 L 3.0039,0 C 1.3449,0 -1e-4,1.345 -1e-4,3.004 l 0,15.996 c 0,1.657 1.343,3 3,3 l 1,0"
           id="path4346"
           inkscape:connector-curvature="0"
           style="stroke:#ca534d;stroke-width:2;stroke-linecap:round;stroke-linejoin:round;stroke-opacity:1" />
      </g>
    </g>
  </g>
</svg>
