<?xml version="1.0" encoding="UTF-8" standalone="no"?>
<svg
   xmlns:dc="http://purl.org/dc/elements/1.1/"
   xmlns:cc="http://creativecommons.org/ns#"
   xmlns:rdf="http://www.w3.org/1999/02/22-rdf-syntax-ns#"
   xmlns:svg="http://www.w3.org/2000/svg"
   xmlns="http://www.w3.org/2000/svg"
   xmlns:sodipodi="http://sodipodi.sourceforge.net/DTD/sodipodi-0.dtd"
   xmlns:inkscape="http://www.inkscape.org/namespaces/inkscape"
   viewBox="0 0 48 48"
   version="1.1"
   x="0px"
   y="0px"
   id="svg32"
   sodipodi:docname="site-foundation-colors.svg"
   width="48"
   height="48"
   inkscape:version="0.92.1 r15371">
  <metadata
     id="metadata38">
    <rdf:RDF>
      <cc:Work
         rdf:about="">
        <dc:format>image/svg+xml</dc:format>
        <dc:type
           rdf:resource="http://purl.org/dc/dcmitype/StillImage" />
        <dc:title>Group 81</dc:title>
      </cc:Work>
    </rdf:RDF>
  </metadata>
  <defs
     id="defs36" />
  <sodipodi:namedview
     pagecolor="#ffffff"
     bordercolor="#666666"
     borderopacity="1"
     objecttolerance="10"
     gridtolerance="10"
     guidetolerance="10"
     inkscape:pageopacity="0"
     inkscape:pageshadow="2"
     inkscape:window-width="1366"
     inkscape:window-height="716"
     id="namedview34"
     showgrid="false"
     inkscape:zoom="3.1466667"
     inkscape:cx="-9.065678"
     inkscape:cy="37.5"
     inkscape:window-x="-8"
     inkscape:window-y="-8"
     inkscape:window-maximized="1"
     inkscape:current-layer="svg32" />
  <title
     id="title2">Group 81</title>
  <desc
     id="desc4">Created with Sketch.</desc>
  <g
     id="g26"
     style="fill:none;fill-rule:evenodd;stroke:none;stroke-width:1"
     transform="matrix(0.73333333,0,0,0.73333333,1.9869468,1.9975434)">
    <g
       transform="translate(-1200,-1247)"
       id="g24"
       style="fill:#000000">
      <g
         transform="translate(1200,1247)"
         id="g22">
        <path
           d="m 3.0178,44.0103 c -0.552,0 -1,0.448 -1,1 v 11.993 c 0,0.552 0.448,1 1,1 h 54 c 0.552,0 1,-0.448 1,-1 v -12 c 0,-0.548 -0.448,-0.993 -1,-0.993 z m 54,15.993 h -54 c -1.654,0 -3,-1.346 -3,-3 v -11.993 c 0,-1.654 1.346,-3 3,-3 h 54 c 1.654,0 3,1.343 3,2.993 v 12 c 0,1.654 -1.346,3 -3,3 z"
           id="path6"
           inkscape:connector-curvature="0" />
        <path
           d="m 19.018,54.003 h 6 v -6 h -6 z m 7,2 h -8 c -0.553,0 -1,-0.447 -1,-1 v -8 c 0,-0.552 0.447,-1 1,-1 h 8 c 0.553,0 1,0.448 1,1 v 8 c 0,0.553 -0.447,1 -1,1 z"
           id="path8"
           inkscape:connector-curvature="0" />
        <path
           d="m 32.018,54.003 h 6 v -6 h -6 z m 7,2 h -8 c -0.553,0 -1,-0.447 -1,-1 v -8 c 0,-0.552 0.447,-1 1,-1 h 8 c 0.553,0 1,0.448 1,1 v 8 c 0,0.553 -0.447,1 -1,1 z"
           id="path10"
           inkscape:connector-curvature="0" />
        <path
           d="m 45.018,54.003 h 6 v -6 h -6 z m 7,2 h -8 c -0.553,0 -1,-0.447 -1,-1 v -8 c 0,-0.552 0.447,-1 1,-1 h 8 c 0.553,0 1,0.448 1,1 v 8 c 0,0.553 -0.447,1 -1,1 z"
           id="path12"
           inkscape:connector-curvature="0" />
        <path
           d="m 10.469,42.0035 h 28.335 l 15.309,-8.555 c 0.847,-0.477 1.15,-1.559 0.67,-2.41 l -5.192,-9.208 c -0.207,-0.368 -0.545,-0.633 -0.951,-0.746 -0.408,-0.113 -0.834,-0.061 -1.201,0.147 z m 28.596,2 H 6.648 c -0.455,0 -0.853,-0.307 -0.968,-0.747 -0.115,-0.44 0.081,-0.902 0.477,-1.125 l 40.3,-22.644 c 0.833,-0.469 1.799,-0.588 2.719,-0.329 0.922,0.257 1.689,0.857 2.157,1.69 l 5.193,9.208 c 1.02,1.811 0.377,4.116 -1.434,5.136 l -15.539,8.684 c -0.149,0.083 -0.317,0.127 -0.488,0.127 z"
           id="path14"
           inkscape:connector-curvature="0" />
        <path
           d="m 32.9749,28.2379 h 0.01 z m -26.602,13.766 h 0.013 l 25.882,-14.516 8.461,-13.194 c 0.264,-0.41 0.351,-0.9 0.247,-1.376 -0.105,-0.477 -0.388,-0.884 -0.799,-1.148 l -8.429,-5.405 c -0.468,-0.3 -1.023,-0.402 -1.568,-0.281 -0.543,0.118 -1.008,0.441 -1.308,0.909 z m 0.275,2 h -2.106 c -0.366,0 -0.702,-0.201 -0.878,-0.521 -0.174,-0.321 -0.161,-0.712 0.038,-1.02 l 23.488,-36.55 c 0.587,-0.916 1.498,-1.55 2.562,-1.783 1.068,-0.233 2.158,-0.038 3.077,0.551 l 8.428,5.406 c 0.861,0.551 1.454,1.405 1.673,2.404 0.218,0.998 0.034,2.021 -0.517,2.883 l -8.596,13.404 c -0.089,0.138 -0.21,0.252 -0.353,0.332 l -26.327,14.766 c -0.149,0.084 -0.318,0.128 -0.489,0.128 z"
           id="path16"
           inkscape:connector-curvature="0" />
        <path
           d="m 9.0178,48.0035 c -1.654,0 -3,1.346 -3,3 0,1.654 1.346,3 3,3 1.654,0 3,-1.346 3,-3 0,-1.654 -1.346,-3 -3,-3 m 0,8 c -2.757,0 -5,-2.243 -5,-5 0,-2.757 2.243,-5 5,-5 2.757,0 5,2.243 5,5 0,2.757 -2.243,5 -5,5"
           id="path18"
           inkscape:connector-curvature="0" />
        <path
           d="m 19.0178,20.5074 h 0.01 z m -15,21.496 h 0.004 l 13.996,-21.79 v -17.21 c 0,-0.701 -0.299,-1 -1,-1 h -12 c -0.701,0 -1,0.299 -1,1 z m 0.55,2 h -1.55 c -0.553,0 -1,-0.447 -1,-1 v -40 c 0,-1.794 1.206,-3 3,-3 h 12 c 1.794,0 3,1.206 3,3 v 17.504 c 0,0.191 -0.055,0.379 -0.158,0.54 l -14.45,22.496 c -0.185,0.287 -0.501,0.46 -0.842,0.46 z"
           id="path20"
           inkscape:connector-curvature="0" />
      </g>
    </g>
  </g>
</svg>
