<?xml version="1.0" encoding="UTF-8" standalone="no"?>
<svg
   xmlns:dc="http://purl.org/dc/elements/1.1/"
   xmlns:cc="http://creativecommons.org/ns#"
   xmlns:rdf="http://www.w3.org/1999/02/22-rdf-syntax-ns#"
   xmlns:svg="http://www.w3.org/2000/svg"
   xmlns="http://www.w3.org/2000/svg"
   xmlns:sodipodi="http://sodipodi.sourceforge.net/DTD/sodipodi-0.dtd"
   xmlns:inkscape="http://www.inkscape.org/namespaces/inkscape"
   version="1.0"
   x="0px"
   y="0px"
   viewBox="0 0 48 48"
   enable-background="new 0 0 100 100"
   xml:space="preserve"
   id="svg4337"
   inkscape:version="0.91 r13725"
   sodipodi:docname="site-authenticate.svg"
   width="48"
   height="48"><metadata
     id="metadata4357"><rdf:RDF><cc:Work
         rdf:about=""><dc:format>image/svg+xml</dc:format><dc:type
           rdf:resource="http://purl.org/dc/dcmitype/StillImage" /><dc:title /></cc:Work></rdf:RDF></metadata><defs
     id="defs4355" /><sodipodi:namedview
     pagecolor="#ffffff"
     bordercolor="#666666"
     borderopacity="1"
     objecttolerance="10"
     gridtolerance="10"
     guidetolerance="10"
     inkscape:pageopacity="0"
     inkscape:pageshadow="2"
     inkscape:window-width="1792"
     inkscape:window-height="1071"
     id="namedview4353"
     showgrid="false"
     inkscape:zoom="1.888"
     inkscape:cx="-73.940678"
     inkscape:cy="62.5"
     inkscape:window-x="0"
     inkscape:window-y="0"
     inkscape:window-maximized="1"
     inkscape:current-layer="svg4337" /><g
     id="g4138"
     transform="matrix(0.86956522,0,0,0.86956522,3.1304347,3.1304351)"><g
       transform="matrix(0.56097561,0,0,0.56097561,-4.0487805,39.146341)"
       id="g4899"><rect
         x="10"
         y="-67"
         stroke-miterlimit="10"
         width="80"
         height="80"
         id="rect4339"
         style="fill:none;stroke:#000000;stroke-width:2;stroke-linecap:round;stroke-linejoin:round;stroke-miterlimit:10" /><path
         stroke-miterlimit="10"
         d="m 35,3.003 30,0 -30,0 z"
         id="path4341"
         inkscape:connector-curvature="0"
         style="fill:none;stroke:#000000;stroke-width:2;stroke-linecap:round;stroke-linejoin:round;stroke-miterlimit:10" /><circle
         stroke-miterlimit="10"
         cx="50"
         cy="-42"
         r="15"
         id="circle4343"
         style="fill:none;stroke:#000000;stroke-width:2;stroke-linecap:round;stroke-linejoin:round;stroke-miterlimit:10" /><path
         stroke-miterlimit="10"
         d="m 54.086,-33.072 c -0.346,-0.145 -0.656,-0.353 -0.914,-0.611 -0.51,-0.512 -0.822,-1.218 -0.822,-1.993 l 0,-0.646 c 2.146,-1.437 3.65,-4.78 3.65,-8.679 0,-3.313 -2.684,-6.001 -6,-6.001 -3.314,0 -5.998,2.688 -5.998,6.001 0,3.899 1.509,7.243 3.648,8.679 l 0,0.646 c 0,0.775 -0.311,1.481 -0.816,1.993 -0.262,0.259 -0.572,0.467 -0.916,0.611 l -5.75,2.381 C 42.802,-28.398 46.234,-27 50,-27 c 3.768,0 7.2,-1.398 9.836,-3.691 l -5.75,-2.381 z"
         id="path4345"
         inkscape:connector-curvature="0"
         style="stroke:#000000;stroke-width:2;stroke-linecap:round;stroke-linejoin:round;stroke-miterlimit:10" /><rect
         x="30"
         y="-19.498001"
         stroke-miterlimit="10"
         width="39.998001"
         height="12.499"
         id="rect4347"
         style="stroke:#000000;stroke-width:2;stroke-linecap:round;stroke-linejoin:round;stroke-miterlimit:10" /></g></g></svg>