<?xml version="1.0" encoding="UTF-8" standalone="no"?>
<svg
   xmlns:dc="http://purl.org/dc/elements/1.1/"
   xmlns:cc="http://creativecommons.org/ns#"
   xmlns:rdf="http://www.w3.org/1999/02/22-rdf-syntax-ns#"
   xmlns:svg="http://www.w3.org/2000/svg"
   xmlns="http://www.w3.org/2000/svg"
   xmlns:sodipodi="http://sodipodi.sourceforge.net/DTD/sodipodi-0.dtd"
   xmlns:inkscape="http://www.inkscape.org/namespaces/inkscape"
   version="1.1"
   x="0px"
   y="0px"
   viewBox="0 0 48.000002 48"
   enable-background="new 0 0 144.083 144"
   xml:space="preserve"
   id="svg4227"
   inkscape:version="0.91 r13725"
   sodipodi:docname="noun_816007_cc.svg"
   width="48"
   height="48"><metadata
     id="metadata4251"><rdf:RDF><cc:Work
         rdf:about=""><dc:format>image/svg+xml</dc:format><dc:type
           rdf:resource="http://purl.org/dc/dcmitype/StillImage" /><dc:title></dc:title></cc:Work></rdf:RDF></metadata><defs
     id="defs4249" /><sodipodi:namedview
     pagecolor="#ffffff"
     bordercolor="#666666"
     borderopacity="1"
     objecttolerance="10"
     gridtolerance="10"
     guidetolerance="10"
     inkscape:pageopacity="0"
     inkscape:pageshadow="2"
     inkscape:window-width="1792"
     inkscape:window-height="1071"
     id="namedview4247"
     showgrid="false"
     inkscape:zoom="4.8055556"
     inkscape:cx="72.041496"
     inkscape:cy="90"
     inkscape:window-x="0"
     inkscape:window-y="0"
     inkscape:window-maximized="1"
     inkscape:current-layer="svg4227" /><g
     id="g4253"
     transform="matrix(0.38715327,0,0,0.38715327,-3.8754212,46.906507)"><path
       inkscape:connector-curvature="0"
       id="path4229"
       d="m 117.422,-115.43501 -90.841,0 c -7.713,0 -13.988,6.274 -13.988,13.987 l 0,84.563002 c 0,7.7130001 6.275,13.9870001 13.988,13.9870001 l 90.842,0 c 7.713,0 13.986,-6.274 13.986,-13.9870001 l 0,-84.562002 c 0,-7.713 -6.274,-13.988 -13.987,-13.988 z m 7.987,98.550002 c 0,4.404 -3.582,7.9870001 -7.986,7.9870001 l -90.842,0 c -4.405,0 -7.988,-3.5830001 -7.988,-7.9870001 l 0,-63.627 106.816,0 0,63.627 z m 0,-69.627 -106.817,0 0,-14.935002 c 0,-4.404 3.583,-7.987 7.988,-7.987 l 90.842,0 c 4.404,0 7.986,3.583 7.986,7.987 l 0,14.935002 z" /><path
       inkscape:connector-curvature="0"
       id="path4231"
       d="m 27.756,-17.370008 22.863,0 c 1.657,0 3,-1.343 3,-3 l 0,-50.666 c 0,-1.657 -1.343,-3 -3,-3 l -22.863,0 c -1.657,0 -3,1.343 -3,3 l 0,50.666 c 0,1.657 1.343,3 3,3 z m 3,-50.666 16.863,0 0,44.666 -16.863,0 0,-44.666 z" /><path
       inkscape:connector-curvature="0"
       id="path4233"
       d="m 60.57,-17.370008 22.862,0 c 1.656,0 3,-1.343 3,-3 l 0,-50.666 c 0,-1.657 -1.344,-3 -3,-3 l -22.862,0 c -1.657,0 -3,1.343 -3,3 l 0,50.666 c 0,1.657 1.344,3 3,3 z m 3,-50.666 16.862,0 0,44.666 -16.862,0 0,-44.666 z" /><path
       inkscape:connector-curvature="0"
       id="path4235"
       d="m 93.383,-17.370008 22.863,0 c 1.656,0 3,-1.343 3,-3 l 0,-50.666 c 0,-1.657 -1.344,-3 -3,-3 l -22.863,0 c -1.658,0 -3,1.343 -3,3 l 0,50.666 c 0,1.657 1.342,3 3,3 z m 3,-50.666 16.863,0 0,44.666 -16.863,0 0,-44.666 z" /><rect
       id="rect4237"
       height="6"
       width="8.7340002"
       y="-100.11501"
       x="27.756001" /><rect
       id="rect4239"
       height="6"
       width="8.7340002"
       y="-100.11501"
       x="41.883999" /><rect
       id="rect4241"
       height="6"
       width="8.7349997"
       y="-100.11501"
       x="56.011002" /></g></svg>