<?xml version="1.0" encoding="UTF-8" standalone="no"?>
<svg
   xmlns:dc="http://purl.org/dc/elements/1.1/"
   xmlns:cc="http://creativecommons.org/ns#"
   xmlns:rdf="http://www.w3.org/1999/02/22-rdf-syntax-ns#"
   xmlns:svg="http://www.w3.org/2000/svg"
   xmlns="http://www.w3.org/2000/svg"
   xmlns:sodipodi="http://sodipodi.sourceforge.net/DTD/sodipodi-0.dtd"
   xmlns:inkscape="http://www.inkscape.org/namespaces/inkscape"
   version="1.1"
   x="0px"
   y="0px"
   viewBox="0 0 48 48"
   enable-background="new 0 0 65 65"
   xml:space="preserve"
   id="svg2"
   inkscape:version="0.91 r13725"
   sodipodi:docname="site-landing.svg"
   width="48"
   height="48"><metadata
     id="metadata38"><rdf:RDF><cc:Work
         rdf:about=""><dc:format>image/svg+xml</dc:format><dc:type
           rdf:resource="http://purl.org/dc/dcmitype/StillImage" /><dc:title></dc:title></cc:Work></rdf:RDF></metadata><defs
     id="defs36" /><sodipodi:namedview
     pagecolor="#ffffff"
     bordercolor="#666666"
     borderopacity="1"
     objecttolerance="10"
     gridtolerance="10"
     guidetolerance="10"
     inkscape:pageopacity="0"
     inkscape:pageshadow="2"
     inkscape:window-width="1792"
     inkscape:window-height="1071"
     id="namedview34"
     showgrid="false"
     inkscape:zoom="2.9046154"
     inkscape:cx="-48.061441"
     inkscape:cy="40.625"
     inkscape:window-x="0"
     inkscape:window-y="0"
     inkscape:window-maximized="1"
     inkscape:current-layer="svg2" /><g
     id="g4"
     transform="matrix(0.67175573,0,0,0.67175573,2.134351,2.134351)"><rect
       x="55.5"
       y="9.6999998"
       width="1.5"
       height="1.5"
       id="rect6" /><rect
       x="59.299999"
       y="9.6999998"
       width="1.5"
       height="1.5"
       id="rect8" /><rect
       x="51.700001"
       y="9.6999998"
       width="1.5"
       height="1.5"
       id="rect10" /><path
       d="m -0.2,5.3 0,54.5 65.5,0 0,-54.5 -65.5,0 z m 64,1.5 0,7 -62.5,0 0,-7 62.5,0 z m -62.5,51.4 0,-42.9 62.5,0 0,42.9 -62.5,0 z"
       id="path12"
       inkscape:connector-curvature="0" /><rect
       x="5.0999999"
       y="9.6999998"
       width="42.200001"
       height="1.5"
       id="rect14" /><path
       d="m 31.1,19.1 -26.8,0 0,19.8 26.8,0 0,-19.8 z m -1.5,1.5 0,13.7 -5.5,-6.1 -2.7,2.9 -3.8,-4.9 -6.7,7.3 -2.7,-3 -2.4,2.7 0,-12.6 23.8,0 z m -23.8,16.8 0,-1.8 2.4,-2.7 2.7,3 6.6,-7.2 3.8,4.9 2.8,-3 5.5,6.1 0,0.8 -23.8,0 z"
       id="path16"
       inkscape:connector-curvature="0" /><path
       d="m 11.1,28.6 c 1.5,0 2.8,-1.3 2.8,-2.8 0,-1.5 -1.3,-2.8 -2.8,-2.8 -1.5,0 -2.8,1.3 -2.8,2.8 0,1.5 1.3,2.8 2.8,2.8 z m 0,-4.1 c 0.7,0 1.3,0.6 1.3,1.3 0,0.7 -0.6,1.3 -1.3,1.3 -0.7,0 -1.3,-0.6 -1.3,-1.3 0,-0.8 0.6,-1.3 1.3,-1.3 z"
       id="path18"
       inkscape:connector-curvature="0" /><path
       d="m 33.9,38.9 26.8,0 0,-19.8 -26.8,0 0,19.8 z m 1.5,-1.5 0,-1.8 2.4,-2.7 2.7,3 6.6,-7.2 3.8,4.9 2.8,-3 5.5,6.1 0,0.8 -23.8,0 z m 23.8,-16.8 0,13.7 -5.5,-6.1 -2.7,2.9 -3.8,-4.9 -6.7,7.3 -2.7,-3 -2.4,2.7 0,-12.6 23.8,0 z"
       id="path20"
       inkscape:connector-curvature="0" /><path
       d="m 40.7,28.6 c 1.5,0 2.8,-1.3 2.8,-2.8 0,-1.5 -1.3,-2.8 -2.8,-2.8 -1.5,0 -2.8,1.3 -2.8,2.8 0,1.5 1.2,2.8 2.8,2.8 z m 0,-4.1 c 0.7,0 1.3,0.6 1.3,1.3 0,0.7 -0.6,1.3 -1.3,1.3 -0.7,0 -1.3,-0.6 -1.3,-1.3 0,-0.8 0.6,-1.3 1.3,-1.3 z"
       id="path22"
       inkscape:connector-curvature="0" /><path
       d="m 4.3,55 17.1,0 0,-13.6 -17.1,0 0,13.6 z m 1.5,-12.1 14.1,0 0,10.6 -14.1,0 0,-10.6 z"
       id="path24"
       inkscape:connector-curvature="0" /><path
       d="m 23.9,55 17.1,0 0,-13.6 -17.1,0 0,13.6 z m 1.5,-12.1 14.1,0 0,10.6 -14.1,0 0,-10.6 z"
       id="path26"
       inkscape:connector-curvature="0" /><path
       d="m 43.6,55 17.1,0 0,-13.6 -17.1,0 0,13.6 z m 1.5,-12.1 14.1,0 0,10.6 -14.1,0 0,-10.6 z"
       id="path28"
       inkscape:connector-curvature="0" /></g></svg>