<?xml version="1.0" encoding="UTF-8" standalone="no"?>
<svg
   xmlns:dc="http://purl.org/dc/elements/1.1/"
   xmlns:cc="http://creativecommons.org/ns#"
   xmlns:rdf="http://www.w3.org/1999/02/22-rdf-syntax-ns#"
   xmlns:svg="http://www.w3.org/2000/svg"
   xmlns="http://www.w3.org/2000/svg"
   xmlns:sodipodi="http://sodipodi.sourceforge.net/DTD/sodipodi-0.dtd"
   xmlns:inkscape="http://www.inkscape.org/namespaces/inkscape"
   version="1.1"
   x="0px"
   y="0px"
   viewBox="0 0 48 48"
   enable-background="new 0 0 100 100"
   xml:space="preserve"
   id="svg2"
   inkscape:version="0.91 r13725"
   sodipodi:docname="site-pages-plans.svg"
   width="48"
   height="48"><metadata
     id="metadata48"><rdf:RDF><cc:Work
         rdf:about=""><dc:format>image/svg+xml</dc:format><dc:type
           rdf:resource="http://purl.org/dc/dcmitype/StillImage" /><dc:title /></cc:Work></rdf:RDF></metadata><defs
     id="defs46" /><sodipodi:namedview
     pagecolor="#ffffff"
     bordercolor="#666666"
     borderopacity="1"
     objecttolerance="10"
     gridtolerance="10"
     guidetolerance="10"
     inkscape:pageopacity="0"
     inkscape:pageshadow="2"
     inkscape:window-width="1792"
     inkscape:window-height="1071"
     id="namedview44"
     showgrid="false"
     inkscape:zoom="1.888"
     inkscape:cx="-73.940678"
     inkscape:cy="62.5"
     inkscape:window-x="0"
     inkscape:window-y="0"
     inkscape:window-maximized="1"
     inkscape:current-layer="svg2" /><g
     display="none"
     id="g4"
     style="display:none"
     transform="translate(0,-77)"><rect
       x="-60.876999"
       y="-1117.172"
       display="inline"
       width="1370.931"
       height="1263.231"
       id="rect6"
       style="display:inline;fill:#000000" /></g><g
     display="none"
     id="g8"
     style="display:none;opacity:0.31000001"
     transform="translate(0,-77)"><g
       display="inline"
       id="g10"
       style="display:inline"><path
         d="m 83.464,67.111 -8.586,0 c -2.54,0 -4.887,0.842 -6.799,2.247 -1.763,-4.916 -6.465,-8.462 -11.967,-8.462 l -12.224,0 c -5.502,0 -10.205,3.547 -11.967,8.462 -1.911,-1.405 -4.258,-2.247 -6.799,-2.247 l -8.587,0 C 10.191,67.111 5,72.302 5,78.647 l 0,3.969 c 0,0.554 0.449,1.003 1.003,1.003 l 2.126,0 24.041,0 2.127,0 31.406,0 2.127,0 24.041,0 2.127,0 c 0.554,0 1.003,-0.449 1.003,-1.003 l 0,-3.969 C 95,72.302 89.809,67.111 83.464,67.111 Z"
         id="path12"
         inkscape:connector-curvature="0" /><path
         d="m 69.729,52.233 c 0,5.206 4.235,9.441 9.441,9.441 5.206,0 9.442,-4.235 9.442,-9.441 0,-5.207 -4.236,-9.442 -9.442,-9.442 -5.206,0 -9.441,4.235 -9.441,9.442 z"
         id="path14"
         inkscape:connector-curvature="0" /><path
         d="m 29.422,34.264 c 4.93,0 8.941,-4.011 8.941,-8.941 0,-4.93 -4.011,-8.941 -8.941,-8.941 -4.93,0 -8.941,4.011 -8.941,8.941 0,4.93 4.011,8.941 8.941,8.941 z"
         id="path16"
         inkscape:connector-curvature="0" /><path
         d="m 50,54.281 c 5.206,0 9.441,-4.235 9.441,-9.441 0,-5.206 -4.235,-9.442 -9.441,-9.442 -5.206,0 -9.441,4.235 -9.441,9.441 0,5.206 4.235,9.442 9.441,9.442 z"
         id="path18"
         inkscape:connector-curvature="0" /><path
         d="m 70.578,34.264 c 4.931,0 8.942,-4.011 8.942,-8.941 0,-4.93 -4.011,-8.941 -8.942,-8.941 -4.93,0 -8.941,4.011 -8.941,8.941 0,4.93 4.011,8.941 8.941,8.941 z"
         id="path20"
         inkscape:connector-curvature="0" /><path
         d="m 20.829,61.674 c 5.206,0 9.441,-4.235 9.441,-9.441 0,-5.207 -4.235,-9.442 -9.441,-9.442 -5.206,0 -9.441,4.235 -9.441,9.442 0,5.206 4.235,9.441 9.441,9.441 z"
         id="path22"
         inkscape:connector-curvature="0" /></g></g><g
     id="g24"
     transform="matrix(0.49404063,0,0,0.49404063,-0.70227852,-0.70227852)"><g
       id="g26"><path
         d="m 24.755,34.609 c 6.29,0 11.408,-5.118 11.408,-11.407 0,-6.291 -5.118,-11.408 -11.408,-11.408 -6.289,0 -11.406,5.118 -11.406,11.408 0,6.289 5.118,11.407 11.406,11.407 z m 0,-17.839 c 3.546,0 6.431,2.885 6.431,6.431 0,3.546 -2.885,6.431 -6.431,6.431 -3.546,0 -6.43,-2.884 -6.43,-6.431 0.001,-3.546 2.884,-6.431 6.43,-6.431 z"
         id="path28"
         inkscape:connector-curvature="0" /><path
         d="m 28.553,36.578 -7.595,0 c -6.308,0 -11.44,5.132 -11.44,11.441 l 0,15.655 c 0,3.05 2.017,5.638 4.787,6.499 l 0,10.771 c 0,3.752 3.052,6.804 6.804,6.804 l 7.295,0 c 3.752,0 6.804,-3.052 6.804,-6.804 l 0,-10.771 c 2.77,-0.861 4.787,-3.449 4.787,-6.499 l 0,-15.655 c 0,-6.309 -5.132,-11.441 -11.442,-11.441 z m 6.465,27.096 c 0,0.991 -0.838,1.827 -1.827,1.827 l -2.96,0 0,15.442 c 0,1.008 -0.82,1.827 -1.827,1.827 l -7.295,0 c -1.008,0 -1.827,-0.82 -1.827,-1.827 l 0,-15.442 -2.96,0 c -0.99,0 -1.827,-0.837 -1.827,-1.827 l 0,-15.655 c 0,-3.565 2.9,-6.465 6.464,-6.465 l 7.595,0 c 3.566,0 6.465,2.9 6.465,6.465 l 0,15.655 z"
         id="path30"
         inkscape:connector-curvature="0" /><path
         d="m 81.51,70.261 c -4.948,0 -8.973,4.025 -8.973,8.973 0,4.948 4.025,8.973 8.973,8.973 4.948,0 8.973,-4.025 8.973,-8.973 0,-4.948 -4.026,-8.973 -8.973,-8.973 z m 0,13.946 c -2.742,0 -4.973,-2.23 -4.973,-4.973 0,-2.743 2.231,-4.973 4.973,-4.973 2.742,0 4.973,2.23 4.973,4.973 0,2.743 -2.232,4.973 -4.973,4.973 z"
         id="path32"
         inkscape:connector-curvature="0" /><path
         d="m 81.51,41.297 c -4.948,0 -8.973,4.025 -8.973,8.973 0,4.948 4.025,8.973 8.973,8.973 4.948,0 8.973,-4.025 8.973,-8.973 0,-4.948 -4.026,-8.973 -8.973,-8.973 z m 0,13.946 c -2.742,0 -4.973,-2.23 -4.973,-4.973 0,-2.743 2.231,-4.973 4.973,-4.973 2.742,0 4.973,2.23 4.973,4.973 0,2.743 -2.232,4.973 -4.973,4.973 z"
         id="path34"
         inkscape:connector-curvature="0" /><path
         d="m 81.51,12.334 c -4.948,0 -8.973,4.025 -8.973,8.973 0,4.948 4.025,8.973 8.973,8.973 4.948,0 8.973,-4.025 8.973,-8.973 0,-4.948 -4.026,-8.973 -8.973,-8.973 z m 0,13.945 c -2.742,0 -4.973,-2.23 -4.973,-4.973 0,-2.743 2.231,-4.973 4.973,-4.973 2.742,0 4.973,2.23 4.973,4.973 0,2.743 -2.232,4.973 -4.973,4.973 z"
         id="path36"
         inkscape:connector-curvature="0" /><path
         d="m 66.813,23.306 c 1.104,0 2,-0.896 2,-2 0,-1.104 -0.896,-2 -2,-2 l -7.511,0 c -1.104,0 -2,0.896 -2,2 l 0,26.964 -6.046,0 c -1.104,0 -2,0.896 -2,2 0,1.104 0.896,2 2,2 l 6.046,0 0,26.964 c 0,1.104 0.896,2 2,2 l 7.511,0 c 1.104,0 2,-0.896 2,-2 0,-1.104 -0.896,-2 -2,-2 l -5.511,0 0,-24.964 5.511,0 c 1.104,0 2,-0.896 2,-2 0,-1.104 -0.896,-2 -2,-2 l -5.511,0 0,-24.964 5.511,0 z"
         id="path38"
         inkscape:connector-curvature="0" /></g></g></svg>