<?xml version="1.0" encoding="UTF-8" standalone="no"?>
<svg
   xmlns:dc="http://purl.org/dc/elements/1.1/"
   xmlns:cc="http://creativecommons.org/ns#"
   xmlns:rdf="http://www.w3.org/1999/02/22-rdf-syntax-ns#"
   xmlns:svg="http://www.w3.org/2000/svg"
   xmlns="http://www.w3.org/2000/svg"
   xmlns:sodipodi="http://sodipodi.sourceforge.net/DTD/sodipodi-0.dtd"
   xmlns:inkscape="http://www.inkscape.org/namespaces/inkscape"
   version="1.1"
   x="0px"
   y="0px"
   viewBox="0 0 48 48"
   xml:space="preserve"
   id="svg2"
   inkscape:version="0.91 r13725"
   sodipodi:docname="site-typography.svg"
   width="48"
   height="48"><metadata
     id="metadata32"><rdf:RDF><cc:Work
         rdf:about=""><dc:format>image/svg+xml</dc:format><dc:type
           rdf:resource="http://purl.org/dc/dcmitype/StillImage" /><dc:title /></cc:Work></rdf:RDF></metadata><defs
     id="defs30" /><sodipodi:namedview
     pagecolor="#ffffff"
     bordercolor="#666666"
     borderopacity="1"
     objecttolerance="10"
     gridtolerance="10"
     guidetolerance="10"
     inkscape:pageopacity="0"
     inkscape:pageshadow="2"
     inkscape:window-width="1792"
     inkscape:window-height="1071"
     id="namedview28"
     showgrid="false"
     inkscape:zoom="7.8666667"
     inkscape:cx="-17.745763"
     inkscape:cy="15"
     inkscape:window-x="0"
     inkscape:window-y="0"
     inkscape:window-maximized="1"
     inkscape:current-layer="svg2" /><g
     id="g4"
     transform="matrix(1.8333333,0,0,1.8333333,2.0000004,2.0000004)"><path
       d="m 0.5,14 12,0 c 0.276,0 0.5,-0.224 0.5,-0.5 l 0,-12 C 13,1.224 12.776,1 12.5,1 L 0.5,1 C 0.224,1 0,1.224 0,1.5 l 0,12 C 0,13.776 0.224,14 0.5,14 Z M 9,3.5 C 9.828,3.5 10.5,4.172 10.5,5 10.5,5.828 9.828,6.5 9,6.5 8.172,6.5 7.5,5.828 7.5,5 7.5,4.172 8.172,3.5 9,3.5 Z m -6.974,7.842 2,-6 C 4.09,5.15 4.263,5.016 4.464,5.001 4.67,4.985 4.857,5.095 4.947,5.276 L 6.637,8.655 8.146,7.146 C 8.259,7.032 8.417,6.979 8.58,7.006 8.739,7.032 8.875,7.132 8.947,7.276 l 2,4 c 0.078,0.155 0.069,0.339 -0.022,0.486 C 10.834,11.909 10.673,12 10.5,12 l -8,0 C 2.339,12 2.188,11.923 2.094,11.792 2,11.662 1.975,11.494 2.026,11.342 Z"
       id="path6"
       inkscape:connector-curvature="0" /><path
       d="m 15.5,2 8,0 C 23.776,2 24,1.776 24,1.5 24,1.224 23.776,1 23.5,1 l -8,0 C 15.224,1 15,1.224 15,1.5 15,1.776 15.224,2 15.5,2 Z"
       id="path8"
       inkscape:connector-curvature="0" /><path
       d="m 23.5,4 -8,0 C 15.224,4 15,4.224 15,4.5 15,4.776 15.224,5 15.5,5 l 8,0 C 23.776,5 24,4.776 24,4.5 24,4.224 23.776,4 23.5,4 Z"
       id="path10"
       inkscape:connector-curvature="0" /><path
       d="m 23.5,7 -8,0 C 15.224,7 15,7.224 15,7.5 15,7.776 15.224,8 15.5,8 l 8,0 C 23.776,8 24,7.776 24,7.5 24,7.224 23.776,7 23.5,7 Z"
       id="path12"
       inkscape:connector-curvature="0" /><path
       d="m 23.5,10 -8,0 c -0.276,0 -0.5,0.224 -0.5,0.5 0,0.276 0.224,0.5 0.5,0.5 l 8,0 C 23.776,11 24,10.776 24,10.5 24,10.224 23.776,10 23.5,10 Z"
       id="path14"
       inkscape:connector-curvature="0" /><path
       d="m 23.5,13 -8,0 c -0.276,0 -0.5,0.224 -0.5,0.5 0,0.276 0.224,0.5 0.5,0.5 l 8,0 C 23.776,14 24,13.776 24,13.5 24,13.224 23.776,13 23.5,13 Z"
       id="path16"
       inkscape:connector-curvature="0" /><path
       d="m 23.5,16 -23,0 C 0.224,16 0,16.224 0,16.5 0,16.776 0.224,17 0.5,17 l 23,0 C 23.776,17 24,16.776 24,16.5 24,16.224 23.776,16 23.5,16 Z"
       id="path18"
       inkscape:connector-curvature="0" /><path
       d="m 23.5,19 -23,0 C 0.224,19 0,19.224 0,19.5 0,19.776 0.224,20 0.5,20 l 23,0 C 23.776,20 24,19.776 24,19.5 24,19.224 23.776,19 23.5,19 Z"
       id="path20"
       inkscape:connector-curvature="0" /><path
       d="m 23.5,22 -23,0 C 0.224,22 0,22.224 0,22.5 0,22.776 0.224,23 0.5,23 l 23,0 C 23.776,23 24,22.776 24,22.5 24,22.224 23.776,22 23.5,22 Z"
       id="path22"
       inkscape:connector-curvature="0" /></g></svg>