<?xml version="1.0" encoding="UTF-8" standalone="no"?>
<svg
   xmlns:dc="http://purl.org/dc/elements/1.1/"
   xmlns:cc="http://creativecommons.org/ns#"
   xmlns:rdf="http://www.w3.org/1999/02/22-rdf-syntax-ns#"
   xmlns:svg="http://www.w3.org/2000/svg"
   xmlns="http://www.w3.org/2000/svg"
   xmlns:sodipodi="http://sodipodi.sourceforge.net/DTD/sodipodi-0.dtd"
   xmlns:inkscape="http://www.inkscape.org/namespaces/inkscape"
   version="1.1"
   x="0px"
   y="0px"
   viewBox="0 0 48 48"
   xml:space="preserve"
   id="svg2"
   inkscape:version="0.91 r13725"
   sodipodi:docname="site-pages-error.svg"
   width="48"
   height="48"><metadata
     id="metadata30"><rdf:RDF><cc:Work
         rdf:about=""><dc:format>image/svg+xml</dc:format><dc:type
           rdf:resource="http://purl.org/dc/dcmitype/StillImage" /><dc:title /></cc:Work></rdf:RDF></metadata><defs
     id="defs28" /><sodipodi:namedview
     pagecolor="#ffffff"
     bordercolor="#666666"
     borderopacity="1"
     objecttolerance="10"
     gridtolerance="10"
     guidetolerance="10"
     inkscape:pageopacity="0"
     inkscape:pageshadow="2"
     inkscape:window-width="1792"
     inkscape:window-height="1071"
     id="namedview26"
     showgrid="false"
     inkscape:zoom="12.742653"
     inkscape:cx="18.35882"
     inkscape:cy="24.402242"
     inkscape:window-x="0"
     inkscape:window-y="0"
     inkscape:window-maximized="1"
     inkscape:current-layer="svg2" /><path
     d="m 37.733483,30.020157 -27.466966,0 c -0.4300109,0 -0.8062707,0.376259 -0.8062707,0.806271 0,0.430011 0.3762598,0.806271 0.8062707,0.806271 l 27.466966,0 c 0.430011,0 0.806271,-0.37626 0.806271,-0.806271 0,-0.430012 -0.37626,-0.806271 -0.806271,-0.806271 z"
     id="path10"
     inkscape:connector-curvature="0" /><path
     d="m 33.164614,33.782755 -18.275476,0 c -0.430011,0 -0.806271,0.376259 -0.806271,0.806271 0,0.430011 0.37626,0.806271 0.806271,0.806271 l 18.275476,0 c 0.430011,0 0.806271,-0.37626 0.806271,-0.806271 0,-0.430012 -0.37626,-0.806271 -0.806271,-0.806271 z"
     id="path12"
     inkscape:connector-curvature="0" /><g
     id="g4151"
     transform="translate(5.0000001e-8,-2.2758209)"><circle
       id="circle4"
       r="1.1825309"
       cy="11.207168"
       cx="4.9451284" /><circle
       id="circle6"
       r="1.1825309"
       cy="11.207168"
       cx="8.7614784" /><circle
       id="circle8"
       r="1.1825309"
       cy="11.207168"
       cx="12.577827" /><path
       inkscape:connector-curvature="0"
       id="path14"
       d="m 43.592385,6.7995518 -39.1847703,0 C 1.9888017,6.7995518 -1e-7,9.0514954 -1e-7,11.790346 l 0,28.97095 c 0,2.73885 1.9888018,4.990794 4.4076148,4.990794 l 39.1847703,0 C 46.011198,45.75209 48,43.500146 48,40.761296 l 0,-28.97095 C 48,9.0514954 46.011198,6.7995518 43.592385,6.7995518 Z m 2.795073,33.9617442 c 0,1.704173 -1.236282,3.164894 -2.795073,3.164894 l -39.1847703,0 c -1.5050392,0 -2.7950728,-1.399857 -2.7950728,-3.164894 l 0,-28.97095 c 0,-1.704174 1.2362822,-3.164894 2.7950728,-3.164894 l 39.1847703,0 c 1.50504,0 2.795073,1.399857 2.795073,3.164894 l 0,28.97095 z" /></g><path
     d="m 31.49832,25.236282 c 0,-0.430011 -0.107503,-0.860022 -0.37626,-1.182531 l 0,0 -5.267637,-8.223964 C 25.424412,15.18477 24.725644,14.80851 23.973124,14.80851 c -0.752519,0 -1.451288,0.37626 -1.881299,1.021277 l -5.267637,8.223964 c -0.430011,0.698768 -0.483762,1.558791 -0.05375,2.257559 0.376259,0.698768 1.128779,1.128779 1.93505,1.128779 l 10.535275,0 c 0.80627,0 1.55879,-0.430011 1.93505,-1.128779 0.215006,-0.322508 0.322508,-0.698768 0.322508,-1.075028 z m -1.505039,0.430011 c -0.161254,0.268757 -0.430011,0.430011 -0.752519,0.430011 l -10.481523,0 c -0.322509,0 -0.591266,-0.161254 -0.75252,-0.430011 -0.161254,-0.268757 -0.107503,-0.591265 0.05375,-0.860022 l 5.267638,-8.223964 c 0.161254,-0.215006 0.430011,-0.37626 0.698768,-0.37626 0.268757,0 0.537514,0.161254 0.698768,0.37626 l 5.267637,8.223964 c 0.107503,0.107503 0.107503,0.268757 0.107503,0.430011 0,0.161254 -0.05375,0.268757 -0.107503,0.430011 z"
     id="path16"
     inkscape:connector-curvature="0" /><rect
     x="23.328106"
     y="23.516237"
     width="1.343785"
     height="1.2362822"
     id="rect18" /><rect
     x="23.328106"
     y="18.839865"
     width="1.343785"
     height="3.762598"
     id="rect20" /></svg>