<?xml version="1.0" encoding="UTF-8" standalone="no"?>
<svg
   xmlns:dc="http://purl.org/dc/elements/1.1/"
   xmlns:cc="http://creativecommons.org/ns#"
   xmlns:rdf="http://www.w3.org/1999/02/22-rdf-syntax-ns#"
   xmlns:svg="http://www.w3.org/2000/svg"
   xmlns="http://www.w3.org/2000/svg"
   xmlns:sodipodi="http://sodipodi.sourceforge.net/DTD/sodipodi-0.dtd"
   xmlns:inkscape="http://www.inkscape.org/namespaces/inkscape"
   version="1.1"
   x="0px"
   y="0px"
   viewBox="0 0 48 48"
   id="svg4379"
   inkscape:version="0.91 r13725"
   sodipodi:docname="favorite.svg"
   width="48"
   height="48">
  <metadata
     id="metadata4393">
    <rdf:RDF>
      <cc:Work
         rdf:about="">
        <dc:format>image/svg+xml</dc:format>
        <dc:type
           rdf:resource="http://purl.org/dc/dcmitype/StillImage" />
        <dc:title></dc:title>
      </cc:Work>
    </rdf:RDF>
  </metadata>
  <defs
     id="defs4391" />
  <sodipodi:namedview
     pagecolor="#ffffff"
     bordercolor="#666666"
     borderopacity="1"
     objecttolerance="10"
     gridtolerance="10"
     guidetolerance="10"
     inkscape:pageopacity="0"
     inkscape:pageshadow="2"
     inkscape:window-width="1792"
     inkscape:window-height="1071"
     id="namedview4389"
     showgrid="false"
     inkscape:zoom="9.7863578"
     inkscape:cx="9.0691704"
     inkscape:cy="8.8185859"
     inkscape:window-x="0"
     inkscape:window-y="0"
     inkscape:window-maximized="1"
     inkscape:current-layer="svg4379" />
  <g
     style="fill:none;fill-rule:evenodd;stroke:none;stroke-width:1"
     id="g5380"
     transform="matrix(0.70220055,0,0,0.70220055,5.7427857,0.99999996)">
    <g
       style="fill:#000000"
       transform="translate(-364,-118)"
       id="g5382">
      <g
         transform="translate(364,118)"
         id="g5384">
        <path
           inkscape:connector-curvature="0"
           d="M 6.4941503,4 45.50585,4 C 46.884983,4 48,5.1159742 48,6.5020831 l 0,53.7069539 c 0,1.620567 -0.125068,1.679799 -1.376698,0.657776 L 27.264964,45.059689 c -0.736183,-0.601133 -1.793745,-0.601133 -2.529928,0 L 5.3766982,60.866813 C 4.1171267,61.895321 4,61.839769 4,60.209037 L 4,6.5020831 C 4,5.1212926 5.1200893,4 6.4941503,4 Z M 0,60.209037 c 0,5.003786 4.0349448,6.917512 7.9066267,3.756076 L 26.048837,49.230778 44.093373,63.965113 C 47.956062,67.119206 52,65.204018 52,60.209037 L 52,6.5020831 C 52,2.9076031 49.09489,0 45.50585,0 L 6.4941503,0 C 2.9099883,0 0,2.9131145 0,6.5020831 L 0,60.209037 Z"
           id="path5386" />
        <path
           inkscape:connector-curvature="0"
           d="m 20.217905,33.972714 0.277104,-5.433166 c 0.02508,-0.491666 -0.132068,-0.975307 -0.441349,-1.358333 l -3.352187,-4.235671 5.182138,-1.396338 c 0.47535,-0.128084 0.88676,-0.426991 1.155467,-0.839496 l 2.981375,-4.51406 2.940469,4.51406 c 0.268707,0.412505 0.680117,0.711412 1.155467,0.839496 l 5.225106,1.427304 -3.395155,4.204705 c -0.309281,0.383026 -0.466425,0.866667 -0.441349,1.358333 l 0.356278,5.448305 -5.147151,-1.967532 c -0.459853,-0.175782 -0.968383,-0.175782 -1.428236,0 l -5.067977,1.952393 z m 13.003078,4.817179 c 1.350181,0.516116 2.785148,-0.526449 2.711522,-1.970036 l -0.38381,-7.732861 4.846623,-6.002265 c 0.908083,-1.124609 0.359975,-2.811515 -1.03571,-3.187585 l -7.470613,-2.020909 -4.213182,-6.467865 c -0.788954,-1.211163 -2.562672,-1.211163 -3.351626,0 l -4.192672,6.470275 -7.491123,2.018499 c -1.395685,0.37607 -1.943793,2.062976 -1.03571,3.187585 l 4.858221,5.98239 -0.395408,7.752736 c -0.07363,1.443587 1.361341,2.486152 2.711522,1.970036 L 26,36.01161 l 7.220983,2.778283 z"
           id="path5388" />
      </g>
    </g>
  </g>
</svg>
