<?xml version="1.0" encoding="UTF-8" standalone="no"?>
<svg
   xmlns:dc="http://purl.org/dc/elements/1.1/"
   xmlns:cc="http://creativecommons.org/ns#"
   xmlns:rdf="http://www.w3.org/1999/02/22-rdf-syntax-ns#"
   xmlns:svg="http://www.w3.org/2000/svg"
   xmlns="http://www.w3.org/2000/svg"
   xmlns:sodipodi="http://sodipodi.sourceforge.net/DTD/sodipodi-0.dtd"
   xmlns:inkscape="http://www.inkscape.org/namespaces/inkscape"
   version="1.1"
   x="0px"
   y="0px"
   viewBox="0 0 48 48"
   xml:space="preserve"
   id="svg2"
   inkscape:version="0.91 r13725"
   sodipodi:docname="noun_1036895_cc.svg"
   width="48"
   height="48"><metadata
     id="metadata46"><rdf:RDF><cc:Work
         rdf:about=""><dc:format>image/svg+xml</dc:format><dc:type
           rdf:resource="http://purl.org/dc/dcmitype/StillImage" /><dc:title></dc:title></cc:Work></rdf:RDF></metadata><defs
     id="defs44" /><sodipodi:namedview
     pagecolor="#ffffff"
     bordercolor="#666666"
     borderopacity="1"
     objecttolerance="10"
     gridtolerance="10"
     guidetolerance="10"
     inkscape:pageopacity="0"
     inkscape:pageshadow="2"
     inkscape:window-width="1792"
     inkscape:window-height="1071"
     id="namedview42"
     showgrid="false"
     inkscape:zoom="2.95"
     inkscape:cx="-47.322034"
     inkscape:cy="40"
     inkscape:window-x="0"
     inkscape:window-y="0"
     inkscape:window-maximized="1"
     inkscape:current-layer="svg2" /><g
     id="g4174"
     transform="matrix(0.76666667,0,0,0.76666667,-0.53333344,24.000192)"><path
       inkscape:connector-curvature="0"
       id="path4"
       d="m 15,-6 1.119,0 c 0.436,2.056 2.14,4.367 4.678,6.252 2.779,2.065 6.089,3.329 9.471,3.655 l -7.119,11.568 c -0.173,0.281 -0.196,0.629 -0.062,0.93 L 27,25.212 27,29 c 0,0.552 0.448,1 1,1 l 8,0 c 0.552,0 1,-0.448 1,-1 l 0,-3.788 3.914,-8.806 c 0.134,-0.301 0.111,-0.649 -0.062,-0.93 L 33.733,3.908 c 3.382,-0.327 6.691,-1.591 9.471,-3.655 2.538,-1.886 4.242,-4.197 4.678,-6.252 l 1.118,0 c 0.552,0 1,-0.448 1,-1 l 0,-4 c 0,-0.552 -0.448,-1 -1,-1 l -4,0 c -0.552,0 -1,0.448 -1,1 l 0,4 c 0,0.552 0.448,1 1,1 l 0.813,0 c -1.025,3.205 -6.529,8 -13.813,8 -7.284,0 -12.787,-4.795 -13.813,-8 l 0.813,0 c 0.552,0 1,-0.448 1,-1 l 0,-4 c 0,-0.552 -0.448,-1 -1,-1 l -4,0 c -0.552,0 -1,0.448 -1,1 l 0,4 C 14,-6.448 14.448,-6 15,-6 Z m 31,-4 2,0 0,2 -2,0 0,-2 z M 33,16 c 0,0.551 -0.449,1 -1,1 -0.551,0 -1,-0.449 -1,-1 0,-0.551 0.449,-1 1,-1 0.551,0 1,0.449 1,1 z m 2,12 -6,0 0,-2 6,0 0,2 z m 0.35,-4 -6.7,0 -3.522,-7.925 5.872,-9.542 0,6.651 c -1.161,0.414 -2,1.514 -2,2.816 0,1.654 1.346,3 3,3 1.654,0 3,-1.346 3,-3 0,-1.302 -0.839,-2.402 -2,-2.816 L 33,6.533 38.872,16.075 35.35,24 Z M 16,-10 l 2,0 0,2 -2,0 0,-2 z" /><path
       inkscape:connector-curvature="0"
       id="path6"
       d="m 3,30 10,0 c 0.552,0 1,-0.448 1,-1 l 0,-32 c 0,-0.552 -0.448,-1 -1,-1 L 3,-4 c -0.552,0 -1,0.448 -1,1 l 0,32 c 0,0.552 0.448,1 1,1 z m 1,-32 8,0 0,4 -2,0 0,2 2,0 0,4 -2,0 0,2 2,0 0,4 -2,0 0,2 2,0 0,4 -2,0 0,2 2,0 0,6 -8,0 0,-30 z" /><path
       inkscape:connector-curvature="0"
       id="path8"
       d="m 50,23 c 0,0.014 0.007,0.025 0.008,0.039 0.004,0.104 0.025,0.205 0.062,0.305 0.008,0.022 0.013,0.044 0.023,0.066 0.005,0.012 0.007,0.026 0.013,0.038 l 3,6 C 53.275,29.786 53.621,30 54,30 c 0.379,0 0.725,-0.214 0.895,-0.553 l 3,-6 c 0.006,-0.012 0.008,-0.025 0.013,-0.038 0.01,-0.021 0.015,-0.044 0.023,-0.066 0.036,-0.099 0.057,-0.201 0.062,-0.305 C 57.993,23.025 58,23.014 58,23 l 0,-19 2,0 0,12 2,0 0,-13 C 62,2.448 61.552,2 61,2 l -3,0 0,-5 c 0,-0.552 -0.448,-1 -1,-1 l -6,0 c -0.552,0 -1,0.448 -1,1 l 0,26 z m 2,-19 4,0 0,18 -4,0 0,-18 z M 54,26.764 52.618,24 55.382,24 54,26.764 Z M 56,-2 l 0,4 -4,0 0,-4 4,0 z" /><rect
       id="rect10"
       height="2"
       width="2"
       y="-8"
       x="7" /><rect
       id="rect12"
       height="2"
       width="2"
       y="-12"
       x="7" /><rect
       id="rect14"
       height="2"
       width="2"
       y="-16"
       x="7" /><rect
       id="rect16"
       height="2"
       width="2"
       y="-20"
       x="7" /><rect
       id="rect18"
       height="2"
       width="2"
       y="-20"
       x="11" /><rect
       id="rect20"
       height="2"
       width="2"
       y="-20"
       x="15" /><rect
       id="rect22"
       height="2"
       width="2"
       y="-20"
       x="47" /><rect
       id="rect24"
       height="2"
       width="2"
       y="-20"
       x="51" /><rect
       id="rect26"
       height="2"
       width="2"
       y="-20"
       x="55" /><rect
       id="rect28"
       height="2"
       width="2"
       y="-16"
       x="55" /><rect
       id="rect30"
       height="2"
       width="2"
       y="-12"
       x="55" /><rect
       id="rect32"
       height="2"
       width="2"
       y="-8"
       x="55" /><path
       inkscape:connector-curvature="0"
       id="path34"
       d="m 27,-15 10,0 c 0.552,0 1,-0.448 1,-1 l 0,-4 c 0,-0.552 -0.448,-1 -1,-1 l -10,0 c -0.552,0 -1,0.448 -1,1 l 0,4 c 0,0.552 0.448,1 1,1 z m 9,-2 -3,0 0,-2 3,0 0,2 z m -8,-2 3,0 0,2 -3,0 0,-2 z" /><path
       inkscape:connector-curvature="0"
       id="path36"
       d="M 19.678,-16.265 22,-18.408 22,-4 c 0,0.552 0.448,1 1,1 l 18,0 c 0.552,0 1,-0.448 1,-1 l 0,-14.408 2.322,2.143 1.356,-1.47 -4,-3.692 c 0,0 0,0 0,0 l -0.111,-0.103 -8.889,-8.205 c -0.383,-0.354 -0.974,-0.354 -1.356,0 l -8.889,8.205 -0.111,0.103 c 0,0 0,0 0,0 l -4,3.692 1.356,1.47 z M 29,-5 l 0,-6 6,0 0,2 -2,0 0,2 2,0 0,2 -6,0 z m 3,-22.639 8,7.385 0,15.254 -3,0 0,-7 c 0,-0.552 -0.448,-1 -1,-1 l -8,0 c -0.552,0 -1,0.448 -1,1 l 0,7 -3,0 0,-15.255 8,-7.384 z" /></g></svg>