<?xml version="1.0" encoding="UTF-8" standalone="no"?>
<!-- Generator: Adobe Illustrator 19.0.0, SVG Export Plug-In . SVG Version: 6.00 Build 0)  -->

<svg
   xmlns:dc="http://purl.org/dc/elements/1.1/"
   xmlns:cc="http://creativecommons.org/ns#"
   xmlns:rdf="http://www.w3.org/1999/02/22-rdf-syntax-ns#"
   xmlns:svg="http://www.w3.org/2000/svg"
   xmlns="http://www.w3.org/2000/svg"
   xmlns:sodipodi="http://sodipodi.sourceforge.net/DTD/sodipodi-0.dtd"
   xmlns:inkscape="http://www.inkscape.org/namespaces/inkscape"
   version="1.1"
   id="Layer_1"
   x="0px"
   y="0px"
   viewBox="0 0 48 48"
   xml:space="preserve"
   inkscape:version="0.91 r13725"
   sodipodi:docname="social-youtube.svg"
   width="48"
   height="48"><metadata
     id="metadata4263"><rdf:RDF><cc:Work
         rdf:about=""><dc:format>image/svg+xml</dc:format><dc:type
           rdf:resource="http://purl.org/dc/dcmitype/StillImage" /><dc:title></dc:title></cc:Work></rdf:RDF></metadata><defs
     id="defs4261" /><sodipodi:namedview
     pagecolor="#ffffff"
     bordercolor="#666666"
     borderopacity="1"
     objecttolerance="10"
     gridtolerance="10"
     guidetolerance="10"
     inkscape:pageopacity="0"
     inkscape:pageshadow="2"
     inkscape:window-width="1792"
     inkscape:window-height="1071"
     id="namedview4259"
     showgrid="false"
     inkscape:zoom="1.8251602"
     inkscape:cx="236.9655"
     inkscape:cy="236.9655"
     inkscape:window-x="0"
     inkscape:window-y="0"
     inkscape:window-maximized="1"
     inkscape:current-layer="Layer_1" /><g
     id="g4265"
     transform="matrix(0.09706034,0,0,0.09706034,0.99999914,42.341007)"><circle
       id="circle4221"
       r="236.966"
       cy="-188.965"
       cx="236.966"
       style="fill:#d42428" /><path
       inkscape:connector-curvature="0"
       id="path4223"
       d="m 404.518,-356.551 c 92.541,92.549 92.549,242.593 0,335.142 -92.541,92.541 -242.593,92.545 -335.142,0 l 335.142,-335.142 z"
       style="fill:#cc202d" /><path
       inkscape:connector-curvature="0"
       id="path4225"
       d="m 469.168,-141.505 -117.282,-117.278 -138.322,15.749 -83.669,129.532 156.342,156.338 c 91.92,-19.445 164.185,-92.155 182.931,-184.341 z"
       style="fill:#ba202e" /><path
       inkscape:connector-curvature="0"
       id="path4227"
       d="m 360.971,-234.693 c 0,-19.865 -16.093,-35.966 -35.947,-35.966 l -168.652,0 c -19.85,0 -35.94,16.105 -35.94,35.966 l 0,96.444 c 0,19.865 16.093,35.966 35.94,35.966 l 168.649,0 c 19.858,0 35.947,-16.105 35.947,-35.966 l 0,-96.444 0.003,0 z m -144.331,88.908 0,-90.584 68.695,45.294 -68.695,45.29 z"
       style="fill:#ffffff" /><g
       transform="translate(0,-425.931)"
       id="g4229" /><g
       transform="translate(0,-425.931)"
       id="g4231" /><g
       transform="translate(0,-425.931)"
       id="g4233" /><g
       transform="translate(0,-425.931)"
       id="g4235" /><g
       transform="translate(0,-425.931)"
       id="g4237" /><g
       transform="translate(0,-425.931)"
       id="g4239" /><g
       transform="translate(0,-425.931)"
       id="g4241" /><g
       transform="translate(0,-425.931)"
       id="g4243" /><g
       transform="translate(0,-425.931)"
       id="g4245" /><g
       transform="translate(0,-425.931)"
       id="g4247" /><g
       transform="translate(0,-425.931)"
       id="g4249" /><g
       transform="translate(0,-425.931)"
       id="g4251" /><g
       transform="translate(0,-425.931)"
       id="g4253" /><g
       transform="translate(0,-425.931)"
       id="g4255" /><g
       transform="translate(0,-425.931)"
       id="g4257" /></g></svg>