<?xml version="1.0" encoding="UTF-8" standalone="no"?>
<!-- Generator: Adobe Illustrator 18.0.0, SVG Export Plug-In . SVG Version: 6.00 Build 0)  -->

<svg
   xmlns:dc="http://purl.org/dc/elements/1.1/"
   xmlns:cc="http://creativecommons.org/ns#"
   xmlns:rdf="http://www.w3.org/1999/02/22-rdf-syntax-ns#"
   xmlns:svg="http://www.w3.org/2000/svg"
   xmlns="http://www.w3.org/2000/svg"
   xmlns:sodipodi="http://sodipodi.sourceforge.net/DTD/sodipodi-0.dtd"
   xmlns:inkscape="http://www.inkscape.org/namespaces/inkscape"
   version="1.1"
   id="Capa_1"
   x="0px"
   y="0px"
   viewBox="0 0 48 48"
   xml:space="preserve"
   inkscape:version="0.91 r13725"
   sodipodi:docname="social-facebook.svg"
   width="48"
   height="48"><metadata
     id="metadata4226"><rdf:RDF><cc:Work
         rdf:about=""><dc:format>image/svg+xml</dc:format><dc:type
           rdf:resource="http://purl.org/dc/dcmitype/StillImage" /><dc:title></dc:title></cc:Work></rdf:RDF></metadata><defs
     id="defs4224" /><sodipodi:namedview
     pagecolor="#ffffff"
     bordercolor="#666666"
     borderopacity="1"
     objecttolerance="10"
     gridtolerance="10"
     guidetolerance="10"
     inkscape:pageopacity="0"
     inkscape:pageshadow="2"
     inkscape:window-width="1792"
     inkscape:window-height="1071"
     id="namedview4222"
     showgrid="false"
     inkscape:zoom="2.1034618"
     inkscape:cx="56.098"
     inkscape:cy="56.098"
     inkscape:window-x="0"
     inkscape:window-y="0"
     inkscape:window-maximized="1"
     inkscape:current-layer="Capa_1" /><g
     id="g4186"
     transform="matrix(0.40999679,0,0,0.40999679,1.0000002,1.0000002)"><circle
       style="fill:#3b5998"
       cx="56.098"
       cy="56.098"
       r="56.098"
       id="circle4188" /><path
       style="fill:#ffffff"
       d="m 70.201,58.294 -10.01,0 0,36.672 -15.166,0 0,-36.672 -7.213,0 0,-12.888 7.213,0 0,-8.34 c 0,-5.964 2.833,-15.303 15.301,-15.303 l 11.234,0.047 0,12.51 -8.151,0 c -1.337,0 -3.217,0.668 -3.217,3.513 l 0,7.585 11.334,0 -1.325,12.876 z"
       id="path4190"
       inkscape:connector-curvature="0" /></g><g
     id="g4192"
     transform="translate(0,-64.195999)" /><g
     id="g4194"
     transform="translate(0,-64.195999)" /><g
     id="g4196"
     transform="translate(0,-64.195999)" /><g
     id="g4198"
     transform="translate(0,-64.195999)" /><g
     id="g4200"
     transform="translate(0,-64.195999)" /><g
     id="g4202"
     transform="translate(0,-64.195999)" /><g
     id="g4204"
     transform="translate(0,-64.195999)" /><g
     id="g4206"
     transform="translate(0,-64.195999)" /><g
     id="g4208"
     transform="translate(0,-64.195999)" /><g
     id="g4210"
     transform="translate(0,-64.195999)" /><g
     id="g4212"
     transform="translate(0,-64.195999)" /><g
     id="g4214"
     transform="translate(0,-64.195999)" /><g
     id="g4216"
     transform="translate(0,-64.195999)" /><g
     id="g4218"
     transform="translate(0,-64.195999)" /><g
     id="g4220"
     transform="translate(0,-64.195999)" /></svg>