<?xml version="1.0" encoding="utf-8"?>
<!-- Generator: Adobe Illustrator 15.1.0, SVG Export Plug-In . SVG Version: 6.00 Build 0)  -->
<!DOCTYPE svg PUBLIC "-//W3C//DTD SVG 1.1//EN" "http://www.w3.org/Graphics/SVG/1.1/DTD/svg11.dtd">
<svg version="1.1" id="Layer_1" xmlns="http://www.w3.org/2000/svg" xmlns:xlink="http://www.w3.org/1999/xlink" x="0px" y="0px"
	 width="48px" height="48px" viewBox="0 0 48 48" enable-background="new 0 0 48 48" xml:space="preserve">
<path d="M12.094,10.834c-2.057,2.056-2.057,5.36,0,7.412c2.058,2.06,5.357,2.06,7.414,0c2.059-2.052,2.059-5.356,0-7.412
	C17.451,8.833,14.151,8.833,12.094,10.834z M17.994,16.787c-1.246,1.245-3.192,1.245-4.438,0c-1.245-1.245-1.245-3.192,0-4.437
	c1.246-1.245,3.192-1.192,4.438,0C19.238,13.54,19.238,15.542,17.994,16.787z M31.524,15.163c-0.434-0.594-0.921-1.188-1.46-1.784
	c-3.52-4.063-7.634-6.929-12.288-8.5C13.88,3.579,10.47,3.42,8.251,3.529C7.274,3.58,6.464,3.96,5.814,4.611l0,0l0,0l0,0l0,0
	C5.167,5.258,4.788,6.123,4.732,7.046c-0.107,2.167,0,5.63,1.354,9.525c1.568,4.656,4.437,8.769,8.496,12.288
	c0.379,0.324,0.76,0.648,1.139,0.918l0.053,0.056c0.217,0.163,0.38,0.323,0.595,0.435c0.596,3.246,2.003,7.685,5.413,10.982
	c0.541,0.545,1.246,0.761,2.002,0.597c0.486-0.052,0.918-0.324,1.244-0.649c0.162-0.16,0.323-0.375,0.435-0.598l2.921-5.844
	c0.761-0.106,1.409-0.27,2.003-0.432l9.851,9.85c0.436,0.435,1.081,0.435,1.52,0c0.432-0.432,0.432-1.082,0-1.513l-9.368-9.364
	c0.599-0.378,0.923-0.758,1.137-0.978l0.057-0.051l0,0l0,0l0.053-0.056c0.218-0.218,0.649-0.647,1.137-1.353l5.739,5.735
	c0.435,0.437,1.085,0.437,1.516,0c0.431-0.435,0.431-1.084,0-1.515l-6.226-6.223l0,0c0.162-0.541,0.271-1.083,0.382-1.732
	l5.846-2.92c0.215-0.112,0.43-0.274,0.593-0.435c0.325-0.325,0.595-0.759,0.651-1.244c0.106-0.76-0.11-1.462-0.595-2.005
	C39.154,17.167,34.771,15.759,31.524,15.163z M41.05,22.254c0,0.055-0.054,0.108-0.104,0.16l-6.389,3.195
	c-0.11,0.054-0.217,0.107-0.273,0.215c-0.163,0.163-0.27,0.434-0.324,0.706c-0.106,2.651-1.515,4.006-1.783,4.274
	c-0.058,0.056-0.11,0.11-0.11,0.11c-0.052,0.053-0.108,0.053-0.108,0.104c-0.269,0.274-1.622,1.68-4.274,1.789
	c-0.271,0-0.541,0.108-0.705,0.325c-0.052,0.054-0.162,0.16-0.214,0.269l-3.194,6.39c-0.057,0.052-0.11,0.105-0.163,0.105
	c-0.057,0-0.11,0-0.163-0.054c-2.438-2.383-3.736-5.359-4.439-8.009c1.03,0.54,2.112,1.082,3.032,1.353
	c0.379,0.106,0.758,0,1.03-0.271c0.106-0.108,0.216-0.274,0.269-0.488c0.162-0.541-0.163-1.135-0.756-1.299
	c-1.625-0.435-4.384-2.219-5.358-2.924c-0.378-0.27-0.704-0.594-1.083-0.918c-8.5-7.306-9.365-15.697-9.148-20.08
	c0-0.435,0.215-0.813,0.485-1.085c0.272-0.27,0.651-0.43,1.083-0.485c4.331-0.217,12.721,0.651,20.081,9.145
	c0.596,0.651,1.138,1.356,1.626,2.005c0.161,0.216,0.432,0.379,0.648,0.434c2.977,0.486,7.145,1.73,10.232,4.925
	C41.05,22.146,41.05,22.2,41.05,22.254z"/>
</svg>
