<?xml version="1.0" encoding="UTF-8" standalone="no"?>
<svg
   xmlns:dc="http://purl.org/dc/elements/1.1/"
   xmlns:cc="http://creativecommons.org/ns#"
   xmlns:rdf="http://www.w3.org/1999/02/22-rdf-syntax-ns#"
   xmlns:svg="http://www.w3.org/2000/svg"
   xmlns="http://www.w3.org/2000/svg"
   xmlns:sodipodi="http://sodipodi.sourceforge.net/DTD/sodipodi-0.dtd"
   xmlns:inkscape="http://www.inkscape.org/namespaces/inkscape"
   version="1.1"
   x="0px"
   y="0px"
   viewBox="0 0 48 48"
   xml:space="preserve"
   id="svg4885"
   inkscape:version="0.91 r13725"
   sodipodi:docname="user-group.svg"
   width="48"
   height="48"><metadata
     id="metadata4907"><rdf:RDF><cc:Work
         rdf:about=""><dc:format>image/svg+xml</dc:format><dc:type
           rdf:resource="http://purl.org/dc/dcmitype/StillImage" /><dc:title></dc:title></cc:Work></rdf:RDF></metadata><defs
     id="defs4905" /><sodipodi:namedview
     pagecolor="#ffffff"
     bordercolor="#666666"
     borderopacity="1"
     objecttolerance="10"
     gridtolerance="10"
     guidetolerance="10"
     inkscape:pageopacity="0"
     inkscape:pageshadow="2"
     inkscape:window-width="1792"
     inkscape:window-height="1071"
     id="namedview4903"
     showgrid="false"
     inkscape:zoom="1.888"
     inkscape:cx="50"
     inkscape:cy="62.5"
     inkscape:window-x="0"
     inkscape:window-y="0"
     inkscape:window-maximized="1"
     inkscape:current-layer="svg4885" /><g
     id="g4887"
     transform="matrix(0.60396781,0,0,0.60396781,-6.1497711,-7.4181035)"><g
       id="g4889"><path
         d="m 34.419,47.42 c 2.786,0 5.34,-1.288 7.406,-3.267 -2.167,-3.868 -3.404,-8.244 -3.404,-12.443 0,-3.561 0.863,-6.92 2.382,-9.886 C 38.919,20.674 36.717,20 34.355,20 c -6.904,0 -12.5,5.651 -12.5,12.621 0,6.971 5.66,14.799 12.564,14.799 z"
         id="path4891"
         inkscape:connector-curvature="0" /><path
         d="M 42.827,53.407 C 41.607,53.145 40.344,53 39.046,53 l -9.296,0 c -9.892,0 -17.912,8.008 -17.912,17.887 l 0.042,2.115 c 0,2.76 2.241,4.998 5.005,4.998 l 9.166,0 c 0.45,-10.991 7.217,-20.361 16.776,-24.593 z"
         id="path4893"
         inkscape:connector-curvature="0" /><path
         d="m 59.999,50.06 c 8.56,0 15.421,-9.707 15.421,-18.35 0,-8.643 -6.94,-15.65 -15.5,-15.65 -8.56,0 -15.5,7.007 -15.5,15.65 10e-4,8.643 7.019,18.35 15.579,18.35 z"
         id="path4895"
         inkscape:connector-curvature="0" /><path
         d="m 87.947,79.159 c 0,-12.25 -9.944,-22.18 -22.21,-22.18 l -11.527,0 C 41.944,56.979 32,66.909 32,79.159 l 0.053,2.623 c 0,3.422 2.778,6.197 6.206,6.197 l 43.536,0 c 3.427,0 6.206,-2.775 6.206,-6.197 l -0.054,-2.623 z"
         id="path4897"
         inkscape:connector-curvature="0" /></g></g></svg>