<?xml version="1.0" encoding="UTF-8" standalone="no"?>
<svg
   xmlns:dc="http://purl.org/dc/elements/1.1/"
   xmlns:cc="http://creativecommons.org/ns#"
   xmlns:rdf="http://www.w3.org/1999/02/22-rdf-syntax-ns#"
   xmlns:svg="http://www.w3.org/2000/svg"
   xmlns="http://www.w3.org/2000/svg"
   xmlns:sodipodi="http://sodipodi.sourceforge.net/DTD/sodipodi-0.dtd"
   xmlns:inkscape="http://www.inkscape.org/namespaces/inkscape"
   version="1.1"
   x="0px"
   y="0px"
   viewBox="0 0 48 48"
   xml:space="preserve"
   id="svg5506"
   inkscape:version="0.91 r13725"
   sodipodi:docname="user-incognito.svg"
   width="48"
   height="48"><metadata
     id="metadata5524"><rdf:RDF><cc:Work
         rdf:about=""><dc:format>image/svg+xml</dc:format><dc:type
           rdf:resource="http://purl.org/dc/dcmitype/StillImage" /><dc:title></dc:title></cc:Work></rdf:RDF></metadata><defs
     id="defs5522" /><sodipodi:namedview
     pagecolor="#ffffff"
     bordercolor="#666666"
     borderopacity="1"
     objecttolerance="10"
     gridtolerance="10"
     guidetolerance="10"
     inkscape:pageopacity="0"
     inkscape:pageshadow="2"
     inkscape:window-width="1792"
     inkscape:window-height="1071"
     id="namedview5520"
     showgrid="false"
     inkscape:zoom="1.888"
     inkscape:cx="50"
     inkscape:cy="62.5"
     inkscape:window-x="0"
     inkscape:window-y="0"
     inkscape:window-maximized="1"
     inkscape:current-layer="svg5506" /><g
     id="g5508"
     transform="matrix(0.60543128,0,0,0.60543128,-6.2718667,-6.2652384)"><g
       id="g5510"><path
         d="m 77.947,79.159 c 0,-12.25 -9.944,-22.18 -22.21,-22.18 l -11.527,0 C 31.944,56.979 22,66.909 22,79.159 l 0.053,2.623 c 0,3.422 2.778,6.197 6.206,6.197 l 43.536,0 c 3.427,0 6.206,-2.775 6.206,-6.197 l -0.054,-2.623 z"
         id="path5512"
         inkscape:connector-curvature="0" /><path
         d="m 70,23 -6,0 0,-6.999 c 0,-2.434 -2.156,-4.304 -4.566,-3.96 l -8.922,2.308 c -0.377,0.054 -0.759,0.054 -1.136,-10e-4 L 40.57,12.047 C 38.159,11.7 36,13.57 36,16.006 L 36,23 30,23 c -1.105,0 -2,0.895 -2,2 l 0,0.84 c 0,1.105 0.895,2 2,2 l 4.918,0 c -0.313,1.24 -0.497,2.532 -0.497,3.87 0,8.643 7.018,18.35 15.579,18.35 8.56,0 15.421,-9.707 15.421,-18.35 0,-1.338 -0.184,-2.63 -0.497,-3.87 l 5.076,0 c 1.105,0 2,-0.895 2,-2 L 72,25 c 0,-1.105 -0.895,-2 -2,-2 z m -23,12 -7,0 0,-5 7,0 0,5 z m 13,0 -7,0 0,-5 7,0 0,5 z"
         id="path5514"
         inkscape:connector-curvature="0" /></g></g></svg>