<?xml version="1.0" encoding="utf-8"?>
<!-- Generator: Adobe Illustrator 15.0.0, SVG Export Plug-In . SVG Version: 6.00 Build 0)  -->
<!DOCTYPE svg PUBLIC "-//W3C//DTD SVG 1.1//EN" "http://www.w3.org/Graphics/SVG/1.1/DTD/svg11.dtd">
<svg version="1.1" id="Layer_1" xmlns="http://www.w3.org/2000/svg" xmlns:xlink="http://www.w3.org/1999/xlink" x="0px" y="0px"
	 width="16px" height="16px" viewBox="0 0 16 16" enable-background="new 0 0 16 16" xml:space="preserve">
<g>
	<path fill="#010101" d="M8.338,11.732c-1.043-0.436-1.291-0.586-1.291-0.586l-0.011-1c0,0,0.392-0.303,0.513-1.245
		C7.794,8.974,8.05,8.539,8.064,8.308C8.078,8.087,8.03,7.473,7.732,7.536c0.062-0.462,0.105-0.877,0.083-1.097
		C7.738,5.634,6.947,4.787,5.729,4.787S3.721,5.634,3.643,6.439c-0.022,0.22,0.022,0.635,0.083,1.097
		C3.427,7.473,3.379,8.087,3.393,8.308c0.016,0.23,0.271,0.666,0.516,0.594c0.121,0.942,0.514,1.245,0.514,1.245l-0.012,1
		c0,0-0.248,0.15-1.29,0.586c-1.044,0.436-2.099,0.738-2.412,1.229c-0.282,0.438-0.197,2.547-0.197,2.547h5.217h5.217
		c0,0,0.084-2.109-0.196-2.547C10.436,12.471,9.381,12.168,8.338,11.732z"/>
	<polygon fill="#010101" points="6.13,0.492 6.13,3.307 7.068,3.307 7.068,1.43 14.563,1.43 14.563,6.117 13.651,6.103 
		13.331,6.098 13.074,6.289 10.808,7.984 10.808,7.042 10.808,6.095 9.862,6.103 8.945,6.11 8.945,7.048 9.87,7.042 9.87,9.855 
		13.637,7.042 15.5,7.07 15.5,0.492 	"/>
</g>
</svg>
