<?xml version="1.0" encoding="UTF-8" standalone="no"?>
<!-- Generator: Adobe Illustrator 15.1.0, SVG Export Plug-In . SVG Version: 6.00 Build 0)  -->

<svg
   xmlns:dc="http://purl.org/dc/elements/1.1/"
   xmlns:cc="http://creativecommons.org/ns#"
   xmlns:rdf="http://www.w3.org/1999/02/22-rdf-syntax-ns#"
   xmlns:svg="http://www.w3.org/2000/svg"
   xmlns="http://www.w3.org/2000/svg"
   xmlns:sodipodi="http://sodipodi.sourceforge.net/DTD/sodipodi-0.dtd"
   xmlns:inkscape="http://www.inkscape.org/namespaces/inkscape"
   version="1.1"
   id="Layer_1"
   x="0px"
   y="0px"
   width="180"
   height="160"
   viewBox="0 0 180 160"
   enable-background="new 0 0 128 128"
   xml:space="preserve"
   inkscape:version="0.91 r13725"
   sodipodi:docname="automatus.svg"><metadata
     id="metadata4334"><rdf:RDF><cc:Work
         rdf:about=""><dc:format>image/svg+xml</dc:format><dc:type
           rdf:resource="http://purl.org/dc/dcmitype/StillImage" /><dc:title></dc:title></cc:Work></rdf:RDF></metadata><defs
     id="defs4332" /><sodipodi:namedview
     pagecolor="#ffffff"
     bordercolor="#666666"
     borderopacity="1"
     objecttolerance="10"
     gridtolerance="10"
     guidetolerance="10"
     inkscape:pageopacity="0"
     inkscape:pageshadow="2"
     inkscape:window-width="1792"
     inkscape:window-height="1071"
     id="namedview4330"
     showgrid="false"
     inkscape:zoom="3.4375"
     inkscape:cx="119.27164"
     inkscape:cy="36.404616"
     inkscape:window-x="0"
     inkscape:window-y="0"
     inkscape:window-maximized="1"
     inkscape:current-layer="Layer_1" /><path
     display="none"
     d="m 540.014,273.766 -23.653,-5.615 c -0.036,-0.008 -0.073,-0.004 -0.109,-0.012 -0.53,-0.775 -1.33,-1.363 -2.297,-1.594 l -23.654,-5.611 c -0.298,-0.07 -0.597,-0.104 -0.896,-0.104 -0.185,0 -0.365,0.021 -0.547,0.046 -7.481,-4.387 -15.773,-6.706 -24.022,-6.706 -26.375,0 -47.832,21.457 -47.832,47.831 0,26.376 21.457,47.833 47.832,47.833 8.571,0 16.98,-2.313 24.355,-6.679 0.071,0.005 0.143,0.019 0.214,0.019 0.299,0 0.6,-0.032 0.896,-0.104 l 23.654,-5.612 c 1.751,-0.418 2.985,-1.979 2.985,-3.779 l 0,-43.724 5.464,1.416 0,40.706 c 0,1.192 0.551,2.321 1.493,3.059 0.689,0.539 1.531,0.823 2.39,0.823 0.313,0 0.631,-0.039 0.942,-0.114 l 12.832,-3.212 c 1.729,-0.429 2.939,-1.984 2.939,-3.766 l 0,-51.32 c 0,-1.803 -1.236,-3.367 -2.986,-3.781 z m -43.672,19.14 -6.939,0 c -2.146,0 -3.885,1.738 -3.885,3.883 l 0,10.42 c 0,2.143 1.738,3.882 3.885,3.882 l 6.939,0 0,11.087 -6.939,0 c -2.146,0 -3.885,1.738 -3.885,3.883 l 0,2.729 -11.257,-18.668 c -0.729,-1.211 -2.014,-1.882 -3.329,-1.882 -0.684,0 -1.371,0.182 -1.999,0.559 -1.237,0.745 -2.655,1.14 -4.102,1.14 -4.378,0 -7.938,-3.563 -7.938,-7.938 0,-4.375 3.563,-7.935 7.938,-7.935 1.443,0 2.86,0.394 4.1,1.141 0.608,0.368 1.306,0.559 2.003,0.559 0.314,0 0.629,-0.039 0.938,-0.115 1,-0.248 1.859,-0.883 2.39,-1.768 l 11.257,-18.713 0,2.773 c 0,2.145 1.738,3.883 3.885,3.883 l 6.939,0 -0.001,11.08 0,0 z"
     id="path4304"
     inkscape:connector-curvature="0"
     style="display:none;fill:#ffffff" /><g
     transform="matrix(1.9483555,0,0,1.9483555,-7.417775,-17.419723)"
     id="g4340"
     style="fill:#f16260;fill-opacity:1"><path
       inkscape:connector-curvature="0"
       d="m 88.024,59.455 c -0.712,0 -1.399,0.108 -2.047,0.308 l -2.436,-3.746 c 1.069,-1.226 1.723,-2.824 1.723,-4.575 0,-3.784 -3.03,-6.867 -6.791,-6.966 -2.442,-5.667 -7.205,-9.912 -12.92,-11.752 -0.375,-3.186 -2.698,-5.777 -5.743,-6.559 l 0,-3.165 c 2.519,-0.811 4.348,-3.176 4.348,-5.961 0,-3.453 -2.81,-6.263 -6.263,-6.263 -3.453,0 -6.263,2.809 -6.263,6.263 0,2.785 1.829,5.15 4.348,5.961 l 0,3.165 c -3.044,0.782 -5.366,3.372 -5.742,6.557 -5.72,1.839 -10.488,6.088 -12.931,11.758 -3.691,0.175 -6.643,3.225 -6.643,6.959 0,1.069 0.249,2.078 0.68,2.985 l -3.953,3.479 c -1.089,-0.704 -2.383,-1.118 -3.774,-1.118 -1.174,0 -2.279,0.294 -3.251,0.808 l -3.17,-3.429 c 0.67,-1.131 1.035,-2.42 1.035,-3.768 0,-1.983 -0.772,-3.847 -2.174,-5.249 -0.748,-0.747 -1.96,-0.748 -2.708,0 -0.748,0.748 -0.748,1.96 0,2.708 0.678,0.678 1.052,1.58 1.052,2.54 0,0.959 -0.374,1.861 -1.052,2.54 -1.401,1.4 -3.68,1.401 -5.08,0 -0.747,-0.748 -1.961,-0.748 -2.708,0 -0.748,0.748 -0.748,1.96 0,2.708 1.447,1.447 3.347,2.171 5.248,2.171 1.263,0 2.523,-0.327 3.653,-0.966 l 3.14,3.397 c -0.607,1.034 -0.961,2.233 -0.961,3.516 0,3.847 3.129,6.976 6.976,6.976 3.847,0 6.976,-3.129 6.976,-6.976 0,-1.066 -0.248,-2.074 -0.677,-2.978 l 3.956,-3.481 c 0.526,0.339 1.097,0.614 1.707,0.803 l 0,11.364 c 0,2.326 1.33,5.556 7.665,7.739 3.894,1.342 9.096,2.08 14.646,2.08 10.292,0 22.311,-2.571 22.311,-9.819 l 0,-11.325 c 0.044,-0.013 0.089,-0.021 0.133,-0.034 l 2.436,3.747 c -1.069,1.226 -1.722,2.824 -1.722,4.574 0,2.607 1.44,4.881 3.564,6.078 l -0.951,3.359 c -1.324,0.034 -2.621,0.416 -3.768,1.142 -1.675,1.061 -2.837,2.71 -3.271,4.645 -0.231,1.032 0.417,2.056 1.449,2.288 1.031,0.228 2.056,-0.417 2.288,-1.449 0.21,-0.936 0.772,-1.734 1.583,-2.248 0.81,-0.513 1.772,-0.679 2.708,-0.47 1.933,0.434 3.152,2.36 2.718,4.293 -0.231,1.032 0.417,2.056 1.449,2.288 0.141,0.031 0.282,0.047 0.421,0.047 0.876,0 1.667,-0.605 1.867,-1.496 0.743,-3.312 -0.867,-6.608 -3.716,-8.149 l 0.953,-3.367 C 92.041,73.222 95,70.169 95,66.431 95,62.584 91.871,59.455 88.024,59.455 Z m -6.59,-8.014 c 0,1.734 -1.41,3.145 -3.145,3.146 -0.001,0 -0.002,0 -0.003,0 -0.001,0 -0.001,0 -0.002,0 -1.733,-0.002 -3.143,-1.412 -3.143,-3.146 0,-1.734 1.411,-3.146 3.146,-3.146 1.736,0 3.147,1.412 3.147,3.146 z M 57.895,14.605 c 1.342,0 2.433,1.092 2.433,2.433 0,1.342 -1.092,2.433 -2.433,2.433 -1.341,0 -2.433,-1.092 -2.433,-2.433 0,-1.342 1.091,-2.433 2.433,-2.433 z m 0,15.138 c 1.495,0 2.781,0.858 3.43,2.1 -0.723,-0.076 -1.451,-0.129 -2.189,-0.129 l -2.491,0 c -0.735,0 -1.46,0.052 -2.179,0.128 0.649,-1.241 1.934,-2.099 3.429,-2.099 z M 37.639,48.291 c 0.212,0 0.419,0.022 0.62,0.063 0.013,0.002 0.027,0.008 0.04,0.01 1.419,0.304 2.486,1.566 2.486,3.073 0,1.735 -1.411,3.146 -3.146,3.146 -1.734,0 -3.146,-1.411 -3.146,-3.146 0,-1.734 1.412,-3.146 3.146,-3.146 z M 23.617,66.905 c -1.735,0 -3.146,-1.411 -3.146,-3.146 0,-0.867 0.353,-1.653 0.922,-2.223 0.002,-0.002 0.004,-0.003 0.006,-0.005 10e-4,-10e-4 10e-4,-10e-4 0.002,-0.002 0.569,-0.565 1.352,-0.916 2.216,-0.916 1.735,0 3.146,1.411 3.146,3.146 0,1.735 -1.411,3.146 -3.146,3.146 z m 34.273,8.551 c -10.191,0 -18.481,-2.687 -18.481,-5.989 l 0,-1.678 c 0.148,0.05 0.301,0.077 0.454,0.077 0.442,0 0.879,-0.204 1.16,-0.588 0.468,-0.64 0.329,-1.539 -0.311,-2.007 -0.578,-0.422 -1.009,-0.854 -1.303,-1.301 l 0,-5.792 c 2.991,-0.786 5.207,-3.506 5.207,-6.74 0,-2.585 -1.417,-4.842 -3.512,-6.047 2.842,-5.954 8.868,-9.847 15.542,-9.847 l 2.491,0 c 6.703,0 12.749,3.923 15.576,9.919 -2.033,1.22 -3.4,3.44 -3.4,5.978 0,3.181 2.143,5.867 5.06,6.702 l 0,5.839 c -0.294,0.441 -0.722,0.869 -1.294,1.288 -0.64,0.468 -0.779,1.367 -0.311,2.007 0.281,0.384 0.718,0.588 1.16,0.588 0.15,0 0.299,-0.024 0.445,-0.072 l 0,1.673 c -0.002,3.303 -8.292,5.99 -18.483,5.99 z m 30.134,-5.879 c -1.734,0 -3.146,-1.411 -3.146,-3.146 0,-1.735 1.411,-3.146 3.146,-3.146 1.735,0 3.146,1.411 3.146,3.146 0,1.734 -1.411,3.146 -3.146,3.146 z"
       id="path4342-0"
       style="fill:#f16260;fill-opacity:1" /><path
       inkscape:connector-curvature="0"
       d="m 68.7,67.828 c -2.152,0.498 -4.563,0.835 -7.166,1.003 -0.791,0.051 -1.392,0.734 -1.341,1.525 0.049,0.76 0.681,1.344 1.432,1.344 0.031,0 0.062,-0.001 0.094,-0.003 2.759,-0.178 5.326,-0.538 7.63,-1.071 0.773,-0.179 1.254,-0.95 1.075,-1.723 C 70.243,68.13 69.471,67.649 68.7,67.828 Z"
       id="path4344-9"
       style="fill:#f16260;fill-opacity:1" /><path
       inkscape:connector-curvature="0"
       d="m 54.244,68.83 c -2.604,-0.168 -5.015,-0.506 -7.166,-1.005 -0.775,-0.181 -1.545,0.301 -1.724,1.074 -0.18,0.773 0.302,1.545 1.074,1.724 2.304,0.535 4.871,0.896 7.631,1.074 0.032,0.002 0.063,0.003 0.094,0.003 0.751,0 1.383,-0.584 1.432,-1.344 0.05,-0.791 -0.55,-1.474 -1.341,-1.526 z"
       id="path4346"
       style="fill:#f16260;fill-opacity:1" /><circle
       cx="51.751999"
       cy="45.977001"
       r="4.0040002"
       id="circle4348-6"
       style="fill:#f16260;fill-opacity:1" /><circle
       cx="64.029999"
       cy="45.977001"
       r="4.0040002"
       id="circle4350"
       style="fill:#f16260;fill-opacity:1" /><path
       inkscape:connector-curvature="0"
       d="m 68.433,79.125 c -4.513,0 -8.186,3.672 -8.186,8.186 0,1.057 0.857,1.915 1.915,1.915 0.008,0 0.015,-0.002 0.023,-0.002 l 12.495,0 c 0.008,0 0.015,0.002 0.023,0.002 1.057,0 1.915,-0.857 1.915,-1.915 0.001,-4.515 -3.672,-8.186 -8.185,-8.186 z m 0,3.829 c 1.71,0 3.179,1 3.891,2.438 l -7.783,0 c 0.713,-1.437 2.182,-2.438 3.892,-2.438 z"
       id="path4352-5"
       style="fill:#f16260;fill-opacity:1" /><path
       inkscape:connector-curvature="0"
       d="m 47.347,79.125 c -4.513,0 -8.186,3.672 -8.186,8.186 0,1.057 0.857,1.915 1.915,1.915 0.008,0 0.015,-0.002 0.023,-0.002 l 12.495,0 c 0.008,0 0.015,0.002 0.023,0.002 1.057,0 1.915,-0.857 1.915,-1.915 0.001,-4.515 -3.671,-8.186 -8.185,-8.186 z m 0,3.829 c 1.71,0 3.179,1 3.891,2.438 l -7.783,0 c 0.713,-1.437 2.182,-2.438 3.892,-2.438 z"
       id="path4354-3"
       style="fill:#f16260;fill-opacity:1" /><path
       inkscape:connector-curvature="0"
       d="m 69.106,57.047 -1.032,0 0,-1.678 c 0,-0.793 -0.643,-1.436 -1.436,-1.436 -0.793,0 -1.436,0.643 -1.436,1.436 l 0,1.678 -1.172,0 c -0.793,0 -1.436,0.643 -1.436,1.436 0,0.793 0.643,1.436 1.436,1.436 l 1.172,0 0,1.678 c 0,0.793 0.643,1.436 1.436,1.436 0.793,0 1.436,-0.643 1.436,-1.436 l 0,-1.678 1.032,0 c 0.793,0 1.436,-0.643 1.436,-1.436 0,-0.793 -0.643,-1.436 -1.436,-1.436 z"
       id="path4356"
       style="fill:#f16260;fill-opacity:1" /></g></svg>