<?xml version="1.0" encoding="UTF-8" standalone="no"?>
<!-- Generator: Adobe Illustrator 15.1.0, SVG Export Plug-In . SVG Version: 6.00 Build 0)  -->

<svg
   xmlns:dc="http://purl.org/dc/elements/1.1/"
   xmlns:cc="http://creativecommons.org/ns#"
   xmlns:rdf="http://www.w3.org/1999/02/22-rdf-syntax-ns#"
   xmlns:svg="http://www.w3.org/2000/svg"
   xmlns="http://www.w3.org/2000/svg"
   xmlns:sodipodi="http://sodipodi.sourceforge.net/DTD/sodipodi-0.dtd"
   xmlns:inkscape="http://www.inkscape.org/namespaces/inkscape"
   version="1.1"
   id="Layer_1"
   x="0px"
   y="0px"
   width="135"
   height="135"
   viewBox="0 0 135 135"
   enable-background="new 0 0 128 128"
   xml:space="preserve"
   inkscape:version="0.91 r13725"
   sodipodi:docname="firmware.svg"><metadata
     id="metadata4334"><rdf:RDF><cc:Work
         rdf:about=""><dc:format>image/svg+xml</dc:format><dc:type
           rdf:resource="http://purl.org/dc/dcmitype/StillImage" /><dc:title></dc:title></cc:Work></rdf:RDF></metadata><defs
     id="defs4332" /><sodipodi:namedview
     pagecolor="#ffffff"
     bordercolor="#666666"
     borderopacity="1"
     objecttolerance="10"
     gridtolerance="10"
     guidetolerance="10"
     inkscape:pageopacity="0"
     inkscape:pageshadow="2"
     inkscape:window-width="1792"
     inkscape:window-height="1071"
     id="namedview4330"
     showgrid="false"
     inkscape:zoom="2.4306796"
     inkscape:cx="9.1355774"
     inkscape:cy="-0.92391787"
     inkscape:window-x="0"
     inkscape:window-y="0"
     inkscape:window-maximized="1"
     inkscape:current-layer="Layer_1" /><path
     display="none"
     d="m 540.014,248.766 -23.653,-5.615 c -0.036,-0.008 -0.073,-0.004 -0.109,-0.012 -0.53,-0.775 -1.33,-1.363 -2.297,-1.594 l -23.654,-5.611 c -0.298,-0.07 -0.597,-0.104 -0.896,-0.104 -0.185,0 -0.365,0.021 -0.547,0.046 -7.481,-4.387 -15.773,-6.706 -24.022,-6.706 -26.375,0 -47.832,21.457 -47.832,47.831 0,26.376 21.457,47.833 47.832,47.833 8.571,0 16.98,-2.313 24.355,-6.679 0.071,0.005 0.143,0.019 0.214,0.019 0.299,0 0.6,-0.032 0.896,-0.104 l 23.654,-5.612 c 1.751,-0.418 2.985,-1.979 2.985,-3.779 l 0,-43.724 5.464,1.416 0,40.706 c 0,1.192 0.551,2.321 1.493,3.059 0.689,0.539 1.531,0.823 2.39,0.823 0.313,0 0.631,-0.039 0.942,-0.114 l 12.832,-3.212 c 1.729,-0.429 2.939,-1.984 2.939,-3.766 l 0,-51.32 c 0,-1.803 -1.236,-3.367 -2.986,-3.781 z m -43.672,19.14 -6.939,0 c -2.146,0 -3.885,1.738 -3.885,3.883 l 0,10.42 c 0,2.143 1.738,3.882 3.885,3.882 l 6.939,0 0,11.087 -6.939,0 c -2.146,0 -3.885,1.738 -3.885,3.883 l 0,2.729 -11.257,-18.668 c -0.729,-1.211 -2.014,-1.882 -3.329,-1.882 -0.684,0 -1.371,0.182 -1.999,0.559 -1.237,0.745 -2.655,1.14 -4.102,1.14 -4.378,0 -7.938,-3.563 -7.938,-7.938 0,-4.375 3.563,-7.935 7.938,-7.935 1.443,0 2.86,0.394 4.1,1.141 0.608,0.368 1.306,0.559 2.003,0.559 0.314,0 0.629,-0.039 0.938,-0.115 1,-0.248 1.859,-0.883 2.39,-1.768 l 11.257,-18.713 0,2.773 c 0,2.145 1.738,3.883 3.885,3.883 l 6.939,0 -0.001,11.08 0,0 z"
     id="path4304"
     inkscape:connector-curvature="0"
     style="display:none;fill:#ffffff" /><g
     id="g4318"
     transform="matrix(0.30500442,0,0,0.30500442,0.18880803,136.55244)"><g
       id="g4320"><g
         id="g4322"><path
           d="m 71.524,101.636 c -6.854,4.136 -14.696,6.314 -22.692,6.314 -24.26,0 -43.948,-19.688 -43.948,-43.951 0,-24.261 19.689,-43.949 43.948,-43.949 7.996,0 15.713,2.337 22.561,6.466 L 54.934,53.879 C 53.091,52.77 50.981,52.18 48.831,52.18 c -6.523,0 -11.821,5.297 -11.821,11.818 0,6.525 5.298,11.82 11.821,11.82 2.15,0 4.26,-0.586 6.103,-1.694 l 16.59,27.512 z"
           id="path4324"
           inkscape:connector-curvature="0"
           style="fill:#698b71" /></g></g><polygon
       enable-background="new    "
       points="123.116,39.542 99.46,33.93 99.46,47.561 110.285,50.364 110.285,94.073 123.116,90.861 "
       id="polygon4326"
       style="opacity:1;fill:#2ca4b4" /><polygon
       enable-background="new    "
       points="73.401,39.939 73.401,26.71 97.055,32.323 97.055,95.675 73.401,101.29 73.401,88.061 84.226,88.061 84.226,69.208 73.401,69.208 73.401,58.788 84.226,58.788 84.226,39.939 "
       id="polygon4328"
       style="opacity:1;fill:#f16260" /></g><g
     transform="matrix(1.5449753,0,0,1.5449753,-9.748765,-9.748765)"
     id="g5388"
     style="fill:#666666"><path
       inkscape:connector-curvature="0"
       d="M 82,8 18,8 C 12.5,8 8,12.5 8,18 l 0,64 c 0,5.5 4.5,10 10,10 l 64,0 c 5.5,0 10,-4.5 10,-10 L 92,18 C 92,12.5 87.5,8 82,8 Z m 6,10 0,30 -36,0 0,-36 30,0 c 3.3,0 6,2.7 6,6 z m -70,-6 30,0 0,36 -36,0 0,-30 c 0,-3.3 2.7,-6 6,-6 z m -6,70 0,-30 36,0 0,36 -30,0 c -3.3,0 -6,-2.7 -6,-6 z m 70,6 -30,0 0,-36 36,0 0,30 c 0,3.3 -2.7,6 -6,6 z"
       id="path5390"
       style="fill:#666666" /><polygon
       points="21.1,66 21.1,70 27.7,70 27.7,76.7 31.7,76.7 31.7,70 38.4,70 38.4,66 31.7,66 31.7,59.4 27.7,59.4 27.7,66 "
       id="polygon5392"
       style="fill:#666666" /><rect
       x="21.1"
       y="28.700001"
       width="17.299999"
       height="4"
       id="rect5394"
       style="fill:#666666" /><rect
       x="60.700001"
       y="72"
       width="17.299999"
       height="4"
       id="rect5396"
       style="fill:#666666" /><rect
       x="60.700001"
       y="63"
       width="17.299999"
       height="4"
       id="rect5398"
       style="fill:#666666" /><polygon
       points="72.2,30.7 76.9,26 74.1,23.1 69.4,27.8 64.6,23.1 61.8,26 66.5,30.7 61.8,35.4 64.6,38.2 69.4,33.5 74.1,38.2 76.9,35.4 "
       id="polygon5400"
       style="fill:#666666" /></g></svg>