<?xml version="1.0" encoding="UTF-8" standalone="no"?>
<!-- Generator: Adobe Illustrator 15.1.0, SVG Export Plug-In . SVG Version: 6.00 Build 0)  -->

<svg
   xmlns:dc="http://purl.org/dc/elements/1.1/"
   xmlns:cc="http://creativecommons.org/ns#"
   xmlns:rdf="http://www.w3.org/1999/02/22-rdf-syntax-ns#"
   xmlns:svg="http://www.w3.org/2000/svg"
   xmlns="http://www.w3.org/2000/svg"
   xmlns:sodipodi="http://sodipodi.sourceforge.net/DTD/sodipodi-0.dtd"
   xmlns:inkscape="http://www.inkscape.org/namespaces/inkscape"
   version="1.1"
   id="Layer_1"
   x="0px"
   y="0px"
   width="124"
   height="124"
   viewBox="0 0 124 124"
   enable-background="new 0 0 128 128"
   xml:space="preserve"
   inkscape:version="0.91 r13725"
   sodipodi:docname="cad.svg"><metadata
     id="metadata4334"><rdf:RDF><cc:Work
         rdf:about=""><dc:format>image/svg+xml</dc:format><dc:type
           rdf:resource="http://purl.org/dc/dcmitype/StillImage" /><dc:title></dc:title></cc:Work></rdf:RDF></metadata><defs
     id="defs4332" /><sodipodi:namedview
     pagecolor="#ffffff"
     bordercolor="#666666"
     borderopacity="1"
     objecttolerance="10"
     gridtolerance="10"
     guidetolerance="10"
     inkscape:pageopacity="0"
     inkscape:pageshadow="2"
     inkscape:window-width="1792"
     inkscape:window-height="1071"
     id="namedview4330"
     showgrid="false"
     inkscape:zoom="2.4306796"
     inkscape:cx="-45.550526"
     inkscape:cy="69.811783"
     inkscape:window-x="0"
     inkscape:window-y="0"
     inkscape:window-maximized="1"
     inkscape:current-layer="Layer_1" /><path
     display="none"
     d="m 540.014,237.766 -23.653,-5.615 c -0.036,-0.008 -0.073,-0.004 -0.109,-0.012 -0.53,-0.775 -1.33,-1.363 -2.297,-1.594 l -23.654,-5.611 c -0.298,-0.07 -0.597,-0.104 -0.896,-0.104 -0.185,0 -0.365,0.021 -0.547,0.046 -7.481,-4.387 -15.773,-6.706 -24.022,-6.706 -26.375,0 -47.832,21.457 -47.832,47.831 0,26.376 21.457,47.833 47.832,47.833 8.571,0 16.98,-2.313 24.355,-6.679 0.071,0.005 0.143,0.019 0.214,0.019 0.299,0 0.6,-0.032 0.896,-0.104 l 23.654,-5.612 c 1.751,-0.418 2.985,-1.979 2.985,-3.779 l 0,-43.724 5.464,1.416 0,40.706 c 0,1.192 0.551,2.321 1.493,3.059 0.689,0.539 1.531,0.823 2.39,0.823 0.313,0 0.631,-0.039 0.942,-0.114 l 12.832,-3.212 c 1.729,-0.429 2.939,-1.984 2.939,-3.766 l 0,-51.32 c 0,-1.803 -1.236,-3.367 -2.986,-3.781 z m -43.672,19.14 -6.939,0 c -2.146,0 -3.885,1.738 -3.885,3.883 l 0,10.42 c 0,2.143 1.738,3.882 3.885,3.882 l 6.939,0 0,11.087 -6.939,0 c -2.146,0 -3.885,1.738 -3.885,3.883 l 0,2.729 -11.257,-18.668 c -0.729,-1.211 -2.014,-1.882 -3.329,-1.882 -0.684,0 -1.371,0.182 -1.999,0.559 -1.237,0.745 -2.655,1.14 -4.102,1.14 -4.378,0 -7.938,-3.563 -7.938,-7.938 0,-4.375 3.563,-7.935 7.938,-7.935 1.443,0 2.86,0.394 4.1,1.141 0.608,0.368 1.306,0.559 2.003,0.559 0.314,0 0.629,-0.039 0.938,-0.115 1,-0.248 1.859,-0.883 2.39,-1.768 l 11.257,-18.713 0,2.773 c 0,2.145 1.738,3.883 3.885,3.883 l 6.939,0 -0.001,11.08 0,0 z"
     id="path4304"
     inkscape:connector-curvature="0"
     style="display:none;fill:#ffffff" /><g
     transform="matrix(2.5416667,0,0,2.5416667,-1.5416675,-1.5416675)"
     id="g5110"><g
       id="g4229"><g
         id="g4231"><rect
           style="fill:none;stroke:#698b71;stroke-width:2;stroke-miterlimit:10;stroke-opacity:1"
           id="rect4233"
           height="4"
           width="4"
           class="st0"
           y="27"
           x="38" /><rect
           style="fill:none;stroke:#698b71;stroke-width:2;stroke-miterlimit:10;stroke-opacity:1"
           id="rect4235"
           height="4"
           width="4"
           class="st0"
           y="44"
           x="23" /><rect
           style="fill:none;stroke:#698b71;stroke-width:2;stroke-miterlimit:10;stroke-opacity:1"
           id="rect4237"
           height="4"
           width="4"
           class="st0"
           y="27"
           x="8" /><path
           style="fill:none;stroke:#698b71;stroke-width:2;stroke-miterlimit:10;stroke-opacity:1"
           inkscape:connector-curvature="0"
           id="path4239"
           d="M 23,45.9 C 15.7,44.9 10,38.6 10,31"
           class="st0" /><path
           style="fill:none;stroke:#698b71;stroke-width:2;stroke-miterlimit:10;stroke-opacity:1"
           inkscape:connector-curvature="0"
           id="path4241"
           d="m 40,31 c 0,7.6 -5.7,13.9 -13,14.9"
           class="st0" /></g><g
         id="g4243"><line
           style="fill:none;stroke:#698b71;stroke-width:2;stroke-miterlimit:10;stroke-opacity:1"
           id="line4245"
           y2="46"
           x2="41"
           y1="46"
           x1="27"
           class="st0" /><rect
           style="fill:none;stroke:#698b71;stroke-width:2;stroke-miterlimit:10;stroke-opacity:1"
           id="rect4247"
           height="4"
           width="4"
           class="st0"
           y="44"
           x="41" /></g><g
         id="g4249"><line
           style="fill:none;stroke:#698b71;stroke-width:2;stroke-miterlimit:10;stroke-opacity:1"
           id="line4251"
           y2="46"
           x2="9"
           y1="46"
           x1="23"
           class="st0" /><rect
           style="fill:none;stroke:#698b71;stroke-width:2;stroke-miterlimit:10;stroke-opacity:1"
           id="rect4253"
           height="4"
           width="4"
           class="st0"
           transform="matrix(-1,0,0,-1,14,92)"
           y="44"
           x="5" /></g></g><line
       style="fill:#ff9955;stroke:#698b71;stroke-width:2;stroke-miterlimit:10;stroke-opacity:1"
       id="line4255"
       y2="25"
       x2="31.5"
       y1="25"
       x1="18.5"
       class="st0" /><g
       id="g4257"><path
         style="fill:none;stroke:#698b71;stroke-width:2;stroke-miterlimit:10;stroke-opacity:1"
         inkscape:connector-curvature="0"
         id="path4259"
         d="m 37,18 c 0,-2.2 -1.8,-4 -4,-4 -2.2,0 -4,1.8 -4,4"
         class="st0" /><path
         style="fill:none;stroke:#698b71;stroke-width:2;stroke-miterlimit:10;stroke-opacity:1"
         inkscape:connector-curvature="0"
         id="path4261"
         d="m 29,18 c 0,-2.2 -1.8,-4 -4,-4 -2.2,0 -4,1.8 -4,4"
         class="st0" /><path
         style="fill:none;stroke:#698b71;stroke-width:2;stroke-miterlimit:10;stroke-opacity:1"
         inkscape:connector-curvature="0"
         id="path4263"
         d="m 21,18 c 0,-2.2 -1.8,-4 -4,-4 -2.2,0 -4,1.8 -4,4"
         class="st0" /></g><polygon
       style="fill:none;stroke:#698b71;stroke-width:2;stroke-miterlimit:10;stroke-opacity:1"
       id="polygon4265"
       points="37,20 25,31 13,20 13,2 37,2 "
       class="st0" /></g></svg>