<?xml version="1.0" encoding="UTF-8" standalone="no"?>
<!-- Generator: Adobe Illustrator 15.1.0, SVG Export Plug-In . SVG Version: 6.00 Build 0)  -->

<svg
   xmlns:dc="http://purl.org/dc/elements/1.1/"
   xmlns:cc="http://creativecommons.org/ns#"
   xmlns:rdf="http://www.w3.org/1999/02/22-rdf-syntax-ns#"
   xmlns:svg="http://www.w3.org/2000/svg"
   xmlns="http://www.w3.org/2000/svg"
   xmlns:sodipodi="http://sodipodi.sourceforge.net/DTD/sodipodi-0.dtd"
   xmlns:inkscape="http://www.inkscape.org/namespaces/inkscape"
   version="1.1"
   id="Layer_1"
   x="0px"
   y="0px"
   width="124"
   height="124"
   viewBox="0 0 124 124"
   enable-background="new 0 0 128 128"
   xml:space="preserve"
   inkscape:version="0.91 r13725"
   sodipodi:docname="cam.svg"><metadata
     id="metadata4334"><rdf:RDF><cc:Work
         rdf:about=""><dc:format>image/svg+xml</dc:format><dc:type
           rdf:resource="http://purl.org/dc/dcmitype/StillImage" /><dc:title></dc:title></cc:Work></rdf:RDF></metadata><defs
     id="defs4332" /><sodipodi:namedview
     pagecolor="#ffffff"
     bordercolor="#666666"
     borderopacity="1"
     objecttolerance="10"
     gridtolerance="10"
     guidetolerance="10"
     inkscape:pageopacity="0"
     inkscape:pageshadow="2"
     inkscape:window-width="1792"
     inkscape:window-height="1071"
     id="namedview4330"
     showgrid="false"
     inkscape:zoom="1"
     inkscape:cx="65"
     inkscape:cy="47.500001"
     inkscape:window-x="0"
     inkscape:window-y="0"
     inkscape:window-maximized="1"
     inkscape:current-layer="Layer_1" /><path
     display="none"
     d="m 540.014,237.766 -23.653,-5.615 c -0.036,-0.008 -0.073,-0.004 -0.109,-0.012 -0.53,-0.775 -1.33,-1.363 -2.297,-1.594 l -23.654,-5.611 c -0.298,-0.07 -0.597,-0.104 -0.896,-0.104 -0.185,0 -0.365,0.021 -0.547,0.046 -7.481,-4.387 -15.773,-6.706 -24.022,-6.706 -26.375,0 -47.832,21.457 -47.832,47.831 0,26.376 21.457,47.833 47.832,47.833 8.571,0 16.98,-2.313 24.355,-6.679 0.071,0.005 0.143,0.019 0.214,0.019 0.299,0 0.6,-0.032 0.896,-0.104 l 23.654,-5.612 c 1.751,-0.418 2.985,-1.979 2.985,-3.779 l 0,-43.724 5.464,1.416 0,40.706 c 0,1.192 0.551,2.321 1.493,3.059 0.689,0.539 1.531,0.823 2.39,0.823 0.313,0 0.631,-0.039 0.942,-0.114 l 12.832,-3.212 c 1.729,-0.429 2.939,-1.984 2.939,-3.766 l 0,-51.32 c 0,-1.803 -1.236,-3.367 -2.986,-3.781 z m -43.672,19.14 -6.939,0 c -2.146,0 -3.885,1.738 -3.885,3.883 l 0,10.42 c 0,2.143 1.738,3.882 3.885,3.882 l 6.939,0 0,11.087 -6.939,0 c -2.146,0 -3.885,1.738 -3.885,3.883 l 0,2.729 -11.257,-18.668 c -0.729,-1.211 -2.014,-1.882 -3.329,-1.882 -0.684,0 -1.371,0.182 -1.999,0.559 -1.237,0.745 -2.655,1.14 -4.102,1.14 -4.378,0 -7.938,-3.563 -7.938,-7.938 0,-4.375 3.563,-7.935 7.938,-7.935 1.443,0 2.86,0.394 4.1,1.141 0.608,0.368 1.306,0.559 2.003,0.559 0.314,0 0.629,-0.039 0.938,-0.115 1,-0.248 1.859,-0.883 2.39,-1.768 l 11.257,-18.713 0,2.773 c 0,2.145 1.738,3.883 3.885,3.883 l 6.939,0 -0.001,11.08 0,0 z"
     id="path4304"
     inkscape:connector-curvature="0"
     style="display:none;fill:#ffffff" /><g
     transform="matrix(0,-1.9371613,1.9371613,0,0.013502,123.98807)"
     id="g4385"
     style="fill:#6c535d"><g
       id="g4387"
       style="fill:#6c535d"><g
         id="g4389"
         style="fill:#6c535d"><g
           id="g4391"
           style="fill:#6c535d"><path
             style="fill:#6c535d"
             inkscape:connector-curvature="0"
             d="m 35.586,0.519 c -2.458,-0.013 -4.918,-0.013 -7.382,0 -1.797,0.01 -2.796,1.004 -2.816,2.8 -0.014,1.251 -0.014,2.593 -0.002,4.354 0.014,1.894 0.996,2.863 2.921,2.88 0.457,0.004 0.914,0.005 1.37,0.005 l 2.234,-0.005 2.266,0.007 c 0.594,0 1.08,-0.005 1.536,-0.013 1.635,-0.032 2.626,-1.023 2.652,-2.652 0.021,-1.428 0.023,-2.946 0.002,-4.643 -0.023,-1.754 -1.01,-2.725 -2.781,-2.733 z m -0.012,2.613 c 0.035,0 0.11,10e-4 0.176,0.004 0.002,0.045 0.003,0.098 0.003,0.148 0.021,1.672 0.021,3.167 0,4.569 0,0.03 -0.002,0.056 -0.002,0.078 -0.026,0.001 -0.054,0.002 -0.087,0.002 -0.439,0.008 -0.911,0.012 -1.486,0.012 L 31.909,7.939 29.681,7.944 c -0.449,0 -0.9,-0.001 -1.351,-0.005 C 28.187,7.938 28.084,7.93 28.013,7.921 28.007,7.858 28,7.771 28,7.654 27.988,5.911 27.988,4.584 28.002,3.348 c 0,-0.056 0.002,-0.143 0.005,-0.212 0.069,-0.003 0.155,-0.004 0.21,-0.004 2.453,-0.013 4.906,-0.013 7.357,0 z"
             id="path4393" /></g></g><g
         id="g4395"
         style="fill:#6c535d"><g
           id="g4397"
           style="fill:#6c535d"><path
             style="fill:#6c535d"
             inkscape:connector-curvature="0"
             d="m 28.151,28.226 c 0.487,0.008 0.975,0.011 1.465,0.011 l 2.26,-0.005 2.248,0.005 c 0.509,0 1.02,-0.003 1.53,-0.011 1.702,-0.027 2.691,-1.008 2.714,-2.691 0.021,-1.556 0.021,-3.119 -0.002,-4.644 -0.023,-1.676 -1.04,-2.683 -2.72,-2.693 -2.493,-0.016 -4.985,-0.014 -7.478,-0.002 -1.741,0.011 -2.754,1.009 -2.777,2.74 -0.02,1.444 -0.02,2.973 -0.002,4.546 0.022,1.742 1.001,2.717 2.762,2.744 z m 7.477,-7.415 c 0.027,0 0.075,0.001 0.122,0.002 0.002,0.045 0.003,0.092 0.003,0.116 0.023,1.501 0.023,3.039 10e-4,4.568 0,0.029 -10e-4,0.071 -0.003,0.111 -0.035,0.002 -0.08,0.003 -0.138,0.005 -0.479,0.006 -0.962,0.009 -1.442,0.009 l -2.294,-0.005 -2.261,0.005 c -0.475,0 -0.948,-0.002 -1.423,-0.009 -0.039,0 -0.119,-0.002 -0.186,-0.006 -0.002,-0.048 -0.003,-0.105 -0.003,-0.155 -0.018,-1.551 -0.017,-3.058 0.002,-4.482 0,-0.041 0.002,-0.103 0.003,-0.156 0.066,-0.003 0.143,-0.004 0.177,-0.004 2.477,-0.015 4.96,-0.017 7.442,0.001 z"
             id="path4399" /></g></g><g
         id="g4401"
         style="fill:#6c535d"><g
           id="g4403"
           style="fill:#6c535d"><path
             style="fill:#6c535d"
             inkscape:connector-curvature="0"
             d="m 35.58,35.713 c -0.455,-0.006 -0.912,-0.008 -1.367,-0.008 l -2.14,0.005 -2.422,-0.005 c -0.491,0 -0.981,0.002 -1.474,0.008 -1.781,0.026 -2.771,1.026 -2.787,2.819 -0.017,1.569 -0.015,3.023 0,4.449 0.02,1.768 0.998,2.75 2.754,2.762 1.198,0.009 2.445,0.014 3.711,0.014 1.256,0 2.511,-0.005 3.768,-0.012 1.728,-0.011 2.73,-1.02 2.747,-2.769 0.015,-1.421 0.015,-2.876 0,-4.448 -0.017,-1.795 -1.008,-2.794 -2.79,-2.815 z m 0.177,7.233 c -0.002,0.081 -0.003,0.14 -0.006,0.182 -0.045,0.002 -0.098,0.002 -0.146,0.002 -2.506,0.017 -5.07,0.017 -7.444,0 -0.053,0 -0.108,-0.002 -0.155,-0.003 -0.002,-0.045 -0.003,-0.104 -0.005,-0.174 -0.015,-1.406 -0.015,-2.844 0,-4.393 0,-0.05 0.002,-0.149 0.006,-0.227 0.059,-0.003 0.134,-0.003 0.204,-0.005 0.479,-0.008 0.956,-0.009 1.433,-0.009 l 2.234,0.005 2.228,-0.005 c 0.481,0 0.96,0.003 1.441,0.008 0.083,0.002 0.147,0.005 0.195,0.011 0.006,0.053 0.011,0.123 0.012,0.215 0.018,1.553 0.018,2.991 0.003,4.393 z"
             id="path4405" /></g></g><g
         id="g4407"
         style="fill:#6c535d"><g
           id="g4409"
           style="fill:#6c535d"><path
             style="fill:#6c535d"
             inkscape:connector-curvature="0"
             d="M 35.58,52.645 C 35.072,52.639 34.563,52.637 34.055,52.637 L 31.708,52.64 29.61,52.635 c -0.478,0 -0.956,0.003 -1.432,0.009 -1.782,0.024 -2.772,1.025 -2.789,2.817 -0.017,1.569 -0.015,3.025 0,4.451 0.02,1.767 0.998,2.748 2.754,2.762 1.198,0.008 2.445,0.012 3.711,0.012 1.256,0 2.511,-0.005 3.768,-0.012 1.728,-0.011 2.73,-1.019 2.747,-2.768 0.015,-1.421 0.015,-2.877 0,-4.449 -0.016,-1.793 -1.007,-2.791 -2.789,-2.812 z m 0.177,7.233 c -0.002,0.08 -0.003,0.138 -0.005,0.182 -0.045,0.002 -0.098,0.002 -0.147,0.002 -2.506,0.017 -5.068,0.017 -7.445,-0.002 -0.051,0 -0.107,0 -0.153,-0.002 -0.002,-0.047 -0.003,-0.104 -0.005,-0.176 -0.015,-1.406 -0.015,-2.843 0,-4.393 0,-0.05 0.002,-0.149 0.006,-0.227 0.059,-0.003 0.134,-0.003 0.203,-0.005 0.479,-0.006 0.957,-0.008 1.435,-0.008 l 2.234,0.003 2.222,-0.003 c 0.482,0 0.965,0.002 1.447,0.008 0.083,0.002 0.147,0.005 0.195,0.011 0.006,0.053 0.011,0.122 0.012,0.213 0.016,1.558 0.016,2.994 10e-4,4.397 z"
             id="path4411" /></g></g><path
         style="fill:#6c535d"
         inkscape:connector-curvature="0"
         d="m 54.698,26.026 c -0.018,-2.04 -1.95,-3.968 -3.974,-3.968 l -0.122,0.002 c -0.461,0.019 -1.977,0.029 -4.386,0.029 l -2.279,-0.003 c -0.457,0 -0.917,0.002 -1.375,0.008 -0.705,0.008 -1.161,0.414 -1.283,1.144 -0.105,0.615 0.365,1.232 1.05,1.376 0.254,0.051 0.511,0.056 0.775,0.056 l 7.359,-0.002 c 1.34,0.002 1.648,0.303 1.648,1.614 l 0,11.356 c 0,1.07 -0.2,1.271 -1.261,1.273 L 48.755,38.913 45.78,38.91 c 0.631,-0.631 1.527,-1.53 1.782,-1.794 0.275,-0.282 0.416,-0.634 0.4,-0.993 -0.021,-0.346 -0.188,-0.664 -0.47,-0.896 -0.512,-0.431 -1.268,-0.359 -1.842,0.191 l -3.962,3.84 c -0.288,0.276 -0.448,0.639 -0.448,1.019 0,0.394 0.171,0.777 0.482,1.08 L 45.92,45.4 c 0.373,0.358 0.783,0.547 1.185,0.547 0.317,0 0.606,-0.12 0.835,-0.347 0.439,-0.434 0.606,-1.205 -0.243,-2.07 -0.307,-0.31 -1.283,-1.334 -1.935,-2.021 l 2.778,0.002 c 0.687,0 1.465,0 2.276,-0.005 2.087,-0.011 3.865,-1.656 3.881,-3.594 0.037,-3.937 0.037,-7.936 10e-4,-11.886 z"
         id="path4413" /><path
         style="fill:#6c535d"
         inkscape:connector-curvature="0"
         d="m 18.347,18.293 c -0.568,-0.546 -1.321,-0.621 -1.839,-0.193 -0.284,0.234 -0.451,0.553 -0.472,0.901 -0.017,0.353 0.125,0.705 0.4,0.99 0.255,0.265 1.149,1.163 1.782,1.796 l -2.61,0.002 -2.46,-0.002 c -1.061,-0.002 -1.261,-0.204 -1.261,-1.273 l 0,-11.356 c 0,-1.312 0.308,-1.613 1.648,-1.614 l 7.359,0.002 c 0.264,0 0.521,-0.005 0.777,-0.056 C 22.355,7.347 22.825,6.73 22.72,6.115 22.598,5.384 22.142,4.978 21.437,4.97 20.979,4.965 20.519,4.962 20.061,4.962 l -2.278,0.003 c -2.409,0 -3.925,-0.01 -4.386,-0.029 L 13.275,4.934 c -2.024,0 -3.956,1.929 -3.974,3.967 -0.036,3.95 -0.036,7.949 0,11.886 0.017,1.938 1.794,3.584 3.883,3.594 0.873,0.005 1.708,0.005 2.433,0.005 l 2.62,-0.002 c -0.652,0.686 -1.63,1.711 -1.937,2.022 -0.847,0.864 -0.681,1.635 -0.242,2.069 0.23,0.227 0.518,0.347 0.835,0.347 0.403,0 0.813,-0.189 1.187,-0.548 l 4.197,-4.043 c 0.31,-0.303 0.481,-0.686 0.481,-1.08 0,-0.379 -0.158,-0.74 -0.445,-1.017 l -3.966,-3.841 z"
         id="path4415" /><path
         style="fill:#6c535d"
         inkscape:connector-curvature="0"
         d="m 21.074,55.598 c -0.908,-0.88 -1.815,-1.759 -2.727,-2.638 -0.571,-0.548 -1.33,-0.619 -1.838,-0.192 -0.285,0.234 -0.452,0.553 -0.473,0.902 -0.017,0.352 0.125,0.703 0.4,0.99 0.255,0.264 1.149,1.163 1.782,1.794 l -2.975,0.003 -2.093,-10e-4 c -1.062,-0.003 -1.262,-0.204 -1.262,-1.274 l 0,-11.357 c 0,-1.31 0.308,-1.612 1.648,-1.614 l 7.359,0.001 c 0.251,0 0.518,-0.005 0.778,-0.057 0.682,-0.144 1.152,-0.76 1.047,-1.373 -0.122,-0.732 -0.577,-1.139 -1.283,-1.146 -0.458,-0.006 -0.918,-0.008 -1.376,-0.008 l -2.278,0.003 c -2.409,0 -3.925,-0.011 -4.386,-0.029 L 13.275,39.6 c -2.024,0 -3.956,1.928 -3.974,3.968 -0.036,3.949 -0.036,7.948 0,11.885 0.017,1.938 1.794,3.584 3.883,3.594 0.811,0.005 1.588,0.005 2.275,0.005 l 2.778,-0.002 c -0.652,0.687 -1.629,1.711 -1.935,2.021 -0.849,0.862 -0.682,1.635 -0.243,2.07 0.23,0.227 0.518,0.347 0.835,0.347 0.403,0 0.813,-0.189 1.187,-0.548 l 4.197,-4.043 c 0.31,-0.302 0.481,-0.685 0.481,-1.079 0,-0.38 -0.158,-0.742 -0.445,-1.019 l -1.24,-1.201 z"
         id="path4417" /></g></g></svg>