<?xml version="1.0" encoding="UTF-8" standalone="no"?>
<!-- Generator: Adobe Illustrator 15.1.0, SVG Export Plug-In . SVG Version: 6.00 Build 0)  -->

<svg
   xmlns:dc="http://purl.org/dc/elements/1.1/"
   xmlns:cc="http://creativecommons.org/ns#"
   xmlns:rdf="http://www.w3.org/1999/02/22-rdf-syntax-ns#"
   xmlns:svg="http://www.w3.org/2000/svg"
   xmlns="http://www.w3.org/2000/svg"
   xmlns:sodipodi="http://sodipodi.sourceforge.net/DTD/sodipodi-0.dtd"
   xmlns:inkscape="http://www.inkscape.org/namespaces/inkscape"
   version="1.1"
   id="Layer_1"
   x="0px"
   y="0px"
   width="124"
   height="124"
   viewBox="0 0 124 124"
   enable-background="new 0 0 128 128"
   xml:space="preserve"
   inkscape:version="0.91 r13725"
   sodipodi:docname="controller.svg"><metadata
     id="metadata4334"><rdf:RDF><cc:Work
         rdf:about=""><dc:format>image/svg+xml</dc:format><dc:type
           rdf:resource="http://purl.org/dc/dcmitype/StillImage" /><dc:title></dc:title></cc:Work></rdf:RDF></metadata><defs
     id="defs4332" /><sodipodi:namedview
     pagecolor="#ffffff"
     bordercolor="#666666"
     borderopacity="1"
     objecttolerance="10"
     gridtolerance="10"
     guidetolerance="10"
     inkscape:pageopacity="0"
     inkscape:pageshadow="2"
     inkscape:window-width="1792"
     inkscape:window-height="1071"
     id="namedview4330"
     showgrid="false"
     inkscape:zoom="1.71875"
     inkscape:cx="-28.446755"
     inkscape:cy="4.324531"
     inkscape:window-x="0"
     inkscape:window-y="0"
     inkscape:window-maximized="1"
     inkscape:current-layer="Layer_1" /><path
     display="none"
     d="m 540.014,237.766 -23.653,-5.615 c -0.036,-0.008 -0.073,-0.004 -0.109,-0.012 -0.53,-0.775 -1.33,-1.363 -2.297,-1.594 l -23.654,-5.611 c -0.298,-0.07 -0.597,-0.104 -0.896,-0.104 -0.185,0 -0.365,0.021 -0.547,0.046 -7.481,-4.387 -15.773,-6.706 -24.022,-6.706 -26.375,0 -47.832,21.457 -47.832,47.831 0,26.376 21.457,47.833 47.832,47.833 8.571,0 16.98,-2.313 24.355,-6.679 0.071,0.005 0.143,0.019 0.214,0.019 0.299,0 0.6,-0.032 0.896,-0.104 l 23.654,-5.612 c 1.751,-0.418 2.985,-1.979 2.985,-3.779 l 0,-43.724 5.464,1.416 0,40.706 c 0,1.192 0.551,2.321 1.493,3.059 0.689,0.539 1.531,0.823 2.39,0.823 0.313,0 0.631,-0.039 0.942,-0.114 l 12.832,-3.212 c 1.729,-0.429 2.939,-1.984 2.939,-3.766 l 0,-51.32 c 0,-1.803 -1.236,-3.367 -2.986,-3.781 z m -43.672,19.14 -6.939,0 c -2.146,0 -3.885,1.738 -3.885,3.883 l 0,10.42 c 0,2.143 1.738,3.882 3.885,3.882 l 6.939,0 0,11.087 -6.939,0 c -2.146,0 -3.885,1.738 -3.885,3.883 l 0,2.729 -11.257,-18.668 c -0.729,-1.211 -2.014,-1.882 -3.329,-1.882 -0.684,0 -1.371,0.182 -1.999,0.559 -1.237,0.745 -2.655,1.14 -4.102,1.14 -4.378,0 -7.938,-3.563 -7.938,-7.938 0,-4.375 3.563,-7.935 7.938,-7.935 1.443,0 2.86,0.394 4.1,1.141 0.608,0.368 1.306,0.559 2.003,0.559 0.314,0 0.629,-0.039 0.938,-0.115 1,-0.248 1.859,-0.883 2.39,-1.768 l 11.257,-18.713 0,2.773 c 0,2.145 1.738,3.883 3.885,3.883 l 6.939,0 -0.001,11.08 0,0 z"
     id="path4304"
     inkscape:connector-curvature="0"
     style="display:none;fill:#ffffff" /><g
     transform="matrix(0,1.6305365,-1.6305365,0,143.52682,-19.523442)"
     id="g4539"
     style="fill:#c87137"><path
       inkscape:connector-curvature="0"
       d="M 84.836,61.899 44.133,16.025 c -1.938,-2.184 -4.724,-3.436 -7.645,-3.436 -2.728,0 -5.292,1.062 -7.222,2.992 L 15.582,29.267 c -2.012,2.012 -3.072,4.686 -2.987,7.529 0.085,2.843 1.304,5.449 3.432,7.337 l 45.872,40.703 c 1.871,1.661 4.279,2.575 6.779,2.575 2.73,0 5.296,-1.062 7.227,-2.992 l 8.514,-8.515 c 3.814,-3.816 3.999,-9.968 0.417,-14.005 z m -2.363,12.06 -8.514,8.515 c -1.41,1.41 -3.285,2.187 -5.281,2.187 -1.827,0 -3.586,-0.668 -4.954,-1.881 L 17.851,42.076 c -1.555,-1.38 -2.445,-3.284 -2.508,-5.362 -0.062,-2.078 0.714,-4.032 2.185,-5.502 L 31.213,17.527 c 1.409,-1.41 3.283,-2.187 5.276,-2.187 2.135,0 4.172,0.915 5.588,2.511 L 82.78,63.725 c 2.616,2.949 2.482,7.445 -0.307,10.234 z"
       id="path4541"
       style="fill:#c87137" /><path
       inkscape:connector-curvature="0"
       d="m 60.42,57.15 c 1.32,0 2.562,-0.514 3.495,-1.447 0.935,-0.934 1.448,-2.175 1.448,-3.495 0,-1.321 -0.514,-2.562 -1.447,-3.495 -0.934,-0.934 -2.176,-1.448 -3.496,-1.448 -1.319,0 -2.562,0.515 -3.495,1.448 -1.926,1.927 -1.926,5.062 0,6.99 0.933,0.933 2.176,1.447 3.495,1.447 z m -1.55,-6.493 c 0.414,-0.414 0.965,-0.643 1.55,-0.643 0.586,0 1.137,0.229 1.552,0.643 0.414,0.414 0.642,0.964 0.642,1.55 0,0.585 -0.228,1.136 -0.643,1.55 -0.826,0.828 -2.271,0.829 -3.101,0 -0.854,-0.854 -0.854,-2.245 0,-3.1 z"
       id="path4543"
       style="fill:#c87137" /><path
       inkscape:connector-curvature="0"
       d="m 65.363,68.634 c 0,-1.321 -0.514,-2.562 -1.447,-3.495 -0.934,-0.934 -2.176,-1.448 -3.496,-1.448 -1.319,0 -2.562,0.515 -3.495,1.448 -1.926,1.927 -1.926,5.062 0,6.99 0.934,0.934 2.176,1.448 3.495,1.448 1.32,0 2.562,-0.514 3.495,-1.447 0.935,-0.934 1.448,-2.175 1.448,-3.496 z m -3.392,1.551 c -0.826,0.828 -2.271,0.829 -3.101,0 -0.854,-0.855 -0.854,-2.246 0,-3.101 0.414,-0.414 0.965,-0.643 1.55,-0.643 0.586,0 1.137,0.229 1.552,0.643 0.414,0.414 0.642,0.964 0.642,1.55 -10e-4,0.586 -0.228,1.137 -0.643,1.551 z"
       id="path4545"
       style="fill:#c87137" /><path
       inkscape:connector-curvature="0"
       d="m 63.691,60.421 c 0,1.32 0.514,2.562 1.447,3.495 0.934,0.934 2.176,1.448 3.496,1.448 1.319,0 2.562,-0.515 3.495,-1.448 1.926,-1.927 1.926,-5.062 0,-6.99 -0.934,-0.934 -2.176,-1.448 -3.495,-1.448 -1.32,0 -2.562,0.514 -3.495,1.447 -0.934,0.934 -1.448,2.175 -1.448,3.496 z m 3.393,-1.551 c 0.414,-0.414 0.965,-0.642 1.551,-0.642 0.585,0 1.136,0.228 1.55,0.642 0.854,0.855 0.854,2.246 0,3.101 -0.829,0.828 -2.272,0.828 -3.102,0 -0.414,-0.414 -0.642,-0.964 -0.642,-1.55 0,-0.586 0.228,-1.137 0.643,-1.551 z"
       id="path4547"
       style="fill:#c87137" /><path
       inkscape:connector-curvature="0"
       d="m 55.703,56.926 c -0.934,-0.934 -2.176,-1.448 -3.495,-1.448 -1.32,0 -2.562,0.514 -3.495,1.447 -0.935,0.934 -1.448,2.175 -1.448,3.496 0,1.32 0.514,2.562 1.447,3.495 0.934,0.934 2.176,1.448 3.496,1.448 1.319,0 2.562,-0.515 3.495,-1.448 1.926,-1.928 1.926,-5.063 0,-6.99 z m -1.945,5.045 c -0.829,0.828 -2.272,0.828 -3.102,0 -0.414,-0.414 -0.642,-0.964 -0.642,-1.55 0,-0.586 0.228,-1.137 0.643,-1.551 0.414,-0.414 0.965,-0.642 1.551,-0.642 0.585,0 1.136,0.228 1.55,0.642 0.854,0.855 0.854,2.246 0,3.101 z"
       id="path4549"
       style="fill:#c87137" /><path
       inkscape:connector-curvature="0"
       d="m 36.469,27.966 c 1.394,0 2.704,-0.543 3.69,-1.529 0.985,-0.985 1.528,-2.296 1.528,-3.69 0,-1.394 -0.543,-2.705 -1.528,-3.69 -0.986,-0.986 -2.297,-1.529 -3.69,-1.529 -1.393,0 -2.704,0.543 -3.69,1.529 -0.985,0.985 -1.528,2.296 -1.528,3.69 0,1.394 0.543,2.705 1.528,3.69 0.986,0.986 2.296,1.529 3.69,1.529 z m -1.745,-6.965 c 0.466,-0.466 1.086,-0.723 1.745,-0.723 0.659,0 1.279,0.257 1.745,0.723 0.467,0.466 0.724,1.086 0.724,1.746 0,0.66 -0.257,1.279 -0.724,1.746 -0.932,0.933 -2.559,0.933 -3.49,0 C 34.257,24.026 34,23.406 34,22.747 c 0,-0.659 0.257,-1.279 0.724,-1.746 z"
       id="path4551"
       style="fill:#c87137" /><path
       inkscape:connector-curvature="0"
       d="m 23.188,32.752 c -0.537,-0.537 -1.408,-0.537 -1.945,0 l -3.649,3.649 c -0.536,0.537 -0.536,1.407 0,1.944 l 3.649,3.649 c 0.269,0.269 0.621,0.403 0.973,0.403 0.352,0 0.704,-0.134 0.973,-0.403 l 3.649,-3.649 c 0.536,-0.537 0.536,-1.407 0,-1.944 l -3.65,-3.649 z m -0.973,6.327 -1.705,-1.705 1.705,-1.705 1.705,1.705 -1.705,1.705 z"
       id="path4553"
       style="fill:#c87137" /><path
       inkscape:connector-curvature="0"
       d="m 70.663,71.637 c -0.535,-0.537 -1.407,-0.537 -1.944,0 l -4.793,4.793 c -0.536,0.537 -0.536,1.407 0,1.944 l 3.535,3.536 c 0.258,0.258 0.608,0.403 0.973,0.403 0.365,0 0.715,-0.145 0.973,-0.403 l 4.794,-4.794 c 0.258,-0.258 0.402,-0.607 0.402,-0.972 0,-0.365 -0.145,-0.714 -0.403,-0.972 l -3.537,-3.535 z m -2.229,7.357 -1.591,-1.591 2.849,-2.849 1.592,1.591 -2.85,2.849 z"
       id="path4555"
       style="fill:#c87137" /><path
       inkscape:connector-curvature="0"
       d="m 78.423,63.879 c -0.258,-0.258 -0.607,-0.403 -0.973,-0.403 -0.364,0 -0.715,0.145 -0.973,0.403 l -4.794,4.793 c -0.536,0.537 -0.536,1.407 0,1.944 l 3.535,3.536 c 0.258,0.258 0.607,0.403 0.973,0.403 0.364,0 0.715,-0.145 0.973,-0.403 l 4.794,-4.793 c 0.536,-0.537 0.536,-1.407 0,-1.944 l -3.535,-3.536 z m -2.232,7.357 -1.591,-1.591 2.85,-2.849 1.591,1.591 -2.85,2.849 z"
       id="path4557"
       style="fill:#c87137" /><path
       inkscape:connector-curvature="0"
       d="m 50.744,49.723 0,-6.986 c 0,-0.759 -0.615,-1.375 -1.375,-1.375 -0.76,0 -1.375,0.616 -1.375,1.375 l 0,5.611 -5.611,0 c -0.76,0 -1.375,0.616 -1.375,1.375 0,0.759 0.615,1.375 1.375,1.375 l 6.986,0 c 0.76,0 1.375,-0.616 1.375,-1.375 z"
       id="path4559"
       style="fill:#c87137" /><path
       inkscape:connector-curvature="0"
       d="m 41.008,31.646 c 0,0.759 0.615,1.375 1.375,1.375 l 5.611,0 0,5.611 c 0,0.759 0.615,1.375 1.375,1.375 0.76,0 1.375,-0.616 1.375,-1.375 l 0,-6.986 c 0,-0.759 -0.615,-1.375 -1.375,-1.375 l -6.986,0 c -0.76,0 -1.375,0.616 -1.375,1.375 z"
       id="path4561"
       style="fill:#c87137" /><path
       inkscape:connector-curvature="0"
       d="m 31.293,40.007 c 0.76,0 1.375,-0.616 1.375,-1.375 l 0,-5.611 5.61,0 c 0.76,0 1.375,-0.616 1.375,-1.375 0,-0.759 -0.615,-1.375 -1.375,-1.375 l -6.985,0 c -0.76,0 -1.375,0.616 -1.375,1.375 l 0,6.986 c 0,0.76 0.615,1.375 1.375,1.375 z"
       id="path4563"
       style="fill:#c87137" /><path
       inkscape:connector-curvature="0"
       d="m 38.278,48.348 -5.61,0 0,-5.611 c 0,-0.759 -0.615,-1.375 -1.375,-1.375 -0.76,0 -1.375,0.616 -1.375,1.375 l 0,6.986 c 0,0.759 0.615,1.375 1.375,1.375 l 6.985,0 c 0.76,0 1.375,-0.616 1.375,-1.375 0,-0.759 -0.615,-1.375 -1.375,-1.375 z"
       id="path4565"
       style="fill:#c87137" /><path
       inkscape:connector-curvature="0"
       d="m 44.32,43.354 c 1.472,-1.472 1.472,-3.867 0,-5.339 L 43,36.695 c -1.426,-1.425 -3.911,-1.425 -5.339,0 l -1.319,1.32 c -1.472,1.472 -1.472,3.867 0,5.339 l 1.319,1.319 c 0.714,0.713 1.661,1.106 2.67,1.106 1.009,0 1.956,-0.393 2.67,-1.106 l 1.319,-1.319 z m -1.945,-1.944 -1.319,1.319 c -0.387,0.388 -1.062,0.388 -1.449,0 L 38.288,41.41 c -0.194,-0.194 -0.301,-0.451 -0.301,-0.725 0,-0.274 0.106,-0.531 0.301,-0.725 l 1.318,-1.319 c 0.194,-0.194 0.451,-0.3 0.726,-0.3 0.275,0 0.531,0.106 0.725,0.3 l 1.319,1.32 c 0.194,0.194 0.301,0.451 0.301,0.725 0,0.274 -0.108,0.53 -0.302,0.724 z"
       id="path4567"
       style="fill:#c87137" /></g></svg>