<?xml version="1.0" encoding="UTF-8" standalone="no"?><svg width="54" height="756" viewBox="0 0 54 756" xmlns="http://www.w3.org/2000/svg" xmlns:xlink="http://www.w3.org/1999/xlink"><svg width="54" height="54" viewBox="-3 -3 54 54" id="AE"><defs><clipPath id="aa"><path d="M6690.08 4294.77h335.62v-195.82h-335.62z"/></clipPath></defs><g clip-path="url(#aa)" transform="matrix(.13333 0 0 -.13333 -890.385 583.581)"><path d="M6690.08 4098.95h97.87v195.82h-97.87v-195.82" fill="#bd1b32"/><path d="M6787.95 4294.77h237.75v-65.28h-237.75v65.28" fill="#3f9f3b"/><path d="M6787.95 4229.49h237.75v-65.27h-237.75v65.27" fill="#fff"/><path d="M6787.95 4098.95h237.75v65.27h-237.75v-65.27" fill="#100f0d"/></g></svg><svg width="54" height="54" viewBox="-3 -3 54 54" id="BR" y="54"><g transform="translate(0 -1004.362)"><path d="M1.625 1041.414h44.75v-26.103H1.625v26.103" fill="#3b953a"/><path d="M8.527 1028.361L24 1038.245l15.481-9.882L24 1018.478l-15.473 9.882" fill="#e8bf13"/><path d="M30.524 1028.361a6.524 6.524 0 1 1-13.045 0c0-3.6 2.92-6.528 6.521-6.528a6.528 6.528 0 0 1 6.524 6.528" fill="#2c2869"/><path d="M20.273 1025.563c-.765 0-1.513.057-2.244.158-.141.32-.256.654-.346.998a15.333 15.333 0 0 1 2.59-.223 14.85 14.85 0 0 1 9.956 3.815 6.01 6.01 0 0 0 .232-1.034 15.775 15.775 0 0 0-10.188-3.714" fill="#fff"/><path d="M18.423 1026.339c.085-.012.148-.108.137-.215-.013-.108-.093-.185-.188-.173-.09.01-.153.105-.14.213.016.108.099.185.19.175m.013.113c.152-.019.261-.17.237-.341-.019-.17-.159-.294-.312-.274-.157.016-.264.172-.237.342.018.17.158.293.312.273M19.032 1026.044l.239-.015a.09.09 0 0 0 .073-.088c-.005-.045-.039-.077-.081-.073l-.242.013zm-.09.355l.113-.011-.016-.23.253-.015a.206.206 0 0 0 .18-.211.199.199 0 0 0-.21-.18l-.358.024.039.623" fill="#3b953a" fill-rule="evenodd"/><path d="M19.467 1026.361c-.006-.089-.016-.282-.152-.276l-.17.011c.194-.01.21.186.22.271" fill="#3b953a"/><path d="M19.841 1026.23h.17c.093 0 .169-.08.164-.17v-.056a.167.167 0 0 0-.167-.162h-.172zm-.109.12l.29-.01c.15 0 .265-.123.265-.272l-.006-.09a.269.269 0 0 0-.27-.26l-.29.01.011.622" fill="#3b953a" fill-rule="evenodd"/><path d="M20.513 1026.341l.563.02.005-.117-.45-.016.005-.157.356.01v-.105l-.35-.013v-.123l.429.015v-.117l-.532-.02-.026.625M21.308 1026.373l.107.01.036-.424.084.435.101.01.159-.415-.038.426.106.01.054-.62-.152-.013-.164.413-.085-.436-.156-.012-.052.619M22.59 1026.519l.467.077.014-.104-.352-.06.024-.139.292.05.012-.108-.284-.047.013-.1.344.06.013-.105-.442-.077-.1.552" fill="#3b953a"/><path d="M23.977 1026.443l.228.06c.046.013.084-.014.095-.056a.08.08 0 0 0-.055-.097l-.232-.06zm-.204.308l.11.029.062-.223.238.06a.197.197 0 0 0 .241-.138.203.203 0 0 0-.14-.24l-.344-.09-.167.602M24.753 1026.658l.228.073a.083.083 0 0 0 .1-.053c.015-.044-.008-.086-.052-.1l-.226-.072zm-.217.296l.112.033.07-.22.233.076a.199.199 0 0 0 .248-.127.193.193 0 0 0-.126-.244l-.344-.108-.193.59" fill="#3b953a" fill-rule="evenodd"/><path d="M25.039 1027.112c.029-.084.086-.27-.039-.31l-.159-.051c.183.06.126.244.096.33" fill="#3b953a"/><path d="M25.59 1027.187c.087.035.183-.025.222-.125.04-.102 0-.208-.083-.242-.085-.029-.188.025-.226.127-.039.1.005.208.086.24m-.04.11c.147.051.311-.034.371-.194.061-.161-.005-.336-.152-.39-.145-.055-.315.033-.372.191-.063.163.01.336.153.392M26.328 1027.484c.084.04.185-.013.227-.113.044-.1.01-.21-.071-.245-.083-.036-.184.015-.227.114-.044.1-.014.21.071.244m-.047.107c.142.06.315-.017.383-.172.065-.16.008-.335-.135-.397-.141-.061-.31.013-.378.173-.067.157-.01.336.13.396" fill="#3b953a" fill-rule="evenodd"/><path d="M26.445 1027.323l.219.096-.041.08-.211-.096.033-.08" fill="#3b953a"/><path d="M26.581 1027.38l.083.04-.128.282-.075-.036.12-.285" fill="#3b953a"/><path d="M27.005 1027.542l.214.105c.038.02.086.01.106-.035a.08.08 0 0 0-.033-.107l-.219-.106zm-.254.258l.101.051.101-.208.222.113c.096.048.213.01.26-.088a.193.193 0 0 0-.086-.26l-.314-.16-.284.553" fill="#3b953a" fill-rule="evenodd"/><path d="M27.219 1028.035c.038-.08.125-.253.008-.313l-.154-.077c.18.089.091.264.055.34M27.45 1028.158l.49.274.052-.1-.39-.223.075-.138.31.175.052-.096-.307-.172.063-.111.366.212.063-.101-.468-.263-.305.543M28.36 1028.461c-.035.051 0 .111.072.16.076.046.125.043.15.012.066-.11-.325-.265-.205-.45.102-.16.282-.036.35.01.068.044.174.155.09.283l-.114-.075c.04-.053 0-.109-.064-.142-.058-.043-.104-.06-.139 0-.06.084.328.245.205.433-.08.136-.233.075-.333.012-.09-.056-.216-.185-.135-.315l.123.075M29.027 1028.901c-.04.05-.011.111.062.163.072.052.127.055.151.021.07-.102-.316-.28-.18-.458.112-.155.287-.021.35.023.067.049.163.165.071.288l-.106-.08c.034-.052 0-.107-.06-.151-.058-.04-.096-.06-.135-.01-.063.083.31.268.185.445-.097.133-.248.065-.338 0-.087-.06-.21-.196-.118-.323l.118.081" fill="#3b953a"/><path d="M29.727 1029.525c.073.06.185.036.252-.049.068-.085.057-.198-.01-.254-.073-.06-.18-.036-.248.049-.073.085-.068.2.006.254m-.074.092c.123.096.306.065.412-.069.107-.134.096-.32-.024-.416-.121-.099-.304-.067-.41.068-.107.135-.096.322.022.418" fill="#3b953a" fill-rule="evenodd"/></g></svg><svg width="54" height="54" viewBox="-3 -3 54 54" id="CN" y="108"><defs><clipPath id="ca"><path d="M956.395 3150.55h335.625V2954.8H956.395z"/></clipPath></defs><g clip-path="url(#ca)" transform="matrix(.13333 0 0 -.13333 -125.894 431.023)"><path d="M956.395 2954.8h335.625v195.75H956.395V2954.8" fill="#cd1e25"/><path d="M988.672 3079.69l6.301 19.53-16.555 12.15 20.52.04 6.402 19.49 6.38-19.49 20.53-.08-16.59-12.11 6.27-19.53-16.61 12.07-16.648-12.07M1045.9 3069.14l6.94-2.81 4.82 5.74-.52-7.46 6.93-2.81-7.25-1.84-.54-7.38-3.98 6.29-7.23-1.76 4.77 5.7-3.94 6.33M1083.42 3106.68l-7.37 1.29-3.52-6.6-1.04 7.38-7.37 1.37 6.71 3.24-1.02 7.42 5.21-5.35 6.71 3.24-3.51-6.6 5.2-5.39M1067.8 3073.24l2.28 7.11-6.03 4.42h7.48l2.31 7.1 2.32-7.1h7.48l-6.02-4.42 2.26-7.11-6.04 4.38-6.04-4.38M1046.28 3138.12l6.77-3.16 5.1 5.47-.88-7.42 6.74-3.21-7.31-1.4-.93-7.42-3.64 6.52-7.33-1.37 5.08 5.47-3.6 6.52" fill="#f1e016"/></g></svg><svg width="54" height="54" viewBox="-3 -3 54 54" id="DE" y="162"><defs><clipPath id="da"><path d="M3562.58 4676.14h335.63v-195.78h-335.63z"/></clipPath></defs><g clip-path="url(#da)" transform="matrix(.13333 0 0 -.13333 -473.386 634.433)"><path d="M3562.58 4610.91h335.63v65.23h-335.63v-65.23" fill="#100f0d"/><path d="M3562.58 4545.63h335.63v65.28h-335.63v-65.28" fill="#e21d25"/><path d="M3562.58 4480.36h335.63v65.27h-335.63v-65.27" fill="#f1da16"/><path d="M3683.95 4629.81v-78.35c0-29.36 39.4-25.83 46.44-37.54 7.04 11.71 46.48 8.18 46.48 37.54v78.35h-92.92" fill="#f1d817"/><path d="M3684.22 4629.52v-78.06c0-18.52 15.59-23.72 29.34-28.27 7.52-2.52 14.07-4.66 16.83-8.75 2.76 4.09 9.31 6.23 16.86 8.75 13.72 4.55 29.31 9.75 29.31 28.27v78.06h-92.34zm46.17-116.19l-.24.43c-2.5 4.14-9.12 6.33-16.79 8.89-13.22 4.37-29.72 9.86-29.72 28.81v78.63h93.51v-78.63c0-18.95-16.48-24.44-29.73-28.81-7.66-2.56-14.29-4.75-16.78-8.89l-.25-.43" fill="#100f0d"/><path d="M3727.34 4618.53c.47-2.31-.46-7.93-1.64-9.85-1.17-1.85-4.23-5.37-4.45-8.89-1.18-17.63 5.4-43.18 9.14-61.48 3.76 18.3 10.32 43.85 9.15 61.48-1.15 17.58-3.51 22.29-3.51 22.29l-8.69-3.55" fill="#100f0d"/><path d="M3728.27 4615.95c-4.36.33-8.04 1.21-11.02 2.58 1.25-1.55 4.09-2.8 8.45-3.74l2.57 1.16" fill="#cc1e25"/><path d="M3725.74 4614.93c-4.46.67-7.33 1.94-8.6 3.52 3.12-1.16 6.82-2.03 11.15-2.33l-.02-.31c-4.38.33-8.09 1.19-11.07 2.62 1.39-1.31 4.21-2.58 8.54-3.5" fill="#100f0d"/><path d="M3726.88 4625.6c-7.04 3.51-11.27-.49-6.58-6.82.48 1.17 4.92 2.83 7.04-2.83-1.08-.61-3.68-.69-7.73-.22 2.1-1.62 8.45-1.87 9.6-1.17 1.18.7-2.1 6.56-2.1 6.56l-.23 4.48" fill="#cc1e25"/><path d="M3726.54 4614.05c-2.4 0-5.61.47-7.03 1.58 4.14-.21 6.71-.15 7.77.47-1.33 3.15-3.34 3.68-4.43 3.69h-.02c-1.27 0-2.2-.6-2.39-1.07-2.38 2.83-2.84 5.51-1.53 7.07 1.44 1.72 4.51 1.7 8.02-.08l-.12-.25c-3.33 1.66-6.35 1.74-7.67.14-1.23-1.45-.75-3.99 1.28-6.7-.02.56 1.18 1.19 2.45 1.19 1.15-.02 3.3-.55 4.62-4.06-1.2-.82-3.77-.9-7.9-.43 2.14-1.33 8.42-1.61 9.55-.9.77.47-.93 4.12-2.16 6.36.81-.85 3.56-5.89 2.33-6.64-.43-.23-1.49-.37-2.77-.37" fill="#100f0d"/><path d="M3735.57 4620.67c1.18.24 3.04.94 4.45 2.31-2.59 0-7.29 1.44-9.17 2.36-1.87.96-5.15 3.05-5.15-.92 0-4 4.23-7.05 3.51-10.31l6.36 6.56" fill="#100f0d"/><path d="M3729.71 4623.25s-2.37 1.17-2.83 1.62c-.45.47-1.18-2.58.93-3.51.32.8.94 1.4 1.9 1.89" fill="#f4fafd"/><path d="M3728.06 4624.66c-1.12-.33-1.34-1.17-.72-2.58.17 1.07.93 1.78 2.37 2.11l-1.65.47M3740.71 4592.74v-27.69l31.44-25.8V4608c0 5.31-1.09 8.9-3.27 10.78v-14.32l-28.17-11.72" fill="#100f0d"/><path d="M3747.03 4542.29h-.89v58.66h.89v-58.66M3753.61 4542.29h-.89v58.66h.89v-58.66M3760.18 4542.29h-.89v58.66h.89v-58.66M3766.74 4542.29h-.88v58.66h.88v-58.66" fill="#f1d817"/><path d="M3734.61 4587.57c21.12 0 30.04 6.81 34.51 11.97v18.99c2.32.66 3.59 2.38 3.75 5.19-6.58-5.41-16.9 7.27-23.01-5.88 3.3-6.56 9.87-5.88 12.21-2.11 4.7-3.98.94-19-27.46-18.77v-9.39" fill="#100f0d"/><path d="M3742.35 4541.61c-1.64-2.13-.22-4.02 1.19-4.73-.49 1.43-.24 2.74.71 3.99l-1.9.74" fill="#cc1e25"/><path d="M3743.67 4536.92c-.96.22-1.87 1.02-2.13 2.15-.2.84.05 1.76.7 2.6l.22-.18c-.6-.78-.81-1.58-.64-2.38.25-.99 1.07-1.76 1.78-2.07-.69 1.27-.44 2.64.52 3.95-.68-1.41-.89-2.68-.45-4.07" fill="#100f0d"/><path d="M3750.58 4533.6c.14-.93-.33-2.11-1.41-3.53 2.82.72 3.99 1.68 3.05 3.3l-1.64.23" fill="#cc1e25"/><path d="M3749.21 4529.95c.91 1.58 1.37 2.74 1.21 3.63l.3.04c.16-.97-.32-2.2-1.44-3.61 1.73.7 2.73 1.23 3.01 1.91.18.39.1.84-.21 1.37.63-.47.68-1.01.5-1.48-.34-.78-1.42-1.37-3.37-1.86" fill="#100f0d"/><path d="M3759.95 4537.14c.48-1.11.56-2.36.26-3.77 2.1 1.89 2.8 4.45 1.16 4.94l-1.42-1.17" fill="#cc1e25"/><path d="M3760.3 4533.27c.05 1.51-.02 2.76-.5 3.81l.3.1c.48-1.12.55-2.4.23-3.85 1.14 1.39 1.99 3.01 1.76 4.02-.09.43-.35.71-.76.8.61.16.93-.21 1.05-.72.27-1.13-.6-2.83-2.08-4.16" fill="#100f0d"/><path d="M3759.73 4545.58c.78-.18 1.55-.92 2.34-2.35.24 2.58-.23 3.99-2.58 4.46l.24-2.11" fill="#cc1e25"/><path d="M3762.21 4543.21c-1.02 1.29-1.78 2.07-2.52 2.23l.06.27c.83-.15 1.66-.97 2.46-2.4-.02 2.7-.69 3.83-2.76 4.24 2.62-.22 2.99-1.86 2.76-4.34" fill="#100f0d"/><path d="M3739.07 4553.31l11.05-10.08s-4.23-.94-5.87-.94c-1.66 0-3.06-.46-2.59-.95.47-.47 1.39-.47 1.88-1.15.45-.71 1.17-1.66 2.09-.71.95.92 4.23 1.86 4.23 1.86s0-5.39-.23-6.08c-.23-.72-.94-2.11-.46-2.11.46 0 .46.22 2.35 0 1.86-.25 1.64-.72 1.17 2.11-.47 2.8-.24 5.84-.24 5.84s4.22-2.79 5.64-4.68c1.4-1.88 1.18-.47 1.86.25.72.68 1.64.92 2.36 1.15.7.24-1.88.96-2.58 1.43-.72.47-6.1 3.51-6.1 3.51s3.04.94 4.92 1.2c1.88.21 1.88.21 1.66 1.15-.26.93 0 1.89 0 2.34 0 .45-.26.94-1.43 0-1.16-.94-6.56-3.28-6.56-3.28l-9.17 12.19-3.98-3.05" fill="#cc1e25"/><path d="M3752.75 4532.82c-.13 0-.3.02-.53.06l-.72.1c-1.33.17-1.71.1-1.98.08l-.6.06c-.16.23.04.76.36 1.58l.21.58c.2.55.24 4.53.24 6.06-.15-.24-3.11-1.12-3.99-1.99-.29-.28-.6-.45-.97-.39-.56.03-.96.58-1.36 1.13-.23.37-.64.54-1.02.7-.32.12-.61.24-.84.45l-.07.08-.03.35c.2.51 1.59.76 2.8.76 1.6 0 5.77.94 5.83.94l-11.1 9.84.2.22 11.03-10.08c-.24-.29-4.34-1.21-5.96-1.21-1.41 0-2.43-.35-2.53-.57.22-.29.48-.41.78-.51.39-.17.86-.35 1.16-.8.33-.5.72-.97 1.14-1.01.26-.04.5.08.74.33.95.98 4.15 1.88 4.29 1.91.17-.37.17-5.56-.05-6.3l-.24-.59c-.16-.39-.46-1.19-.37-1.31.59.08 1 .16 2.35 0l.75-.14c.25-.03.51-.09.57-.03.07.07 0 .5-.1 1.05l-.2 1.05c-.46 2.8-.25 5.88-.24 5.9.41 0 4.48-2.75 5.91-4.59.53-.74.66-.84.89-.9.09 0 .2.2.28.43.13.22.26.49.46.71.65.62 1.49.92 2.15 1.11.22.14-.52.45-1 .65-.52.21-1.07.41-1.33.58-.72.47-6.11 3.52-6.11 3.52.06.27 3.12 1.21 4.99 1.44.95.12 1.47.2 1.6.35.07.08 0 .32-.09.67-.17.68-.1 1.37-.04 1.87.02.22.04.37.04.49-.23.43-.47.45-1.16-.12-1.18-.95-6.39-3.18-6.62-3.3l-9.33 12.25 9.38-12.01c-.02.11 5.23 2.38 6.37 3.3.61.49 1.06.66 1.36.53.13-.08.28-.22.28-.65 0-.12-.02-.29-.03-.53-.06-.46-.12-1.13.03-1.79.1-.41.18-.67.04-.88-.17-.26-.62-.29-1.81-.43-1.7-.24-4.43-1.06-4.84-1.19.56-.04 5.42-2.82 6.08-3.28.26-.14.8-.38 1.29-.57 1.12-.45 1.49-.61 1.49-.84l-.51-.35c-.66-.2-1.42-.43-2.01-1.02-.18-.19-.29-.45-.38-.66-.17-.28-.3-.55-.54-.57-.29-.02-.62.28-1.18 1-1.3 1.76-5.12 4.31-5.55 4.63.15-.32-.02-3.15.43-5.69l.18-1.05c.16-.82.21-1.15.04-1.31-.07-.08-.19-.1-.31-.1" fill="#100f0d"/><path d="M3730.39 4522.82l4.94 5.88c5.64-3.46 9.77-2.5 12.42 2.79-8.44-1.42-12.42 6.27-11.96 22.99l6.34-9.82v9.12l7.73-.94-20.41 21.82.94-51.84M3720.07 4592.74v-27.69l-31.44-25.8V4608c0 5.31 1.11 8.9 3.28 10.78v-14.32l28.16-11.72" fill="#100f0d"/><path d="M3714.65 4542.29h-.88v58.66h.88v-58.66M3708.07 4542.29h-.87v58.66h.87v-58.66M3701.5 4542.29h-.87v58.66h.87v-58.66M3694.94 4542.29h-.9v58.66h.9v-58.66" fill="#f1d817"/><path d="M3726.18 4587.57c-21.13 0-30.04 6.81-34.5 11.97v18.99c-2.35.66-3.59 2.38-3.74 5.19 6.56-5.41 16.88 7.27 22.98-5.88-3.27-6.56-9.86-5.88-12.2-2.11-4.68-3.98-.94-19 27.46-18.77v-9.39" fill="#100f0d"/><path d="M3718.43 4541.61c1.64-2.13.25-4.02-1.18-4.73.48 1.43.23 2.74-.69 3.99l1.87.74" fill="#cc1e25"/><path d="M3717.32 4536.77c.26 1.54.04 2.81-.88 4.02 1.19-1.11 1.43-2.48.95-3.94.5.5 1.34 1.27 1.57 2.26.18.8-.03 1.6-.66 2.38l.24.18c.66-.84.9-1.76.71-2.6-.25-1.13-1.15-1.93-1.93-2.3" fill="#100f0d"/><path d="M3710.21 4533.6c-.15-.93.32-2.11 1.4-3.53-2.81.72-3.96 1.68-3.05 3.3l1.65.23" fill="#cc1e25"/><path d="M3711.76 4530.19c-2.14.25-3.22.84-3.53 1.62-.21.47-.14 1.01.21 1.64-.05-.69-.13-1.14.04-1.53.31-.68 1.32-1.21 3.17-1.68-1.26 1.18-1.74 2.41-1.59 3.38l.31-.04c-.16-.89.29-2.05 1.39-3.39" fill="#100f0d"/><path d="M3700.83 4537.14c-.47-1.11-.54-2.36-.22-3.77-2.12 1.89-2.83 4.45-1.19 4.94l1.41-1.17" fill="#cc1e25"/><path d="M3700.73 4533.41c-1.72 1.19-2.58 2.89-2.3 4.02.1.51.44.88.95 1.02-.32-.39-.58-.67-.67-1.1-.24-1.01.61-2.63 1.99-3.86a4.515 4.515 0 0 0 0 3.69l.28-.1c-.47-1.05-.54-2.3-.25-3.67" fill="#100f0d"/><path d="M3701.06 4545.58c-.77-.18-1.57-.92-2.34-2.35-.23 2.58.24 3.99 2.59 4.46l-.25-2.11" fill="#cc1e25"/><path d="M3698.85 4543.15c-.5 2.54-.13 4.18 2.42 4.69-2.01-.7-2.66-1.83-2.4-4.59.53 1.51 1.34 2.31 2.16 2.46l.06-.27c-.73-.16-1.48-.94-2.24-2.29" fill="#100f0d"/><path d="M3721.71 4553.31l-11.03-10.08s4.23-.94 5.88-.94c1.63 0 3.05-.46 2.58-.95-.46-.47-1.41-.47-1.89-1.15-.46-.71-1.16-1.66-2.1-.71-.95.92-4.23 1.86-4.23 1.86s0-5.39.23-6.08c.24-.72.95-2.11.46-2.11-.46 0-.46.22-2.32 0-1.89-.25-1.64-.72-1.18 2.11.45 2.8.22 5.84.22 5.84s-4.22-2.79-5.61-4.68c-1.41-1.88-1.18-.47-1.89.25-.69.68-1.64.92-2.34 1.15-.71.24 1.87.96 2.57 1.43.71.47 6.1 3.51 6.1 3.51s-3.05.94-4.91 1.2c-1.89.21-1.89.21-1.64 1.15.22.93 0 1.89 0 2.34 0 .45.22.94 1.39 0 1.18-.94 6.56-3.28 6.56-3.28l9.17 12.19 3.98-3.05" fill="#cc1e25"/><path d="M3708.03 4532.82c-.12 0-.22.02-.3.1-.16.16-.1.49.05 1.31l.18 1.05c.44 2.62.27 5.49.23 5.82-.14-.37-4.05-3-5.37-4.76-.54-.72-.89-1.02-1.17-1-.25.02-.38.29-.52.57-.1.21-.21.47-.41.64-.58.61-1.34.84-2 1.04l-.5.35c-.02.23.35.39 1.47.84.52.19 1.04.43 1.3.57.64.46 5.37 3.12 6.02 3.49-.49 0-3.11.74-4.78.98-1.19.14-1.61.17-1.81.43-.13.21-.07.47.04.88.16.66.09 1.33.03 1.79-.02.24-.03.41-.03.53 0 .43.16.57.27.65.31.13.75-.04 1.37-.53 1.14-.92 6.46-3.24 6.54-3.26l8.98 12.15-8.93-12.39c-.4.08-5.59 2.31-6.78 3.26-.68.57-.95.55-1.03.51-.15-.51-.11-.66-.11-.88.07-.5.15-1.19-.04-1.87-.09-.35-.12-.59-.07-.67.11-.15.65-.23 1.6-.35 1.86-.23 4.92-1.17 4.95-1.17.04-.27-5.36-3.32-6.06-3.79-.29-.17-.84-.37-1.36-.58-.47-.2-1.22-.51-1.28-.63.94-.21 1.78-.51 2.43-1.13.21-.22.35-.49.46-.71.08-.23.2-.43.29-.43.16.06.35.16.91.9 1.4 1.84 5.49 4.59 5.67 4.71.21-.14.44-3.22-.02-6.02l-.18-1.05c-.11-.55-.2-.98-.13-1.05.04-.06.33 0 .6.03l.73.14c1.36.16 1.77.08 2.04.04.39.08.1.9-.07 1.27l-.22.59c-.24.74-.24 5.93-.24 6.15.33.12 3.52-.78 4.47-1.76.25-.25.52-.37.73-.33.44.04.83.51 1.14 1.01.31.45.77.63 1.18.8.29.1.56.22.73.4-.05.33-1.06.68-2.47.68-1.65 0-5.73.92-5.91.96l10.97 10.33.2-.22-11.01-10.08c.38.14 4.21-.7 5.75-.7 1.18 0 2.58-.25 2.78-.76l.04-.06-.14-.37c-.23-.21-.51-.33-.83-.45-.39-.16-.78-.33-1.04-.7-.37-.55-.79-1.1-1.35-1.13-.34-.06-.66.11-.98.39-.91.91-4.13 1.85-4.15 1.85.17-1.35.22-5.37.41-5.92l.21-.56c.34-.84.52-1.37.36-1.6l-.61-.06c-.26.02-.64.09-1.96-.08l-.74-.1c-.23-.04-.39-.06-.53-.06" fill="#100f0d"/><path d="M3730.39 4522.82l-4.92 5.88c-5.63-3.46-9.77-2.5-12.42 2.79 8.42-1.42 12.42 6.27 11.94 22.99l-6.31-9.82v9.12l-7.76-.94 20.41 21.82-.94-51.84" fill="#100f0d"/></g></svg><svg width="54" height="54" viewBox="-3 -3 54 54" id="ES" y="216"><defs><clipPath id="ea"><path d="M5647.54 5243.17h335.62v195.78h-335.62z"/></clipPath></defs><g clip-path="url(#ea)" transform="matrix(.13333 0 0 -.13333 -751.38 736.141)"><path d="M5647.54 5243.17h335.62v195.78h-335.62v-195.78" fill="#b51b2c"/><path d="M5647.54 5292.12h335.62v97.9h-335.62v-97.9" fill="#f0c015"/></g></svg><svg width="54" height="54" viewBox="-3 -3 54 54" id="GB" y="270"><defs><clipPath id="fa"><path d="M3562.59 5438.95h335.62v-195.78h-335.62z"/></clipPath></defs><g clip-path="url(#fa)" transform="matrix(.13333 0 0 -.13333 -473.387 736.141)"><path d="M3562.59 5243.17h335.62v195.78h-335.62v-195.78" fill="#fff"/><path d="M3787.31 5368.16l110.9 62.08v8.71h-7.64l-126.45-70.79h23.19M3782.08 5310.03l116.13-64.99v12.99l-92.93 52h-23.2M3562.59 5424.04l99.34-55.88h23.22l-122.56 68.88v-13M3679.88 5310.03l-117.29-65.72v-1.14h21.19l119.33 66.86h-23.23" fill="#be1a36"/><path d="M3875.24 5438.95h-117.51v-65.82zM3705.85 5438.95h-117.04l117.04-65.82zM3898.21 5368.16v44.92l-79.71-44.92zM3898.21 5265.6v44.43h-79.71zM3595.45 5243.17h110.4v61.87zM3757.73 5243.17h110.76l-110.76 61.87zM3562.59 5310.03v-46.44l82.49 46.44zM3562.59 5368.16h82.49l-82.49 46.51z" fill="#2b3076"/><path d="M3716.23 5438.95v-82.42h-153.64v-34.9h153.64v-78.46h31.12v78.46h150.86v34.9h-150.86v82.42h-31.12" fill="#be1a36"/></g></svg><svg width="54" height="54" viewBox="-3 -3 54 54" id="IN" y="324"><defs><clipPath id="ga"><path d="M7211.17 3531.95h335.63v-195.78h-335.63z"/></clipPath></defs><g clip-path="url(#ga)" transform="matrix(.13333 0 0 -.13333 -959.865 481.875)"><path d="M7211.17 3336.17h335.63v195.78h-335.63v-195.78" fill="#fff"/><path d="M7211.17 3466.68h335.63v65.27h-335.63v-65.27" fill="#f0882c"/><path d="M7211.17 3336.17h335.63v65.24h-335.63v-65.24" fill="#3a8b37"/><path d="M7378.96 3460.55l-.74-14.77.8-8.4.75 8.4-.75 14.77c.78 0 1.53-.04 2.27-.12 0-.04-.04-.04-.04-.08 0-.7.55-1.29 1.21-1.29.63 0 1.13.51 1.19 1.1.74-.16 1.45-.28 2.17-.51l-4.53-14.06-1.45-8.32 2.93 7.96 3.13 14.42c.7-.24 1.4-.43 2.11-.7-.04-.12-.1-.28-.1-.43 0-.67.55-1.22 1.23-1.22.47 0 .94.32 1.11.75.67-.32 1.31-.67 1.98-1.06l-8.03-12.34-3.56-7.74 4.91 6.92 6.74 13.12c.6-.35 1.23-.74 1.85-1.13-.18-.23-.27-.47-.27-.78 0-.67.54-1.21 1.23-1.21.39 0 .74.15.95.51.59-.51 1.14-1.02 1.65-1.53l-10.94-9.88-5.41-6.52 6.5 5.39 9.9 10.97c.51-.54 1.02-1.05 1.49-1.64-.29-.23-.43-.58-.43-.93 0-.67.55-1.22 1.19-1.22.29 0 .51.08.72.24.45-.63.84-1.25 1.19-1.88l-13.12-6.72-6.91-4.92 7.67 3.52 12.4 8.08c.41-.7.75-1.44 1.08-2.07a1.33 1.33 0 0 1-.74-1.17c0-.66.54-1.21 1.19-1.21.19 0 .33.04.47.12.23-.7.44-1.37.62-2.07l-14.43-3.05-7.91-2.93 8.32 1.41 14.06 4.49c.18-.62.35-1.41.49-2.11-.61-.08-1.06-.55-1.06-1.21 0-.66.57-1.21 1.23-1.21h.12c.08-.7.08-1.49.08-2.19l-14.73.7-8.44-.74 8.44-.82 14.73.78c0-.78 0-1.52-.08-2.22h-.12c-.66 0-1.23-.59-1.23-1.21 0-.63.45-1.1 1.04-1.22-.14-.74-.29-1.44-.47-2.14l-5.02 1.6-9.04 2.93-8.32 1.4h.04-.04l7.91-2.93 14.43-3.08c-.18-.7-.39-1.45-.66-2.07-.04 0-.12.04-.16.04h-.27c-.69 0-1.23-.51-1.23-1.21 0-.2.04-.32.11-.47a.9.9 0 0 1 .34-.47c.03 0 .05-.04.09-.04.04-.04.08-.08.12-.08.02 0 .06-.04.08-.08-.31-.66-.67-1.32-1.04-1.95l-12.38 8.01h-.02l-7.67 3.51h.03l4.03-2.81 2.85-2.03 13.12-6.72c-.39-.66-.78-1.33-1.21-1.91-.19.11-.45.19-.7.19-.68 0-1.21-.51-1.21-1.17 0-.39.16-.74.45-.94-.49-.54-.98-1.09-1.49-1.6l-9.9 10.94-6.48 5.39 5.39-6.52 10.94-9.89c-.51-.54-1.02-.97-1.59-1.44-.23.19-.48.27-.76.27-.66 0-1.21-.58-1.21-1.21 0-.23.04-.39.1-.55-.65-.39-1.31-.82-1.95-1.25l-6.74 13.13-4.91 6.95 3.54-7.69 8.03-12.43c-.65-.35-1.29-.7-1.96-1.01-.17.47-.6.74-1.09.74-.68 0-1.23-.58-1.23-1.21 0-.16.04-.31.08-.47-.71-.23-1.39-.47-2.11-.62l-3.13 14.45-2.93 7.85v.04l1.45-8.32 4.53-14.06c-.72-.2-1.44-.39-2.17-.47-.1.55-.6 1.01-1.19 1.01-.7 0-1.21-.54-1.21-1.17v-.15c-.74-.08-1.48-.12-2.23-.12l.75 14.73-.79 8.43-.76-8.43.74-14.73c-.78 0-1.5.04-2.26.12v.15c0 .63-.55 1.17-1.23 1.17-.59 0-1.09-.46-1.19-1.01-.73.12-1.43.27-2.11.47l4.53 14.06 1.41 8.28-2.93-7.85-3.09-14.45c-.7.15-1.41.39-2.13.62.06.16.1.31.1.47 0 .63-.55 1.21-1.19 1.21-.51 0-.94-.31-1.16-.74-.64.31-1.3.66-1.95 1.01l8.03 12.43 3.51 7.69-4.88-6.91-6.72-13.17c-.64.43-1.29.82-1.89 1.25.14.16.23.39.23.67 0 .7-.54 1.25-1.19 1.25-.41 0-.74-.2-.94-.47-.58.51-1.13.94-1.64 1.48l10.98 9.89 5.39 6.52-6.5-5.39-9.91-10.94c-.54.51-1.03 1.1-1.52 1.6.27.24.47.59.47.98 0 .66-.55 1.17-1.21 1.17-.27 0-.53-.08-.72-.19-.43.58-.82 1.21-1.2 1.87l13.17 6.76 6.85 4.8-7.67-3.51-12.38-8.01c-.38.63-.67 1.25-1 1.95.47.16.78.59.78 1.1 0 .7-.53 1.25-1.23 1.25-.18 0-.35-.04-.51-.12-.23.66-.47 1.41-.68 2.15l14.45 3.08 7.95 2.93-8.36-1.4-14.06-4.53c-.2.7-.33 1.4-.49 2.18.61.08 1.06.55 1.06 1.18 0 .66-.55 1.21-1.22 1.21h-.13c-.04.7-.1 1.44-.1 2.22l14.75-.78 8.41.82-8.41.74-14.75-.7c0 .7.06 1.49.1 2.19h.21c.67 0 1.21.51 1.21 1.21 0 .66-.48 1.13-1.13 1.21.16.7.29 1.49.49 2.11l14.06-4.49 8.36-1.41-7.95 2.93-14.45 3.09c.21.74.45 1.44.68 2.11.12-.04.32-.08.45-.08.69 0 1.21.55 1.21 1.21 0 .51-.31.94-.72 1.09.31.71.64 1.37 1.02 2.03l12.38-8.08 7.71-3.52-6.89 4.92-13.17 6.72c.38.63.79 1.25 1.22 1.92.17-.2.46-.28.72-.28.64 0 1.21.55 1.21 1.22 0 .35-.2.7-.45.97.45.55.94 1.06 1.46 1.6l9.91-10.97 6.52-5.39-5.39 6.52-10.98 9.88c.55.51 1.08 1.02 1.64 1.49.2-.28.55-.47.94-.47.69 0 1.23.54 1.23 1.25 0 .27-.12.51-.25.74.62.35 1.23.78 1.87 1.13l6.72-13.12 4.88-6.88-3.51 7.7-8.03 12.34c.65.39 1.29.74 1.94 1.06.19-.47.62-.78 1.13-.78.68 0 1.21.54 1.21 1.17 0 .19-.04.39-.08.51.68.27 1.43.46 2.13.7l3.12-14.42 2.93-7.96-1.42 8.32-4.53 14.06c.7.23 1.4.35 2.15.51.07-.59.58-1.06 1.19-1.06.68 0 1.23.55 1.23 1.25v.12c.72.08 1.46.08 2.2.08m.02 2.85c-16.21 0-29.37-13.13-29.37-29.34s13.16-29.37 29.37-29.37c16.22 0 29.38 13.16 29.38 29.37-.02 16.21-13.16 29.34-29.38 29.34" fill="#282a71"/><path d="M7379.02 3438.44c2.43 0 4.38-1.99 4.38-4.38 0-2.42-1.95-4.41-4.38-4.41-2.46 0-4.41 1.99-4.41 4.41 0 2.39 1.95 4.38 4.41 4.38" fill="#fff"/><path d="M7379.02 3437.42c1.86 0 3.38-1.48 3.38-3.36 0-1.91-1.52-3.44-3.38-3.44-1.89 0-3.43 1.53-3.43 3.44 0 1.88 1.54 3.36 3.43 3.36" fill="#282a71"/></g></svg><svg width="54" height="54" viewBox="-3 -3 54 54" id="JP" y="378"><defs><clipPath id="ha"><path d="M5126.25 3531.95h335.63v-195.78h-335.63z"/></clipPath></defs><g clip-path="url(#ha)" transform="matrix(.13333 0 0 -.13333 -681.875 481.875)"><path d="M5126.25 3336.17h335.63v195.78h-335.63v-195.78" fill="#fff"/><path d="M5294.08 3492.77c32.44 0 58.71-26.29 58.71-58.71s-26.27-58.79-58.71-58.79-58.75 26.37-58.75 58.79 26.31 58.71 58.75 58.71" fill="#ac1c22"/></g></svg><svg width="54" height="54" viewBox="-3 -3 54 54" id="PL" y="432"><defs><clipPath id="ia"><path d="M6689.96 3531.95h335.61v-195.78h-335.61z"/></clipPath></defs><g clip-path="url(#ia)" transform="matrix(.13333 0 0 .13333 -890.369 -433.875)"><path d="M6689.96 3434.06h335.61v97.89h-335.61v-97.89" fill="#bd1b32"/><path d="M6689.96 3336.17h335.61v97.89h-335.61v-97.89" fill="#fff"/></g></svg><svg width="54" height="54" viewBox="-3 -3 54 54" id="RO" y="486"><defs><clipPath id="ja"><path d="M956.387 5057.56h335.623v-195.79H956.387z"/></clipPath></defs><g clip-path="url(#ja)" transform="matrix(.13333 0 0 -.13333 -125.893 685.289)"><path d="M956.387 4861.77h111.873v195.79H956.387v-195.79" fill="#2a337a"/><path d="M1068.26 4861.77h111.88v195.79h-111.88v-195.79" fill="#efd01c"/><path d="M1180.14 4861.77h111.87v195.79h-111.87v-195.79" fill="#bd1b32"/></g></svg><svg width="54" height="54" viewBox="-3 -3 54 54" id="RU" y="540"><defs><clipPath id="ka"><path d="M4083.81 3913.36h335.62v-195.82h-335.62z"/></clipPath></defs><g clip-path="url(#ka)" transform="matrix(.13333 0 0 -.13333 -542.883 532.727)"><path d="M4083.81 3848.09h335.62v65.27h-335.62v-65.27" fill="#f7f7f7"/><path d="M4083.81 3782.81h335.62v65.28h-335.62v-65.28" fill="#323c97"/><path d="M4083.81 3717.54h335.62v65.27h-335.62v-65.27" fill="#da1e25"/></g></svg><svg width="54" height="54" viewBox="-3 -3 54 54" id="TR" y="594"><defs><clipPath id="la"><path d="M435.145 3913.36H770.77v-195.82H435.145z"/></clipPath></defs><g clip-path="url(#la)" transform="matrix(.13333 0 0 -.13333 -56.394 532.727)"><path d="M435.145 3717.54H770.77v195.82H435.145v-195.82" fill="#d21d29"/><path d="M533.035 3864.41c27.031 0 48.969-21.91 48.969-48.94 0-27.03-21.938-48.95-48.969-48.95-27.019 0-48.926 21.92-48.926 48.95s21.907 48.94 48.926 48.94" fill="#fff"/><path d="M545.273 3854.65c21.653 0 39.161-17.58 39.161-39.18 0-21.64-17.508-39.18-39.161-39.18-21.621 0-39.16 17.54-39.16 39.18 0 21.6 17.539 39.18 39.16 39.18" fill="#d21d29"/><path d="M574.414 3815.47l23.242-7.58 3.782 11.68z" fill="#fff"/><path d="M574.414 3815.47l23.242 7.54 3.782-11.64z" fill="#fff"/><path d="M591.309 3838.75v-24.49h12.238z" fill="#fff"/><path d="M591.309 3838.75l14.375-19.8-9.871-7.19z" fill="#fff"/><path d="M591.309 3792.15l14.375 19.84-9.871 7.19z" fill="#fff"/><path d="M591.309 3792.15v24.53h12.238z" fill="#fff"/><path d="M618.66 3829.8l-23.238-7.5 3.777-11.64z" fill="#fff"/><path d="M618.66 3829.8l-14.375-19.76-9.91 7.19z" fill="#fff"/><path d="M618.66 3801.05l-14.375 19.81-9.91-7.19z" fill="#fff"/><path d="M618.66 3801.05l-23.238 7.58 3.777 11.64z" fill="#fff"/></g></svg><svg width="54" height="54" viewBox="-3 -3 54 54" id="UA" y="648"><defs><clipPath id="ma"><path d="M4083.81 5438.95h335.62v-195.78h-335.62z"/></clipPath></defs><g clip-path="url(#ma)" transform="matrix(.13333 0 0 -.13333 -542.883 736.141)"><path d="M4083.81 5243.17h335.62v195.78h-335.62v-195.78" fill="#526bbd"/><path d="M4083.81 5243.17h335.62v97.88h-335.62v-97.88" fill="#ece01b"/></g></svg><svg viewBox="-3 -3 54 54" height="54" width="54" id="US" y="702"><defs><clipPath id="na"><path d="M6168.69 6201.76h335.65v-195.78h-335.65z"/></clipPath></defs><g clip-path="url(#na)" transform="matrix(.13333 0 0 -.13333 -820.869 837.85)"><path d="M6168.69 6005.98h335.65v15.06h-335.65v-15.06" fill="#cd1e25"/><path d="M6168.69 6021.04h335.65v15.05h-335.65v-15.05" fill="#fff"/><path d="M6168.69 6036.09h335.65v15.05h-335.65v-15.05" fill="#cd1e25"/><path d="M6168.69 6051.14h335.65v15.06h-335.65v-15.06" fill="#fff"/><path d="M6168.69 6066.2h335.65v15.07h-335.65v-15.07" fill="#cd1e25"/><path d="M6168.69 6081.27h335.65v15.05h-335.65v-15.05" fill="#fff"/><path d="M6168.69 6096.32h335.65v15.08h-335.65v-15.08" fill="#cd1e25"/><path d="M6168.69 6111.4h335.65v15.05h-335.65v-15.05" fill="#fff"/><path d="M6168.69 6126.45h335.65v15.05h-335.65v-15.05" fill="#cd1e25"/><path d="M6168.69 6141.5h335.65v15.07h-335.65v-15.07" fill="#fff"/><path d="M6168.69 6156.57h335.65v15.06h-335.65v-15.06" fill="#cd1e25"/><path d="M6168.69 6171.63h335.65v15.06h-335.65v-15.06" fill="#fff"/><path d="M6168.69 6186.69h335.65v15.07h-335.65v-15.07" fill="#cd1e25"/><path d="M6168.69 6096.32h153.28v105.44h-153.28v-105.44" fill="#29325d"/><path d="M6182.54 6190.14l1.31-4h4.2l-3.4-2.46 1.29-3.98-3.4 2.46-3.4-2.46 1.33 3.98-3.4 2.46h4.16l1.31 4M6182.54 6172.53l1.31-3.98h4.2l-3.4-2.45 1.29-4-3.4 2.47-3.4-2.47 1.33 4-3.4 2.45h4.16l1.31 3.98M6182.54 6154.93l1.31-3.97h4.2l-3.4-2.46 1.29-4-3.4 2.47-3.4-2.47 1.33 4-3.4 2.46h4.16l1.31 3.97M6182.54 6137.34l1.31-3.99h4.2l-3.4-2.46 1.29-3.98-3.4 2.46-3.4-2.46 1.33 3.98-3.4 2.46h4.16l1.31 3.99M6182.54 6119.75l1.31-4.01h4.2l-3.4-2.44 1.29-3.98-3.4 2.46-3.4-2.46 1.33 3.98-3.4 2.44h4.16l1.31 4.01M6194.8 6180.87l1.25-4h4.22l-3.38-2.47 1.27-3.97-3.36 2.45-3.37-2.45 1.27 3.97-3.38 2.47h4.2l1.28 4M6194.8 6163.26l1.25-3.97h4.22l-3.38-2.47 1.27-3.98-3.36 2.44-3.37-2.44 1.27 3.98-3.38 2.47h4.2l1.28 3.97M6194.8 6145.66l1.25-3.98h4.22l-3.38-2.46 1.27-3.99-3.36 2.47-3.37-2.47 1.27 3.99-3.38 2.46h4.2l1.28 3.98M6194.8 6128.06l1.25-3.98h4.22l-3.38-2.46 1.27-3.97-3.36 2.47-3.37-2.47 1.27 3.97-3.38 2.46h4.2l1.28 3.98M6207.19 6190.14l1.31-4h4.2l-3.4-2.46 1.31-3.98-3.42 2.46-3.36-2.46 1.29 3.98-3.4 2.46h4.18l1.29 4M6207.19 6172.53l1.31-3.98h4.2l-3.4-2.45 1.31-4-3.42 2.47-3.36-2.47 1.29 4-3.4 2.45h4.18l1.29 3.98M6207.19 6154.93l1.31-3.97h4.2l-3.4-2.46 1.31-4-3.42 2.47-3.36-2.47 1.29 4-3.4 2.46h4.18l1.29 3.97M6207.19 6137.34l1.31-3.99h4.2l-3.4-2.46 1.31-3.98-3.42 2.46-3.36-2.46 1.29 3.98-3.4 2.46h4.18l1.29 3.99M6207.19 6119.75l1.31-4.01h4.2l-3.4-2.44 1.31-3.98-3.42 2.46-3.36-2.46 1.29 3.98-3.4 2.44h4.18l1.29 4.01M6219.45 6180.87l1.29-4h4.22l-3.42-2.47 1.31-3.97-3.4 2.45-3.38-2.45 1.31 3.97-3.42 2.47h4.2l1.29 4M6219.45 6163.26l1.29-3.97h4.22l-3.42-2.47 1.31-3.98-3.4 2.44-3.38-2.44 1.31 3.98-3.42 2.47h4.2l1.29 3.97M6219.45 6145.66l1.29-3.98h4.22l-3.42-2.46 1.31-3.99-3.4 2.47-3.38-2.47 1.31 3.99-3.42 2.46h4.2l1.29 3.98M6219.45 6128.06l1.29-3.98h4.22l-3.42-2.46 1.31-3.97-3.4 2.47-3.38-2.47 1.31 3.97-3.42 2.46h4.2l1.29 3.98M6231.88 6190.14l1.3-4h4.16l-3.39-2.46 1.34-3.98-3.41 2.46-3.4-2.46 1.29 3.98-3.36 2.46h4.18l1.29 4M6231.88 6172.53l1.3-3.98h4.16l-3.39-2.45 1.34-4-3.41 2.47-3.4-2.47 1.29 4-3.36 2.45h4.18l1.29 3.98M6231.88 6154.93l1.3-3.97h4.16l-3.39-2.46 1.34-4-3.41 2.47-3.4-2.47 1.29 4-3.36 2.46h4.18l1.29 3.97M6231.88 6137.34l1.3-3.99h4.16l-3.39-2.46 1.34-3.98-3.41 2.46-3.4-2.46 1.29 3.98-3.36 2.46h4.18l1.29 3.99M6231.88 6119.75l1.3-4.01h4.16l-3.39-2.44 1.34-3.98-3.41 2.46-3.4-2.46 1.29 3.98-3.36 2.44h4.18l1.29 4.01M6244.14 6180.87l1.29-4h4.18l-3.38-2.47 1.27-3.97-3.36 2.45-3.38-2.45 1.27 3.97-3.38 2.47h4.18l1.31 4M6244.14 6163.26l1.29-3.97h4.18l-3.38-2.47 1.27-3.98-3.36 2.44-3.38-2.44 1.27 3.98-3.38 2.47h4.18l1.31 3.97M6244.14 6145.66l1.29-3.98h4.18l-3.38-2.46 1.27-3.99-3.36 2.47-3.38-2.47 1.27 3.99-3.38 2.46h4.18l1.31 3.98M6244.14 6128.06l1.29-3.98h4.18l-3.38-2.46 1.27-3.97-3.36 2.47-3.38-2.47 1.27 3.97-3.38 2.46h4.18l1.31 3.98M6256.52 6190.14l1.31-4h4.18l-3.38-2.46 1.31-3.98-3.42 2.46-3.36-2.46 1.27 3.98-3.38 2.46h4.18l1.29 4M6256.52 6172.53l1.31-3.98h4.18l-3.38-2.45 1.31-4-3.42 2.47-3.36-2.47 1.27 4-3.38 2.45h4.18l1.29 3.98M6256.52 6154.93l1.31-3.97h4.18l-3.38-2.46 1.31-4-3.42 2.47-3.36-2.47 1.27 4-3.38 2.46h4.18l1.29 3.97M6256.52 6137.34l1.31-3.99h4.18l-3.38-2.46 1.31-3.98-3.42 2.46-3.36-2.46 1.27 3.98-3.38 2.46h4.18l1.29 3.99M6256.52 6119.75l1.31-4.01h4.18l-3.38-2.44 1.31-3.98-3.42 2.46-3.36-2.46 1.27 3.98-3.38 2.44h4.18l1.29 4.01M6268.79 6180.87l1.29-4h4.22l-3.4-2.47 1.29-3.97-3.4 2.45-3.38-2.45 1.31 3.97-3.4 2.47h4.2l1.27 4M6268.79 6163.26l1.29-3.97h4.22l-3.4-2.47 1.29-3.98-3.4 2.44-3.38-2.44 1.31 3.98-3.4 2.47h4.2l1.27 3.97M6268.79 6145.66l1.29-3.98h4.22l-3.4-2.46 1.29-3.99-3.4 2.47-3.38-2.47 1.31 3.99-3.4 2.46h4.2l1.27 3.98M6268.79 6128.06l1.29-3.98h4.22l-3.4-2.46 1.29-3.97-3.4 2.47-3.38-2.47 1.31 3.97-3.4 2.46h4.2l1.27 3.98M6281.21 6190.14l1.31-4h4.18l-3.38-2.46 1.27-3.98-3.38 2.46-3.36-2.46 1.27 3.98-3.38 2.46h4.18l1.29 4M6281.21 6172.53l1.31-3.98h4.18l-3.38-2.45 1.27-4-3.38 2.47-3.36-2.47 1.27 4-3.38 2.45h4.18l1.29 3.98M6281.21 6154.93l1.31-3.97h4.18l-3.38-2.46 1.27-4-3.38 2.47-3.36-2.47 1.27 4-3.38 2.46h4.18l1.29 3.97M6281.21 6137.34l1.31-3.99h4.18l-3.38-2.46 1.27-3.98-3.38 2.46-3.36-2.46 1.27 3.98-3.38 2.46h4.18l1.29 3.99M6281.21 6119.75l1.31-4.01h4.18l-3.38-2.44 1.27-3.98-3.38 2.46-3.36-2.46 1.27 3.98-3.38 2.44h4.18l1.29 4.01M6293.48 6180.87l1.27-4h4.2l-3.36-2.47 1.25-3.97-3.36 2.45-3.42-2.45 1.31 3.97-3.36 2.47h4.16l1.31 4M6293.48 6163.26l1.27-3.97h4.2l-3.36-2.47 1.25-3.98-3.36 2.44-3.42-2.44 1.31 3.98-3.36 2.47h4.16l1.31 3.97M6293.48 6145.66l1.27-3.98h4.2l-3.36-2.46 1.25-3.99-3.36 2.47-3.42-2.47 1.31 3.99-3.36 2.46h4.16l1.31 3.98M6293.48 6128.06l1.27-3.98h4.2l-3.36-2.46 1.25-3.97-3.36 2.47-3.42-2.47 1.31 3.97-3.36 2.46h4.16l1.31 3.98M6305.86 6190.14l1.33-4h4.16l-3.38-2.46 1.31-3.98-3.42 2.46-3.36-2.46 1.27 3.98-3.38 2.46h4.18l1.29 4M6305.86 6172.53l1.33-3.98h4.16l-3.38-2.45 1.31-4-3.42 2.47-3.36-2.47 1.27 4-3.38 2.45h4.18l1.29 3.98M6305.86 6154.93l1.33-3.97h4.16l-3.38-2.46 1.31-4-3.42 2.47-3.36-2.47 1.27 4-3.38 2.46h4.18l1.29 3.97M6305.86 6137.34l1.33-3.99h4.16l-3.38-2.46 1.31-3.98-3.42 2.46-3.36-2.46 1.27 3.98-3.38 2.46h4.18l1.29 3.99M6305.86 6119.75l1.33-4.01h4.16l-3.38-2.44 1.31-3.98-3.42 2.46-3.36-2.46 1.27 3.98-3.38 2.44h4.18l1.29 4.01" fill="#fff"/></g></svg></svg>