<?xml version="1.0" encoding="UTF-8" standalone="no"?><!DOCTYPE svg PUBLIC "-//W3C//DTD SVG 1.1//EN" "http://www.w3.org/Graphics/SVG/1.1/DTD/svg11.dtd"><svg width="54" height="6588" viewBox="0 0 54 6588" xmlns="http://www.w3.org/2000/svg" xmlns:xlink="http://www.w3.org/1999/xlink"><svg width="54" height="54" viewBox="-22.5 13.5 54 54" id="cad-curve"><path d="M8.827 30.647H.07a1.101 1.101 0 0 1-1.094-1.099v-8.76c0-.603.486-1.1 1.074-1.1h8.74c.613 0 1.099.494 1.099 1.1v8.76c0 .603-.499 1.1-1.11 1.1zm-7.667-2.19h6.575v-6.573H1.162v6.573zm-15.323-4.38H-1.02v2.187h-13.143v-2.187zm24.094 0h13.15v2.187H9.946v-2.187zm14.285 4.38a3.287 3.287 0 0 1-3.284-3.29 3.273 3.273 0 0 1 3.284-3.296 3.279 3.279 0 0 1 3.284 3.271 3.274 3.274 0 0 1-3.284 3.271zm0-4.38c-.608 0-1.104.493-1.104 1.093 0 .604.493 1.1 1.104 1.1.593 0 1.094-.494 1.094-1.1 0-.598-.496-1.093-1.094-1.093zm-39.432 4.38a3.295 3.295 0 0 1-3.284-3.29 3.28 3.28 0 0 1 3.284-3.296c1.81 0 3.289 1.457 3.289 3.271a3.276 3.276 0 0 1-3.29 3.271zm0-4.38c-.598 0-1.091.493-1.091 1.093a1.1 1.1 0 0 0 1.09 1.1c.601 0 1.1-.494 1.1-1.1 0-.598-.496-1.093-1.1-1.093zm41.2 21.221c-.587 0-1.083-.49-1.083-1.099A18.207 18.207 0 0 0 9.828 26.22a1.083 1.083 0 0 1-.894-1.268 1.095 1.095 0 0 1 1.265-.89A20.402 20.402 0 0 1 27.09 44.2c0 .614-.49 1.1-1.106 1.1zm-43.07 0c-.606 0-1.1-.49-1.1-1.099 0-9.951 7.112-18.425 16.898-20.138a1.083 1.083 0 0 1 1.257.89 1.093 1.093 0 0 1-.884 1.267A18.21 18.21 0 0 0-15.993 44.2c0 .614-.486 1.1-1.073 1.1zM11.58 59.814a.74.74 0 0 1-.255-.039c-.588-.127-.946-.74-.792-1.329l2.606-10.35L4.477 34.86l-8.663 13.263 2.606 10.376a1.09 1.09 0 0 1-.792 1.328 1.091 1.091 0 0 1-1.329-.784l-2.734-10.828a1.061 1.061 0 0 1 .153-.874l9.86-15.052c.403-.614 1.43-.614 1.832 0l9.857 15.052c.17.255.224.58.143.88l-2.76 10.817a1.094 1.094 0 0 1-1.066.818h.018zm-7.104-6.16a1.115 1.115 0 0 1-1.099-1.106V35.03a1.11 1.11 0 0 1 1.099-1.1c.588 0 1.099.494 1.099 1.1v17.52c0 .606-.486 1.1-1.099 1.1zm0 4.238a3.275 3.275 0 0 1-3.271-3.284 3.307 3.307 0 0 1 3.291-3.297 3.274 3.274 0 0 1 3.287 3.271c0 1.815-1.482 3.271-3.297 3.271zm0-4.375c-.588 0-1.099.493-1.099 1.083a1.11 1.11 0 0 0 1.099 1.1c.588 0 1.099-.494 1.099-1.1 0-.588-.486-1.08-1.099-1.083zm9.864 7.794H-5.362c-.598 0-1.099-.49-1.099-1.091 0-.608.499-1.089 1.1-1.089h19.713c.6 0 1.099.46 1.099 1.074 0 .587-.496 1.098-1.11 1.098z" fill="#010101"/></svg><svg width="54" height="54" viewBox="-3 -3 54 54" id="cad-curve-bezier-cubic" y="54"><g transform="matrix(1.9602 0 0 1.9602 -.672 -45.76)" stroke-miterlimit="10"><path d="M4.227 41.52c0-10.078 9.645-8.958 18 0" fill="none" stroke="#000" stroke-width="1.5"/><path d="M4.227 41.52l-1.5-11.757M22.23 41.52l-2.938-11.757" fill="none" stroke="#020202" stroke-width=".25"/><path d="M2.728 28.263a1.5 1.5 0 1 1 .001 2.999 1.5 1.5 0 0 1-.001-2.999zM19.294 28.063a1.5 1.5 0 1 1-.001 3.001 1.5 1.5 0 0 1 .001-3.001z" fill="#fff" stroke="#020202" stroke-width=".75"/><path d="M4.228 39.938a1.501 1.501 0 0 1 0 3c-.828 0-1.5-.674-1.5-1.5a1.496 1.496 0 0 1 1.5-1.5zM22.27 39.936a1.5 1.5 0 1 1 .001 2.999 1.5 1.5 0 0 1-.001-2.999z" fill="#fff" stroke="#020202" stroke-width="1.1"/></g></svg><svg width="54" height="54" viewBox="-3 -3 54 54" id="cad-curve-bezier-quadratic" y="108"><g transform="matrix(2.13894 0 0 2.13894 -2.737 -52.12)" stroke-miterlimit="10"><path d="M3.797 41.426s8.616-11.81 17.406 0" fill="none" stroke="#020202" stroke-width="1.1"/><path d="M3.797 41.426L12.5 29.574m0 0l8.703 11.852" fill="none" stroke="#030303" stroke-width=".25"/><path d="M12.473 28.074a1.5 1.5 0 1 1 .001 2.999 1.5 1.5 0 0 1-.001-2.999z" fill="#fff" stroke="#020202" stroke-width=".75"/><path d="M3.797 39.926a1.5 1.5 0 1 1-.001 3.001 1.5 1.5 0 0 1 .001-3.001zM21.203 39.752a1.5 1.5 0 1 1 .001 2.999 1.5 1.5 0 0 1-.001-2.999z" fill="#fff" stroke="#020202" stroke-width="1.1"/></g></svg><svg width="54" height="54" viewBox="-3 -3 54 54" id="cad-curve-spline" y="162"><g transform="translate(-3.163 -51.978) scale(2.14023)" stroke-miterlimit="10"><path d="M3.82 30.27l10.028-2.77M3.82 30.27l9.06 5.23m8.683 5l-8.683-5m8.683 5l-11.49 3" fill="none" stroke="#020202" stroke-width=".25"/><g transform="translate(0 23)" stroke-width="1.1"><path d="M13.847 4.5s-9.864 1.62-.967 8c8.895 6.382-1.28 8.086-2.806 7.998" fill="none" stroke="#000"/><path d="M10.015 19a1.5 1.5 0 1 1-.001 3.001A1.5 1.5 0 0 1 10.015 19zM12.823 11a1.5 1.5 0 1 1-1.5 1.5c0-.83.67-1.5 1.5-1.5zM13.854 3a1.5 1.5 0 1 1 .001 2.999A1.5 1.5 0 0 1 13.854 3z" fill="#fff" stroke="#020202"/></g><path d="M21.563 39a1.5 1.5 0 1 1-.001 3.001A1.5 1.5 0 0 1 21.563 39zM3.822 28.77c.826 0 1.498.67 1.498 1.5a1.499 1.499 0 1 1-3 0c0-.83.674-1.5 1.502-1.5z" fill="#fff" stroke="#020202" stroke-width=".75"/></g></svg><svg width="54" height="54" viewBox="-3 -3 54 54" id="cad-form" y="216"><path d="M24 1.472L1 8.122v31.843l23 6.563 23-6.572V8.121l-23-6.64v-.01zm-1.771 40.89L4.536 37.298v-24.49l17.693 5.06v24.496zM7.193 9.89L24 5.09l16.807 4.806L24 14.685 7.193 9.889zm36.27 27.408l-17.695 5.06v-24.49l17.696-5.05v24.48z" fill="#010101"/></svg><svg width="54" height="54" viewBox="2 2 54 54" id="cad-form-circle" y="270"><g transform="matrix(2.61364 0 0 2.61364 -16.739 -74.892)" stroke-miterlimit="10" stroke-width="1.1"><circle r="7.5" cy="40.5" cx="17.5" fill="none" stroke="#000"/><path d="M17.502 39.035c.828 0 1.498.67 1.498 1.5a1.499 1.499 0 1 1-3 0c0-.83.672-1.5 1.502-1.5zM17.502 31.5c.828 0 1.498.67 1.498 1.5a1.499 1.499 0 1 1-3 0c0-.83.672-1.5 1.502-1.5z" fill="#fff" stroke="#020202"/></g></svg><svg width="54" height="54" viewBox="-3 -3 54 54" id="cad-form-polygon" y="324"><g transform="translate(-7.25 -63.042) scale(2.45188)" stroke-miterlimit="10" stroke-width="1.1"><path d="M8.25 42.86L4 35.5l4.25-7.36h8.498L21 35.5l-4.252 7.36z" fill="none" stroke="#000"/><path d="M12.5 34a1.5 1.5 0 1 1-1.5 1.5c0-.83.67-1.5 1.5-1.5zM20.076 34.002a1.5 1.5 0 1 1 0 2.998 1.5 1.5 0 0 1 0-2.998z" fill="#fff" stroke="#030303"/></g></svg><svg width="54" height="54" viewBox="-3 -3 54 54" id="cad-form-rectangle" y="378"><g transform="matrix(2.40838 0 0 2.40838 -6.105 -61.497)" stroke-miterlimit="10" stroke-width="1.1"><path d="M5 28.81h15v13.38H5z" fill="none" stroke="#010101"/><path d="M20.002 27.31a1.5 1.5 0 1 1-1.502 1.5c0-.83.672-1.5 1.502-1.5zM5.002 40.69c.828 0 1.498.67 1.498 1.5s-.67 1.5-1.498 1.5a1.5 1.5 0 1 1 0-3z" fill="#fff" stroke="#020202"/></g></svg><svg width="54" height="54" viewBox="-3 -3 54 54" id="cad-grid-off" y="432"><path d="M44.115 1.01H3.885A2.891 2.891 0 0 0 1 3.896v40.208a2.886 2.886 0 0 0 2.885 2.886h40.23A2.891 2.891 0 0 0 47 44.104V3.9a2.891 2.891 0 0 0-2.885-2.885zm-1.046 42.095H4.931V4.995h38.117l.009 38.11z" fill="#231f20"/></svg><svg width="54" height="54" viewBox="-3 -3 54 54" id="cad-grid-on" y="486"><path d="M3.81 1.644h40.38A2.816 2.816 0 0 1 47 4.454v39.092a2.819 2.819 0 0 1-2.81 2.81H3.81A2.819 2.819 0 0 1 1 43.546V4.454a2.81 2.81 0 0 1 2.81-2.81zm25.25 40.923v-6.381H18.856v6.385H29.06zm0-10.22v-6.398H18.856v6.398H29.06zm0-10.233V15.72H18.856v6.398H29.06zm0-10.237V5.479H18.856v6.398H29.06zm3.835-6.398v6.398h10.27V5.479h-10.27zm0 10.233v6.398h10.27v-6.39h-10.27zm0 10.224v6.398h10.27v-6.398h-10.27zm0 10.246v6.381h10.27v-6.381h-10.27zm-17.87 6.385v-6.381H4.794v6.385h10.233zm0-10.22v-6.398H4.794v6.398h10.233zm0-10.233V15.72H4.794v6.398h10.233zm0-10.237V5.479H4.794v6.398h10.233z" fill="#231f20"/></svg><svg width="54" height="54" viewBox="-3 -3 54 54" id="cad-grid-ortho" y="540"><path d="M20.933 1H7.263v7.13H1v13.685h6.26V47h13.673V21.815H47V8.13H20.933V1zM10.38 4.124h7.437v3.998H10.38V4.124zm7.437 7.142v7.406H10.38v-7.399h7.437zm-13.7 7.406v-7.399h3.135v7.399H4.117zm13.692 25.204h-7.425V21.823h7.429v22.053zm26.067-32.61v7.406h-2.07v-4.485h-3.117v4.485h-2.215v-2.553H33.35v2.556h-2.216v-4.488H28.01v4.485H25.9v-2.553h-3.128v2.556h-1.84v-7.402h22.943z"/></svg><svg width="54" height="54" viewBox="-3 -3 54 54" id="cad-grid-snap" y="594"><path d="M33.16 25.087h-6.44l-3.968-3.795v-6.02c0-.958-.824-1.786-1.802-1.786h-6.057c-.97 0-1.802.824-1.802 1.79v5.567l-4.025 4.244H2.79c-.97 0-1.79.805-1.79 1.79v5.854c0 .974.82 1.783 1.786 1.783H8.96c.97 0 1.801-.805 1.801-1.779v-5.681l3.922-4.168h6.073l4.47 4.225v5.559l-3.803 4.048c-.115 0-.203-.046-.36-.046h-6.173a1.82 1.82 0 0 0-1.801 1.802v5.85c0 .974.831 1.783 1.801 1.783h6.173a1.8 1.8 0 0 0 1.778-1.787v-5.405l4.187-4.401h6.134c.966 0 1.774-.805 1.774-1.779v-5.858c0-.981-.805-1.79-1.77-1.79zM45.18 13.482h-5.616L34.939 9.15V3.68c0-.959-.805-1.787-1.775-1.787h-6.176c-.989 0-1.801.82-1.801 1.787v5.865c0 .99.812 1.802 1.801 1.802h6.173c.115 0 .207 0 .295-.05l3.78 3.565v6.276c0 .985.843 1.794 1.79 1.794h6.199c.943 0 1.775-.805 1.775-1.786V15.28c-.069-.97-.882-1.79-1.821-1.79z" fill="#010101"/></svg><svg width="54" height="54" viewBox="-3 -3 54 54" id="cad-history" y="648"><path d="M24 1C11.297 1 1 11.297 1 24s10.297 23 23 23 23-10.297 23-23S36.703 1 24 1zm0 39.312c-8.988 0-16.312-7.324-16.312-16.312 0-8.988 7.324-16.312 16.312-16.312 8.995 0 16.312 7.324 16.312 16.312 0 8.988-7.324 16.312-16.312 16.312zm1.996-19.206v-5.888c0-.92-.743-1.67-1.67-1.67-.928 0-1.674.742-1.674 1.67v6.687c0 .036.014.064.014.096 0 .113.035.212.07.318.026.106.047.213.093.308.046.092.106.166.163.248.07.095.141.19.226.272.021.018.035.046.06.071l8.362 6.688a1.65 1.65 0 0 0 1.043.368 1.678 1.678 0 0 0 1.05-2.983l-7.737-6.182z" fill="#010101"/></svg><svg width="54" height="54" viewBox="-3 -3 54 54" id="cad-layer" y="702"><path d="M47 12.5L24 1 1 12.5 24 24zM24 28.224L9.805 21.125 1 24l23 11.5L47 24l-8.088-3.055zm0 11.5L9.805 32.625 1 35.5 24 47l23-11.5-8.088-3.055z" fill="#010101"/></svg><svg width="54" height="54" viewBox="-3 -3 54 54" id="cad-object-copy" y="756"><path d="M9.625 5.313v8.625H1v28.75h40.25v-8.626H47V5.313H9.625zm28.75 34.5h-34.5v-23h5.75v17.25h28.75v5.75zm5.75-8.626H12.5v-23h31.625v23z" fill="#010202"/></svg><svg width="54" height="54" viewBox="-3 -3 54 54" id="cad-object-edit" y="810"><path d="M11.488 46.994l28.302-28.29-2.212-2.212-28.064 28.06-1.852-1.851 28.061-28.057-2.357-2.361-27.97 27.96-1.85-1.855 27.968-27.96-2.212-2.213L1 36.514v10.48h10.488zm30.158-30.146L31.154 6.36l4.515-4.512a2.89 2.89 0 0 1 4.08 0l6.409 6.406a2.885 2.885 0 0 1 0 4.075l-4.512 4.52z" clip-rule="evenodd" fill="#010202" fill-rule="evenodd"/></svg><svg width="54" height="54" viewBox="-3 -3 54 54" id="cad-object-fit" y="864"><g transform="matrix(3.83333 0 0 3.83333 -6.667 -6.667)" fill="#010202"><path d="M6 4.5v-1H2v4h1v-3zM10 3.5v1h3v3h1v-4h-1zM2 8.5v4h4v-1H3v-3zM10 11.5v1h4v-4h-1v3z"/><path d="M4 5.5h8v5H4z"/></g></svg><svg width="54" height="54" viewBox="-3 -3 54 54" id="cad-object-group" y="918"><path d="M5.066 1L1 5.066l8.376 8.379L4.57 18.25h13.68V4.57l-4.805 4.81m25.18 4.065L47 5.065 42.938 1l-8.383 8.38-4.805-4.81v13.68h13.676M9.376 34.555L1 42.938 5.066 47l8.379-8.376 4.805 4.802V29.75H4.57m38.856 0H29.75v13.676l4.805-4.802L42.938 47 47 42.938l-8.376-8.383" fill="#010202"/></svg><svg width="54" height="54" viewBox="-3 -3 54 54" id="cad-object-mirror" y="972"><g transform="matrix(3.06667 0 0 3.06667 -.533 -.533)" fill="#010202"><path d="M.5 4.25h1.875v7.5H.5zM13.625 4.25H15.5v7.5h-1.875zM11.749 8.938h.001L12.688 8 9.875 5.188v1.875h-3.75V5.188L3.313 8l2.812 2.813V8.938h3.75v1.875z"/></g></svg><svg width="54" height="54" viewBox="-3 -3 54 54" id="cad-object-move" y="1026"><path d="M47 24l-11.5-8.625v5.75h-8.625V12.5h5.852L24.099 1l-8.625 11.5h5.651v8.625H12.5v-5.75L1 24l11.5 8.625v-5.75h8.625V35.5h-5.651L24.099 47l8.628-11.5h-5.852v-8.625H35.5v5.75" fill="#010202"/></svg><svg width="54" height="54" viewBox="-3 -3 54 54" id="cad-object-remove" y="1080"><path fill="#010202" d="M37.144 47L47 37.144 33.852 24 47 10.86 37.144 1 24 14.145 10.856 1 1 10.856 14.14 24 1 37.144 10.856 47 24 33.852z"/></svg><svg width="54" height="54" viewBox="-3 -3 54 54" id="cad-object-rotate" y="1134"><path d="M27.49 4.489c-9.252 0-17 6.475-19 15.125L1 19.53l10.14 16.375 10.523-16.127-6.956-.085c1.811-5.35 6.825-9.238 12.783-9.238 7.466 0 13.545 6.079 13.545 13.548S34.956 37.546 27.49 37.546c-2.766 0-5.328-.835-7.476-2.26L16.76 40.28a19.422 19.422 0 0 0 10.735 3.23C38.254 43.511 47 34.758 47 23.998c0-10.76-8.753-19.51-19.51-19.51z" fill="#010202"/></svg><svg width="54" height="54" viewBox="-3 -3 54 54" id="cad-object-scale" y="1188"><path d="M32.038 19.768l5.766 5.765V10.196H22.467l5.868 5.873-9.464 9.464H1V47h21.467V29.344l9.571-9.576zM16.333 40.867h-9.2v-9.204h9.2v9.204zM1 19.4h3.067v3.063H1zm0-6.133h3.067v3.063H1zm0-6.134h3.067v3.063H1zM1 1h3.067v3.067H1zm42.93 36.804H47v3.066h-3.07zm0-6.141H47v3.07h-3.07zm0-6.13H47V28.6h-3.07zm0-6.133H47v3.063h-3.07zm0-6.133H47v3.063h-3.07zm0-6.134H47v3.063h-3.07zm0-6.133H47v3.067h-3.07zm-6.126 0h3.066v3.067h-3.066zm-6.141 0h3.07v3.067h-3.07zm-6.13 0h3.07v3.067h-3.07zM19.4 1h3.063v3.067H19.4zm-6.133 0h3.063v3.067h-3.063zM7.133 1h3.063v3.067H7.133zm18.4 42.93h3.07V47h-3.07zm6.13 0h3.07V47h-3.07zm6.14 0h3.067V47h-3.066zm6.126 0H47V47h-3.07z" fill="#010202"/></svg><svg width="54" height="54" viewBox="-3 -3 54 54" id="cad-object-ungroup" y="1242"><path d="M14.881 29.053l-8.725 8.726L1 32.627V47h14.377l-5.16-5.152 8.73-8.73M32.627 1l5.152 5.156-8.726 8.725 4.066 4.07 8.729-8.733L47 15.377V1M14.881 18.947l4.066-4.066-8.73-8.725L15.378 1H1v14.377l5.156-5.16m26.963 18.836l-4.066 4.066 8.726 8.729L32.627 47H47V32.627l-5.152 5.152" fill="#010202"/></svg><svg viewBox="-3 -3 54 54" width="54" height="54" id="cad-revision" y="1296"><g transform="translate(.819 .819) scale(.09055)"><path d="M164.6 129.6h182.6c5.6 0 10.2-4.5 10.2-10.2V63c0-5.6-4.5-10.2-10.2-10.2h-40.3C306.8 24.7 284.1 2 256 2c-28.1 0-50.8 22.7-50.8 50.8h-40.6c-5.6 0-10.2 4.5-10.2 10.2v56.5c0 5.6 4.5 10.1 10.2 10.1z"/><path d="M433.8 103.6h-25.7v66.6c0 5.6-4.5 10.2-10.2 10.2H113.8c-5.6 0-10.2-4.5-10.2-10.2v-66.6H78.2c-14 0-25.4 11.4-25.4 25.4v355.6c0 14 11.4 25.4 25.4 25.4h355.6c14 0 25.4-11.4 25.4-25.4V129c0-14-11.4-25.4-25.4-25.4zm-83.6 195.8l-127 127c-5 5-11.5 7.4-18 7.4s-13-2.5-18-7.4l-50.8-50.8c-9.9-9.9-9.9-26 0-35.9 9.9-9.9 26-9.9 35.9 0l32.8 32.8 109-109c9.9-9.9 26-9.9 35.9 0 10.1 9.9 10.1 25.9.2 35.9z"/></g></svg><svg width="54" height="54" viewBox="-22.5 13.5 54 54" id="cad-trace" y="1350"><path d="M-14.163 22.98H4.454v2.187h-18.617v-2.188zm18.62 0h18.63v2.187H4.457v-2.188zm19.76 4.377a3.294 3.294 0 0 1-3.285-3.284 3.29 3.29 0 0 1 3.284-3.29 3.299 3.299 0 0 1 3.284 3.29 3.296 3.296 0 0 1-3.284 3.284zm0-4.378a1.09 1.09 0 0 0-1.092 1.099c0 .595.48 1.089 1.091 1.089.593 0 1.094-.491 1.094-1.092 0-.605-.496-1.098-1.094-1.098zm-39.433 4.378a3.294 3.294 0 0 1-3.284-3.284 3.295 3.295 0 0 1 3.284-3.29 3.3 3.3 0 0 1 3.289 3.29 3.292 3.292 0 0 1-3.29 3.284zm0-4.378c-.598 0-1.091.49-1.091 1.099 0 .595.493 1.089 1.09 1.089.604 0 1.1-.491 1.1-1.092 0-.605-.496-1.098-1.1-1.098zm26.782 35.727a1.95 1.95 0 0 1-.266-.026 1.102 1.102 0 0 1-.78-1.334l2.615-10.35-8.673-13.258-8.674 13.263 2.617 10.35a1.104 1.104 0 0 1-.792 1.33c-.614.153-1.191-.205-1.33-.793l-2.744-10.82a1.067 1.067 0 0 1 .143-.864L3.54 31.139c.404-.613 1.431-.613 1.832 0l9.86 15.065c.168.256.23.575.145.864l-2.74 10.817a1.095 1.095 0 0 1-1.065.818zm-7.112-6.16a1.1 1.1 0 0 1-1.099-1.09V33.925a1.1 1.1 0 0 1 2.198.005v17.53c0 .596-.496 1.087-1.099 1.087zm0 4.253a3.29 3.29 0 0 1 0-6.58A3.286 3.286 0 0 1 7.74 53.5a3.293 3.293 0 0 1-3.286 3.297zm0-4.39c-.606 0-1.099.498-1.099 1.104a1.1 1.1 0 0 0 1.099 1.091 1.104 1.104 0 0 0 0-2.205v.007zm9.854 7.807h-19.71a1.099 1.099 0 0 1-1.1-1.091c0-.613.496-1.099 1.1-1.099h19.71a1.094 1.094 0 1 1-.005 2.19h.005z" fill="#010101"/></svg><svg width="54" height="54" viewBox="2 2 54 54" id="cad-trace-arc" y="1404"><path d="M-1 22h37v37H-1z" fill="none"/><g transform="matrix(2.54144 0 0 2.54144 -15.475 -73.928)" stroke-miterlimit="10" stroke-width="1.1"><path d="M10.5 47.5c0-7.738 6.262-14 14-14" fill="none" stroke="#000"/><path d="M24.5 32a1.5 1.5 0 1 1 .001 2.999A1.5 1.5 0 0 1 24.5 32zM10.5 46a1.5 1.5 0 1 1 .001 3.001A1.5 1.5 0 0 1 10.5 46zM14.472 36.04a1.5 1.5 0 1 1 0 3 1.5 1.5 0 0 1 0-3z" fill="#fff" stroke="#020202"/></g></svg><svg width="54" height="54" viewBox="2 2 54 54" id="cad-trace-line" y="1458"><g transform="translate(-16.832 -77.28) scale(2.61959)" stroke-miterlimit="10" stroke-width="1.1"><path d="M10.5 47.5l14-14" fill="none" stroke="#010101"/><path d="M24.226 32.348a1.5 1.5 0 1 1-1.5 1.5c0-.83.67-1.5 1.5-1.5zM10.766 45.794a1.5 1.5 0 1 1-1.5 1.5c0-.83.67-1.5 1.5-1.5z" fill="#fff" stroke="#020202"/></g></svg><svg width="54" height="54" viewBox="2 2 54 54" id="cad-trace-polyline" y="1512"><g transform="translate(-14.154 -71.047) scale(2.46213)" stroke-miterlimit="10"><path d="M10.508 47.933l2.316-8.57m0 .001l6.715 2.51m.001-.001l4.94-8.53" fill="none" stroke="#010101"/><path d="M19.966 40.035c.828 0 1.498.67 1.498 1.5a1.499 1.499 0 1 1-3 0c0-.83.672-1.5 1.502-1.5zM12.678 37.864c.828 0 1.498.67 1.498 1.5a1.499 1.499 0 1 1-3 0c0-.83.672-1.5 1.502-1.5zM10.576 46.426c.828 0 1.498.67 1.498 1.5s-.67 1.5-1.498 1.5a1.5 1.5 0 1 1 0-3zM24.48 31.843c.83 0 1.5.67 1.5 1.5s-.67 1.5-1.5 1.5-1.5-.67-1.5-1.5.67-1.5 1.5-1.5z" fill="#fff" stroke="#020202" stroke-width="1.1"/></g></svg><svg width="54" height="54" viewBox="-22.5 13.5 54 54" id="cad-utility" y="1566"><path d="M27.117 57.322L19.83 49.99l-1.411-1.423s.533-2.322 0-2.86l-.89-.895s-.537-.546-1.166.077l-2.24 2.22-6.018-6.043 3.267-3.22c1.454.766 3.11 1.257 4.893 1.257 5.945.03 10.777-4.786 10.798-10.737 0-.951-.168-1.84-.398-2.73l-5.663 5.644-6.268-1.35-1.334-6.258 5.644-5.644c-.89-.246-1.81-.411-2.76-.411-5.952-.019-10.768 4.78-10.799 10.727 0 1.964.552 3.804 1.503 5.4l-3.16 3.098-9.786-9.847-2.147-3.574-2.853-2.872-5.522-3.049-.92.89-.911.89 3.018 5.552 2.853 2.868 3.571 2.148 9.786 9.856-3.144 3.123c-1.596-.926-3.424-1.503-5.4-1.51-5.95-.008-10.786 4.805-10.798 10.738 0 .951.153 1.859.38 2.746l5.676-5.645 6.258 1.371 1.32 6.258-5.685 5.645c.89.245 1.81.411 2.773.411 5.936.015 10.768-4.786 10.798-10.728 0-1.779-.46-3.436-1.227-4.917l3.267-3.237 6.013 6.053-2.255 2.24c-.613.613-.08 1.159-.08 1.159l.89.89c.534.536 2.832 0 2.832 0l1.441 1.441 7.292 7.332c.562.583 2.314.552 2.853 0l1.442-1.423 1.442-1.436c.53-.54.583-2.285 0-2.865h.012z" fill="#010101"/></svg><svg width="54" height="54" viewBox="-3 -3 54 54" id="cad-utility-annotation" y="1620"><title>023.Leader</title><title>Layer 1</title><g transform="matrix(.80866 0 0 .80866 -.247 -.274)" fill="none" stroke="#000" stroke-width="5" stroke-linecap="round"><path d="M55.926 17.661c0 5.669-4.596 10.266-10.266 10.266-5.668 0-10.266-4.596-10.266-10.266S39.992 7.396 45.66 7.396c5.67 0 10.266 4.595 10.266 10.265zM30.392 17.884h-8.783M12.16 35.821l9.448-17.937M18.26 41.256L4.074 52.604M4.074 34.636l14.186 6.62M4.074 52.604V34.636"/></g></svg><svg width="54" height="54" viewBox="67.87 67.87 54 54" id="cad-utility-quote" y="1674"><g transform="matrix(.30963 0 0 .30963 50.965 53.768)" stroke-miterlimit="10" stroke="#000" stroke-width="7"><path d="M177.851 145.802c-5.048-1.734-8.331-3.333-12.381-5.188v7.013h-47.474v-7.054c-1.449.785-7.333 3.453-12.386 5.186-5.403 1.862-10.304 3.13-13.48 3.585 3.176.457 8.077 1.727 13.48 3.583 5.053 1.735 8.335 3.335 12.386 5.188v-7.013h47.474v7.055c1.447-.785 7.333-3.452 12.381-5.187 5.405-1.86 10.304-3.131 13.483-3.585-3.18-.455-8.078-1.727-13.483-3.583zM73.702 101.779h3.359v61.907h-3.359zM206.403 101.779h3.359v61.907h-3.359z"/></g></svg><svg width="54" height="54" viewBox="232.13 322.13 54 54" id="cad-utility-ruler" y="1728"><title>086.Measure</title><g transform="matrix(.3614 0 0 .3614 148.543 241.347)" fill="none" stroke="#000" stroke-width="7" stroke-linecap="round" stroke-linejoin="round"><path d="M366.14 336.487v-26.979H245.861v26.979zM245.861 298.268v-38.22M366.14 298.268v-38.22"/><g transform="translate(0 -93.732)"><path d="M360.62 374.014l-7.626-9.921M352.994 383.935l7.626-9.921M352.994 364.093v19.842"/></g><path d="M351.623 280.282h-91.247"/><g transform="translate(0 -93.732)"><path d="M259.005 364.092v19.843M259.005 364.094l-7.625 9.92M259.005 383.934l-7.625-9.92"/></g><path d="M355.774 309.508l-.002 6.746M343.329 309.508v11.242M330.887 316.254v-6.746M318.443 309.508v11.242M306 309.508v6.746M293.557 309.508v11.242M281.115 309.508v6.746M268.672 309.508v11.242M256.23 309.508l-.003 6.746"/></g></svg><svg width="54" height="54" viewBox="-3 -3 54 54" id="cam-history" y="1782"><path d="M24 1C11.297 1 1 11.297 1 24s10.297 23 23 23 23-10.297 23-23S36.703 1 24 1zm0 39.312c-8.988 0-16.312-7.324-16.312-16.312 0-8.988 7.324-16.312 16.312-16.312 8.995 0 16.312 7.324 16.312 16.312 0 8.988-7.324 16.312-16.312 16.312zm1.996-19.206v-5.888c0-.92-.743-1.67-1.67-1.67-.928 0-1.674.742-1.674 1.67v6.687c0 .036.014.064.014.096 0 .113.035.212.07.318.026.106.047.213.093.308.046.092.106.166.163.248.07.095.141.19.226.272.021.018.035.046.06.071l8.362 6.688a1.65 1.65 0 0 0 1.043.368 1.678 1.678 0 0 0 1.05-2.983l-7.737-6.182z" fill="#010101"/></svg><svg width="54" height="54" viewBox="-3 -3 54 54" id="cam-material" y="1836"><path d="M-1 31h18v18H-1z" fill="none"/><g stroke-miterlimit="10" transform="matrix(3.16369 0 0 3.16369 -1.31 -1.32)" fill="none" stroke="#000" stroke-linecap="round" stroke-linejoin="round"><path d="M5.995 13.432L1.23 11.036V7.234L5.996 9.63l8.774-4.666v3.802z"/><path d="M5.995 9.63L1.23 7.234l8.858-4.666 4.68 2.396zM5.995 13.432V9.63"/></g></svg><svg width="54" height="54" viewBox="-3 -3 54 54" id="cam-milling" y="1890"><g transform="matrix(3.28571 0 0 3.28571 -2.286 -2.286)" fill="#010101"><path d="M5 1l.5 6.5H2.499L3 1z"/><path d="M1.5 8h4.444l4.277-4.279V8L14.5 3.721V15h-13V8zm6 2.562v2.001h2v-2.001h-2zm2.999 0v2.001h2.002v-2.001h-2.002z"/></g></svg><svg width="54" height="54" viewBox="-3 -3 54 54" id="cam-milling-carving" y="1944"><path d="M45.428 12.75c-2.738-5.474-10.616-7.878-16.09-6.542-5.475 1.335-10.883.8-15.023-5.208 0 0-1.669 4.006.935 8.012 0 0-3.338.268-5.007.066 0 0 .733 4.625 6.452 7.135-1.75-.09-3.521.135-5.317.876C4.9 19.76-1.108 24.633 1.964 35.383c0 0 2.203 7.477 11.15 6.343C22.06 40.59 24.53 42.594 25.931 47c0 0 3.339-3.872.468-7.745 0 0 1.402-.868 3.939-.734 0 0-6.276-6.743-12.619-5.942-6.342.801-11.283 3.07-12.485 1.068 0 0 4.607-5.608 16.09-1.602 11.484 4.005 20.43.667 22.834-3.873s4.006-9.948 1.269-15.422zm-12.524 0l4.67-4.67c.35.18.675.38.977.593l-4.241 4.241a10.418 10.418 0 0 0-1.406-.163zm-.552-.029c-.866 0-1.618.048-2.286.146l5.548-5.547a9.734 9.734 0 0 1 1.579.558l-4.841 4.841zm-2.974.269c-1.21.254-2.133.644-3 1.029l7.058-7.058c.61.046 1.183.132 1.722.249l-5.78 5.78zm3.164 1.092c5.074.734 6.41 4.74 6.41 4.74s-2.805 2.67-8.88 1.135c-2.617-.661-5.246-1.78-7.908-2.628 4.293-.323 6.344-3.831 10.378-3.247zm5.298.393l3.038-3.038c.219.482.377.984.474 1.497l-2.51 2.51a7.456 7.456 0 0 0-1.002-.97zm-.322-.246a7.492 7.492 0 0 0-1.069-.635l3.565-3.565c.26.326.486.67.677 1.027l-3.173 3.173zm3.908-.805a6.784 6.784 0 0 1-.019 1.656l-1.663 1.663a7.763 7.763 0 0 0-.648-.99l2.33-2.33zm-.147 2.35a7.264 7.264 0 0 1-.982 2.272s-.096-.376-.36-.93l1.342-1.342zm-1.525-6.051l-3.694 3.694a8.341 8.341 0 0 0-1.284-.42l4.098-4.098c.324.257.617.532.88.824zM32.9 6.928l-7.527 7.527c-.805.333-1.643.607-2.704.7l8.179-8.179c.721-.06 1.404-.074 2.052-.049zm-2.683.112l-8.146 8.145c-.602 0-1.274-.031-2.047-.149a29.13 29.13 0 0 1-.55-.09l7.408-7.408a29.091 29.091 0 0 0 1.971-.293c.468-.086.922-.152 1.364-.203zM16.798 8.74l1.967-1.968c.497.192 1.05.366 1.663.509l-2.594 2.594c-.229-.2-.612-.57-1.036-1.135zM15.294 5.84l.694-.694c.261.228.572.464.937.7L15.76 7.007a11.045 11.045 0 0 1-.467-1.17zm.655 1.548l1.327-1.327c.324.191.686.375 1.088.548l-1.803 1.803a9.835 9.835 0 0 1-.612-1.024zm4.945 0a16.1 16.1 0 0 0 1.73.242l-6.347 6.347c-.482-.22-.9-.461-1.263-.708l5.88-5.88zM15.691 4.88l-.533.533a12.57 12.57 0 0 1-.361-1.618s.255.47.894 1.085zm-3.163 5.475s.757.157 1.923.171l-1.131 1.13c-.4-.54-.625-1.013-.792-1.301zm1.042 1.618l1.453-1.453c.737-.029 1.59-.111 2.495-.323l-2.834 2.833a6.84 6.84 0 0 1-1.114-1.057zm3.1 2.174l6.482-6.482c.936.051 1.967.037 3.102-.063l-7.252 7.252a13.306 13.306 0 0 1-2.331-.707zM3.756 34.397c.29.304.583.558.88.767l-.39.39c-.352-.68-.49-1.158-.49-1.158zm3.614 4.575a8.133 8.133 0 0 1-.99-.714l2.42-2.42c.78-.162 1.586-.426 2.423-.718l-3.853 3.852zm4.726-4.159c.991-.348 2.025-.698 3.108-.937l-5.937 5.937a8.11 8.11 0 0 1-1.537-.634l4.366-4.366zm2.02 5.192l6.143-6.144c.62.14 1.21.325 1.768.536l-5.167 5.167c-.64.052-1.32.148-2.047.307-.238.051-.47.094-.698.132zm3.345-.475l4.971-4.971c.425.174.827.367 1.206.565l-4.474 4.473a11.24 11.24 0 0 0-1.703-.069zm7.756.423l-1.55 1.55a7.985 7.985 0 0 0-.822-.614l1.744-1.745c.246.263.453.534.628.81zm-2.724.72a8.28 8.28 0 0 0-1.202-.566l2.009-2.01c.385.24.717.495 1.006.765l-1.813 1.812zm.977-2.746l1.818-1.818c.402.274.746.528 1.023.747l-.55.55c-1.242-.029-1.968.318-2.291.521zm-2.6 2.034a9.135 9.135 0 0 0-1.212-.292l4.348-4.347c.337.185.652.376.941.562L20.87 39.96zm3.095 1.81l1.461-1.46c.228.43.384.864.487 1.283L24.806 42.7a8.142 8.142 0 0 0-.842-.928zm1.948 2.884s-.235-.724-.866-1.628l.963-.963c.235 1.438-.097 2.59-.097 2.59zm.385-7.22l.325-.325c.322.272.498.441.498.441a9.078 9.078 0 0 0-.823-.114zm-6.509-3.67L13.452 40.1c-.635.077-1.23.103-1.79.086l6.598-6.597c.523.03 1.034.083 1.528.175zm-2.085-.184l-6.578 6.578a8.804 8.804 0 0 1-1.412-.225l6.193-6.194c.457-.077.922-.128 1.397-.151h.4zm-9.585 2.375l-2.039 2.038a8.65 8.65 0 0 1-.79-.845l1.205-1.206a5.14 5.14 0 0 0 1.624 0zm-2.086-.117l-.992.991a9.239 9.239 0 0 1-.596-.907l.534-.534c.346.203.697.35 1.054.45zm16.854-4.914C9.47 26.288 2.91 32.898 2.91 32.898c-.345-1.776-.345-4.193-.345-4.193.098-4.538 5.82-14.501 22.491-8.78 16.672 5.722 19.73-5.326 19.73-5.326.543.887.888 4.241.888 4.241 1.776 9.273-9.372 16.721-22.788 12.085z"/></svg><svg width="54" height="54" viewBox="-3 -3 54 54" id="cam-milling-cut" y="1998"><g transform="translate(-.53 -.532) scale(3.06646)" fill="#010101"><path d="M8.584 10.348l3.31 2.817a2.543 2.543 0 0 0 3.585-.288l-4.933-4.199-1.962 1.67z"/><path d="M15.5 3.147a2.543 2.543 0 0 0-3.585-.287L7.813 6.352 6.119 4.91a2.854 2.854 0 0 0-.903-2.904 2.852 2.852 0 0 0-1.854-.682 2.86 2.86 0 1 0-.002 5.722c.371 0 .738-.081 1.084-.222l1.407 1.197-1.366 1.163a2.861 2.861 0 1 0 1.736 2.631c0-.238-.038-.468-.093-.688l9.372-7.98zM7.812 7.046a.954.954 0 1 1 0 1.908.954.954 0 0 1 0-1.908zM2.331 5.395a1.58 1.58 0 0 1-.554-1.082 1.588 1.588 0 0 1 3.169-.257 1.588 1.588 0 0 1-2.615 1.339zm1.03 8.009a1.59 1.59 0 0 1 0-3.179 1.59 1.59 0 0 1 0 3.179z"/></g></svg><svg width="54" height="54" viewBox="-3 -3 54 54" id="cam-milling-cut-corners" y="2052"><path d="M18.6 38.297c0-.353.165-.69.447-.905.282-.22.647-.3.99-.202l7.066 1.846v-9.688l-7.05 1.948c-.343.1-.711.03-1-.187a1.16 1.16 0 0 1-.45-.924V17.643c0-.359.165-.693.447-.908.283-.218.647-.291.99-.2l7.067 1.85v-9.71l-7.063 1.9a1.152 1.152 0 0 1-.994-.197 1.156 1.156 0 0 1-.45-.914V1.049H7.504C3.93 1.05 1 3.978 1 7.553V40.44c0 3.582 2.929 6.51 6.504 6.51H18.6v-8.653zM40.496 1.049h-19.6v6.918l7.057-1.895a1.148 1.148 0 0 1 1.444 1.107v12.687a1.15 1.15 0 0 1-1.435 1.113l-7.069-1.852v9.556l7.05-1.954a1.15 1.15 0 0 1 1.454 1.107v12.69c0 .353-.168.69-.447.905a1.12 1.12 0 0 1-.988.202l-7.069-1.846v7.164h19.603c3.578 0 6.504-2.929 6.504-6.51V7.552c0-3.575-2.926-6.504-6.504-6.504z" fill="#010101"/></svg><svg width="54" height="54" viewBox="-3 -3 54 54" id="cam-milling-cut-in" y="2106"><g transform="matrix(3.5053 0 0 3.5053 -.756 -119.5)" fill="#010101"><path d="M5.743 42.257h4.688l-.001-.001-1.669-1.67.468-.468 3.75-3.75.645-.675-1.318-1.317-.675.645-3.749 3.749-.469.469-1.67-1.669z"/><path d="M.501 34.376V47.5h13.123V40H11.75v5.626H2.376v-9.375H8v-1.875z"/></g></svg><svg width="54" height="54" viewBox="-3 -3 54 54" id="cam-milling-cut-out" y="2160"><g transform="matrix(3.28571 0 0 3.28571 -.643 -109.071)" fill="#010101"><path d="M14.499 38.187V33.5H9.812l.001.001 1.668 1.67-.467.468-3.75 3.75-.646.674 1.319 1.318.674-.645 3.749-3.749.469-.469z"/><path d="M8 34.376H.501V47.5h13.123V40H11.75v5.626H2.376v-9.375H8z"/></g></svg><svg width="54" height="54" viewBox="-3 -3 54 54" id="cam-milling-cut-start-point" y="2214"><g transform="matrix(3.06667 0 0 3.06667 -.533 -.533)" fill="#010101"><path d="M8 6.85a1.15 1.15 0 1 0-.001 2.299A1.15 1.15 0 0 0 8 6.85z"/><path d="M13.992 7.453a6.026 6.026 0 0 0-5.446-5.447V.5H7.453v1.506a6.03 6.03 0 0 0-5.448 5.447H.5v1.093h1.506a6.029 6.029 0 0 0 5.448 5.447V15.5h1.093v-1.507a6.028 6.028 0 0 0 5.446-5.447H15.5V7.453h-1.508zm-1.097 1.093a4.935 4.935 0 0 1-4.348 4.349v-1.971H7.453v1.971a4.934 4.934 0 0 1-4.349-4.349h1.971V7.453H3.104a4.936 4.936 0 0 1 4.349-4.349v1.971h1.093V3.104a4.935 4.935 0 0 1 4.348 4.349h-1.971v1.093h1.972z"/></g></svg><svg width="54" height="54" viewBox="-3 -3 54 54" id="cam-milling-deepen" y="2268"><path d="M-1 31h18v18H-1z" fill="none"/><path stroke="null" d="M24.002 19.504a4.491 4.491 0 0 0-4.495 4.494 4.493 4.493 0 0 0 4.495 4.495 4.491 4.491 0 0 0 4.494-4.495 4.493 4.493 0 0 0-4.494-4.494zm9.634-5.183a13.528 13.528 0 0 0-9.631-4.02v-.006.01c-3.766 0-7.17 1.538-9.634 4.02a13.685 13.685 0 0 0-3.98 9.673h-.01.01c0 3.78 1.522 7.203 3.98 9.677a13.522 13.522 0 0 0 9.63 4.02v.007-.013a13.53 13.53 0 0 0 9.632-4.014 13.706 13.706 0 0 0 3.986-9.68h.007v-.007h-.01c0-3.775-1.525-7.196-3.98-9.67zm-1.094 9.677c0 2.386-.956 4.54-2.504 6.102a8.476 8.476 0 0 1-6.03 2.521v-.01h-.006v.01a8.5 8.5 0 0 1-6.037-2.52 8.63 8.63 0 0 1-2.504-6.096h.01v-.007h-.003c0-2.382.955-4.537 2.504-6.095a8.48 8.48 0 0 1 6.03-2.524v.01-.01c2.352 0 4.48.965 6.03 2.524a8.623 8.623 0 0 1 2.51 6.095h-.01.007zm14.3 0c0-6.349-2.554-12.092-6.682-16.25-4.132-4.162-9.845-6.738-16.158-6.738V1v.01c-6.317 0-12.027 2.576-16.159 6.735a23.013 23.013 0 0 0-6.688 16.253h-.007.01a22.98 22.98 0 0 0 6.689 16.25c4.128 4.166 9.838 6.742 16.151 6.742V47v-.007c6.313 0 12.027-2.576 16.159-6.738a23.027 23.027 0 0 0 6.688-16.25h.007-.01zm-5.074 0c0 4.95-1.99 9.43-5.206 12.676-3.22 3.239-7.658 5.239-12.554 5.245v-.016h-.006v.013c-4.903 0-9.341-2.01-12.56-5.252a17.939 17.939 0 0 1-5.206-12.669h.006-.01c0-4.949 1.994-9.43 5.213-12.672 3.212-3.239 7.647-5.242 12.557-5.242v.01-.01c4.9 0 9.34 2.01 12.553 5.245a17.92 17.92 0 0 1 5.216 12.67h-.01.01z" fill="#231f20"/></svg><svg width="54" height="54" viewBox="-3 -3 54 54" id="cam-milling-drill" y="2322"><path d="M-1 31h18v18H-1z" fill="none"/><g stroke="null" transform="matrix(3.15068 0 0 3.15068 -1.205 -1.215)"><path d="M15.3 13.223c-.253.102-.507.203-.81.203-.61 0-1.015-.405-1.623-.405-.61 0-1.014.406-1.622.406-.61 0-1.014-.405-1.623-.405-.608 0-1.013.406-1.622.406-.608 0-1.014-.405-1.622-.405-.608 0-1.014.406-1.622.406-.608 0-1.014-.405-1.622-.405-.61 0-1.014.406-1.623.406-.303 0-.556-.1-.81-.202v1.217c.253.102.507.203.81.203.61 0 1.015-.405 1.623-.405.61 0 1.014.405 1.623.405s1.013-.405 1.622-.405c.608 0 1.014.405 1.622.405.608 0 1.014-.405 1.622-.405.608 0 1.014.405 1.622.405.61 0 1.014-.405 1.622-.405.61 0 1.014.405 1.623.405.303 0 .556-.1.81-.203v-1.217z"/><path d="M13.88 3.182L12.664 5.21l-1.42.608-.405 3.447-.204 2.028-2.636.81-2.636-.81-.61-3.853-1.012-.81L2.728 4.4.7 3.992v9.328c.253.103.507.204.81.204.61 0 1.015-.406 1.623-.406.61 0 1.014.406 1.623.406s1.013-.406 1.622-.406c.608 0 1.014.406 1.622.406.608 0 1.014-.406 1.622-.406.608 0 1.014.406 1.622.406.61 0 1.014-.406 1.622-.406.61 0 1.014.406 1.623.406.303 0 .556-.102.81-.203V3.183h-1.42z"/><path d="M9.733 6.41l.658-.623-.87-.314V4.51l.213.075.658-.623-.87-.314v-2.29H6.48V2.55l-.767-.276.104.9.662.24v.96L5.712 4.1l.104.9.662.238V6.2l-.767-.276.104.9.662.24v.965l-.767-.278.104.9.662.24v1.095L8 11.497l1.52-1.51.213.077.658-.624-.87-.314V8.16l.213.075.658-.623-.87-.314v-.964l.213.077zM7.087 1.966h1.826v1.463L7.088 2.77v-.805zm0 1.667l1.826.658v.963l-1.825-.658v-.963zM8 10.636l-.912-.9V9.11l1.8.65-.888.876zm.912-1.73L7.087 8.25v-.966l1.825.658v.967zm0-1.828L7.087 6.42v-.963l1.825.658v.963z"/></g></svg><svg width="54" height="54" viewBox="-3 -3 54 54" id="cam-milling-engrave" y="2376"><g transform="matrix(.5 0 0 .5 -1 -1.6)"><path d="M75 38.5c6.1 3.6 8.8 9.2 9.6 16.3 0 .4-.5.6-.8.4-2.6-1.9-4.3-4.9-6.8-6.9-2.4-2-4.8-4.6-8-5.1.9 4.7 1.3 9.6 1.2 14.4-.1 3.1-.7 5.9-1.9 8.6 7.5.6 13.9 1.5 18.6 2.7V27.3H13.1v44.4c3.7-2.8 15.4-5 30.2-5.7-.3-1.1-.5-2.2-.5-3.3-.1-3 .2-6.1.7-9.1-2 .3-3.5 1.9-5 3.2-1.5 1.3-2.6 3.2-4.2 4.4-.2.1-.5-.1-.5-.3.5-4.5 2.2-8 6-10.2-1.2-.7-2.4-.7-3.8-.6-.6 0-1.9.4-2.4 0-.2-.1-.2-.4 0-.5 3.3-1.8 7.1-2.6 10.6-1.2.4-.9.3-2.1.3-3 0-.2.2-.4.5-.3 1.3.6 2.1 2 2.3 3.4.5-.2 1.1-.3 1.7-.4 2.1-3.3 4.8-6.2 8.1-8.1-3.9-.3-7.3 1.2-10.4 3.7-.4.3-1 0-.8-.5 1.9-6.6 11-10.3 17.3-8.1.3-2.2 1.5-4.3 3.6-5.4.4-.2.7 0 .8.4.1 1.5 0 3.4.5 4.8 5.6-2.2 11.7-.9 17 1.9.2.1.2.3.2.4 0 .2-.1.4-.2.4-.9.6-2.9.1-3.9 0-2.3 0-4.3 0-6.2.9zm-23.9 13c3 1.7 5.3 4.8 6.6 8 .1.3-.3.5-.5.3-1.3-1.1-2.7-2.1-4.1-3.1-1.7-1.2-3.9-2.9-6.1-3.1h-.3c-.5 2.9-.4 6 .3 8.8.3 1.1.8 2.2 1.4 3.3 1.6 0 3.3-.1 5-.1 2.1 0 4.2 0 6.3.1 1.7-2.6 3.3-5.3 4.1-8.3 1.1-4.6 1.2-9.4.5-14.1-3.6 0-7.4 3-10.2 4.9-.2.1-.4.3-.6.4 2.2.9 4.2 2.6 4.8 4.8.1.3-.3.5-.5.3-2.1-1.4-4.3-2.4-6.7-2.2zM96 73.6v9.6H4v-64h92v54.4z"/><path d="M26.6 33.4c3.6 0 6.6 3 6.6 6.6 0 3.6-2.9 6.6-6.6 6.6-3.7 0-6.6-3-6.6-6.6 0-3.7 3-6.6 6.6-6.6z"/></g></svg><svg width="54" height="54" viewBox="-3 -3 54 54" id="cam-milling-halftone" y="2430"><g transform="matrix(.52636 0 0 .52636 17.045 -530.95)"><path d="M-2.542 1059.148c-4.865-3.952 3.366-10.003 5.36-6.366 3.805 4.638-3.4 9.942-5.36 6.366zM-5.225 1069.968c-4.423-3.802 3.195-9.312 5.073-5.885 3.585 4.311-3.215 9.274-5.073 5.885zM5.258 1067.418c-5.47-4.306 3.649-11.016 5.8-7.091 4.188 5.143-3.705 10.935-5.8 7.09zM2.864 1077.412c-4.198-3.67 3.084-8.951 4.914-5.62 3.439 4.133-3.096 8.93-4.914 5.62zM6.519 1082.505c2.982 3.415-2.71 7.502-4.3 4.603-3.287-3.214 2.703-7.516 4.3-4.603zM6.567 1092.066c1.346 2.377-1.941 5.26-3.248 2.89-2.16-2.09 1.998-5.168 3.248-2.89zM15.58 1088.357c1.851 2.547-2.096 5.498-3.402 3.134-2.187-2.407 2.129-5.472 3.402-3.134zM17.343 1095.356c.663 1.711-1.531 3.858-2.63 1.868-.45-1.565 1.45-4.008 2.63-1.868zM16.113 1078.634c3.16 3.572-2.811 7.841-4.446 4.858-3.505-3.343 2.796-7.866 4.446-4.858zM23.343 1083.734c2.176 2.872-2.305 6.217-3.712 3.651-2.611-2.633 2.31-6.21 3.712-3.65zM26.661 1090.806c1.847 2.549-2.1 5.52-3.407 3.153-2.206-2.408 2.134-5.49 3.407-3.153zM-3.874 1087.198c1.23 2.26-1.876 4.977-3.136 2.684-1.935-2.078 1.945-4.854 3.136-2.684zM-12.057 1080.048c2.145 2.853-2.303 6.193-3.704 3.64-2.626-2.632 2.308-6.187 3.704-3.64zM-18.802 1070.687c2.54 2.99-2.44 6.567-3.876 3.929-2.759-2.843 2.423-6.58 3.876-3.929zM-24.203 1063.08c1.218 2.24-1.853 4.943-3.109 2.665-1.92-2.06 1.932-4.813 3.11-2.666zM-14.111 1072.712c-3.186-3.1 2.619-7.271 4.18-4.423 2.867 3.286-2.617 7.258-4.18 4.423zM-6.362 1080.326c-3.306-3.22 2.7-7.516 4.299-4.604 2.982 3.413-2.704 7.507-4.299 4.604zM-12.142 1061.783c-3.531-3.356 2.816-7.88 4.452-4.877 3.158 3.58-2.815 7.864-4.452 4.877zM-20.231 1063.956c-2.505-2.57 2.27-6.014 3.627-3.519 2.078 2.785-2.265 6.022-3.627 3.52zM-26.49 1056.11c-2.186-2.394 2.12-5.473 3.399-3.14 1.84 2.54-2.102 5.494-3.4 3.14zM-27.2 1047.497c.98 1.983-1.725 4.342-2.862 2.255-1.535-1.93 1.787-4.217 2.862-2.255zM-18.756 1052.7c-2.63-2.628 2.304-6.198 3.704-3.644 2.14 2.847-2.292 6.204-3.704 3.644zM-20.992 1042.259c1.947 2.642-2.165 5.708-3.492 3.287-2.302-2.462 2.166-5.694 3.492-3.287zM-5.217 1045.184c3.37 4.029-3.042 8.704-4.813 5.474-4.07-3.581 3.023-8.74 4.813-5.474zM13.699 1074.675c-4.849-3.936 3.355-9.956 5.34-6.337 3.789 4.62-3.39 9.897-5.34 6.337zM22.367 1079.771c-3.518-3.35 2.8-7.887 4.453-4.872 3.178 3.587-2.829 7.853-4.453 4.872zM33.61 1081.915c3.008 3.432-2.713 7.545-4.304 4.643-3.328-3.226 2.702-7.567 4.304-4.643zM37.19 1089.615c.958 1.955-1.684 4.248-2.823 2.184-1.468-1.903 1.775-4.106 2.823-2.184zM-22.1 1027.257c-.763-.244 1.049-3.665 2.311-1.346.057 1.08-1.185 3.4-2.311 1.346zM-27.776 1038.362c-.469-1.583 1.47-4.03 2.636-1.888.662 1.713-1.54 3.888-2.636 1.888zM-12.199 1037.816c2.67 3.11-2.517 6.864-4.013 4.134-2.929-2.953 2.513-6.872 4.013-4.134zM-21.274 1034.72c-2.18-2.395 2.12-5.472 3.398-3.14 1.857 2.55-2.119 5.49-3.398 3.14zM-2.498 1035.123c2.987 3.416-2.71 7.513-4.295 4.621-3.31-3.216 2.705-7.522 4.295-4.62zM-.148 1048c-4.4-3.793 3.184-9.303 5.065-5.871 3.595 4.302-3.21 9.257-5.065 5.872zM13.119 1049.582c3.767 4.558-3.352 9.762-5.282 6.24-4.76-3.891 3.313-9.833 5.282-6.24zM21.642 1057.478c3.948 4.807-3.505 10.286-5.513 6.619-5.085-4.075 3.459-10.367 5.513-6.619zM30.054 1065.336c3.444 4.121-3.097 8.9-4.905 5.607-4.184-3.661 3.086-8.926 4.905-5.607zM37.563 1072.783c3.156 3.567-2.8 7.855-4.444 4.86-3.513-3.348 2.796-7.866 4.444-4.86zM42.987 1080.91c1.446 2.493-2.025 5.5-3.355 3.058-2.3-2.17 2.072-5.413 3.355-3.058zM51.24 1076.056c1.457 2.507-2.041 5.524-3.365 3.08-2.323-2.174 2.064-5.453 3.366-3.08zM42.871 1073.857c-2.932-2.952 2.505-6.859 4.002-4.124 2.671 3.109-2.508 6.85-4.002 4.124zM41.283 1062.305c3.22 3.638-2.882 7.95-4.507 4.945-3.578-3.39 2.83-8.001 4.507-4.945zM32.655 1054.814c3.577 4.306-3.23 9.214-5.056 5.844-4.387-3.788 3.183-9.264 5.056-5.844zM23.484 1047.138c3.933 4.786-3.51 10.188-5.475 6.558-5.024-4.047 3.444-10.267 5.475-6.558zM16.076 1037.75c1.72 3.151 2.002 3.864.118 6.97-.778 1.282-5.19 1.937-6.063.337-5.636-4.436 3.748-11.314 5.945-7.306zM6.574 1033.59c2.989 3.427-2.71 7.567-4.316 4.654-3.357-3.246 2.738-7.57 4.316-4.653zM-12.24 1031.88c-2.722-2.823 2.409-6.504 3.85-3.873 2.491 2.95-2.409 6.503-3.85 3.873zM-16.029 1024.584c-1.915-2.06 1.94-4.81 3.113-2.657 1.207 2.238-1.877 4.928-3.113 2.657zM2.77 1025.594c3.306 3.958-2.994 8.563-4.75 5.36-3.966-3.53 2.986-8.58 4.75-5.36zM9.37 1033.065c-4.92-3.993 3.398-10.117 5.412-6.442 3.87 4.718-3.464 10.038-5.412 6.442zM25.664 1038.556c3.16 3.78-2.898 8.213-4.597 5.114-3.785-3.402 2.88-8.245 4.597-5.114zM19.835 1034.325c-4.461-3.836 3.229-9.385 5.107-5.937 3.637 4.362-3.266 9.337-5.107 5.937zM34.294 1044.23c3.333 4.006-3.065 8.558-4.77 5.378-4-3.55 3.008-8.61 4.77-5.379zM38.486 1056.76c-4.242-3.701 3.117-8.999 4.939-5.652 3.465 4.172-3.132 8.97-4.939 5.653zM50.964 1059.126c2.674 3.116-2.511 6.865-4.008 4.135-2.943-2.962 2.519-6.867 4.008-4.135zM54.98 1066.607c1.835 2.54-2.104 5.483-3.391 3.135-2.182-2.393 2.123-5.462 3.391-3.135zM52.986 1047.103c3.33 4.006-3.053 8.599-4.778 5.4-4.022-3.557 3.01-8.626 4.778-5.4zM54.454 1057.483c-.861-.175 1.059-4.065 2.43-1.549.096 1.115-1.245 3.75-2.43 1.549zM50.306 1041.95c-3.022-3.01 2.549-7.029 4.073-4.248 2.782 3.205-2.596 7.008-4.073 4.248zM39.028 1045.915c-4.922-3.99 3.423-10.066 5.395-6.422 3.862 4.715-3.475 9.986-5.395 6.422zM29.832 1038.864c-3.802-3.416 2.915-8.234 4.605-5.113 3.174 3.809-2.934 8.2-4.605 5.113zM27.921 1028.622c-4.246-3.692 3.105-9.039 4.944-5.684 3.495 4.177-3.145 8.985-4.944 5.684zM38.623 1034.243c-3.317-3.229 2.716-7.544 4.305-4.628 3.017 3.43-2.716 7.527-4.305 4.628zM48.077 1034.032c-2.175-2.103 2.024-5.198 3.267-2.906 1.357 2.403-1.987 5.28-3.267 2.906zM44.758 1026.951c-.844-.175 1.06-4.032 2.41-1.521.091 1.11-1.223 3.702-2.41 1.521zM37.018 1024.432c-3.786-3.41 2.9-8.241 4.61-5.12 3.157 3.803-2.921 8.22-4.61 5.12zM26.949 1017.739c-3.162-3.095 2.629-7.218 4.158-4.39 2.86 3.277-2.623 7.208-4.158 4.39zM16.602 1024.323c-4.018-3.554 3.015-8.646 4.783-5.4 3.31 3.978-3.026 8.605-4.783 5.4zM17.53 1015.32c-2.66-2.781 2.378-6.393 3.802-3.796 2.457 2.911-2.401 6.382-3.801 3.796zM5.755 1023.25c-3.928-3.496 2.967-8.47 4.702-5.287 3.26 3.914-2.979 8.452-4.702 5.288zM-5.242 1022.907c-2.396-2.508 2.213-5.825 3.543-3.384 1.992 2.702-2.218 5.83-3.543 3.384zM-7.757 1016.434c-1.77-1.975 1.878-4.534 2.989-2.47 1.11 2.127-1.816 4.651-2.99 2.47zM1.489 1015.197c-2.309-2.472 2.192-5.694 3.494-3.289 1.955 2.662-2.207 5.698-3.494 3.29z"/></g></svg><svg width="54" height="54" viewBox="-3 -3 54 54" id="cam-milling-order" y="2484"><g transform="translate(16.813 1) scale(2.875)"><path d="M0 14h5v2H0zM0 10.5h5v2H0zM0 7h5v2H0zM0 3.5h5v2H0zM0 0h5v2H0z"/></g></svg><svg width="54" height="54" viewBox="-3 -3 54 54" id="cam-milling-trace" y="2538"><path d="M-1 31h18v18H-1z" fill="none"/><path stroke="null" d="M39.932 31.336V26.36h-7.104V12.07h-2.36v25.326a3.122 3.122 0 0 1-3.12 3.112H21.81a3.119 3.119 0 0 1-3.113-3.112V12.07h-2.39v25.326a3.117 3.117 0 0 1-3.112 3.112H7.677a3.121 3.121 0 0 1-3.116-3.112v-11.07H1V21.64h5.136a3.117 3.117 0 0 1 3.112 3.113v11.18h2.34V10.604A3.119 3.119 0 0 1 14.7 7.492h5.578a3.12 3.12 0 0 1 3.112 3.115v25.329h2.39V10.604a3.124 3.124 0 0 1 3.12-3.112h5.544c1.716 0 3.116 1.4 3.116 3.115V21.64h2.378v-5.298L47 23.988l-7.065 7.351z" clip-rule="evenodd" fill="#231f20" fill-rule="evenodd"/></svg><svg width="54" height="54" viewBox="-3 -3 54 54" id="cam-milling-type-cut" y="2592"><path fill="#53b9a1" d="M16.813 1h14.375v46H16.813z"/></svg><svg width="54" height="54" viewBox="-3 -3 54 54" id="cam-milling-type-deepen" y="2646"><path fill="#90afd5" d="M16.813 1h14.375v46H16.813z"/></svg><svg width="54" height="54" viewBox="-3 -3 54 54" id="cam-milling-type-drill" y="2700"><path fill="#da8de2" d="M16.813 1h14.375v46H16.813z"/></svg><svg width="54" height="54" viewBox="-3 -3 54 54" id="cam-milling-type-trace" y="2754"><path fill="#d3ce90" d="M16.813 1h14.375v46H16.813z"/></svg><svg width="54" height="54" viewBox="-3 -3 54 54" id="cam-router-assistant" y="2808"><path d="M-1 31h18v18H-1z" fill="none"/><path stroke="null" d="M19.136 44.44h1.036A2.821 2.821 0 0 0 22.976 47h2.048a2.822 2.822 0 0 0 2.807-2.56h1.036c1.505 0 2.74-1.116 2.81-2.605H16.323c.069 1.49 1.303 2.606 2.81 2.606zm-2.817-5.161h15.362v-2.562H16.319v2.562zM24 1C14.809 1 7.355 8.445 7.355 17.636c0 6.415 3.638 11.986 8.964 14.76v1.758h15.362v-1.758c5.326-2.774 8.964-8.345 8.964-14.766C40.645 8.457 33.191 1 24 1zm7.308 18.045l-7.494 7.49-7.492-7.49a1.245 1.245 0 0 1 0-1.753l.056-.056a1.243 1.243 0 0 1 1.756 0l5.677 5.677 5.683-5.677a1.24 1.24 0 0 1 1.752 0l.062.056c.481.48.481 1.272 0 1.753z"/></svg><svg width="54" height="54" viewBox="-3 -3 54 54" id="cam-router-calcule" y="2862"><path d="M-1 27h22v22H-1z" fill="none"/><g stroke="null" transform="translate(.274 .274) scale(2.3726)"><path d="M18.43.295H6.644C5.945.295 5.38.86 5.38 1.558V5.39H1.596c-.712 0-1.29.58-1.29 1.29v11.735c0 .712.578 1.29 1.29 1.29H13.33a1.29 1.29 0 0 0 1.29-1.29V14.61h3.81c.7 0 1.264-.566 1.264-1.264V1.558c0-.697-.566-1.263-1.263-1.263zM17.364 1.57l-3.838 3.837a1.251 1.251 0 0 0-.195-.016h-2.077l3.823-3.82h2.287zm-10.71 0h2.218L6.655 3.785V1.57zm4.176 0h2.287L9.295 5.39H7.007l3.822-3.82zM2.306 18.43H1.58v-4.284c.803.986 1.585 2.036.727 4.285zm2.387 0H3.388c.86-2.625-.253-3.99-1.085-5.01-.308-.378-.574-.704-.723-1.04V6.664h2.768c-.08.89-.323 1.436-.56 1.966-.258.58-.525 1.177-.525 2.097 0 1.18.68 1.972 1.28 2.67.426.496.83.964.952 1.518.21.94-.395 2.6-.8 3.516zm3.09 0h-1.98c.406-.99.94-2.597.686-3.737-.18-.803-.685-1.39-1.174-1.96-.555-.646-1.034-1.203-1.034-2.006 0-.703.193-1.134.437-1.68.267-.6.566-1.273.65-2.382h1.793c.128 1.638.733 2.576 1.19 3.282.28.435.485.75.485 1.077 0 .38-.138.78-.312 1.288-.317.923-.75 2.186-.75 4.36 0 .777.002 1.367.007 1.76zm5.562 0h-.963l.074-.027c-.58-1.533-.646-1.977-.646-4.323 0-.51.136-.867.413-1.094.302-.248.754-.316 1.124-.318v5.763zm0-6.78c-.523.002-1.223.103-1.765.544-.523.426-.79 1.06-.79 1.886 0 2.288.077 2.94.59 4.35H8.802a155 155 0 0 1-.007-1.758c0-2.004.385-3.127.695-4.03.197-.573.367-1.068.367-1.618 0-.627-.315-1.114-.65-1.63-.406-.63-.9-1.395-1.02-2.73h2.178c.194.992.843 2.915 2.98 3.85v1.136zm0-2.276c-1.278-.742-1.76-1.957-1.94-2.71h1.94v2.71zm5.074 3.96h-2.372l2.372-2.37v2.37zm0-4.33l-3.8 3.8v-2.287l3.8-3.8v2.288zm0-4.245l-3.8 3.798V6.68c0-.123-.018-.244-.05-.358l3.85-3.85v2.287z"/><path d="M6.47 9.658c-.04 0-.08.002-.12.008-.55.078-.906.652-.813 1.306.085.6.515 1.036 1.023 1.036.04 0 .08-.003.12-.008.55-.078.907-.652.814-1.306-.085-.6-.515-1.036-1.024-1.036z"/></g></svg><svg width="54" height="54" viewBox="-3 -3 54 54" id="cam-router-export" y="2916"><path d="M-1 27h27v22H-1z" fill="none"/><g stroke="null" transform="matrix(2.04195 0 0 2.04195 -1.524 3.58)"><path d="M22.904 4H2.096c-.203 0-.37.22-.37.485v11.03c0 .268.17.485.37.485h20.808c.2 0 .37-.22.37-.486V4.484c0-.26-.166-.484-.37-.484z" fill="#231f20"/><g fill="#fff"><path d="M18.32 13.338c-.532.405-1.208.605-2.027.605-1.01 0-1.844-.346-2.497-1.037-.65-.692-.978-1.64-.978-2.838 0-1.27.33-2.254.985-2.958.656-.702 1.517-1.053 2.587-1.053.93 0 1.69.275 2.272.83.35.327.608.794.782 1.402l-1.526.368c-.088-.4-.278-.712-.566-.938-.284-.23-.634-.34-1.042-.34-.566 0-1.024.2-1.377.61-.35.407-.527 1.062-.527 1.97 0 .966.173 1.65.52 2.062.347.405.797.614 1.352.614.41 0 .76-.124 1.058-.39.295-.26.507-.67.635-1.228l1.493.474c-.23.824-.61 1.444-1.143 1.846zM5.54 13.834h1.43v-4.97l3.078 4.97h1.544V6.208H10.16v5.095L7.034 6.208h-1.5v7.626z"/></g></g></svg><svg width="54" height="54" viewBox="-3 -3 54 54" id="cam-tool" y="2970"><path d="M39.36 1.382c-.513-.51-1.335-.51-1.792 0L2.015 36.987l-.613.613c-.307.307-.46.82-.307 1.22l1.534 5.724c.052.41.408.77.818.87l5.723 1.528c.098.058.2.058.3.058.36 0 .666-.156.92-.356l7.56-7.562 28.656-28.66c.258-.254.359-.56.359-.92 0-.355-.153-.662-.359-.92l-7.247-7.2zm-15.994 24.01c1.175.41 2.404.815 3.576 1.073L23.01 30.4c-1.073 1.073-2.962.509-5.771-.46-1.175-.411-2.402-.82-3.58-1.074l3.932-3.934c1.126-1.074 3.018-.51 5.775.46zm-7.253 11.905c-1.073 1.07-2.962.506-5.72-.46-1.174-.411-2.4-.82-3.575-1.077l3.931-3.931c1.074-1.074 2.963-.51 5.775.46 1.175.408 2.401.815 3.576 1.073l-3.987 3.935zm-6.998 6.995l-4.29-1.122-1.126-4.29.101-.099c1.077-1.08 2.966-.515 5.723.457 1.174.405 2.401.816 3.576 1.073l-3.984 3.981zm20.89-20.842c-1.067 1.074-2.962.51-5.771-.46-1.175-.408-2.401-.815-3.576-1.073L38.485 4.09l5.42 5.416-13.9 13.944z" fill="#010101"/></svg><svg width="54" height="54" viewBox="-3 -3 54 54" id="cam-tool-change" y="3024"><g transform="matrix(.22179 0 0 .23177 -7.254 -8.849)"><path d="M221.979 202.479c0 8.444-5 15.847-10.703 15.847H70.562c-5.702 0-10.703-7.402-10.703-15.847v-65.566h39.788l-20.715 20.714a3.02 3.02 0 0 0 2.134 5.153h22.471c.802 0 1.57-.318 2.136-.885l33.977-34.021a3.02 3.02 0 0 0 .001-4.266L105.675 89.56a3.016 3.016 0 0 0-2.138-.887H81.021a3.018 3.018 0 0 0-2.135 5.153l20.574 20.56H37.217v88.093c0 21.224 14.958 38.488 33.345 38.488h140.714c18.386 0 33.345-17.265 33.345-38.488h-22.642z"/><path d="M211.276 42.493H70.562c-18.387 0-33.345 17.264-33.345 38.488h22.642c0-8.443 5-15.846 10.703-15.846h140.714c5.701 0 10.703 7.403 10.703 15.846v66.195h-39.985l20.573-20.561a3.019 3.019 0 0 0-2.135-5.153h-22.517c-.802 0-1.569.318-2.137.888L141.8 156.4a3.021 3.021 0 0 0 0 4.266l33.979 34.02a3.023 3.023 0 0 0 2.136.887h22.471a3.017 3.017 0 0 0 2.789-1.863 3.013 3.013 0 0 0-.654-3.29l-20.715-20.716H244.62V80.98c.001-21.22-14.958-38.487-33.344-38.487z"/></g></svg><svg width="54" height="54" viewBox="-3 -3 54 54" id="cam-workflow" y="3078"><path d="M35.5 6.75h-5.75a5.75 5.75 0 1 0-11.5 0H12.5v5.75h23V6.75zM24 9.625a2.876 2.876 0 0 1 0-5.75 2.876 2.876 0 0 1 0 5.75zM38.375 6.75v8.625H9.625V6.75h-5.75V47h40.25V6.75h-5.75zM22.669 40.856l-2.037-2.03-8.132-8.133 4.064-4.064 6.099 6.098L34.26 21.128l4.075 4.061-15.673 15.673z" fill="#010101"/></svg><svg width="54" height="54" viewBox="-3 -3 54 54" id="controller-axis" y="3132"><path d="M-1 31h18v18H-1z" fill="none"/><path stroke="null" d="M1.303 36.419l4.534-4.534-.207 7.013 7.923-7.916V29.74h.035V10.037l-4.793 5.068V8.692l7.189-7.62 7.223 7.654v6.413l-4.817-5.102v19.71h19.653l-5.068-4.785h6.405L47 32.15l-7.644 7.216h-6.413l5.103-4.813H16.78L9.037 42.29 16 42.083l-4.534 4.541L1 46.928z"/></svg><svg width="54" height="54" viewBox="-3 -3 54 54" id="controller-axis-zero-define" y="3186"><path d="M-1 31h18v18H-1z" fill="none"/><g stroke="null" transform="matrix(3.1535 0 0 3.1535 -1.23 -1.23)" fill="#010101"><path d="M11.914 13.203l2.09 2.09 1.29-1.29-2.09-2.09 2.09-2.09h-5.47v5.47zM.707 14.004l1.29 1.29 2.09-2.09 2.09 2.09v-5.47H.707l2.09 2.09zM.707 6.177h5.47V.707l-2.09 2.09-2.07-2.07-1.29 1.29 2.07 2.07zM9.823 6.177h5.47l-2.09-2.09 2.072-2.07-1.29-1.29-2.07 2.07L9.822.707z"/></g></svg><svg width="54" height="54" viewBox="-3 -3 54 54" id="controller-axis-zero-return" y="3240"><path d="M-1 31h18v18H-1z" fill="none"/><g stroke="null" transform="translate(-3.594 -3.594) scale(3.44931)"><path d="M12.442 6.046h-2.268V1.61H5.63v4.436H3.55L8.034 10.5z"/><path d="M12.445 9.945v2.223h-8.89V9.945H1.332v4.445h13.336V9.945z"/></g></svg><svg width="54" height="54" viewBox="-3 -3 54 54" id="controller-command" y="3294"><g transform="matrix(3.53819 0 0 3.53819 -4.307 -4.307)" fill="#010101"><path d="M12.999 2.5H3A1.5 1.5 0 0 0 1.5 4v8.002A1.5 1.5 0 0 0 3 13.501h10c.828 0 1.501-.673 1.501-1.499V4a1.503 1.503 0 0 0-1.502-1.5zm.501 9.502a.503.503 0 0 1-.501.499H3a.503.503 0 0 1-.5-.499V5.001h11v7.001z"/><path d="M7.999 10a.501.501 0 0 1 0-1h2.5c.274 0 .501.226.501.499a.503.503 0 0 1-.502.501H7.999zM3.699 10h1.276l1.75-1.75-1.75-1.75H3.699L5.45 8.25z"/></g></svg><svg width="54" height="54" viewBox="-3 -3 54 54" id="controller-connection" y="3348"><path d="M-1 31h18v18H-1z" fill="none"/><g stroke="null" transform="matrix(3.4488 0 0 3.4488 -3.59 -3.587)"><path d="M12.928 1.33H3.072c-.96 0-1.74.782-1.74 1.742v9.856c0 .96.78 1.74 1.74 1.74h9.856c.96 0 1.74-.78 1.74-1.74V3.072c0-.96-.78-1.74-1.74-1.74zm0 12.596H3.072a1 1 0 0 1-.998-.998V3.072c0-.55.448-.997.998-.997h9.856c.55 0 .998.447.998.997v9.856a1 1 0 0 1-.998.998z"/><path d="M8 8.997a.91.91 0 0 0-.92.92v.547c0 .22.154.372.372.372h1.096c.218 0 .37-.153.37-.372v-.547A.908.908 0 0 0 8 8.997zM6.63 5.438h-.547a.355.355 0 0 0-.37.372v1.643c0 .218.152.37.37.37h.548c.22 0 .372-.152.372-.37V5.81a.354.354 0 0 0-.37-.372z"/><path d="M10.463 3.62a.526.526 0 0 0-.273-.098H5.81c-.08 0-.18.036-.27.097C3.306 5 2.973 6.955 2.973 8c0 1.045.333 3.002 2.563 4.38a.53.53 0 0 0 .273.098h4.38c.08 0 .18-.036.27-.096 2.233-1.38 2.566-3.338 2.566-4.382 0-1.044-.333-3-2.563-4.38zM12.283 8a4.246 4.246 0 0 1-2.2 3.735H5.917A4.246 4.246 0 0 1 3.717 8c0-1.563.842-2.992 2.2-3.735h4.167A4.248 4.248 0 0 1 12.284 8z"/><path d="M9.917 5.438H9.37a.355.355 0 0 0-.372.372v1.643c0 .218.152.37.37.37h.55c.217 0 .37-.152.37-.37V5.81a.355.355 0 0 0-.37-.372z"/></g></svg><svg width="54" height="54" viewBox="-3 -3 54 54" id="controller-connection-in" y="3402"><path d="M-1 31h18v18H-1z" fill="none"/><path stroke="null" d="M43.49 1l-7.188 7.189C31.492 5 24.953 5.523 20.716 9.76l-4.671 4.671 2.634 2.634-1.614 1.614-2.634-2.634-4.67 4.671C5.522 24.953 5 31.492 8.188 36.302L1 43.49 4.51 47l7.174-7.189C16.494 43 23.033 42.477 27.27 38.24l4.685-4.671-2.634-2.634 1.614-1.614 2.634 2.634 4.67-4.685c4.238-4.237 4.76-10.777 1.572-15.586L47 4.51 43.49 1zM21.013 19.396l7.591 7.591-1.617 1.614-7.591-7.592 1.617-1.61z"/></svg><svg width="54" height="54" viewBox="-3 -3 54 54" id="controller-connection-out" y="3456"><path d="M-1 31h18v18H-1z" fill="none"/><g stroke="null" transform="matrix(3.23807 0 0 3.23807 -1.905 -1.906)"><path d="M8.092 11.023l1.93-1.928a.422.422 0 0 0 0-.594.422.422 0 0 0-.594 0l-1.93 1.93L5.57 8.5 7.5 6.573a.42.42 0 0 0-.595-.593L4.977 7.907 4.31 7.24 3.12 8.427a3.147 3.147 0 0 0-.4 3.96L.897 14.214l.89.89 1.825-1.825a3.147 3.147 0 0 0 3.96-.4L8.76 11.69l-.668-.667zM11.69 8.76l1.188-1.187a3.147 3.147 0 0 0 .4-3.96l1.825-1.826-.89-.89-1.825 1.825a3.147 3.147 0 0 0-3.96.4L7.24 4.31l4.45 4.45z"/></g></svg><svg width="54" height="54" viewBox="-3 -3 54 54" id="controller-control" y="3510"><path d="M-1 31h18v18H-1z" fill="none"/><g transform="matrix(3.28571 0 0 3.28571 -2.282 -2.286)"><path d="M6.887 4.34h2.227L8 2.59zM8 13.408l1.114-1.75H6.887zM4.34 9.114V6.886L2.59 8zM11.66 9.114L13.407 8l-1.75-1.114z"/><path d="M13.728 5.296h-3.023V2.273c0-.7-.573-1.273-1.272-1.273H6.568c-.7 0-1.272.573-1.272 1.273v3.023H2.273c-.7 0-1.273.572-1.273 1.272V9.43c0 .7.573 1.273 1.273 1.273h3.023v3.023c0 .7.572 1.274 1.272 1.274H9.43c.7 0 1.273-.573 1.273-1.272v-3.023h3.023c.7 0 1.272-.573 1.272-1.272V6.568c.002-.7-.57-1.272-1.27-1.272zm.635 4.136a.637.637 0 0 1-.636.637h-3.66v3.658c0 .35-.284.636-.636.636H6.57a.637.637 0 0 1-.636-.636v-3.66h-3.66a.636.636 0 0 1-.636-.636V6.568c0-.35.286-.636.637-.636h3.66v-3.66c0-.35.284-.636.635-.636h2.86c.353 0 .638.286.638.637v3.66h3.66c.35 0 .635.284.635.635v2.864z"/></g></svg><svg width="54" height="54" viewBox="-20.5 15.5 54 54" id="controller-control-down" y="3564"><path d="M29.5 42.527l-8.153-8.153-9.074 9.073V19.502H.733v23.945l-9.08-9.08-8.153 8.156 23 22.975 23-22.971z" fill="#010101"/></svg><svg width="54" height="54" viewBox="-3 -3 54 54" id="controller-control-left" y="3618"><path d="M-1 31h18v18H-1z" fill="none"/><path stroke="null" d="M23.98 46.997l8.152-8.152-9.075-9.075H47V18.24H23.057l9.075-9.085-8.152-8.152L1 23.998l22.98 22.999z" fill="#010101"/></svg><svg width="54" height="54" viewBox="-3 -3 54 54" id="controller-control-move" y="3672"><g transform="matrix(3.53819 0 0 3.53819 -4.307 -4.307)" fill="#010101"><path d="M1.5 1.5h5.688v5.688H1.5zM8.813 1.5h5.688v5.688H8.813zM1.5 8.813h5.688v5.688H1.5zM8.813 8.813h5.688v5.688H8.813z"/></g></svg><svg width="54" height="54" viewBox="-3 -3 54 54" id="controller-control-pause" y="3726"><path d="M-1 31h18v18H-1z" fill="none"/><g stroke="null" transform="translate(-4.091 -4.09) scale(3.51118)"><path d="M1.45 1.45h4.913v13.1H1.45zM9.638 1.45h4.913v13.1H9.64z"/></g></svg><svg width="54" height="54" viewBox="-3 -3 54 54" id="controller-control-right" y="3780"><path d="M-1 31h18v18H-1z" fill="none"/><path stroke="null" d="M24.022 1.003l-8.146 8.152 9.073 9.072H1v11.54h23.949l-9.079 9.078 8.152 8.152L47 24 24.019 1.003z" fill="#010101"/></svg><svg width="54" height="54" viewBox="-3 -3 54 54" id="controller-control-start" y="3834"><path d="M-1 31h18v18H-1z" fill="none"/><path stroke="null" d="M6.752 1l34.496 23L6.752 47z" fill="#010101"/></svg><svg width="54" height="54" viewBox="-3 -3 54 54" id="controller-control-stop" y="3888"><path d="M-1 31h18v18H-1z" fill="none"/><path d="M2 1.697h44v44.606H2.004z" stroke="null" stroke-width="3.56275"/></svg><svg width="54" height="54" viewBox="-20.5 15.5 54 54" id="controller-control-up" y="3942"><path d="M-16.5 42.478l8.153 8.15 9.074-9.074V65.5h11.54V41.554l9.08 9.08 8.153-8.153L6.5 19.5l-23 22.981z" fill="#010101"/></svg><svg width="54" height="54" viewBox="-3 -3 54 54" id="controller-device" y="3996"><path fill="#010202" d="M47 24.747l-10.11-4.394v3.142H16.747l4.989-6.635h3.181c.54 1.634 2.048 2.819 3.857 2.819 2.266 0 4.096-1.834 4.096-4.071a4.082 4.082 0 0 0-4.096-4.085c-1.809 0-3.317 1.185-3.857 2.818h-4.449l-6.875 9.153H12.11a5.631 5.631 0 0 0-5.501-4.383C3.535 19.112 1 21.634 1 24.747a5.622 5.622 0 0 0 5.608 5.62 5.616 5.616 0 0 0 5.501-4.365h6.686l5.878 8.504h3.883v1.971h6.475v-6.445h-6.475v1.953h-2.535l-4.152-5.969H36.89v3.142L47 24.747z"/></svg><svg width="54" height="54" viewBox="-3 -3 54 54" id="controller-gcode" y="4050"><path d="M-1 31h18v18H-1z" fill="none"/><path d="M35.495 4.082H12.502L1 24l11.502 19.918h22.993L47 24 35.504 4.082zM23.906 33.584c-5.296 0-9.59-4.29-9.59-9.584 0-5.287 4.294-9.581 9.59-9.581 5.287 0 9.578 4.29 9.578 9.581 0 5.293-4.29 9.584-9.58 9.584z" stroke="null" stroke-width="3.07384"/></svg><svg width="54" height="54" viewBox="-3 -3 54 54" id="controller-probe-collect" y="4104"><g transform="matrix(3.06667 0 0 3.06667 -.535 -.533)" fill="#010101"><path d="M10.344 11.679l-.389.622c1.963.191 3.354.664 3.354 1.219 0 .725-2.373 1.31-5.298 1.31-2.927 0-5.299-.585-5.299-1.31 0-.551 1.37-1.02 3.309-1.215l-.391-.624c-2.352.293-4.016 1.006-4.016 1.839 0 1.094 2.859 1.98 6.387 1.98 3.529 0 6.386-.887 6.386-1.98 0-.838-1.676-1.551-4.043-1.841z"/><path d="M7.961.5c-2.419 0-4.38 2.066-4.38 4.615 0 1.094.363 2.024.961 2.894l3.405 5.43v.008l.003-.002.011.018.005-.045 3.337-5.323c.619-.871 1.037-1.842 1.037-2.979C12.34 2.566 10.379.5 7.961.5zM7.96 6.656a1.953 1.953 0 1 1 0-3.905 1.953 1.953 0 0 1 0 3.905z"/></g></svg><svg width="54" height="54" viewBox="-3 -3 54 54" id="controller-probe-mode-level" y="4158"><path d="M1.715 1C1.287 1 1 1.287 1 1.718v5.75c0 .432.287.719.715.719h5.753c.432 0 .719-.287.719-.719v-5.75C8.187 1.287 7.9 1 7.468 1H1.715zm12.94 0c-.435 0-.718.287-.718.718v5.75c0 .432.283.719.718.719h5.75c.432 0 .718-.287.718-.719v-5.75c0-.431-.286-.718-.718-.718h-5.75zm12.94 0c-.432 0-.718.287-.718.718v5.75c0 .432.286.719.718.719h5.75c.428 0 .718-.287.718-.719v-5.75c0-.431-.29-.718-.718-.718h-5.75zm12.937 0c-.428 0-.719.287-.719.718v5.75c0 .432.29.719.719.719h5.75c.428 0 .718-.287.718-.719v-5.75c0-.431-.29-.718-.718-.718h-5.75zM1.715 13.937c-.428 0-.715.286-.715.718v5.75c0 .432.287.718.715.718h5.753c.432 0 .719-.286.719-.718v-5.75c0-.432-.287-.718-.719-.718H1.715zm12.94 0c-.435 0-.718.286-.718.718v5.75c0 .432.283.718.718.718h5.75c.432 0 .718-.286.718-.718v-5.75c0-.432-.286-.718-.718-.718h-5.75zm12.94 0c-.432 0-.718.286-.718.718v5.75c0 .432.286.718.718.718h5.75c.428 0 .718-.286.718-.718v-5.75c0-.432-.29-.718-.718-.718h-5.75zm12.937 0c-.428 0-.719.286-.719.718v5.75c0 .432.29.718.719.718h5.75c.428 0 .718-.286.718-.718v-5.75c0-.432-.29-.718-.718-.718h-5.75zM1.715 26.877c-.428 0-.715.286-.715.718v5.75c0 .428.287.718.715.718h5.753c.432 0 .719-.29.719-.718v-5.75c0-.432-.287-.718-.719-.718H1.715zm12.94 0c-.435 0-.718.286-.718.718v5.75c0 .428.283.718.718.718h5.75c.432 0 .718-.29.718-.718v-5.75c0-.432-.286-.718-.718-.718h-5.75zm12.94 0c-.432 0-.718.286-.718.718v5.75c0 .428.286.718.718.718h5.75c.428 0 .718-.29.718-.718v-5.75c0-.432-.29-.718-.718-.718h-5.75zm12.937 0c-.428 0-.719.286-.719.718v5.75c0 .428.29.718.719.718h5.75c.428 0 .718-.29.718-.718v-5.75c0-.432-.29-.718-.718-.718h-5.75zM1.715 39.81c-.428 0-.715.294-.715.722v5.746c0 .435.287.722.715.722h5.753c.432 0 .719-.287.719-.722v-5.746c0-.428-.287-.722-.719-.722H1.715zm12.94 0c-.435 0-.718.294-.718.722v5.746c0 .435.283.722.718.722h5.75c.432 0 .718-.287.718-.722v-5.746c0-.428-.286-.722-.718-.722h-5.75zm12.94 0c-.432 0-.718.294-.718.722v5.746c0 .435.286.722.718.722h5.75c.428 0 .718-.287.718-.722v-5.746c0-.428-.29-.722-.718-.722h-5.75zm12.937 0c-.428 0-.719.294-.719.722v5.746c0 .435.29.722.719.722h5.75c.428 0 .718-.287.718-.722v-5.746c0-.428-.29-.722-.718-.722h-5.75z" fill="#010101"/></svg><svg width="54" height="54" viewBox="-3 -3 54 54" id="controller-probe-start" y="4212"><g transform="matrix(3.06667 0 0 3.06667 -.533 -.533)" fill="#010101"><path d="M12.059 3.542l.363-.543.274.179a.37.37 0 0 0 .516-.111.375.375 0 0 0-.11-.516l-1.168-.755a.375.375 0 0 0-.407.627l.267.171-.353.528a6.632 6.632 0 0 0-2.697-.917V1.61c0-.052-.006-.106-.015-.162h.117c.391 0 .708-.565.739-.948H6.412c.031.383.349.948.74.948h.116a.921.921 0 0 0-.015.162v.595a6.669 6.669 0 1 0 4.806 1.337zm-4.06 10.465a5.183 5.183 0 0 1-5.176-5.176 5.184 5.184 0 0 1 5.176-5.177 5.183 5.183 0 0 1 5.175 5.177 5.183 5.183 0 0 1-5.175 5.176z"/><path d="M7.939 4.925c-.322.003-.58.224-.578.495l-.357 4.364c.003.268.679.48 1.001.476.322-.005.993-.23.989-.502l-.466-4.353c-.003-.269-.267-.485-.589-.48z"/></g></svg><svg width="54" height="54" viewBox="-3 -3 54 54" id="controller-probe-stop" y="4266"><g transform="matrix(3.06667 0 0 3.06667 -.533 -.533)"><g fill="#010101"><path d="M12.059 3.542l.363-.543.274.179a.37.37 0 0 0 .516-.111.375.375 0 0 0-.11-.516l-1.168-.755a.375.375 0 0 0-.407.627l.267.171-.353.528a6.632 6.632 0 0 0-2.697-.917V1.61c0-.052-.006-.106-.015-.162h.117c.391 0 .708-.565.739-.948H6.412c.031.383.349.948.74.948h.116a.921.921 0 0 0-.015.162v.595a6.669 6.669 0 1 0 4.806 1.337zm-4.06 10.465a5.183 5.183 0 0 1-5.176-5.176 5.184 5.184 0 0 1 5.176-5.177 5.183 5.183 0 0 1 5.175 5.177 5.183 5.183 0 0 1-5.175 5.176z"/><path d="M7.939 4.925c-.322.003-.58.224-.578.495l-.357 4.364c.003.268.679.48 1.001.476.322-.005.993-.23.989-.502l-.466-4.353c-.003-.269-.267-.485-.589-.48z"/></g><path d="M14.669 11.129c0-.55-.45-1-1-1h-3.371c-.55 0-1 .45-1 1V14.5c0 .55.45 1 1 1h3.371c.55 0 1-.45 1-1v-3.371z" fill="#010101"/></g></svg><svg width="54" height="54" viewBox="-3 -3 54 54" id="global-button-add" y="4320"><path d="M-1 31h18v18H-1z" fill="none"/><path d="M47 18.25H29.75V1h-11.5v17.25H1v11.5h17.25V47h11.5V29.75H47z" fill="#010101"/></svg><svg width="54" height="54" viewBox="-3 -3 54 54" id="global-button-cancel" y="4374"><path fill="#010202" d="M47 10.857L37.148 1 24 14.148 10.857 1 1 10.852 14.148 24 1 37.143 10.857 47l13.147-13.148L37.148 47 47 37.143 33.857 24z"/></svg><svg viewBox="-3 -3 54 54" width="54" height="54" id="global-button-down" y="4428"><path stroke="#000" stroke-width="2.5277073999999997" d="M24 30.604l18.807-17.986 2.405 2.514L24 35.42 2.788 15.132l2.405-2.514z"/></svg><svg width="54" height="54" viewBox="629 389 54 54" id="global-button-edit" y="4482"><title>pencil</title><path d="M675.63 396.37a11.459 11.459 0 0 0-8.13-3.37 11.459 11.459 0 0 0-8.13 3.37l-26.324 26.323L633 439h16.261l26.37-26.37c4.492-4.492 4.492-11.768 0-16.26zm-28.75 36.88h-.06c2.246-2.246 2.246-5.93 0-8.177-2.155-2.15-5.548-2.177-7.81-.21l24.377-24.373 8.13 8.13-24.637 24.63z" fill="#010101"/></svg><svg width="54" height="54" viewBox="-3 -3 54 54" id="global-button-ok" y="4536"><path stroke="null" d="M45.271 8.04a5.9 5.9 0 0 0-8.34 0L17.536 27.434l-6.451-6.444a5.894 5.894 0 0 0-4.176-1.73 5.905 5.905 0 0 0-4.172 10.088l10.616 10.62.011-.01a5.894 5.894 0 0 0 8.34 0l23.567-23.57a5.894 5.894 0 0 0 0-8.341z"/></svg><svg width="54" height="54" viewBox="-3 -3 54 54" id="global-button-ok-white" y="4590"><path stroke="null" d="M45.271 8.04a5.9 5.9 0 0 0-8.34 0L17.536 27.434l-6.451-6.444a5.894 5.894 0 0 0-4.176-1.73 5.905 5.905 0 0 0-4.172 10.088l10.616 10.62.011-.01a5.894 5.894 0 0 0 8.34 0l23.567-23.57a5.894 5.894 0 0 0 0-8.341z" fill="#fff"/></svg><svg width="54" height="54" viewBox="-3 -3 54 54" id="global-button-refresh" y="4644"><g transform="translate(-4.308 -4.308) scale(3.53846)" fill="#010101"><path d="M8 3.84a4.15 4.15 0 0 1 3.32 1.651L9.873 6.96h4.535v-4.6l-1.435 1.456A6.483 6.483 0 0 0 8 1.5a6.502 6.502 0 0 0-6.416 5.46h2.388A4.161 4.161 0 0 1 8 3.84zM8 12.16a4.154 4.154 0 0 1-3.271-1.59l1.528-1.531h-4.67v4.677l1.481-1.483a6.5 6.5 0 0 0 11.348-3.194h-2.387A4.162 4.162 0 0 1 8 12.16z"/></g></svg><svg width="54" height="54" viewBox="-3 -3 54 54" id="global-button-remove" y="4698"><path d="M-1 31h4.165v4.165H-1z" fill="none"/><g transform="matrix(3.83238 0 0 3.83238 -6.659 -6.665)" fill="#010101"><path d="M13.248 4.25h-2.624V3.5c0-1.5-.75-1.5-1.5-1.5h-2.25s-1.5.75-1.5 1.5v.75H2.75a.377.377 0 0 0-.375.375v.75c0 .206.168.375.375.375h10.498c.208 0 .377-.17.377-.375v-.75a.377.377 0 0 0-.377-.375zM6.875 3.5h2.25v.75h-2.25V3.5zM10.624 6.565v5.56a.376.376 0 0 1-.751.002v-5.56c0-.024.01-.044.014-.066H8.36c.005.022.014.04.014.065v5.56a.375.375 0 0 1-.751.002v-5.56c0-.024.01-.044.013-.066H6.11c.005.022.014.04.014.065v5.56c0 .208-.17.376-.375.376a.377.377 0 0 1-.376-.374v-5.56c0-.024.01-.044.013-.066H3.875v7.125c0 .208.17.375.375.375h7.5c.207 0 .374-.17.374-.375V6.5h-1.512c.003.022.012.042.012.065z"/></g></svg><svg width="54" height="54" viewBox="-3 -3 54 54" id="global-button-save" y="4752"><g transform="matrix(4.06612 0 0 4.06612 -8.452 -8.3)" fill="#010202"><path d="M11.793 2.287h-1.141V5.43H4.681V2.287h-2.2V13.6h11V4.289l-1.688-2.002zm-.197 9.429H4.052V7.001h7.543v4.715z"/><path d="M5.625 2.287H9.71v2.201H5.625z"/></g></svg><svg viewBox="-3 -3 54 54" width="54" height="54" id="global-button-search" y="4806"><path d="M20.08 1.002C9.586 1.002 1 9.568 1 20.062c0 10.494 8.586 19.08 19.08 19.08 4.034 0 7.77-1.292 10.851-3.438l10.315 10.295a3.347 3.347 0 0 0 4.77 0 3.359 3.359 0 0 0 0-4.75L35.701 30.934c2.167-3.1 3.439-6.837 3.439-10.872 0-10.494-8.586-19.06-19.06-19.06zm0 6.718a12.287 12.287 0 0 1 12.322 12.342A12.287 12.287 0 0 1 20.08 32.405 12.29 12.29 0 0 1 7.738 20.062 12.29 12.29 0 0 1 20.08 7.72z"/></svg><svg width="54" height="54" viewBox="-3 -3 54 54" id="global-button-setting" y="4860"><path d="M47 28.223v-8.446h-7.592a15.802 15.802 0 0 0-1.522-3.691l5.364-5.364-5.972-5.972-5.367 5.364a15.95 15.95 0 0 0-3.688-1.525V1h-8.446v7.59c-1.302.356-2.542.869-3.692 1.524L10.721 4.75 4.75 10.722l5.364 5.364a15.894 15.894 0 0 0-1.524 3.691H1v8.446h7.59c.356 1.305.869 2.542 1.524 3.691L4.75 37.278l5.972 5.97 5.364-5.362a15.927 15.927 0 0 0 3.692 1.525V47h8.445v-7.59a15.987 15.987 0 0 0 3.692-1.524l5.365 5.362 5.972-5.97-5.365-5.364a15.774 15.774 0 0 0 1.522-3.691H47zm-23 4.13A8.352 8.352 0 0 1 15.647 24 8.354 8.354 0 1 1 24 32.353z"/></svg><svg width="54" height="54" viewBox="1 1 54 54" id="global-file" y="4914"><path d="M-1 23h18v18H-1V23z" fill="none"/><g transform="matrix(2.0909 0 0 2.0909 -5.455 -5.455)"><path d="M7.033 27H22.31V7.741H7.033V27zm1.33-17.931h12.616v16.602H8.363V9.069z"/><path d="M11.932 6.33h11.706v10.067h1.329V5H11.932v1.33zM15.335 10.608H9.691v5.644h5.644v-5.644zm-1.327 4.317h-2.986v-2.987h2.986v2.987z"/><path d="M16.583 10.608h3.153v1.33h-3.153v-1.33zM16.583 12.766h3.153v1.33h-3.153v-1.33zM16.583 15.09h3.153v1.328h-3.153V15.09zM9.608 17.869h10.128v1.326H9.608v-1.326zM9.608 20.31h10.128v1.329H9.608V20.31zM9.608 22.602h10.128v1.329H9.608v-1.329z"/></g></svg><svg width="54" height="54" viewBox="-3 -3 54 54" id="global-file-export" y="4968"><g transform="translate(104 -156.934)"><path d="M-57 180.961v10.222c0 7.156-5.622 12.778-12.778 12.778h-20.444c-7.156 0-12.778-5.622-12.778-12.778V170.74c0-7.156 5.622-12.778 12.778-12.778H-80v6.645h-10.222c-3.578 0-6.133 2.555-6.133 6.133v20.445c0 3.577 2.555 6.133 6.133 6.133h20.445c3.577 0 6.133-2.556 6.133-6.133V180.96z"/><path d="M-57.01 174.578l-5.134-5.133-16.119 16.061-6.346-6.347 16.058-16.122-5.13-5.13h16.672v16.671z"/></g></svg><svg width="54" height="54" viewBox="232.13 322.13 54 54" id="global-file-import" y="5022"><path d="M254.534 337.062l5.135 5.133 16.118-16.061 6.347 6.347-16.058 16.122 5.13 5.131h-16.672v-16.672zm27.6 12.072v10.222c0 7.156-5.622 12.778-12.778 12.778h-20.444c-7.156 0-12.778-5.622-12.778-12.778v-20.444c0-7.156 5.622-12.778 12.778-12.778h10.222v6.645h-10.222c-3.578 0-6.133 2.555-6.133 6.133v20.445c0 3.577 2.555 6.133 6.133 6.133h20.445c3.577 0 6.133-2.556 6.133-6.133v-10.223h6.644z"/></svg><svg width="54" height="54" viewBox="5 5 54 54" id="global-file-new" y="5076"><path d="M53.56 40.625h-5.747v-5.75H42.06v5.75h-5.747v5.75h5.748v5.748h5.753v-5.747h5.748zm-20.12 8.622H16.187V14.75h16.06l1.193 1.194v7.43h7.43l1.19 1.192V32h5.753v-9.815L34.63 9H10.44v46h28.746v-5.753h-2.873z" fill="#010101"/></svg><svg width="54" height="54" viewBox="5 5 54 54" id="global-file-open" y="5130"><path d="M9 24.813l5.75 25.874h34.5L55 24.813zm43.125-5.75H26.25l-5.75-5.75h-8.625v8.625h40.25z" fill="#010101"/></svg><svg viewBox="-3 -3 54 54" width="54" height="54" id="global-social-facebook" y="5184"><g transform="matrix(.41 0 0 .41 1 1)"><circle cx="56.098" cy="56.098" r="56.098" fill="#3b5998"/><path d="M70.201 58.294h-10.01v36.672H45.025V58.294h-7.213V45.406h7.213v-8.34c0-5.964 2.833-15.303 15.301-15.303l11.234.047v12.51h-8.151c-1.337 0-3.217.668-3.217 3.513v7.585h11.334l-1.325 12.876z" fill="#fff"/></g></svg><svg viewBox="-3 -3 54 54" width="54" height="54" id="global-social-instagram" y="5238"><defs><radialGradient cx="19.111" cy="128.444" gradientUnits="userSpaceOnUse" id="dta" r="163.552"><stop offset="0" stop-color="#ffb140"/><stop offset=".256" stop-color="#ff5445"/><stop offset=".599" stop-color="#fc2b82"/><stop offset="1" stop-color="#8e40b7"/></radialGradient></defs><g clip-rule="evenodd" transform="translate(2 2) scale(.34375)"><path fill="none" d="M0 0h128v128H0z"/><path d="M105.843 29.837a7.68 7.68 0 1 1-15.36 0 7.68 7.68 0 0 1 15.36 0zM64 85.333c-11.782 0-21.333-9.551-21.333-21.333 0-11.782 9.551-21.333 21.333-21.333 11.782 0 21.333 9.551 21.333 21.333 0 11.782-9.551 21.333-21.333 21.333zm0-54.198c-18.151 0-32.865 14.714-32.865 32.865 0 18.151 14.714 32.865 32.865 32.865 18.151 0 32.865-14.714 32.865-32.865 0-18.151-14.714-32.865-32.865-32.865zm0-19.603c17.089 0 19.113.065 25.861.373 6.24.285 9.629 1.327 11.884 2.204 2.987 1.161 5.119 2.548 7.359 4.788 2.24 2.239 3.627 4.371 4.788 7.359.876 2.255 1.919 5.644 2.204 11.884.308 6.749.373 8.773.373 25.862s-.065 19.113-.373 25.861c-.285 6.24-1.327 9.629-2.204 11.884-1.161 2.987-2.548 5.119-4.788 7.359-2.239 2.24-4.371 3.627-7.359 4.788-2.255.876-5.644 1.919-11.884 2.204-6.748.308-8.772.373-25.861.373-17.09 0-19.114-.065-25.862-.373-6.24-.285-9.629-1.327-11.884-2.204-2.987-1.161-5.119-2.548-7.359-4.788-2.239-2.239-3.627-4.371-4.788-7.359-.876-2.255-1.919-5.644-2.204-11.884-.308-6.749-.373-8.773-.373-25.861 0-17.089.065-19.113.373-25.862.285-6.24 1.327-9.629 2.204-11.884 1.161-2.987 2.548-5.119 4.788-7.359 2.239-2.24 4.371-3.627 7.359-4.788 2.255-.876 5.644-1.919 11.884-2.204 6.749-.308 8.773-.373 25.862-.373zM64 0C46.619 0 44.439.074 37.613.385 30.801.696 26.148 1.778 22.078 3.36c-4.209 1.635-7.778 3.824-11.336 7.382C7.184 14.3 4.995 17.869 3.36 22.078 1.778 26.149.696 30.801.385 37.613.074 44.439 0 46.619 0 64s.074 19.561.385 26.387c.311 6.812 1.393 11.464 2.975 15.535 1.635 4.209 3.824 7.778 7.382 11.336 3.558 3.558 7.127 5.746 11.336 7.382 4.071 1.582 8.723 2.664 15.535 2.975 6.826.311 9.006.385 26.387.385s19.561-.074 26.387-.385c6.812-.311 11.464-1.393 15.535-2.975 4.209-1.636 7.778-3.824 11.336-7.382 3.558-3.558 5.746-7.127 7.382-11.336 1.582-4.071 2.664-8.723 2.975-15.535.311-6.826.385-9.006.385-26.387s-.074-19.561-.385-26.387c-.311-6.812-1.393-11.464-2.975-15.535-1.636-4.209-3.824-7.778-7.382-11.336-3.558-3.558-7.127-5.746-11.336-7.382C101.851 1.778 97.199.696 90.387.385 83.561.074 81.381 0 64 0z" fill="url(#dta)" fill-rule="evenodd"/></g></svg><svg viewBox="-3 -3 54 54" width="54" height="54" id="global-social-pinterest" y="5292"><g transform="matrix(.1579 0 0 .1579 1 1)"><path d="M145.659 0c80.45 0 145.66 65.219 145.66 145.66 0 80.45-65.21 145.659-145.66 145.659S0 226.109 0 145.66C0 65.219 65.21 0 145.659 0z" fill="#c8232c"/><path d="M150.066 63.781c-51.327 0-77.19 35.632-77.19 65.337 0 17.989 7.028 33.993 22.122 39.956 2.467.974 4.698.036 5.408-2.613l2.203-8.403c.728-2.613.446-3.541-1.548-5.826-4.361-4.962-7.128-11.398-7.128-20.511 0-26.428 20.42-50.089 53.175-50.089 29.014 0 44.945 17.161 44.945 40.075 0 30.152-13.783 55.606-34.248 55.606-11.289 0-19.755-9.04-17.042-20.156 3.241-13.237 9.541-27.539 9.541-37.107 0-8.548-4.743-15.704-14.575-15.704-11.553 0-20.829 11.571-20.829 27.074 0 9.878 3.45 16.551 3.45 16.551l-13.901 56.998c-4.124 16.906-.61 37.644-.319 39.738.182 1.238 1.821 1.529 2.567.601 1.065-1.347 14.821-17.798 19.5-34.239 1.329-4.652 7.602-28.75 7.602-28.75 3.751 6.946 14.721 13.046 26.383 13.046 34.712 0 58.273-30.652 58.273-71.674-.011-31.015-27.14-59.91-68.389-59.91z" fill="#fff"/></g></svg><svg viewBox="-3 -3 54 54" width="54" height="54" id="global-social-youtube" y="5346"><g transform="translate(1 42.341) scale(.09706)"><circle r="236.966" cy="-188.965" cx="236.966" fill="#d42428"/><path d="M404.518-356.551c92.541 92.549 92.549 242.593 0 335.142-92.541 92.541-242.593 92.545-335.142 0l335.142-335.142z" fill="#cc202d"/><path d="M469.168-141.505L351.886-258.783l-138.322 15.749-83.669 129.532L286.237 42.836c91.92-19.445 164.185-92.155 182.931-184.341z" fill="#ba202e"/><path d="M360.971-234.693c0-19.865-16.093-35.966-35.947-35.966H156.372c-19.85 0-35.94 16.105-35.94 35.966v96.444c0 19.865 16.093 35.966 35.94 35.966h168.649c19.858 0 35.947-16.105 35.947-35.966v-96.444h.003zM216.64-145.785v-90.584l68.695 45.294-68.695 45.29z" fill="#fff"/></g></svg><svg viewBox="-3 -3 54 54" width="54" height="54" id="global-user" y="5400"><g transform="matrix(.6396 0 0 .6396 -7.98 -9.272)"><path d="M49.999 50.06c8.56 0 15.421-9.707 15.421-18.35s-6.94-15.65-15.5-15.65c-8.56 0-15.5 7.007-15.5 15.65.001 8.643 7.019 18.35 15.579 18.35zM55.737 56.979H44.21c-12.266 0-22.21 9.93-22.21 22.18l.053 2.623a6.201 6.201 0 0 0 6.206 6.197h43.536a6.202 6.202 0 0 0 6.206-6.197l-.053-2.623c-.001-12.25-9.944-22.18-22.211-22.18z"/></g></svg><svg viewBox="-3 -3 54 54" width="54" height="54" id="global-user-add" y="5454"><g transform="matrix(.60526 0 0 .60526 -6.263 -7.485)"><path d="M86 47h-7v-7a2 2 0 0 0-2-2h-2a2 2 0 0 0-2 2v7h-7a2 2 0 0 0-2 2v2a2 2 0 0 0 2 2h7v7a2 2 0 0 0 2 2h2a2 2 0 0 0 2-2v-7h7a2 2 0 0 0 2-2v-2a2 2 0 0 0-2-2zM39.999 50.06c8.56 0 15.421-9.707 15.421-18.35s-6.94-15.65-15.5-15.65c-8.56 0-15.5 7.007-15.5 15.65.001 8.643 7.019 18.35 15.579 18.35zM45.737 56.979H34.21c-12.266 0-22.21 9.93-22.21 22.18l.053 2.623a6.201 6.201 0 0 0 6.206 6.197h43.536a6.202 6.202 0 0 0 6.206-6.197l-.053-2.623c-.001-12.25-9.944-22.18-22.211-22.18z"/></g></svg><svg viewBox="-3 -3 54 54" width="54" height="54" id="global-user-group" y="5508"><g transform="matrix(.60397 0 0 .60397 -6.15 -7.418)"><path d="M34.419 47.42c2.786 0 5.34-1.288 7.406-3.267-2.167-3.868-3.404-8.244-3.404-12.443 0-3.561.863-6.92 2.382-9.886A12.332 12.332 0 0 0 34.355 20c-6.904 0-12.5 5.651-12.5 12.621 0 6.971 5.66 14.799 12.564 14.799zM42.827 53.407A17.98 17.98 0 0 0 39.046 53H29.75c-9.892 0-17.912 8.008-17.912 17.887l.042 2.115A5.002 5.002 0 0 0 16.885 78h9.166c.45-10.991 7.217-20.361 16.776-24.593zM59.999 50.06c8.56 0 15.421-9.707 15.421-18.35s-6.94-15.65-15.5-15.65c-8.56 0-15.5 7.007-15.5 15.65.001 8.643 7.019 18.35 15.579 18.35z"/><path d="M87.947 79.159c0-12.25-9.944-22.18-22.21-22.18H54.21c-12.266 0-22.21 9.93-22.21 22.18l.053 2.623a6.201 6.201 0 0 0 6.206 6.197h43.536a6.202 6.202 0 0 0 6.206-6.197l-.054-2.623z"/></g></svg><svg viewBox="-3 -3 54 54" width="54" height="54" id="global-user-incognito" y="5562"><g transform="translate(-6.272 -6.265) scale(.60543)"><path d="M77.947 79.159c0-12.25-9.944-22.18-22.21-22.18H44.21c-12.266 0-22.21 9.93-22.21 22.18l.053 2.623a6.201 6.201 0 0 0 6.206 6.197h43.536a6.202 6.202 0 0 0 6.206-6.197l-.054-2.623zM70 23h-6v-6.999a4 4 0 0 0-4.566-3.96l-8.922 2.308a3.967 3.967 0 0 1-1.136-.001l-8.806-2.301A4 4 0 0 0 36 16.006V23h-6a2 2 0 0 0-2 2v.84a2 2 0 0 0 2 2h4.918a15.773 15.773 0 0 0-.497 3.87c0 8.643 7.018 18.35 15.579 18.35 8.56 0 15.421-9.707 15.421-18.35 0-1.338-.184-2.63-.497-3.87H70a2 2 0 0 0 2-2V25a2 2 0 0 0-2-2zM47 35h-7v-5h7v5zm13 0h-7v-5h7v5z"/></g></svg><svg viewBox="-3 -3 54 54" width="54" height="54" id="global-user-less" y="5616"><g transform="matrix(.60526 0 0 .60526 -6.263 -7.485)"><path d="M64 49v2a2 2 0 0 0 2 2h20a2 2 0 0 0 2-2v-2a2 2 0 0 0-2-2H66a2 2 0 0 0-2 2zM39.999 50.06c8.56 0 15.421-9.707 15.421-18.35s-6.94-15.65-15.5-15.65c-8.56 0-15.5 7.007-15.5 15.65.001 8.643 7.019 18.35 15.579 18.35zM45.737 56.979H34.21c-12.266 0-22.21 9.93-22.21 22.18l.053 2.623a6.201 6.201 0 0 0 6.206 6.197h43.536a6.202 6.202 0 0 0 6.206-6.197l-.053-2.623c-.001-12.25-9.944-22.18-22.211-22.18z"/></g></svg><svg viewBox="-3 -3 54 54" width="54" height="54" id="global-user-location" y="5670"><g transform="matrix(.63889 0 0 .63889 -6.667 -9.235)"><path d="M39.999 50.06c8.56 0 15.421-9.707 15.421-18.35s-6.94-15.65-15.5-15.65c-8.56 0-15.5 7.007-15.5 15.65.001 8.643 7.019 18.35 15.579 18.35zM45.737 56.979H34.21c-12.266 0-22.21 9.93-22.21 22.18l.053 2.623a6.201 6.201 0 0 0 6.206 6.197h43.536a6.202 6.202 0 0 0 6.206-6.197l-.053-2.623c-.001-12.25-9.944-22.18-22.211-22.18zM76 38a8 8 0 0 0-8 8c0 3.112 3.969 9.779 6.316 13.448a1.997 1.997 0 0 0 3.368 0C80.031 55.779 84 49.112 84 46a8 8 0 0 0-8-8zm0 11a4 4 0 1 1 0-8 4 4 0 0 1 0 8z"/></g></svg><svg viewBox="-3 -3 54 54" width="54" height="54" id="global-user-lock" y="5724"><g transform="matrix(.63889 0 0 .63889 -6.667 -9.235)"><path d="M39.999 50.06c8.56 0 15.421-9.707 15.421-18.35s-6.94-15.65-15.5-15.65c-8.56 0-15.5 7.007-15.5 15.65.001 8.643 7.019 18.35 15.579 18.35zM45.737 56.979H34.21c-12.266 0-22.21 9.93-22.21 22.18l.053 2.623a6.201 6.201 0 0 0 6.206 6.197h43.536a6.202 6.202 0 0 0 6.206-6.197l-.053-2.623c-.001-12.25-9.944-22.18-22.211-22.18zM82 49.017V43c0-2.75-2.25-5-5-5h-2c-2.75 0-5 2.25-5 5v6.017c-1.118.087-2 .974-2 2.068v8.829c0 1.152.974 2.086 2.175 2.086h11.65C83.026 62 84 61.066 84 59.915v-8.829c0-1.095-.882-1.982-2-2.069zm-4.939 7.976c0 .55-.45 1-1 1s-1-.45-1-1v-3c0-.55.45-1 1-1s1 .45 1 1v3zM79 49h-6v-6c0-1.084.916-2 2-2h2c1.084 0 2 .916 2 2v6z"/></g></svg><svg viewBox="-3 -3 54 54" width="54" height="54" id="global-user-unlock" y="5778"><g transform="matrix(.63889 0 0 .63889 -6.667 -9.235)"><path d="M39.999 50.06c8.56 0 15.421-9.707 15.421-18.35s-6.94-15.65-15.5-15.65c-8.56 0-15.5 7.007-15.5 15.65.001 8.643 7.019 18.35 15.579 18.35zM45.737 56.979H34.21c-12.266 0-22.21 9.93-22.21 22.18l.053 2.623a6.201 6.201 0 0 0 6.206 6.197h43.536a6.202 6.202 0 0 0 6.206-6.197l-.053-2.623c-.001-12.25-9.944-22.18-22.211-22.18zM82 49.017V43c0-2.75-2.25-5-5-5h-2c-2.75 0-5 2.25-5 5v.5a1.5 1.5 0 0 0 3 0V43c0-1.1.9-2 2-2h2c1.1 0 2 .9 2 2v6h-8.825C68.974 49 68 49.934 68 51.085v8.829c0 1.152.974 2.086 2.175 2.086h11.65C83.026 62 84 61.066 84 59.915v-8.829c0-1.095-.882-1.982-2-2.069zm-4.939 7.976c0 .55-.45 1-1 1s-1-.45-1-1v-3c0-.55.45-1 1-1s1 .45 1 1v3z"/></g></svg><svg width="54" height="54" viewBox="-3 -3 54 54" id="global-view-home" y="5832"><path d="M-1 31h18v18H-1z" fill="none"/><path d="M38.72 19.696V8.82h-6.44v4.304L24 4.68 1 28.14h5.52v15.18h14.26V30.9h6.44v12.42h14.26V28.14H47z"/></svg><svg width="54" height="54" viewBox="280.32 370.32 54 54" id="global-view-move" y="5886"><title>16</title><path stroke-miterlimit="10" d="M329.532 397.334l-6.687 6.686-2.122-2.12 3.078-3.076h-14.98v14.97l3.068-3.07 2.121 2.123-6.686 6.685-6.688-6.687 2.12-2.122 3.068 3.07v-14.97h-14.978l3.077 3.078-2.12 2.12-6.689-6.687 6.689-6.688 2.12 2.12-3.06 3.06h14.961v-14.971l-3.067 3.069-2.121-2.121 6.688-6.689 6.688 6.689-2.121 2.12-3.068-3.068v14.97h14.96l-3.058-3.06 2.122-2.12 6.685 6.69z" stroke="#000" stroke-width="1.11922"/></svg><svg width="54" height="54" viewBox="274.65 364.65 54 54" id="global-view-zoom-minus" y="5940"><g transform="translate(40.3 53.43) scale(.8541)"><path d="M332.001 416.945l-13.524-13.465a21.672 21.672 0 0 0 4.069-12.687 21.683 21.683 0 0 0-21.723-21.723 21.683 21.683 0 0 0-21.723 21.723 21.683 21.683 0 0 0 21.723 21.723c4.668 0 9.036-1.496 12.567-4.01l13.524 13.524c1.196 1.197 3.231 1.197 4.428 0l.658-.658c1.198-1.195 1.198-3.171.001-4.427zm-31.178-10.892c-8.438 0-15.26-6.822-15.26-15.26 0-8.438 6.822-15.26 15.26-15.26 8.438 0 15.26 6.822 15.26 15.26 0 8.438-6.821 15.26-15.26 15.26z"/><path d="M293.583 388.04a2.682 2.682 0 0 0-2.693 2.693 2.682 2.682 0 0 0 2.693 2.693h14.481a2.681 2.681 0 0 0 2.692-2.693 2.681 2.681 0 0 0-2.692-2.693h-14.481z"/></g></svg><svg width="54" height="54" viewBox="274.65 364.65 54 54" id="global-view-zoom-more" y="5994"><g transform="translate(40.3 53.43) scale(.8541)"><path d="M332.001 416.945l-13.524-13.465a21.672 21.672 0 0 0 4.069-12.687 21.683 21.683 0 0 0-21.723-21.723 21.683 21.683 0 0 0-21.723 21.723 21.683 21.683 0 0 0 21.723 21.723c4.668 0 9.036-1.496 12.567-4.01l13.524 13.524c1.196 1.197 3.231 1.197 4.428 0l.658-.658c1.198-1.195 1.198-3.171.001-4.427zm-31.178-10.892c-8.438 0-15.26-6.822-15.26-15.26 0-8.438 6.822-15.26 15.26-15.26 8.438 0 15.26 6.822 15.26 15.26 0 8.438-6.821 15.26-15.26 15.26z"/><path d="M308.005 388.04h-4.548v-4.548a2.682 2.682 0 0 0-2.693-2.693 2.681 2.681 0 0 0-2.692 2.693v4.548h-4.488a2.682 2.682 0 0 0-2.693 2.693 2.682 2.682 0 0 0 2.693 2.693h4.548v4.548a2.682 2.682 0 0 0 2.692 2.693 2.681 2.681 0 0 0 2.693-2.693v-4.548h4.548a2.681 2.681 0 0 0 2.692-2.693c0-1.495-1.256-2.693-2.752-2.693z"/></g></svg><svg width="54" height="54" viewBox="-3 -3 54 54" id="global-window-close" y="6048"><circle cx="24" cy="24" r="23" fill="#f16055"/></svg><svg width="54" height="54" viewBox="-3 -3 54 54" id="global-window-maximize" y="6102"><circle cx="24" cy="24" r="23" fill="#47b649"/></svg><svg width="54" height="54" viewBox="-3 -3 54 54" id="global-window-minimize" y="6156"><circle cx="24" cy="24" r="23" fill="#febe11"/></svg><svg width="54" height="54" viewBox="-14.5 -14.5 54 54" id="site-learning-group" y="6210"><g fill="#010101"><path d="M25.1 22.594H36c0-5.217-4.069-9.965-9.128-9.965a8.622 8.622 0 0 0-5.686 2.14c2.086 1.984 3.497 4.696 3.914 7.825z"/><circle cx="26.872" cy="7.309" r="4.851"/><path d="M3.867 14.821c-1.564-1.409-3.548-2.293-5.739-2.293-5.008 0-9.128 4.797-9.128 10.014H-.098a13.014 13.014 0 0 1 3.965-7.721z"/><circle cx="-1.872" cy="7.309" r="4.851"/><circle cx="12.528" cy="5.796" r="6.102"/><path d="M.999 25.306c0-6.988 5.165-12.677 11.474-12.677 6.314 0 11.479 5.688 11.479 12.677H.999z"/></g></svg><svg width="54" height="54" viewBox="-3 -3 54 54" id="site-learning-video" y="6264"><path fill="#010101" d="M42.693 5.262H5.309C4.489 5.262 4 5.75 4 6.571v27.493c0 .818.817 1.31 1.637 1.31h23.254l-.081-1.864H6.174V12.965h35.373v20.544h-1.43a1.688 1.688 0 0 1-.798.933l-1.663.902.017.031h5.019c.815 0 1.309-.49 1.309-1.31V6.571c.001-.821-.492-1.309-1.308-1.309zm-30.568.846c.522 0 .943.421.943.941 0 .521-.422.948-.943.948s-.945-.426-.945-.948a.944.944 0 0 1 .945-.941zm-2.576 0c.521 0 .944.421.944.941a.947.947 0 0 1-.944.948.952.952 0 0 1-.949-.948c0-.52.429-.941.949-.941zm-3.524.941a.947.947 0 0 1 1.892 0c0 .521-.427.948-.949.948s-.943-.424-.943-.948zm35.518 4.404H6.174V9.184h35.373v2.269h-.004zm-3.7 26.795l1.594 2.966a.487.487 0 0 1-.197.659l-1.498.804a.476.476 0 0 1-.233.062.492.492 0 0 1-.43-.256L34.8 38.246l-1.15-2.13-2.744 1.481a.497.497 0 0 1-.472-.008.487.487 0 0 1-.245-.402l-.423-9.883a.497.497 0 0 1 .248-.443.416.416 0 0 1 .23-.075c.102 0 .196.037.282.1l8.262 5.652c.141.1.219.26.212.43a.478.478 0 0 1-.255.402l-2.738 1.476 1.836 3.402zm-9.205-15.225l-8.088 4.602c-.621.354-1.129.06-1.129-.656v-9.177c0-.715.509-1.009 1.129-.657l8.088 4.604c.62.353.62.931 0 1.284z"/></svg><svg viewBox="-3 -3 54 54" width="54" height="54" id="site-shop-bag" y="6318"><path d="M41.226 12.54c-.385-.385-.817-.577-1.346-.577h-6.967v-1.394c0-4.853-3.94-8.841-8.89-8.841-4.853 0-8.842 3.94-8.842 8.841v1.394H8.118c-.529 0-.961.192-1.346.577-.336.336-.528.864-.48 1.393l1.922 25.083c.288 4.037 3.7 7.256 7.784 7.256h15.81c4.036 0 7.496-3.171 7.784-7.208l2.114-25.227c.048-.433-.144-.961-.48-1.297zM17.728 10.52c0-3.507 2.835-6.246 6.295-6.246S30.27 7.11 30.27 10.52v1.394H17.728V10.52zm19.317 28.351c-.192 2.74-2.499 4.805-5.238 4.805H15.998c-2.739 0-5.045-2.162-5.237-4.853L8.983 14.51h6.198v4.084c0 .72.577 1.298 1.298 1.298.72 0 1.297-.577 1.297-1.298V14.51h12.59v4.084c0 .72.576 1.298 1.297 1.298s1.298-.577 1.298-1.298V14.51h6.198l-2.114 24.362z" stroke="#000" stroke-width="2"/></svg><svg viewBox="-3 -3 54 54" width="54" height="54" id="site-shop-favorite" y="6372"><g transform="translate(5.743 1) scale(.7022)" fill="#000" fill-rule="evenodd"><path d="M6.494 4h39.012A2.494 2.494 0 0 1 48 6.502V60.21c0 1.62-.125 1.68-1.377.658L27.265 45.06a2 2 0 0 0-2.53 0L5.377 60.867C4.117 61.895 4 61.84 4 60.209V6.502C4 5.122 5.12 4 6.494 4zM0 60.209c0 5.004 4.035 6.918 7.907 3.756l18.142-14.734 18.044 14.734C47.956 67.12 52 65.204 52 60.21V6.502A6.494 6.494 0 0 0 45.506 0H6.494C2.91 0 0 2.913 0 6.502V60.21z"/><path d="M20.218 33.973l.277-5.433a2 2 0 0 0-.441-1.359L16.7 22.946l5.183-1.397a2 2 0 0 0 1.155-.84l2.981-4.513 2.94 4.514a2 2 0 0 0 1.156.84l5.225 1.427-3.395 4.204a2 2 0 0 0-.441 1.359l.356 5.448-5.147-1.968a2 2 0 0 0-1.428 0l-5.068 1.953zM33.22 38.79a2 2 0 0 0 2.712-1.97l-.384-7.733 4.846-6.002a2 2 0 0 0-1.035-3.188l-7.471-2.02-4.213-6.469a2 2 0 0 0-3.352 0l-4.192 6.47-7.492 2.02a2 2 0 0 0-1.035 3.187l4.858 5.982-.396 7.753a2 2 0 0 0 2.712 1.97L26 36.012l7.221 2.778z"/></g></svg><svg viewBox="-3 -3 54 54" width="54" height="54" id="site-shop-order-failure" y="6426"><title>196 - To Do List Warning (interaction, communication, interface)</title><g transform="translate(2.917 2.917) scale(1.91667)" fill="none" fill-rule="evenodd"><path stroke="#ca534d" stroke-width="2" stroke-linecap="round" stroke-linejoin="round" d="M22 22H8l7-13zM15 15v1"/><path d="M16 19a1 1 0 1 0-2 0 1 1 0 0 0 2 0" fill="#ca534d"/><path stroke="#ca534d" stroke-width="2" stroke-linecap="round" stroke-linejoin="round" d="M8 15l-2.171 3.371L3.999 17M8 9l-2.171 3.371L3.999 11"/><path d="M11 5h6" fill="#ca534d" stroke="#ca534d" stroke-width="2" stroke-linecap="round" stroke-linejoin="round"/><path stroke="#ca534d" stroke-width="2" stroke-linecap="round" stroke-linejoin="round" d="M8 3L5.829 6.371 3.999 5"/><path d="M21 13V3.004A3.004 3.004 0 0 0 17.996 0H3.004A3.004 3.004 0 0 0 0 3.004V19a3 3 0 0 0 3 3h1" stroke="#ca534d" stroke-width="2" stroke-linecap="round" stroke-linejoin="round"/></g></svg><svg viewBox="-3 -3 54 54" width="54" height="54" id="site-shop-order-success" y="6480"><title>197 - Success To Do List (interaction, communication, interface)</title><g transform="matrix(1.91667 0 0 1.91667 2.917 2.917)" stroke="#5d8a4a" stroke-width="2" fill="none" fill-rule="evenodd"><path stroke-linecap="round" stroke-linejoin="round" d="M8 15l-2.171 3.371L3.999 17M8 9l-2.171 3.371L3.999 11M11 5h6M8 3L5.829 6.371 3.999 5"/><path d="M12 17a5 5 0 0 1 5-5c1.643 0 3.089.803 4 2.027V3.004A3.004 3.004 0 0 0 17.996 0H3.004A3.004 3.004 0 0 0 0 3.004V19a3 3 0 0 0 3 3h14a5 5 0 0 1-5-5z" stroke-linecap="round" stroke-linejoin="round"/><path d="M22 17a5 5 0 1 1-10.001-.001 5 5 0 0 1 10 .001z"/><path stroke-linecap="round" stroke-linejoin="round" d="M15.25 17.359l1.5 1.5 2-3"/></g></svg><svg width="54" height="54" viewBox="-3 -3 54 54" id="site-start-up" y="6534"><path d="M12.094 10.834a5.223 5.223 0 0 0 0 7.412 5.22 5.22 0 0 0 7.414 0 5.22 5.22 0 0 0 0-7.412 5.329 5.329 0 0 0-7.414 0zm5.9 5.953a3.104 3.104 0 0 1-4.438 0 3.102 3.102 0 0 1 0-4.437c1.246-1.245 3.192-1.192 4.438 0 1.244 1.19 1.244 3.192 0 4.437zm13.53-1.624a22.15 22.15 0 0 0-1.46-1.784c-3.52-4.063-7.634-6.929-12.288-8.5-3.896-1.3-7.306-1.459-9.525-1.35a3.607 3.607 0 0 0-2.437 1.082 3.751 3.751 0 0 0-1.082 2.435c-.107 2.167 0 5.63 1.354 9.525 1.568 4.656 4.437 8.769 8.496 12.288.379.324.76.648 1.139.918l.053.056c.217.163.38.323.595.435.596 3.246 2.003 7.685 5.413 10.982.541.545 1.246.761 2.002.597.486-.052.918-.324 1.244-.649.162-.16.323-.375.435-.598l2.921-5.844c.761-.106 1.409-.27 2.003-.432l9.851 9.85c.436.435 1.081.435 1.52 0a1.045 1.045 0 0 0 0-1.513l-9.368-9.364c.599-.378.923-.758 1.137-.978l.057-.051.053-.056c.218-.218.649-.647 1.137-1.353l5.739 5.735c.435.437 1.085.437 1.516 0a1.05 1.05 0 0 0 0-1.515l-6.226-6.223c.162-.541.271-1.083.382-1.732l5.846-2.92c.215-.112.43-.274.593-.435.325-.325.595-.759.651-1.244a2.438 2.438 0 0 0-.595-2.005c-3.526-3.353-7.909-4.761-11.156-5.357zm9.526 7.091c0 .055-.054.108-.104.16l-6.389 3.195c-.11.054-.217.107-.273.215-.163.163-.27.434-.324.706-.106 2.651-1.515 4.006-1.783 4.274-.058.056-.11.11-.11.11-.052.053-.108.053-.108.104-.269.274-1.622 1.68-4.274 1.789-.271 0-.541.108-.705.325-.052.054-.162.16-.214.269l-3.194 6.39c-.057.052-.11.105-.163.105-.057 0-.11 0-.163-.054-2.438-2.383-3.736-5.359-4.439-8.009 1.03.54 2.112 1.082 3.032 1.353a1.038 1.038 0 0 0 1.299-.759c.162-.541-.163-1.135-.756-1.299-1.625-.435-4.384-2.219-5.358-2.924-.378-.27-.704-.594-1.083-.918-8.5-7.306-9.365-15.697-9.148-20.08 0-.435.215-.813.485-1.085.272-.27.651-.43 1.083-.485 4.331-.217 12.721.651 20.081 9.145.596.651 1.138 1.356 1.626 2.005.161.216.432.379.648.434 2.977.486 7.145 1.73 10.232 4.925.102.001.102.055.102.109z"/></svg></svg>