<?xml version="1.0" encoding="UTF-8" standalone="no"?><svg width="130" height="910" viewBox="0 0 130 910" xmlns="http://www.w3.org/2000/svg" xmlns:xlink="http://www.w3.org/1999/xlink"><svg width="130" height="130" viewBox="-3 -3 130 130" id="automatus"><g transform="matrix(1.35556 0 0 1.35556 -5.778 -5.78)" fill="#f16260"><path d="M88.024 59.455c-.712 0-1.399.108-2.047.308l-2.436-3.746a6.94 6.94 0 0 0 1.723-4.575c0-3.784-3.03-6.867-6.791-6.966a21.144 21.144 0 0 0-12.92-11.752c-.375-3.186-2.698-5.777-5.743-6.559V23c2.519-.811 4.348-3.176 4.348-5.961a6.27 6.27 0 0 0-6.263-6.263 6.27 6.27 0 0 0-6.263 6.263c0 2.785 1.829 5.15 4.348 5.961v3.165a7.726 7.726 0 0 0-5.742 6.557A21.15 21.15 0 0 0 37.307 44.48c-3.691.175-6.643 3.225-6.643 6.959 0 1.069.249 2.078.68 2.985l-3.953 3.479a6.929 6.929 0 0 0-7.025-.31l-3.17-3.429a7.366 7.366 0 0 0 1.035-3.768 7.374 7.374 0 0 0-2.174-5.249 1.915 1.915 0 0 0-2.708 2.708 3.569 3.569 0 0 1 1.052 2.54c0 .959-.374 1.861-1.052 2.54a3.596 3.596 0 0 1-5.08 0 1.914 1.914 0 1 0-2.708 2.708 7.398 7.398 0 0 0 5.248 2.171 7.424 7.424 0 0 0 3.653-.966l3.14 3.397a6.921 6.921 0 0 0-.961 3.516 6.983 6.983 0 0 0 6.976 6.976 6.983 6.983 0 0 0 6.976-6.976 6.928 6.928 0 0 0-.677-2.978l3.956-3.481a6.95 6.95 0 0 0 1.707.803v11.364c0 2.326 1.33 5.556 7.665 7.739 3.894 1.342 9.096 2.08 14.646 2.08 10.292 0 22.311-2.571 22.311-9.819V58.144c.044-.013.089-.021.133-.034l2.436 3.747a6.94 6.94 0 0 0-1.722 4.574 6.977 6.977 0 0 0 3.564 6.078l-.951 3.359a7.375 7.375 0 0 0-3.768 1.142 7.372 7.372 0 0 0-3.271 4.645 1.916 1.916 0 0 0 3.737.839 3.569 3.569 0 0 1 1.583-2.248 3.573 3.573 0 0 1 2.708-.47 3.597 3.597 0 0 1 2.718 4.293 1.916 1.916 0 0 0 3.737.839c.743-3.312-.867-6.608-3.716-8.149l.953-3.367c3.699-.17 6.658-3.223 6.658-6.961a6.983 6.983 0 0 0-6.976-6.976zm-6.59-8.014a3.15 3.15 0 0 1-3.145 3.146h-.005a3.15 3.15 0 0 1-3.143-3.146 3.15 3.15 0 0 1 3.146-3.146 3.15 3.15 0 0 1 3.147 3.146zM57.895 14.605a2.436 2.436 0 0 1 2.433 2.433 2.436 2.436 0 0 1-2.433 2.433 2.436 2.436 0 0 1-2.433-2.433 2.435 2.435 0 0 1 2.433-2.433zm0 15.138c1.495 0 2.781.858 3.43 2.1a20.897 20.897 0 0 0-2.189-.129h-2.491c-.735 0-1.46.052-2.179.128.649-1.241 1.934-2.099 3.429-2.099zM37.639 48.291c.212 0 .419.022.62.063.013.002.027.008.04.01a3.149 3.149 0 0 1 2.486 3.073 3.15 3.15 0 0 1-3.146 3.146 3.15 3.15 0 0 1-3.146-3.146 3.15 3.15 0 0 1 3.146-3.146zM23.617 66.905a3.15 3.15 0 0 1-3.146-3.146c0-.867.353-1.653.922-2.223l.006-.005.002-.002a3.137 3.137 0 0 1 2.216-.916 3.15 3.15 0 0 1 3.146 3.146 3.15 3.15 0 0 1-3.146 3.146zm34.273 8.551c-10.191 0-18.481-2.687-18.481-5.989v-1.678a1.42 1.42 0 0 0 1.614-.511 1.436 1.436 0 0 0-.311-2.007c-.578-.422-1.009-.854-1.303-1.301v-5.792c2.991-.786 5.207-3.506 5.207-6.74a6.976 6.976 0 0 0-3.512-6.047c2.842-5.954 8.868-9.847 15.542-9.847h2.491c6.703 0 12.749 3.923 15.576 9.919a6.97 6.97 0 0 0-3.4 5.978c0 3.181 2.143 5.867 5.06 6.702v5.839c-.294.441-.722.869-1.294 1.288a1.436 1.436 0 0 0 1.294 2.523v1.673c-.002 3.303-8.292 5.99-18.483 5.99zm30.134-5.879a3.15 3.15 0 0 1-3.146-3.146 3.15 3.15 0 0 1 3.146-3.146 3.15 3.15 0 0 1 3.146 3.146 3.15 3.15 0 0 1-3.146 3.146z"/><path d="M68.7 67.828c-2.152.498-4.563.835-7.166 1.003a1.436 1.436 0 0 0 .185 2.866c2.759-.178 5.326-.538 7.63-1.071a1.436 1.436 0 1 0-.649-2.798zM54.244 68.83c-2.604-.168-5.015-.506-7.166-1.005a1.436 1.436 0 1 0-.65 2.798c2.304.535 4.871.896 7.631 1.074a1.437 1.437 0 0 0 .185-2.867z"/><circle cx="51.752" cy="45.977" r="4.004"/><circle cx="64.03" cy="45.977" r="4.004"/><path d="M68.433 79.125c-4.513 0-8.186 3.672-8.186 8.186 0 1.057.857 1.915 1.915 1.915l.023-.002H74.68l.023.002a1.915 1.915 0 0 0 1.915-1.915c.001-4.515-3.672-8.186-8.185-8.186zm0 3.829c1.71 0 3.179 1 3.891 2.438h-7.783c.713-1.437 2.182-2.438 3.892-2.438zM47.347 79.125c-4.513 0-8.186 3.672-8.186 8.186 0 1.057.857 1.915 1.915 1.915l.023-.002h12.495l.023.002a1.915 1.915 0 0 0 1.915-1.915c.001-4.515-3.671-8.186-8.185-8.186zm0 3.829c1.71 0 3.179 1 3.891 2.438h-7.783c.713-1.437 2.182-2.438 3.892-2.438zM69.106 57.047h-1.032v-1.678a1.436 1.436 0 0 0-2.872 0v1.678H64.03a1.436 1.436 0 0 0 0 2.872h1.172v1.678a1.436 1.436 0 0 0 2.872 0v-1.678h1.032a1.436 1.436 0 0 0 0-2.872z"/></g></svg><svg width="130" height="130" viewBox="-3 -3 130 130" id="c37" y="130"><path fill="none" d="M0-4h128v128H0z"/><g transform="matrix(1.03187 0 0 1.03187 -4.04 -181.522)"><g transform="translate(0 172)" fill="#fff"><path d="M71.525 101.637a43.937 43.937 0 0 1-22.692 6.313C24.574 107.95 4.884 88.264 4.884 64c0-24.26 19.69-43.949 43.949-43.949 7.995 0 15.712 2.338 22.562 6.466L54.936 53.878a11.84 11.84 0 0 0-6.103-1.697c-6.524 0-11.821 5.295-11.821 11.818 0 6.526 5.296 11.821 11.821 11.821 2.149 0 4.261-.59 6.103-1.697l16.589 27.514z" opacity=".6"/><path d="M123.116 38.546v51.321-51.321l-23.655-5.612v13.629l10.824 2.807v43.706l12.831-3.209"/><path opacity=".6" d="M97.057 32.529v63.35l-23.655 5.615V88.268h10.825V69.414H73.402V58.995h10.825V40.146H73.402V26.917z"/></g><path d="M71.525 273.637a43.937 43.937 0 0 1-22.692 6.313C24.574 279.949 4.884 260.264 4.884 236c0-24.26 19.69-43.949 43.949-43.949 7.995 0 15.712 2.338 22.562 6.466l-16.459 27.362a11.84 11.84 0 0 0-6.103-1.697c-6.524 0-11.821 5.295-11.821 11.818 0 6.525 5.296 11.82 11.821 11.82 2.149 0 4.261-.59 6.103-1.697l16.589 27.514z" fill="#698b71"/><path fill="#2aa3b4" d="M123.116 210.547v51.32-51.32l-23.655-5.613v13.629l10.824 2.807v43.706l12.831-3.209"/><path fill="#f1615f" d="M73.402 273.494v-13.226h10.825v-18.854H73.402v-10.419h10.825v-18.849H73.402v-13.228l23.655 5.611v63.35z"/></g></svg><svg width="130" height="130" viewBox="-3 -3 130 130" id="cad" y="260"><g transform="matrix(2.54167 0 0 2.54167 -1.542 -1.542)"><path class="cst0" fill="none" stroke="#698b71" stroke-width="2" stroke-miterlimit="10" d="M38 27h4v4h-4zM23 44h4v4h-4zM8 27h4v4H8zM23 45.9c-7.3-1-13-7.3-13-14.9M40 31c0 7.6-5.7 13.9-13 14.9"/><g><path class="cst0" fill="none" stroke="#698b71" stroke-width="2" stroke-miterlimit="10" d="M27 46h14M41 44h4v4h-4z"/></g><g><path class="cst0" fill="none" stroke="#698b71" stroke-width="2" stroke-miterlimit="10" d="M23 46H9M9 48H5v-4h4z"/></g><path class="cst0" fill="#f95" stroke="#698b71" stroke-width="2" stroke-miterlimit="10" d="M18.5 25h13"/><g><path d="M37 18c0-2.2-1.8-4-4-4s-4 1.8-4 4M29 18c0-2.2-1.8-4-4-4s-4 1.8-4 4M21 18c0-2.2-1.8-4-4-4s-4 1.8-4 4" class="cst0" fill="none" stroke="#698b71" stroke-width="2" stroke-miterlimit="10"/></g><path class="cst0" fill="none" stroke="#698b71" stroke-width="2" stroke-miterlimit="10" d="M37 20L25 31 13 20V2h24z"/></g></svg><svg width="130" height="130" viewBox="-3 -3 130 130" id="cam" y="390"><g transform="rotate(-90 62 61.987) scale(1.93716)" fill="#6c535d"><path d="M35.586.519a698.645 698.645 0 0 0-7.382 0c-1.797.01-2.796 1.004-2.816 2.8a239.018 239.018 0 0 0-.002 4.354c.014 1.894.996 2.863 2.921 2.88.457.004.914.005 1.37.005l2.234-.005 2.266.007c.594 0 1.08-.005 1.536-.013 1.635-.032 2.626-1.023 2.652-2.652.021-1.428.023-2.946.002-4.643-.023-1.754-1.01-2.725-2.781-2.733zm-.012 2.613c.035 0 .11.001.176.004a165.363 165.363 0 0 1 .003 4.717l-.002.078a80.53 80.53 0 0 1-1.573.014l-2.269-.006-2.228.005c-.449 0-.9-.001-1.351-.005a2.708 2.708 0 0 1-.317-.018A2.703 2.703 0 0 1 28 7.654c-.012-1.743-.012-3.07.002-4.306 0-.056.002-.143.005-.212.069-.003.155-.004.21-.004a693.92 693.92 0 0 1 7.357 0zM28.151 28.226c.487.008.975.011 1.465.011l2.26-.005 2.248.005c.509 0 1.02-.003 1.53-.011 1.702-.027 2.691-1.008 2.714-2.691.021-1.556.021-3.119-.002-4.644-.023-1.676-1.04-2.683-2.72-2.693a665.725 665.725 0 0 0-7.478-.002c-1.741.011-2.754 1.009-2.777 2.74-.02 1.444-.02 2.973-.002 4.546.022 1.742 1.001 2.717 2.762 2.744zm7.477-7.415l.122.002.003.116a154.552 154.552 0 0 1-.002 4.679l-.138.005c-.479.006-.962.009-1.442.009l-2.294-.005-2.261.005c-.475 0-.948-.002-1.423-.009-.039 0-.119-.002-.186-.006a180.625 180.625 0 0 1-.001-4.637l.003-.156c.066-.003.143-.004.177-.004 2.477-.015 4.96-.017 7.442.001zM35.58 35.713c-.455-.006-.912-.008-1.367-.008l-2.14.005-2.422-.005c-.491 0-.981.002-1.474.008-1.781.026-2.771 1.026-2.787 2.819a206.07 206.07 0 0 0 0 4.449c.02 1.768.998 2.75 2.754 2.762a495.84 495.84 0 0 0 7.479.002c1.728-.011 2.73-1.02 2.747-2.769.015-1.421.015-2.876 0-4.448-.017-1.795-1.008-2.794-2.79-2.815zm.177 7.233c-.002.081-.003.14-.006.182-.045.002-.098.002-.146.002-2.506.017-5.07.017-7.444 0-.053 0-.108-.002-.155-.003l-.005-.174a214.305 214.305 0 0 1 0-4.393c0-.05.002-.149.006-.227.059-.003.134-.003.204-.005.479-.008.956-.009 1.433-.009l2.234.005 2.228-.005c.481 0 .96.003 1.441.008.083.002.147.005.195.011.006.053.011.123.012.215.018 1.553.018 2.991.003 4.393zM35.58 52.645c-.508-.006-1.017-.008-1.525-.008l-2.347.003-2.098-.005c-.478 0-.956.003-1.432.009-1.782.024-2.772 1.025-2.789 2.817a206.255 206.255 0 0 0 0 4.451c.02 1.767.998 2.748 2.754 2.762a558.368 558.368 0 0 0 7.479 0c1.728-.011 2.73-1.019 2.747-2.768.015-1.421.015-2.877 0-4.449-.016-1.793-1.007-2.791-2.789-2.812zm.177 7.233l-.005.182c-.045.002-.098.002-.147.002a512.65 512.65 0 0 1-7.445-.002c-.051 0-.107 0-.153-.002l-.005-.176a214.303 214.303 0 0 1 0-4.393c0-.05.002-.149.006-.227.059-.003.134-.003.203-.005.479-.006.957-.008 1.435-.008l2.234.003 2.222-.003c.482 0 .965.002 1.447.008.083.002.147.005.195.011.006.053.011.122.012.213.016 1.558.016 2.994.001 4.397zM54.698 26.026c-.018-2.04-1.95-3.968-3.974-3.968l-.122.002c-.461.019-1.977.029-4.386.029l-2.279-.003c-.457 0-.917.002-1.375.008-.705.008-1.161.414-1.283 1.144-.105.615.365 1.232 1.05 1.376.254.051.511.056.775.056l7.359-.002c1.34.002 1.648.303 1.648 1.614v11.356c0 1.07-.2 1.271-1.261 1.273l-2.095.002-2.975-.003c.631-.631 1.527-1.53 1.782-1.794.275-.282.416-.634.4-.993a1.254 1.254 0 0 0-.47-.896c-.512-.431-1.268-.359-1.842.191l-3.962 3.84a1.409 1.409 0 0 0-.448 1.019c0 .394.171.777.482 1.08L45.92 45.4c.373.358.783.547 1.185.547.317 0 .606-.12.835-.347.439-.434.606-1.205-.243-2.07-.307-.31-1.283-1.334-1.935-2.021l2.778.002c.687 0 1.465 0 2.276-.005 2.087-.011 3.865-1.656 3.881-3.594.037-3.937.037-7.936.001-11.886zM18.347 18.293c-.568-.546-1.321-.621-1.839-.193a1.26 1.26 0 0 0-.472.901c-.017.353.125.705.4.99.255.265 1.149 1.163 1.782 1.796l-2.61.002-2.46-.002c-1.061-.002-1.261-.204-1.261-1.273V9.158c0-1.312.308-1.613 1.648-1.614l7.359.002c.264 0 .521-.005.777-.056.684-.143 1.154-.76 1.049-1.375-.122-.731-.578-1.137-1.283-1.145-.458-.005-.918-.008-1.376-.008l-2.278.003c-2.409 0-3.925-.01-4.386-.029l-.122-.002c-2.024 0-3.956 1.929-3.974 3.967-.036 3.95-.036 7.949 0 11.886.017 1.938 1.794 3.584 3.883 3.594.873.005 1.708.005 2.433.005l2.62-.002c-.652.686-1.63 1.711-1.937 2.022-.847.864-.681 1.635-.242 2.069.23.227.518.347.835.347.403 0 .813-.189 1.187-.548l4.197-4.043c.31-.303.481-.686.481-1.08 0-.379-.158-.74-.445-1.017l-3.966-3.841zM21.074 55.598c-.908-.88-1.815-1.759-2.727-2.638-.571-.548-1.33-.619-1.838-.192a1.258 1.258 0 0 0-.473.902c-.017.352.125.703.4.99.255.264 1.149 1.163 1.782 1.794l-2.975.003-2.093-.001c-1.062-.003-1.262-.204-1.262-1.274V43.825c0-1.31.308-1.612 1.648-1.614l7.359.001c.251 0 .518-.005.778-.057.682-.144 1.152-.76 1.047-1.373-.122-.732-.577-1.139-1.283-1.146-.458-.006-.918-.008-1.376-.008l-2.278.003c-2.409 0-3.925-.011-4.386-.029l-.122-.002c-2.024 0-3.956 1.928-3.974 3.968a653.963 653.963 0 0 0 0 11.885c.017 1.938 1.794 3.584 3.883 3.594.811.005 1.588.005 2.275.005l2.778-.002c-.652.687-1.629 1.711-1.935 2.021-.849.862-.682 1.635-.243 2.07.23.227.518.347.835.347.403 0 .813-.189 1.187-.548l4.197-4.043c.31-.302.481-.685.481-1.079 0-.38-.158-.742-.445-1.019l-1.24-1.201z"/></g></svg><svg width="130" height="130" viewBox="-3 -3 130 130" id="controller" y="520"><g transform="matrix(0 1.63054 -1.63054 0 143.527 -19.523)" fill="#c87137"><path d="M84.836 61.899L44.133 16.025a10.227 10.227 0 0 0-7.645-3.436 10.145 10.145 0 0 0-7.222 2.992L15.582 29.267a10.118 10.118 0 0 0-2.987 7.529 10.12 10.12 0 0 0 3.432 7.337l45.872 40.703a10.202 10.202 0 0 0 6.779 2.575c2.73 0 5.296-1.062 7.227-2.992l8.514-8.515c3.814-3.816 3.999-9.968.417-14.005zm-2.363 12.06l-8.514 8.515a7.419 7.419 0 0 1-5.281 2.187 7.46 7.46 0 0 1-4.954-1.881L17.851 42.076a7.4 7.4 0 0 1-2.508-5.362 7.393 7.393 0 0 1 2.185-5.502l13.685-13.685a7.41 7.41 0 0 1 5.276-2.187c2.135 0 4.172.915 5.588 2.511L82.78 63.725a7.476 7.476 0 0 1-.307 10.234z"/><path d="M60.42 57.15c1.32 0 2.562-.514 3.495-1.447a4.906 4.906 0 0 0 1.448-3.495 4.91 4.91 0 0 0-1.447-3.495 4.912 4.912 0 0 0-3.496-1.448 4.914 4.914 0 0 0-3.495 1.448 4.95 4.95 0 0 0 0 6.99 4.913 4.913 0 0 0 3.495 1.447zm-1.55-6.493a2.18 2.18 0 0 1 1.55-.643c.586 0 1.137.229 1.552.643.414.414.642.964.642 1.55 0 .585-.228 1.136-.643 1.55-.826.828-2.271.829-3.101 0a2.196 2.196 0 0 1 0-3.1zM65.363 68.634a4.91 4.91 0 0 0-1.447-3.495 4.912 4.912 0 0 0-3.496-1.448 4.914 4.914 0 0 0-3.495 1.448 4.95 4.95 0 0 0 0 6.99 4.912 4.912 0 0 0 3.495 1.448c1.32 0 2.562-.514 3.495-1.447a4.906 4.906 0 0 0 1.448-3.496zm-3.392 1.551c-.826.828-2.271.829-3.101 0a2.197 2.197 0 0 1 0-3.101 2.18 2.18 0 0 1 1.55-.643c.586 0 1.137.229 1.552.643.414.414.642.964.642 1.55a2.18 2.18 0 0 1-.643 1.551zM63.691 60.421c0 1.32.514 2.562 1.447 3.495a4.912 4.912 0 0 0 3.496 1.448 4.914 4.914 0 0 0 3.495-1.448 4.95 4.95 0 0 0 0-6.99 4.912 4.912 0 0 0-3.495-1.448c-1.32 0-2.562.514-3.495 1.447a4.91 4.91 0 0 0-1.448 3.496zm3.393-1.551a2.18 2.18 0 0 1 1.551-.642c.585 0 1.136.228 1.55.642a2.197 2.197 0 0 1 0 3.101c-.829.828-2.272.828-3.102 0a2.177 2.177 0 0 1-.642-1.55c0-.586.228-1.137.643-1.551zM55.703 56.926a4.912 4.912 0 0 0-3.495-1.448c-1.32 0-2.562.514-3.495 1.447a4.906 4.906 0 0 0-1.448 3.496c0 1.32.514 2.562 1.447 3.495a4.912 4.912 0 0 0 3.496 1.448 4.914 4.914 0 0 0 3.495-1.448 4.95 4.95 0 0 0 0-6.99zm-1.945 5.045c-.829.828-2.272.828-3.102 0a2.177 2.177 0 0 1-.642-1.55c0-.586.228-1.137.643-1.551a2.18 2.18 0 0 1 1.551-.642c.585 0 1.136.228 1.55.642a2.197 2.197 0 0 1 0 3.101zM36.469 27.966a5.184 5.184 0 0 0 3.69-1.529 5.185 5.185 0 0 0 1.528-3.69 5.185 5.185 0 0 0-1.528-3.69 5.185 5.185 0 0 0-3.69-1.529 5.185 5.185 0 0 0-3.69 1.529 5.185 5.185 0 0 0-1.528 3.69c0 1.394.543 2.705 1.528 3.69a5.184 5.184 0 0 0 3.69 1.529zm-1.745-6.965a2.452 2.452 0 0 1 1.745-.723c.659 0 1.279.257 1.745.723a2.45 2.45 0 0 1 .724 1.746c0 .66-.257 1.279-.724 1.746-.932.933-2.559.933-3.49 0A2.453 2.453 0 0 1 34 22.747c0-.659.257-1.279.724-1.746zM23.188 32.752a1.375 1.375 0 0 0-1.945 0l-3.649 3.649a1.376 1.376 0 0 0 0 1.944l3.649 3.649c.269.269.621.403.973.403s.704-.134.973-.403l3.649-3.649a1.376 1.376 0 0 0 0-1.944l-3.65-3.649zm-.973 6.327l-1.705-1.705 1.705-1.705 1.705 1.705-1.705 1.705zM70.663 71.637a1.374 1.374 0 0 0-1.944 0l-4.793 4.793a1.376 1.376 0 0 0 0 1.944l3.535 3.536a1.376 1.376 0 0 0 1.946 0l4.794-4.794a1.373 1.373 0 0 0-.001-1.944l-3.537-3.535zm-2.229 7.357l-1.591-1.591 2.849-2.849 1.592 1.591-2.85 2.849zM78.423 63.879a1.374 1.374 0 0 0-1.946 0l-4.794 4.793a1.376 1.376 0 0 0 0 1.944l3.535 3.536a1.374 1.374 0 0 0 1.946 0l4.794-4.793a1.376 1.376 0 0 0 0-1.944l-3.535-3.536zm-2.232 7.357L74.6 69.645l2.85-2.849 1.591 1.591-2.85 2.849zM50.744 49.723v-6.986a1.375 1.375 0 1 0-2.75 0v5.611h-5.611a1.375 1.375 0 1 0 0 2.75h6.986c.76 0 1.375-.616 1.375-1.375zM41.008 31.646c0 .759.615 1.375 1.375 1.375h5.611v5.611a1.375 1.375 0 1 0 2.75 0v-6.986c0-.759-.615-1.375-1.375-1.375h-6.986c-.76 0-1.375.616-1.375 1.375zM31.293 40.007c.76 0 1.375-.616 1.375-1.375v-5.611h5.61a1.375 1.375 0 1 0 0-2.75h-6.985c-.76 0-1.375.616-1.375 1.375v6.986c0 .76.615 1.375 1.375 1.375zM38.278 48.348h-5.61v-5.611a1.375 1.375 0 1 0-2.75 0v6.986c0 .759.615 1.375 1.375 1.375h6.985a1.375 1.375 0 1 0 0-2.75zM44.32 43.354a3.78 3.78 0 0 0 0-5.339L43 36.695c-1.426-1.425-3.911-1.425-5.339 0l-1.319 1.32a3.78 3.78 0 0 0 0 5.339l1.319 1.319a3.753 3.753 0 0 0 2.67 1.106 3.753 3.753 0 0 0 2.67-1.106l1.319-1.319zm-1.945-1.944l-1.319 1.319a1.047 1.047 0 0 1-1.449 0l-1.319-1.319a1.018 1.018 0 0 1-.301-.725c0-.274.106-.531.301-.725l1.318-1.319c.194-.194.451-.3.726-.3.275 0 .531.106.725.3l1.319 1.32a1.018 1.018 0 0 1-.001 1.449z"/></g></svg><svg width="130" height="130" viewBox="-3 -3 130 130" id="firmware" y="650"><g transform="matrix(1.2075 0 0 1.2075 1.625 1.625)" fill="#666"><path d="M82 8H18C12.5 8 8 12.5 8 18v64c0 5.5 4.5 10 10 10h64c5.5 0 10-4.5 10-10V18c0-5.5-4.5-10-10-10zm6 10v30H52V12h30c3.3 0 6 2.7 6 6zm-70-6h30v36H12V18c0-3.3 2.7-6 6-6zm-6 70V52h36v36H18c-3.3 0-6-2.7-6-6zm70 6H52V52h36v30c0 3.3-2.7 6-6 6z"/><path d="M21.1 66v4h6.6v6.7h4V70h6.7v-4h-6.7v-6.6h-4V66zM21.1 28.7h17.3v4H21.1zM60.7 72H78v4H60.7zM60.7 63H78v4H60.7zM72.2 30.7l4.7-4.7-2.8-2.9-4.7 4.7-4.8-4.7-2.8 2.9 4.7 4.7-4.7 4.7 2.8 2.8 4.8-4.7 4.7 4.7 2.8-2.8z"/></g></svg><svg width="130" height="130" viewBox="-3 -3 130 130" id="production" y="780"><path style="text-indent:0;text-transform:none;block-progression:tb;marker:none" d="M61.885 5.58c-.475.016-.91.108-1.265.23L11.557 25.435c-1.361.55-2.315 1.982-2.3 3.45V95.12c0 1.456.95 2.866 2.3 3.412l49.063 19.625a3.722 3.722 0 0 0 2.76 0l49.063-19.625c1.35-.546 2.3-1.956 2.3-3.412V28.885c.015-1.468-.939-2.9-2.3-3.45L63.38 5.81a4.006 4.006 0 0 0-1.495-.23zM62 13.208l39.097 15.639-14.565 5.864-39.136-15.677L62 13.208zM37.468 23.02l39.098 15.64L62 44.523 22.903 28.847l14.565-5.827zM16.616 34.328L58.32 51.002v58.3L16.616 92.592V34.328zm90.768 0V92.59L90.21 99.45V85.309a3.68 3.68 0 0 0-3.718-3.757 3.68 3.68 0 0 0-3.641 3.757v17.095l-17.172 6.9V51.002l17.172-6.861v14.182a3.68 3.68 0 1 0 7.36 0V41.189l17.172-6.861z" overflow="visible" color="#000" fill="#2ca4b4"/></svg></svg>